<svg width="260" height="65" viewBox="0 0 260 65" fill="none" xmlns="http://www.w3.org/2000/svg">
<g clip-path="url(#clip0_21_2)">
<path d="M71.8773 16.0034C71.9785 16.0034 72.0898 15.9933 72.2112 15.973C72.3528 15.9326 72.4944 15.8415 72.636 15.6999C72.7169 15.619 72.808 15.5785 72.9091 15.5785C73.071 15.5785 73.1924 15.6696 73.2733 15.8516L75.6707 20.2823C75.7314 20.4037 75.7618 20.4947 75.7618 20.5554C75.7618 20.7173 75.6808 20.8387 75.519 20.9196L74.2444 21.6176C74.123 21.6783 74.0219 21.7086 73.9409 21.7086C73.8196 21.7086 73.7083 21.6176 73.6071 21.4355L73.5161 21.2534C73.0103 20.2418 72.282 19.5236 71.3311 19.0988C70.3802 18.6739 69.2877 18.4615 68.0536 18.4615H66.5666V34.0599C66.5666 34.8691 66.7183 35.557 67.0218 36.1235C67.3253 36.6697 67.8614 36.9428 68.6302 36.9428H68.8426C69.1461 36.9428 69.2978 37.0946 69.2978 37.3981V38.3085C69.2978 38.6119 69.1461 38.7637 68.8426 38.7637H59.4957C59.1923 38.7637 59.0405 38.6119 59.0405 38.3085V37.3981C59.0405 37.0946 59.1923 36.9428 59.4957 36.9428H59.6778C60.4466 36.9428 60.9827 36.6697 61.2862 36.1235C61.5897 35.557 61.7414 34.8691 61.7414 34.0599V18.4615H60.2544C59.0203 18.4615 57.9278 18.6739 56.9769 19.0988C56.0261 19.5236 55.2977 20.2418 54.7919 21.2534L54.7009 21.4355C54.5998 21.6176 54.4885 21.7086 54.3671 21.7086C54.2862 21.7086 54.185 21.6783 54.0636 21.6176L52.789 20.9196C52.6272 20.8387 52.5463 20.7173 52.5463 20.5554C52.5463 20.4947 52.5766 20.4037 52.6373 20.2823L55.0347 15.8516C55.1359 15.6696 55.2573 15.5785 55.3989 15.5785C55.5 15.5785 55.5911 15.619 55.672 15.6999C55.8136 15.8415 55.9451 15.9326 56.0665 15.973C56.2081 15.9933 56.3295 16.0034 56.4307 16.0034H71.8773ZM99.3851 36.9428C99.6885 36.9428 99.8403 37.0946 99.8403 37.3981V38.3085C99.8403 38.6119 99.6885 38.7637 99.3851 38.7637H90.0685C89.765 38.7637 89.6133 38.6119 89.6133 38.3085V37.3981C89.6133 37.0946 89.765 36.9428 90.0685 36.9428H90.2506C90.7564 36.9428 91.1307 36.8012 91.3734 36.518C91.6162 36.2145 91.7376 35.8605 91.7376 35.4558C91.7376 34.9905 91.6061 34.5252 91.3431 34.0599L88.5815 28.9009C87.9746 28.9616 87.317 28.9919 86.6089 28.9919H84.3329V34.0599C84.3329 34.8691 84.4847 35.557 84.7881 36.1235C85.0916 36.6697 85.6176 36.9428 86.3662 36.9428H86.5483C86.8517 36.9428 87.0035 37.0946 87.0035 37.3981V38.3085C87.0035 38.6119 86.8517 38.7637 86.5483 38.7637H77.2317C76.9282 38.7637 76.7765 38.6119 76.7765 38.3085V37.3981C76.7765 37.0946 76.9282 36.9428 77.2317 36.9428H77.4441C78.2129 36.9428 78.7389 36.6697 79.0222 36.1235C79.3256 35.557 79.4774 34.8691 79.4774 34.0599V20.7072C79.4774 19.8777 79.3155 19.1898 78.9918 18.6436C78.6884 18.0973 78.1118 17.8242 77.262 17.8242C76.9586 17.8242 76.8068 17.6725 76.8068 17.369V16.4586C76.8068 16.1551 76.9586 16.0034 77.262 16.0034H88.3994C90.0382 16.0034 91.4645 16.2967 92.6784 16.8834C93.8922 17.4702 94.833 18.2491 95.5006 19.2202C96.1683 20.1913 96.5021 21.2534 96.5021 22.4066C96.5021 23.4384 96.229 24.4399 95.6827 25.411C95.1365 26.3821 94.2058 27.1812 92.8908 27.8084L96.1986 34.0599C96.6032 34.8084 97.018 35.4761 97.4428 36.0628C97.8879 36.6495 98.4848 36.9428 99.2333 36.9428H99.3851ZM86.093 26.8373C88.1162 26.8373 89.5931 26.4428 90.5237 25.6537C91.4746 24.8647 91.95 23.7823 91.95 22.4066C91.95 21.0106 91.5151 19.8979 90.6451 19.0684C89.7752 18.2389 88.5815 17.8242 87.0642 17.8242H84.3329V26.8373H86.093ZM121.641 34.0599C121.965 34.8894 122.278 35.5772 122.582 36.1235C122.885 36.6697 123.32 36.9428 123.887 36.9428C124.089 36.9428 124.21 36.9833 124.251 37.0642C124.312 37.1249 124.342 37.2362 124.342 37.3981V38.3085C124.342 38.6119 124.19 38.7637 123.887 38.7637H114.57C114.267 38.7637 114.115 38.6119 114.115 38.3085V37.3981C114.115 37.2362 114.135 37.1249 114.176 37.0642C114.236 36.9833 114.368 36.9428 114.57 36.9428C115.116 36.9428 115.642 36.7405 116.148 36.3359C116.674 35.9313 116.937 35.4356 116.937 34.8489C116.937 34.7073 116.917 34.5758 116.877 34.4544C116.856 34.333 116.826 34.2015 116.786 34.0599L115.845 31.4804H107.53L106.619 34.0599C106.579 34.2015 106.548 34.3431 106.528 34.4847C106.508 34.6061 106.498 34.7174 106.498 34.8186C106.498 35.466 106.761 35.9819 107.287 36.3663C107.813 36.7507 108.339 36.9428 108.865 36.9428C109.088 36.9428 109.219 36.9833 109.259 37.0642C109.3 37.1249 109.32 37.2362 109.32 37.3981V38.3085C109.32 38.6119 109.168 38.7637 108.865 38.7637H101.309C101.005 38.7637 100.853 38.6119 100.853 38.3085V37.3981C100.853 37.2362 100.874 37.1249 100.914 37.0642C100.975 36.9833 101.106 36.9428 101.309 36.9428C101.915 36.9428 102.371 36.6596 102.674 36.0931C102.998 35.5267 103.301 34.8489 103.585 34.0599L110.109 16.3979C110.19 16.1349 110.362 16.0034 110.625 16.0034H114.297C114.56 16.0034 114.732 16.1248 114.813 16.3675L121.641 34.0599ZM108.47 28.8402H114.874L111.596 19.9788L108.47 28.8402ZM150.809 16.0034C151.112 16.0034 151.264 16.1551 151.264 16.4586V17.369C151.264 17.6725 151.112 17.8242 150.809 17.8242C150.06 17.8242 149.504 18.0973 149.14 18.6436C148.775 19.1898 148.593 19.8777 148.593 20.7072V38.3085C148.593 38.6119 148.442 38.7637 148.138 38.7637H146.044C145.842 38.7637 145.66 38.6726 145.498 38.4905L131.144 21.9817V34.0599C131.144 34.8691 131.326 35.557 131.69 36.1235C132.074 36.6697 132.641 36.9428 133.389 36.9428C133.693 36.9428 133.845 37.0946 133.845 37.3981V38.3085C133.845 38.6119 133.693 38.7637 133.389 38.7637H125.894C125.59 38.7637 125.438 38.6119 125.438 38.3085V37.3981C125.438 37.0946 125.59 36.9428 125.894 36.9428C126.642 36.9428 127.199 36.6697 127.563 36.1235C127.927 35.557 128.109 34.8691 128.109 34.0599V18.5829C127.806 18.3199 127.502 18.1277 127.199 18.0063C126.915 17.8849 126.582 17.8242 126.197 17.8242C125.894 17.8242 125.742 17.6725 125.742 17.369V16.4586C125.742 16.1551 125.894 16.0034 126.197 16.0034H131.447C131.67 16.0034 131.852 16.0944 131.993 16.2765L145.559 31.7535V20.7072C145.559 19.8777 145.366 19.1898 144.982 18.6436C144.618 18.0973 144.061 17.8242 143.313 17.8242C143.009 17.8242 142.858 17.6725 142.858 17.369V16.4586C142.858 16.1551 143.009 16.0034 143.313 16.0034H150.809ZM169.126 22.8922C169.065 22.9124 169.004 22.9427 168.944 22.9832C168.883 23.0034 168.822 23.0135 168.762 23.0135C168.6 23.0135 168.428 22.8922 168.246 22.6494C166.951 21.0309 165.676 19.8676 164.422 19.1595C163.168 18.4514 161.873 18.0973 160.537 18.0973C159.728 18.0973 159.03 18.3098 158.444 18.7346C157.877 19.1595 157.594 19.8271 157.594 20.7375C157.594 21.4861 157.826 22.1031 158.292 22.5887C158.757 23.0742 159.354 23.4789 160.082 23.8026C160.831 24.106 161.589 24.369 162.358 24.5916C163.511 24.9153 164.644 25.2795 165.757 25.6841C166.89 26.0887 167.912 26.5743 168.822 27.1407C169.733 27.687 170.461 28.3647 171.007 29.174C171.553 29.963 171.827 30.924 171.827 32.057C171.827 33.4327 171.473 34.6567 170.764 35.729C170.077 36.8012 169.075 37.6408 167.76 38.2478C166.445 38.8547 164.857 39.1582 162.996 39.1582C162.085 39.1582 161.225 39.0368 160.416 38.794C159.627 38.5715 158.858 38.2781 158.11 37.914C157.948 37.833 157.796 37.7926 157.654 37.7926C157.472 37.7926 157.381 37.8937 157.381 38.096C157.381 38.1567 157.402 38.268 157.442 38.4299C157.503 38.5715 157.533 38.6929 157.533 38.794C157.533 39.0166 157.361 39.1278 157.017 39.1278H155.5C155.136 39.1278 154.883 38.9862 154.741 38.703L151.069 31.8142C150.988 31.6523 150.948 31.531 150.948 31.45C150.948 31.2275 151.059 31.0555 151.282 30.9341L152.617 30.1755C152.678 30.135 152.738 30.1046 152.799 30.0844C152.86 30.0642 152.92 30.0541 152.981 30.0541C153.183 30.0541 153.355 30.1755 153.497 30.4182C154.873 32.5021 156.39 34.0498 158.049 35.0613C159.728 36.0729 161.438 36.5787 163.178 36.5787C164.493 36.5787 165.504 36.2853 166.212 35.6986C166.92 35.0917 167.275 34.333 167.275 33.4226C167.275 32.5324 167.052 31.8344 166.607 31.3286C166.162 30.8229 165.474 30.398 164.543 30.0541C163.613 29.7101 162.419 29.3257 160.962 28.9009C159.971 28.6176 158.99 28.2737 158.019 27.8691C157.048 27.4644 156.167 26.9789 155.378 26.4124C154.589 25.8257 153.952 25.1378 153.467 24.3488C153.001 23.5396 152.769 22.5887 152.769 21.4962C152.769 20.1609 153.102 19.0583 153.77 18.1884C154.458 17.3184 155.378 16.6811 156.532 16.2765C157.685 15.8516 158.99 15.6392 160.446 15.6392C161.579 15.6392 162.54 15.7808 163.329 16.0641C164.118 16.3473 164.725 16.6103 165.15 16.8531C165.494 17.0554 165.727 17.1566 165.848 17.1566C165.949 17.1566 166 17.0959 166 16.9745C166 16.8733 165.97 16.7317 165.909 16.5496C165.868 16.3675 165.848 16.1753 165.848 15.973C165.848 15.6696 166.03 15.5178 166.394 15.5178H167.487C167.851 15.5178 168.104 15.6898 168.246 16.0337L170.37 21.4658C170.41 21.5468 170.441 21.6277 170.461 21.7086C170.481 21.7693 170.491 21.83 170.491 21.8907C170.491 22.0728 170.38 22.2245 170.157 22.3459L169.126 22.8922ZM193.945 16.0034C194.249 16.0034 194.4 16.1551 194.4 16.4586V17.369C194.4 17.6725 194.249 17.8242 193.945 17.8242C193.379 17.8242 192.923 18.1074 192.579 18.6739C192.256 19.2202 191.952 19.8777 191.669 20.6465L185.144 38.3995C185.063 38.6423 184.892 38.7637 184.629 38.7637H180.957C180.714 38.7637 180.542 38.6423 180.441 38.3995L173.613 20.6465C173.309 19.8575 172.995 19.1898 172.672 18.6436C172.368 18.0973 171.933 17.8242 171.367 17.8242C171.063 17.8242 170.912 17.6725 170.912 17.369V16.4586C170.912 16.1551 171.063 16.0034 171.367 16.0034H180.683C180.987 16.0034 181.139 16.1551 181.139 16.4586V17.369C181.139 17.6725 180.987 17.8242 180.683 17.8242C180.056 17.8242 179.5 18.0265 179.014 18.4311C178.549 18.8155 178.316 19.3112 178.316 19.9181C178.316 20.1407 178.407 20.4846 178.589 20.9499L183.748 34.4847L188.634 20.6465C188.715 20.4037 188.756 20.1508 188.756 19.8878C188.756 19.3011 188.513 18.8155 188.027 18.4311C187.562 18.0265 187.016 17.8242 186.389 17.8242C186.085 17.8242 185.933 17.6725 185.933 17.369V16.4586C185.933 16.1551 186.085 16.0034 186.389 16.0034H193.945ZM211.586 34.0599C211.909 34.8894 212.223 35.5772 212.526 36.1235C212.83 36.6697 213.265 36.9428 213.831 36.9428C214.034 36.9428 214.155 36.9833 214.196 37.0642C214.256 37.1249 214.287 37.2362 214.287 37.3981V38.3085C214.287 38.6119 214.135 38.7637 213.831 38.7637H204.515C204.211 38.7637 204.06 38.6119 204.06 38.3085V37.3981C204.06 37.2362 204.08 37.1249 204.12 37.0642C204.181 36.9833 204.313 36.9428 204.515 36.9428C205.061 36.9428 205.587 36.7405 206.093 36.3359C206.619 35.9313 206.882 35.4356 206.882 34.8489C206.882 34.7073 206.862 34.5758 206.821 34.4544C206.801 34.333 206.771 34.2015 206.73 34.0599L205.789 31.4804H197.474L196.564 34.0599C196.523 34.2015 196.493 34.3431 196.473 34.4847C196.453 34.6061 196.443 34.7174 196.443 34.8186C196.443 35.466 196.706 35.9819 197.232 36.3663C197.758 36.7507 198.284 36.9428 198.81 36.9428C199.032 36.9428 199.164 36.9833 199.204 37.0642C199.245 37.1249 199.265 37.2362 199.265 37.3981V38.3085C199.265 38.6119 199.113 38.7637 198.81 38.7637H191.253C190.95 38.7637 190.798 38.6119 190.798 38.3085V37.3981C190.798 37.2362 190.818 37.1249 190.859 37.0642C190.919 36.9833 191.051 36.9428 191.253 36.9428C191.86 36.9428 192.315 36.6596 192.619 36.0931C192.943 35.5267 193.246 34.8489 193.529 34.0599L200.054 16.3979C200.135 16.1349 200.307 16.0034 200.57 16.0034H204.242C204.505 16.0034 204.677 16.1248 204.758 16.3675L211.586 34.0599ZM198.415 28.8402H204.818L201.541 19.9788L198.415 28.8402ZM236.035 34.0599C236.359 34.8894 236.673 35.5772 236.976 36.1235C237.279 36.6697 237.714 36.9428 238.281 36.9428C238.483 36.9428 238.605 36.9833 238.645 37.0642C238.706 37.1249 238.736 37.2362 238.736 37.3981V38.3085C238.736 38.6119 238.584 38.7637 238.281 38.7637H228.964C228.661 38.7637 228.509 38.6119 228.509 38.3085V37.3981C228.509 37.2362 228.529 37.1249 228.57 37.0642C228.631 36.9833 228.762 36.9428 228.964 36.9428C229.511 36.9428 230.037 36.7405 230.542 36.3359C231.068 35.9313 231.331 35.4356 231.331 34.8489C231.331 34.7073 231.311 34.5758 231.271 34.4544C231.251 34.333 231.22 34.2015 231.18 34.0599L230.239 31.4804H221.924L221.013 34.0599C220.973 34.2015 220.943 34.3431 220.922 34.4847C220.902 34.6061 220.892 34.7174 220.892 34.8186C220.892 35.466 221.155 35.9819 221.681 36.3663C222.207 36.7507 222.733 36.9428 223.259 36.9428C223.482 36.9428 223.613 36.9833 223.654 37.0642C223.694 37.1249 223.714 37.2362 223.714 37.3981V38.3085C223.714 38.6119 223.563 38.7637 223.259 38.7637H215.703C215.399 38.7637 215.248 38.6119 215.248 38.3085V37.3981C215.248 37.2362 215.268 37.1249 215.308 37.0642C215.369 36.9833 215.5 36.9428 215.703 36.9428C216.31 36.9428 216.765 36.6596 217.068 36.0931C217.392 35.5267 217.696 34.8489 217.979 34.0599L224.503 16.3979C224.584 16.1349 224.756 16.0034 225.019 16.0034H228.691C228.954 16.0034 229.126 16.1248 229.207 16.3675L236.035 34.0599ZM222.865 28.8402H229.268L225.99 19.9788L222.865 28.8402ZM259.558 32.2694C259.74 32.3503 259.831 32.4717 259.831 32.6336C259.831 32.6538 259.821 32.6841 259.801 32.7246C259.801 32.7448 259.781 32.8055 259.74 32.9067L256.888 38.9154C256.807 39.0975 256.685 39.1885 256.524 39.1885C256.483 39.1885 256.433 39.1683 256.372 39.1278C256.311 39.1076 256.22 39.0368 256.099 38.9154C255.998 38.8143 255.795 38.7637 255.492 38.7637H240.288C239.984 38.7637 239.833 38.6119 239.833 38.3085V37.3981C239.833 37.0946 239.984 36.9428 240.288 36.9428C241.785 36.9428 242.534 35.9819 242.534 34.0599V20.7375C242.534 18.8155 241.785 17.8545 240.288 17.8545C239.984 17.8545 239.833 17.7028 239.833 17.3993V16.4889C239.833 16.1652 239.984 16.0034 240.288 16.0034H249.483C249.867 16.0034 250.06 16.1652 250.06 16.4889V17.3993C250.06 17.7028 249.878 17.8545 249.513 17.8545H247.359V33.7261C247.359 35.648 248.057 36.609 249.453 36.609H250.636C252.113 36.609 253.469 36.2954 254.703 35.6683C255.937 35.0209 256.989 33.8171 257.859 32.057L257.95 31.8749C258.051 31.6928 258.172 31.6018 258.314 31.6018C258.415 31.6018 258.506 31.6321 258.587 31.6928L259.558 32.2694Z" fill="white"/>
<path d="M54.5242 54.4625L52.936 54.6249C52.944 54.3562 52.95 54.0775 52.954 53.7887C52.962 53.4959 52.9681 53.2051 52.9721 52.9164C52.9761 52.6276 52.9801 52.3448 52.9841 52.0681C52.9881 51.7874 52.9901 51.5227 52.9901 51.274C52.9941 50.6884 52.9961 50.1129 52.9961 49.5474C52.9921 49.042 52.9861 48.5527 52.9781 48.0795C52.9741 47.8789 52.9681 47.6724 52.96 47.4598C52.956 47.2472 52.95 47.0387 52.942 46.8341C52.934 46.6296 52.9239 46.4371 52.9119 46.2566C52.9039 46.0721 52.8919 45.9077 52.8758 45.7633L54.3919 45.6911C54.3838 45.9397 54.3758 46.1964 54.3678 46.4611C54.3638 46.7218 54.3598 46.9825 54.3558 47.2432C54.3518 47.4999 54.3477 47.7486 54.3437 47.9892C54.3437 48.2299 54.3437 48.4545 54.3437 48.663C54.3437 49.7098 54.3558 50.7085 54.3798 51.659C54.4079 52.6055 54.456 53.54 54.5242 54.4625ZM69.3093 45.5708C69.2893 45.8956 69.2712 46.2345 69.2552 46.5875C69.2431 46.9364 69.2311 47.2873 69.2191 47.6403C69.211 47.9932 69.203 48.3402 69.195 48.6811C69.191 49.022 69.187 49.3428 69.183 49.6436C69.179 49.9444 69.177 50.2192 69.177 50.4678C69.177 50.7165 69.177 50.9271 69.177 51.0995C69.177 51.3241 69.177 51.5728 69.177 51.8455C69.177 52.1182 69.179 52.399 69.183 52.6878C69.187 52.9765 69.191 53.2673 69.195 53.5601C69.203 53.8489 69.213 54.1216 69.2251 54.3783C69.0526 54.3703 68.8942 54.3662 68.7498 54.3662C68.6094 54.3662 68.4811 54.3662 68.3648 54.3662C68.1562 54.3662 67.9838 54.3683 67.8474 54.3723C67.711 54.3763 67.6027 54.3823 67.5225 54.3903C67.4263 54.3983 67.3521 54.4064 67.2999 54.4144C67.2879 54.3302 67.2618 54.1998 67.2217 54.0233C67.1856 53.8428 67.1375 53.6303 67.0773 53.3856C67.0212 53.141 66.955 52.8703 66.8788 52.5735C66.8026 52.2767 66.7204 51.9678 66.6322 51.647C66.5479 51.3261 66.4597 51.0013 66.3674 50.6724C66.2752 50.3395 66.183 50.0166 66.0907 49.7038C66.0025 49.3869 65.9142 49.0882 65.826 48.8074C65.7418 48.5226 65.6636 48.268 65.5914 48.0434C65.5593 48.5567 65.5352 49.032 65.5192 49.4692C65.5031 49.9023 65.4911 50.2813 65.4831 50.6062C65.4711 50.9832 65.465 51.3281 65.465 51.641C65.465 51.9097 65.4711 52.1944 65.4831 52.4953C65.4911 52.7519 65.5051 53.0447 65.5252 53.3736C65.5493 53.7025 65.5834 54.0374 65.6275 54.3783C65.3186 54.3662 65.064 54.3602 64.8634 54.3602C64.6669 54.3562 64.5105 54.3542 64.3942 54.3542H64.0994C64.1194 53.6363 64.1355 53.0267 64.1475 52.5253C64.1596 52.024 64.1676 51.6049 64.1716 51.268C64.1796 50.9271 64.1836 50.6543 64.1836 50.4498C64.1876 50.2452 64.1896 50.0808 64.1896 49.9565C64.1896 49.8281 64.1876 49.7259 64.1836 49.6497C64.1836 49.5734 64.1836 49.4952 64.1836 49.415C64.1836 49.2145 64.1816 48.9759 64.1776 48.6991C64.1776 48.4224 64.1736 48.1256 64.1656 47.8087C64.1575 47.4879 64.1455 47.155 64.1295 46.8101C64.1134 46.4651 64.0914 46.1242 64.0633 45.7873C64.4724 45.7873 64.8093 45.7833 65.074 45.7753C65.3387 45.7673 65.5493 45.7593 65.7057 45.7512C65.8902 45.7392 66.0326 45.7272 66.1328 45.7151C66.1529 45.8435 66.193 46.044 66.2531 46.3168C66.3173 46.5895 66.3915 46.9063 66.4757 47.2673C66.564 47.6242 66.6622 48.0113 66.7705 48.4284C66.8788 48.8455 66.9891 49.2666 67.1014 49.6918C67.2177 50.1129 67.334 50.524 67.4503 50.9251C67.5667 51.3221 67.6769 51.6811 67.7812 52.0019C67.8013 51.661 67.8153 51.3141 67.8233 50.9612C67.8354 50.6042 67.8434 50.2713 67.8474 49.9625C67.8554 49.6537 67.8594 49.3849 67.8594 49.1563C67.8594 48.9237 67.8594 48.7633 67.8594 48.675C67.8554 48.3101 67.8474 47.9451 67.8354 47.5801C67.8314 47.4237 67.8253 47.2613 67.8173 47.0928C67.8093 46.9244 67.7993 46.7559 67.7872 46.5875C67.7792 46.415 67.7672 46.2466 67.7511 46.0821C67.7391 45.9177 67.7251 45.7633 67.709 45.6189L69.3093 45.5708ZM83.0476 47.0086C82.5824 46.9645 82.1753 46.9364 81.8263 46.9244C81.4774 46.9083 81.1786 46.9003 80.9299 46.9003C80.8176 46.9003 80.7214 46.9003 80.6412 46.9003C80.565 46.9003 80.4928 46.9043 80.4246 46.9123V49.2767C80.7013 49.2686 80.95 49.2586 81.1706 49.2466C81.3912 49.2305 81.5777 49.2125 81.7301 49.1924C81.9106 49.1724 82.071 49.1503 82.2114 49.1263C82.2074 49.1543 82.2053 49.1864 82.2053 49.2225C82.2013 49.2546 82.1993 49.2927 82.1993 49.3368C82.1993 49.3809 82.1993 49.4311 82.1993 49.4872C82.1993 49.6156 82.2033 49.77 82.2114 49.9505C82.2194 50.1269 82.2354 50.3174 82.2595 50.522C81.8344 50.4658 81.4674 50.4317 81.1586 50.4197C80.8497 50.4037 80.6091 50.3956 80.4366 50.3956C80.4446 51.1617 80.4587 51.8114 80.4787 52.3448C80.5028 52.8743 80.5269 53.3034 80.5509 53.6323C80.575 54.0213 80.6031 54.3362 80.6352 54.5768C80.5589 54.5648 80.4707 54.5548 80.3704 54.5467C80.2702 54.5427 80.1639 54.5407 80.0516 54.5407C79.9112 54.5407 79.7688 54.5427 79.6245 54.5467C79.4801 54.5548 79.3497 54.5628 79.2334 54.5708C79.097 54.5828 78.9647 54.5929 78.8363 54.6009C78.8644 54.3322 78.8885 54.0614 78.9085 53.7887C78.9326 53.516 78.9527 53.2473 78.9687 52.9826C78.9847 52.7178 78.9988 52.4632 79.0108 52.2185C79.0228 51.9739 79.0329 51.7432 79.0409 51.5267C79.0569 51.0213 79.067 50.538 79.071 50.0768C79.067 49.5955 79.0569 49.1022 79.0409 48.5968C79.0329 48.3803 79.0228 48.1537 79.0108 47.917C78.9988 47.6764 78.9847 47.4317 78.9687 47.1831C78.9527 46.9344 78.9326 46.6857 78.9085 46.4371C78.8885 46.1844 78.8644 45.9397 78.8363 45.7031C79.3377 45.7232 79.7849 45.7392 80.1779 45.7512C80.575 45.7593 80.9279 45.7633 81.2368 45.7633C81.5416 45.7633 81.8043 45.7613 82.0249 45.7573C82.2455 45.7492 82.4259 45.7412 82.5663 45.7332C82.7307 45.7252 82.8671 45.7151 82.9754 45.7031C82.9754 45.6991 82.9754 45.7352 82.9754 45.8114C82.9754 45.8876 82.9774 45.9879 82.9814 46.1122C82.9854 46.2365 82.9914 46.3769 82.9995 46.5333C83.0115 46.6897 83.0275 46.8482 83.0476 47.0086ZM97.574 50.0888C97.574 50.7305 97.5138 51.3321 97.3935 51.8936C97.2732 52.4551 97.0947 52.9465 96.8581 53.3676C96.6214 53.7847 96.3267 54.1156 95.9737 54.3602C95.6248 54.6009 95.2217 54.7212 94.7645 54.7212C94.2992 54.7212 93.8902 54.6009 93.5372 54.3602C93.1883 54.1156 92.8955 53.7847 92.6589 53.3676C92.4262 52.9465 92.2498 52.4551 92.1295 51.8936C92.0131 51.3321 91.955 50.7305 91.955 50.0888C91.955 49.4511 92.0111 48.8515 92.1234 48.29C92.2397 47.7285 92.4142 47.2392 92.6468 46.8221C92.8795 46.405 93.1722 46.0761 93.5252 45.8355C93.8781 45.5908 94.2912 45.4685 94.7645 45.4685C95.2538 45.4685 95.6749 45.5908 96.0279 45.8355C96.3848 46.0761 96.6776 46.405 96.9062 46.8221C97.1348 47.2392 97.3033 47.7285 97.4116 48.29C97.5198 48.8515 97.574 49.4511 97.574 50.0888ZM95.9978 50.0888C95.9978 49.5915 95.9777 49.1242 95.9376 48.6871C95.8975 48.2459 95.8293 47.8629 95.7331 47.538C95.6408 47.2091 95.5145 46.9504 95.3541 46.7619C95.1976 46.5734 95.0011 46.4792 94.7645 46.4792C94.5359 46.4792 94.3434 46.5734 94.1869 46.7619C94.0305 46.9504 93.9042 47.2091 93.8079 47.538C93.7117 47.8629 93.6415 48.2459 93.5974 48.6871C93.5533 49.1242 93.5312 49.5915 93.5312 50.0888C93.5312 50.5902 93.5533 51.0614 93.5974 51.5026C93.6415 51.9398 93.7117 52.3228 93.8079 52.6517C93.9082 52.9765 94.0365 53.2352 94.193 53.4277C94.3494 53.6162 94.5399 53.7105 94.7645 53.7105C94.9851 53.7105 95.1736 53.6162 95.33 53.4277C95.4864 53.2352 95.6148 52.9765 95.715 52.6517C95.8153 52.3228 95.8875 51.9398 95.9316 51.5026C95.9757 51.0614 95.9978 50.5902 95.9978 50.0888ZM109.586 54.4986H109.417C109.169 54.4986 108.932 54.5106 108.707 54.5347C108.487 54.5628 108.25 54.6009 107.997 54.649C108.05 53.7666 108.09 52.9384 108.118 52.1644C108.146 51.3863 108.16 50.6323 108.16 49.9023C108.16 48.9678 108.136 48.0454 108.088 47.1349L106.572 47.2432C106.568 47.1069 106.564 46.9825 106.56 46.8702C106.556 46.7539 106.55 46.6436 106.542 46.5393C106.534 46.4311 106.523 46.3228 106.511 46.2145C106.499 46.1022 106.485 45.9778 106.469 45.8415H107.197C107.518 45.8415 107.831 45.8395 108.136 45.8355C108.445 45.8315 108.751 45.8254 109.056 45.8174C109.365 45.8094 109.676 45.7994 109.989 45.7873C110.306 45.7753 110.632 45.7593 110.969 45.7392C110.949 45.9438 110.935 46.1182 110.927 46.2626C110.923 46.403 110.921 46.5494 110.921 46.7018V47.0206L109.441 47.0567C109.429 47.4418 109.421 47.8208 109.417 48.1938C109.417 48.5627 109.417 48.9357 109.417 49.3128C109.417 50.1871 109.431 51.0534 109.459 51.9117C109.487 52.77 109.53 53.6323 109.586 54.4986ZM124.395 54.5407C124.07 54.5327 123.767 54.5267 123.486 54.5227C123.21 54.5227 122.947 54.5227 122.698 54.5227C122.213 54.5227 121.806 54.5267 121.477 54.5347C121.152 54.5467 120.887 54.5568 120.683 54.5648C120.442 54.5768 120.252 54.5888 120.111 54.6009C120.139 54.3322 120.164 54.0614 120.184 53.7887C120.208 53.516 120.228 53.2473 120.244 52.9826C120.26 52.7178 120.274 52.4632 120.286 52.2185C120.298 51.9739 120.308 51.7432 120.316 51.5267C120.332 51.0213 120.342 50.538 120.346 50.0768C120.342 49.5955 120.332 49.1022 120.316 48.5968C120.308 48.3803 120.298 48.1537 120.286 47.917C120.274 47.6764 120.26 47.4317 120.244 47.1831C120.228 46.9344 120.208 46.6857 120.184 46.4371C120.164 46.1844 120.139 45.9397 120.111 45.7031C120.613 45.7232 121.06 45.7392 121.453 45.7512C121.85 45.7593 122.203 45.7633 122.512 45.7633C122.817 45.7633 123.079 45.7613 123.3 45.7573C123.52 45.7492 123.701 45.7412 123.841 45.7332C124.006 45.7252 124.142 45.7151 124.25 45.7031C124.25 45.6991 124.25 45.7352 124.25 45.8114C124.25 45.8876 124.252 45.9879 124.256 46.1122C124.26 46.2365 124.266 46.3769 124.274 46.5333C124.287 46.6897 124.303 46.8482 124.323 47.0086C123.857 46.9645 123.45 46.9364 123.101 46.9244C122.752 46.9083 122.454 46.9003 122.205 46.9003C122.101 46.9003 122.008 46.9003 121.928 46.9003C121.852 46.9003 121.78 46.9043 121.712 46.9123C121.704 47.3575 121.698 47.7766 121.694 48.1697C121.69 48.5587 121.688 48.9277 121.688 49.2767C121.968 49.2686 122.219 49.2586 122.44 49.2466C122.66 49.2305 122.849 49.2125 123.005 49.1924C123.186 49.1724 123.346 49.1503 123.486 49.1263C123.482 49.1543 123.48 49.1864 123.48 49.2225C123.476 49.2546 123.474 49.2927 123.474 49.3368C123.474 49.3809 123.474 49.4311 123.474 49.4872C123.474 49.6156 123.478 49.77 123.486 49.9505C123.494 50.1269 123.51 50.3174 123.535 50.522C123.101 50.4658 122.728 50.4317 122.416 50.4197C122.103 50.4037 121.86 50.3956 121.688 50.3956C121.688 50.8128 121.69 51.1858 121.694 51.5146C121.698 51.8395 121.702 52.1263 121.706 52.3749C121.714 52.6236 121.72 52.8362 121.724 53.0126C121.732 53.1891 121.74 53.3355 121.748 53.4518C122.157 53.4438 122.522 53.4237 122.843 53.3916C123.164 53.3596 123.434 53.3275 123.655 53.2954C123.875 53.2593 124.044 53.2272 124.16 53.1991C124.277 53.1711 124.335 53.153 124.335 53.145C124.331 53.165 124.329 53.1871 124.329 53.2112C124.325 53.2312 124.323 53.2573 124.323 53.2894C124.323 53.3215 124.323 53.3596 124.323 53.4037C124.323 53.516 124.327 53.6664 124.335 53.8549C124.343 54.0434 124.363 54.272 124.395 54.5407ZM138.711 52.5915C138.711 52.9685 138.642 53.2974 138.506 53.5781C138.37 53.8549 138.195 54.0855 137.983 54.27C137.77 54.4505 137.536 54.5848 137.279 54.6731C137.022 54.7653 136.775 54.8114 136.539 54.8114C136.146 54.8114 135.763 54.7212 135.39 54.5407C135.017 54.3642 134.682 54.0875 134.385 53.7105C134.092 53.3295 133.856 52.8422 133.675 52.2486C133.499 51.651 133.411 50.9351 133.411 50.1009C133.411 49.5434 133.453 49.046 133.537 48.6089C133.625 48.1717 133.741 47.7867 133.886 47.4538C134.034 47.1209 134.207 46.8381 134.403 46.6055C134.604 46.3689 134.818 46.1784 135.047 46.034C135.275 45.8856 135.512 45.7773 135.757 45.7091C136.001 45.6409 136.242 45.6069 136.479 45.6069C136.836 45.6069 137.142 45.657 137.399 45.7573C137.66 45.8575 137.874 45.9859 138.043 46.1423C138.211 46.2987 138.336 46.4732 138.416 46.6657C138.496 46.8582 138.536 47.0467 138.536 47.2312C138.536 47.4157 138.51 47.5821 138.458 47.7305C138.41 47.8749 138.344 47.9972 138.259 48.0975C138.175 48.1978 138.075 48.274 137.959 48.3261C137.842 48.3783 137.718 48.4043 137.586 48.4043C137.473 48.4043 137.361 48.3843 137.249 48.3442C137.136 48.3041 137.036 48.2459 136.948 48.1697C136.86 48.0935 136.788 48.0012 136.731 47.893C136.679 47.7807 136.653 47.6543 136.653 47.5139C136.657 47.4337 136.667 47.3495 136.683 47.2613C136.699 47.1851 136.723 47.1028 136.755 47.0146C136.792 46.9224 136.844 46.8301 136.912 46.7379C136.852 46.6817 136.788 46.6376 136.719 46.6055C136.651 46.5694 136.589 46.5434 136.533 46.5273C136.465 46.5113 136.396 46.4992 136.328 46.4912C136.172 46.4912 136.034 46.5393 135.913 46.6356C135.793 46.7319 135.689 46.8662 135.6 47.0387C135.512 47.2071 135.438 47.4077 135.378 47.6403C135.318 47.8729 135.269 48.1256 135.233 48.3983C135.201 48.671 135.177 48.9578 135.161 49.2586C135.145 49.5554 135.137 49.8562 135.137 50.161C135.137 50.6182 135.161 51.0694 135.209 51.5146C135.261 51.9558 135.344 52.3529 135.456 52.7058C135.572 53.0547 135.725 53.3375 135.913 53.5541C136.106 53.7666 136.34 53.8729 136.617 53.8729C136.786 53.8609 136.938 53.8128 137.074 53.7285C137.134 53.6924 137.193 53.6483 137.249 53.5962C137.305 53.54 137.355 53.4719 137.399 53.3916C137.447 53.3074 137.485 53.2112 137.513 53.1029C137.546 52.9946 137.566 52.8682 137.574 52.7239C137.505 52.7519 137.427 52.766 137.339 52.766C137.243 52.766 137.148 52.7459 137.056 52.7058C136.968 52.6617 136.888 52.6035 136.816 52.5313C136.743 52.4551 136.685 52.3669 136.641 52.2666C136.597 52.1624 136.575 52.0481 136.575 51.9237C136.575 51.7352 136.617 51.5808 136.701 51.4605C136.79 51.3362 136.89 51.2379 137.002 51.1657C137.114 51.0935 137.225 51.0434 137.333 51.0153C137.441 50.9832 137.517 50.9672 137.562 50.9672C137.594 50.9672 137.644 50.9732 137.712 50.9852C137.78 50.9932 137.856 51.0153 137.941 51.0514C138.029 51.0875 138.117 51.1416 138.205 51.2138C138.298 51.282 138.38 51.3763 138.452 51.4966C138.528 51.6169 138.59 51.7673 138.638 51.9478C138.687 52.1243 138.711 52.3388 138.711 52.5915ZM149.561 54.6129C149.212 54.6129 148.93 54.6149 148.713 54.6189C148.5 54.6269 148.332 54.635 148.208 54.643C148.063 54.655 147.957 54.665 147.889 54.6731C147.921 54.4485 147.949 54.2098 147.973 53.9572C147.997 53.7005 148.019 53.4398 148.039 53.1751C148.059 52.9104 148.075 52.6477 148.087 52.387C148.099 52.1263 148.109 51.8776 148.117 51.641C148.133 51.0835 148.143 50.526 148.147 49.9685C148.143 49.411 148.133 48.8716 148.117 48.3502C148.109 48.1296 148.099 47.901 148.087 47.6643C148.075 47.4237 148.061 47.1891 148.045 46.9605C148.029 46.7319 148.009 46.5133 147.985 46.3047C147.965 46.0962 147.941 45.9077 147.913 45.7392H148.304C148.52 45.7392 148.707 45.7372 148.863 45.7332C149.02 45.7252 149.15 45.7171 149.254 45.7091C149.375 45.7011 149.477 45.6911 149.561 45.679C149.541 46.0801 149.523 46.4832 149.507 46.8883C149.495 47.2934 149.485 47.6804 149.477 48.0494C149.469 48.4144 149.463 48.7492 149.459 49.0541C149.455 49.3589 149.453 49.6136 149.453 49.8181C149.581 49.8261 149.706 49.8301 149.826 49.8301C149.946 49.8301 150.065 49.8301 150.181 49.8301C150.434 49.8301 150.656 49.8261 150.849 49.8181C151.045 49.8061 151.208 49.794 151.336 49.782C151.336 49.7579 151.334 49.6717 151.33 49.5233C151.33 49.3709 151.328 49.1804 151.324 48.9518C151.32 48.7232 151.312 48.4665 151.3 48.1817C151.292 47.897 151.28 47.6082 151.264 47.3154C151.248 47.0226 151.228 46.7399 151.204 46.4672C151.18 46.1904 151.149 45.9478 151.113 45.7392H151.498C151.703 45.7392 151.879 45.7372 152.028 45.7332C152.18 45.7252 152.307 45.7171 152.407 45.7091C152.523 45.7011 152.621 45.6911 152.702 45.679C152.69 45.9397 152.678 46.2045 152.666 46.4732C152.658 46.7379 152.649 47.0006 152.641 47.2613C152.637 47.518 152.633 47.7686 152.629 48.0133C152.625 48.2539 152.621 48.4825 152.617 48.6991C152.609 49.2045 152.605 49.6918 152.605 50.161C152.605 50.6263 152.609 51.0995 152.617 51.5808C152.621 51.7854 152.625 52.0019 152.629 52.2305C152.633 52.4551 152.637 52.6858 152.641 52.9224C152.649 53.155 152.658 53.3876 152.666 53.6203C152.678 53.8529 152.69 54.0775 152.702 54.2941C152.365 54.2941 152.092 54.2981 151.883 54.3061C151.675 54.3101 151.512 54.3161 151.396 54.3241C151.26 54.3362 151.157 54.3462 151.089 54.3542C151.125 54.1096 151.155 53.8489 151.18 53.5721C151.204 53.2954 151.224 53.0146 151.24 52.7299C151.26 52.4451 151.274 52.1644 151.282 51.8876C151.294 51.6109 151.304 51.3522 151.312 51.1116C151.119 51.0915 150.935 51.0795 150.758 51.0755C150.582 51.0674 150.414 51.0634 150.253 51.0634C150.085 51.0634 149.932 51.0654 149.796 51.0694C149.664 51.0735 149.549 51.0795 149.453 51.0875C149.453 51.3041 149.455 51.5547 149.459 51.8395C149.463 52.1243 149.469 52.4231 149.477 52.7359C149.489 53.0447 149.501 53.3616 149.513 53.6864C149.525 54.0073 149.541 54.3161 149.561 54.6129ZM178.367 48.4645C178.363 48.9899 178.263 49.4551 178.067 49.8602C177.874 50.2613 177.621 50.5982 177.309 50.8709C177 51.1436 176.655 51.3502 176.274 51.4906C175.893 51.6309 175.514 51.7011 175.137 51.7011H175.016C175.016 51.8696 175.016 52.0701 175.016 52.3027C175.02 52.5313 175.026 52.782 175.034 53.0547C175.042 53.3235 175.053 53.6062 175.065 53.903C175.081 54.1958 175.101 54.4886 175.125 54.7814C174.888 54.7573 174.671 54.7412 174.475 54.7332C174.278 54.7252 174.106 54.7212 173.958 54.7212C173.877 54.7212 173.807 54.7212 173.747 54.7212C173.687 54.7252 173.637 54.7272 173.597 54.7272C173.548 54.7312 173.508 54.7332 173.476 54.7332C173.496 54.4204 173.514 54.1076 173.53 53.7947C173.546 53.4779 173.561 53.1691 173.573 52.8682C173.585 52.5634 173.593 52.2707 173.597 51.9899C173.605 51.7092 173.613 51.4444 173.621 51.1958C173.633 50.6182 173.641 50.0648 173.645 49.5353C173.645 49.026 173.641 48.5387 173.633 48.0734C173.629 47.8769 173.625 47.6744 173.621 47.4658C173.617 47.2573 173.611 47.0547 173.603 46.8582C173.599 46.6617 173.593 46.4792 173.585 46.3107C173.581 46.1383 173.573 45.9899 173.561 45.8655C173.869 45.8094 174.17 45.7753 174.463 45.7633C174.76 45.7472 175.004 45.7392 175.197 45.7392C175.345 45.7392 175.528 45.7452 175.744 45.7573C175.961 45.7693 176.186 45.8034 176.418 45.8595C176.655 45.9117 176.889 45.9959 177.122 46.1122C177.355 46.2245 177.563 46.3809 177.748 46.5815C177.932 46.782 178.081 47.0367 178.193 47.3455C178.309 47.6503 178.367 48.0233 178.367 48.4645ZM176.815 48.5126C176.815 48.2078 176.781 47.9471 176.713 47.7305C176.645 47.5099 176.54 47.3295 176.4 47.1891C176.264 47.0487 176.087 46.9424 175.871 46.8702C175.658 46.798 175.405 46.7539 175.113 46.7379C175.097 47.0908 175.083 47.4618 175.071 47.8508C175.063 48.2399 175.055 48.6189 175.046 48.9879C175.038 49.3529 175.032 49.6938 175.028 50.0106C175.024 50.3235 175.02 50.5801 175.016 50.7807C175.317 50.7646 175.58 50.6985 175.805 50.5821C176.029 50.4658 176.216 50.3094 176.364 50.1129C176.516 49.9164 176.629 49.6837 176.701 49.415C176.777 49.1423 176.815 48.8415 176.815 48.5126ZM192.256 45.7633C192.047 46.5173 191.867 47.2673 191.715 48.0133C191.562 48.7593 191.432 49.5033 191.324 50.2452C191.215 50.9872 191.123 51.7272 191.047 52.4652C190.971 53.2031 190.902 53.9391 190.842 54.6731L188.574 54.5227C188.482 53.7847 188.39 53.0507 188.297 52.3208C188.205 51.5868 188.103 50.8569 187.991 50.1309C187.882 49.401 187.762 48.6771 187.63 47.9591C187.497 47.2372 187.347 46.5173 187.178 45.7994C187.259 45.7994 187.339 45.8034 187.419 45.8114C187.499 45.8154 187.576 45.8174 187.648 45.8174C187.872 45.8174 188.087 45.8114 188.291 45.7994C188.496 45.7873 188.717 45.7753 188.953 45.7633C188.981 46.3408 189.019 46.9404 189.068 47.5621C189.116 48.1797 189.172 48.8054 189.236 49.4391C189.3 50.0688 189.372 50.6985 189.453 51.3281C189.533 51.9578 189.621 52.5674 189.717 53.157C189.818 52.5674 189.91 51.9578 189.994 51.3281C190.082 50.6985 190.158 50.0668 190.223 49.4331C190.287 48.7994 190.339 48.1717 190.379 47.55C190.423 46.9284 190.453 46.3288 190.469 45.7512C190.638 45.7713 190.8 45.7853 190.957 45.7934C191.113 45.7974 191.267 45.7994 191.42 45.7994C191.681 45.7994 191.959 45.7873 192.256 45.7633ZM204.093 54.4986H203.925C203.676 54.4986 203.44 54.5106 203.215 54.5347C202.994 54.5628 202.758 54.6009 202.505 54.649C202.557 53.7666 202.597 52.9384 202.625 52.1644C202.653 51.3863 202.667 50.6323 202.667 49.9023C202.667 48.9678 202.643 48.0454 202.595 47.1349L201.079 47.2432C201.075 47.1069 201.071 46.9825 201.067 46.8702C201.063 46.7539 201.057 46.6436 201.049 46.5393C201.041 46.4311 201.031 46.3228 201.019 46.2145C201.007 46.1022 200.993 45.9778 200.977 45.8415H201.705C202.026 45.8415 202.339 45.8395 202.643 45.8355C202.952 45.8315 203.259 45.8254 203.564 45.8174C203.873 45.8094 204.184 45.7994 204.496 45.7873C204.813 45.7753 205.14 45.7593 205.477 45.7392C205.457 45.9438 205.443 46.1182 205.435 46.2626C205.431 46.403 205.429 46.5494 205.429 46.7018V47.0206L203.949 47.0567C203.937 47.4418 203.929 47.8208 203.925 48.1938C203.925 48.5627 203.925 48.9357 203.925 49.3128C203.925 50.1871 203.939 51.0534 203.967 51.9117C203.995 52.77 204.037 53.6323 204.093 54.4986ZM229.982 54.7814C229.693 54.7733 229.42 54.7693 229.163 54.7693C228.907 54.7693 228.666 54.7693 228.441 54.7693C227.984 54.7693 227.591 54.7733 227.262 54.7814C226.937 54.7934 226.667 54.8034 226.45 54.8114C226.202 54.8235 225.991 54.8355 225.818 54.8475C225.847 54.5788 225.871 54.3061 225.891 54.0293C225.915 53.7526 225.935 53.4799 225.951 53.2112C225.967 52.9424 225.981 52.6817 225.993 52.4291C226.005 52.1764 226.015 51.9378 226.023 51.7132C226.039 51.1918 226.049 50.6884 226.053 50.2031C226.049 49.7218 226.039 49.2285 226.023 48.7232C226.015 48.5066 226.005 48.28 225.993 48.0434C225.981 47.8027 225.967 47.5581 225.951 47.3094C225.935 47.0607 225.915 46.8121 225.891 46.5634C225.871 46.3107 225.847 46.0661 225.818 45.8294L227.593 45.7392C227.517 46.6456 227.465 47.52 227.437 48.3622C227.409 49.2005 227.395 49.9745 227.395 50.6844C227.395 51.3662 227.401 51.9498 227.413 52.4351C227.429 52.9204 227.443 53.2894 227.455 53.542H227.479C227.792 53.542 228.097 53.518 228.393 53.4699C228.694 53.4217 228.963 53.3676 229.2 53.3074C229.476 53.2392 229.737 53.161 229.982 53.0728C229.978 53.1169 229.976 53.1731 229.976 53.2412C229.972 53.2974 229.97 53.3716 229.97 53.4638C229.97 53.5521 229.97 53.6604 229.97 53.7887C229.97 53.917 229.97 54.0634 229.97 54.2279C229.97 54.3883 229.974 54.5728 229.982 54.7814ZM241.566 54.4986H241.398C241.149 54.4986 240.912 54.5106 240.688 54.5347C240.467 54.5628 240.231 54.6009 239.978 54.649C240.03 53.7666 240.07 52.9384 240.098 52.1644C240.126 51.3863 240.14 50.6323 240.14 49.9023C240.14 48.9678 240.116 48.0454 240.068 47.1349L238.552 47.2432C238.548 47.1069 238.544 46.9825 238.54 46.8702C238.536 46.7539 238.53 46.6436 238.522 46.5393C238.514 46.4311 238.504 46.3228 238.492 46.2145C238.48 46.1022 238.466 45.9778 238.45 45.8415H239.178C239.499 45.8415 239.811 45.8395 240.116 45.8355C240.425 45.8315 240.732 45.8254 241.037 45.8174C241.346 45.8094 241.656 45.7994 241.969 45.7873C242.286 45.7753 242.613 45.7593 242.95 45.7392C242.93 45.9438 242.916 46.1182 242.908 46.2626C242.904 46.403 242.902 46.5494 242.902 46.7018V47.0206L241.422 47.0567C241.41 47.4418 241.402 47.8208 241.398 48.1938C241.398 48.5627 241.398 48.9357 241.398 49.3128C241.398 50.1871 241.412 51.0534 241.44 51.9117C241.468 52.77 241.51 53.6323 241.566 54.4986ZM257.242 50.2753C257.242 50.9291 257.179 51.4946 257.055 51.9719C256.935 52.4451 256.778 52.8502 256.586 53.1871C256.393 53.52 256.177 53.7907 255.936 53.9993C255.695 54.2078 255.455 54.3683 255.214 54.4806C254.974 54.5969 254.747 54.6751 254.534 54.7152C254.322 54.7593 254.147 54.7814 254.011 54.7814C253.979 54.7814 253.907 54.7794 253.794 54.7753C253.686 54.7713 253.552 54.7613 253.391 54.7453C253.231 54.7332 253.048 54.7132 252.844 54.6851C252.643 54.657 252.433 54.6169 252.212 54.5648C252.216 53.7707 252.22 53.0828 252.224 52.5013C252.232 51.9157 252.238 51.4124 252.242 50.9912C252.246 50.5701 252.25 50.2172 252.254 49.9324C252.258 49.6476 252.26 49.403 252.26 49.1984C252.264 48.9939 252.266 48.8194 252.266 48.675C252.27 48.5267 252.272 48.3823 252.272 48.2419C252.272 48.0213 252.27 47.7947 252.266 47.5621C252.262 47.3254 252.254 47.0968 252.242 46.8762C252.23 46.6557 252.214 46.4491 252.194 46.2566C252.174 46.0641 252.148 45.8996 252.116 45.7633C252.429 45.7432 252.714 45.7312 252.97 45.7272C253.231 45.7192 253.456 45.7151 253.644 45.7151C254.117 45.7151 254.534 45.7733 254.895 45.8896C255.256 46.0019 255.569 46.1603 255.834 46.3649C256.103 46.5654 256.325 46.8081 256.502 47.0928C256.682 47.3736 256.827 47.6824 256.935 48.0193C257.047 48.3562 257.125 48.7172 257.169 49.1022C257.218 49.4832 257.242 49.8743 257.242 50.2753ZM255.677 50.0888C255.677 49.3789 255.643 48.8014 255.575 48.3562C255.511 47.907 255.405 47.5581 255.256 47.3094C255.112 47.0607 254.921 46.8923 254.685 46.8041C254.452 46.7118 254.169 46.6657 253.837 46.6657H253.656L253.728 53.7346C253.808 53.7666 253.883 53.7887 253.951 53.8007C254.023 53.8088 254.093 53.8128 254.161 53.8128C254.43 53.8128 254.659 53.7506 254.847 53.6263C255.04 53.4979 255.196 53.2894 255.316 53.0006C255.441 52.7078 255.531 52.3248 255.587 51.8515C255.647 51.3743 255.677 50.7867 255.677 50.0888Z" fill="#E6E6E6"/>
<path d="M40.3945 24.8359L40.2536 25.0473L39.8308 26.5271L39.1966 28.641L38.5625 30.1207L37.6465 31.6709L36.8009 32.7983L36.2372 33.503L35.4621 34.3485L34.4051 35.4055L33.9119 35.9692L32.7845 37.0966L32.2912 37.6603L31.5866 38.4354L30.9524 39.2105L30.2478 40.1265L29.6136 41.0426L28.909 42.17L27.9929 44.0725L27.3588 45.7636L26.936 47.3843L26.6541 49.0754L26.5837 49.7096V51.8235L26.8655 53.7965L27.2883 55.2057L27.9225 56.5446L28.5566 57.531L29.1908 58.3061L29.825 59.0108L30.5296 59.7154L31.1638 60.2087L31.3047 60.1382L30.6706 59.4336L29.825 58.1652L29.1908 56.8264L28.6976 55.3467L28.3453 53.5146L28.2748 52.81V51.2598L28.3453 50.0619H28.4862L28.6271 50.9075L29.1204 52.5986L29.7545 54.0783L30.4592 55.4171L31.2343 56.5446L31.8684 57.3197L32.7845 58.3061L33.2777 58.6585L33.3482 58.5175L32.6435 57.3901L31.798 55.8399L30.9524 53.7965L30.4592 52.3167L30.1068 50.837L29.8955 49.3573L29.825 48.2299V47.032L29.8955 46.8206L30.1773 47.948L30.5296 49.2868L31.0933 50.837L31.657 52.0349L32.6435 53.6555L33.2777 54.5011L34.1233 55.4876L34.9688 56.3332L36.0258 57.1083L36.2372 57.1787L36.1667 56.8969L35.4621 55.9808L34.6165 54.642L33.7005 52.9509L32.7845 51.0484L32.0798 48.9345L31.657 47.1024L31.4457 45.4818V42.8042H31.5866L31.798 44.5657L32.2208 46.3978L32.8549 48.4412L33.4891 49.8505L34.0528 50.9779L34.687 52.0349L35.6735 53.3737L36.66 54.4306L36.8009 54.642L36.9418 54.5716L36.4486 53.7965L35.8849 52.81L35.1098 51.1189L34.1937 48.4412L33.771 46.6797L33.4186 44.143V42.0291L33.63 40.4084L33.771 39.7742H33.8414L33.9119 42.0291L34.1233 44.002L34.5461 45.5522L35.0393 47.032L35.7439 48.4412L36.5895 49.6391L37.4351 50.6256L38.0692 51.3303H38.1397V50.9779L37.576 49.9914L36.8714 48.3003L36.3076 46.4683L35.9553 44.7771L35.8144 43.5793V40.8312L36.0258 38.9991L36.3781 37.2375L36.8714 35.6169L36.9418 35.4759L36.8714 36.1101V39.0696L37.1532 40.9721L37.576 42.7337L38.1397 44.4248L38.8443 45.975L38.9853 46.0455L38.9148 45.4113L38.6329 43.8611L38.4216 42.2404L38.3511 41.3949V38.3649L38.492 36.9557L38.9148 34.9122L39.6899 31.9528L40.0422 30.0502L40.1831 28.5705L40.3945 25.8224V24.8359Z" fill="#C76323"/>
<path d="M37.9134 18.543L37.843 18.6839L38.2658 19.8113L38.4772 21.0092V22.7708L38.2658 24.0391L38.1248 22.2775L37.843 21.1501L37.2793 19.9522L36.6451 19.1771L36.4337 19.1067L36.5746 19.459L36.9974 20.375L37.3497 21.7138L37.4907 22.9117V24.1801L37.3497 25.4484L37.2088 25.3779L36.8565 23.5459L36.4337 22.2775L35.9405 21.3615H35.7291L36.0814 22.4889L36.2223 23.3345V25.5189L35.87 26.9986L35.3768 28.1965L35.3063 28.2669L35.5177 26.7872V25.3075L35.3063 24.2505L34.954 23.1936L34.7426 22.7708H34.6721L34.7426 23.8982L34.813 24.4619V26.2235L34.5312 27.7032L34.0379 29.042L33.4742 30.1695L32.7696 31.0855L31.7831 32.072L30.6557 32.8471L31.0785 32.2129L31.7126 31.3673L32.4877 30.0285L33.0515 28.8307L33.4038 27.7737L33.6152 26.6463L33.6856 25.8712V25.0256H33.5447L33.0515 26.7872L32.6287 27.8442L32.065 28.9716L31.3603 30.099L30.6557 31.015L29.8806 31.9311L29.176 32.8471L28.4009 33.8336L27.2734 35.3133L26.3574 36.6521L26.0051 37.1454V36.934L26.4279 35.8066L27.0621 34.6087L27.7667 33.4813L28.5418 32.3538L29.3169 31.2969L30.0215 30.3104L30.5852 29.3239L30.7966 28.9011V28.7602H30.6557L30.1624 29.5353L29.2464 30.5218L28.6827 31.2264L27.9076 32.1424L26.8507 33.5517L25.7232 35.2428L24.8777 36.6521L24.3844 37.6386L23.8912 38.907L23.8207 39.1888L23.8912 38.4842L24.314 36.793L24.7368 35.6656L25.5823 34.045L26.4279 32.7766L26.9211 32.0015L26.7097 32.072L26.2165 32.6357L25.4414 33.4813L24.7368 34.3973L24.2435 35.1019L23.4684 36.4407L22.6933 38.1319L22.1296 39.6821L21.8477 40.8095V39.6821L22.1296 38.1319L22.5524 36.934L23.0456 36.0179V35.8066L22.7638 35.9475L21.9887 37.0044L21.425 38.0614L20.9317 39.4002L20.5794 41.0209L20.5089 41.8664L20.368 40.739V39.6116L20.5794 38.0614L21.0022 36.6521L21.5659 35.3838L22.0591 34.5382L22.4819 34.1154V33.6926L22.2001 33.8336L21.5659 34.4677L20.5794 35.9475L19.8748 37.2863L19.5224 38.3432L19.3111 39.5411L19.2406 40.3162V41.4436L19.3815 43.0643L19.6634 44.4736L20.368 46.5875L21.0726 48.2081L21.9182 49.7583L22.5524 50.8858L23.5389 52.295L24.3844 53.4225L24.8777 53.9862V53.7748L24.0321 52.2246L23.6093 51.1676L23.1866 49.7583L22.9752 48.6309L22.9047 47.9968V46.2352L23.1161 44.9668L23.4684 43.7689L24.1026 42.3597L24.8072 41.1618L25.7937 39.823L26.5688 38.907L27.203 38.2023L27.6962 37.6386L29.2464 36.0884L30.0215 35.4542L31.008 34.6087L31.7126 34.045L32.4173 33.4108L33.9675 32.1424L34.6721 31.5083L35.5881 30.5922L36.2928 29.6762L36.927 28.7602L37.7021 27.4918L38.4067 26.153L38.8999 24.6733L39.1113 23.5459V21.6434L38.8999 20.5159L38.4772 19.3885L37.9839 18.6134L37.9134 18.543Z" fill="#C76323"/>
<path d="M10.9476 39.2129L10.6658 39.4947L10.1021 40.6222L9.74974 41.6791L9.60881 42.4542V44.4977L9.74974 45.3432L9.39742 44.4977L8.97464 43.2293L8.76325 42.3133L8.55186 42.2428L8.4814 42.6656L8.55186 44.2158L8.76325 45.5546L9.2565 47.3162L9.82021 48.7959L10.7362 50.6985L11.5818 52.1077L12.3569 53.2351L13.3434 54.5035L13.9776 55.2081L14.4708 55.7718L14.964 56.2651L15.3164 56.6879L15.8801 57.1811L16.5142 57.8153L17.2893 58.4495L18.2054 59.2246L19.4737 60.1406L21.1648 61.268L22.5037 62.0431L24.1243 62.8887L26.4496 63.9456L27.718 64.4389L29.4091 64.9321L30.5365 65.214L30.8184 65.1435L29.9023 64.5093L28.9863 63.7342L28.0703 62.8887L26.8724 61.6908L26.3792 61.1271L25.5336 60.1406L24.7585 59.1541L23.9129 58.0267L22.7855 56.3355L21.8695 54.8558L21.0944 53.517L20.5307 52.3896L19.826 50.9098L19.5442 50.3461H19.4033L19.5442 51.4736L20.0374 53.4465L20.6011 54.9967L21.2353 56.406L22.2218 58.0971V58.2381L21.1648 56.8288L20.3193 55.6309L19.5442 54.3626L18.6986 52.7419L17.9235 50.8394L17.2189 48.655L17.078 48.7255V49.4301L17.3598 51.3326L17.7826 52.9533L18.4168 54.6444L19.1919 56.2651L18.7691 55.7014L17.9235 54.433L17.078 52.8124L16.5142 51.4031L16.1619 50.3461L15.7391 48.4436L15.5982 47.3867L15.5278 45.8365H15.3868L15.2459 46.2593L15.105 47.739V48.7255L15.2459 50.2052L15.5278 51.4736L15.8096 52.1782L15.5278 51.8259L14.6822 50.2052L14.048 48.5846L13.5548 46.8934L13.2729 45.3432L13.132 44.2158H12.9911L12.9206 44.7795V46.1183L13.132 47.8799L13.4843 49.5006L13.6957 50.3461L12.7797 48.3732L12.3569 46.9639L12.075 45.3432L12.0046 44.4272V42.7361L11.7932 42.9475L11.5113 44.0749L11.4409 44.4977V46.8934L11.5818 48.4436L11.0181 46.7525L10.5953 45.0614L10.3839 43.5816V41.82L10.5953 40.5517L10.9476 39.4243V39.2129Z" fill="#F6F5F2"/>
<path d="M38.1421 9.72852H37.367L36.8738 9.93991L36.451 10.0808V10.2218L36.8033 10.5741L37.4375 11.2787L38.5649 12.9698L39.2695 14.52L39.9742 16.6339L40.397 18.3251L40.6788 19.8753H40.8197L41.0311 18.3955V17.1977L40.8902 15.8588L40.6083 14.661L40.3265 13.9563H40.4674L40.9607 14.8019L41.5244 16.1407L41.9472 17.4795L42.229 19.1706L42.2995 19.9457V22.6938H42.4404L42.8632 21.0732L43.0746 19.6639V18.1137L42.8632 16.4226L42.7927 16.2816L43.0041 16.493L43.4974 17.6204L43.9906 19.2411L44.2725 20.7208L44.3429 21.4959V25.2305L44.1315 26.7807L43.9201 27.6967L43.9906 27.9081L44.4838 26.7807L44.9771 25.301L45.2589 23.8917L45.3999 22.5529V21.0027L45.1885 19.1706L45.118 18.7479L45.2589 18.9592L45.7522 20.9322L46.034 22.8347L46.2454 25.2305V27.4853L46.1045 28.9651L45.7522 30.5857L45.6113 31.1495L45.8227 31.079L46.3864 29.9516L46.8796 28.6128L47.2319 27.274L47.4433 26.0761L47.5138 25.3714L47.5842 23.2575L47.9366 25.0896L48.007 25.7942V29.1765L47.7956 31.1495L47.4433 32.9815L46.9501 34.7431L46.6682 35.3773V35.5182H46.8091L47.5138 34.3203L48.2889 32.6997L48.8526 31.0085L49.1344 29.6697L49.2049 29.106V26.1465L49.7686 28.1195L50.1209 29.9516L50.3323 31.4313L50.4028 32.5587V33.4043L50.2619 35.0954L50.4028 35.0249L50.7551 33.7566L51.037 32.0655L51.1074 31.2904V28.2604L50.9665 26.6398L50.5437 24.5963L50.0505 23.0461L49.2049 21.0027L48.3593 19.382L47.5138 18.0432L46.8091 17.0567L46.034 16.0702L45.2589 15.2247L43.7087 13.6745L42.9336 13.0403L41.8767 12.1947L40.8197 11.4901L39.5514 10.7855L39.4809 10.715L41.0311 10.8559L42.7223 11.2083L43.3564 11.3492L43.145 11.1378L41.7358 10.5741L39.6219 10.0104L38.1421 9.72852Z" fill="#C76323"/>
<path d="M27.0751 3.26953L26.7933 3.33999L26.3 3.9037L25.7363 4.46741L24.8203 5.10158L23.8338 5.66529L21.8608 6.58132L21.0153 7.07457L20.9448 7.21549L25.0317 7.07457L27.2161 6.93364L29.33 6.65178L32.1485 6.15854L32.8532 6.08808H35.3194L36.5877 6.29947L37.9265 6.65178L39.4767 7.21549L37.8561 7.0041L37.081 6.93364H35.8831L34.6148 7.07457L33.9101 7.28596V7.42688H35.3194L37.4333 7.56781L39.6881 7.99059L41.3793 8.5543L42.9999 9.3294H43.2113H42.9295L41.2383 8.76569L39.4063 8.41337L38.5607 8.34291H36.3763L36.0945 8.48384L36.5877 8.62476L38.9835 9.04755L40.9565 9.54079L42.859 10.175L44.9729 11.091L47.0163 12.0775L48.3552 12.7117L49.1303 13.064L48.9893 13.4868L49.2712 13.3458L49.4121 13.2049L49.3416 12.923L48.4256 11.8661L47.6505 11.0205L46.1708 9.54079L45.3957 8.90662L44.3387 8.06106L43.1408 7.21549L41.943 6.44039L40.1814 5.4539L38.4902 4.6788L36.6582 3.97417L36.024 3.83324L35.3899 4.25602L33.9806 4.81973L32.5008 5.31298L30.8097 5.73576L28.414 6.15854L26.7933 6.36993V6.229L27.2865 6.15854L27.9912 5.87668L28.6958 5.4539L29.6118 4.74927L30.3869 3.97417L30.4574 3.62185L30.1051 3.69231L28.8367 4.60834L27.9207 5.17205L27.0047 5.52437L27.7798 5.03112L28.273 4.53788L28.4844 4.18556L28.414 3.9037L28.0616 3.97417L27.357 4.60834L26.5819 5.10158L25.1726 5.73576H25.0317L25.8068 5.24251L26.5114 4.60834L27.0047 3.83324L27.1456 3.41046L27.0751 3.26953Z" fill="#C76323"/>
<path d="M27.8546 16.7871L27.7841 16.9985L27.8546 17.3508V18.8306L27.5727 19.958L27.1499 21.0854L26.5157 22.2128L25.8111 23.1993L25.1065 23.9744L24.6132 24.5381L24.4018 24.679V24.82L24.12 24.9609L23.6267 25.4541L22.7812 26.0883L22.9221 26.1588L24.0495 25.4541L25.1065 24.7495L26.0225 23.9744L26.7976 23.1993L27.5022 22.2128L27.925 21.5082L27.7136 22.2128L27.4318 22.847L26.8681 23.8335L26.3044 24.6086L25.4588 25.5246L24.6132 26.2997L23.4153 27.1453L21.7947 27.9908L22.0061 28.0613L22.9221 27.709L24.4018 27.0043L25.3179 26.3702L26.3044 25.5951L26.9385 24.9609L27.6432 24.0449L27.9955 23.4812V23.3402H28.1364L27.8546 24.2563L27.4318 25.0314L26.7271 26.0178L25.8816 26.9339L25.1065 27.6385L23.6972 28.625L22.7107 29.1182L22.2879 29.2592V29.4001L23.4153 29.1182L24.7542 28.5545L25.5293 28.0613L26.3044 27.4271L27.1499 26.652L27.2908 26.5815L26.7976 27.4271L26.1634 28.1317L25.3179 28.9068L24.2609 29.6819L22.6402 30.6684L21.1605 31.3731L20.7377 31.5845L20.6673 31.7254L21.3014 31.6549L23.8381 30.8094L24.7542 30.3866L24.2609 30.9503L23.5563 31.6549L22.7812 32.2891L22.4993 32.571L22.6402 32.6414L23.7677 32.0072L24.9655 31.1617L26.0225 30.2457L26.5157 29.7524L27.1499 28.9773L27.8546 27.9908L28.5592 26.5111L28.9115 25.3837L29.1229 24.1858L29.1934 23.4107V21.6491L29.0524 20.3103L28.7706 18.9715L28.2773 17.5622L27.8546 16.7871Z" fill="#C76323"/>
<path d="M26.1722 0.957031H25.3971L24.622 1.16842L23.7764 1.5912L23.0013 2.22538L22.2967 2.85955L21.4511 3.77558L20.9579 4.33928L20.0418 5.18485L19.3372 5.11438H18.5621L17.5756 5.32577L16.73 5.74856L16.6596 5.81902H14.7571L13.9115 5.95995L12.8545 6.38273L11.5862 7.08736L10.8816 7.51015H9.04951L7.92209 7.72154L6.58328 7.792H5.03308L3.48289 8.00339L2.42593 8.28525L1.86222 8.63756L1.72129 8.91942L1.79176 9.27174L2.14408 9.55359L2.98964 9.90591L3.8352 10.1173L4.32845 10.1878H5.31494L5.87865 10.0468L5.80818 9.83544L3.27149 9.48313L3.13057 9.41266L3.20103 9.20127L3.8352 8.98988L4.39891 8.91942H5.10355L6.1605 9.06034L6.9356 9.27174H7.14699L7.00607 8.98988L6.30143 8.5671L5.94911 8.42617L5.87865 8.28525L7.21746 8.35571L7.78117 8.5671L7.92209 8.70803H8.34487L9.19044 9.06034L9.75415 9.41266L9.89507 9.55359V9.27174L9.33136 8.77849L8.62673 8.42617H9.96554L11.093 8.63756L11.3748 8.5671L10.8111 8.28525L10.3179 8.14432H10.8816L11.8681 8.35571L12.5022 8.70803L12.8545 8.98988L12.7136 8.63756L12.2204 8.14432L11.7271 7.86246L12.4318 7.51015L13.4183 7.15783L13.7706 7.08736H15.2503V6.94644L14.6161 6.73505H14.1229V6.59412H15.3208L16.2368 6.80551L17.8575 6.94644L18.9144 7.29876H19.0553L18.9849 7.08736L17.9984 6.59412L17.0824 6.38273L17.3642 6.31226H18.2098L19.1963 6.52366L19.6191 6.59412L19.4781 6.31226L18.703 5.95995L18.3507 5.88948H19.76L20.6055 6.17134L20.9579 6.38273H21.0988L20.9579 6.10087L20.6055 5.88948L21.8034 5.67809L22.649 5.32577L23.6355 4.76207L24.3401 4.19836L24.8334 3.63465L25.0447 3.21187V2.93001L24.7629 3.00048L24.1287 3.56418L22.8604 4.48021L22.0148 4.97346L21.592 5.11438L22.2967 4.33928L22.7899 3.77558L23.1422 3.35279L23.7059 2.85955L24.4106 2.3663L25.4675 1.80259L26.2426 1.5912L26.8063 1.45028L26.9473 1.37981L26.8768 1.16842L26.5949 1.02749L26.1722 0.957031Z" fill="#F6F0E7"/>
<path d="M11.1021 11.877L10.6793 12.0883L10.4679 12.1588L10.8203 12.4407L11.384 13.4272L11.6658 14.2023V15.3297L11.384 15.8934L10.8203 16.3162L10.0452 16.598L9.69284 16.6685H8.2131L7.15615 16.3866L6.31059 16.1048L6.24012 16.3866L7.86078 17.4436L8.84728 18.1482L9.7633 18.9233L10.9612 20.0507L11.7363 20.8963L12.3705 21.7419L12.9342 22.6579L13.7797 24.2785L13.9207 24.7013H14.0616L13.9911 24.0672L13.5683 22.6579L13.216 21.8123L12.5114 20.4735L11.8772 19.6279L11.1021 18.7824L11.4544 18.9938L12.1591 19.5575L13.0046 20.403L13.7093 21.3895L14.4844 22.7283L14.9071 23.7853L15.0481 23.7148L14.6958 22.4465L14.132 21.1077L13.4979 20.0507L12.5818 18.9938L11.6658 18.2891L11.5249 18.1482L12.8637 18.8528L13.7797 19.6279L14.273 20.1212L14.7662 20.8258L15.0481 21.3191L15.1185 21.1781L14.6958 20.0507L14.0616 19.0642L13.2865 18.2187L12.6523 17.655L11.8067 17.1617L12.3705 17.3027L13.4979 17.8664L14.273 18.3596L15.0481 19.1347L15.2595 19.487L15.4004 19.4166L14.6958 18.0777L13.9207 17.1617L13.0046 16.3866L13.5683 16.6685L14.4844 17.3731L14.6958 17.514L14.5548 17.0913L14.132 16.4571L13.3569 15.6115L12.7228 15.1183L12.5114 13.9909L12.1591 13.0748L11.5954 12.2997L11.1021 11.877Z" fill="#C76323"/>
<path d="M16.8006 7.83008L15.6731 7.90054L15.6027 8.04147L16.5892 8.1824L18.0689 8.67564L19.4077 9.38028L20.1828 9.94399L20.8874 10.5782L20.6056 10.3668L19.901 9.87352L18.7735 9.30981L17.787 8.9575L17.2233 8.88703V9.02796L18.6326 9.59167L19.76 10.2258L20.4647 10.7895L21.2398 11.5646L21.6625 12.2693L20.3942 11.0009L19.6896 10.5077L18.7031 10.0144L18.4917 10.0849L19.6191 10.86L20.676 11.8465L20.817 12.1284L20.1123 11.6351H19.6896L19.8305 11.9874L20.0419 12.6216V12.7625H19.901L19.8305 12.4102L19.4782 12.5511L18.9849 12.7625L18.5621 12.833H17.4347L16.3778 12.5511L14.8276 11.8465L14.3343 11.7056H13.982L14.4048 12.1988L14.9685 12.7625L15.6027 13.5376L16.2368 14.1718L17.0119 14.5946L17.7166 14.8764L18.4212 15.0174H20.3237L21.5921 14.7355L23.1423 14.3127L23.2832 14.2423L23.0013 12.833L22.5081 11.6351L22.0149 10.7191L21.5216 10.0849L20.6056 9.16889L19.8305 8.67564L19.0554 8.32332L17.787 7.97101L16.8006 7.83008Z" fill="#C76323"/>
<path d="M19.4651 33.3438L19.1833 33.4847L18.5491 34.6121L18.1968 35.3872L17.8445 36.4441L17.5626 37.5011V36.8669L17.8445 35.4577L18.0559 34.753L17.9854 34.4712L17.6331 35.0349L17.1398 36.3032L16.7875 37.5716L16.5761 38.699L16.4352 39.6855L16.3647 39.2627V37.8534L16.5761 36.5851L16.7171 35.8804H16.5057L16.0829 36.9374L15.801 37.9943L15.7306 38.4876V39.8969L15.801 40.8129L15.4487 39.8264L15.3078 38.9808V37.5716L15.3782 36.2328L15.1669 36.4441L14.885 37.3602L14.6736 38.699V40.1083L14.9555 41.5175L15.3782 42.7859L15.942 43.9133L16.3647 44.6884L16.9989 45.6044L17.5626 46.3091L18.4082 47.2955L18.5491 47.366L18.4786 46.9432L17.9854 45.1112L17.774 43.561V41.0947L17.9854 39.6855L18.4786 37.9239L19.1833 36.0214L20.0288 34.2598L20.2402 33.837V33.6961H20.0993L19.3242 34.753L18.69 35.81V35.9509H18.5491L18.9014 34.753L19.4651 33.4847V33.3438Z" fill="#F6F3ED"/>
<path d="M11.2192 22.2832L11.1487 22.4946L11.2896 23.622L11.3601 25.5245L11.2192 27.0747L10.8669 28.6954L10.3736 30.0342L9.80991 31.2321L9.2462 32.0776L8.61203 32.7823L7.76646 33.5574L6.85044 34.1211L6.35719 34.3325V34.4029H7.13229L8.04832 34.0506L8.96435 33.4165V33.2755L9.2462 33.1346L9.95084 32.3595L10.5145 31.4435L11.0078 30.457V30.2456H11.1487L10.585 31.8663L9.95084 32.9937L9.31666 33.7688L8.82342 34.3325L7.90739 34.9667L7.06183 35.319L5.86395 35.5304L5.08885 35.6008V35.8122L5.72302 36.0236H6.70951L7.76646 35.7418L8.82342 35.178L9.45759 34.6848L10.1622 34.0506L10.9373 33.2051L11.5715 32.289L12.2057 31.0912L12.6285 29.8228L12.8398 28.6249V27.1452L12.6285 25.8064L12.3466 24.7494L11.501 22.8469L11.2192 22.2832Z" fill="#C76323"/>
<path d="M16.4611 27.4258H16.3202L15.8269 29.6102L15.4746 30.6671L15.5451 29.1874V28.2009L15.4041 27.919H15.3337L15.0518 29.6806L14.77 30.7376L14.1358 32.0764L13.9244 32.3582L14.2062 31.0899L14.2767 30.6671V28.9055H14.1358L13.7835 30.6671L13.4311 31.7945L12.9379 33.1333L12.0219 35.2472L11.1058 36.9384L10.4717 37.7839L10.1194 38.2772L10.4717 38.1362L11.3172 37.5021L12.3037 36.6565L13.0084 36.0223L14.9109 34.1198L15.4041 33.5561L16.2497 32.4287L16.8839 31.2308L17.1657 30.1739L17.3066 29.1169V27.5667H17.1657L16.8839 28.5532L16.5315 30.1034L16.2497 30.949L15.8269 31.7945L15.9678 31.0899L16.2497 30.1739L16.4611 28.7646V27.4258Z" fill="#C76323"/>
<path d="M7.11883 10.3203H6.27326L5.14585 10.6022L3.8775 11.1659L2.89101 11.8L2.18637 12.4342L1.69313 12.9979L1.34081 13.6321L1.27035 13.8435V14.6186L1.62267 15.3232L3.1024 15.8869L4.37075 16.4506L5.35724 16.803L5.28677 16.5916L3.94796 15.8165L3.66611 15.6051L4.22982 15.6755L5.56863 16.0279L5.78002 15.9574L5.28677 15.6755L3.59565 14.9709L3.03194 14.6891L4.93446 15.0414L5.92095 15.2528V15.1118L4.79353 14.6891L3.59565 14.3367L4.22982 14.2663L6.27326 14.1958L7.11883 14.3367L7.04836 14.1253L6.69605 13.9844L5.4277 13.8435L2.82055 13.773L5.07538 13.2798L5.63909 13.2093H7.33022L7.89393 13.3502L8.17578 13.2798L7.82346 13.0684L6.76651 12.857H5.28677L4.58214 12.9979H4.30028L5.35724 12.5751L6.62558 12.2933H8.10532L8.03485 12.1524L7.54161 12.0114L6.27326 11.941L5.21631 12.1524L4.01843 12.5751L5.14585 11.941L6.06187 11.6591L6.90744 11.5182L8.17578 11.4477L8.10532 11.0954H6.9779L5.92095 11.2363L4.51167 11.6591L3.59565 12.2228L3.17287 12.5047L3.8775 11.8705L4.86399 11.3068L5.99141 10.884L7.40068 10.6022L7.33022 10.3908L7.11883 10.3203Z" fill="#F5EDE0"/>
<path d="M2.48565 35.3789L2.27425 35.4494L2.13333 35.7312V36.9291L2.48565 38.0565L2.97889 38.8316L3.75399 39.6772L4.59955 40.3114L5.37465 40.6637L6.22022 40.8046L7.20671 40.7341L8.1932 40.3818L9.03876 39.7476L9.17969 39.4658L8.82737 39.6067L7.91134 39.8886L6.85439 39.959L5.8679 39.8181L5.02233 39.4658L4.03584 38.7612L4.88141 39.1839L5.8679 39.3953H6.643L7.48856 39.1839L8.12273 38.8316V38.6907L7.48856 38.7612H6.50207L5.37465 38.5498L4.67002 38.2679L4.3177 37.9861L4.81094 38.127L5.93836 38.1975L7.06578 37.9861L8.05227 37.5633L8.12273 37.3519H5.93836L4.88141 37.07L3.89492 36.5768L3.04935 35.7312L2.48565 35.3789Z" fill="#F6F2EB"/>
<path d="M32.1335 8.69727H31.2175L29.7377 8.90866L29.3854 9.04958L29.5263 9.12005H31.3584L32.5563 9.4019L33.9656 9.96561L34.7407 10.4589L35.1634 10.9521L35.7271 12.0795L35.9385 13.1365V13.8411L35.7271 14.8981L35.3044 16.0255L34.7407 16.9415L34.1769 17.6461L33.6837 18.1394L32.7677 18.7736L32.4154 18.985V19.1259L33.12 18.9145L34.1065 18.3508L35.3044 17.4348L35.7271 17.0824V16.9415L36.009 16.8006L36.6432 16.0255L37.066 15.1799L37.2773 14.1934V13.2069L37.066 12.2204L36.6432 11.234L36.1499 10.5998L35.3748 9.82468L34.3883 9.19051L33.5428 8.90866L32.9086 8.76773L32.1335 8.69727Z" fill="#C76323"/>
<path d="M12.13 11.4922H11.9186L11.9891 11.7036L12.6233 12.1968L13.2574 12.9719L13.7507 13.6766L14.5258 15.2268L15.2304 16.5656L15.8646 17.7634L16.1465 18.0453L16.0055 17.4111L15.5123 16.0019L14.9486 14.804L15.4418 15.2268L16.2169 15.9314L17.0625 16.4246L17.9785 16.7065H18.6127L18.8945 16.5656L18.6831 16.4246L17.3443 15.9314L16.3578 15.2972L15.7237 14.6631L15.0895 13.888L13.6098 12.4082L12.6937 11.774L12.13 11.4922Z" fill="#F6EFE4"/>
<path d="M30.5342 9.52734H29.4773L27.9975 9.73873L26.8701 10.0911L26.7292 10.3729L28.4908 10.8662L29.5477 11.148L30.6047 11.5708L31.2388 11.9231L31.4502 12.1345H31.5912L31.4502 11.8526L30.6751 11.2889L29.9 10.9366L28.984 10.6548H28.5612V10.5138L30.3228 10.7252L31.6616 11.0775L32.2958 11.3594L32.789 11.6413H32.93L32.789 11.3594L31.873 10.7252L30.6751 10.3024L30.3228 10.232H29.6182V10.0911H30.8161L31.9435 10.232L33.3527 10.6548L34.2688 11.148L34.6211 11.2889L34.2688 10.8662L33.3527 10.3024L32.3663 9.87966L31.2388 9.59781L30.5342 9.52734Z" fill="#F5EBDB"/>
<path d="M34.7557 1.36523H33.4873L32.5008 1.64709L31.4439 2.2108L30.6688 2.84497L30.8097 2.91543L32.0076 2.49265L32.8531 2.35172H34.5443L35.7422 2.63358L36.5877 2.9859L37.8561 3.761L38.3493 4.18378H38.4902L38.3493 3.83146L37.7151 3.12682L37.1514 2.56312L36.0945 1.85848L35.3194 1.50616L34.7557 1.36523Z" fill="#F6F3EC"/>
<path d="M17.5183 17.9941L17.4478 18.1351L17.8706 18.9806L18.1525 19.8967L18.3639 21.0241V23.0675L18.1525 23.9131L18.082 22.0106L17.8706 20.9536L17.3774 19.4739L16.8841 18.5578L16.7432 18.4874L16.9546 19.192L17.3069 20.4604L17.4478 21.3059L17.5183 22.1515V23.6312L17.3774 24.97H17.5183L18.0116 24.4063L18.7867 23.7722L18.9276 23.4198L18.998 22.9971V21.7287L18.7162 20.3899L18.2934 19.192L17.8706 18.4169L17.5183 17.9941Z" fill="#C76323"/>
<path d="M7.13266 22.2832H6.99173L6.85081 23.2697L6.56895 24.9608L6.21663 26.0882L6.14617 26.2292L6.07571 25.1017L5.79385 23.6925L5.512 22.9174H5.44153V23.9039L5.512 24.8904V25.7359L5.37107 27.0043L5.15968 27.9203V28.2726L5.512 28.2021L6.07571 27.7089L6.63942 26.7929L6.99173 25.7359L7.20312 24.538V22.706L7.13266 22.2832Z" fill="#F6EFE5"/>
<path d="M19.1127 17.4082L18.9717 17.4787L19.3945 18.3242L19.6764 19.3812V20.72L19.3945 19.5926L19.1127 19.0289L18.6194 18.4652L18.408 18.5356L18.6899 19.0993L19.1127 20.2972L19.3241 22.0588V22.693L19.2536 23.1158L19.5354 23.0453L20.0287 22.552L20.2401 21.7769L20.3105 21.2132V20.3677L20.0992 19.1698L19.7468 18.2538L19.3241 17.6196L19.1127 17.4082Z" fill="#C76323"/>
<path d="M20.1032 17.1641H19.9623L20.1032 17.5164L20.4555 18.4324L20.5964 19.137L20.6669 19.8417V20.5463L20.526 21.7442L20.4555 22.167L20.7374 22.0261L21.1601 21.5328L21.6534 21.1805L22.0057 20.6872L22.0762 20.4759V19.137L21.7239 18.0801L21.2306 17.3755L21.0192 17.305L21.2306 18.0096L21.5125 19.278V20.6168L21.3011 21.251L21.2306 21.1805L21.3011 20.8986V19.7712L21.0192 18.7143L20.4555 17.5868L20.1032 17.1641Z" fill="#C76323"/>
<path d="M16.7124 10.5938H15.6555L15.3031 10.8051L15.3736 11.087L15.8669 11.6507L16.4306 12.003L17.4171 12.2144H18.2626L18.7559 12.003L18.6854 11.6507L18.0512 11.087L17.2761 10.7347L16.7124 10.5938Z" fill="#C72323"/>
<path d="M30.9531 -0.189453L30.0371 -0.11899L29.1915 0.162865L28.2755 0.65611L27.289 1.36075L26.5139 2.13585L26.6548 2.20631L27.9232 1.43121L29.0506 1.00843L30.1075 0.726574L30.6008 0.65611H31.4463L32.4328 0.867501L32.7852 1.00843L32.7147 0.726574L32.2214 0.233328L31.6577 -0.0485259L30.9531 -0.189453Z" fill="#F6F1E8"/>
<path d="M3.42156 32.6523L2.85785 32.7228L2.15322 33.0047L1.94183 33.4274L2.08275 34.0616L2.50553 34.6958L3.13971 35.2595L3.98527 35.6118L4.47852 35.7527L4.40805 35.5414L3.70342 35.1186L3.28063 34.7663L2.99878 34.2025V33.7798L3.13971 33.7093L4.26712 33.6388L4.1262 33.2865L3.56249 32.7228L3.42156 32.6523Z" fill="#F6F2EA"/>
<path d="M4.88596 17.6445L4.39272 17.715L4.11086 18.0673L3.89947 18.9129V19.8289L4.11086 21.2382L4.18133 21.52L4.39272 21.4496L4.8155 19.688L5.23828 18.631V17.9968L4.88596 17.6445Z" fill="#F6F2EA"/>
<path d="M1.01743 11.084L0.735573 11.2249L0.1014 12.1409L-0.250918 12.916L-0.391845 13.6207V14.3253L-0.250918 15.0299L0.0309367 15.5232H0.171864V14.3958L0.524182 13.4093L1.01743 12.6342L1.08789 12.4933V11.7886L1.01743 11.084Z" fill="#F6F1E8"/>
<path d="M1.21559 16.3691L0.86327 16.4396L0.581416 17.0033L0.440488 17.6375V18.9058L0.651879 19.7514L0.933734 20.3151L1.07466 20.2446V19.1172L1.28605 18.2012L1.7793 17.2852L1.70883 16.9328L1.42698 16.5101L1.21559 16.3691Z" fill="#F6F2EB"/>
<path d="M5.09269 28.9121L4.8813 28.9826L4.52898 29.6872L4.31759 30.3918V31.0965L4.52898 31.8011L4.81084 32.2239L4.95176 32.3648H5.37455L5.58594 32.083L5.51547 31.5193L5.16316 30.5328L5.09269 30.1805V28.9121Z" fill="#F6F1E9"/>
<path d="M1.72625 28.6426L1.51486 28.854L1.30347 29.5586V30.2632L1.44439 30.8974L1.79671 31.4611L2.07857 31.743L2.43089 31.8134L2.71274 31.6725L2.7832 31.3907L2.28996 30.686L1.93764 29.5586L1.72625 28.6426Z" fill="#F6EEE3"/>
<path d="M6.41898 18.1328L6.13713 18.2033L5.78481 18.6261L5.50295 19.4716V19.6125H5.64388L6.06666 18.9784L6.20759 18.9079L6.84176 18.9784L7.68733 19.4716L8.67382 20.3172L9.30799 21.0218L9.44892 21.3037H9.58984L9.51938 20.9514L9.02613 20.1763L8.03964 19.1898L6.98269 18.4851L6.41898 18.1328Z" fill="#C76323"/>
<path d="M5.37541 29.1211L5.23448 29.1916V29.7553L5.44587 30.3894L6.00958 30.9531L6.85514 31.3759L6.99607 31.5873L7.137 31.3759H8.12349L8.75766 31.0236L8.82812 30.8122L8.12349 30.9531H7.41885L6.71422 30.7418L6.15051 30.319L5.5868 29.6848L5.37541 29.1211Z" fill="#C76323"/>
<path d="M22.0858 16.7168L21.8744 16.7873L22.3676 17.9147L22.6495 19.1126V20.1695L23.0018 20.0286L23.0723 19.9581V18.7602L22.7199 17.6328L22.2267 16.8577L22.0858 16.7168Z" fill="#C76323"/>
<path d="M2.2638 28.2207H2.05241V28.7844L2.33426 29.63L2.75705 30.1937L3.39122 30.6165L4.02539 30.6869V30.3346L3.32075 29.9823L2.68658 29.3481L2.33426 28.7139L2.2638 28.2207Z" fill="#C76323"/>
<path d="M22.5738 16.2305H22.4328L22.5738 16.5828L23.067 17.5693L23.4193 18.7672L23.4898 19.1899H23.6307L23.7012 19.049V18.0625L23.4193 17.2874L22.9261 16.5123L22.5738 16.2305Z" fill="#C76323"/>
<path d="M2.76847 17.582L2.27523 17.723L1.57059 19.1322V19.9073L1.71152 19.7664L1.92291 19.2027L2.34569 18.4276L2.69801 18.0753H3.05033H3.26172L2.9094 17.6525L2.76847 17.582Z" fill="#C76323"/>
<path d="M27.5925 10.9414H27.0288L27.2402 11.1528L29.0723 11.8574L29.8474 12.2098L29.9883 12.1393L29.495 11.7165L28.6495 11.2937L27.5925 10.9414Z" fill="#F5E5CF"/>
<path d="M31.0164 11.4922L30.8754 11.5627V11.7036L31.2982 11.9854L31.5801 12.1264L31.4392 11.8445L31.0164 11.4922Z" fill="#F2CD9C"/>
</g>
<defs>
<clipPath id="clip0_21_2">
<rect width="260" height="65" fill="white"/>
</clipPath>
</defs>
</svg>
