<svg width="313" height="316" viewBox="0 0 313 316" fill="none" xmlns="http://www.w3.org/2000/svg">
<path d="M267.016 258.285V297.708H306.445V258.285H267.016ZM269.993 294.731V261.262H303.462V294.731H269.993Z" fill="#EBEBEB"/>
<path d="M285.112 189.372H169.75V304.734H285.112V189.372Z" fill="#455A64"/>
<path d="M191.981 304.735H256.162C256.431 302.283 246.6 250.129 235.053 233.361C233.743 231.458 222.519 230.074 218.399 234.806C196.575 259.87 191.454 304.133 191.981 304.735Z" fill="#263238"/>
<path d="M236.58 237.691C238.401 242.41 245.274 258.956 249.01 270.831C251.517 278.8 252.471 285.487 253.02 287.246C253.02 287.246 234.069 281.159 229.802 281.149C223.23 281.133 212.689 294.857 215.275 296.577C219.34 299.281 238.716 308.477 254.19 311.365C262.602 312.934 278.449 302.243 277.197 293.744C275.44 281.815 253.884 250.372 245.682 241.456C241.423 236.826 234.36 231.939 236.58 237.691Z" fill="#EB9481"/>
<path d="M278.351 296.263C277.954 304.856 267.205 312.089 260.972 312.471C250.221 313.123 217.969 303.731 217.969 303.731L230.505 279.578C230.505 279.578 252.451 287.027 253.009 287.237V287.227C252.815 286.587 247.407 266.264 244.99 259.53C244.861 259.158 244.712 258.778 244.571 258.378C243.876 256.513 242.921 254.05 241.867 251.388L241.856 251.369C241.272 249.896 240.654 248.357 240.048 246.836L240.047 246.826C237.396 240.242 234.813 233.975 234.813 233.975C238.508 234.581 242.155 236.523 248.145 242.81C254.125 249.09 279.007 282.088 278.351 296.263Z" fill="#263238"/>
<path d="M226.324 298.503C227.219 296.793 228.127 295.091 229.026 293.384C229.906 291.711 230.799 290.045 231.698 288.383C232.627 286.663 233.603 284.947 234.353 283.139C234.367 283.105 234.32 283.076 234.297 283.106C233.168 284.594 232.24 286.234 231.313 287.851C230.352 289.527 229.417 291.216 228.489 292.91C227.58 294.569 226.705 296.246 225.842 297.929C224.955 299.66 224.058 301.456 223.418 303.296C223.392 303.37 223.494 303.442 223.543 303.369C224.578 301.83 225.464 300.146 226.324 298.503Z" fill="#37474F"/>
<path d="M259.721 290.8L253.019 287.247L253.009 287.238V287.228C252.815 286.588 247.407 266.265 244.99 259.531C244.861 259.159 244.712 258.779 244.571 258.379C243.876 256.514 242.921 254.051 241.867 251.389L259.721 290.8Z" fill="#37474F"/>
<path d="M265.263 293.749C263.402 292.359 261.396 291.115 259.375 289.972C258.365 289.4 257.335 288.874 256.275 288.4C255.148 287.897 253.957 287.532 252.838 287.026C252.752 286.987 252.69 287.119 252.775 287.158C253.821 287.631 254.815 288.29 255.824 288.841C256.874 289.414 257.928 289.976 258.992 290.523C261.081 291.597 263.132 292.737 265.208 293.834C265.258 293.861 265.309 293.784 265.263 293.749Z" fill="#37474F"/>
<path d="M260.385 288.545C258.703 288.568 248.548 285.855 247.07 287.249C238.057 295.746 235.207 294.034 233.289 295.141C218.437 303.686 198.604 313.724 191.525 313.787C180.789 313.874 176.512 304.864 178.3 296.351C181.828 279.522 204.524 246.71 214.792 237.992C220.237 233.376 219.807 240.339 217.554 247.906C216.233 252.344 213.923 258.942 211.566 265.417C209.478 271.185 203.948 285.925 203.852 286.271L203.853 286.281C203.844 286.301 203.835 286.311 203.836 286.321C203.829 286.36 203.868 286.368 203.954 286.343C204.426 286.256 217.126 280.271 229.898 276.983C234.399 275.824 243.772 274.174 247.132 275.674C249.13 276.566 249.164 277.758 249.164 277.758C249.164 277.758 250.766 277.612 252.456 279.003C253.577 279.926 253.925 281.231 253.925 281.231C253.925 281.231 255.678 281.476 256.59 282.492C257.678 283.703 257.773 284.986 257.773 284.986C260.136 285.619 260.385 288.545 260.385 288.545Z" fill="#EB9481"/>
<path d="M245.384 277.401C244.03 277.42 242.708 277.617 241.378 277.851C241.288 277.867 241.291 278.007 241.387 277.997C242.694 277.854 244.016 277.824 245.33 277.78C246.635 277.736 247.961 277.709 249.266 277.735C249.274 277.735 249.275 277.722 249.267 277.721C247.964 277.505 246.707 277.382 245.384 277.401Z" fill="#263238"/>
<path d="M253.884 281.153C251.559 280.514 249.705 280.161 246.786 280.527C246.692 280.539 246.699 280.678 246.792 280.673C249.567 280.501 251.376 280.782 253.879 281.204C253.909 281.208 253.91 281.16 253.884 281.153Z" fill="#263238"/>
<path d="M257.743 284.909C255.411 283.949 253.617 283.651 251.03 283.65C250.939 283.65 250.908 283.784 251.003 283.793C253.485 284.029 255.301 284.387 257.709 285.012C257.769 285.027 257.8 284.932 257.743 284.909Z" fill="#263238"/>
<path d="M229.275 277.131C228.16 277.276 227.046 277.604 225.955 277.873C224.792 278.16 223.633 278.476 222.495 278.851C220.215 279.602 218.002 280.506 215.818 281.5C215.734 281.539 215.779 281.668 215.869 281.637C218.093 280.858 220.338 280.128 222.586 279.421C223.691 279.073 224.79 278.704 225.891 278.344C227.021 277.974 228.197 277.694 229.308 277.273C229.381 277.244 229.359 277.12 229.275 277.131Z" fill="#263238"/>
<path d="M220.394 279.539C222.744 278.743 223.807 278.739 223.807 278.739L237.169 301.304C237.169 301.304 200.365 314.554 192.808 315.329C185.251 316.104 176.654 310.153 176.509 300.665C176.305 287.331 198.049 255.31 208.986 242.927C213.999 237.252 219.844 233.131 221.334 234.06C223.095 235.159 219.898 242.294 218.212 247.617C215.101 257.444 203.954 286.343 203.954 286.343C203.954 286.343 217.595 280.487 220.394 279.539Z" fill="#263238"/>
<path d="M223.687 278.719C221.614 278.84 212.65 281.962 208.253 283.849C203.872 285.729 199.658 287.961 195.704 290.629C193.467 292.139 191.344 293.782 189.247 295.48C189.175 295.539 189.254 295.655 189.331 295.599C193.196 292.835 197.325 290.369 201.504 288.111C205.662 285.865 209.895 283.733 214.302 282.015C216.811 281.037 221.126 279.572 223.578 278.929C224.271 278.747 223.751 278.715 223.687 278.719Z" fill="#37474F"/>
<path d="M214.859 258.987C214.298 259.892 213.731 260.791 213.252 261.743C213.23 261.788 213.208 261.833 213.186 261.877C213.898 259.712 214.574 257.541 215.221 255.355C215.261 255.221 215.039 255.149 214.987 255.279C211.825 263.289 208.89 271.396 206.042 279.523C205.246 281.796 204.546 284.093 203.823 286.387C203.798 286.466 203.928 286.506 203.961 286.432C204.83 284.463 205.705 282.508 206.501 280.506C207.296 278.505 208.035 276.48 208.782 274.46C210.089 270.928 211.333 267.38 212.533 263.813C212.909 263.188 213.288 262.565 213.643 261.929C214.161 261.002 214.585 260.031 215.017 259.062C215.064 258.957 214.917 258.893 214.859 258.987Z" fill="#37474F"/>
<path d="M228.218 296.388C227.239 294.725 226.273 293.055 225.298 291.39C224.343 289.759 223.4 288.121 222.462 286.48C221.492 284.782 220.551 283.048 219.412 281.456C219.391 281.426 219.341 281.451 219.354 281.486C220.021 283.23 220.923 284.885 221.807 286.527C222.722 288.228 223.663 289.915 224.611 291.597C225.54 293.245 226.501 294.874 227.475 296.496C228.476 298.164 229.528 299.873 230.752 301.389C230.801 301.45 230.916 301.402 230.88 301.322C230.12 299.628 229.159 297.986 228.218 296.388Z" fill="#37474F"/>
<path d="M237.704 301.349C236.596 299.163 234.872 297.017 233.595 294.937C233.546 294.858 233.428 294.941 233.475 295.02C234.634 296.97 235.697 299.073 236.806 301.056C231.75 303.143 226.383 305.003 221.228 306.83C215.937 308.705 210.613 310.483 205.216 312.038C202.199 312.907 199.177 313.85 196.141 314.647C195.953 314.696 196.003 314.852 196.196 314.815C201.657 313.788 207.018 312.209 212.306 310.532C217.698 308.821 223.02 306.91 228.316 304.93C231.296 303.816 237.794 301.526 237.704 301.349Z" fill="#37474F"/>
<path d="M228.94 277.145C221.99 278.925 213.992 281.854 210.409 283.257C210.314 283.29 210.229 283.322 210.143 283.355C206.987 284.595 205.031 285.515 204.562 285.593C204.523 285.575 204.493 285.548 204.463 285.53V285.52C204.135 285.283 203.81 285.104 203.487 284.983C202.597 284.664 194.045 283.596 194.262 280.947C194.47 278.327 197.955 278.49 198.467 278.526C197.913 278.405 193.272 277.318 194.784 275C195.852 273.356 200.448 273.597 200.911 273.616C200.442 273.462 196.179 272.071 197.645 269.706C198.695 268.013 203.827 268.233 204.419 268.334C203.939 268.152 200.139 267.515 201.913 265.475C203.145 264.055 212.807 265.5 217.102 267.642C223.487 270.829 228.94 277.145 228.94 277.145Z" fill="#EB9481"/>
<path d="M210.411 283.257C210.316 283.29 210.232 283.322 210.146 283.355C208.662 282.203 203.05 279.231 198.641 278.666C198.368 278.631 198.351 278.475 198.64 278.488C204.085 278.733 208.979 281.939 210.411 283.257Z" fill="#263238"/>
<path d="M201.122 273.79C207.208 274.998 209.959 276.342 215.192 279.666C215.266 279.713 215.347 279.604 215.276 279.551C210.398 275.9 207.362 274.092 201.174 273.635C200.894 273.615 200.844 273.734 201.122 273.79Z" fill="#263238"/>
<path d="M204.61 268.458C210.449 270.01 213.526 271.355 218.229 275.16C218.34 275.25 218.477 275.114 218.374 275.014C213.942 270.716 210.113 269.012 204.666 268.297C204.294 268.248 204.242 268.36 204.61 268.458Z" fill="#263238"/>
<path d="M233.834 245.043C230.376 246.287 223.66 241.548 220.752 237.421C220.554 237.137 220.656 233.904 220.594 229.97C220.547 227.583 220.438 224.926 220.164 222.509L235.743 224.472C235.743 224.472 234.828 229.708 235.332 233.92C235.378 234.272 235.45 234.595 235.549 234.9C235.559 234.945 235.579 234.999 235.589 235.062C236.109 236.911 237.176 243.839 233.834 245.043Z" fill="#EB9481"/>
<path d="M235.594 235.06C235.624 235.16 235.654 235.27 235.674 235.4C226.348 235.005 222.8 230.904 220.504 226.97C220.434 225.47 220.334 223.95 220.164 222.51L235.744 224.47C235.744 224.47 234.824 229.71 235.334 233.92C235.374 234.27 235.454 234.59 235.554 234.9C235.564 234.94 235.574 235 235.594 235.06Z" fill="#263238"/>
<path d="M213.78 206.169C212.935 211.762 218.039 226.808 222.354 229.695C228.609 233.88 237.715 233.026 240.984 225.767C244.153 218.73 237.154 199.24 232.44 196.733C225.497 193.041 215.028 197.907 213.78 206.169Z" fill="#EB9481"/>
<path d="M228.184 212.937C228.163 212.901 228.121 213.012 228.136 213.053C228.507 214.057 228.763 215.27 227.957 215.914C227.932 215.934 227.952 215.984 227.984 215.968C229.053 215.435 228.697 213.829 228.184 212.937Z" fill="#263238"/>
<path d="M226.925 212.18C225.251 212.601 226.216 215.918 227.767 215.528C229.293 215.144 228.328 211.827 226.925 212.18Z" fill="#263238"/>
<path d="M234.43 211.054C234.426 211.012 234.525 211.079 234.535 211.122C234.802 212.159 235.281 213.302 236.31 213.372C236.342 213.374 236.354 213.427 236.318 213.432C235.137 213.602 234.516 212.078 234.43 211.054Z" fill="#263238"/>
<path d="M235.038 209.713C236.654 209.107 237.748 212.384 236.251 212.945C234.777 213.499 233.683 210.221 235.038 209.713Z" fill="#263238"/>
<path d="M225.172 211.043C225.591 210.798 225.936 210.502 226.325 210.217C226.764 209.895 227.146 209.684 227.34 209.15C227.444 208.864 227.249 208.461 226.98 208.334C226.354 208.038 225.719 208.299 225.174 208.665C224.584 209.062 224.23 209.519 224.024 210.199C223.823 210.857 224.619 211.366 225.172 211.043Z" fill="#263238"/>
<path d="M235.839 207.67C235.357 207.729 234.903 207.703 234.421 207.712C233.877 207.722 233.444 207.786 232.967 207.479C232.711 207.314 232.622 206.876 232.759 206.612C233.077 205.997 233.741 205.82 234.395 205.781C235.105 205.739 235.664 205.888 236.24 206.304C236.798 206.705 236.474 207.592 235.839 207.67Z" fill="#263238"/>
<path d="M230.563 222.462C230.879 222.631 231.221 222.891 231.603 222.813C231.969 222.739 232.342 222.456 232.632 222.233C232.661 222.211 232.704 222.236 232.692 222.273C232.54 222.745 232.051 223.155 231.55 223.21C231.061 223.264 230.714 222.929 230.477 222.536C230.445 222.482 230.517 222.437 230.563 222.462Z" fill="#263238"/>
<path d="M230.744 219.071C231.579 219.796 232.566 220.037 233.532 219.948C233.964 219.911 234.398 219.8 234.808 219.639C234.89 219.613 234.97 219.58 235.04 219.541C235.112 219.51 235.177 219.482 235.255 219.441C235.37 219.388 235.407 219.27 235.394 219.151L235.392 219.143C235.38 219.106 235.371 219.076 235.352 219.041C235.352 219.041 235.352 219.041 235.35 219.033L235.322 218.943C235.114 218.146 234.686 216.965 234.686 216.965C235.017 217.026 236.684 217.26 236.54 216.853C235.34 213.491 234.006 209.752 232.102 206.66C232.045 206.555 231.88 206.631 231.922 206.741C232.947 210.018 234.542 213.093 235.624 216.368C235.102 216.326 234.238 216.218 233.827 216.347C233.724 216.412 234.693 218.614 234.757 218.98C234.757 218.98 234.762 218.995 234.761 219.02C233.481 219.577 232.363 219.467 230.812 218.949C230.72 218.914 230.659 219.007 230.744 219.071Z" fill="#263238"/>
<path opacity="0.2" d="M215.421 216.768C216.304 216.047 217.418 212.346 217.936 210.816C218.474 209.227 216.878 202.79 216.357 200.876C215.04 202.362 214.113 204.179 213.786 206.226C213.412 208.557 214.137 212.685 215.421 216.768Z" fill="#263238"/>
<path d="M230.15 202.727C229.403 204.34 227.888 205.493 226.111 205.706C224.38 205.913 222.41 205.242 221.356 203.81C221.325 203.767 221.258 203.816 221.29 203.859C222.418 205.391 224.212 206.403 226.156 206.122C227.98 205.859 229.634 204.509 230.267 202.779C230.295 202.702 230.185 202.651 230.15 202.727Z" fill="#263238"/>
<path d="M221.517 191.978C218.666 192.866 216.488 195.211 216.001 197.467C215.705 198.838 215.956 200.071 216.501 201.242C216.523 201.289 216.623 201.25 216.604 201.201C215.881 199.306 216.204 196.817 217.896 194.863C219.521 192.985 222.059 191.819 224.608 192.029C225.938 192.138 227.129 192.621 227.895 193.405C227.981 193.493 228.176 193.363 228.1 193.271C226.806 191.703 224.097 191.175 221.517 191.978Z" fill="#263238"/>
<path d="M239.964 193.408C239.105 192.125 237.77 191.198 236.29 190.781C234.217 190.197 232.272 190.93 230.355 191.698C230.303 191.719 230.335 191.8 230.387 191.779C232.021 191.131 233.716 190.568 235.49 190.915C236.936 191.198 238.3 191.97 239.237 193.115C241.181 195.491 241.047 199.17 238.89 201.366C237.669 202.609 235.916 203.313 234.175 203.257C234.107 203.255 234.087 203.36 234.157 203.364C237.364 203.553 240.411 201.24 240.921 198.033C241.173 196.451 240.86 194.746 239.964 193.408Z" fill="#263238"/>
<path d="M213.747 209.37C213.747 209.37 209.566 205.004 211.005 201.384C211.82 199.333 216.17 198.343 216.17 198.343C216.17 198.343 216.856 195.487 220.179 193.671C223.537 191.836 228.396 192.726 228.396 192.726C228.396 192.726 231.253 189.812 234.962 190.735C240.132 192.022 241.491 198.96 237.626 202.406C234.912 204.825 229.852 203.247 229.852 203.247C229.457 203.419 225.967 207.143 221.727 204.287C221.727 204.287 219.79 207.315 217.015 206.36C217.015 206.36 216.497 209.022 213.747 209.37Z" fill="#263238"/>
<path d="M218.94 218.284C218.94 218.284 214.618 213.885 212.565 215.507C210.512 217.13 214.346 223.915 217.167 224.457C219.988 225 220.541 222.398 220.541 222.398L218.94 218.284Z" fill="#EB9481"/>
<path d="M213.712 217.425C213.669 217.428 213.67 217.489 213.71 217.498C215.698 217.94 216.968 219.502 217.955 221.176C217.285 220.58 216.468 220.329 215.656 221.143C215.614 221.186 215.673 221.254 215.723 221.234C216.458 220.943 217.031 220.982 217.648 221.507C218.086 221.878 218.427 222.383 218.772 222.839C218.887 222.991 219.173 222.851 219.077 222.67C219.07 222.657 219.062 222.643 219.055 222.63C218.704 220.248 216.301 217.235 213.712 217.425Z" fill="#263238"/>
<path d="M235.545 234.732L232.231 243.899L220.634 232.956L217.609 236.724C217.609 236.724 229.217 254.369 229.255 253.55L232.663 245.665L238.213 250.849L237.265 237.339L235.545 234.732Z" fill="#EBEBEB"/>
<path d="M238.12 244.145C237.888 241.92 237.718 239.672 237.384 237.46C237.372 237.381 237.247 237.351 237.231 237.445C236.866 239.616 237.796 248.122 237.864 250.167C237.856 250.16 237.847 250.152 237.84 250.144C237.608 249.92 232.705 245.592 232.661 245.665C231.905 246.925 229.402 252.668 229.236 253.188C227.4 250.385 220.384 240.208 218.236 237.573C218.175 237.497 218.056 237.566 218.105 237.655C219.746 240.626 229.039 254.337 229.172 254.293C229.266 254.36 232.379 247.286 232.732 245.958C233.57 246.91 238.539 251.815 238.543 251.483C238.569 249.24 238.352 246.373 238.12 244.145Z" fill="#263238"/>
<path d="M161.787 131.783H43.8125V253.589H161.787V131.783Z" fill="#C76323"/>
<path d="M15.0469 168.155V230.795H77.6869V168.155H15.0469ZM19.7769 226.065V172.885H72.9569V226.065H19.7769Z" fill="#A6A6A6"/>
<path d="M121.632 166.045C124.736 165.31 132.778 167.411 135.521 171.523C138.264 175.636 138.142 182.365 136.772 183.042C135.402 183.719 129.465 183.305 125.362 181.122C121.258 178.939 120.103 166.407 121.632 166.045Z" fill="#263238"/>
<path d="M121.623 166.064C121.519 166.043 121.503 165.87 121.624 165.865C124.348 165.755 127.281 166.629 129.889 167.338C131.994 167.91 134.156 168.594 135.872 169.995C137.588 171.397 138.503 173.269 138.616 175.472C138.739 177.874 138.442 180.784 137.294 182.932C137.26 182.995 137.14 182.979 137.161 182.897C138.346 178.337 139.36 172.774 134.801 169.75C130.931 167.181 126.025 166.949 121.623 166.064Z" fill="#263238"/>
<path d="M136.302 181.867C139.032 182.177 146.187 187.25 147.452 192.411C148.717 197.573 144.634 205.289 143.308 205.864C141.982 206.439 135.888 201.566 133.871 197.953C132.523 195.537 133.515 192.68 134.066 189.846C134.88 185.663 135.877 181.819 136.302 181.867Z" fill="#263238"/>
<path d="M132.228 197.326C131.338 192.061 134.247 186.791 135.973 181.998C135.991 181.947 136.076 181.969 136.065 182.023C135.139 186.61 132.449 190.759 132.447 195.543C132.446 198.382 133.476 201.152 135.842 202.857C137.892 204.335 140.449 204.985 142.811 205.782C142.967 205.835 142.869 206.065 142.714 206.017C138.004 204.556 133.147 202.76 132.228 197.326Z" fill="#263238"/>
<path d="M136.897 182.346C136.76 182.281 136.848 182.063 136.987 182.127C140.888 183.9 145.591 186.505 147.724 190.395C150.034 194.61 147.851 199.093 145.914 202.958C145.89 203.006 145.812 202.975 145.836 202.926C147.746 199.003 149.754 194.139 147.137 190.039C144.887 186.512 140.577 184.082 136.897 182.346Z" fill="#263238"/>
<path d="M142.995 205.73C141.281 206.847 138.956 210.212 138.721 213.906C138.319 220.229 135.851 219.241 129.229 221.583C123.632 223.562 123.064 230.108 126.445 232.97C126.445 232.97 124.268 229.191 127.939 226.859C132.325 224.072 143.387 227.857 147.996 220.792C153.959 211.65 142.995 205.73 142.995 205.73Z" fill="#263238"/>
<path d="M140.846 208.852C140.912 208.759 140.756 208.642 140.684 208.732C139.986 209.608 139.438 210.558 139.09 211.626C138.642 213.001 138.76 214.426 138.41 215.816C137.519 219.352 133.391 219.651 130.428 220.165C126.455 220.855 123.484 223.625 123.664 227.864C123.667 227.926 123.761 227.923 123.76 227.861C123.7 225.223 125.041 222.675 127.393 221.389C129.632 220.164 132.323 220.419 134.691 219.587C136.311 219.018 137.893 218.143 138.499 216.446C138.831 215.518 138.827 214.49 138.955 213.523C139.189 211.758 139.812 210.295 140.846 208.852Z" fill="#263238"/>
<path d="M144.122 206.377C144.082 206.352 144.034 206.414 144.072 206.445C146.565 208.453 149.194 210.456 150.178 213.662C151.237 217.112 149.779 220.823 147.228 223.23C144.371 225.926 140.933 225.125 137.403 224.801C134.849 224.567 132.266 224.529 129.894 225.634C129.821 225.668 129.876 225.788 129.951 225.762C133.816 224.442 137.558 225.254 141.51 225.488C144.739 225.679 147.124 224.322 148.918 221.649C152.875 215.751 149.483 209.817 144.122 206.377Z" fill="#263238"/>
<path d="M123.973 163.155C124.821 162.043 126.531 163.382 125.682 164.496C124.833 165.608 123.123 164.269 123.973 163.155Z" fill="#C76323"/>
<path d="M123.16 165.004C124.008 163.892 125.718 165.231 124.868 166.345C124.021 167.457 122.311 166.118 123.16 165.004Z" fill="#C76323"/>
<path d="M122.027 166.703C122.875 165.591 124.584 166.93 123.735 168.044C122.887 169.155 121.178 167.816 122.027 166.703Z" fill="#C76323"/>
<path d="M120.723 168.195C121.571 167.083 123.281 168.422 122.431 169.536C121.583 170.647 119.874 169.308 120.723 168.195Z" fill="#C76323"/>
<path d="M119.144 169.468C119.992 168.356 121.702 169.695 120.852 170.809C120.005 171.92 118.295 170.581 119.144 169.468Z" fill="#C76323"/>
<path d="M117.426 170.401C118.274 169.289 119.984 170.628 119.135 171.742C118.287 172.854 116.577 171.515 117.426 170.401Z" fill="#C76323"/>
<path d="M115.791 190.556C111.096 196.329 85.9945 214.532 64.8055 214.193C57.6075 214.078 37.6055 183.353 33.9085 171.668C31.2545 163.28 49.0716 159.042 54.1046 160.255C60.3846 161.768 72.6326 188.123 75.0516 188.291C82.2446 188.792 94.6046 184.456 109.778 182.92C117.568 182.133 119.407 186.11 115.791 190.556Z" fill="#AD6359"/>
<path d="M34.5991 173.598C33.2631 170.681 26.9731 154.455 26.4631 150.277C25.9531 146.099 25.3561 133.972 28.5161 133.256C31.6761 132.541 32.1341 136.077 32.1341 136.077C32.1341 136.077 32.6931 130.916 35.9391 130.486C39.1851 130.056 39.7171 135.581 39.7171 135.581C39.7171 135.581 40.6781 130.323 43.9461 130.125C47.2141 129.927 46.8191 135.573 46.8191 135.573C46.8191 135.573 47.4731 130.724 50.2341 131.695C53.5561 132.862 51.3401 141.665 52.2491 146.234C52.4551 147.272 57.9311 166.969 57.9311 166.969L34.5991 173.598Z" fill="#AD6359"/>
<path d="M46.8436 135.09C45.2296 141.567 45.6436 144.68 47.7036 150.921C47.7446 151.043 47.5716 151.13 47.5176 151.007C44.9446 145.08 43.8616 141.25 46.5336 134.996C46.6646 134.689 46.9196 134.782 46.8436 135.09Z" fill="#263238"/>
<path d="M39.8521 135.07C38.7631 141.944 39.1831 145.325 40.8591 152.019C40.8831 152.114 40.7251 152.164 40.6931 152.07C38.4991 145.64 37.5062 141.795 39.4962 135.069C39.5872 134.766 39.9021 134.756 39.8521 135.07Z" fill="#263238"/>
<path d="M32.2265 136.417C31.6525 143.148 31.9525 146.874 34.4155 153.165C34.4735 153.313 34.2625 153.412 34.1895 153.269C31.0555 147.099 30.6465 142.452 32.0205 136.422C32.1135 136.01 32.2625 135.993 32.2265 136.417Z" fill="#263238"/>
<path d="M62.3658 170.026C62.3658 170.026 63.2948 161.713 62.8968 157.971C62.4998 154.229 55.8858 140.83 52.9108 142.094C49.0698 143.726 51.3638 152.214 53.0308 156.224C53.0308 156.224 44.1418 159.991 44.4698 166.439C44.7988 172.886 62.3658 170.026 62.3658 170.026Z" fill="#AD6359"/>
<path d="M52.0021 142.889C49.5731 146.904 52.1001 152.027 53.4271 156.038C53.5281 156.343 53.3181 156.531 53.0691 156.563C49.4491 158.391 44.8741 162.023 44.2731 166.262C44.2551 166.386 44.0771 166.378 44.0781 166.251C44.1051 161.618 48.3081 157.682 52.4021 155.934C50.9781 151.842 48.6681 146.593 51.9641 142.864C51.9831 142.842 52.0171 142.863 52.0021 142.889Z" fill="#263238"/>
<path d="M85.7734 186.253L94.5154 206.49C94.5154 206.49 107.736 200.203 115.773 192.067C123.81 183.931 114.878 181.214 107.092 182.396C99.3064 183.579 85.7734 186.253 85.7734 186.253Z" fill="#EBEBEB"/>
<path d="M115.779 192.072C107.739 200.202 94.5194 206.492 94.5194 206.492L91.8594 200.342L118.489 184.902C119.469 186.522 118.929 188.882 115.779 192.072Z" fill="#C7C7C7"/>
<path d="M97.8164 203.652C93.5014 195.535 90.9524 187.843 90.2634 186.283C90.2304 186.209 90.3534 186.165 90.3824 186.241C90.9794 187.807 95.1374 196.399 97.9474 203.606C97.9794 203.689 97.8584 203.73 97.8164 203.652Z" fill="#263238"/>
<path d="M95.7501 226.207L92.1641 253.588L149.467 253.592C149.467 253.592 141.887 202.246 129.649 186.479C123.528 178.593 115.326 178.799 109.529 184.827C108.265 186.142 95.4571 204.429 93.2041 211.981C91.2331 218.646 95.7501 226.207 95.7501 226.207Z" fill="#EBEBEB"/>
<path d="M112.431 187.565L108.815 197.271C107.618 200.507 106.47 203.761 105.376 207.022C104.356 210.301 103.125 213.576 103.615 216.925C103.979 220.259 105.206 223.54 106.865 226.465L106.943 226.603L106.927 226.743C106.431 231.095 105.845 235.436 105.308 239.783C104.758 244.129 104.169 248.47 103.554 252.808C103.919 248.442 104.31 244.078 104.741 239.719C105.184 235.361 105.579 230.998 106.063 226.645L106.126 226.923C104.353 223.876 103.066 220.565 102.629 217.03C102.42 215.276 102.547 213.429 103.005 211.728C103.444 210.032 103.975 208.379 104.536 206.74C105.643 203.455 106.953 200.254 108.261 197.055C109.568 193.856 110.974 190.698 112.431 187.565Z" fill="#263238"/>
<path d="M104.433 200.21C104.361 200.674 104.643 201.117 105.063 201.198C105.484 201.279 105.883 200.969 105.955 200.505C106.027 200.041 105.745 199.598 105.325 199.517C104.905 199.435 104.506 199.746 104.433 200.21Z" fill="#263238"/>
<path d="M100.964 209.666C100.892 210.13 101.174 210.573 101.594 210.654C102.015 210.735 102.414 210.425 102.486 209.961C102.558 209.497 102.276 209.054 101.856 208.973C101.436 208.891 101.036 209.201 100.964 209.666Z" fill="#263238"/>
<path d="M100.527 219.306C100.455 219.77 100.737 220.213 101.157 220.294C101.577 220.375 101.977 220.065 102.049 219.601C102.121 219.137 101.839 218.694 101.419 218.613C100.999 218.531 100.599 218.842 100.527 219.306Z" fill="#263238"/>
<path d="M103.207 227.287C103.135 227.751 103.417 228.194 103.837 228.275C104.258 228.356 104.657 228.046 104.729 227.582C104.801 227.118 104.519 226.675 104.099 226.594C103.679 226.512 103.28 226.822 103.207 227.287Z" fill="#263238"/>
<path d="M102.167 235.999C102.095 236.463 102.377 236.906 102.797 236.987C103.218 237.068 103.617 236.758 103.689 236.294C103.761 235.83 103.479 235.387 103.059 235.306C102.639 235.224 102.24 235.534 102.167 235.999Z" fill="#263238"/>
<path d="M101.214 244.601C101.142 245.065 101.424 245.508 101.844 245.589C102.265 245.67 102.664 245.36 102.736 244.896C102.808 244.432 102.526 243.989 102.106 243.908C101.686 243.826 101.286 244.136 101.214 244.601Z" fill="#263238"/>
<path d="M112.695 283.586C115.578 285.547 120.439 276.906 122.093 275.055C123.747 273.196 124.456 273.259 124.362 274.677L128.12 259.749C126.174 261.262 122.038 264.515 119.841 266.65C116.894 269.509 109.804 281.624 112.695 283.586Z" fill="#AD6359"/>
<path d="M134.301 188.673C146.544 198.541 161.971 215.904 165.116 227.125C167.543 235.786 155.365 265.874 151.733 272.896C150.151 275.956 129.19 266.639 128.267 263.074C127.344 259.509 141.956 233.592 142.104 230.842C142.252 228.092 132.694 209.929 126.177 197.647C118.285 182.774 123.892 180.283 134.301 188.673Z" fill="#AD6359"/>
<path d="M114.749 292.149C116.679 294.252 120.586 291.708 120.586 291.708C120.586 291.708 117.112 296.001 119.83 297.671C122.556 299.341 126.258 295.67 126.258 295.67C126.258 295.67 123.28 299.79 126.108 301.255C128.944 302.728 132.599 299.522 132.599 299.522C132.599 299.522 132.402 301.105 134.868 301.239C138.405 301.444 143.455 295.701 145.385 292.085C147.315 288.461 151.703 273.77 152.333 271.509L129.188 258.928C129.188 258.928 128.778 259.235 128.117 259.747L124.359 274.675C124.296 275.605 121.649 281.332 120.688 282.978C118.515 286.698 112.583 289.794 114.749 292.149Z" fill="#AD6359"/>
<path d="M120.706 291.498C125.895 287.567 127.485 284.949 129.738 278.951C129.782 278.834 129.966 278.873 129.931 279C128.259 285.075 126.738 288.646 120.883 291.76C120.597 291.911 120.46 291.685 120.706 291.498Z" fill="#263238"/>
<path d="M125.998 295.788C131.03 291.234 132.78 288.411 135.602 282.301C135.642 282.215 135.792 282.273 135.759 282.364C133.492 288.589 131.893 292.117 126.267 296.006C126.013 296.182 125.768 295.996 125.998 295.788Z" fill="#263238"/>
<path d="M132.614 299.43C137.168 294.669 139.22 291.656 141.199 285.373C141.246 285.225 141.466 285.279 141.434 285.432C140.04 292.035 137.507 295.814 132.774 299.553C132.45 299.808 132.327 299.729 132.614 299.43Z" fill="#263238"/>
<path d="M132.001 215.686L149.666 202.498C149.666 202.498 140.49 191.09 130.716 185.154C120.941 179.218 120.364 188.536 123.316 195.837C126.268 203.138 132.001 215.686 132.001 215.686Z" fill="#EBEBEB"/>
<path d="M146.136 199.94C139.238 206.016 132.345 210.275 130.986 211.307C130.922 211.356 130.85 211.247 130.918 211.201C132.303 210.258 139.701 204.225 146.061 199.823C146.134 199.773 146.202 199.882 146.136 199.94Z" fill="#263238"/>
<path d="M128.893 208.205C127.814 205.791 126.343 202.278 125.128 199.93C125.112 199.899 125.061 199.922 125.072 199.955C125.55 201.328 126.095 202.689 126.662 204.04C126.616 203.971 126.575 203.899 126.528 203.831C126.085 203.199 125.632 202.581 125.142 201.983C125.125 201.962 125.095 201.99 125.107 202.012C125.48 202.698 125.879 203.366 126.312 204.016C126.582 204.42 126.87 204.812 127.157 205.204C127.464 205.916 128.179 207.679 128.488 208.384C129.007 209.569 131.552 216.269 131.662 216.198C131.826 216.092 132.768 215.44 133.437 214.865C133.523 214.791 133.39 214.635 133.304 214.706C132.989 214.97 132.191 215.505 132.059 215.606C131.482 214.394 131.01 213.114 130.485 211.879C129.963 210.65 129.437 209.423 128.893 208.205Z" fill="#263238"/>
<path d="M121.457 182.684C121.161 183.701 115.891 190.123 111.197 189.653C109.668 189.497 110.147 181.115 110.147 181.115L110.04 180.488L108.562 171.713L119.098 165.718L120.616 164.931C120.616 164.931 120.862 167.359 121.138 170.384C121.152 170.524 121.165 170.664 121.178 170.815C121.198 170.986 121.219 171.147 121.23 171.307C121.277 171.758 121.323 172.22 121.359 172.68C121.388 173.03 121.418 173.371 121.435 173.74C121.462 174.11 121.479 174.469 121.507 174.839C121.692 178.487 121.576 182.251 121.457 182.684Z" fill="#AD6359"/>
<path d="M121.138 170.383C118.287 177.153 112.622 179.674 110.04 180.487L108.562 171.712L119.098 165.717L120.616 164.93C120.616 164.93 120.862 167.357 121.138 170.383Z" fill="#263238"/>
<path d="M97.5693 156.258C94.3963 171.551 103.197 175.178 106.495 175.859C109.489 176.477 119.763 178.2 124.5 163.317C129.236 148.434 123.129 142.124 116.356 140.349C109.582 138.573 100.742 140.965 97.5693 156.258Z" fill="#AD6359"/>
<path d="M102.73 152.656C103.099 152.675 103.442 152.631 103.808 152.612C104.221 152.591 104.553 152.616 104.899 152.358C105.084 152.219 105.129 151.882 105.011 151.689C104.737 151.24 104.224 151.14 103.725 151.145C103.184 151.151 102.768 151.294 102.353 151.639C101.951 151.975 102.245 152.631 102.73 152.656Z" fill="#263238"/>
<path d="M113.245 154.997C112.891 154.894 112.581 154.74 112.241 154.601C111.858 154.445 111.536 154.361 111.294 154.003C111.164 153.811 111.233 153.478 111.408 153.334C111.814 153 112.332 153.074 112.801 153.243C113.31 153.426 113.656 153.698 113.934 154.161C114.204 154.61 113.712 155.133 113.245 154.997Z" fill="#263238"/>
<path d="M110.534 158.307C110.55 158.269 110.606 158.372 110.596 158.415C110.361 159.453 110.267 160.681 111.145 161.21C111.172 161.226 111.159 161.278 111.125 161.267C110.004 160.882 110.145 159.253 110.534 158.307Z" fill="#263238"/>
<path d="M111.676 157.396C113.38 157.593 112.861 160.986 111.283 160.804C109.729 160.625 110.248 157.232 111.676 157.396Z" fill="#263238"/>
<path d="M112.316 157.678C112.583 157.915 112.822 158.299 113.173 158.388C113.58 158.492 113.947 158.185 114.269 157.884C114.302 157.853 114.327 157.887 114.321 157.932C114.231 158.584 113.879 159.213 113.168 159.203C112.518 159.194 112.15 158.549 112.087 157.87C112.076 157.745 112.208 157.582 112.316 157.678Z" fill="#263238"/>
<path d="M104.111 156.838C104.108 156.797 104.021 156.876 104.016 156.919C103.897 157.976 103.582 159.167 102.58 159.379C102.549 159.385 102.544 159.439 102.58 159.439C103.766 159.443 104.167 157.858 104.111 156.838Z" fill="#263238"/>
<path d="M103.332 155.603C101.658 155.229 101.033 158.605 102.584 158.951C104.111 159.292 104.735 155.916 103.332 155.603Z" fill="#263238"/>
<path d="M102.584 155.694C102.284 155.824 101.961 156.1 101.639 156.062C101.265 156.018 101.06 155.602 100.889 155.209C100.871 155.168 100.84 155.192 100.83 155.236C100.693 155.878 100.781 156.589 101.378 156.828C101.922 157.046 102.441 156.569 102.714 155.955C102.764 155.84 102.705 155.642 102.584 155.694Z" fill="#263238"/>
<path d="M108.152 166.315C107.872 166.536 107.583 166.85 107.196 166.841C106.825 166.833 106.411 166.62 106.088 166.454C106.056 166.437 106.018 166.469 106.036 166.503C106.267 166.938 106.818 167.254 107.317 167.22C107.805 167.187 108.086 166.799 108.248 166.374C108.271 166.314 108.193 166.283 108.152 166.315Z" fill="#263238"/>
<path d="M104.386 161.799C104.386 161.799 103.911 163.33 103.789 164.07C103.778 164.139 103.951 164.202 104.2 164.258C104.211 164.264 104.217 164.27 104.229 164.264C105.501 164.683 106.889 164.449 107.858 163.514C107.921 163.45 107.84 163.359 107.765 163.394C106.672 163.949 105.565 163.956 104.404 163.784C104.386 163.571 105.305 161.188 105.189 161.16C104.791 161.059 103.949 161.202 103.448 161.263C104.345 158.044 105.75 154.996 106.595 151.777C106.623 151.662 106.461 151.599 106.41 151.698C104.711 154.789 103.597 158.47 102.586 161.771C102.456 162.18 104.069 161.876 104.386 161.799Z" fill="#263238"/>
<path d="M109.209 142.283C109.209 142.283 108.375 144.55 109.017 146.305C110.337 149.914 114.585 149.403 115.877 150.904C117.088 152.311 116.369 154.918 117.455 156.314C118.957 158.246 121.296 157.776 121.458 158.996C121.62 160.216 122.05 164.091 123.525 164.719C125 165.348 134.391 140.747 114.431 139.643C114.431 139.643 111.808 138.269 107.372 139.996C102.476 141.903 99.7109 149.39 99.7109 149.39C99.7109 149.39 99.82 149.295 100.558 148.76C101.599 148.006 102.044 147.258 102.799 146.777C103.986 146.021 104.561 146.405 105.79 145.676C107.663 144.566 109.209 142.283 109.209 142.283Z" fill="#263238"/>
<path d="M109.615 141.212C109.213 142.174 108.912 143.179 108.744 144.197C108.568 145.203 108.52 146.272 108.886 147.193C109.259 148.091 110.103 148.759 110.998 149.185C111.911 149.623 112.944 149.822 113.923 150.326C114.4 150.594 114.864 150.938 115.16 151.454C115.449 151.962 115.533 152.518 115.599 153.037C115.712 154.077 115.832 155.102 116.439 155.894C117.035 156.685 117.978 157.217 118.998 157.267C119.999 157.364 121.134 157.189 122.069 157.723C121.093 157.267 120.037 157.527 118.983 157.508C117.905 157.505 116.837 156.978 116.142 156.128C115.403 155.266 115.287 154.098 115.155 153.096C115.085 152.587 114.992 152.089 114.753 151.689C114.524 151.296 114.119 150.99 113.689 150.759C112.816 150.287 111.77 150.064 110.804 149.588C110.32 149.353 109.858 149.052 109.461 148.677C109.07 148.312 108.697 147.861 108.53 147.327C108.169 146.273 108.281 145.17 108.506 144.148C108.758 143.124 109.139 142.141 109.615 141.212Z" fill="#263238"/>
<path d="M109.151 142.081C108.869 143.012 108.451 143.897 107.926 144.73C107.409 145.563 106.659 146.312 105.722 146.731C105.253 146.946 104.735 147.03 104.296 147.134C103.876 147.24 103.421 147.454 103.153 147.751C102.86 148.093 102.572 148.532 102.176 148.842C101.78 149.151 101.318 149.359 100.844 149.457C101.283 149.252 101.698 149.008 102.013 148.662C102.352 148.335 102.564 147.932 102.857 147.511C103.201 147.051 103.682 146.854 104.172 146.688C104.666 146.551 105.111 146.483 105.52 146.284C106.354 145.905 107.037 145.262 107.599 144.501C108.177 143.749 108.671 142.922 109.151 142.081Z" fill="#263238"/>
<path d="M120.404 162.53C120.404 162.53 124.506 158.222 126.511 159.756C128.515 161.29 124.92 167.892 122.207 168.458C119.495 169.024 118.922 166.523 118.922 166.523L120.404 162.53Z" fill="#AD6359"/>
<path d="M125.434 161.622C125.476 161.625 125.475 161.684 125.437 161.693C123.526 162.149 122.325 163.674 121.398 165.304C122.035 164.719 122.819 164.465 123.615 165.238C123.657 165.279 123.601 165.345 123.552 165.327C122.838 165.057 122.287 165.104 121.699 165.619C121.283 165.984 120.961 166.476 120.635 166.92C120.526 167.068 120.249 166.938 120.338 166.762C120.345 166.749 120.352 166.736 120.359 166.723C120.663 164.42 122.935 161.479 125.434 161.622Z" fill="#263238"/>
<path d="M110.031 181.799L112.242 188.919L121.517 180.887L123.718 183.883C123.718 183.883 114.214 197.066 114.212 196.436L111.851 190.262L107.414 194.065L108.587 183.71L110.031 181.799Z" fill="#EBEBEB"/>
<path d="M107.708 188.915C107.959 187.212 108.164 185.49 108.494 183.8C108.506 183.74 108.603 183.721 108.612 183.793C108.821 185.474 107.827 191.982 107.707 193.552C107.713 193.547 107.721 193.541 107.726 193.535C107.912 193.37 111.823 190.204 111.854 190.262C112.394 191.255 114.129 195.753 114.24 196.158C115.743 194.063 121.472 186.47 123.209 184.515C123.259 184.459 123.348 184.516 123.307 184.583C121.948 186.813 114.353 197.048 114.252 197.009C114.177 197.058 112.017 191.517 111.789 190.485C111.113 191.189 107.132 194.797 107.141 194.541C107.196 192.817 107.457 190.62 107.708 188.915Z" fill="#263238"/>
<path d="M299.139 51.8213H169.75V181.21H299.139V51.8213Z" fill="#DBDBDB"/>
<path d="M224.922 29.0322V116.202H312.092V29.0322H224.922ZM307.362 111.472H229.652V33.7622H307.362V111.472Z" fill="#263238"/>
<path d="M212.535 128.703C213.094 128.739 215.711 128.919 219.537 129.191C220.988 126.812 222.759 122.565 222.362 116.42C222.29 115.403 224.417 121.326 223.093 129.442C230.486 129.958 240.542 130.654 249.331 131.179C249.658 127.753 250.116 124.592 250.116 124.592C250.304 127.081 250.732 129.338 251.242 131.301C252.444 131.382 253.622 131.439 254.752 131.504C254.738 126.161 256.072 116.914 256.072 116.914C256.573 123.412 258.401 128.666 259.75 131.775C265.333 132.05 269.011 132.129 268.787 131.853C260.782 121.782 267.222 116.486 265.211 107.847C262.796 97.4942 254.058 95.4682 254.67 87.8032C255.152 81.5662 256.448 70.2692 248.668 67.4862C248.668 67.4862 242.571 60.1632 232.315 63.5732C219.627 67.7792 223.682 87.2672 222.652 91.1462C221.186 96.6882 218.431 98.5392 216.151 104.83C213.826 111.197 216.572 115.62 216.706 120.016C216.822 124.405 211.134 128.626 212.535 128.703Z" fill="#263238"/>
<path d="M269.098 130.48C268.05 128.699 267.13 126.831 266.637 124.888C266.086 122.954 266.452 121.018 266.929 119.023C267.404 117.039 267.955 115.014 268.239 112.898C268.498 110.79 268.523 108.562 267.917 106.439C267.348 104.313 266.228 102.355 264.808 100.744C263.406 99.1091 261.773 97.7711 260.199 96.4511C258.641 95.1171 257.087 93.7991 255.95 92.1401C254.785 90.5061 254.122 88.5251 253.967 86.4541C253.79 88.5181 254.243 90.6831 255.31 92.5401C256.362 94.4081 257.878 95.9421 259.38 97.3641C260.883 98.7971 262.399 100.165 263.649 101.71C264.89 103.254 265.86 104.979 266.336 106.861C266.818 108.738 266.889 110.721 266.655 112.707C266.449 114.7 265.984 116.692 265.621 118.754C265.448 119.786 265.288 120.839 265.274 121.927C265.253 123.018 265.478 124.133 265.835 125.133C266.591 127.136 267.735 128.915 269.098 130.48Z" fill="#263238"/>
<path d="M224.939 70.4121C223.86 72.7351 223.382 75.2861 222.902 77.7881C222.469 80.3071 222.16 82.8411 221.878 85.3671L221.433 89.1361C221.282 90.3961 221.068 91.5741 220.697 92.7241C219.971 95.0351 218.569 97.0151 216.996 99.0221C216.232 100.042 215.455 101.104 214.807 102.265C214.158 103.422 213.624 104.656 213.248 105.932C212.909 107.225 212.664 108.495 212.522 109.803C212.374 111.108 212.383 112.451 212.557 113.758C212.724 115.07 213.036 116.319 213.287 117.539C213.543 118.757 213.686 120.001 213.704 121.23C213.779 123.669 212.384 126.036 210.344 127.537C212.585 126.342 214.297 123.956 214.494 121.263C214.59 119.953 214.515 118.651 214.345 117.365C214.182 116.08 213.918 114.845 213.835 113.626C213.64 111.208 214.061 108.714 214.748 106.382C215.129 105.231 215.602 104.119 216.212 103.069C216.814 102.014 217.55 101.025 218.32 100.021C219.077 99.0091 219.866 97.9701 220.551 96.8331C221.233 95.6981 221.817 94.4741 222.196 93.1901C222.569 91.9061 222.765 90.5691 222.876 89.3011C223.006 88.0221 223.087 86.7511 223.166 85.4821C223.336 82.9451 223.469 80.4141 223.707 77.8951C223.914 75.3701 224.217 72.8551 224.939 70.4121Z" fill="#263238"/>
<path d="M285.986 177.663C285.964 177.511 285.935 177.365 285.906 177.213C285.942 177.402 285.979 177.583 286 177.772C285.993 177.736 285.993 177.7 285.986 177.663Z" fill="#C76323"/>
<path d="M260.945 182.094C261.025 182.145 261.112 182.188 261.206 182.232L261.242 182.167L261.249 182.16C261.162 182.138 261.067 182.124 260.98 182.102C260.967 182.101 260.96 182.101 260.945 182.094Z" fill="#C76323"/>
<path d="M225.172 112.091C209.455 129.774 190.421 166.241 194.686 173.211C199.436 180.974 222.113 155.793 221.333 154.652C220.671 153.683 228.043 131.869 233.395 115.918C238.743 99.9824 229.059 107.718 225.172 112.091Z" fill="#D3766A"/>
<path d="M225.172 112.091C209.455 129.774 190.421 166.241 194.686 173.211C199.436 180.974 222.113 155.793 221.333 154.652C220.671 153.683 228.043 131.869 233.395 115.918C238.743 99.9824 229.059 107.718 225.172 112.091Z" fill="#455A64"/>
<path d="M227.285 134.219C225.753 138.873 224.344 143.237 223.276 146.725C220.846 146.833 213.742 146.441 206.359 139.347C208.577 135.411 210.981 131.459 213.458 127.682C215.316 129.638 219.82 133.45 227.285 134.219Z" fill="#EBEBEB"/>
<path d="M210.008 181.275L213.956 154.527C213.956 154.527 207.628 143.48 211.299 135.551C213.153 131.535 225.858 111.91 232.703 106.942C239.124 102.282 247.919 106.532 250.911 110.586C259.512 122.242 263.703 143.223 268.505 181.275H210.008Z" fill="#455A64"/>
<path d="M221.519 119.275C220.221 121.057 218.959 122.866 217.72 124.69C218.058 123.98 218.399 123.272 218.732 122.561C218.756 122.51 218.681 122.467 218.654 122.518C218.193 123.41 217.769 124.314 217.355 125.224C215.699 127.677 214.09 130.163 212.538 132.683C211.88 133.752 211.276 134.842 210.832 136.019C210.402 137.158 210.135 138.358 209.994 139.567C209.853 140.778 209.842 141.994 209.936 143.209C210.032 144.46 210.184 145.7 210.464 146.924C210.781 148.305 211.212 149.679 211.772 150.982C212.047 151.622 212.34 152.258 212.656 152.878C212.945 153.445 213.533 154.602 213.524 154.647C213.405 155.288 213.285 155.737 213.204 156.276C213.121 156.825 213.039 157.374 212.956 157.922C212.791 159.02 211.366 169.703 211.205 170.801C210.886 172.982 210.612 175.165 210.34 177.353C210.184 178.608 210.102 179.874 209.925 181.126C209.918 181.177 209.995 181.197 210.003 181.146C210.183 180.055 210.454 178.979 210.652 177.891C210.851 176.802 211.052 175.713 211.256 174.625C211.668 172.426 213.256 160.622 213.601 158.411C213.696 157.8 213.792 157.188 213.887 156.577C213.982 155.97 214.144 155.153 214.12 154.537C214.12 154.537 212.161 150.513 211.401 147.691C211.082 146.506 210.755 145.275 210.623 144.053C210.493 142.852 210.48 141.642 210.579 140.439C210.678 139.235 210.904 138.042 211.273 136.891C211.654 135.704 212.2 134.599 212.81 133.515C214.089 131.242 215.448 129.012 216.826 126.799C218.389 124.289 219.97 121.79 221.586 119.314C221.614 119.27 221.548 119.237 221.519 119.275Z" fill="#263238"/>
<path d="M194.684 173.211C198.697 178.358 208.917 178.848 234.534 182.495C238.079 183 248.371 158.942 244.613 158.208C239.88 157.284 221.312 154.724 219.93 154.708C208.278 154.576 191.962 169.719 194.684 173.211Z" fill="#D3766A"/>
<path d="M239.481 157.315C239.481 157.315 250.309 158.379 255.824 160.7C263.21 163.807 268.307 169.53 270.298 172.057C274.455 177.332 280.858 192.961 276.678 195.591C272.895 197.971 267.157 181.665 267.157 181.665C267.157 181.665 275.751 197.325 270.668 199.354C265.585 201.382 260.001 182.075 260.001 182.075C260.001 182.075 268.47 198.363 262.898 199.626C258.687 200.58 252.644 183.378 252.644 183.378C252.644 183.378 259.826 197.428 255.538 198.596C250.799 199.887 244.225 184.358 244.225 184.358C232.825 185.492 226.933 181.368 223.091 177.936C222.162 177.103 239.481 157.315 239.481 157.315Z" fill="#D3766A"/>
<path d="M264.531 176.059C265.607 177.862 266.708 179.68 267.62 181.572C268.532 183.465 269.379 185.39 270.111 187.359C271.906 192.188 272.275 195.493 272.229 195.291C271.165 190.522 268.004 183.697 267.092 181.804C266.182 179.915 265.366 177.981 264.457 176.091C264.435 176.043 264.506 176.016 264.531 176.059Z" fill="#263238"/>
<path d="M257.633 179.227C258.907 181.589 260.259 183.886 261.43 186.306C262.594 188.713 263.489 191.098 264.485 193.579C264.562 193.77 264.434 193.749 264.349 193.56C263.255 191.121 262.055 188.951 260.932 186.525C259.813 184.108 258.78 181.628 257.574 179.254C257.556 179.216 257.614 179.191 257.633 179.227Z" fill="#263238"/>
<path d="M251.231 180.884C253.363 184.394 254.846 188.292 256.208 192.151C256.276 192.343 256.114 192.297 256.033 192.105C254.449 188.328 253.233 185.354 251.108 180.958C251.075 180.89 251.186 180.81 251.231 180.884Z" fill="#263238"/>
<path d="M247.664 157.503L226.574 182.32C226.574 182.32 197.766 180.316 194.449 172.727C191.132 165.138 213.066 154.076 219.897 154.671C226.728 155.266 247.664 157.503 247.664 157.503Z" fill="#455A64"/>
<path d="M208.799 157.957C210.455 156.826 215.157 154.139 219.896 154.67C219.949 154.676 219.951 154.751 219.897 154.753C216.012 154.872 210.534 157.059 208.84 158.024C208.796 158.05 208.758 157.986 208.799 157.957Z" fill="#263238"/>
<path d="M222.114 178.03C230.403 169.251 237.783 158.766 239.199 157.03C239.266 156.948 239.126 156.849 239.063 156.936C237.763 158.711 228.029 169.778 221.965 177.926C221.894 178.021 222.034 178.115 222.114 178.03Z" fill="#263238"/>
<path d="M200.236 123.851L190.891 169.633L226.06 176.812L235.405 131.029L200.236 123.851Z" fill="#C76323"/>
<path d="M226.806 126.831L210.141 123.41L209.104 128.46L225.769 131.881L226.806 126.831Z" fill="#EBEBEB"/>
<path d="M222.997 126.058L220.945 125.636L221.423 123.308L216.437 122.284L215.959 124.613L213.906 124.191L214.778 119.949L223.897 121.822L222.997 126.058Z" fill="#EBEBEB"/>
<path d="M255.12 116.128C272.059 137.683 278.449 176.405 269.048 179.423C260.457 182.181 225.124 173.34 214.6 169.764C211.509 168.714 221.056 144.679 224.363 145.798C228.359 147.15 250.212 152.328 250.636 152.338C251.543 152.359 246.688 128.519 244.604 117.717C241.7 102.667 248.759 108.034 255.12 116.128Z" fill="#D3766A"/>
<path d="M196.117 136.768C194.328 138.797 195.776 141.195 195.776 141.195C195.776 141.195 193.689 141.752 192.626 143.534C191.409 145.575 194.075 148.379 194.075 148.379C194.075 148.379 192.08 149.38 191.146 151.376C190.177 153.447 192.464 156.66 192.464 156.66C192.464 156.66 191.118 158.614 191.548 160.917C192.284 164.855 197.98 167.09 201.586 168.548C205.192 170.006 216.787 170.762 218.982 171.13L228.536 148.064C228.536 148.064 214.224 136.927 209.74 135.815C205.965 134.879 198.125 134.49 196.117 136.768Z" fill="#D3766A"/>
<path d="M196.092 140.891C200.347 140.923 204.36 142.212 208.439 143.27C208.53 143.294 208.492 143.436 208.401 143.411C204.356 142.311 200.146 142.028 196.066 141.092C195.953 141.066 195.977 140.89 196.092 140.891Z" fill="#263238"/>
<path d="M194.275 148.109C195.237 148.145 196.185 148.499 197.096 148.784C198.077 149.092 199.052 149.417 200.022 149.756C201.965 150.436 203.892 151.16 205.796 151.941C205.88 151.975 205.848 152.113 205.758 152.082C203.821 151.408 201.874 150.763 199.91 150.17C198.927 149.874 197.942 149.586 196.955 149.304C196.037 149.042 195.046 148.842 194.203 148.381C194.078 148.312 194.13 148.103 194.275 148.109Z" fill="#263238"/>
<path d="M192.551 156.687C193.388 156.685 194.284 157.141 195.058 157.43C195.937 157.758 196.817 158.082 197.699 158.4C199.463 159.037 201.227 159.673 203.012 160.248C203.101 160.277 203.064 160.417 202.974 160.389C201.157 159.814 199.333 159.264 197.521 158.673C196.631 158.383 195.743 158.088 194.857 157.788C194.103 157.533 193.133 157.3 192.515 156.775C192.481 156.745 192.509 156.687 192.551 156.687Z" fill="#263238"/>
<path d="M250.322 151.362C250.596 151.198 245.52 128.189 243.817 116.182C242.115 104.175 247.477 105.329 255.194 115.593C263.46 126.588 278.177 156.351 273.078 178.391C271.427 185.528 220.297 175.53 220.297 175.53L227.187 146.143C227.187 146.143 249.899 151.615 250.322 151.362Z" fill="#455A64"/>
<path d="M271.15 149.181C262.81 151.628 253.769 150.385 250.078 149.691C249.544 146.803 248.249 140.544 246.93 133.78C255.691 134.75 261.638 133.5 264.886 132.412C267.26 137.542 269.484 143.264 271.15 149.181Z" fill="#EBEBEB"/>
<path d="M226.99 172.508C230.099 162.276 231.815 151.051 232.253 149.116C232.274 149.025 232.124 149.001 232.108 149.095C231.777 151.016 228.425 163.632 226.83 172.485C226.811 172.588 226.959 172.607 226.99 172.508Z" fill="#263238"/>
<path d="M259.931 154.762C258.945 154.592 232.841 147.242 227.133 146.356C227.043 146.342 227.123 146.042 227.218 146.059C244.758 149.153 259.168 153.843 260.273 154.283C261.582 154.805 261.769 155.078 259.931 154.762Z" fill="#263238"/>
<path d="M250.065 151.597C250.084 151.546 248.344 142.737 248.036 142.187C247.72 141.617 247.036 140.351 246.756 139.761C246.191 138.57 245.701 137.353 245.18 136.147C245.136 136.047 245.287 135.97 245.331 136.07C245.893 137.236 246.555 138.355 247.224 139.459C247.557 140.002 247.889 140.549 248.222 141.087C248.247 141.123 246.616 132.478 246.387 130.96C246.369 130.848 246.491 130.817 246.525 130.911C247.015 132.439 250.437 149.756 250.905 151.675C250.905 151.675 250.582 151.669 250.065 151.597Z" fill="#263238"/>
<path d="M230.823 177.356C229.12 176.885 222.288 175.78 220.626 175.541C220.789 174.939 221.274 172.494 221.23 171.805C221.226 171.74 221.128 171.701 221.088 171.76C220.7 172.329 220.034 175.336 219.836 176.046C219.798 176.181 229.039 177.341 230.809 177.435C230.859 177.438 230.874 177.37 230.823 177.356Z" fill="#263238"/>
<path d="M228.539 109.081C228.539 109.081 229.225 115.843 234.83 116.896C240.435 117.949 250.91 110.586 250.91 110.586C250.91 110.586 246.703 104.925 239.103 104.907C231.793 104.888 228.539 109.081 228.539 109.081Z" fill="#D3766A"/>
<path d="M244.633 107.192C244.333 108.208 239.038 114.609 234.345 114.12C232.817 113.958 233.329 105.578 233.329 105.578L233.225 104.951L231.781 96.1695L242.339 90.2166L243.86 89.4355C243.86 89.4355 244.097 91.8635 244.361 94.8905C244.374 95.0315 244.387 95.1715 244.399 95.3215C244.419 95.4925 244.439 95.6535 244.45 95.8135C244.495 96.2655 244.54 96.7265 244.574 97.1875C244.602 97.5375 244.631 97.8785 244.646 98.2475C244.671 98.6175 244.688 98.9765 244.713 99.3465C244.884 102.996 244.754 106.76 244.633 107.192Z" fill="#D3766A"/>
<path d="M244.362 94.8896C241.484 101.649 235.811 104.147 233.225 104.95L231.781 96.1686L242.339 90.2156L243.86 89.4346C243.862 89.4346 244.098 91.8626 244.362 94.8896Z" fill="#263238"/>
<path d="M221.633 79.7775C217.524 94.8455 226.085 99.0085 229.335 99.8905C232.286 100.691 242.434 103.044 248.078 88.4815C253.722 73.9185 248.015 67.2445 241.364 65.0555C234.713 62.8665 225.743 64.7095 221.633 79.7775Z" fill="#D3766A"/>
<path d="M227.055 76.8306C227.421 76.8746 227.767 76.8546 228.133 76.8606C228.547 76.8676 228.876 76.9156 229.239 76.6816C229.434 76.5556 229.501 76.2226 229.397 76.0216C229.154 75.5546 228.649 75.4196 228.152 75.3906C227.612 75.3596 227.187 75.4736 226.749 75.7896C226.325 76.0976 226.572 76.7716 227.055 76.8306Z" fill="#263238"/>
<path d="M237.795 78.3344C237.446 78.2134 237.145 78.0434 236.813 77.8874C236.438 77.7114 236.122 77.6104 235.899 77.2404C235.779 77.0424 235.866 76.7124 236.047 76.5784C236.47 76.2654 236.983 76.3664 237.443 76.5594C237.942 76.7694 238.273 77.0584 238.527 77.5344C238.773 77.9964 238.254 78.4934 237.795 78.3344Z" fill="#263238"/>
<path d="M234.352 83.1522C234.37 83.1152 234.421 83.2212 234.409 83.2632C234.121 84.2872 233.963 85.5092 234.813 86.0822C234.839 86.1002 234.823 86.1512 234.79 86.1382C233.69 85.6952 233.915 84.0762 234.352 83.1522Z" fill="#263238"/>
<path d="M235.537 82.3011C237.229 82.5861 236.535 85.9481 234.968 85.6841C233.426 85.4251 234.12 82.0631 235.537 82.3011Z" fill="#263238"/>
<path d="M236.161 82.6154C236.415 82.8664 236.634 83.2614 236.98 83.3694C237.381 83.4944 237.764 83.2064 238.101 82.9234C238.136 82.8944 238.159 82.9294 238.15 82.9734C238.027 83.6194 237.642 84.2294 236.932 84.1834C236.284 84.1414 235.949 83.4774 235.922 82.7964C235.918 82.6704 236.059 82.5144 236.161 82.6154Z" fill="#263238"/>
<path d="M228.151 81.0971C228.152 81.0561 228.059 81.1281 228.051 81.1721C227.86 82.2181 227.464 83.3851 226.449 83.5271C226.418 83.5311 226.409 83.5841 226.445 83.5871C227.628 83.6721 228.137 82.1191 228.151 81.0971Z" fill="#263238"/>
<path d="M227.458 79.8115C225.814 79.3235 224.958 82.6485 226.482 83.1005C227.981 83.5445 228.837 80.2195 227.458 79.8115Z" fill="#263238"/>
<path d="M226.706 79.8513C226.398 79.9603 226.056 80.2133 225.737 80.1533C225.367 80.0833 225.191 79.6553 225.047 79.2503C225.032 79.2083 224.999 79.2293 224.986 79.2733C224.805 79.9043 224.845 80.6203 225.424 80.8993C225.952 81.1543 226.501 80.7133 226.815 80.1193C226.873 80.0093 226.829 79.8073 226.706 79.8513Z" fill="#263238"/>
<path d="M231.689 91.0284C231.399 91.2344 231.093 91.5324 230.707 91.5044C230.337 91.4764 229.935 91.2434 229.62 91.0604C229.589 91.0424 229.55 91.0724 229.566 91.1074C229.774 91.5544 230.308 91.8974 230.808 91.8904C231.297 91.8834 231.597 91.5104 231.782 91.0934C231.809 91.0344 231.732 90.9984 231.689 91.0284Z" fill="#263238"/>
<path d="M228.165 86.3239C228.165 86.3239 227.612 87.8289 227.451 88.5609C227.436 88.6289 227.606 88.7009 227.852 88.7689C227.863 88.7749 227.869 88.7809 227.881 88.7759C229.129 89.2599 230.528 89.0989 231.544 88.2149C231.61 88.1539 231.534 88.0589 231.457 88.0899C230.337 88.5869 229.231 88.5369 228.081 88.3059C228.074 88.0919 229.115 85.7609 229.001 85.7259C228.608 85.6039 227.761 85.7039 227.257 85.7389C228.319 82.5709 229.881 79.5989 230.891 76.4289C230.925 76.3149 230.767 76.2439 230.71 76.3399C228.853 79.3389 227.551 82.9579 226.369 86.2009C226.218 86.6049 227.845 86.3849 228.165 86.3239Z" fill="#263238"/>
<path d="M228.148 88.5377C228.148 88.5377 228.589 89.6527 229.443 90.2407C229.758 90.4587 230.119 90.6077 230.539 90.6077C231.402 90.6117 231.62 89.8767 231.641 89.2037C231.66 88.6507 231.539 88.1377 231.539 88.1377C231.539 88.1377 230.068 88.9257 228.148 88.5377Z" fill="#263238"/>
<path d="M229.445 90.2412C229.76 90.4592 230.121 90.6082 230.541 90.6082C231.404 90.6122 231.622 89.8772 231.643 89.2042C230.755 89.0622 229.743 89.4202 229.445 90.2412Z" fill="#FF9CBD"/>
<path d="M247.235 88.2283C245.628 87.6623 242.662 81.9453 244.795 74.0133C244.795 74.0133 243.372 81.2673 243.607 82.4593C243.842 83.6503 241.953 79.2463 243.584 72.8263C243.584 72.8263 239.329 74.3603 236.081 74.3403C232.833 74.3213 231.002 73.7653 230.85 73.4863C230.698 73.2073 235.521 73.0823 237.112 72.0463C237.112 72.0463 228.05 73.4713 224.283 72.6953C223.847 72.6053 225.853 63.6913 232.618 61.6043C239.383 59.5173 247.258 66.1243 249.013 69.1643C249.013 69.1643 251.747 70.3873 253.636 75.4913C255.525 80.5933 248.965 88.8373 247.235 88.2283Z" fill="#263238"/>
<path d="M244.903 88.5596C244.903 88.5596 249.128 84.3716 251.087 85.9636C253.046 87.5546 249.261 94.0496 246.533 94.5366C243.805 95.0236 243.305 92.5076 243.305 92.5076L244.903 88.5596Z" fill="#D3766A"/>
<path d="M249.957 87.7986C249.999 87.8026 249.996 87.8616 249.958 87.8696C248.034 88.2696 246.79 89.7596 245.816 91.3626C246.469 90.7966 247.261 90.5646 248.034 91.3606C248.075 91.4026 248.016 91.4676 247.968 91.4476C247.263 91.1576 246.71 91.1886 246.108 91.6856C245.681 92.0376 245.346 92.5206 245.007 92.9556C244.894 93.1006 244.62 92.9626 244.715 92.7886C244.722 92.7756 244.73 92.7626 244.737 92.7496C245.107 90.4576 247.463 87.5826 249.957 87.7986Z" fill="#263238"/>
<path d="M260.984 182.101C261.071 182.123 261.158 182.145 261.246 182.166L261.253 182.159C261.165 182.137 261.071 182.123 260.984 182.101Z" fill="#D3766A"/>
<path d="M285.906 177.213C285.942 177.402 285.979 177.583 286 177.772C285.993 177.736 285.993 177.699 285.986 177.663C285.964 177.511 285.935 177.366 285.906 177.213Z" fill="#C76323"/>
<path d="M285.906 177.213C285.942 177.402 285.979 177.583 286 177.772C285.993 177.736 285.993 177.699 285.986 177.663C285.964 177.511 285.935 177.366 285.906 177.213Z" fill="#C76323"/>
<path d="M259.797 184.816V184.823C260.073 184.888 260.342 184.954 260.61 185.012C260.341 184.947 260.065 184.882 259.797 184.816Z" fill="#C76323"/>
<path d="M285.906 177.213C285.942 177.402 285.979 177.583 286 177.772C285.993 177.736 285.993 177.699 285.986 177.663C285.964 177.511 285.935 177.366 285.906 177.213Z" fill="#DBDBDB"/>
<path d="M0 10.0684V49.4914H39.429V10.0684H0ZM2.97702 46.5144V13.0454H36.446V46.5144H2.97702Z" fill="#EBEBEB"/>
<path d="M161.788 0H28.0234V123.188H161.788V0Z" fill="#37474F"/>
<path d="M118.797 61.0923C135.095 77.6133 155.599 112.365 151.777 119.41C147.52 127.257 124.824 104.098 124.911 102.745C124.977 101.723 116.993 80.6143 110.936 65.2603C104.886 49.9223 114.767 57.0063 118.797 61.0923Z" fill="#F7A9A0"/>
<path d="M124.762 102.77C124.069 100.513 113.205 72.6772 110.099 63.8752C106.993 55.0732 109.872 52.3482 118.743 60.4112C127.614 68.4732 147.052 95.4072 151.488 109.702C155.762 123.472 148.673 123.472 139.318 117.125C131.659 111.928 124.762 102.77 124.762 102.77Z" fill="#C76323"/>
<path opacity="0.1" d="M117.205 61.3232C117.119 61.9622 116.901 62.5412 116.652 63.1062C116.387 63.6632 116.09 64.2062 115.661 64.6872C115.746 64.0472 115.964 63.4692 116.213 62.9042C116.48 62.3472 116.777 61.8052 117.205 61.3232ZM144.079 99.5992C143.83 100.163 143.612 100.742 143.527 101.382C143.956 100.9 144.253 100.358 144.518 99.8012C144.766 99.2362 144.984 98.6572 145.07 98.0182C144.642 98.5002 144.345 99.0432 144.079 99.5992ZM134.471 84.9752C134.221 85.5392 134.004 86.1182 133.919 86.7582C134.348 86.2762 134.645 85.7342 134.91 85.1772C135.158 84.6122 135.376 84.0332 135.462 83.3942C135.034 83.8762 134.737 84.4182 134.471 84.9752ZM124.491 81.3042C123.927 81.0552 123.348 80.8372 122.708 80.7522C123.19 81.1812 123.732 81.4782 124.289 81.7432C124.854 81.9912 125.433 82.2092 126.072 82.2952C125.59 81.8672 125.047 81.5702 124.491 81.3042ZM133.487 96.0912C132.923 95.8422 132.344 95.6242 131.704 95.5392C132.186 95.9682 132.728 96.2652 133.286 96.5302C133.85 96.7782 134.429 96.9962 135.069 97.0832C134.586 96.6542 134.044 96.3582 133.487 96.0912ZM126.173 70.7632C125.609 70.5142 125.03 70.2962 124.39 70.2112C124.872 70.6402 125.414 70.9372 125.971 71.2022C126.536 71.4502 127.115 71.6682 127.754 71.7542C127.272 71.3262 126.729 71.0292 126.173 70.7632ZM120.593 90.5072C120.816 91.0822 121.071 91.6462 121.463 92.1582C121.426 91.5142 121.252 90.9202 121.046 90.3392C120.822 89.7642 120.567 89.2012 120.176 88.6882C120.214 89.3322 120.388 89.9252 120.593 90.5072ZM139.418 108.13C139.641 108.705 139.896 109.269 140.288 109.781C140.251 109.137 140.077 108.543 139.871 107.962C139.647 107.387 139.392 106.824 139.001 106.311C139.039 106.955 139.213 107.548 139.418 108.13ZM126.743 105.165C126.728 105.17 126.718 105.175 126.703 105.18C126.808 105.306 126.914 105.436 127.029 105.571C127.566 105.36 128.087 105.114 128.564 104.748C127.922 104.784 127.325 104.96 126.743 105.165ZM149.05 115.68C149.625 115.457 150.189 115.202 150.701 114.81C150.057 114.847 149.463 115.021 148.882 115.227C148.307 115.451 147.744 115.706 147.231 116.097C147.875 116.059 148.469 115.886 149.05 115.68ZM115.577 74.8932C115.171 75.0492 114.774 75.2192 114.398 75.4452C114.428 75.5252 114.458 75.6102 114.488 75.6912C114.919 75.6212 115.336 75.4902 115.742 75.3452C116.319 75.1242 116.881 74.8682 117.397 74.4772C116.751 74.5122 116.159 74.6882 115.577 74.8932Z" fill="black"/>
<path d="M122.818 123.222H60.8516C60.8516 123.222 70.7016 74.6217 94.4656 53.5847C97.4026 50.9847 104.028 51.5757 108.351 53.7237C109.895 54.4907 115.435 62.2417 117.016 69.5707C118.585 76.8907 122.991 123.003 122.818 123.222Z" fill="#C76323"/>
<path d="M117.555 72.6021C118.041 74.2381 118.442 75.9361 118.772 77.6411C118.774 77.5751 118.779 77.5091 118.781 77.4431C118.806 76.4851 118.815 75.5081 118.916 74.5561C118.921 74.5061 119.001 74.4911 119.009 74.5481C119.147 75.4971 119.141 76.5001 119.089 77.4571C119.064 77.9141 119.035 78.3721 118.996 78.8291C119.126 79.5951 119.244 80.3601 119.339 81.1201C119.521 82.5671 120.006 87.9501 120.048 89.0201C120.057 89.2451 119.798 89.2811 119.736 89.0481C119.444 87.9661 118.671 82.4141 118.425 80.9851C117.952 78.2411 117.617 75.3911 117.445 72.6111C117.44 72.5471 117.538 72.5461 117.555 72.6021Z" fill="#263238"/>
<path opacity="0.1" d="M98.3494 66.2718C98.2634 66.9108 98.0454 67.4898 97.7964 68.0548C97.5314 68.6118 97.2344 69.1548 96.8054 69.6358C96.8904 68.9958 97.1084 68.4168 97.3574 67.8528C97.6244 67.2968 97.9214 66.7548 98.3494 66.2718ZM89.9524 90.9508C89.7024 91.5148 89.4854 92.0938 89.4004 92.7338C89.8294 92.2518 90.1264 91.7098 90.3914 91.1528C90.6404 90.5878 90.8574 90.0088 90.9444 89.3698C90.5154 89.8518 90.2184 90.3938 89.9524 90.9508ZM69.8234 99.7858C69.5744 100.35 69.3564 100.929 69.2714 101.569C69.7004 101.087 69.9974 100.545 70.2624 99.9868C70.5104 99.4218 70.7284 98.8428 70.8144 98.2038C70.3864 98.6868 70.0894 99.2288 69.8234 99.7858ZM84.6204 115.607C84.3714 116.171 84.1534 116.75 84.0684 117.39C84.4974 116.908 84.7944 116.366 85.0594 115.809C85.3084 115.244 85.5254 114.665 85.6114 114.026C85.1834 114.508 84.8864 115.05 84.6204 115.607ZM110.454 85.0358C110.204 85.5998 109.987 86.1788 109.902 86.8188C110.331 86.3368 110.628 85.7948 110.893 85.2378C111.141 84.6728 111.359 84.0938 111.445 83.4548C111.017 83.9368 110.72 84.4788 110.454 85.0358ZM118.593 101.826C118.344 102.39 118.126 102.969 118.041 103.609C118.47 103.127 118.767 102.585 119.032 102.028C119.281 101.463 119.498 100.884 119.584 100.245C119.156 100.727 118.859 101.27 118.593 101.826ZM98.8964 113.925C98.6474 114.489 98.4294 115.068 98.3444 115.708C98.7734 115.226 99.0704 114.684 99.3354 114.127C99.5834 113.562 99.8014 112.984 99.8874 112.344C99.4594 112.826 99.1634 113.369 98.8964 113.925ZM80.0184 81.1938C79.7694 81.7578 79.5514 82.3368 79.4664 82.9768C79.8954 82.4948 80.1924 81.9528 80.4574 81.3958C80.7054 80.8308 80.9234 80.2518 81.0094 79.6128C80.5814 80.0948 80.2844 80.6368 80.0184 81.1938ZM103.445 75.6708C102.881 75.4208 102.302 75.2038 101.662 75.1188C102.144 75.5478 102.686 75.8448 103.244 76.1098C103.809 76.3578 104.388 76.5758 105.027 76.6618C104.544 76.2338 104.001 75.9378 103.445 75.6708ZM107.353 95.6098C106.789 95.3598 106.21 95.1428 105.57 95.0578C106.052 95.4868 106.594 95.7838 107.151 96.0488C107.716 96.2968 108.295 96.5148 108.934 96.6008C108.452 96.1728 107.909 95.8758 107.353 95.6098ZM70.9154 116.738C70.3514 116.489 69.7724 116.271 69.1324 116.186C69.6144 116.615 70.1564 116.912 70.7144 117.177C71.2794 117.426 71.8574 117.643 72.4974 117.729C72.0144 117.301 71.4724 117.004 70.9154 116.738ZM107.994 120.777C107.43 120.527 106.847 120.305 106.209 120.222C106.69 120.648 107.236 120.943 107.79 121.212C107.92 121.267 108.04 121.323 108.169 121.379C108.502 121.397 108.826 121.425 109.159 121.444C108.789 121.175 108.391 120.962 107.994 120.777ZM84.8454 100.595C84.2814 100.346 83.7024 100.128 83.0624 100.043C83.5444 100.472 84.0864 100.769 84.6444 101.034C85.2094 101.282 85.7884 101.5 86.4274 101.586C85.9444 101.158 85.4024 100.862 84.8454 100.595ZM103.445 58.0188C102.881 57.7698 102.302 57.5518 101.662 57.4668C102.144 57.8958 102.686 58.1928 103.243 58.4578C103.808 58.7058 104.387 58.9238 105.026 59.0098C104.544 58.5818 104.001 58.2848 103.445 58.0188ZM107.457 67.2678C107.68 67.8428 107.935 68.4068 108.327 68.9188C108.29 68.2748 108.116 67.6808 107.91 67.0998C107.686 66.5248 107.431 65.9618 107.04 65.4488C107.078 66.0928 107.252 66.6858 107.457 67.2678ZM117.299 113.39C117.522 113.966 117.777 114.529 118.169 115.041C118.132 114.397 117.958 113.803 117.752 113.222C117.528 112.647 117.273 112.084 116.882 111.571C116.92 112.215 117.093 112.808 117.299 113.39ZM90.7174 78.8618C90.9404 79.4368 91.1954 80.0008 91.5874 80.5128C91.5504 79.8688 91.3764 79.2748 91.1704 78.6938C90.9464 78.1188 90.6914 77.5558 90.3004 77.0428C90.3384 77.6858 90.5124 78.2798 90.7174 78.8618ZM98.3704 99.1638C98.5934 99.7388 98.8484 100.303 99.2404 100.815C99.2034 100.171 99.0294 99.5768 98.8224 98.9958C98.5994 98.4208 98.3434 97.8578 97.9524 97.3448C97.9914 97.9878 98.1654 98.5818 98.3704 99.1638ZM62.8594 122.967C62.8644 123.052 62.8694 123.138 62.8794 123.223H63.0394C62.9854 123.138 62.9254 123.052 62.8594 122.967ZM80.3054 122.887C80.0794 122.31 79.8234 121.748 79.4324 121.232C79.4724 121.879 79.6434 122.471 79.8484 123.053C79.8684 123.108 79.8934 123.168 79.9134 123.224H80.4154C80.3814 123.113 80.3454 122.997 80.3054 122.887ZM76.7424 108.578C76.9654 109.153 77.2204 109.717 77.6124 110.229C77.5754 109.585 77.4014 108.991 77.1944 108.41C76.9704 107.835 76.7154 107.272 76.3244 106.759C76.3634 107.403 76.5364 107.996 76.7424 108.578ZM91.7484 60.8038C91.9714 61.3788 92.2264 61.9428 92.6184 62.4548C92.5814 61.8108 92.4074 61.2168 92.2014 60.6358C91.9774 60.0608 91.7224 59.4978 91.3314 58.9848C91.3694 59.6288 91.5434 60.2218 91.7484 60.8038ZM108.332 107.629C108.907 107.406 109.471 107.151 109.983 106.759C109.339 106.796 108.745 106.97 108.164 107.176C107.589 107.4 107.026 107.655 106.513 108.046C107.156 108.008 107.75 107.835 108.332 107.629ZM92.1104 122.552C92.6864 122.329 93.2494 122.074 93.7614 121.682C93.1174 121.719 92.5234 121.893 91.9424 122.099C91.3674 122.323 90.8044 122.578 90.2914 122.969C90.9354 122.931 91.5294 122.757 92.1104 122.552ZM64.5204 109.038C64.4804 109.179 64.4354 109.324 64.3954 109.459C64.6864 109.313 64.9724 109.148 65.2384 108.942C64.9914 108.957 64.7564 108.988 64.5204 109.038ZM78.6664 91.8508C79.2414 91.6278 79.8054 91.3728 80.3174 90.9808C79.6734 91.0178 79.0794 91.1918 78.4984 91.3988C77.9234 91.6228 77.3604 91.8778 76.8474 92.2688C77.4904 92.2308 78.0844 92.0568 78.6664 91.8508ZM91.6714 108.273C92.2464 108.05 92.8104 107.795 93.3224 107.403C92.6784 107.44 92.0844 107.614 91.5034 107.82C90.9284 108.044 90.3654 108.299 89.8524 108.69C90.4964 108.652 91.0894 108.478 91.6714 108.273ZM99.3964 84.7188C99.9714 84.4958 100.535 84.2408 101.047 83.8488C100.403 83.8858 99.8094 84.0598 99.2284 84.2658C98.6534 84.4898 98.0904 84.7448 97.5774 85.1358C98.2214 85.0978 98.8144 84.9248 99.3964 84.7188ZM115.746 75.3448C116.321 75.1218 116.885 74.8668 117.397 74.4748C116.753 74.5118 116.159 74.6858 115.578 74.8918C115.003 75.1158 114.44 75.3708 113.927 75.7618C114.571 75.7238 115.165 75.5508 115.746 75.3448ZM86.5104 69.8628C87.0854 69.6398 87.6494 69.3848 88.1614 68.9928C87.5174 69.0298 86.9234 69.2038 86.3424 69.4098C85.7674 69.6338 85.2044 69.8888 84.6914 70.2798C85.3354 70.2418 85.9294 70.0678 86.5104 69.8628Z" fill="black"/>
<path d="M40.8069 34.483C40.6759 31.506 41.2779 17.813 42.2979 14.039C43.3179 10.266 47.0398 -0.379967 50.0088 0.108033C52.9778 0.596033 52.1378 3.80003 52.1378 3.80003C52.1378 3.80003 54.4218 -0.445967 57.3648 0.317033C60.3088 1.08003 58.8378 6.02104 58.8378 6.02104C58.8378 6.02104 61.5008 1.83103 64.3828 2.80203C67.2648 3.77303 64.9528 8.49403 64.9528 8.49403C64.9528 8.49403 67.2089 4.55004 69.2469 6.34904C71.6979 8.51304 66.7168 15.315 65.9028 19.565C65.7178 20.53 63.5508 39.394 63.5508 39.394L40.8069 34.483Z" fill="#F7A9A0"/>
<path d="M65.1431 8.08626C61.4921 13.0973 60.7611 15.9213 60.3541 22.0103C60.3461 22.1293 60.1671 22.1443 60.1641 22.0193C60.0191 16.0193 60.4251 12.3453 64.9091 7.89626C65.1281 7.67926 65.3161 7.84726 65.1431 8.08626Z" fill="#263238"/>
<path d="M59.1272 5.62737C55.7892 11.1624 54.9702 14.2184 54.0752 20.5654C54.0622 20.6554 53.9092 20.6434 53.9142 20.5514C54.2712 14.2514 54.7602 10.5954 58.8222 5.50237C59.0052 5.27237 59.2802 5.37437 59.1272 5.62737Z" fill="#263238"/>
<path d="M52.0985 4.12385C49.2535 9.71685 48.2105 13.0278 48.1325 19.3018C48.1305 19.4498 47.9145 19.4608 47.9025 19.3128C47.3595 12.9088 48.6305 8.76585 51.9195 4.05585C52.1435 3.73485 52.2775 3.77185 52.0985 4.12385Z" fill="#263238"/>
<path d="M63.3652 43.2891C63.3652 43.2891 69.0221 37.9651 70.9921 35.0771C72.9611 32.1901 76.3392 18.7291 73.4742 17.8341C69.7742 16.6791 66.2931 24.0651 65.0611 27.9061C65.0611 27.9061 56.5041 25.2261 52.8581 29.9861C49.2121 34.7471 63.3652 43.2891 63.3652 43.2891Z" fill="#F7A9A0"/>
<path d="M72.3553 17.8499C68.2213 19.2309 66.9283 24.3769 65.4553 28.0129C65.3433 28.2889 65.0813 28.2959 64.8863 28.1689C61.2253 27.2849 55.8023 27.1039 52.8283 29.7429C52.7413 29.8199 52.6193 29.7069 52.6963 29.6179C55.5023 26.3549 60.8443 26.0979 64.7923 27.3229C66.2453 23.5699 67.7683 18.4659 72.3433 17.8099C72.3703 17.8059 72.3823 17.8409 72.3553 17.8499Z" fill="#263238"/>
<path d="M97.8845 60.8311C94.1655 67.2691 72.6615 87.1181 53.9165 90.5571C51.3725 91.0241 41.6885 88.9771 39.6625 82.5521C36.0545 71.1101 38.9405 47.4881 40.7845 33.2771C41.1445 30.5011 66.9245 36.2031 66.2555 40.4451C65.5155 45.1411 62.7545 62.3931 63.1785 62.5891C64.7225 63.3011 81.1995 56.1871 92.0165 53.8551C99.6835 52.2021 100.749 55.8721 97.8845 60.8311Z" fill="#F7A9A0"/>
<path d="M37.1487 40.3057L66.5237 46.6657C66.5237 46.6657 63.8527 61.6757 64.3787 61.5887C64.9047 61.5017 85.5117 53.9857 93.4607 53.1977C101.41 52.4087 101.41 55.9017 97.3767 62.4617C93.3437 69.0217 66.9457 90.9877 53.9377 90.9817C47.3167 90.9787 41.1537 86.7377 39.9547 84.7137C36.2227 78.4167 37.1487 40.3057 37.1487 40.3057Z" fill="#455A64"/>
<path d="M37.1487 40.3057L66.5237 46.6657C66.5237 46.6657 63.8527 61.6757 64.3787 61.5887C64.9047 61.5017 85.5117 53.9857 93.4607 53.1977C101.41 52.4087 101.41 55.9017 97.3767 62.4617C93.3437 69.0217 66.9457 90.9877 53.9377 90.9817C47.3167 90.9787 41.1537 86.7377 39.9547 84.7137C36.2227 78.4167 37.1487 40.3057 37.1487 40.3057Z" fill="#C76323"/>
<path opacity="0.1" d="M79.2479 61.2199C78.9999 61.7839 78.7789 62.3639 78.6939 63.0019C79.1259 62.5219 79.4219 61.9789 79.6849 61.4249C79.9329 60.8549 80.1539 60.2809 80.2389 59.6379C79.8119 60.1239 79.5169 60.6669 79.2479 61.2199ZM55.9009 87.4409C55.6529 88.0049 55.4369 88.5849 55.3529 89.2229C55.7799 88.7429 56.0749 88.1999 56.3439 87.6409C56.5919 87.0769 56.8079 86.4969 56.8919 85.8589C56.4649 86.3439 56.1699 86.8869 55.9009 87.4409ZM38.6009 69.4609C38.3479 70.0249 38.1319 70.6049 38.0469 71.2429C38.4739 70.7629 38.7749 70.2199 39.0379 69.6609C39.2859 69.0969 39.5019 68.5169 39.5919 67.8789C39.1649 68.3649 38.8649 68.9079 38.6009 69.4609ZM64.1789 69.5349C63.9259 70.0989 63.7099 70.6789 63.6249 71.3169C64.0519 70.8369 64.3529 70.2939 64.6159 69.7349C64.8639 69.1709 65.0799 68.5909 65.1699 67.9529C64.7369 68.4379 64.4419 68.9819 64.1789 69.5349ZM51.3079 76.9429C51.0599 77.5069 50.8389 78.0869 50.7539 78.7249C51.1859 78.2449 51.4819 77.7019 51.7449 77.1429C51.9929 76.5789 52.2139 75.9989 52.2989 75.3609C51.8719 75.8409 51.5719 76.3839 51.3079 76.9429ZM52.4419 58.8849C52.1939 59.4489 51.9779 60.0289 51.8939 60.6669C52.3209 60.1869 52.6159 59.6439 52.8849 59.0849C53.1329 58.5209 53.3489 57.9409 53.4329 57.3029C53.0059 57.7829 52.7109 58.3259 52.4419 58.8849ZM39.3709 45.4609C39.1229 46.0249 38.9069 46.6049 38.8169 47.2429C39.2489 46.7629 39.5449 46.2199 39.8079 45.6659C40.0559 45.0969 40.2769 44.5219 40.3619 43.8789C39.9349 44.3639 39.6399 44.9069 39.3709 45.4609ZM92.2019 60.6349C91.9809 60.0599 91.7219 59.4959 91.3319 58.9849C91.3689 59.6279 91.5429 60.2239 91.7489 60.8039C91.9759 61.3789 92.2289 61.9429 92.6189 62.4539C92.5819 61.8109 92.4079 61.2149 92.2019 60.6349ZM74.8029 72.6409C74.5759 72.0659 74.3229 71.5019 73.9329 70.9909C73.9699 71.6339 74.1439 72.2299 74.3499 72.8099C74.5709 73.3849 74.8249 73.9489 75.2199 74.4599C75.1819 73.8169 75.0079 73.2259 74.8029 72.6409ZM61.7369 59.1109C61.5159 58.5359 61.2569 57.9769 60.8669 57.4609C60.9089 58.1039 61.0779 58.6999 61.2839 59.2799C61.5109 59.8549 61.7639 60.4189 62.1539 60.9299C62.1169 60.2869 61.9429 59.6969 61.7369 59.1109ZM60.0449 78.6939C59.8239 78.1189 59.5649 77.5549 59.1749 77.0439C59.2119 77.6869 59.3859 78.2829 59.5919 78.8629C59.8189 79.4379 60.0719 80.0019 60.4619 80.5129C60.4249 79.8689 60.2509 79.2739 60.0449 78.6939ZM43.2889 76.5789C43.0679 76.0039 42.8089 75.4399 42.4189 74.9289C42.4559 75.5719 42.6299 76.1629 42.8359 76.7479C43.0569 77.3229 43.3159 77.8869 43.7059 78.3979C43.6679 77.7549 43.4939 77.1589 43.2889 76.5789ZM48.5719 48.8979C48.3509 48.3229 48.0919 47.7589 47.7019 47.2419C47.7389 47.8899 47.9129 48.4809 48.1189 49.0659C48.3459 49.6409 48.5989 50.1999 48.9889 50.7159C48.9509 50.0739 48.7769 49.4779 48.5719 48.8979ZM46.5949 64.6049C46.3679 64.0249 46.1149 63.4659 45.7249 62.9489C45.7619 63.5919 45.9359 64.1879 46.1419 64.7679C46.3629 65.3479 46.6219 65.9069 47.0119 66.4239C46.9739 65.7759 46.7999 65.1849 46.5949 64.6049ZM86.3449 69.4089C85.7699 69.6359 85.2059 69.8889 84.6949 70.2789C85.3379 70.2419 85.9289 70.0679 86.5139 69.8619C87.0889 69.6399 87.6529 69.3819 88.1639 68.9919C87.5199 69.0289 86.9239 69.2029 86.3449 69.4089ZM55.2679 68.6919C54.6929 68.9189 54.1289 69.1719 53.6179 69.5619C54.2609 69.5249 54.8519 69.3509 55.4369 69.1449C56.0119 68.9239 56.5759 68.6649 57.0869 68.2749C56.4439 68.3119 55.8479 68.4859 55.2679 68.6919ZM58.1989 50.2319C57.6239 50.4589 57.0599 50.7119 56.5489 51.1019C57.1919 51.0649 57.7829 50.8909 58.3679 50.6849C58.9429 50.4639 59.5069 50.2099 60.0179 49.8149C59.3749 49.8529 58.7789 50.0269 58.1989 50.2319ZM41.5219 56.0269C40.9469 56.2479 40.3829 56.5069 39.8719 56.8969C40.5149 56.8599 41.1109 56.6859 41.6909 56.4799C42.2659 56.2589 42.8299 55.9999 43.3409 55.6099C42.6979 55.6469 42.1079 55.8209 41.5219 56.0269ZM69.2559 81.0659C68.6809 81.2929 68.1169 81.5459 67.6059 81.9359C68.2489 81.8989 68.8399 81.7249 69.4249 81.5189C69.9999 81.2979 70.5639 81.0389 71.0749 80.6489C70.4319 80.6869 69.8359 80.8609 69.2559 81.0659ZM46.9269 85.9489C46.3519 86.1699 45.7879 86.4289 45.2769 86.8189C45.9199 86.7819 46.5159 86.6079 47.0959 86.4019C47.6709 86.1809 48.2349 85.9219 48.7459 85.5319C48.1029 85.5689 47.5069 85.7429 46.9269 85.9489ZM70.9909 61.0939C70.4159 61.3209 69.8519 61.5739 69.3409 61.9639C69.9839 61.9269 70.5749 61.7529 71.1599 61.5479C71.7349 61.3259 72.2989 61.0729 72.8099 60.6779C72.1669 60.7139 71.5709 60.8879 70.9909 61.0939Z" fill="black"/>
<path d="M64.6001 61.7187C64.4381 63.9687 63.9221 66.1767 63.4331 68.3647C62.9371 70.5837 62.2441 72.7357 61.5871 74.9057C61.5721 74.9547 61.4971 74.9277 61.5091 74.8787C62.0741 72.6967 62.4831 70.4697 62.9661 68.2667C63.4471 66.0707 63.7821 63.8377 64.3451 61.6647C64.3821 61.5247 64.6101 61.5757 64.6001 61.7187Z" fill="#263238"/>
<path d="M64.7939 52.2035C61.3919 51.3575 57.9479 50.6936 54.5019 50.0386C51.0529 49.3836 47.6049 48.7216 44.1399 48.1526C42.1819 47.8316 40.2249 47.4975 38.2559 47.2445C38.2039 47.2375 38.1799 47.3226 38.2329 47.3356C41.6289 48.1816 45.0739 48.8606 48.5099 49.5366C51.9539 50.2146 55.4089 50.8565 58.8669 51.4665C60.8209 51.8105 62.7819 52.1206 64.7509 52.3746C64.8479 52.3876 64.8939 52.2285 64.7939 52.2035Z" fill="#263238"/>
<path d="M74.4883 82.211C75.0313 81.732 75.6283 81.326 76.1963 80.879C76.7473 80.444 77.3023 80.017 77.8583 79.589C78.9903 78.718 80.1263 77.853 81.2563 76.98C83.5193 75.23 85.7393 73.425 87.9803 71.647C89.2583 70.633 90.5223 69.605 91.7773 68.563C91.8283 68.52 91.8993 68.592 91.8493 68.639C90.3083 70.088 88.7503 71.526 87.1463 72.908C87.3483 72.811 87.5513 72.715 87.7523 72.614C88.3663 72.307 88.9703 71.976 89.5713 71.644C89.6243 71.615 89.6623 71.691 89.6153 71.724C89.0533 72.126 88.4673 72.481 87.8583 72.808C87.5603 72.968 87.2573 73.119 86.9503 73.261C86.8023 73.329 86.6553 73.396 86.5033 73.454C86.5003 73.455 86.4963 73.457 86.4933 73.458C86.1293 73.766 85.7663 74.075 85.3973 74.376C83.1803 76.18 80.9143 77.922 78.5993 79.599C77.9603 80.062 77.3143 80.518 76.6543 80.951C75.9593 81.408 75.2893 81.907 74.5603 82.31C74.5003 82.342 74.4353 82.258 74.4883 82.211Z" fill="#263238"/>
<path d="M103.664 68.4251L107.092 63.2051L110.322 67.5921L109.002 71.4711L105.338 71.5491L103.664 68.4251Z" fill="#263238"/>
<path d="M105.337 71.5487L99.2578 111.986L105.434 126.235L111.005 111.539L109.001 71.4707L105.337 71.5487Z" fill="#263238"/>
<path d="M108.318 62.8278C104.747 63.6958 98.5738 58.2698 96.1218 53.8558C95.9558 53.5528 96.4008 50.3488 96.7578 46.4308C96.9648 44.0518 97.1397 41.3988 97.1247 38.9658L112.406 42.5758C112.406 42.5758 110.938 47.6848 110.991 51.9258C110.999 52.2808 111.037 52.6098 111.102 52.9238C111.107 52.9698 111.121 53.0248 111.125 53.0888C111.446 54.9838 111.769 61.9868 108.318 62.8278Z" fill="#F7A9A0"/>
<path d="M98.1953 39.2246C98.6593 42.4436 100.843 53.0396 109.551 53.1806C110.12 53.1936 110.646 53.1636 111.122 53.0876C111.113 53.0236 111.102 52.9746 111.1 52.9266C111.031 52.6106 110.995 52.2816 110.985 51.9236C110.932 47.6876 112.398 42.5756 112.398 42.5756L98.1953 39.2246Z" fill="#263238"/>
<path d="M93.6032 21.909C92.4362 27.444 96.6622 42.76 100.803 45.891C106.806 50.43 115.946 50.105 119.629 43.046C123.199 36.204 117.338 16.342 112.777 13.567C106.059 9.48097 95.3272 13.734 93.6032 21.909Z" fill="#F7A9A0"/>
<path d="M107.24 30.992C107.221 30.955 107.172 31.063 107.185 31.105C107.497 32.129 107.682 33.355 106.841 33.95C106.815 33.968 106.832 34.02 106.865 34.006C107.963 33.536 107.7 31.912 107.24 30.992Z" fill="#263238"/>
<path d="M106.027 30.1631C104.332 30.4861 105.103 33.8541 106.674 33.5541C108.22 33.2591 107.448 29.8911 106.027 30.1631Z" fill="#263238"/>
<path d="M113.461 29.4384C113.46 29.3964 113.554 29.4694 113.562 29.5124C113.768 30.5634 114.181 31.7314 115.204 31.8614C115.236 31.8654 115.245 31.9184 115.209 31.9214C114.02 32.0244 113.488 30.4674 113.461 29.4384Z" fill="#263238"/>
<path d="M114.145 28.1363C115.793 27.6243 116.696 30.9593 115.169 31.4333C113.666 31.8993 112.763 28.5643 114.145 28.1363Z" fill="#263238"/>
<path d="M104.345 28.928C104.777 28.707 105.139 28.432 105.544 28.17C106.001 27.874 106.395 27.685 106.619 27.163C106.739 26.883 106.568 26.47 106.307 26.327C105.699 25.996 105.05 26.219 104.485 26.553C103.873 26.915 103.493 27.351 103.248 28.018C103.01 28.664 103.775 29.218 104.345 28.928Z" fill="#A6A6A6"/>
<path d="M115.057 26.1419C114.573 26.1729 114.121 26.1209 113.639 26.1019C113.095 26.0809 112.66 26.1199 112.201 25.7849C111.955 25.6059 111.891 25.1629 112.043 24.9069C112.396 24.3119 113.069 24.1729 113.725 24.1719C114.437 24.1709 114.985 24.3519 115.537 24.7999C116.071 25.2329 115.696 26.1009 115.057 26.1419Z" fill="#A6A6A6"/>
<path d="M108.831 40.6129C109.137 40.7999 109.463 41.0789 109.849 41.0239C110.219 40.9709 110.607 40.7099 110.91 40.5049C110.94 40.4849 110.981 40.5119 110.967 40.5479C110.788 41.0109 110.276 41.3919 109.773 41.4179C109.282 41.4439 108.955 41.0889 108.741 40.6829C108.711 40.6259 108.786 40.5859 108.831 40.6129Z" fill="#263238"/>
<path d="M109.208 37.239C109.999 38.011 110.971 38.309 111.941 38.276C112.375 38.264 112.814 38.179 113.232 38.042C113.315 38.021 113.397 37.992 113.47 37.958C113.544 37.931 113.611 37.907 113.69 37.87C113.808 37.824 113.852 37.708 113.846 37.589L113.844 37.581C113.834 37.543 113.827 37.513 113.809 37.477C113.809 37.477 113.809 37.477 113.807 37.469L113.784 37.378C113.622 36.57 113.264 35.366 113.264 35.366C113.591 35.446 115.242 35.776 115.122 35.361C114.118 31.935 113.003 28.125 111.28 24.928C111.229 24.82 111.06 24.886 111.096 24.998C111.93 28.329 113.345 31.491 114.236 34.823C113.717 34.751 112.861 34.594 112.443 34.698C112.336 34.757 113.176 37.012 113.22 37.38C113.22 37.38 113.224 37.395 113.222 37.42C111.912 37.902 110.802 37.727 109.284 37.121C109.193 37.081 109.127 37.17 109.208 37.239Z" fill="#263238"/>
<path d="M112.671 37.8754C112.671 37.8754 112.13 38.9764 111.209 39.5064C110.87 39.7024 110.489 39.8254 110.06 39.7914C109.179 39.7244 109.017 38.9564 109.051 38.2684C109.077 37.7024 109.243 37.1895 109.243 37.1895C109.243 37.1895 110.681 38.1134 112.671 37.8754Z" fill="#263238"/>
<path d="M111.209 39.5064C110.87 39.7024 110.489 39.8254 110.06 39.7914C109.179 39.7244 109.017 38.9564 109.051 38.2684C109.969 38.1954 110.973 38.6444 111.209 39.5064Z" fill="#FF9CBD"/>
<g opacity="0.2">
<path d="M108.855 23.8068C109.409 23.7428 109.966 23.7048 110.508 23.5638C111.056 23.4218 111.569 23.1738 112.121 23.0438C113.168 22.7978 114.211 22.8968 115.308 23.0258C115.401 23.0368 115.398 23.0958 115.305 23.0878C114.182 22.9908 113.054 22.9838 111.977 23.3618C111.074 23.6778 110.253 23.9378 109.293 24.0058C107.177 24.1558 105.122 24.5738 103.441 25.9548C103.43 25.9638 103.415 25.9478 103.426 25.9388C104.936 24.6428 106.905 24.0328 108.855 23.8068Z" fill="black"/>
<path d="M108.5 22.3557C109.025 22.2947 109.553 22.2587 110.067 22.1257C110.587 21.9907 111.073 21.7557 111.597 21.6327C112.59 21.3997 113.578 21.4927 114.619 21.6157C114.707 21.6257 114.705 21.6827 114.617 21.6747C113.553 21.5827 112.483 21.5767 111.462 21.9347C110.606 22.2347 109.828 22.4807 108.917 22.5457C106.911 22.6877 104.962 23.0847 103.369 24.3937C103.359 24.4017 103.345 24.3877 103.355 24.3787C104.784 23.1477 106.651 22.5697 108.5 22.3557Z" fill="black"/>
</g>
<path d="M95.1257 35.1089C95.1257 35.1089 89.7717 26.2799 90.2667 21.1749C90.4907 18.8669 93.6347 17.3099 93.6347 17.3099C93.6347 17.3099 92.6927 14.5029 95.2797 12.0639C98.0057 9.49287 104.616 10.0649 104.616 10.0649C104.616 10.0649 108.896 3.87087 114.959 6.32187C121.022 8.77287 117.078 15.6459 117.078 15.6459C117.078 15.6459 119.305 18.8009 113.874 21.2719C108.586 23.6779 97.7697 21.3219 97.7697 21.3219C97.7697 21.3219 98.6467 26.8629 97.6097 32.5219C97.2237 34.6189 95.1257 35.1089 95.1257 35.1089Z" fill="#A6A6A6"/>
<path d="M105.661 10.1452C104.322 9.5652 102.852 9.3652 101.397 9.3692C100.106 9.3722 98.7764 9.5332 97.5574 9.9722C95.3784 10.7572 93.4404 12.3642 93.0754 14.7592C92.8914 15.9632 93.2014 17.1392 93.9244 18.1132C93.9534 18.1532 94.0124 18.0992 93.9804 18.0592C92.5764 16.3252 93.3124 13.6262 94.7594 12.1722C96.3964 10.5272 98.9004 9.9032 101.153 9.8062C102.661 9.7412 104.149 9.9802 105.622 10.2742C105.709 10.2922 105.741 10.1802 105.661 10.1452Z" fill="#A6A6A6"/>
<path d="M119.296 9.24491C118.791 7.54891 117.336 6.45891 115.702 5.93891C113.839 5.34591 111.787 5.45891 109.964 6.14291C108.107 6.83991 106.516 8.0909 105.273 9.6249C105.246 9.6589 105.304 9.70691 105.333 9.67391C107.611 6.97791 111.177 5.43891 114.701 6.18191C116.277 6.51391 117.854 7.32591 118.584 8.82991C119.256 10.2129 119.112 11.9729 118.451 13.3319C117.634 15.0109 116.12 16.2809 114.557 17.2409C114.521 17.2629 114.551 17.3189 114.589 17.2989C116.104 16.4819 117.523 15.4459 118.47 13.9819C119.366 12.5979 119.775 10.8499 119.296 9.24491Z" fill="#A6A6A6"/>
<path d="M98.0549 34.3021C98.0549 34.3021 93.9949 29.6601 91.8509 31.1611C89.7069 32.6621 93.1429 39.6581 95.9279 40.3621C98.7129 41.0671 99.4159 38.5011 99.4159 38.5011L98.0549 34.3021Z" fill="#F7A9A0"/>
<path d="M92.8854 33.142C92.8424 33.143 92.8404 33.204 92.8794 33.215C94.8394 33.771 96.0164 35.404 96.9054 37.132C96.2714 36.498 95.4704 36.2 94.6124 36.966C94.5674 37.006 94.6224 37.078 94.6744 37.061C95.4254 36.813 95.9944 36.885 96.5804 37.445C96.9954 37.841 97.3074 38.365 97.6254 38.839C97.7314 38.997 98.0254 38.874 97.9394 38.688C97.9334 38.674 97.9264 38.66 97.9194 38.646C97.7054 36.249 95.4804 33.103 92.8854 33.142Z" fill="#263238"/>
<path d="M106.94 36.4369C104.853 36.7139 102.758 35.5569 101.94 33.5149C100.972 31.0999 102.15 28.3479 104.564 27.3799C106.979 26.4119 109.731 27.5889 110.699 30.0039C111.666 32.4179 110.49 35.1699 108.075 36.1389C107.702 36.2879 107.322 36.3869 106.94 36.4369ZM105.781 27.7069C105.451 27.7509 105.121 27.8359 104.799 27.9649C102.707 28.8039 101.687 31.1879 102.525 33.2799C103.364 35.3709 105.749 36.3929 107.84 35.5529C109.932 34.7139 110.951 32.3299 110.114 30.2379C109.404 28.4699 107.59 27.4669 105.781 27.7069Z" fill="#455A64"/>
<path d="M117.42 33.7144C115.631 33.9524 113.764 32.3344 113.157 29.9484C112.851 28.7444 112.905 27.5214 113.311 26.5054C113.729 25.4544 114.471 24.7454 115.399 24.5094C116.33 24.2704 117.317 24.5424 118.187 25.2654C119.028 25.9654 119.66 27.0134 119.965 28.2164C120.605 30.7374 119.6 33.1774 117.723 33.6544C117.622 33.6814 117.522 33.7004 117.42 33.7144ZM115.79 25.0764C115.711 25.0864 115.633 25.1014 115.555 25.1214C114.828 25.3054 114.239 25.8804 113.896 26.7384C113.541 27.6314 113.495 28.7164 113.768 29.7924C114.324 31.9764 116.023 33.4384 117.568 33.0434C119.108 32.6524 119.909 30.5564 119.355 28.3724C119.081 27.2964 118.524 26.3654 117.784 25.7504C117.149 25.2234 116.45 24.9894 115.79 25.0764Z" fill="#455A64"/>
<path d="M110.684 30.5718L110.172 30.2029C110.718 29.4449 112.122 28.2538 113.543 29.1648L113.202 29.6959C111.931 28.8779 110.735 30.5028 110.684 30.5718Z" fill="#455A64"/>
<path d="M90.6062 36.925L89.9922 36.782C90.0592 36.495 90.6802 33.966 91.9892 33.398C93.2132 32.87 101.603 31.556 101.959 31.5L102.056 32.123C99.6502 32.498 93.1852 33.566 92.2402 33.976C91.3762 34.352 90.7682 36.232 90.6062 36.925Z" fill="#455A64"/>
<path d="M111.116 52.7583L106.845 61.5203L96.4793 49.4043L93.0703 52.8283C93.0703 52.8283 102.733 71.6093 102.858 70.7993L107.086 63.3223L112.053 69.0683L112.548 55.5343L111.116 52.7583Z" fill="#EBEBEB"/>
<path d="M112.678 62.3919C112.685 60.1549 112.754 57.9019 112.657 55.6669C112.654 55.5879 112.533 55.5439 112.507 55.6349C111.913 57.7549 111.932 66.3109 111.782 68.3519C111.775 68.3439 111.767 68.3349 111.76 68.3269C111.553 68.0789 107.139 63.2539 107.088 63.3219C106.202 64.4949 103.102 69.9379 102.881 70.4379C101.354 67.4559 95.4614 56.5889 93.6074 53.7409C93.5544 53.6589 93.4294 53.7149 93.4684 53.8089C94.7834 56.9379 102.564 71.5609 102.701 71.5309C102.788 71.6079 106.636 64.9049 107.129 63.6229C107.861 64.6589 112.279 70.0649 112.318 69.7349C112.581 67.5059 112.671 64.6319 112.678 62.3919Z" fill="#263238"/>
<path d="M151.788 119.41C148.12 124.657 138.133 125.657 113.225 130.537C109.778 131.212 98.4696 108.17 102.113 107.26C106.702 106.114 124.761 102.659 126.113 102.573C137.521 101.848 154.276 115.851 151.788 119.41Z" fill="#F7A9A0"/>
<path d="M107.095 106.123C107.095 106.123 96.5434 107.718 91.2584 110.272C84.1824 113.692 79.4804 119.558 77.6584 122.135C73.8554 127.515 68.3804 143.151 72.6084 145.514C76.4364 147.653 81.2254 131.387 81.2254 131.387C81.2254 131.387 73.6054 147.166 78.6874 148.894C83.7694 150.622 88.2554 131.423 88.2554 131.423C88.2554 131.423 80.7904 147.811 86.3124 148.763C90.4864 149.483 95.5284 132.324 95.5284 132.324C95.5284 132.324 89.2094 146.454 93.4694 147.379C98.1774 148.402 103.825 132.854 103.825 132.854C115.05 133.383 120.612 129.043 124.2 125.485C125.069 124.624 107.095 106.123 107.095 106.123Z" fill="#F7A9A0"/>
<path d="M83.5098 125.761C82.5478 127.582 81.5617 129.419 80.7647 131.319C79.9677 133.219 79.2368 135.149 78.6198 137.115C77.1078 141.937 76.9148 145.193 76.9488 144.993C77.7488 140.267 80.4958 133.42 81.2938 131.519C82.0888 129.623 82.7887 127.686 83.5837 125.788C83.6037 125.741 83.5328 125.718 83.5098 125.761Z" fill="#263238"/>
<path d="M90.4201 128.514C89.2921 130.892 88.0851 133.212 87.0621 135.642C86.0441 138.059 85.2891 140.442 84.4401 142.922C84.3751 143.113 84.4991 143.085 84.5721 142.896C85.5201 140.451 86.5841 138.264 87.5601 135.83C88.5331 133.405 89.4181 130.923 90.4781 128.536C90.4961 128.499 90.4381 128.478 90.4201 128.514Z" fill="#263238"/>
<path d="M96.782 129.81C94.872 133.357 93.619 137.251 92.481 141.101C92.424 141.293 92.581 141.239 92.65 141.047C94.009 137.266 95.048 134.291 96.906 129.876C96.934 129.807 96.822 129.735 96.782 129.81Z" fill="#263238"/>
<path d="M104.898 106.123L126.722 130.425C126.722 130.425 148.789 125.359 152.041 119.699C154.181 115.974 137.568 100.884 125.025 102.643L104.898 106.123Z" fill="#C76323"/>
<path opacity="0.1" d="M124.275 121.287C124.189 121.926 123.971 122.505 123.723 123.07C123.458 123.627 123.161 124.17 122.732 124.651C122.817 124.011 123.035 123.433 123.284 122.868C123.55 122.312 123.847 121.77 124.275 121.287ZM139.436 119.925C139.187 120.489 138.969 121.068 138.884 121.708C139.313 121.226 139.61 120.684 139.875 120.127C140.123 119.562 140.341 118.983 140.427 118.344C139.999 118.826 139.702 119.369 139.436 119.925ZM128.623 114.822C128.059 114.572 127.48 114.355 126.84 114.27C127.322 114.699 127.864 114.996 128.422 115.261C128.987 115.509 129.566 115.727 130.205 115.813C129.722 115.385 129.18 115.088 128.623 114.822ZM139.429 108.13C139.652 108.705 139.907 109.269 140.299 109.781C140.262 109.137 140.088 108.543 139.882 107.962C139.658 107.387 139.403 106.824 139.012 106.311C139.05 106.955 139.224 107.548 139.429 108.13ZM117.309 113.39C117.532 113.966 117.787 114.529 118.179 115.041C118.142 114.397 117.968 113.803 117.762 113.222C117.538 112.647 117.283 112.084 116.892 111.571C116.93 112.215 117.103 112.808 117.309 113.39ZM108.342 107.629C108.917 107.406 109.481 107.151 109.993 106.759C109.349 106.796 108.755 106.97 108.174 107.176C107.599 107.4 107.036 107.655 106.523 108.046C107.166 108.008 107.76 107.835 108.342 107.629ZM126.924 105.618C127.499 105.396 128.063 105.14 128.575 104.748C127.931 104.785 127.337 104.959 126.756 105.165C126.181 105.389 125.618 105.644 125.105 106.035C125.749 105.997 126.343 105.823 126.924 105.618ZM133.798 126.985C134.373 126.762 134.937 126.507 135.449 126.115C134.805 126.152 134.211 126.326 133.63 126.532C133.055 126.756 132.492 127.011 131.979 127.402C132.623 127.364 133.217 127.19 133.798 126.985ZM150.204 114.866C149.753 114.941 149.321 115.077 148.895 115.227C148.318 115.453 147.756 115.709 147.24 116.1C147.887 116.06 148.479 115.884 149.061 115.679C149.507 115.508 149.944 115.318 150.355 115.057C150.305 114.997 150.254 114.932 150.204 114.866Z" fill="black"/>
<path d="M139.983 106.597C137.96 105.131 132.265 101.714 125.002 102.624C124.938 102.632 124.936 102.736 125.002 102.734C130.478 102.58 137.867 105.442 139.935 106.687C139.989 106.719 140.034 106.633 139.983 106.597Z" fill="#263238"/>
<path d="M132.687 126.356C130.43 123.555 128.027 120.878 125.615 118.208C123.202 115.536 120.794 112.857 118.315 110.245C116.914 108.769 115.521 107.284 114.069 105.857C114.031 105.819 113.959 105.874 113.994 105.917C116.246 108.714 118.641 111.404 121.031 114.086C123.426 116.775 125.852 119.44 128.3 122.081C129.684 123.573 131.094 125.041 132.546 126.469C132.618 126.541 132.753 126.438 132.687 126.356Z" fill="#263238"/>
<path d="M104.858 105.808C106.19 105.367 107.57 105.135 108.948 104.877C110.325 104.619 111.707 104.384 113.09 104.162C115.841 103.721 121.621 102.472 126.702 102.486C126.758 102.486 126.47 102.759 126.415 102.756C123.996 102.625 106.661 106.074 105.237 106.175C105.293 106.268 105.347 106.361 105.39 106.464C105.419 106.534 105.349 106.625 105.274 106.574C105.096 106.454 104.969 106.304 104.801 106.172C104.663 106.065 104.686 105.865 104.858 105.808Z" fill="#263238"/>
</svg>
