<svg width="197" height="370" viewBox="0 0 197 370" fill="none" xmlns="http://www.w3.org/2000/svg">
<path d="M179.677 0H16.505C7.394 0 0 7.519 0 16.813V352.703C0 361.978 7.393 369.516 16.505 369.516H179.677C188.788 369.516 196.201 361.978 196.201 352.703V16.814C196.201 7.519 188.789 0 179.677 0ZM185.874 342.318C185.874 351.159 179.253 358.311 171.088 358.311H25.114C16.929 358.311 10.308 351.159 10.308 342.318V29.544C10.308 11.534 16.929 10.655 25.114 10.655H54.359C56.058 10.655 57.448 12.585 57.448 14.979V16.012C57.448 21.62 60.517 21.639 64.281 21.639H131.901C135.704 21.639 138.754 21.62 138.754 16.012V14.979C138.754 12.585 140.125 10.655 141.852 10.655H171.087C179.252 10.655 185.873 13.049 185.873 29.544V342.318H185.874Z" fill="black"/>
<path d="M185.886 29.8187V342.593C185.886 351.434 179.265 358.586 171.1 358.586H25.1263C16.9413 358.586 10.3203 351.434 10.3203 342.593V29.8187C10.3203 11.8087 16.9413 10.9307 25.1263 10.9307H54.3713C56.0703 10.9307 57.4593 12.8607 57.4593 15.2547V16.2877C57.4593 21.8957 60.5283 21.9147 64.2933 21.9147H131.913C135.716 21.9147 138.766 21.8957 138.766 16.2877V15.2547C138.766 12.8607 140.137 10.9307 141.864 10.9307H171.099C179.264 10.9307 185.886 13.3237 185.886 29.8187Z" fill="#1A1A1A"/>
<path d="M185.886 29.8226V58.1986H10.3203V29.8226C10.3203 11.8126 16.9413 10.9346 25.1263 10.9346H54.3713C56.0703 10.9346 57.4593 12.8646 57.4593 15.2586V16.2916C57.4593 21.8996 60.5283 21.9186 64.2923 21.9186H131.912C135.715 21.9186 138.765 21.8996 138.765 16.2916V15.2586C138.765 12.8646 140.135 10.9346 141.863 10.9346H171.098C179.264 10.9346 185.886 13.3276 185.886 29.8226Z" fill="#C76323"/>
<path d="M107.326 14.6344H88.8812C88.2522 14.6344 87.7422 14.1244 87.7422 13.4954C87.7422 12.8664 88.2522 12.3564 88.8812 12.3564H107.326C107.955 12.3564 108.465 12.8664 108.465 13.4954C108.465 14.1244 107.955 14.6344 107.326 14.6344Z" fill="#1A1A1A"/>
<path d="M49.3154 17.6806C49.2214 17.7736 49.1264 17.8676 49.0324 17.9616C48.9794 18.0146 48.9254 18.0686 48.8724 18.1226C48.1134 17.3856 47.2094 16.9936 46.1514 16.9926C45.0934 16.9926 44.1894 17.3836 43.4254 18.1256C43.3754 18.0726 43.3244 18.0186 43.2724 17.9666C43.1804 17.8726 43.0864 17.7796 42.9934 17.6866C42.9914 17.6846 42.9874 17.6836 42.9844 17.6816C42.9844 17.6796 42.9844 17.6766 42.9844 17.6746C42.9914 17.6686 42.9984 17.6636 43.0054 17.6576C43.1244 17.5516 43.2404 17.4426 43.3624 17.3416C43.6154 17.1326 43.8934 16.9596 44.1884 16.8146C44.5374 16.6436 44.9014 16.5166 45.2834 16.4466C45.4644 16.4136 45.6484 16.3966 45.8304 16.3736C45.8924 16.3656 46.2974 16.3646 46.3094 16.3656C46.4334 16.3746 46.5584 16.3806 46.6824 16.3936C47.0274 16.4306 47.3614 16.5146 47.6864 16.6336C47.9224 16.7196 48.1484 16.8266 48.3664 16.9516C48.5964 17.0836 48.8134 17.2336 49.0154 17.4056C49.1174 17.4926 49.2144 17.5846 49.3134 17.6736C49.3154 17.6756 49.3154 17.6776 49.3154 17.6806Z" fill="white"/>
<path d="M44.322 19.0094C44.173 18.8614 44.026 18.7164 43.875 18.5664C44.383 18.0674 44.985 17.7504 45.691 17.6544C46.747 17.5114 47.654 17.8324 48.423 18.5604C48.271 18.7114 48.124 18.8584 47.975 19.0064C47.47 18.5164 46.862 18.2514 46.149 18.2514C45.437 18.2514 44.83 18.5164 44.322 19.0094Z" fill="white"/>
<path d="M47.5324 19.4554C47.3854 19.6024 47.2384 19.7494 47.0884 19.8994C46.8314 19.6494 46.5194 19.5114 46.1524 19.5114C45.7874 19.5114 45.4754 19.6494 45.2164 19.9014C45.0674 19.7524 44.9204 19.6054 44.7734 19.4584C45.4794 18.7174 46.7504 18.6584 47.5324 19.4554Z" fill="white"/>
<path d="M46.552 20.3024C46.552 20.5244 46.372 20.7034 46.151 20.7034C45.93 20.7034 45.75 20.5234 45.75 20.3024C45.75 20.0814 45.93 19.9014 46.151 19.9014C46.372 19.9014 46.552 20.0804 46.552 20.3024Z" fill="white"/>
<path d="M21.7656 18.5331C21.7656 17.8911 22.2866 17.3701 22.9296 17.3701C23.5726 17.3701 24.0926 17.8911 24.0926 18.5331C24.0926 19.1761 23.5716 19.6971 22.9296 19.6971C22.2866 19.6971 21.7656 19.1761 21.7656 18.5331Z" fill="white"/>
<path d="M25.4297 18.5331C25.4297 17.8911 25.9507 17.3701 26.5937 17.3701C27.2367 17.3701 27.7567 17.8911 27.7567 18.5331C27.7567 19.1761 27.2357 19.6971 26.5937 19.6971C25.9507 19.6971 25.4297 19.1761 25.4297 18.5331Z" fill="white"/>
<path d="M29.0938 18.5331C29.0938 17.8911 29.6147 17.3701 30.2567 17.3701C30.8997 17.3701 31.4198 17.8911 31.4198 18.5331C31.4198 19.1761 30.8987 19.6971 30.2567 19.6971C29.6147 19.6971 29.0938 19.1761 29.0938 18.5331Z" fill="white"/>
<path d="M32.7578 18.5331C32.7578 17.8911 33.2788 17.3701 33.9208 17.3701C34.5638 17.3701 35.0848 17.8911 35.0848 18.5331C35.0848 19.1761 34.5638 19.6971 33.9208 19.6971C33.2788 19.6971 32.7578 19.1761 32.7578 18.5331Z" fill="white"/>
<path d="M36.4219 18.5331C36.4219 17.8911 36.9429 17.3701 37.5849 17.3701C38.2279 17.3701 38.7479 17.8911 38.7479 18.5331C38.7479 19.1761 38.2269 19.6971 37.5849 19.6971C36.9429 19.6971 36.4219 19.1761 36.4219 18.5331Z" fill="white"/>
<path d="M172.714 21.0735H163.242V16.6855H172.714V21.0735ZM163.725 20.5915H172.232V17.1695H163.725V20.5915Z" fill="white"/>
<path d="M170.137 17.4316H164.031V20.3286H170.137V17.4316Z" fill="white"/>
<path d="M173.562 17.707H172.719V20.054H173.562V17.707Z" fill="white"/>
<path d="M164.073 41.6745C164.287 41.7985 164.405 42.0335 164.393 42.2805C164.39 42.3475 164.388 42.4145 164.388 42.4825C164.388 42.5505 164.39 42.6185 164.393 42.6865C164.405 42.9325 164.288 43.1675 164.074 43.2905L163.344 43.7115L164.716 46.0895L165.446 45.6685C165.66 45.5455 165.924 45.5575 166.131 45.6925C166.245 45.7665 166.363 45.8355 166.485 45.8975C166.705 46.0095 166.846 46.2315 166.846 46.4775V47.3185H169.593V46.4775C169.593 46.2315 169.734 46.0095 169.953 45.8975C170.075 45.8355 170.193 45.7665 170.307 45.6925C170.514 45.5575 170.777 45.5445 170.992 45.6685L171.722 46.0895L173.094 43.7115L172.361 43.2875C172.148 43.1645 172.03 42.9305 172.043 42.6845C172.046 42.6175 172.048 42.5505 172.048 42.4825C172.048 42.4145 172.046 42.3475 172.043 42.2805C172.03 42.0335 172.148 41.7985 172.363 41.6745L173.094 41.2535L171.722 38.8755L170.994 39.2965C170.78 39.4205 170.517 39.4085 170.31 39.2735C170.195 39.1985 170.077 39.1305 169.954 39.0685C169.734 38.9565 169.593 38.7345 169.593 38.4885V37.6475H166.846V38.4885C166.846 38.7345 166.705 38.9565 166.485 39.0685C166.362 39.1305 166.244 39.1995 166.129 39.2735C165.922 39.4085 165.659 39.4205 165.444 39.2965L164.716 38.8755L163.344 41.2535L164.073 41.6745ZM168.217 40.2315C169.459 40.2315 170.467 41.2395 170.467 42.4815C170.467 43.7235 169.459 44.7295 168.217 44.7295C166.975 44.7295 165.969 43.7235 165.969 42.4815C165.969 41.2395 166.975 40.2315 168.217 40.2315Z" stroke="white" stroke-width="0.75" stroke-miterlimit="10"/>
</svg>
