<svg width="98" height="58" viewBox="0 0 98 58" fill="none" xmlns="http://www.w3.org/2000/svg">
<path d="M1.7101 12.2036C2.89861 22.4671 11.2305 53.8171 19.5534 56.6166C26.9272 59.097 46.21 55.0844 54.9906 53.4415C58.187 52.8435 54.1826 25.8752 51.0379 27.359C47.2648 29.1397 26.9469 32.4953 25.9651 32.0031C24.8865 31.4626 17.8334 20.214 9.15779 6.55306C0.972717 -6.33438 0.966154 5.77794 1.7101 12.2036Z" fill="#EB9481"/>
<path d="M47.9609 29.1948C47.9609 29.1948 56.4339 24.0889 62.1312 21.0106C65.3104 19.293 71.0225 16.8348 73.9351 16.6412C78.2914 16.3516 97.7846 6.53011 97.5 11.0004C97.2416 15.0474 80.5126 23.0825 80.5126 23.0825C80.5126 23.0825 91.2066 23.7477 90 28.5632C88.7934 33.3788 77.0143 28.5632 77.0143 28.5632C77.0143 28.5632 88.1044 29.6541 86.0744 34.4229C84.5405 38.027 74.0664 34.6666 74.0664 34.6666C74.0664 34.6666 82.8271 35.5155 81.4097 39.2894C79.8431 43.4602 70.3179 41.3793 70.3179 41.3793C65.0996 50.3666 59.1956 52.9339 54.3735 53.5146C53.2506 53.6491 47.9609 29.1948 47.9609 29.1948Z" fill="#EB9481"/>
<path d="M75.7463 22.1534C87.7036 22.7169 93.3952 26.6573 93.2229 26.5834C89.1505 24.8347 82.4517 23.5355 80.575 23.2016C78.7024 22.8686 77.6041 22.5594 75.7315 22.2248C75.6839 22.2157 75.7012 22.1509 75.7463 22.1534Z" fill="#263238"/>
<path d="M73.6594 28.7884C79.3379 28.6875 85.7414 30.4239 87.8535 31.368C88.0241 31.4443 87.9511 31.496 87.7674 31.4574C85.392 30.9677 76.034 29.2182 73.6479 28.845C73.6102 28.8392 73.6225 28.7892 73.6594 28.7884Z" fill="#263238"/>
<path d="M71.4742 34.379C76.5588 34.671 78.8063 35.3141 82.4046 36.7003C82.5769 36.7667 82.462 36.8471 82.2775 36.8044C78.6586 35.9645 75.8255 35.2796 71.4636 34.5086C71.3955 34.4963 71.3963 34.3749 71.4742 34.379Z" fill="#263238"/>
<path d="M20.926 24.0369L5.32112 36.648C5.32112 36.648 2.07137 22.5482 0.958317 12.1961C-0.154735 1.844 2.50199 -4.25031 8.65043 4.56962C14.7989 13.3895 20.926 24.0369 20.926 24.0369Z" fill="#C76323"/>
<path opacity="0.1" d="M13.5684 11.9697L2.26562 21.3203C2.31484 21.6074 2.36405 21.9027 2.41327 22.1898L13.9785 12.6177C13.8473 12.4045 13.7078 12.1912 13.5684 11.9697ZM15.6354 15.2424L3.04484 25.6594C3.09405 25.9464 3.15147 26.2335 3.20889 26.5124L16.0373 15.8986C15.906 15.6854 15.7666 15.4639 15.6354 15.2424ZM17.6695 18.5562L3.88968 29.9574C3.9389 30.2444 3.99631 30.5233 4.05373 30.794L18.0632 19.2042C17.932 18.9909 17.8008 18.7776 17.6695 18.5562ZM19.6627 21.8781L4.77552 34.1979C4.84114 34.5014 4.89856 34.7803 4.95598 35.0346L20.0482 22.5425C19.9334 22.3456 19.8021 22.116 19.6627 21.8781Z" fill="#030402"/>
<path d="M18.314 21.394C17.0952 22.1699 15.9592 23.0886 14.8149 23.9695C13.6929 24.8332 12.5782 25.7059 11.4676 26.5844C9.21933 28.3635 6.96206 30.1245 4.85735 32.0734C4.80075 32.1259 4.86719 32.2104 4.93116 32.1669C7.30655 30.56 9.53429 28.7613 11.7776 26.9765C12.8858 26.0947 13.9881 25.2072 15.0848 24.3107C16.2019 23.3962 17.3552 22.498 18.3879 21.4875C18.4428 21.4342 18.3788 21.353 18.314 21.394Z" fill="#263238"/>
<path d="M7.24538 35.0911C6.64333 35.6587 6.01996 36.2 5.40642 36.7537L5.24648 36.898L5.18578 36.6798C4.75598 35.1296 4.33438 33.5777 3.98988 32.0078C3.64867 30.4379 3.27629 28.8729 3.00725 27.2882C2.72837 25.7052 2.42653 24.1262 2.22475 22.5309C1.99426 20.9405 1.81382 19.3418 1.6875 17.7383C2.03282 19.3098 2.33794 20.8847 2.65373 22.4579L3.58797 27.1767L5.454 36.6142L5.23418 36.5404C5.90348 36.0565 6.56377 35.5611 7.24538 35.0911Z" fill="#263238"/>
<path d="M1.11719 20.6504C1.44856 21.3131 1.73318 21.9652 2.0219 22.6239C2.3016 23.2858 2.59032 23.9395 2.81588 24.6482C2.31144 24.1011 1.94398 23.4564 1.64541 22.7863C1.50515 22.4467 1.37474 22.1022 1.2878 21.7438C1.19675 21.3878 1.12129 21.0244 1.11719 20.6504Z" fill="#263238"/>
<path d="M12.5469 10.3623C13.3835 11.413 14.1611 12.5039 14.9247 13.6038C15.6966 14.6989 16.4208 15.825 17.1385 16.9553C17.8505 18.0897 18.5378 19.2396 19.1916 20.4101C19.8313 21.588 20.467 22.7732 20.9805 24.0167L20.9952 24.0536L20.9698 24.0733L20.549 24.3923L20.9067 24.0035L20.896 24.0593C20.2004 22.9167 19.486 21.7897 18.7577 20.6693L16.6201 17.2801C15.918 16.1433 15.211 15.0097 14.5376 13.8532C13.8543 12.7016 13.1793 11.5467 12.5469 10.3623Z" fill="#263238"/>
<path d="M14.6641 12.0615C15.0873 12.5307 15.3621 13.095 15.568 13.6774C15.7599 14.2638 15.878 14.8897 15.8001 15.5163C15.6721 15.2268 15.5819 14.9397 15.4761 14.6567L15.1792 13.8086C14.9946 13.2386 14.801 12.6742 14.6641 12.0615Z" fill="#263238"/>
</svg>
