<svg width="102" height="289" viewBox="0 0 102 289" fill="none" xmlns="http://www.w3.org/2000/svg">
<path d="M100.737 287.965C98.8951 288.56 46.3881 287.879 44.4073 286.583C43.6461 286.103 43.2992 278.447 43.1458 269.183C43.145 269.086 43.1441 268.989 43.1433 268.893C43.1072 266.984 43.0826 265.018 43.0802 263.026C43.0793 262.751 43.0785 262.477 43.0703 262.204L45.6179 234.964L80.7426 235.316L77.2763 262.3L77.2362 263.368L77.0245 268.954L77.004 269.529C77.004 269.529 96.9856 278.779 99.0157 280.435C101.028 282.083 102.58 287.379 100.737 287.965Z" fill="#EB9481"/>
<path d="M100.737 287.965C98.8951 288.56 46.3881 287.879 44.4073 286.582C43.6461 286.102 43.2992 278.446 43.1458 269.182C43.145 269.086 43.1441 268.989 43.1433 268.892C43.1072 266.983 43.0826 265.017 43.0802 263.025C43.0793 262.75 43.0785 262.476 43.0703 262.203L77.2763 262.299L77.2362 263.368L77.0245 268.954L77.004 269.529C77.004 269.529 96.9856 278.778 99.0157 280.434C101.028 282.082 102.58 287.378 100.737 287.965Z" fill="#EBEBEB"/>
<path d="M100.741 287.962C99.793 288.267 85.5276 288.235 71.5837 287.954C68.7802 287.897 65.993 287.833 63.3347 287.761C53.3902 287.488 45.1732 287.078 44.4103 286.581C43.6557 286.106 43.3104 278.66 43.157 269.568C43.157 269.439 43.1488 269.311 43.1488 269.183C43.1488 269.086 43.1488 268.982 43.1406 268.886H43.1808L77.021 268.95L77.0046 269.528C77.0046 269.528 96.9887 278.773 99.013 280.428C101.03 282.082 102.58 287.375 100.741 287.962Z" fill="#C76323"/>
<path d="M100.167 285.923C91.3183 285.591 55.5989 285.086 46.8274 285.431C46.756 285.434 46.7552 285.483 46.8265 285.487C55.5891 286.008 91.3117 286.222 100.165 286.068C100.351 286.064 100.353 285.93 100.167 285.923Z" fill="#263238"/>
<path d="M80.7846 269.099C77.3101 268.404 73.0433 268.884 70.3497 271.33C70.2455 271.426 70.3817 271.572 70.4949 271.538C73.9456 270.499 77.1633 269.846 80.765 269.539C81.0192 269.518 81.034 269.149 80.7846 269.099Z" fill="#263238"/>
<path d="M83.2846 270.646C79.8101 269.951 75.5433 270.431 72.8497 272.877C72.7455 272.972 72.8817 273.119 72.9949 273.085C76.4456 272.046 79.6633 271.393 83.265 271.086C83.5192 271.065 83.534 270.696 83.2846 270.646Z" fill="#263238"/>
<path d="M85.785 272.196C82.3105 271.5 78.0437 271.98 75.35 274.427C75.245 274.522 75.382 274.669 75.4952 274.635C78.9459 273.596 82.1637 272.942 85.7653 272.636C86.0187 272.614 86.0335 272.246 85.785 272.196Z" fill="#263238"/>
<path d="M71.5837 287.954C68.7802 287.897 65.993 287.833 63.3347 287.761C53.3902 287.488 45.1732 287.078 44.4103 286.581C43.6557 286.106 43.3104 278.66 43.157 269.568C43.157 269.439 43.1488 269.311 43.1488 269.183C43.1488 269.086 43.1488 268.982 43.1406 268.886H43.1808C47.8168 272.138 64.1541 283.014 71.5837 287.954Z" fill="#263238"/>
<path d="M79.3308 269.07H41.515C41.515 269.07 49.13 180.747 48.8323 179.205C48.4549 177.229 46.2215 168.289 43.2498 156.61C42.318 152.955 41.314 149.036 40.2699 144.971C37.4507 133.983 34.3421 121.975 31.6353 111.525C27.5711 95.8697 24.3984 83.709 24.3984 83.709H56.4473C56.4473 83.709 60.1826 95.549 64.8891 110.955C72.5598 135.991 82.8086 170.45 83.8208 178.827C85.4596 192.354 79.3308 269.07 79.3308 269.07Z" fill="#37474F"/>
<path d="M77.6579 262.619C71.8827 262.499 73.542 262.452 67.7659 262.396C64.9394 262.369 46.3645 262.208 43.7234 262.645C43.6651 262.655 43.6651 262.753 43.7234 262.762C46.3645 263.199 64.9394 263.038 67.7659 263.011C73.542 262.955 71.8827 262.908 77.6579 262.787C77.7662 262.786 77.7662 262.622 77.6579 262.619Z" fill="#263238"/>
<path d="M55.945 173.808C54.7048 168.341 52.8527 162.984 51.2393 157.619C47.9617 146.717 44.657 135.822 41.3473 124.929C39.6921 119.483 38.0344 114.037 36.3595 108.597C35.5139 105.85 34.6698 103.102 33.8094 100.359C32.9679 97.6753 32.0098 95.0144 31.2511 92.306C30.9419 91.2045 30.7729 91.8098 31.1691 93.2083C31.9664 96.0282 32.7538 98.8523 33.5765 101.666C35.2055 107.237 36.8467 112.806 38.4938 118.373C41.7714 129.452 45.095 140.517 48.4144 151.585C50.0787 157.134 51.7544 162.678 53.4203 168.226C54.2167 170.877 54.996 173.544 55.4643 176.276C55.9532 179.127 55.9786 182.009 55.7981 184.889C55.4356 190.675 54.7655 196.451 54.2307 202.223C53.6951 208.008 53.1603 213.792 52.6247 219.576C51.5592 231.087 50.4929 242.598 49.4569 254.113C49.3257 255.572 49.1978 257.031 49.0854 258.492C49.0476 258.981 49.393 259.04 49.4446 258.57C50.6906 247.187 52.039 235.671 53.1078 224.27C54.1716 212.926 55.2355 201.582 56.2952 190.237C56.561 187.389 56.8644 184.536 56.8669 181.672C56.8677 179.017 56.5322 176.397 55.945 173.808Z" fill="#263238"/>
<path d="M52.8087 83.709C50.5843 100.922 46.3429 133.196 43.2506 156.61C36.0219 128.24 24.3984 83.709 24.3984 83.709H52.8087Z" fill="#263238"/>
<path d="M60.6792 288.472C58.8394 289.073 6.32993 288.584 4.34416 287.294C3.58052 286.818 3.2065 279.162 3.01866 269.899C3.01784 269.802 3.01702 269.705 3.01538 269.608C2.97273 267.7 2.94074 265.734 2.93008 263.741C2.92844 263.467 2.9268 263.193 2.91695 262.919C2.79474 249.551 3.75933 235.68 3.75933 235.68L38.0818 235.903L37.1238 262.891L37.0877 263.96L36.8958 269.546L36.8777 270.121C36.8777 270.121 56.893 279.298 58.9288 280.947C60.9474 282.588 62.5198 287.879 60.6792 288.472Z" fill="#EB9481"/>
<path d="M60.6841 288.472C58.8443 289.073 6.33485 288.584 4.34908 287.294C3.58544 286.818 3.21142 279.161 3.02358 269.899C3.02276 269.802 3.02195 269.705 3.0203 269.608C2.97765 267.7 2.94566 265.734 2.935 263.741C2.93336 263.466 2.93172 263.192 2.92188 262.919L37.1279 262.891L37.0918 263.959L36.8999 269.546L36.8818 270.121C36.8818 270.121 56.8971 279.298 58.9329 280.946C60.9523 282.588 62.5247 287.879 60.6841 288.472Z" fill="#EBEBEB"/>
<path d="M60.6794 288.471C58.8396 289.072 6.33017 288.583 4.3444 287.293C3.58076 286.816 3.20674 279.16 3.0189 269.898C3.01808 269.801 3.01727 269.704 3.01562 269.607L36.896 269.545L36.878 270.12C36.878 270.12 56.8932 279.297 58.929 280.945C60.9476 282.587 62.52 287.878 60.6794 288.471Z" fill="#C76323"/>
<path d="M60.1059 286.43C51.2565 286.13 15.5355 285.756 6.76477 286.132C6.69341 286.135 6.69259 286.184 6.76477 286.188C15.5297 286.677 51.2524 286.761 60.1051 286.575C60.2913 286.571 60.2921 286.436 60.1059 286.43Z" fill="#263238"/>
<path d="M40.6669 269.677C37.19 268.995 32.9248 269.49 30.2402 271.947C30.136 272.042 30.273 272.188 30.3862 272.154C33.8328 271.103 37.0481 270.438 40.6489 270.118C40.9032 270.095 40.9163 269.726 40.6669 269.677Z" fill="#263238"/>
<path d="M43.1669 271.215C39.69 270.533 35.4248 271.028 32.7402 273.485C32.636 273.58 32.773 273.727 32.8862 273.693C36.3328 272.641 39.5489 271.976 43.1489 271.656C43.4032 271.633 43.4163 271.264 43.1669 271.215Z" fill="#263238"/>
<path d="M45.6669 272.755C42.19 272.072 37.9248 272.567 35.2402 275.024C35.136 275.119 35.273 275.265 35.3862 275.232C38.8328 274.18 42.0481 273.515 45.6489 273.195C45.9023 273.171 45.9155 272.803 45.6669 272.755Z" fill="#263238"/>
<path d="M55.3991 83.71C55.3991 83.71 54.6601 99.0433 51.1503 111.188C50.869 112.192 50.5639 113.18 50.2341 114.128C50.2341 114.128 46.5792 115.454 40.9967 118.876C40.9967 118.876 40.6268 131.214 40.2577 144.972C39.8484 160.354 39.4227 177.511 39.5104 181.15C39.832 194.765 37.8077 269.626 37.8077 269.626L0 269.778C0 269.778 6.83579 186.178 6.7874 181.19C6.71522 173.174 8.61897 137.743 10.0888 111.904C10.9886 95.9839 11.7276 83.7108 11.7276 83.7108L55.3991 83.71Z" fill="#37474F"/>
<path d="M36.5095 262.899C30.7334 262.803 32.3927 262.75 26.6159 262.719C23.7893 262.703 5.21361 262.621 2.57493 263.069C2.51669 263.079 2.51669 263.178 2.57493 263.187C5.21771 263.613 23.7918 263.372 26.6183 263.333C32.3944 263.252 30.735 263.213 36.5095 263.068C36.6185 263.065 36.6177 262.901 36.5095 262.899Z" fill="#263238"/>
<path d="M14.8994 89.1886C14.2038 110.282 13.4665 131.378 12.5224 152.462C11.5758 173.619 6.60852 249.347 5.33634 261.11C5.32814 261.189 5.44789 261.218 5.45855 261.137C8.21206 240.213 9.74589 209.242 11.1001 188.186C12.4535 167.133 13.3713 146.044 14.089 124.96C14.495 113.034 14.8059 101.102 15.1619 89.1747C15.1676 89.0049 14.9051 89.0205 14.8994 89.1886Z" fill="#263238"/>
<path d="M51.8017 113.214C48.0377 114.709 44.432 116.751 40.9928 118.875C40.8582 118.959 40.9591 119.17 41.106 119.097C44.7535 117.326 48.4774 115.619 52.0224 113.649C52.3013 113.494 52.0905 113.099 51.8017 113.214Z" fill="#263238"/>
<path d="M52.0138 100.204C51.7637 101.548 51.438 102.878 51.1477 104.214C50.8754 105.468 50.6752 106.746 50.3439 107.985C50.0223 109.187 49.5113 110.288 48.5877 111.145C48.0956 111.602 47.5543 112.007 47.0301 112.426C46.748 112.651 46.442 112.868 46.1484 113.097C46.1861 112.92 46.2173 112.739 46.2493 112.556C46.3387 112.047 46.4248 111.537 46.5101 111.026C46.7004 109.895 46.8808 108.761 47.0547 107.627C47.396 105.397 47.7093 103.143 48.1752 100.936C48.194 100.846 48.0587 100.811 48.0357 100.902C47.4804 103.089 46.8669 105.253 46.383 107.459C46.1459 108.541 45.2986 113.883 45.2617 114.261C45.2232 114.652 45.1904 115.043 45.1764 115.436C45.1625 115.823 45.0862 116.255 45.1756 116.635C45.1986 116.733 45.3159 116.717 45.3577 116.651C45.3593 116.652 45.361 116.653 45.3634 116.655C45.5578 116.314 45.6062 115.87 45.703 115.494C45.8006 115.114 45.8876 114.726 45.9556 114.339C45.9802 114.199 45.9999 114.056 46.0196 113.913C46.5454 113.593 47.0359 113.171 47.5272 112.815C48.0571 112.431 48.5976 112.057 49.0987 111.634C50.0592 110.825 50.6596 109.835 51.0173 108.636C51.3888 107.393 51.5028 106.081 51.6464 104.797C51.8162 103.279 51.94 101.753 52.1525 100.24C52.1648 100.15 52.0302 100.112 52.0138 100.204Z" fill="#263238"/>
<path d="M7.79267 106.491C7.93129 106.626 63.3304 102.835 63.7938 102.23C64.441 101.379 46.9094 45.0841 42.5154 36.8129C40.6429 33.2876 31.6851 32.7823 28.1434 36.1124C19.2767 44.4501 13.1069 71.4102 11.8101 79.4936C9.65541 92.8125 7.29971 106.003 7.79267 106.491Z" fill="#C76323"/>
<path opacity="0.1" d="M42.5742 36.9273L26.3501 38.0756C26.5797 37.7967 26.8012 37.526 27.0309 37.2636L42.0821 36.1973C42.2543 36.3941 42.3938 36.5992 42.5086 36.8124C42.525 36.8534 42.5496 36.8863 42.5742 36.9273ZM43.903 39.9211L24.1519 41.3155C23.9878 41.578 23.832 41.8486 23.6843 42.1193L44.1983 40.6675C44.0998 40.405 44.0014 40.159 43.903 39.9211ZM45.3548 43.6613L22.0029 45.3182C21.8798 45.5807 21.7568 45.8432 21.6338 46.1138L45.6337 44.416C45.5434 44.1617 45.445 43.9074 45.3548 43.6613ZM46.7246 47.418L20.2394 49.2881C20.1327 49.5506 20.0261 49.8213 19.9195 50.0837L46.987 48.1644C46.905 47.9101 46.8148 47.6641 46.7246 47.418ZM48.0451 51.1747L18.7137 53.2498C18.6153 53.5123 18.5251 53.7748 18.4349 54.0373L48.3076 51.9211C48.2174 51.6668 48.1354 51.4207 48.0451 51.1747ZM49.3329 54.9313L17.3604 57.1951C17.2701 57.4494 17.1881 57.7119 17.1061 57.9826L49.5872 55.6777C49.5052 55.4316 49.4231 55.1774 49.3329 54.9313ZM50.5961 58.6962L16.1382 61.1322C16.0562 61.3947 15.9824 61.649 15.9086 61.9115L50.8503 59.4426C50.7683 59.1883 50.6863 58.9422 50.5961 58.6962ZM51.8428 62.4528L15.0309 65.0611C14.9571 65.3236 14.8833 65.5861 14.8177 65.8404L52.0971 63.2074C52.0151 62.9531 51.933 62.7071 51.8428 62.4528ZM53.0732 66.2177L14.0138 68.9818C13.9482 69.2443 13.8908 69.5068 13.8252 69.7611L53.3192 66.9641C53.2372 66.718 53.1552 66.4637 53.0732 66.2177ZM54.2953 69.9825L13.0952 72.8943C13.0378 73.1568 12.9803 73.4193 12.9311 73.6735L54.5332 70.7289C54.4511 70.4828 54.3691 70.2286 54.2953 69.9825ZM55.501 73.7474L12.2831 76.8068C12.2257 77.0775 12.1765 77.3318 12.1355 77.5778L55.7307 74.4938C55.6487 74.2477 55.5748 73.9934 55.501 73.7474ZM56.6822 77.5204L11.6024 80.7111C11.5613 80.9654 11.5203 81.2197 11.4793 81.4739L56.92 78.2586C56.838 78.0126 56.7642 77.7665 56.6822 77.5204ZM57.8633 81.2853L10.9626 84.6072L10.8395 85.37L58.0848 82.0235C58.0109 81.7856 57.9371 81.5396 57.8633 81.2853ZM59.0198 85.0501L10.3228 88.4951C10.2818 88.7494 10.2408 89.0118 10.1916 89.2661L59.2495 85.7965C59.1757 85.5505 59.0936 85.3044 59.0198 85.0501ZM60.1599 88.8232L9.67482 92.3912C9.6338 92.6537 9.59279 92.9079 9.55178 93.1622L60.3896 89.5614C60.3158 89.3153 60.242 89.0692 60.1599 88.8232ZM61.2836 92.588L9.04324 96.2873C9.00222 96.5497 8.96121 96.804 8.9202 97.0583L61.5051 93.3344C61.4313 93.0884 61.3575 92.8423 61.2836 92.588ZM62.3746 96.3611L8.42806 100.183C8.38705 100.446 8.35424 100.7 8.31323 100.946L62.5878 97.1075C62.514 96.8696 62.4484 96.6236 62.3746 96.3611ZM63.3916 100.142L7.88672 104.071C7.85391 104.35 7.82929 104.604 7.80469 104.834L63.5803 100.889C63.5311 100.667 63.4655 100.421 63.3916 100.142Z" fill="#030402"/>
<path d="M40.7749 44.233C37.9993 44.9122 32.58 40.3534 30.6689 36.9248C30.5393 36.6894 30.8821 34.1984 31.1545 31.1512C31.3128 29.3016 31.4456 27.2387 31.4309 25.3473C31.426 24.9593 32.7531 25.6622 32.7531 25.6622L35.2048 26.2347L43.3144 28.1377C43.3144 28.1377 42.1792 32.1109 42.2251 35.4082C42.2317 35.6838 42.2612 35.9397 42.3129 36.1833C42.317 36.2194 42.3276 36.2621 42.3309 36.3121C42.5835 37.7836 43.4563 43.5744 40.7749 44.233Z" fill="#EB9481"/>
<path d="M42.3129 36.183C42.317 36.2191 42.3276 36.2618 42.3309 36.3118C41.9602 36.3676 41.5558 36.3922 41.1121 36.3856C33.1238 36.2699 32.0469 26.1221 32.0469 26.1221L35.2048 26.2344L43.3144 28.1374C43.3144 28.1374 42.1792 32.1106 42.2251 35.4079C42.2317 35.6827 42.2612 35.9386 42.3129 36.183Z" fill="#263238"/>
<path d="M29.3413 12.7667C28.3128 17.0426 31.2615 29.0376 34.4104 31.5615C38.9758 35.2213 46.0855 35.1688 49.1031 29.7643C52.0281 24.5255 47.9097 8.96087 44.4254 6.70442C39.2948 3.38167 30.8604 6.45097 29.3413 12.7667Z" fill="#EB9481"/>
<path d="M40.9086 20.4721C40.8946 20.4425 40.8544 20.5254 40.8635 20.5582C41.0833 21.3612 41.2006 22.3176 40.5337 22.7622C40.5132 22.7761 40.5255 22.8163 40.5518 22.8056C41.4146 22.4652 41.2465 21.1972 40.9086 20.4721Z" fill="#263238"/>
<path d="M39.9863 19.8008C38.6616 20.0149 39.1874 22.6486 40.4145 22.4501C41.6227 22.2549 41.0969 19.6211 39.9863 19.8008Z" fill="#263238"/>
<path d="M45.8125 19.3062C45.8125 19.2742 45.8839 19.3324 45.8896 19.366C46.0266 20.1871 46.3219 21.1041 47.1142 21.228C47.1388 21.2321 47.1446 21.2731 47.1167 21.2747C46.1898 21.3272 45.8101 20.1059 45.8125 19.3062Z" fill="#263238"/>
<path d="M46.3708 18.3087C47.6626 17.947 48.2909 20.5586 47.0942 20.8933C45.9164 21.223 45.2881 18.6114 46.3708 18.3087Z" fill="#263238"/>
<path d="M38.7087 18.8034C39.0499 18.6418 39.337 18.4351 39.6569 18.2407C40.0186 18.0209 40.3287 17.8831 40.5149 17.482C40.6141 17.2671 40.4903 16.9423 40.291 16.8258C39.8259 16.5552 39.3165 16.7143 38.8703 16.9612C38.3864 17.2294 38.0821 17.5599 37.8762 18.0726C37.6769 18.5688 38.2592 19.0167 38.7087 18.8034Z" fill="#263238"/>
<path d="M47.1282 16.7791C46.7509 16.7923 46.4015 16.7422 46.0274 16.7168C45.605 16.6881 45.2663 16.7086 44.9168 16.4387C44.729 16.2944 44.6896 15.9482 44.8135 15.753C45.1014 15.2986 45.6272 15.2051 46.1365 15.2191C46.6894 15.2338 47.1118 15.3864 47.5309 15.7473C47.9361 16.0959 47.6252 16.7611 47.1282 16.7791Z" fill="#263238"/>
<path d="M41.5923 27.8588C41.8261 28.0105 42.073 28.2353 42.374 28.2008C42.6627 28.168 42.9695 27.9736 43.2098 27.8202C43.2336 27.8055 43.2648 27.8268 43.2533 27.8555C43.104 28.2107 42.6972 28.4961 42.3059 28.5051C41.9237 28.5142 41.6776 28.2312 41.5202 27.9113C41.4988 27.8662 41.5579 27.8367 41.5923 27.8588Z" fill="#263238"/>
<path d="M41.9724 25.2437C42.5703 25.8605 43.3192 26.114 44.0738 26.1099C44.4109 26.1099 44.7546 26.0533 45.0819 25.9557C45.1475 25.9409 45.2115 25.9204 45.2681 25.8958C45.3263 25.8769 45.3788 25.8589 45.4411 25.8326C45.5338 25.7998 45.5699 25.7104 45.5683 25.6178L45.5666 25.612C45.5601 25.5825 45.5551 25.5587 45.542 25.53C45.542 25.53 45.542 25.53 45.5412 25.5242L45.5256 25.4529C45.4173 24.8213 45.1655 23.878 45.1655 23.878C45.4182 23.9469 46.6936 24.2398 46.6091 23.915C45.9046 21.2303 45.1212 18.2455 43.8532 15.7225C43.8154 15.6372 43.6826 15.6848 43.708 15.7734C44.283 18.38 45.3132 20.8678 45.9324 23.4778C45.5305 23.4105 44.8694 23.2694 44.5413 23.3416C44.4569 23.3851 45.0605 25.156 45.086 25.443C45.086 25.443 45.0884 25.4553 45.0868 25.4742C44.0582 25.8195 43.1994 25.6596 42.0331 25.156C41.9642 25.1207 41.9109 25.1888 41.9724 25.2437Z" fill="#263238"/>
<path d="M44.631 25.7112C44.631 25.7112 44.2242 26.5741 43.5155 26.9973C43.2546 27.154 42.9602 27.2549 42.6255 27.2336C41.9398 27.1925 41.8045 26.5979 41.8217 26.0623C41.8348 25.6226 41.957 25.2207 41.957 25.2207C41.957 25.2207 43.0865 25.9212 44.631 25.7112Z" fill="#263238"/>
<path d="M43.5155 26.9974C43.2546 27.1541 42.9602 27.255 42.6255 27.2336C41.9398 27.1926 41.8045 26.598 41.8217 26.0624C42.5345 25.9943 43.3211 26.3306 43.5155 26.9974Z" fill="#FF98B9"/>
<path d="M30.4824 23.2217C30.4824 23.2217 26.1877 16.4548 26.492 12.4849C26.629 10.6902 29.0446 9.43282 29.0446 9.43282C29.0446 9.43282 28.2694 7.26987 30.238 5.33577C32.3132 3.2975 37.4511 3.63708 37.4511 3.63708C37.4511 3.63708 40.6746 -1.23673 45.418 0.56942C50.1614 2.37556 47.2094 7.77185 47.2094 7.77185C47.2094 7.77185 48.9868 10.185 44.8118 12.188C40.746 14.1385 32.3148 12.4816 32.3148 12.4816C32.3148 12.4816 33.0834 16.7681 32.3673 21.1752C32.1024 22.8083 30.4824 23.2217 30.4824 23.2217Z" fill="#263238"/>
<path d="M38.2645 3.68332C37.2162 3.25434 36.072 3.1231 34.9426 3.14853C33.9411 3.1715 32.9117 3.3175 31.9725 3.67758C30.2935 4.32064 28.8155 5.59938 28.5694 7.46376C28.4455 8.40128 28.7047 9.30845 29.2805 10.0532C29.3043 10.0836 29.3486 10.0409 29.3232 10.0106C28.2068 8.68672 28.7351 6.58037 29.835 5.42959C31.0793 4.12706 33.0126 3.60294 34.7597 3.49221C35.9285 3.41839 37.0875 3.57997 38.235 3.78503C38.3039 3.79651 38.3277 3.70875 38.2645 3.68332Z" fill="#263238"/>
<path d="M48.8267 2.76859C48.4084 1.46033 47.2617 0.637631 45.9854 0.259505C44.5303 -0.171116 42.9391 -0.0505407 41.5357 0.508035C40.1052 1.07809 38.8904 2.07386 37.9505 3.28369C37.93 3.31076 37.9759 3.34685 37.998 3.3206C39.723 1.19211 42.4666 -0.057923 45.2119 0.462923C46.4398 0.695868 47.6767 1.30038 48.2673 2.45608C48.8103 3.5191 48.7266 4.88642 48.2353 5.95108C47.6283 7.26673 46.4735 8.27643 45.2751 9.04581C45.2472 9.06385 45.2718 9.1065 45.3005 9.0901C46.4636 8.43228 47.548 7.60548 48.2599 6.4547C48.9333 5.37036 49.2229 4.00714 48.8267 2.76859Z" fill="#263238"/>
<path d="M45.8326 12.3895C43.9887 13.231 41.9537 13.537 39.9392 13.5386C37.8296 13.5403 35.7544 13.2671 33.6956 12.816C32.5014 12.5543 31.3161 12.2484 30.1383 11.9203C30.1006 11.9096 30.0866 11.9646 30.1219 11.9785C32.2028 12.7733 34.3264 13.4689 36.5336 13.8109C38.5899 14.13 40.6487 14.1062 42.6788 13.6256C43.7844 13.3639 44.8483 12.9571 45.8547 12.4289C45.8818 12.4149 45.8588 12.378 45.8326 12.3895Z" fill="#263238"/>
<path d="M40.4338 25.011C38.8401 25.1521 37.2874 24.2047 36.7337 22.6266C36.0792 20.7605 37.0643 18.71 38.9295 18.0554C40.7955 17.4001 42.8453 18.3852 43.5006 20.2504C44.1552 22.1156 43.1709 24.1661 41.3049 24.8215C41.017 24.9232 40.725 24.9855 40.4338 25.011ZM39.8432 18.3442C39.5914 18.3663 39.3379 18.4204 39.0886 18.5074C37.4727 19.075 36.6197 20.8516 37.1865 22.4674C37.7541 24.0833 39.5315 24.938 41.1466 24.3687C42.7624 23.8011 43.6154 22.0245 43.0487 20.4087C42.5688 19.043 41.2245 18.2219 39.8432 18.3442Z" fill="#C76323"/>
<path d="M48.4875 23.2908C47.1202 23.4122 45.7569 22.122 45.3755 20.2904C45.1828 19.366 45.2648 18.4392 45.606 17.6813C45.9587 16.8972 46.5452 16.3837 47.258 16.2352C47.9732 16.0851 48.7139 16.3238 49.3504 16.9021C49.9655 17.4615 50.4101 18.2776 50.6029 19.202C51.0056 21.1377 50.1616 22.9562 48.7204 23.2572C48.6425 23.2728 48.5654 23.2843 48.4875 23.2908ZM47.536 16.679C47.4753 16.6847 47.4154 16.6929 47.3556 16.706C46.7978 16.8225 46.3311 17.2392 46.0424 17.879C45.743 18.5458 45.6725 19.3669 45.8439 20.1928C46.1933 21.8694 47.4359 23.0358 48.622 22.7872C49.804 22.5412 50.4815 20.977 50.1329 19.2996C49.9606 18.4736 49.5685 17.7485 49.0272 17.2564C48.5629 16.8356 48.0405 16.6339 47.536 16.679Z" fill="#C76323"/>
<path d="M43.4702 20.6814L43.0938 20.3844C43.5334 19.8267 44.6391 18.9687 45.6873 19.7077L45.4109 20.099C44.4726 19.4362 43.5112 20.6305 43.4702 20.6814Z" fill="#C76323"/>
<path d="M28.0165 24.8404L27.5547 24.7116C27.6154 24.4959 28.1707 22.5962 29.1828 22.2083C30.1302 21.8482 36.5436 21.128 36.8159 21.0977L36.8684 21.5742C35.0294 21.7785 30.0851 22.3756 29.3543 22.6561C28.6866 22.912 28.1625 24.3195 28.0165 24.8404Z" fill="#C76323"/>
<path d="M32.5144 22.4965C32.5144 22.4965 29.4607 18.8006 27.762 19.9202C26.0633 21.0398 28.5798 26.5518 30.7288 27.1604C32.8778 27.769 33.4799 25.7914 33.4799 25.7914L32.5144 22.4965Z" fill="#EB9481"/>
<path d="M28.5274 21.4824C28.4938 21.4824 28.4905 21.5292 28.5209 21.539C30.0317 22.0139 30.911 23.3083 31.5631 24.6715C31.0841 24.1654 30.4681 23.916 29.7848 24.4927C29.7487 24.523 29.7906 24.5796 29.8308 24.5681C30.4197 24.3918 30.8601 24.4607 31.3039 24.9077C31.618 25.2243 31.8485 25.6385 32.0856 26.0142C32.1643 26.1397 32.3948 26.0503 32.3333 25.9035C32.3284 25.8928 32.3234 25.8813 32.3185 25.8707C32.2053 24.003 30.5452 21.5087 28.5274 21.4824Z" fill="#263238"/>
</svg>
