<svg width="454" height="500" viewBox="0 0 454 500" fill="none" xmlns="http://www.w3.org/2000/svg">
<path d="M113.667 79.6343L47.6875 88.6309L53.3929 130.473L119.372 121.477L113.667 79.6343Z" fill="#EBEBEB" fill-opacity="0.5"/>
<path d="M113.669 79.6348C111.351 82.5468 108.969 85.3578 106.626 88.2318C104.256 91.0548 101.875 93.8798 99.4815 96.6778C96.9835 99.6008 94.4715 102.498 91.9585 105.382C91.8805 105.475 91.8125 105.567 91.7335 105.66C89.5065 108.203 87.2695 110.747 85.0325 113.29L84.6985 113.651L84.2895 113.391C81.4535 111.539 78.6265 109.685 75.7985 107.818C75.7005 107.763 75.5995 107.694 75.4995 107.625C72.2955 105.521 69.0995 103.402 65.9085 101.241C62.8645 99.1978 59.8145 97.1138 56.7755 95.0278C53.7485 92.8858 50.7005 90.8158 47.6875 88.6298C50.8195 90.4278 53.9165 92.3408 57.0255 94.1968C60.1305 96.0948 63.2355 97.9928 66.3265 99.9338C69.7675 102.074 73.2135 104.255 76.6535 106.464C76.6635 106.463 76.6635 106.463 76.6755 106.475C79.2505 108.115 81.8275 109.769 84.4055 111.423C86.4355 109.141 88.4745 106.844 90.5185 104.587C90.5245 104.559 90.5245 104.559 90.5345 104.557C93.2595 101.521 95.9855 98.4978 98.7365 95.4988C101.197 92.8148 103.669 90.1428 106.154 87.4958C108.663 84.8778 111.133 82.2058 113.669 79.6348Z" fill="white"/>
<path d="M76.8802 107.407C76.8532 107.431 76.8372 107.463 76.8102 107.487C76.5042 107.832 76.1972 108.176 75.8902 108.511C74.4262 110.134 72.9142 111.702 71.3672 113.236C69.4852 115.128 67.5452 116.957 65.5932 118.777C63.6272 120.569 61.6502 122.353 59.6152 124.084C57.5802 125.815 55.5212 127.519 53.3672 129.114C55.1292 127.087 56.9872 125.169 58.8702 123.287C60.7622 121.394 62.7022 119.565 64.6442 117.746C66.6192 115.943 68.5962 114.159 70.6302 112.428C72.2482 111.047 73.8992 109.681 75.5992 108.379C75.9912 108.073 76.3852 107.777 76.7882 107.48C76.8162 107.456 76.8532 107.431 76.8802 107.407Z" fill="white"/>
<path d="M119.037 120.159C116.534 119.198 114.085 118.109 111.67 116.985C109.246 115.862 106.863 114.673 104.48 113.474C102.112 112.243 99.7523 111 97.4333 109.681C95.5423 108.617 93.6663 107.52 91.8313 106.347C91.4343 106.098 91.0463 105.849 90.6593 105.599C90.6273 105.583 90.6033 105.556 90.5703 105.54C90.6023 105.556 90.6453 105.57 90.6763 105.576C91.1463 105.764 91.6043 105.944 92.0643 106.134C94.0503 106.933 95.9963 107.808 97.9353 108.704C100.359 109.827 102.742 111.016 105.117 112.226C107.485 113.457 109.845 114.7 112.164 116.019C114.493 117.327 116.796 118.678 119.037 120.159Z" fill="white"/>
<path d="M328.185 223.908L316.164 274.703L396.259 293.659L408.28 242.864L328.185 223.908Z" fill="#EBEBEB" fill-opacity="0.5"/>
<path d="M408.298 242.872C404.33 245.2 400.333 247.382 396.353 249.656C392.364 251.858 388.363 254.057 384.358 256.22C380.178 258.48 375.993 260.705 371.812 262.913C371.681 262.985 371.561 263.061 371.43 263.134C367.731 265.076 364.02 267.016 360.31 268.955L359.764 269.223L359.408 268.741C356.96 265.344 354.525 261.95 352.093 258.539C352.004 258.431 351.919 258.307 351.834 258.184C349.075 254.333 346.331 250.468 343.611 246.557C341.009 242.847 338.418 239.088 335.84 235.331C333.301 231.515 330.707 227.772 328.203 223.912C331.015 227.378 333.737 230.961 336.497 234.484C339.234 238.053 341.971 241.623 344.673 245.235C347.69 249.233 350.695 253.281 353.68 257.358C353.692 257.361 353.692 257.361 353.7 257.38C355.941 260.417 358.178 263.47 360.415 266.523C363.771 264.794 367.143 263.051 370.504 261.357C370.524 261.327 370.524 261.327 370.536 261.33C375.028 259.04 379.517 256.766 384.022 254.531C388.053 252.529 392.091 250.546 396.134 248.599C400.192 246.692 404.23 244.71 408.298 242.872Z" fill="white"/>
<path d="M353.526 258.545C353.484 258.561 353.452 258.591 353.41 258.606C352.904 258.867 352.397 259.128 351.894 259.378C349.484 260.598 347.043 261.736 344.577 262.816C341.566 264.161 338.514 265.407 335.454 266.639C332.39 267.832 329.317 269.01 326.2 270.101C323.084 271.192 319.952 272.242 316.758 273.125C319.692 271.571 322.687 270.184 325.696 268.852C328.719 267.51 331.771 266.263 334.82 265.029C337.899 263.827 340.972 262.649 344.088 261.558C346.568 260.684 349.079 259.843 351.619 259.098C352.207 258.92 352.793 258.753 353.39 258.59C353.431 258.573 353.484 258.561 353.526 258.545Z" fill="white"/>
<path d="M396.473 291.994C394.014 289.773 391.673 287.428 389.388 285.058C387.092 282.685 384.872 280.255 382.656 277.812C380.472 275.339 378.303 272.857 376.215 270.305C374.507 268.237 372.832 266.138 371.236 263.969C370.888 263.506 370.553 263.045 370.217 262.585C370.187 262.552 370.171 262.511 370.141 262.478C370.171 262.511 370.214 262.546 370.247 262.567C370.705 262.993 371.154 263.404 371.6 263.827C373.536 265.632 375.391 267.506 377.229 269.402C379.525 271.775 381.744 274.205 383.946 276.657C386.13 279.13 388.299 281.612 390.387 284.165C392.491 286.707 394.547 289.29 396.473 291.994Z" fill="white"/>
<path d="M60.5924 325.249L47.4674 325.528L40.8064 325.64C38.5804 325.687 36.3434 325.677 34.1114 325.695L33.6674 325.699L33.6654 325.25L33.6114 314.06L33.6094 313.558L34.1114 313.56L47.3514 313.623C51.7644 313.628 56.1784 313.736 60.5914 313.787L60.8674 313.79L60.8644 314.06C60.8454 315.959 60.7784 317.847 60.7334 319.714L60.5924 325.249ZM60.5924 325.249L60.4504 319.595C60.4054 317.732 60.3384 315.89 60.3194 314.059L60.5924 314.332C56.1794 314.383 51.7654 314.491 47.3524 314.496L34.1124 314.559L34.6114 314.06L34.5574 325.25L34.1114 324.804C36.2934 324.822 38.4694 324.812 40.6574 324.859L47.2364 324.971L60.5924 325.249Z" fill="#EBEBEB"/>
<path d="M45.8189 339.358L32.6939 339.637L26.0329 339.749C23.8069 339.796 21.5699 339.786 19.3379 339.804L18.8939 339.807L18.8919 339.358L18.8379 328.168L18.8359 327.666L19.3379 327.668L32.5779 327.731C36.9909 327.736 41.4049 327.844 45.8179 327.895L46.0939 327.898L46.0909 328.168C46.0719 330.067 46.0049 331.955 45.9599 333.822L45.8189 339.358ZM45.8189 339.358L45.6769 333.704C45.6319 331.841 45.5649 329.999 45.5459 328.168L45.8189 328.441C41.4059 328.492 36.9919 328.6 32.5789 328.605L19.3389 328.668L19.8379 328.169L19.7839 339.359L19.3379 338.913C21.5199 338.931 23.6959 338.921 25.8839 338.968L32.4629 339.08L45.8189 339.358Z" fill="#EBEBEB"/>
<path d="M261.171 199.571L248.046 199.85L241.384 199.962C239.158 200.009 236.921 199.999 234.689 200.017L234.245 200.02L234.243 199.571L234.189 188.381L234.188 187.879L234.689 187.881L247.93 187.944C252.343 187.949 256.756 188.057 261.169 188.108L261.445 188.111L261.443 188.381C261.424 190.28 261.356 192.168 261.311 194.035L261.171 199.571ZM261.171 199.571L261.029 193.917C260.984 192.054 260.916 190.212 260.897 188.381L261.171 188.654C256.758 188.705 252.344 188.813 247.931 188.818L234.69 188.881L235.189 188.382L235.135 199.572L234.689 199.126C236.871 199.144 239.048 199.134 241.236 199.181L247.814 199.293L261.171 199.571Z" fill="#EBEBEB"/>
<path d="M246.397 213.68L233.272 213.959L226.611 214.071C224.385 214.118 222.148 214.108 219.916 214.126L219.472 214.129L219.47 213.68L219.416 202.49L219.414 201.988L219.916 201.99L233.156 202.053C237.569 202.058 241.983 202.166 246.396 202.217L246.672 202.22L246.669 202.49C246.65 204.389 246.583 206.277 246.538 208.144L246.397 213.68ZM246.397 213.68L246.255 208.026C246.21 206.163 246.143 204.321 246.124 202.49L246.397 202.763C241.984 202.814 237.57 202.922 233.157 202.927L219.917 202.99L220.416 202.491L220.362 213.681L219.916 213.235C222.098 213.253 224.274 213.243 226.462 213.29L233.041 213.402L246.397 213.68Z" fill="#EBEBEB"/>
<path d="M231.686 199.571L218.561 199.85L211.9 199.962C209.674 200.009 207.437 199.999 205.205 200.017L204.761 200.02L204.759 199.571L204.705 188.381L204.703 187.879L205.205 187.881L218.445 187.944C222.858 187.949 227.272 188.057 231.685 188.108L231.961 188.111L231.958 188.381C231.939 190.28 231.872 192.168 231.827 194.035L231.686 199.571ZM231.686 199.571L231.544 193.917C231.499 192.054 231.432 190.212 231.413 188.381L231.686 188.654C227.273 188.705 222.859 188.813 218.446 188.818L205.206 188.881L205.705 188.382L205.651 199.572L205.205 199.126C207.387 199.144 209.563 199.134 211.751 199.181L218.33 199.293L231.686 199.571Z" fill="#EBEBEB"/>
<path d="M436.655 339.358L423.53 339.637L416.869 339.749C414.643 339.796 412.406 339.786 410.174 339.804L409.73 339.807L409.728 339.358L409.674 328.168L409.672 327.666L410.174 327.668L423.414 327.731C427.827 327.736 432.241 327.844 436.654 327.895L436.93 327.898L436.927 328.168C436.908 330.067 436.841 331.955 436.796 333.822L436.655 339.358ZM436.655 339.358L436.513 333.704C436.468 331.841 436.401 329.999 436.382 328.168L436.655 328.441C432.242 328.492 427.828 328.6 423.415 328.605L410.175 328.668L410.674 328.169L410.62 339.359L410.174 338.913C412.356 338.931 414.532 338.921 416.72 338.968L423.299 339.08L436.655 339.358Z" fill="#EBEBEB"/>
<path d="M421.881 56.9156L408.756 57.1946L402.095 57.3066C399.869 57.3536 397.632 57.3436 395.4 57.3616L394.956 57.3656L394.954 56.9166L394.9 45.7266L394.898 45.2246L395.4 45.2266L408.64 45.2896C413.053 45.2946 417.467 45.4016 421.88 45.4536L422.156 45.4566L422.153 45.7266C422.134 47.6256 422.067 49.5136 422.022 51.3806L421.881 56.9156ZM421.881 56.9156L421.739 51.2616C421.694 49.3986 421.627 47.5566 421.608 45.7256L421.881 45.9986C417.468 46.0496 413.054 46.1576 408.641 46.1626L395.401 46.2256L395.9 45.7266L395.846 56.9166L395.4 56.4706C397.582 56.4886 399.758 56.4786 401.946 56.5256L408.525 56.6376L421.881 56.9156Z" fill="#EBEBEB"/>
<path d="M436.655 71.025L423.53 71.304L416.869 71.416C414.643 71.463 412.406 71.453 410.174 71.471L409.73 71.475L409.728 71.026L409.674 59.836L409.672 59.334L410.174 59.336L423.414 59.399C427.827 59.404 432.241 59.511 436.654 59.563L436.93 59.566L436.927 59.836C436.908 61.735 436.841 63.623 436.796 65.49L436.655 71.025ZM436.655 71.025L436.513 65.371C436.468 63.508 436.401 61.666 436.382 59.835L436.655 60.108C432.242 60.159 427.828 60.267 423.415 60.272L410.175 60.335L410.674 59.836L410.62 71.026L410.174 70.58C412.356 70.598 414.532 70.588 416.72 70.635L423.299 70.747L436.655 71.025Z" fill="#EBEBEB"/>
<path d="M45.8189 56.9156L32.6939 57.1946L26.0329 57.3066C23.8069 57.3536 21.5699 57.3436 19.3379 57.3616L18.8939 57.3656L18.8919 56.9166L18.8379 45.7266L18.8359 45.2246L19.3379 45.2266L32.5779 45.2896C36.9909 45.2946 41.4049 45.4016 45.8179 45.4536L46.0939 45.4566L46.0909 45.7266C46.0719 47.6256 46.0049 49.5136 45.9599 51.3806L45.8189 56.9156ZM45.8189 56.9156L45.6769 51.2616C45.6319 49.3986 45.5649 47.5566 45.5459 45.7256L45.8189 45.9986C41.4059 46.0496 36.9919 46.1576 32.5789 46.1626L19.3389 46.2256L19.8379 45.7266L19.7839 56.9166L19.3379 56.4706C21.5199 56.4886 23.6959 56.4786 25.8839 56.5256L32.4629 56.6376L45.8189 56.9156Z" fill="#EBEBEB"/>
<path d="M227.793 469.931C337.329 469.931 426.125 460.016 426.125 447.786C426.125 435.555 337.329 425.641 227.793 425.641C118.257 425.641 29.4609 435.555 29.4609 447.786C29.4609 460.016 118.257 469.931 227.793 469.931Z" fill="#EBEBEB"/>
<path d="M376.876 295.882C377.173 291.538 377.705 287.188 378.715 282.947C379.627 279.118 380.921 275.202 383.336 272.037C385.542 269.146 388.711 266.844 392.394 266.393C395.941 265.959 399.274 267.54 401.927 269.775C405.215 272.544 407.733 276.21 410.096 279.764C412.739 283.738 414.989 287.869 417.153 292.116C417.224 292.256 417.01 292.374 416.94 292.234C415.155 288.646 412.958 285.158 410.629 281.899C408.428 278.819 406.076 275.75 403.362 273.101C400.927 270.724 397.833 268.5 394.304 268.388C390.794 268.276 387.553 270.247 385.439 272.953C383.076 275.978 381.874 279.757 380.973 283.438C379.984 287.479 379.491 291.612 379.154 295.753C378.461 304.274 378.273 312.844 378.08 321.388C377.971 326.223 377.905 331.059 377.861 335.895C377.839 338.345 377.819 340.795 377.801 343.246C377.784 345.607 377.907 348 377.518 350.333C377.439 350.809 376.66 350.763 376.58 350.31C376.19 348.102 376.286 345.833 376.255 343.595C376.223 341.273 376.193 338.95 376.172 336.628C376.131 332.113 376.108 327.598 376.121 323.082C376.148 314.021 376.257 304.924 376.876 295.882Z" fill="#263238"/>
<path d="M389.047 289.457C389.499 287.048 390.313 283.908 391.686 282.041C394.152 278.687 396.816 280.145 394.354 283.86C391.665 287.915 391.277 291.12 390.891 293.019C390.891 293.019 395.037 298.943 400.042 301.859C399.828 299.582 399.185 296.079 399.629 292.7C400.591 285.383 405.017 285.794 403.923 291.606C403.044 296.268 402.682 301.217 402.921 303.362C404.425 304.501 406.987 305.48 408.27 305.982C407.982 305.135 407.678 304.116 407.341 302.883C405.565 296.322 409.939 294.275 410.079 297.966C410.186 301 411.362 305.703 411.781 307.273C414.182 308.079 416.171 308.63 417.388 309.057C422.444 310.833 425.593 314.664 425.593 314.664C427.887 312.625 429.737 310.151 431.184 307.429C429.655 306.113 427.238 304.157 423.883 301.789C417.593 297.349 419.78 291.742 424.771 295.228C428.372 297.744 431.159 302.405 432.425 304.798C434.16 300.654 435.072 296.107 435.278 291.701C430.337 287.064 418.12 280.602 421.803 280.602C425.116 280.602 432.532 285.461 435.253 287.336C435.179 286.029 435.039 284.754 434.834 283.529C430.18 280.479 415.061 275.735 417.47 274.37C420.117 272.874 430.665 277.757 433.856 279.303C433.157 277.034 432.212 275.061 431.061 273.515C424.632 264.907 413.038 261.942 407.98 263.582C404.401 264.743 405.446 273.824 404.678 273.515C390.299 267.729 383.76 271.819 389.047 289.457ZM424.293 288.463C425.313 287.23 430.032 290.855 428.667 292.837C427.302 294.818 422.978 290.041 424.293 288.463ZM399.637 280.718C400.879 281.507 399.045 286.095 397.129 284.705C395.502 283.521 398.387 279.92 399.637 280.718Z" fill="#C76323"/>
<path d="M401.52 282.124C402.17 280.841 402.847 279.565 403.587 278.332C404.292 277.158 405.043 275.908 405.963 274.887C405.758 274.635 405.56 274.378 405.349 274.13C405.263 274.029 405.411 273.887 405.499 273.987C405.74 274.262 405.969 274.543 406.203 274.822C406.249 274.848 406.285 274.887 406.303 274.94C407.192 276.005 408.029 277.101 408.828 278.221C410.241 278.52 411.638 278.973 413.004 279.431C414.414 279.903 415.812 280.393 417.182 280.972C417.325 281.033 417.254 281.268 417.112 281.205C415.754 280.604 414.376 280.023 412.969 279.547C411.638 279.097 410.284 278.751 408.934 278.369C409.373 278.989 409.804 279.613 410.218 280.248C412.751 280.976 415.228 282.132 417.602 283.26C420.097 284.445 422.499 285.823 424.889 287.205C425.024 287.283 424.896 287.493 424.761 287.412C422.421 286.011 419.982 284.816 417.514 283.661C415.201 282.578 412.808 281.689 410.476 280.659C416.347 289.821 419.87 300.395 424.576 310.184C424.644 310.327 424.422 310.444 424.363 310.302C422.926 306.868 421.27 303.524 419.705 300.147C418.299 297.115 416.928 294.067 415.521 291.036C415.109 290.149 414.686 289.263 414.255 288.38C414.512 293.274 414.408 298.253 415.21 303.09C415.239 303.263 414.982 303.294 414.97 303.117C414.631 297.887 413.709 292.739 413.746 287.48C413.746 287.45 413.767 287.437 413.775 287.412C412.779 285.412 411.717 283.439 410.571 281.52C408.625 286.1 406.58 290.749 405.673 295.668C405.645 295.819 405.399 295.752 405.44 295.598C406.763 290.668 407.989 285.732 410.364 281.175C409.109 279.101 407.74 277.103 406.229 275.214C405.577 276.431 404.739 277.582 403.998 278.745C403.273 279.882 402.562 281.026 401.892 282.196C400.46 284.697 399.202 287.249 398.219 289.958C398.165 290.107 397.925 290.03 397.986 289.888C399.102 287.277 400.238 284.656 401.52 282.124Z" fill="#263238"/>
<path d="M355.237 293.265C359.005 289.486 363.385 284.526 369.207 284.536C374.827 284.546 378.964 289.071 381.34 293.739C383.825 298.621 384.718 304.151 385.42 309.527C386.261 315.963 386.727 322.45 386.91 328.938C387.012 332.541 386.998 336.149 386.909 339.753C386.819 343.389 386.731 347.079 386.084 350.665C385.979 351.247 385.046 351.269 385.011 350.64C384.841 347.606 384.963 344.557 384.98 341.52C384.996 338.529 384.949 335.538 384.84 332.548C384.618 326.501 384.178 320.463 383.468 314.453C382.848 309.204 382.356 303.807 380.784 298.736C379.367 294.163 376.711 288.932 372.075 286.923C365.748 284.182 359.568 289.189 355.427 293.419C355.316 293.531 355.126 293.376 355.237 293.265Z" fill="#263238"/>
<path d="M336.015 301.709V301.717C336.044 302.489 336.088 303.253 336.14 303.999C337.86 302.789 340.022 301.69 342.315 301.441C347.663 300.873 347.322 304.938 343.75 305.109C340.342 305.272 338.057 305.85 336.412 306.579C337.284 313.641 339.226 319.317 339.518 319.394C339.81 319.463 346.347 318.994 353.648 317.608C352.319 314.774 349.291 311.009 350.833 310.705C352.415 310.391 354.065 313.752 354.92 317.35C358.442 316.639 362.068 315.708 365.197 314.522C362.845 312.486 359.209 309.951 360.598 308.873C361.986 307.786 364.873 311.36 366.602 313.953C368.32 313.221 369.845 312.399 371.044 311.477C367.875 306.822 360.15 305.874 361.158 302.508C362.188 299.076 369.393 303.81 372.638 310.043C376.45 306.091 377.565 300.498 377.164 295.719C373.845 295.334 367.458 296.034 367.921 293.65C368.356 291.382 372.998 291.72 376.776 293.112C376.31 290.945 375.522 289.098 374.558 287.86C371.059 283.368 360.385 289.08 360.385 289.08C360.385 289.08 361.527 278.35 357.455 276.495C355.108 275.43 350.968 275.438 346.813 277.884C349.144 278.077 351.961 278.815 353.091 280.432C354.539 282.495 352.255 283.616 350.802 282.665C349.782 281.989 347.87 279.867 344.424 279.587C343.086 280.696 341.779 282.108 340.57 283.854C340.177 284.408 339.81 284.993 339.445 285.628C342.803 284.233 347.246 283.519 351.942 285.854C356.57 288.152 353.985 292.959 350.003 291.091C346.063 289.246 342.229 287.388 338.008 288.445C336.458 292.017 335.944 296.248 335.978 300.411C337.561 299.265 339.899 297.895 342.834 297.121C347.435 295.914 348.826 298.662 343.772 299.175C340.56 299.5 337.859 300.674 336.015 301.709ZM341.613 294.322C341.295 292.831 344.559 292.404 345.102 293.612C345.555 294.644 341.924 295.813 341.613 294.322ZM369.532 302.578C369.839 301.765 372.023 302.689 371.825 303.703C371.552 305.057 369.233 303.39 369.532 302.578ZM354.118 307.808C355.709 307.172 358.194 311.128 356.46 312.034C354.726 312.94 352.818 308.331 354.118 307.808Z" fill="#C76323"/>
<path d="M340.14 318.579C342.538 314.57 344.908 310.539 347.426 306.603C348.599 304.769 349.827 302.973 351.102 301.21C350.909 301.171 350.718 301.115 350.531 301.075C350.214 301.008 349.896 300.947 349.576 300.891C348.84 300.763 348.097 300.657 347.353 300.581C346.653 300.51 345.951 300.472 345.247 300.464C344.515 300.455 343.716 300.43 342.997 300.582C342.906 300.601 342.893 300.459 342.978 300.463C343.727 300.493 344.494 300.394 345.245 300.384C345.973 300.374 346.703 300.392 347.43 300.436C348.113 300.477 348.793 300.545 349.47 300.648C349.844 300.705 350.217 300.771 350.588 300.844C350.809 300.888 351.043 300.919 351.261 300.986C352.56 299.2 353.908 297.449 355.302 295.735C351.098 293.804 346.772 292.212 342.175 291.545C342.098 291.534 342.127 291.415 342.204 291.427C346.784 292.159 351.377 293.342 355.521 295.466C356.288 294.526 357.059 293.589 357.834 292.656C358.702 291.613 359.63 290.594 360.414 289.486C360.465 289.414 360.571 289.494 360.512 289.558C359.423 290.72 358.439 292.002 357.469 293.284C357.477 293.287 357.484 293.283 357.491 293.288C359.223 294.446 360.815 295.828 362.372 297.208C363.967 298.622 365.525 300.084 367.037 301.586C367.093 301.641 367.009 301.729 366.953 301.674C365.457 300.188 363.907 298.77 362.286 297.422C360.666 296.076 358.961 294.84 357.331 293.507C357.323 293.5 357.325 293.49 357.319 293.483C356.947 293.976 356.576 294.467 356.202 294.952C356.013 295.197 355.827 295.444 355.638 295.689C355.629 295.711 355.614 295.725 355.598 295.742C354.974 296.554 354.352 297.367 353.736 298.185C354.491 299.197 355.049 300.391 355.589 301.529C356.127 302.66 356.594 303.829 357.025 305.005C357.917 307.44 358.516 309.979 359.025 312.517C359.04 312.593 358.923 312.629 358.908 312.552C358.427 310.025 357.636 307.588 356.724 305.187C356.258 303.961 355.728 302.765 355.181 301.573C354.683 300.488 354.079 299.447 353.613 298.35C353.075 299.065 352.54 299.783 352.013 300.506C351.86 300.716 351.714 300.931 351.563 301.143C351.586 301.19 351.572 301.25 351.511 301.253C351.503 301.253 351.494 301.252 351.486 301.252C349.838 303.552 348.27 305.907 346.745 308.289C346.849 308.442 346.893 308.631 346.954 308.81C347.052 309.099 347.144 309.391 347.229 309.684C347.4 310.272 347.538 310.866 347.647 311.469C347.749 312.034 347.83 312.604 347.886 313.176C347.948 313.806 347.888 314.503 348.029 315.117C348.051 315.214 347.895 315.22 347.912 315.12C348.006 314.547 347.859 313.88 347.779 313.309C347.692 312.69 347.576 312.074 347.434 311.465C347.305 310.914 347.156 310.365 346.993 309.823C346.911 309.551 346.823 309.282 346.731 309.014C346.682 308.872 346.612 308.722 346.564 308.571C345.85 309.69 345.143 310.814 344.447 311.945C343.067 314.187 341.699 316.436 340.321 318.68C340.252 318.793 340.072 318.694 340.14 318.579Z" fill="#263238"/>
<path d="M377.125 349.369C377.187 347.097 377.547 344.808 377.792 342.549C378.038 340.279 378.296 338.01 378.538 335.74C379.005 331.364 379.266 326.891 380.295 322.601C381.18 318.911 382.806 315.376 385.64 312.775C387.074 311.459 388.897 310.381 390.882 310.273C392.912 310.163 394.784 310.866 396.448 311.989C398.344 313.268 399.805 315.082 401.129 316.921C402.494 318.817 403.701 320.776 404.779 322.848C404.82 322.927 404.697 322.975 404.655 322.901C402.663 319.448 399.918 316.47 396.759 314.053C395.304 312.94 393.635 312.105 391.781 311.979C389.944 311.853 388.305 312.731 386.955 313.904C384.305 316.207 382.771 319.596 381.858 322.923C380.775 326.867 380.425 331.017 379.884 335.061C379.563 337.465 379.256 339.87 378.939 342.275C378.623 344.667 378.424 347.119 377.916 349.478C377.806 349.985 377.111 349.879 377.125 349.369Z" fill="#263238"/>
<path d="M388.304 331.723C388.959 332.638 389.796 333.47 390.776 334.247C390.402 332.029 389.95 328.089 391.07 325.992C392.808 322.734 394.866 324.359 393.83 327.191C392.336 331.234 392.141 333.965 392.156 335.22C394.36 336.67 397.018 337.841 399.704 338.781C399.466 337.691 399.316 336.338 399.456 334.895C399.803 331.413 402.47 331.478 401.777 335.101C401.473 336.667 401.408 338.174 401.412 339.355C407.494 341.262 413.175 342.008 413.175 342.008C415.439 338.992 417.028 336.094 418.044 333.341C415.21 332.631 409.47 332.469 409.593 330.444C409.756 327.718 415.316 329.817 418.568 331.794C419.368 329.184 419.649 326.721 419.55 324.46C418.28 324.044 415.932 323.528 411.733 323.165C405.895 322.661 406.183 319.351 410.413 319.428C413.534 319.485 417.481 321.396 419.352 322.389C418.134 314.45 412.078 309.362 407.222 309.168C399.059 308.838 401.996 318.998 401.996 318.998C401.996 318.998 396.466 315.105 391.245 315.208C386.034 315.321 382.722 323.957 388.304 331.723ZM410.107 317.038C409.925 315.896 413.568 315.621 413.758 317.087C413.976 318.733 410.292 318.201 410.107 317.038ZM415.968 328.955C415.893 328.208 417.466 328.077 417.821 329.018C418.06 329.631 416.031 329.693 415.968 328.955ZM396.367 329.651C397.598 329.824 398.297 334.224 396.179 334.137C394.564 334.068 395.324 329.502 396.367 329.651Z" fill="#C76323"/>
<path d="M398.069 334.536C398.272 333.988 398.453 333.432 398.626 332.873C398.467 333.438 398.326 334.006 398.221 334.578C398.2 334.69 398.029 334.645 398.069 334.536Z" fill="#263238"/>
<path d="M400.221 327.465C400.604 326.337 401.033 325.224 401.471 324.116C401.705 323.525 401.948 322.938 402.207 322.358C402.425 321.868 402.607 321.313 402.935 320.885C402.685 320.417 402.45 319.943 402.274 319.46C402.257 319.414 402.316 319.378 402.349 319.416C402.972 320.143 403.454 321.058 403.939 321.882C404.166 322.267 404.381 322.659 404.604 323.046C405.062 323.074 405.528 323.177 405.977 323.26C406.467 323.35 406.954 323.449 407.44 323.559C407.925 323.669 408.411 323.781 408.895 323.897C409.375 324.012 409.854 324.172 410.342 324.246C410.455 324.263 410.409 324.441 410.301 324.398C409.818 324.203 409.282 324.111 408.774 324.001C408.305 323.9 407.836 323.817 407.361 323.749C406.887 323.681 406.411 323.622 405.934 323.575C405.578 323.539 405.214 323.521 404.854 323.487C405.048 323.83 405.251 324.168 405.44 324.514C405.47 324.568 405.497 324.624 405.526 324.679C405.919 324.646 406.312 324.748 406.699 324.817C407.121 324.893 407.541 324.973 407.96 325.065C408.812 325.253 409.66 325.455 410.5 325.689C412.266 326.182 414.011 326.746 415.754 327.316C415.851 327.348 415.789 327.495 415.693 327.462C413.964 326.871 412.198 326.399 410.416 325.998C409.581 325.81 408.746 325.618 407.908 325.444C407.488 325.357 407.069 325.265 406.65 325.176C406.326 325.108 405.987 325.069 405.675 324.961C406.573 326.62 407.42 328.307 408.197 330.027C409.89 333.773 411.315 337.632 412.767 341.475C412.803 341.571 412.655 341.633 412.621 341.537C411.264 337.696 409.55 333.999 407.758 330.345C407.432 329.68 407.096 329.021 406.766 328.358C406.739 328.493 406.705 328.628 406.68 328.764C406.596 329.218 406.515 329.672 406.439 330.128C406.286 331.038 406.131 331.949 405.995 332.862C405.72 334.71 405.274 336.661 405.337 338.535C405.341 338.653 405.162 338.646 405.18 338.535C405.326 337.631 405.326 336.686 405.383 335.772C405.443 334.817 405.513 333.862 405.623 332.911C405.73 331.994 405.847 331.078 405.999 330.168C406.075 329.713 406.155 329.258 406.239 328.804C406.3 328.473 406.314 328.1 406.496 327.816C406.017 326.857 405.544 325.895 405.06 324.939C404.606 324.042 404.147 323.147 403.681 322.256C403.484 321.88 403.27 321.499 403.06 321.115C402.941 321.587 402.7 322.042 402.519 322.49C402.31 323.005 402.1 323.52 401.888 324.034C401.42 325.173 400.985 326.323 400.55 327.475C399.933 329.108 399.251 330.78 398.742 332.48C399.24 330.81 399.662 329.112 400.221 327.465Z" fill="#263238"/>
<path d="M398.625 332.874C398.662 332.742 398.704 332.611 398.743 332.479C398.704 332.611 398.666 332.743 398.625 332.874Z" fill="#263238"/>
<path d="M363.477 344.949L364.052 357.101L365.529 388.42H397.842L399.32 357.101L399.894 344.949H363.477Z" fill="#37474F"/>
<path d="M363.477 344.949L364.052 357.101H399.32L399.894 344.949H363.477Z" fill="#263238"/>
<path d="M361.177 349.862H402.188V340.037H361.177V349.862Z" fill="#37474F"/>
<path d="M395.228 388.421H389.555V393.565H395.228V388.421Z" fill="#37474F"/>
<path d="M395.228 388.421H389.555V390.993H395.228V388.421Z" fill="#263238"/>
<path d="M373.816 388.421H368.148V393.565H373.816V388.421Z" fill="#37474F"/>
<path d="M373.816 388.421H368.148V390.993H373.816V388.421Z" fill="#263238"/>
<path d="M17.9688 393.565L70.4767 393.322L122.984 393.234L227.999 393.066L333.014 393.233L385.521 393.321L438.028 393.565L385.521 393.81L333.014 393.898L227.999 394.064L122.984 393.897L70.4767 393.808L17.9688 393.565Z" fill="#263238"/>
<path d="M129.624 243.235C129.133 243.694 128.649 244.153 128.172 244.611" stroke="#263238" stroke-width="0.75" stroke-miterlimit="10"/>
<path d="M124.612 248.149C72.95 301.377 113.469 346.01 178.803 311.814C237.254 281.221 249.322 223.269 352.058 181.614" stroke="#263238" stroke-width="0.75" stroke-miterlimit="10" stroke-dasharray="4.01 5.02"/>
<path d="M354.383 180.681C355.001 180.435 355.623 180.19 356.248 179.945" stroke="#263238" stroke-width="0.75" stroke-miterlimit="10"/>
<path d="M352.148 168.502L345.539 186.652L359.413 175.818L412.454 156.581L352.148 168.502Z" fill="#C76323"/>
<path opacity="0.1" d="M352.148 168.502L345.539 186.652L359.413 175.818L412.454 156.581L352.148 168.502Z" fill="black"/>
<path d="M361.193 180.046L345.539 186.652L359.413 175.818L361.193 180.046Z" fill="#263238"/>
<path d="M359.414 175.818L412.455 156.581L368.949 199.037L359.414 175.818Z" fill="#C76323"/>
<path d="M352.151 168.502L330.109 154.271L412.457 156.581L352.151 168.502Z" fill="#C76323"/>
</svg>
