<svg width="493" height="532" viewBox="0 0 493 532" fill="none" xmlns="http://www.w3.org/2000/svg">
<path d="M152.701 1.19854C153.179 0.71954 153.762 0.478542 154.449 0.478542H178.512C179.197 0.478542 179.778 0.71954 180.261 1.19854C180.739 1.68054 180.98 2.26254 180.98 2.94654V141.975C180.98 142.663 180.739 143.244 180.261 143.723C179.778 144.205 179.197 144.443 178.512 144.443H154.449C153.762 144.443 153.179 144.205 152.701 143.723C152.219 143.244 151.981 142.663 151.981 141.975V85.8285C151.981 85.1445 151.636 84.8005 150.952 84.8005H130.386C129.699 84.8005 129.358 85.1445 129.358 85.8285V141.975C129.358 142.663 129.117 143.244 128.638 143.723C128.156 144.205 127.574 144.443 126.889 144.443H102.826C102.139 144.443 101.558 144.205 101.078 143.723C100.596 143.244 100.359 142.663 100.359 141.975V2.94554C100.359 2.26154 100.597 1.67954 101.078 1.19754C101.557 0.71854 102.139 0.477539 102.826 0.477539H126.889C127.574 0.477539 128.156 0.71854 128.638 1.19754C129.116 1.67954 129.358 2.26154 129.358 2.94554V58.8855C129.358 59.5735 129.699 59.9135 130.386 59.9135H150.952C151.637 59.9135 151.981 59.5735 151.981 58.8855V2.94554C151.981 2.26154 152.219 1.67954 152.701 1.19854Z" fill="#C76323"/>
<path d="M116.5 9.36849C116.5 10.5265 115.561 11.4655 114.403 11.4655C113.245 11.4655 112.305 10.5265 112.305 9.36849C112.305 8.21049 113.244 7.27149 114.403 7.27149C115.56 7.27049 116.5 8.20949 116.5 9.36849Z" fill="#A6A6A6"/>
<path d="M168.82 9.36849C168.82 10.5265 167.881 11.4655 166.722 11.4655C165.564 11.4655 164.625 10.5265 164.625 9.36849C164.625 8.21049 165.564 7.27149 166.722 7.27149C167.881 7.27049 168.82 8.20949 168.82 9.36849Z" fill="#A6A6A6"/>
<path d="M357.745 1.19854C358.223 0.71954 358.804 0.478542 359.493 0.478542H383.35C384.035 0.478542 384.616 0.71954 385.098 1.19854C385.577 1.68054 385.817 2.26254 385.817 2.94654V141.975C385.817 142.663 385.577 143.244 385.098 143.723C384.616 144.205 384.035 144.443 383.35 144.443H356.202C354.83 144.443 353.94 143.758 353.529 142.387L328.026 62.7955C327.888 62.3845 327.646 62.2135 327.306 62.2815C326.961 62.3515 326.792 62.5895 326.792 63.0005L326.997 141.976C326.997 142.664 326.756 143.245 326.277 143.724C325.794 144.206 325.213 144.444 324.528 144.444H300.671C299.984 144.444 299.403 144.206 298.923 143.724C298.441 143.245 298.203 142.664 298.203 141.976V2.94554C298.203 2.26154 298.441 1.67954 298.923 1.19754C299.402 0.71854 299.984 0.477539 300.671 0.477539H327.614C328.982 0.477539 329.876 1.16554 330.286 2.53354L355.994 82.1245C356.13 82.5355 356.37 82.7095 356.714 82.6385C357.055 82.5715 357.229 82.3305 357.229 81.9195L357.022 2.94454C357.025 2.26154 357.262 1.67954 357.745 1.19854Z" fill="#C76323"/>
<path d="M317.03 9.36849C317.03 10.5265 316.091 11.4655 314.933 11.4655C313.775 11.4655 312.836 10.5265 312.836 9.36849C312.836 8.21049 313.775 7.27149 314.933 7.27149C316.091 7.27049 317.03 8.20949 317.03 9.36849Z" fill="#A6A6A6"/>
<path d="M374.328 9.36848C374.328 10.5265 373.389 11.4655 372.23 11.4655C371.071 11.4655 370.133 10.5265 370.133 9.36848C370.133 8.21048 371.072 7.27148 372.23 7.27148C373.388 7.27148 374.328 8.20948 374.328 9.36848Z" fill="#A6A6A6"/>
<path d="M256.875 162.18L253.585 142.436C253.585 141.752 253.173 141.408 252.35 141.408H226.231C225.408 141.408 224.997 141.752 224.997 142.436L221.706 162.18C221.568 163.69 220.678 164.442 219.032 164.442H194.969C193.186 164.442 192.502 163.552 192.913 161.768L223.147 22.7405C223.42 21.2335 224.31 20.4785 225.821 20.4785H253.585C255.091 20.4785 255.981 21.2335 256.259 22.7405L286.285 161.769L286.49 162.592C286.49 163.826 285.735 164.443 284.228 164.443H259.548C257.904 164.442 257.011 163.69 256.875 162.18ZM229.934 118.991H248.444C249.129 118.991 249.401 118.651 249.267 117.963L239.601 61.8165C239.463 61.4055 239.256 61.1995 238.984 61.1995C238.708 61.1995 238.502 61.4045 238.367 61.8165L229.112 117.963C229.111 118.651 229.385 118.991 229.934 118.991Z" fill="#C76323"/>
<path d="M241.742 31.8353C241.742 32.9933 240.803 33.9333 239.645 33.9333C238.487 33.9333 237.547 32.9943 237.547 31.8353C237.547 30.6773 238.486 29.7383 239.645 29.7383C240.803 29.7373 241.742 30.6763 241.742 31.8353Z" fill="#A6A6A6"/>
<path d="M404.642 163.722C404.16 163.243 403.922 162.662 403.922 161.974V22.9455C403.922 22.2615 404.16 21.6795 404.642 21.1975C405.121 20.7185 405.703 20.4775 406.39 20.4775H430.453C431.138 20.4775 431.72 20.7185 432.202 21.1975C432.68 21.6795 432.921 22.2615 432.921 22.9455V74.7725C432.921 75.3215 433.092 75.6305 433.435 75.6975C433.776 75.7685 434.016 75.5275 434.154 74.9785L460.685 22.3285C461.37 21.0945 462.331 20.4775 463.564 20.4775H489.067C490.024 20.4775 490.676 20.7185 491.02 21.1975C491.361 21.6795 491.329 22.3995 490.918 23.3565L460.48 82.5875C460.342 83.1365 460.275 83.5485 460.275 83.8215L492.564 161.563C492.699 161.839 492.769 162.251 492.769 162.797C492.769 163.896 492.081 164.443 490.713 164.443H465.005C463.494 164.443 462.537 163.826 462.126 162.592L440.737 108.709C440.599 108.298 440.392 108.127 440.12 108.194C439.844 108.265 439.57 108.435 439.297 108.709L433.333 119.403C433.056 119.952 432.921 120.364 432.921 120.637V161.976C432.921 162.664 432.679 163.245 432.202 163.724C431.72 164.206 431.138 164.444 430.453 164.444H406.39C405.702 164.442 405.121 164.205 404.642 163.722Z" fill="#C76323"/>
<path d="M420.991 31.8353C420.991 32.9933 420.052 33.9333 418.894 33.9333C417.736 33.9333 416.797 32.9943 416.797 31.8353C416.797 30.6773 417.736 29.7383 418.894 29.7383C420.052 29.7373 420.991 30.6763 420.991 31.8353Z" fill="#A6A6A6"/>
<path d="M474.874 31.8353C474.874 32.9933 473.935 33.9333 472.777 33.9333C471.619 33.9333 470.68 32.9943 470.68 31.8353C470.68 30.6773 471.619 29.7383 472.777 29.7383C473.935 29.7383 474.874 30.6763 474.874 31.8353Z" fill="#A6A6A6"/>
<path d="M136.049 335.846C135.567 335.367 135.33 334.785 135.33 334.097V280.625L135.125 279.391L106.332 195.687C106.194 195.413 106.125 195.07 106.125 194.658C106.125 193.424 106.877 192.807 108.388 192.807H133.684C135.192 192.807 136.152 193.495 136.563 194.865L149.314 244.018C149.449 244.429 149.655 244.634 149.931 244.634C150.204 244.634 150.409 244.429 150.547 244.018L163.298 194.865C163.71 193.496 164.667 192.807 166.177 192.807H191.474C192.296 192.807 192.913 193.049 193.325 193.528C193.736 194.01 193.803 194.729 193.53 195.688L164.531 279.392L164.326 280.626V334.099C164.326 334.787 164.086 335.369 163.606 335.848C163.124 336.33 162.542 336.567 161.858 336.567H137.795C137.109 336.565 136.528 336.328 136.049 335.846Z" fill="#C76323"/>
<path d="M125.842 203.557C125.842 204.715 124.903 205.654 123.745 205.654C122.587 205.654 121.648 204.715 121.648 203.557C121.648 202.399 122.587 201.459 123.745 201.459C124.903 201.459 125.842 202.398 125.842 203.557Z" fill="#A6A6A6"/>
<path d="M178.717 203.557C178.717 204.715 177.778 205.654 176.62 205.654C175.462 205.654 174.523 204.715 174.523 203.557C174.523 202.399 175.462 201.459 176.62 201.459C177.778 201.459 178.717 202.398 178.717 203.557Z" fill="#A6A6A6"/>
<path d="M212.249 347.311C204.707 339.907 200.938 330.035 200.938 317.696V251.884C200.938 239.543 204.707 229.672 212.249 222.269C219.787 214.865 229.864 211.163 242.48 211.163C255.093 211.163 265.206 214.865 272.816 222.269C280.425 229.673 284.23 239.544 284.23 251.884V317.696C284.23 330.035 280.425 339.907 272.816 347.311C265.205 354.715 255.093 358.417 242.48 358.417C229.864 358.416 219.788 354.714 212.249 347.311ZM251.736 329.52C254.066 326.846 255.232 323.318 255.232 318.928V250.648C255.232 246.263 254.066 242.73 251.736 240.056C249.403 237.384 246.318 236.047 242.48 236.047C238.64 236.047 235.59 237.384 233.328 240.056C231.066 242.73 229.936 246.262 229.936 250.648V318.928C229.936 323.318 231.067 326.846 233.328 329.52C235.59 332.194 238.639 333.531 242.48 333.531C246.317 333.531 249.403 332.194 251.736 329.52Z" fill="#C76323"/>
<path d="M244.679 222.327C244.679 223.485 243.74 224.424 242.582 224.424C241.424 224.424 240.484 223.485 240.484 222.327C240.484 221.169 241.423 220.229 242.582 220.229C243.74 220.229 244.679 221.168 244.679 222.327Z" fill="#A6A6A6"/>
<path d="M308.68 322.786C302.222 314.175 299.793 303.474 301.389 290.684L313.84 190.888C313.925 190.209 314.233 189.661 314.77 189.243C315.305 188.827 315.912 188.659 316.595 188.744L340.473 191.723C341.152 191.808 341.699 192.119 342.118 192.655C342.534 193.192 342.7 193.799 342.616 194.478L329.809 297.131C329.266 301.486 329.913 305.158 331.751 308.15C333.586 311.145 336.274 312.86 339.813 313.302C343.349 313.743 346.341 312.737 348.792 310.276C351.239 307.819 352.736 304.414 353.279 300.059L366.086 197.406C366.171 196.727 366.479 196.179 367.016 195.761C367.551 195.345 368.158 195.177 368.841 195.262L392.718 198.241C393.396 198.326 393.944 198.637 394.363 199.172C394.779 199.709 394.945 200.316 394.861 200.995L382.41 300.791C380.814 313.581 375.829 323.357 367.456 330.118C359.08 336.88 348.84 339.505 336.731 337.995C324.486 336.468 315.135 331.399 308.68 322.786Z" fill="#C76323"/>
<path d="M87.1579 0.379851C87.7329 0.741851 88.0979 1.25485 88.2509 1.92185L92.7139 21.3659C92.8679 22.0359 92.7629 22.6569 92.4029 23.2309C92.0419 23.8089 91.5279 24.1709 90.8609 24.3239L65.8039 30.0759C65.1339 30.2299 64.8789 30.6408 65.0319 31.3078L90.8909 143.961C91.0449 144.631 90.9399 145.252 90.5809 145.825C90.2189 146.403 89.7049 146.765 89.0369 146.918L65.5839 152.301C64.9139 152.455 64.2949 152.353 63.7199 151.99C63.1429 151.631 62.7819 151.118 62.6279 150.448L36.7689 37.7949C36.6159 37.1279 36.2039 36.8699 35.5369 37.0229L11.4829 42.5438C10.8119 42.6978 10.1919 42.5959 9.61789 42.2329C9.03989 41.8749 8.6779 41.3609 8.5239 40.6899L4.0609 21.2459C3.9079 20.5789 4.00991 19.9589 4.37191 19.3809C4.73091 18.8069 5.2439 18.4419 5.9139 18.2879L85.2919 0.0668513C85.9609 -0.0841487 86.5809 0.020851 87.1579 0.379851Z" fill="#C76323"/>
<path d="M86.0826 456L83.2266 425.34H88.3926L89.9466 445.836C89.9746 446.228 90.0026 446.788 90.0306 447.516C90.0586 448.216 90.0866 448.958 90.1146 449.742C90.1706 450.498 90.1986 451.184 90.1986 451.8C90.2546 451.184 90.3106 450.498 90.3666 449.742C90.4506 448.958 90.5346 448.216 90.6186 447.516C90.7026 446.788 90.7586 446.228 90.7866 445.836L93.0546 425.34H97.8426L100.027 445.836C100.083 446.228 100.139 446.788 100.195 447.516C100.279 448.216 100.363 448.958 100.447 449.742C100.559 450.498 100.643 451.184 100.699 451.8C100.727 451.184 100.755 450.498 100.783 449.742C100.811 448.958 100.839 448.216 100.867 447.516C100.895 446.788 100.923 446.228 100.951 445.836L102.379 425.34H107.587L104.521 456H97.9686L95.9106 435.63C95.8546 435.154 95.7986 434.538 95.7426 433.782C95.6866 432.998 95.6306 432.186 95.5746 431.346C95.5186 430.506 95.4626 429.764 95.4066 429.12C95.3786 429.764 95.3366 430.506 95.2806 431.346C95.2246 432.186 95.1686 432.998 95.1126 433.782C95.0566 434.538 95.0006 435.154 94.9446 435.63L92.6766 456H86.0826ZM120.632 456.42C118.588 456.42 116.796 456.042 115.256 455.286C113.744 454.502 112.568 453.424 111.728 452.052C110.916 450.652 110.51 449.028 110.51 447.18V441.72C110.51 439.872 110.916 438.262 111.728 436.89C112.568 435.49 113.744 434.412 115.256 433.656C116.796 432.872 118.588 432.48 120.632 432.48C122.676 432.48 124.44 432.872 125.924 433.656C127.436 434.412 128.598 435.49 129.41 436.89C130.25 438.262 130.67 439.872 130.67 441.72V445.92H116.516V447.18C116.516 448.636 116.866 449.742 117.566 450.498C118.266 451.226 119.316 451.59 120.716 451.59C121.696 451.59 122.48 451.422 123.068 451.086C123.684 450.75 124.09 450.288 124.286 449.7H130.46C129.956 451.716 128.808 453.34 127.016 454.572C125.252 455.804 123.124 456.42 120.632 456.42ZM124.664 442.686V441.636C124.664 440.208 124.328 439.116 123.656 438.36C123.012 437.604 122.004 437.226 120.632 437.226C119.26 437.226 118.224 437.618 117.524 438.402C116.852 439.186 116.516 440.292 116.516 441.72V442.35L125.084 442.266L124.664 442.686ZM161.633 456L158.777 425.34H163.943L165.497 445.836C165.525 446.228 165.553 446.788 165.581 447.516C165.609 448.216 165.637 448.958 165.665 449.742C165.721 450.498 165.749 451.184 165.749 451.8C165.805 451.184 165.861 450.498 165.917 449.742C166.001 448.958 166.085 448.216 166.169 447.516C166.253 446.788 166.309 446.228 166.337 445.836L168.605 425.34H173.393L175.577 445.836C175.633 446.228 175.689 446.788 175.745 447.516C175.829 448.216 175.913 448.958 175.997 449.742C176.109 450.498 176.193 451.184 176.249 451.8C176.277 451.184 176.305 450.498 176.333 449.742C176.361 448.958 176.389 448.216 176.417 447.516C176.445 446.788 176.473 446.228 176.501 445.836L177.929 425.34H183.137L180.071 456H173.519L171.461 435.63C171.405 435.154 171.349 434.538 171.293 433.782C171.237 432.998 171.181 432.186 171.125 431.346C171.069 430.506 171.013 429.764 170.957 429.12C170.929 429.764 170.887 430.506 170.831 431.346C170.775 432.186 170.719 432.998 170.663 433.782C170.607 434.538 170.551 435.154 170.495 435.63L168.227 456H161.633ZM186.481 456V450.288H194.461V438.57H187.531V432.9H200.341V450.288H207.061V456H186.481ZM196.981 429.246C195.833 429.246 194.909 428.952 194.209 428.364C193.537 427.776 193.201 426.978 193.201 425.97C193.201 424.962 193.537 424.164 194.209 423.576C194.909 422.988 195.833 422.694 196.981 422.694C198.129 422.694 199.039 422.988 199.711 423.576C200.411 424.164 200.761 424.962 200.761 425.97C200.761 426.978 200.411 427.776 199.711 428.364C199.039 428.952 198.129 429.246 196.981 429.246ZM225.105 456C223.481 456 222.053 455.664 220.821 454.992C219.589 454.292 218.623 453.326 217.923 452.094C217.251 450.862 216.915 449.434 216.915 447.81V431.01H209.775V425.34H223.215V447.81C223.215 448.566 223.439 449.182 223.887 449.658C224.363 450.106 224.979 450.33 225.735 450.33H232.455V456H225.105ZM250.288 456C248.664 456 247.236 455.664 246.004 454.992C244.772 454.292 243.806 453.326 243.106 452.094C242.434 450.862 242.098 449.434 242.098 447.81V431.01H234.958V425.34H248.398V447.81C248.398 448.566 248.622 449.182 249.07 449.658C249.546 450.106 250.162 450.33 250.918 450.33H257.638V456H250.288ZM287.005 456V425.34H296.875C299.059 425.34 300.949 425.718 302.545 426.474C304.141 427.23 305.373 428.308 306.241 429.708C307.137 431.108 307.585 432.76 307.585 434.664C307.585 436.652 307.095 438.43 306.115 439.998C305.163 441.566 303.861 442.7 302.209 443.4L308.005 456H301.159L296.203 444.408H293.263V456H287.005ZM293.263 438.948H296.875C298.275 438.948 299.353 438.598 300.109 437.898C300.893 437.198 301.285 436.218 301.285 434.958C301.285 433.642 300.893 432.62 300.109 431.892C299.353 431.164 298.275 430.8 296.875 430.8H293.263V438.948ZM322.101 456.42C320.057 456.42 318.265 456.042 316.725 455.286C315.213 454.502 314.037 453.424 313.197 452.052C312.385 450.652 311.979 449.028 311.979 447.18V441.72C311.979 439.872 312.385 438.262 313.197 436.89C314.037 435.49 315.213 434.412 316.725 433.656C318.265 432.872 320.057 432.48 322.101 432.48C324.145 432.48 325.909 432.872 327.393 433.656C328.905 434.412 330.067 435.49 330.879 436.89C331.719 438.262 332.139 439.872 332.139 441.72V445.92H317.985V447.18C317.985 448.636 318.335 449.742 319.035 450.498C319.735 451.226 320.785 451.59 322.185 451.59C323.165 451.59 323.949 451.422 324.537 451.086C325.153 450.75 325.559 450.288 325.755 449.7H331.929C331.425 451.716 330.277 453.34 328.485 454.572C326.721 455.804 324.593 456.42 322.101 456.42ZM326.133 442.686V441.636C326.133 440.208 325.797 439.116 325.125 438.36C324.481 437.604 323.473 437.226 322.101 437.226C320.729 437.226 319.693 437.618 318.993 438.402C318.321 439.186 317.985 440.292 317.985 441.72V442.35L326.553 442.266L326.133 442.686ZM344.261 456.42C341.937 456.42 340.089 455.79 338.717 454.53C337.373 453.27 336.701 451.562 336.701 449.406C336.701 447.082 337.499 445.304 339.095 444.072C340.719 442.812 343.043 442.182 346.067 442.182H350.855V440.46C350.855 439.564 350.533 438.85 349.889 438.318C349.273 437.786 348.433 437.52 347.369 437.52C346.389 437.52 345.577 437.744 344.933 438.192C344.289 438.64 343.897 439.256 343.757 440.04H337.667C337.919 437.716 338.927 435.882 340.691 434.538C342.483 433.166 344.779 432.48 347.579 432.48C350.519 432.48 352.843 433.208 354.551 434.664C356.287 436.092 357.155 438.024 357.155 440.46V456H351.065V452.22H350.057L351.107 450.75C351.107 452.486 350.477 453.872 349.217 454.908C347.985 455.916 346.333 456.42 344.261 456.42ZM346.613 451.8C347.845 451.8 348.853 451.478 349.637 450.834C350.449 450.162 350.855 449.294 350.855 448.23V445.752H346.193C345.241 445.752 344.471 446.032 343.883 446.592C343.295 447.124 343.001 447.838 343.001 448.734C343.001 449.686 343.323 450.442 343.967 451.002C344.611 451.534 345.493 451.8 346.613 451.8ZM372.552 456.42C370.508 456.42 368.716 456.042 367.176 455.286C365.636 454.502 364.446 453.424 363.606 452.052C362.766 450.652 362.346 449.028 362.346 447.18V441.72C362.346 439.844 362.766 438.22 363.606 436.848C364.446 435.476 365.636 434.412 367.176 433.656C368.716 432.872 370.508 432.48 372.552 432.48C375.604 432.48 378.04 433.25 379.86 434.79C381.68 436.33 382.646 438.43 382.758 441.09H376.458C376.374 440.11 375.982 439.34 375.282 438.78C374.61 438.22 373.7 437.94 372.552 437.94C371.292 437.94 370.326 438.262 369.654 438.906C368.982 439.55 368.646 440.488 368.646 441.72V447.18C368.646 448.384 368.982 449.322 369.654 449.994C370.326 450.638 371.292 450.96 372.552 450.96C373.7 450.96 374.61 450.694 375.282 450.162C375.982 449.602 376.374 448.818 376.458 447.81H382.758C382.646 450.47 381.68 452.57 379.86 454.11C378.04 455.65 375.604 456.42 372.552 456.42ZM387.782 456V425.34H394.082V432.9L393.872 437.31H395.72L393.872 438.78C393.872 436.82 394.432 435.28 395.552 434.16C396.672 433.04 398.184 432.48 400.088 432.48C402.328 432.48 404.12 433.264 405.464 434.832C406.836 436.4 407.522 438.486 407.522 441.09V456H401.222V441.72C401.222 440.516 400.9 439.592 400.256 438.948C399.64 438.276 398.758 437.94 397.61 437.94C396.49 437.94 395.622 438.276 395.006 438.948C394.39 439.592 394.082 440.516 394.082 441.72V456H387.782ZM152.36 518.56L155.51 509.866L146.858 487.9H153.704L157.19 497.98C157.442 498.736 157.694 499.66 157.946 500.752C158.226 501.816 158.436 502.684 158.576 503.356C158.716 502.684 158.912 501.816 159.164 500.752C159.444 499.66 159.71 498.736 159.962 497.98L163.322 487.9H169.874L158.954 518.56H152.36ZM183.549 511.42C181.505 511.42 179.727 511.042 178.215 510.286C176.703 509.502 175.527 508.424 174.687 507.052C173.875 505.652 173.469 504.028 173.469 502.18V496.72C173.469 494.872 173.875 493.262 174.687 491.89C175.527 490.49 176.703 489.412 178.215 488.656C179.727 487.872 181.505 487.48 183.549 487.48C185.621 487.48 187.399 487.872 188.883 488.656C190.395 489.412 191.557 490.49 192.369 491.89C193.209 493.262 193.629 494.872 193.629 496.72V502.18C193.629 504.028 193.209 505.652 192.369 507.052C191.557 508.424 190.395 509.502 188.883 510.286C187.399 511.042 185.621 511.42 183.549 511.42ZM183.549 505.96C184.781 505.96 185.719 505.638 186.363 504.994C187.007 504.322 187.329 503.384 187.329 502.18V496.72C187.329 495.488 187.007 494.55 186.363 493.906C185.719 493.262 184.781 492.94 183.549 492.94C182.345 492.94 181.407 493.262 180.735 493.906C180.091 494.55 179.769 495.488 179.769 496.72V502.18C179.769 503.384 180.091 504.322 180.735 504.994C181.407 505.638 182.345 505.96 183.549 505.96ZM208.733 511.42C205.625 511.42 203.189 510.58 201.425 508.9C199.689 507.22 198.821 504.924 198.821 502.012V487.9H205.121V501.97C205.121 503.258 205.429 504.252 206.045 504.952C206.661 505.624 207.557 505.96 208.733 505.96C209.881 505.96 210.763 505.624 211.379 504.952C212.023 504.252 212.345 503.258 212.345 501.97V487.9H218.645V502.012C218.645 504.952 217.763 507.262 215.999 508.942C214.235 510.594 211.813 511.42 208.733 511.42ZM259.1 511.42C256.944 511.42 255.068 511.056 253.472 510.328C251.876 509.6 250.644 508.578 249.776 507.262C248.908 505.946 248.474 504.392 248.474 502.6H254.774C254.774 503.636 255.166 504.462 255.95 505.078C256.762 505.666 257.854 505.96 259.226 505.96C260.542 505.96 261.564 505.666 262.292 505.078C263.048 504.49 263.426 503.678 263.426 502.642C263.426 501.746 263.146 500.976 262.586 500.332C262.026 499.688 261.242 499.254 260.234 499.03L257.126 498.316C254.522 497.7 252.492 496.566 251.036 494.914C249.608 493.234 248.894 491.19 248.894 488.782C248.894 486.99 249.3 485.436 250.112 484.12C250.952 482.776 252.128 481.74 253.64 481.012C255.152 480.284 256.944 479.92 259.016 479.92C262.152 479.92 264.63 480.704 266.45 482.272C268.298 483.812 269.222 485.898 269.222 488.53H262.922C262.922 487.55 262.572 486.78 261.872 486.22C261.2 485.66 260.22 485.38 258.932 485.38C257.728 485.38 256.804 485.66 256.16 486.22C255.516 486.752 255.194 487.522 255.194 488.53C255.194 489.426 255.446 490.196 255.95 490.84C256.482 491.456 257.224 491.876 258.176 492.1L261.452 492.856C264.168 493.472 266.226 494.592 267.626 496.216C269.026 497.812 269.726 499.856 269.726 502.348C269.726 504.14 269.278 505.722 268.382 507.094C267.514 508.466 266.282 509.53 264.686 510.286C263.118 511.042 261.256 511.42 259.1 511.42ZM284.284 511.42C282.24 511.42 280.462 511.042 278.95 510.286C277.438 509.502 276.262 508.424 275.422 507.052C274.61 505.652 274.204 504.028 274.204 502.18V496.72C274.204 494.872 274.61 493.262 275.422 491.89C276.262 490.49 277.438 489.412 278.95 488.656C280.462 487.872 282.24 487.48 284.284 487.48C286.356 487.48 288.134 487.872 289.618 488.656C291.13 489.412 292.292 490.49 293.104 491.89C293.944 493.262 294.364 494.872 294.364 496.72V502.18C294.364 504.028 293.944 505.652 293.104 507.052C292.292 508.424 291.13 509.502 289.618 510.286C288.134 511.042 286.356 511.42 284.284 511.42ZM284.284 505.96C285.516 505.96 286.454 505.638 287.098 504.994C287.742 504.322 288.064 503.384 288.064 502.18V496.72C288.064 495.488 287.742 494.55 287.098 493.906C286.454 493.262 285.516 492.94 284.284 492.94C283.08 492.94 282.142 493.262 281.47 493.906C280.826 494.55 280.504 495.488 280.504 496.72V502.18C280.504 503.384 280.826 504.322 281.47 504.994C282.142 505.638 283.08 505.96 284.284 505.96ZM309.467 511.42C307.423 511.42 305.645 511.042 304.133 510.286C302.621 509.502 301.445 508.424 300.605 507.052C299.793 505.652 299.387 504.028 299.387 502.18V496.72C299.387 494.872 299.793 493.262 300.605 491.89C301.445 490.49 302.621 489.412 304.133 488.656C305.645 487.872 307.423 487.48 309.467 487.48C311.539 487.48 313.317 487.872 314.801 488.656C316.313 489.412 317.475 490.49 318.287 491.89C319.127 493.262 319.547 494.872 319.547 496.72V502.18C319.547 504.028 319.127 505.652 318.287 507.052C317.475 508.424 316.313 509.502 314.801 510.286C313.317 511.042 311.539 511.42 309.467 511.42ZM309.467 505.96C310.699 505.96 311.637 505.638 312.281 504.994C312.925 504.322 313.247 503.384 313.247 502.18V496.72C313.247 495.488 312.925 494.55 312.281 493.906C311.637 493.262 310.699 492.94 309.467 492.94C308.263 492.94 307.325 493.262 306.653 493.906C306.009 494.55 305.687 495.488 305.687 496.72V502.18C305.687 503.384 306.009 504.322 306.653 504.994C307.325 505.638 308.263 505.96 309.467 505.96ZM324.823 511V487.9H330.913V492.31H332.761L330.913 493.78C330.913 491.82 331.473 490.28 332.593 489.16C333.713 488.04 335.225 487.48 337.129 487.48C339.369 487.48 341.161 488.264 342.505 489.832C343.877 491.4 344.563 493.486 344.563 496.09V511H338.263V496.72C338.263 495.516 337.941 494.592 337.297 493.948C336.681 493.276 335.799 492.94 334.651 492.94C333.531 492.94 332.663 493.276 332.047 493.948C331.431 494.592 331.123 495.516 331.123 496.72V511H324.823Z" fill="white"/>
</svg>
