<svg width="76" height="62" viewBox="0 0 76 62" fill="none" xmlns="http://www.w3.org/2000/svg">
<path d="M4.04233 39.736C10.0661 47.8981 28.8559 61.6853 36.7121 61.386C42.3946 61.1694 60.0542 42.994 64.8016 37.0399C69.3818 31.295 50.7298 20.3245 47.9361 23.6242C43.4207 28.9557 36.0895 40.9335 33.9422 41.5143C32.4354 41.9219 23.0142 38.951 8.71846 33.4211C-0.0169837 30.0409 0.446449 34.863 4.04233 39.736Z" fill="#EB9481"/>
<path d="M72.4487 29.02C70.2135 33.0006 62.4575 39.3541 59.9968 40.1669C57.5361 40.9798 46.2965 28.1539 46.8058 25.5439C47.3152 22.9339 55.8792 10.1137 60.1994 8.36911C64.5195 6.62366 74.765 24.8951 72.4487 29.02Z" fill="#EB9481"/>
<path d="M47.8825 23.1028C47.8825 23.1028 48.7322 17.225 47.7094 12.0945C46.8498 7.78005 45.0847 1.47084 47.3879 0.922109C52.1157 -0.205706 56.5096 15.5304 56.5096 15.5304C56.5096 15.5304 57.334 22.7837 52.7489 24.3159C49.874 25.2764 47.8825 23.1028 47.8825 23.1028Z" fill="#EB9481"/>
<path d="M54.0954 12.3861C54.1733 14.8034 56.9777 13.3278 56.9777 13.3278C56.9777 13.3278 53.4532 16.425 54.4973 18.8865C55.5103 21.2561 58.8355 19.354 59.075 19.2211C58.8897 19.3868 55.7252 22.3175 57.0294 24.6822C58.3868 27.1396 61.3971 24.6568 61.5907 24.496C61.4652 24.7068 59.8501 27.5268 61.2495 29.0983C63.656 31.7977 67.9827 24.7027 70.8552 24.1335C70.8552 24.1335 72.3759 28.8908 72.4489 29.0196C72.4489 29.0196 76.7042 22.3536 75.7191 18.5223C75.1999 16.5029 73.2158 16.5882 73.2158 16.5882C73.2158 16.5882 74.8251 14.5901 73.8572 12.6954C73.3577 11.7242 71.3596 11.6586 71.3596 11.6586C71.3596 11.6586 72.5817 10.005 71.6155 8.37358C70.8486 7.06942 68.9637 7.20639 68.9637 7.20639C68.9637 7.20639 69.4001 5.07462 68.1837 3.99602C65.7345 1.81585 53.933 7.20886 54.0954 12.3861Z" fill="#EB9481"/>
<path d="M68.6597 7.18147C68.6999 7.1667 68.6876 7.10682 68.6442 7.11503C64.3298 7.941 59.8431 10.1712 56.8165 13.3906C56.7172 13.4964 56.846 13.7031 56.9772 13.608C60.7306 10.8873 64.2797 8.77189 68.6597 7.18147Z" fill="#263238"/>
<path d="M71.404 11.6078C71.4516 11.5905 71.4237 11.5118 71.3704 11.5225C66.9296 12.3977 61.9451 15.0486 58.893 19.1703C58.788 19.3122 58.8364 19.5435 58.9685 19.3901C61.2069 16.8031 67.4546 13.0186 71.404 11.6078Z" fill="#263238"/>
<path d="M61.4703 24.8557C64.5503 21.0171 68.5505 18.5523 73.0232 16.6108C73.0815 16.5854 73.0396 16.5058 72.9855 16.5132C70.5387 16.8667 67.8164 18.4013 65.8003 19.7744C63.8686 21.0901 62.3898 22.6649 61.3374 24.7475C61.2956 24.8295 61.4047 24.9378 61.4703 24.8557Z" fill="#263238"/>
<path d="M56.8982 13.3164C56.7792 13.4435 57.0958 13.478 56.9802 13.6084C56.4962 14.158 53.8682 17.7137 54.8017 18.985C55.5522 20.0021 57.4395 19.6994 58.1187 19.2992L59.8272 18.2919L58.5731 19.8323C58.026 20.5049 57.542 21.2915 57.2451 22.1011C56.9466 22.9082 56.8637 23.7916 57.241 24.474C57.6208 25.195 58.327 25.5788 59.1103 25.4009C59.892 25.2573 60.6876 24.7602 61.3233 24.2099L63.1007 22.6728L61.9294 24.6979C61.612 25.2466 61.3422 25.8733 61.1756 26.4918C61.0132 27.111 60.9509 27.7631 61.1453 28.3045C61.334 28.836 61.8163 29.2699 62.3535 29.3133C62.9186 29.3683 63.551 29.0984 64.1244 28.7843C65.2875 28.1289 66.3251 27.2144 67.3987 26.3597C67.9335 25.9274 68.4699 25.4919 69.0277 25.0826C69.5863 24.6873 70.1728 24.264 70.8585 24.1319C70.1949 24.3329 69.6732 24.8054 69.1458 25.2319C68.6266 25.6781 68.1279 26.1489 67.6284 26.6213C66.6277 27.5654 65.6098 28.5054 64.4123 29.2723C63.8069 29.6308 63.1376 29.9982 62.3092 29.9736C61.4545 29.9425 60.7418 29.3043 60.4694 28.553C60.1889 27.7877 60.2775 27.0052 60.4465 26.3031C60.6294 25.592 60.8968 24.9399 61.2569 24.2927L61.8622 24.7799C61.1158 25.4361 60.3029 25.9873 59.2621 26.2129C58.7494 26.3211 58.1506 26.2728 57.6495 26.0013C57.145 25.7306 56.7866 25.3131 56.5381 24.8415C56.0263 23.8588 56.1944 22.7318 56.5422 21.837C56.9014 20.9167 57.4133 20.1145 58.0416 19.364L58.4951 19.8971C57.6142 20.3769 55.5415 20.9454 54.1791 19.5141C52.6822 17.3856 56.2083 13.907 56.8982 13.3164Z" fill="#263238"/>
<path d="M56.9791 13.3275C56.4698 13.4653 55.9612 13.5531 55.5085 13.5301C55.0549 13.5104 54.694 13.2955 54.5217 12.9625C54.3413 12.6319 54.3495 12.1472 54.4061 11.6682C54.4782 11.1867 54.5775 10.6831 54.7022 10.168C54.3445 10.5633 54.064 11.0276 53.8918 11.5476C53.7261 12.0602 53.6293 12.6729 53.9238 13.2791C54.0911 13.5678 54.3306 13.7991 54.6251 13.9377C54.9244 14.0665 55.2419 14.0985 55.5298 14.0559C56.1097 13.9804 56.5944 13.6925 56.9791 13.3275Z" fill="#263238"/>
<path d="M29.226 40.1887L24.7639 59.7495C24.7639 59.7495 13.4899 50.6803 6.21281 43.2342C-1.06508 35.7882 -2.74655 29.3559 7.53995 32.4835C17.8256 35.6118 29.226 40.1887 29.226 40.1887Z" fill="#C76323"/>
<path opacity="0.1" d="M16.2571 35.3525L12.8203 49.5425C13.0336 49.7394 13.255 49.9362 13.4683 50.1249L16.9789 35.6068C16.741 35.5248 16.5031 35.4346 16.2571 35.3525ZM19.8989 36.6485L16.0766 52.4379C16.2899 52.6266 16.5113 52.8152 16.7246 53.0039L20.6125 36.911C20.3828 36.8289 20.145 36.7387 19.8989 36.6485ZM23.5243 37.9937L19.3411 55.2513C19.5626 55.44 19.7759 55.6204 19.9891 55.8009L24.2379 38.2644C24.0082 38.1741 23.7704 38.0839 23.5243 37.9937ZM27.1415 39.3717L22.6303 58.0073C22.8599 58.2041 23.0814 58.3846 23.2782 58.5486L27.8551 39.6505C27.6419 39.5685 27.404 39.4783 27.1415 39.3717Z" fill="#030402"/>
<path d="M25.1348 39.9001C24.7 41.2781 24.4195 42.7119 24.1086 44.1219C23.8043 45.5048 23.5107 46.8893 23.2244 48.2763C22.6454 51.084 22.0482 53.8842 21.6881 56.7296C21.6783 56.8059 21.7833 56.828 21.8046 56.7534C22.592 53.9958 23.1424 51.1865 23.7141 48.3772C23.9963 46.9894 24.2711 45.6007 24.5343 44.2096C24.8034 42.7906 25.1085 41.3618 25.2504 39.9239C25.2586 39.8477 25.1577 39.8263 25.1348 39.9001Z" fill="#263238"/>
<path opacity="0.1" d="M26.7577 51.0039L24.7646 59.7475C24.7646 59.7475 13.4864 50.684 6.21096 43.2363C0.420138 37.3061 -1.82729 32.0238 2.68397 31.6875L26.7577 51.0039Z" fill="black"/>
</svg>
