<svg width="500" height="500" viewBox="0 0 500 500" fill="none" xmlns="http://www.w3.org/2000/svg">
<path d="M78.9881 128.667L96.4541 161.013L81.6641 169.004L64.2031 136.644L78.9881 128.667Z" fill="#EBEBEB"/>
<path d="M43.6985 147.719L40.8828 149.239L58.3475 181.584L61.1632 180.064L43.6985 147.719Z" fill="#EBEBEB"/>
<path d="M194.647 126.858L186.836 112.381L103.002 157.485L85.5234 125.135L169.353 80.0454L161.542 65.5674L231.165 67.5734L194.647 126.858Z" fill="#EBEBEB"/>
<path d="M58.3483 139.806L75.8143 172.152L66.2423 177.324L48.7812 144.987L58.3483 139.806Z" fill="#EBEBEB"/>
<path d="M274.512 161.841L291.978 194.187L277.189 202.177L259.727 169.818L274.512 161.841Z" fill="#EBEBEB"/>
<path d="M239.222 180.895L236.406 182.415L253.871 214.76L256.687 213.24L239.222 180.895Z" fill="#EBEBEB"/>
<path d="M361.887 175.172L354.076 160.695L298.534 190.659L281.055 158.309L336.593 128.358L328.782 113.881L398.404 115.886L361.887 175.172Z" fill="#EBEBEB"/>
<path d="M253.88 172.979L271.345 205.325L261.773 210.497L244.312 178.16L253.88 172.979Z" fill="#EBEBEB"/>
<path d="M56.9696 301.25L49.4156 313.428L53.1456 315.738C54.2426 316.418 54.8366 317.658 54.7276 318.943C54.6666 319.653 54.6436 320.369 54.6596 321.085C54.6876 322.372 54.0156 323.569 52.8816 324.177L49.0156 326.25L55.7906 338.884L59.6566 336.811C60.7906 336.203 62.1596 336.305 63.2156 337.04C63.8046 337.45 64.4126 337.826 65.0376 338.169C66.1696 338.788 66.8736 339.97 66.8326 341.259L66.6936 345.644L81.0176 346.089L81.1506 341.688C81.1896 340.397 81.9806 339.274 83.1476 338.723C83.4646 338.573 83.7786 338.415 84.0906 338.248C84.4016 338.081 84.7076 337.907 85.0076 337.726C86.1076 337.062 87.4736 337.023 88.5656 337.7L92.3226 340.027L99.8766 327.849L96.1406 325.53C95.0446 324.849 94.4506 323.608 94.5626 322.322C94.6246 321.614 94.6476 320.902 94.6326 320.188C94.6056 318.903 95.2776 317.707 96.4106 317.1L100.278 315.026L93.5026 302.393L89.6356 304.467C88.5026 305.075 87.1346 304.972 86.0786 304.239C85.4926 303.832 84.8856 303.457 84.2626 303.117C83.1296 302.499 82.4236 301.317 82.4636 300.027L82.5986 295.631L68.2746 295.186L68.1376 299.584C68.0976 300.87 67.3086 301.989 66.1456 302.538C65.8276 302.689 65.5106 302.848 65.1966 303.017C64.8856 303.184 64.5796 303.358 64.2796 303.539C63.1746 304.207 61.8016 304.245 60.7036 303.564L56.9696 301.25ZM69.0976 310.294C74.8106 307.23 81.9196 309.376 84.9826 315.089C88.0466 320.802 85.9066 327.921 80.1936 330.985C74.4806 334.049 67.3566 331.899 64.2926 326.186C61.2286 320.472 63.3846 313.358 69.0976 310.294Z" fill="#EBEBEB"/>
<path d="M415.329 130.028L420.346 138.724L423.007 137.187C423.79 136.735 424.752 136.778 425.51 137.272C425.928 137.545 426.362 137.796 426.81 138.023C427.613 138.431 428.13 139.243 428.13 140.144V143.217H438.173V140.144C438.173 139.243 438.69 138.431 439.493 138.023C439.941 137.795 440.375 137.545 440.794 137.272C441.551 136.779 442.514 136.735 443.296 137.187L445.957 138.724L450.975 130.028L448.301 128.489C447.517 128.038 447.086 127.178 447.132 126.274C447.144 126.029 447.151 125.782 447.151 125.535C447.151 125.288 447.145 125.041 447.132 124.796C447.086 123.897 447.514 123.041 448.294 122.59L450.975 121.041L445.957 112.345L443.288 113.884C442.505 114.335 441.542 114.291 440.785 113.796C440.368 113.524 439.936 113.273 439.49 113.046C438.688 112.637 438.172 111.826 438.172 110.926V107.852H428.129V110.926C428.129 111.826 427.613 112.637 426.811 113.046C426.365 113.273 425.933 113.524 425.517 113.796C424.76 114.291 423.797 114.335 423.014 113.884L420.345 112.345L415.328 121.041L417.997 122.581C418.778 123.031 419.207 123.889 419.162 124.789C419.149 125.035 419.143 125.283 419.143 125.533C419.143 125.78 419.149 126.027 419.162 126.272C419.208 127.175 418.777 128.036 417.993 128.488L415.329 130.028ZM424.928 125.535C424.928 120.994 428.607 117.315 433.148 117.315C437.69 117.315 441.376 120.993 441.376 125.535C441.376 130.077 437.689 133.763 433.148 133.763C428.606 133.763 424.928 130.077 424.928 125.535Z" fill="#EBEBEB"/>
<path d="M159.676 220.337C158.842 215.179 156.981 210.354 154.312 206.081L160.741 198.574L151.284 189.117L144.201 195.161C139.992 192.069 135.129 189.81 129.868 188.617L129.149 179.391H115.778L115.098 188.078C109.568 188.925 104.422 190.939 99.9185 193.865L93.2465 188.155L83.7895 197.612L89.2815 204.028C86.1125 208.442 83.8535 213.549 82.7625 219.067L74.0625 219.747V233.118L82.6595 233.798C83.6475 239.239 85.7645 244.294 88.7805 248.696L82.8265 255.651L92.2835 265.108L99.2515 259.141H99.2645C103.537 262.028 108.413 264.094 113.661 265.095L114.418 274.834H127.789L128.547 265.095C133.641 264.133 138.375 262.156 142.545 259.411L150.321 266.058L159.778 256.601L153.248 248.979C156.071 244.911 158.149 240.279 159.252 235.275L169.506 234.479V221.096L159.676 220.337ZM139.377 226.715C139.377 236.801 131.189 244.975 121.104 244.975C111.018 244.975 102.844 236.801 102.844 226.715C102.844 216.629 111.018 208.455 121.104 208.455C131.191 208.455 139.377 216.629 139.377 226.715Z" stroke="#EBEBEB" stroke-miterlimit="10"/>
<path d="M316.79 37.8985C316.79 47.8845 308.69 55.9845 298.704 55.9845C294.668 55.9845 290.942 54.6615 287.93 52.4175L279.07 54.6795L282.758 46.4295C281.388 43.8865 280.618 40.9765 280.618 37.8985C280.618 27.9125 288.717 19.8125 298.703 19.8125C308.69 19.8125 316.79 27.9125 316.79 37.8985Z" fill="white"/>
<path d="M316.791 37.8981C316.989 48.2861 307.456 57.0761 297.128 56.1521C293.762 55.9101 290.465 54.7011 287.719 52.7031L288.02 52.7621C285.076 53.5531 282.133 54.3451 279.181 55.1041L278.305 55.3291L278.671 54.4991L282.321 46.2321L282.337 46.6571C276.549 36.3501 282.719 22.6341 294.245 20.1071C305.488 17.2331 316.976 26.3161 316.791 37.8981ZM316.791 37.8981C316.868 26.3881 305.489 17.5261 294.377 20.6391C283.337 23.3891 277.695 36.5161 283.296 46.4131L283.199 46.6261L279.472 54.8581L278.963 54.2531C281.974 53.4901 284.994 52.7611 288.013 52.0301C290.634 54.0711 293.839 55.3601 297.169 55.6791C307.479 56.8261 316.864 48.2531 316.791 37.8981Z" fill="#263238"/>
<path d="M295.777 48.6587L287.672 40.4547L290.395 37.7647L295.13 42.5567L304.966 27.1357L308.193 29.1947L295.777 48.6587Z" fill="#C76323"/>
<path d="M397.664 165.686L456.867 137.843L451.387 203.038L397.664 165.686Z" fill="#C76323"/>
<path d="M439.932 183.756L345.03 313.741L197.521 274.534L43.1328 407.734V375.634L191.403 247.873L335.248 286.101L420.403 169.492L439.932 183.756Z" fill="#C76323"/>
<path d="M434.58 316.291H346.68V478.107H434.58V316.291Z" fill="#455A64"/>
<path d="M434.572 478.109H456.867V316.334H434.572V478.109Z" fill="#C76323"/>
<path d="M434.572 478.109H456.867V316.334H434.572V478.109Z" fill="#37474F"/>
<path d="M131.033 375.643H43.1328V478.122H131.033V375.643Z" fill="#455A64"/>
<path d="M131.025 478.123H153.32V375.67H131.025V478.123Z" fill="#C76323"/>
<path d="M131.025 478.123H153.32V375.67H131.025V478.123Z" fill="#37474F"/>
<path d="M250.746 62.8803C250.245 63.0533 249.775 63.3163 249.373 63.6713C247.558 65.2793 247.228 67.8513 247.377 70.1273C247.545 72.5623 248.286 75.1273 247.632 77.5393C247.378 78.4833 246.886 79.3943 246.058 79.9373C245.123 80.5513 244.006 80.4643 242.975 80.1853C241.889 79.8973 240.663 79.3133 239.535 79.7613C238.599 80.1283 238.046 81.1003 237.816 82.0363C237.222 84.4663 238.792 86.8593 239.174 89.2103C239.588 91.7243 239.222 94.3223 238.14 96.6313C237.132 98.7873 235.452 100.601 233.431 101.843C232.446 102.45 231.36 102.932 230.247 103.232C228.994 103.564 227.69 103.619 226.424 103.896C225.25 104.156 223.977 104.679 223.358 105.778C222.877 106.627 223.018 110.219 225.816 113.616C226.016 113.859 225.564 114.204 225.273 114.032C224.707 113.706 224.163 113.351 223.645 112.96C219.312 109.723 216.726 104.509 216.848 99.0913C216.916 96.1953 217.723 93.3843 219.136 90.8663C219.921 89.4743 220.831 88.1253 221.376 86.6123C221.858 85.2623 221.92 83.8553 221.737 82.4413C221.38 79.7553 220.385 77.1883 220.497 74.4433C220.602 71.9943 221.387 69.6053 222.641 67.5063C225.275 63.1203 229.772 60.2023 234.787 59.3403C239.73 58.4973 251.023 62.7793 250.746 62.8803Z" fill="#263238"/>
<path d="M250.592 62.9361C249.65 63.3921 248.734 63.9551 248.082 64.7921C247.494 65.5451 247.153 66.4621 247 67.3991C246.657 69.5091 247.197 71.5611 247.667 73.6041C248.109 75.5241 248.476 77.5791 247.712 79.4671C247.389 80.2661 246.875 81.0341 246.165 81.5371C245.359 82.1081 244.405 82.2161 243.445 82.0681C241.699 81.7991 239.583 80.9021 238.041 82.2511C236.553 83.5531 236.968 85.9111 237.256 87.6191C237.958 91.7871 239.486 97.0841 236.138 100.565C234.444 102.326 231.959 103.44 229.667 104.173C228.013 104.702 225.914 105.358 225.215 107.127C225.189 107.193 225.294 107.219 225.32 107.155C226.087 105.295 228.306 105.003 230.019 104.532C232.029 103.98 234.05 103.108 235.71 101.829C237.42 100.511 238.406 98.6451 238.733 96.5261C239.065 94.3731 238.762 92.2171 238.354 90.0961C238.145 89.0091 237.913 87.9261 237.736 86.8321C237.577 85.8481 237.454 84.8011 237.739 83.8271C238.043 82.7891 238.88 82.1821 239.946 82.1091C240.99 82.0381 241.984 82.3711 242.999 82.5541C243.906 82.7181 244.834 82.7571 245.7 82.3991C246.394 82.1121 246.983 81.6221 247.442 81.0331C248.495 79.6821 248.846 77.9421 248.711 76.2611C248.519 73.8771 247.541 71.6291 247.392 69.2411C247.316 68.0221 247.434 66.7381 248.009 65.6401C248.613 64.4871 249.658 63.8391 250.723 63.1631C250.867 63.0721 250.743 62.8631 250.592 62.9361Z" fill="#263238"/>
<path d="M232.873 58.1831C227.807 58.9601 223.709 62.8121 221.948 67.5201C220.961 70.1601 220.719 72.9951 221.041 75.7821C221.342 78.3841 222.008 81.0011 221.74 83.6351C221.444 86.5501 219.603 88.7841 218.149 91.2081C216.971 93.1721 216.232 95.3451 215.981 97.6231C215.499 101.993 216.804 106.539 219.579 109.952C219.933 110.387 220.303 110.805 220.699 111.203C220.748 111.253 220.825 111.177 220.776 111.126C217.69 107.957 216.237 103.421 216.469 99.0421C216.584 96.8871 217.114 94.7571 218.078 92.8231C219.27 90.4341 221.152 88.4251 222.027 85.8731C222.848 83.4811 222.515 80.9071 222.125 78.4681C221.699 75.8031 221.295 73.1721 221.78 70.4811C222.679 65.4871 226.068 61.0241 230.928 59.3201C236.349 57.4201 242.032 59.2821 246.996 61.6001C247.66 61.9101 248.322 62.2241 248.982 62.5411C249.057 62.5771 249.123 62.4681 249.048 62.4281C244.117 59.8231 238.598 57.3051 232.873 58.1831Z" fill="#263238"/>
<path d="M252.368 60.3563C251.705 59.7983 250.443 59.5943 249.973 59.9373C249.503 60.2803 248.316 64.6473 248.93 65.5893C249.543 66.5323 251.431 65.6693 251.431 65.6693L252.368 60.3563Z" fill="#C76323"/>
<path d="M247.467 366.044C246.328 366.218 230.974 369.074 215.05 366.163C200.067 363.424 183.487 359.371 182.508 358.477C181.728 357.789 195.811 300.338 195.811 300.338L234.793 308.041L225 345.53L224.87 346.182C224.87 346.182 227.928 348.622 234.464 352.757C235.631 353.495 247.704 356.972 248.553 357.928C250.544 360.182 249.677 365.716 247.467 366.044Z" fill="#D3766A"/>
<path d="M247.47 366.041C246.332 366.214 230.979 369.073 215.054 366.169C200.062 363.426 183.479 359.378 182.509 358.469C182.264 358.26 183.433 352.663 185.165 345.025C194.74 348.515 224.299 357.667 228.674 358.191C233.716 358.814 241.335 359.533 240.742 357.607C240.234 355.927 235.809 353.466 234.708 352.887C236.781 353.816 247.753 357.018 248.547 357.935C250.537 360.176 249.673 365.714 247.47 366.041Z" fill="#263238"/>
<path d="M260.731 126.057C260.731 126.057 263.557 153.077 257.913 159.155C257.913 159.155 251.805 228.302 249.833 246.44C247.036 272.172 231.255 337.257 231.255 337.257L188.617 326.394C188.617 326.394 207.375 245.66 207.551 244.116C208.132 239.01 215.362 164.17 214.849 162.665C208.231 143.245 217.58 125.534 217.58 125.534L260.731 126.057Z" fill="#263238"/>
<path d="M227.798 326.508C222.211 324.891 223.843 325.252 218.233 323.717C215.488 322.966 197.442 318.053 194.723 317.943C194.663 317.941 194.63 318.066 194.684 318.093C197.112 319.321 215.265 323.82 218.029 324.502C223.676 325.894 222.075 325.414 227.742 326.723C227.848 326.748 227.903 326.539 227.798 326.508Z" fill="#37474F"/>
<path d="M214.062 317.944C219.09 295.226 224.789 272.586 228.475 249.608C229.35 233.01 230.687 216.393 232.098 199.836C233.242 186.906 234.289 172.372 235.624 160.249C232.662 155.697 232.058 150.088 232.359 144.796C232.681 139.496 233.796 134.257 235.501 129.239C233.918 134.279 232.926 139.534 232.729 144.812C232.574 150.032 233.225 155.587 236.214 159.985C235.146 173.302 232.451 206.95 231.459 219.818C230.781 228.876 229.901 238.088 229.568 247.173C228.552 257.987 225.677 268.514 223.436 279.113C220.495 292.102 217.306 305.031 214.062 317.944Z" fill="#37474F"/>
<path d="M252.138 222.871L217.57 125.533L260.722 126.064C260.722 126.064 263.557 153.072 257.915 159.161C257.915 159.161 254.953 197.73 252.138 222.871Z" fill="#37474F"/>
<path d="M346.381 316.601C344.265 317.268 284.084 316.067 281.823 314.564C280.954 314.008 282.302 263.457 282.302 263.457L320.117 262.74L319.324 295.276C319.324 295.276 342.154 306.039 344.467 307.953C346.761 309.86 348.498 315.944 346.381 316.601Z" fill="#D3766A"/>
<path d="M346.384 316.601C345.452 316.894 333.316 316.826 319.801 316.533C318.914 316.511 318.016 316.489 317.119 316.467C314.813 316.421 312.485 316.356 310.178 316.29C309.28 316.258 308.381 316.226 307.494 316.203L307.452 316.205C306.564 316.172 305.676 316.139 304.81 316.116C303.463 316.078 302.147 316.028 300.862 315.977C300.026 315.941 299.201 315.905 298.397 315.878L298.366 315.88C297.561 315.843 296.767 315.804 296.004 315.775L295.973 315.777C294.813 315.728 293.706 315.677 292.649 315.612C291.938 315.58 291.238 315.547 290.568 315.501C289.261 315.43 288.068 315.352 287.011 315.266C286.478 315.234 285.975 315.19 285.513 315.143C284.361 315.042 283.438 314.938 282.806 314.829C282.29 314.744 281.951 314.648 281.821 314.562C281.518 314.371 281.688 307.436 281.688 299.402C287.481 300.833 298.667 303.094 314.895 305.629C341.576 309.798 333.698 302.514 329.188 300.019C329.145 299.99 329.102 299.972 329.059 299.943C329.337 300.073 329.627 300.213 329.906 300.353C329.949 300.372 330.002 300.389 330.045 300.418C330.56 300.67 331.074 300.922 331.589 301.174C332.147 301.445 332.715 301.725 333.273 302.006C334.206 302.463 335.139 302.921 336.03 303.381C336.931 303.819 337.79 304.26 338.606 304.683C339.089 304.937 339.562 305.181 340.012 305.405C340.237 305.517 340.453 305.641 340.668 305.753C340.958 305.903 341.248 306.054 341.517 306.205C342.119 306.525 342.646 306.818 343.099 307.084C343.206 307.14 343.314 307.197 343.411 307.264C343.896 307.549 344.254 307.789 344.461 307.955C346.76 309.856 348.493 315.938 346.384 316.601Z" fill="#263238"/>
<path d="M321.237 287.215L280.711 286.569C280.711 286.569 283.258 202.588 282.302 199.258C281.929 197.957 247.512 179.774 228.122 165.188C212.717 153.599 217.58 125.535 217.58 125.535L260.731 126.058C260.731 126.058 260.44 129.1 262.432 131.87C265.683 136.39 315.433 169.116 320.338 182.558C326.494 199.427 321.237 287.215 321.237 287.215Z" fill="#263238"/>
<path d="M217.516 140.407C217.615 145.401 217.65 150.594 219.913 155.147C224.42 164.29 233.993 169.379 242.125 174.92C246.389 177.641 250.715 180.269 255.065 182.868C250.528 180.607 246.092 178.147 241.738 175.546C233.314 170.191 223.578 164.951 219.174 155.484C217.041 150.739 217.158 145.465 217.516 140.407Z" fill="#37474F"/>
<path d="M253.891 129.239C254.39 132.751 254.814 136.37 256.081 139.694C257.717 142.854 260.589 145.202 263.16 147.6C273.908 157.023 285.603 165.297 296.725 174.281C299.515 176.523 302.286 178.794 304.958 181.195C307.234 183.386 309.862 185.482 311.19 188.441C312.15 192.429 312.086 196.55 312.265 200.579C312.669 225.614 311.369 250.642 310.025 275.631C310.755 254.197 311.425 232.758 311.481 211.315C311.407 204.227 311.548 196.993 310.569 189.987C309.996 186.616 306.587 184.266 304.294 181.929C296.315 174.784 287.687 168.4 279.312 161.718C273.728 157.251 268.115 152.803 262.85 147.94C260.312 145.442 257.505 143.023 255.922 139.764C254.696 136.381 254.339 132.783 253.891 129.239Z" fill="#37474F"/>
<path d="M318.21 278.025C312.671 277.799 314.263 277.757 308.723 277.616C306.011 277.547 288.192 277.117 285.652 277.664C285.596 277.676 285.594 277.806 285.65 277.819C288.177 278.427 306.001 278.43 308.713 278.426C314.256 278.42 312.665 278.338 318.208 278.247C318.311 278.246 318.314 278.029 318.21 278.025Z" fill="#37474F"/>
<path d="M265.248 131.837L216.531 128.371C216.531 128.371 229.874 89.9142 242.071 79.8182C247.621 75.2242 252.293 76.6312 255.909 80.5052C256.811 81.4732 267.294 98.9522 267.647 104.623C267.959 109.635 263.289 114.556 263.289 114.556L265.248 131.837Z" fill="#EBEBEB"/>
<path d="M254.398 90.5391L256.601 87.0791L259.303 90.2811L258.705 93.2981L255.643 93.2431L254.398 90.5391Z" fill="#263238"/>
<path d="M255.643 93.2432L254.398 119.669L262.587 130.131L263.393 117.285L258.705 93.2982L255.643 93.2432Z" fill="#263238"/>
<path d="M255.812 80.3121C255.812 80.3121 261.84 94.8401 261.775 98.7891C261.705 103.028 260.835 115.466 260.835 115.466C260.835 115.466 251.911 100.504 250.541 95.5061C248.413 87.7431 248.729 76.9391 248.729 76.9391C248.729 76.9391 245.184 75.6911 238.258 83.3861C232.113 90.2141 220.245 114.237 215.102 129.24L260.186 137.844L262.863 131.476L264.594 136.351L267.075 132.812L263.287 114.556C263.287 114.556 268.743 110.403 267.691 103.466C266.549 95.9211 255.812 80.3121 255.812 80.3121Z" fill="#C76323"/>
<path d="M260.836 115.466L265.681 100.218L262.574 95.3345L265.841 95.1165C265.841 95.1165 256.548 81.4535 255.812 80.3115C255.946 80.8845 261.92 95.1155 261.776 98.7885C261.628 102.423 261.017 114.728 260.836 115.466Z" fill="#C76323"/>
<path opacity="0.2" d="M260.836 115.466L265.681 100.218L262.574 95.3345L265.841 95.1165C265.841 95.1165 256.548 81.4535 255.812 80.3115C255.946 80.8845 261.92 95.1155 261.776 98.7885C261.628 102.423 261.017 114.728 260.836 115.466Z" fill="black"/>
<path d="M249.125 94.7355L246.833 100.119L260.82 115.487C260.635 115.011 251.891 100.424 250.543 95.5044C248.414 87.7454 248.732 76.9395 248.732 76.9395L245.57 93.2264L249.125 94.7355Z" fill="#C76323"/>
<path opacity="0.2" d="M249.125 94.7355L246.833 100.119L260.82 115.487C260.635 115.011 251.891 100.424 250.543 95.5044C248.414 87.7454 248.732 76.9395 248.732 76.9395L245.57 93.2264L249.125 94.7355Z" fill="black"/>
<path d="M260.836 115.465C262.017 120.723 262.701 126.087 262.865 131.474C261.68 126.217 261.004 120.852 260.836 115.465Z" fill="#263238"/>
<path d="M257.682 120.954C257.773 122.056 259.327 121.883 259.253 120.876C259.225 119.869 257.665 119.85 257.682 120.954ZM257.682 120.954C257.597 119.466 259.881 119.25 260.001 120.839C260.037 122.429 257.745 122.441 257.682 120.954Z" fill="#263238"/>
<path d="M258.284 127.016C258.375 128.118 259.929 127.946 259.855 126.939C259.827 125.932 258.266 125.912 258.284 127.016ZM258.284 127.016C258.199 125.528 260.483 125.312 260.604 126.902C260.638 128.492 258.346 128.504 258.284 127.016Z" fill="#263238"/>
<path opacity="0.1" d="M244.638 121.865L232.02 117.877L231.398 119.492L244.118 123.515L244.638 121.865Z" fill="black"/>
<g opacity="0.1">
<path d="M261.987 114.082C260.326 114.479 258.667 114.958 257.078 115.693C256.288 116.059 255.517 116.474 254.749 116.914C254.366 117.133 253.98 117.334 253.591 117.531C253.192 117.734 252.761 117.929 252.33 117.989C252.291 117.994 252.299 118.075 252.338 118.072C252.76 118.049 253.164 118.024 253.578 117.923C253.972 117.827 254.358 117.672 254.736 117.502C255.541 117.141 256.33 116.729 257.132 116.357C258.749 115.606 260.365 114.857 262.024 114.271C262.102 114.246 262.066 114.063 261.987 114.082Z" fill="black"/>
<path d="M263.268 115.376C262.559 115.257 261.842 115.227 261.147 115.324C260.797 115.373 260.456 115.476 260.114 115.605C259.951 115.667 259.789 115.737 259.628 115.811C259.451 115.894 259.282 116.043 259.104 116.119C259.086 116.127 259.092 116.208 259.112 116.201C259.282 116.144 259.461 116.164 259.634 116.135C259.807 116.105 259.981 116.072 260.154 116.042C260.502 115.982 260.849 115.932 261.196 115.863C261.89 115.724 262.582 115.606 263.282 115.533C263.319 115.529 263.304 115.382 263.268 115.376Z" fill="black"/>
</g>
<path d="M248.727 78.7074C248.777 79.6784 252.134 86.5234 256.427 87.0904C257.826 87.2724 259.161 79.6834 259.161 79.6834L259.388 79.1454L262.554 71.6164L254.404 64.0454L253.213 63.0234C253.213 63.0234 252.483 65.1404 251.599 67.7854C251.557 67.9084 251.516 68.0304 251.473 68.1624C251.419 68.3104 251.367 68.4504 251.323 68.5904C251.186 68.9834 251.048 69.3864 250.918 69.7904C250.818 70.0964 250.72 70.3944 250.627 70.7204C250.525 71.0454 250.434 71.3624 250.332 71.6864C249.399 74.9084 248.711 78.2954 248.727 78.7074Z" fill="#D3766A"/>
<path d="M251.602 67.7854C252.725 74.4334 257.254 77.8764 259.39 79.1454L262.556 71.6164L254.406 64.0454L253.215 63.0234C253.215 63.0234 252.485 65.1404 251.602 67.7854Z" fill="#263238"/>
<path d="M274.499 59.2844C277.167 73.3684 269.033 76.5564 265.995 77.1284C263.238 77.6474 253.783 79.0644 249.673 65.3324C245.564 51.5994 251.269 45.9074 257.513 44.3864C263.757 42.8644 271.831 45.2004 274.499 59.2844Z" fill="#D3766A"/>
<path d="M272.158 56.664C271.82 56.688 271.504 56.654 271.168 56.642C270.788 56.63 270.484 56.659 270.162 56.427C269.989 56.303 269.943 55.994 270.048 55.815C270.292 55.398 270.761 55.297 271.219 55.294C271.716 55.29 272.1 55.414 272.487 55.725C272.862 56.026 272.604 56.633 272.158 56.664Z" fill="#263238"/>
<path d="M263.008 59.9428C263.345 59.9058 263.649 59.8148 263.979 59.7438C264.351 59.6638 264.655 59.6378 264.93 59.3528C265.078 59.1998 265.068 58.8878 264.933 58.7298C264.618 58.3628 264.139 58.3478 263.688 58.4258C263.198 58.5108 262.843 58.7018 262.517 59.0758C262.202 59.4398 262.564 59.9918 263.008 59.9428Z" fill="#263238"/>
<path d="M265.5 61.2304C265.487 61.1954 265.432 61.2884 265.44 61.3274C265.626 62.2864 265.679 63.4164 264.858 63.8774C264.833 63.8914 264.843 63.9394 264.875 63.9304C265.914 63.6084 265.83 62.1094 265.5 61.2304Z" fill="#263238"/>
<path d="M264.475 60.3623C262.905 60.4953 263.287 63.6253 264.741 63.5013C266.172 63.3813 265.791 60.2513 264.475 60.3623Z" fill="#263238"/>
<path d="M263.88 60.6023C263.628 60.8123 263.398 61.1583 263.073 61.2303C262.696 61.3143 262.368 61.0223 262.081 60.7373C262.051 60.7073 262.028 60.7383 262.032 60.7803C262.096 61.3813 262.402 61.9683 263.055 61.9793C263.652 61.9893 264.008 61.4073 264.084 60.7863C264.098 60.6713 263.981 60.5183 263.88 60.6023Z" fill="#263238"/>
<path d="M270.885 60.3292C270.887 60.2912 270.968 60.3622 270.973 60.4022C271.1 61.3702 271.409 62.4592 272.334 62.6362C272.363 62.6422 272.368 62.6902 272.335 62.6912C271.246 62.7162 270.85 61.2672 270.885 60.3292Z" fill="#263238"/>
<path d="M271.58 59.1814C273.111 58.8094 273.742 61.8984 272.324 62.2434C270.927 62.5824 270.296 59.4934 271.58 59.1814Z" fill="#263238"/>
<path d="M272.265 59.2537C272.542 59.3677 272.845 59.6157 273.14 59.5757C273.482 59.5287 273.664 59.1437 273.814 58.7787C273.83 58.7407 273.859 58.7617 273.869 58.8027C274.006 59.3897 273.936 60.0447 273.392 60.2737C272.896 60.4827 272.412 60.0537 272.151 59.4947C272.104 59.3907 272.153 59.2077 272.265 59.2537Z" fill="#263238"/>
<path d="M266.284 68.9251C266.517 69.1551 266.749 69.4701 267.103 69.5011C267.443 69.5311 267.842 69.3781 268.154 69.2591C268.185 69.2471 268.216 69.2801 268.196 69.3091C267.941 69.6831 267.407 69.9161 266.954 69.8351C266.512 69.7561 266.295 69.3731 266.189 68.9681C266.175 68.9121 266.25 68.8921 266.284 68.9251Z" fill="#263238"/>
<path d="M270.171 65.1813C270.171 65.1813 270.45 66.6273 270.487 67.3143C270.49 67.3783 270.326 67.4183 270.093 67.4443C270.082 67.4483 270.076 67.4533 270.066 67.4463C268.863 67.7003 267.618 67.3473 266.828 66.3963C266.777 66.3313 266.86 66.2563 266.925 66.2953C267.866 66.9123 268.877 67.0293 269.954 66.9893C269.992 66.7963 269.392 64.5293 269.501 64.5153C269.875 64.4633 270.628 64.6783 271.08 64.7853C270.585 61.7563 269.609 58.8323 269.161 55.8093C269.147 55.7013 269.301 55.6603 269.338 55.7553C270.578 58.7483 271.224 62.2203 271.816 65.3353C271.894 65.7233 270.452 65.2833 270.171 65.1813Z" fill="#263238"/>
<path d="M250.176 66.146C252.568 65.998 252.418 60.962 252.418 60.962C252.418 60.962 257.228 60.305 257.848 53.17C257.848 53.17 258.194 56.403 256.519 59.184C256.519 59.184 264.87 57.101 267.449 49.509C267.449 49.509 266.53 53.321 265.374 54.793C265.374 54.793 268.791 53.305 270.121 50.176C270.121 50.176 272.297 54.17 273.597 55.141C273.597 55.141 273.931 37.908 257.535 43.748C257.535 43.748 248.869 44.217 246.73 51.459C244.592 58.7 250.176 66.146 250.176 66.146Z" fill="#263238"/>
<path d="M253.345 64.1732C253.345 64.1732 249.986 59.8692 248.017 61.0902C246.048 62.3112 248.739 68.6642 251.165 69.4242C253.592 70.1852 254.34 67.9522 254.34 67.9522L253.345 64.1732Z" fill="#D3766A"/>
<path d="M248.829 62.8926C248.791 62.8916 248.786 62.9456 248.82 62.9576C250.525 63.5456 251.485 65.0466 252.185 66.6186C251.656 66.0276 250.963 65.7246 250.166 66.3586C250.124 66.3916 250.17 66.4576 250.216 66.4456C250.892 66.2636 251.391 66.3556 251.882 66.8786C252.23 67.2486 252.479 67.7276 252.737 68.1626C252.823 68.3076 253.088 68.2136 253.022 68.0446C253.017 68.0326 253.011 68.0196 253.006 68.0066C252.936 65.8766 251.125 62.9866 248.829 62.8926Z" fill="#263238"/>
<path d="M253.453 69.8524C253.453 70.5164 252.915 71.0554 252.25 71.0554C251.585 71.0554 251.047 70.5174 251.047 69.8524C251.047 69.1874 251.585 68.6494 252.25 68.6494C252.915 68.6494 253.453 69.1884 253.453 69.8524Z" fill="#C76323"/>
<path d="M259.412 79.2716L256.386 85.5646L248.896 76.8506L246.445 79.3246C246.445 79.3246 253.44 92.8426 253.529 92.2586L256.563 86.8626L260.152 90.9946L260.486 81.2406L259.412 79.2716Z" fill="#EBEBEB"/>
<path d="M260.59 86.1826C260.592 84.5706 260.637 82.9466 260.564 81.3366C260.561 81.2796 260.474 81.2476 260.456 81.3146C260.032 82.8436 260.06 89.0096 259.955 90.4796C259.95 90.4736 259.944 90.4676 259.939 90.4616C259.79 90.2836 256.601 86.8136 256.564 86.8626C255.927 87.7086 253.703 91.6376 253.544 91.9976C252.439 89.8506 248.174 82.0296 246.832 79.9806C246.794 79.9216 246.704 79.9626 246.732 80.0296C247.685 82.2826 253.317 92.8066 253.416 92.7846C253.478 92.8396 256.24 88.0026 256.593 87.0786C257.122 87.8236 260.315 91.7116 260.343 91.4736C260.53 89.8686 260.589 87.7976 260.59 86.1826Z" fill="#263238"/>
<path d="M297.745 132.261L283.62 158.371C283.23 159.093 282.338 159.367 281.629 158.983L268.945 152.121C268.237 151.738 267.979 150.842 268.369 150.12L282.494 124.01C282.885 123.288 283.775 123.014 284.484 123.397L297.168 130.259C297.877 130.643 298.135 131.538 297.745 132.261Z" fill="#37474F"/>
<path d="M284.73 126.355C284.517 126.75 284.024 126.896 283.629 126.683C283.235 126.47 283.088 125.977 283.301 125.582C283.514 125.187 284.007 125.041 284.402 125.254C284.797 125.467 284.943 125.961 284.73 126.355Z" fill="#263238"/>
<path d="M283.628 128.387C283.415 128.781 282.922 128.928 282.527 128.715C282.133 128.502 281.986 128.009 282.199 127.614C282.412 127.219 282.905 127.073 283.3 127.286C283.695 127.499 283.842 127.993 283.628 128.387Z" fill="#263238"/>
<path d="M287.305 136.944C286.855 137.776 285.816 138.086 284.984 137.635C284.152 137.184 283.842 136.146 284.293 135.314C284.743 134.482 285.782 134.172 286.614 134.623C287.446 135.073 287.755 136.112 287.305 136.944Z" fill="#263238"/>
<path d="M217.749 204.308L263.556 209.627C275.937 211.065 275.1 200.931 273.337 190.192C271.574 179.453 269.005 163.191 257.941 161.906C246.889 160.623 246.051 160.525 246.051 160.525C246.051 160.525 245.203 160.427 234.15 159.143C223.086 157.858 216.858 173.1 212.682 183.149C208.504 193.199 205.367 202.871 217.749 204.308Z" fill="#455A64"/>
<path d="M254.276 167.022C254.032 169.118 255.535 171.015 257.631 171.259C259.727 171.502 261.624 170 261.868 167.904C262.111 165.808 260.609 163.911 258.513 163.667C256.416 163.423 254.519 164.926 254.276 167.022Z" fill="#C76323"/>
<path d="M228.955 164.082C228.712 166.178 230.214 168.075 232.31 168.319C234.406 168.562 236.303 167.06 236.547 164.964C236.791 162.867 235.288 160.971 233.192 160.727C231.096 160.484 229.199 161.986 228.955 164.082Z" fill="#C76323"/>
<path d="M255.494 167.164C255.329 168.584 256.347 169.87 257.767 170.034C259.187 170.199 260.473 169.181 260.638 167.761C260.803 166.341 259.785 165.056 258.365 164.891C256.944 164.726 255.659 165.744 255.494 167.164Z" fill="#263238"/>
<path d="M230.182 164.224C230.017 165.644 231.035 166.93 232.455 167.094C233.876 167.259 235.16 166.241 235.325 164.821C235.49 163.401 234.472 162.115 233.052 161.95C231.632 161.786 230.346 162.804 230.182 164.224Z" fill="#263238"/>
<path d="M258.582 168.995C258.47 169 258.355 168.993 258.24 168.974C257.394 168.828 256.827 168.024 256.973 167.177C258.731 156.997 262 129.223 256.086 123.041C255.275 122.193 254.348 121.864 253.181 122.016C252.317 122.118 251.551 121.521 251.442 120.67C251.334 119.818 251.937 119.04 252.788 118.931C254.931 118.661 256.846 119.336 258.333 120.891C261.861 124.579 263.201 133.647 262.316 147.84C261.673 158.161 260.052 167.611 260.036 167.706C259.91 168.437 259.293 168.96 258.582 168.995Z" fill="#455A64"/>
<path d="M238.495 86.7016C228.536 107.476 222.927 126.262 226.632 132.26C231.616 140.328 250.269 152.283 259.542 155.189C262.817 156.215 275.583 134.398 272.289 132.782C268.308 130.829 247.551 121.053 247.228 120.746C246.536 120.089 246.924 97.0646 247.243 90.7386C247.775 80.1746 242.915 77.4816 238.495 86.7016Z" fill="#D3766A"/>
<path d="M293.084 149.778C292.439 152.43 289.618 152.617 289.618 152.617C289.618 152.617 290.363 154.665 289.502 156.574C288.517 158.76 284.657 158.174 284.657 158.174C284.657 158.174 284.981 160.403 283.869 162.328C282.716 164.326 278.736 164.29 278.736 164.29C278.736 164.29 277.897 166.532 275.743 167.507C272.06 169.173 266.92 165.752 263.631 163.611C260.342 161.47 253.018 152.314 251.445 150.711L265.008 129.482C265.008 129.482 282.49 134.889 286 137.956C288.958 140.54 293.809 146.801 293.084 149.778Z" fill="#D3766A"/>
<path d="M289.69 152.184C287.206 148.683 283.821 146.107 280.589 143.344C280.517 143.283 280.422 143.396 280.495 143.457C283.742 146.168 286.408 149.488 289.54 152.322C289.626 152.399 289.757 152.278 289.69 152.184Z" fill="#263238"/>
<path d="M284.762 157.853C284.176 157.078 283.336 156.498 282.573 155.91C281.752 155.276 280.92 154.657 280.079 154.051C278.394 152.837 276.682 151.661 274.936 150.536C274.859 150.486 274.763 150.592 274.841 150.649C276.518 151.862 278.177 153.1 279.801 154.383C280.614 155.025 281.421 155.674 282.224 156.328C282.971 156.936 283.708 157.641 284.578 158.071C284.706 158.134 284.85 157.97 284.762 157.853Z" fill="#263238"/>
<path d="M278.666 164.239C278.184 163.545 277.289 163.068 276.603 162.594C275.824 162.057 275.048 161.515 274.275 160.97C272.729 159.879 271.184 158.786 269.677 157.642C269.602 157.585 269.507 157.697 269.583 157.755C271.108 158.926 272.617 160.117 274.153 161.275C274.907 161.843 275.664 162.408 276.424 162.967C277.07 163.443 277.824 164.112 278.616 164.319C278.659 164.33 278.69 164.273 278.666 164.239Z" fill="#263238"/>
<path d="M257.853 125.379L242.589 148.731C242.589 148.731 227.161 136.764 225.693 130.572C224.225 124.381 228.868 104.23 236.158 89.9466C243.449 75.6636 248.465 78.3376 247.799 94.6186C247.132 110.9 247.62 119.863 247.989 120.113C248.358 120.363 257.853 125.379 257.853 125.379Z" fill="#C76323"/>
<path d="M251.726 123.624C251.77 123.548 251.648 123.471 251.595 123.541C246.85 129.873 242.543 136.564 238.517 143.372C238.472 143.447 238.596 143.525 238.648 143.454C243.322 137.075 247.774 130.478 251.726 123.624Z" fill="#263238"/>
<path d="M257.857 125.378C255.305 124.105 250.316 121.566 247.79 120.246C247.226 111.035 246.952 101.746 248.053 92.5674C247.486 101.734 247.767 110.933 248.204 120.099L248.093 119.926C250.538 121.258 255.438 123.999 257.857 125.378Z" fill="#263238"/>
<path d="M235.431 90.3428C233.13 96.6958 230.874 103.418 228.935 109.883C227.935 113.164 227.031 116.474 226.274 119.815C225.67 123.117 224.62 126.629 225.567 129.95C222.983 122.103 232.037 98.5548 235.431 90.3428Z" fill="#263238"/>
<path d="M234.349 91.0693C233.978 92.4383 233.719 93.7883 233.469 95.1863C233.38 93.7753 233.659 92.3093 234.349 91.0693Z" fill="#263238"/>
<path d="M232.828 165.948C232.727 165.953 232.624 165.948 232.521 165.933C231.672 165.806 231.086 165.015 231.213 164.166C231.229 164.059 232.841 153.389 236.153 142.643C240.749 127.73 246.347 119.753 252.789 118.933C253.643 118.824 254.419 119.428 254.528 120.279C254.636 121.131 254.034 121.909 253.182 122.018C242.706 123.351 235.991 153.227 234.287 164.626C234.176 165.371 233.553 165.913 232.828 165.948Z" fill="#455A64"/>
<path d="M252.284 438.65C252.254 440.24 252.224 442.28 252.174 444.75C252.174 444.76 252.174 444.77 252.174 444.77C252.174 444.99 252.164 445.22 252.164 445.45C252.034 452.1 251.844 461.62 251.554 473.3C251.544 473.65 251.534 474 251.524 474.35C251.494 475.58 251.464 476.83 251.424 478.11H143.594C142.574 465.73 141.714 455.12 141.034 446.88C140.644 442.08 140.304 438.08 140.024 435C140.024 435 140.024 434.99 140.024 434.98C139.754 432.06 139.544 429.96 139.384 428.79C137.424 414.14 252.674 417.08 252.284 438.65Z" fill="#F7A9A0"/>
<path d="M140.081 435.237C136.472 417.843 135.483 386.701 147.265 372.269C153.938 364.096 180.783 351.487 199.661 336.722C233.583 310.19 243.535 312.83 245.627 320.669C248.84 332.709 223.541 361.694 223.541 361.694C223.541 361.694 299.729 336.407 320.729 322.007C336.336 311.305 350.829 316.879 338.789 334.593C338.789 334.593 328.56 327.584 331.877 325.128C351.052 310.934 366.604 319.937 361.531 329.141C350.471 349.207 319.597 368.938 308.144 376.186C282.072 392.685 263.915 407.792 262.313 410.299C255.188 421.453 249.923 458.112 249.923 458.112L140.081 435.237Z" fill="#F7A9A0"/>
<path d="M341.603 319.586C344.651 327.178 338.426 336.025 333.692 341.611C322.973 353.859 308.716 362.028 295.02 370.337C288.147 374.445 281.213 378.454 274.117 382.205C286.907 372.582 300.471 364.046 313.68 355.069C323.24 348.283 344.461 332.785 341.603 319.586Z" fill="#263238"/>
<path d="M223.539 361.693C221.716 365.56 219.206 368.884 217.01 372.434C216.132 374.303 214.8 375.955 213.526 377.419C209.318 382.102 204.581 386.143 199.312 389.564C203.125 384.708 207.379 380.222 211.28 375.513C212.392 374.136 213.463 372.84 214.222 371.366C214.379 371.065 214.617 370.67 214.79 370.438C217.28 367.104 220.185 364.208 223.539 361.693Z" fill="#263238"/>
<path d="M267.249 448.91C266.915 452.35 265.974 462.12 264.365 478.11H133.584C132.633 463.41 132.016 453.03 131.766 448.91H267.249Z" fill="#C76323"/>
<path d="M39.9688 478.111C174.527 477.499 325.471 477.494 460.028 478.111C325.47 478.727 174.527 478.723 39.9688 478.111Z" fill="#263238"/>
</svg>
