<svg width="182" height="227" viewBox="0 0 182 227" fill="none" xmlns="http://www.w3.org/2000/svg">
<path d="M159.502 90.833C154.597 90.833 150.077 92.435 146.395 95.118V95.095C139.933 97.979 137.209 96.464 136.278 95.583V51.129C136.278 47.744 133.534 45 130.149 45H6.13C2.745 45 0.00100708 47.744 0.00100708 51.129V95.511C0.854007 96.375 3.544 98.061 10.19 95.095V95.118C13.872 92.435 18.392 90.833 23.297 90.833C35.616 90.833 45.602 100.819 45.602 113.138C45.602 125.456 35.616 135.443 23.297 135.443C18.652 135.443 14.34 134.02 10.768 131.591V131.594C10.768 131.594 3.578 126.858 0 131.186V175.147C0 178.532 2.744 181.276 6.129 181.276H59.666C64.042 184.846 59.26 192.077 59.26 192.077H59.262C56.833 195.648 55.412 199.961 55.412 204.605C55.412 216.924 65.398 226.91 77.717 226.91C90.036 226.91 100.022 216.924 100.022 204.605C100.022 199.705 98.438 195.178 95.76 191.498C92.757 184.768 94.524 182.093 95.377 181.276H130.149C133.534 181.276 136.278 178.532 136.278 175.147V131.098C139.88 126.92 146.974 131.593 146.974 131.593V131.59C150.545 134.02 154.857 135.442 159.502 135.442C171.821 135.442 181.807 125.456 181.807 113.137C181.806 100.819 171.82 90.833 159.502 90.833Z" fill="#C76323"/>
</svg>
