<svg width="226" height="227" viewBox="0 0 226 227" fill="none" xmlns="http://www.w3.org/2000/svg">
<g clip-path="url(#clip0_127_643)">
<path d="M203.902 90.834C198.997 90.834 194.477 92.436 190.795 95.119V95.096C184.742 97.797 181.973 96.638 180.881 95.757V51.129C180.881 47.744 178.137 45 174.752 45H50.733C47.348 45 44.605 47.744 44.605 51.129V96.033C40.838 98.644 34.834 94.682 34.834 94.682V94.686C31.262 92.256 26.951 90.834 22.305 90.834C9.98599 90.834 0 100.82 0 113.139C0 125.458 9.98599 135.444 22.305 135.444C27.21 135.444 31.73 133.842 35.412 131.159V131.182C40.424 128.945 43.18 129.359 44.604 130.067V175.149C44.604 178.534 47.348 181.278 50.732 181.278H174.751C178.136 181.278 180.88 178.534 180.88 175.149V130.856C184.54 127.083 191.373 131.596 191.373 131.596V131.592C194.945 134.022 199.256 135.445 203.902 135.445C216.221 135.445 226.207 125.459 226.207 113.14C226.207 100.82 216.221 90.834 203.902 90.834Z" fill="#263238"/>
</g>
<defs>
<clipPath id="clip0_127_643">
<rect width="226" height="227" fill="white"/>
</clipPath>
</defs>
</svg>
