<svg width="136" height="227" viewBox="0 0 136 227" fill="none" xmlns="http://www.w3.org/2000/svg">
<g clip-path="url(#clip0_127_642)">
<path d="M136.276 94.961V51C136.276 47.615 133.532 44.871 130.147 44.871H82.491C79.497 41.128 83.661 34.834 83.661 34.834H83.66C86.089 31.263 87.51 26.95 87.51 22.305C87.51 9.98701 77.524 0 65.205 0C52.886 0 42.9 9.98601 42.9 22.305C42.9 27.205 44.484 31.732 47.162 35.413C49.543 40.748 48.923 43.536 48.14 44.871H6.129C2.744 44.871 0 47.615 0 51V175.019C0 178.404 2.744 181.148 6.129 181.148H130.148C133.533 181.148 136.277 178.404 136.277 175.019V130.637C135.424 129.773 132.734 128.087 126.088 131.053V131.03C122.406 133.713 117.886 135.315 112.981 135.315C100.663 135.315 90.676 125.329 90.676 113.01C90.676 100.692 100.662 90.705 112.981 90.705C117.626 90.705 121.938 92.128 125.51 94.557V94.554C125.508 94.554 132.698 99.29 136.276 94.961Z" fill="#C76323"/>
</g>
<defs>
<clipPath id="clip0_127_642">
<rect width="136" height="227" fill="white"/>
</clipPath>
</defs>
</svg>
