<svg width="500" height="500" viewBox="0 0 500 500" fill="none" xmlns="http://www.w3.org/2000/svg">
<path d="M458.24 306.199H309.547V87.9424H458.24V306.199ZM313.547 302.199H454.24V91.9424H313.547V302.199Z" fill="white" fill-opacity="0.3"/>
<path d="M385.836 92.9873H381.836V304.199H385.836V92.9873Z" fill="white" fill-opacity="0.3"/>
<path d="M461.86 96.0283H305.914V101.598H461.86V96.0283Z" fill="white" fill-opacity="0.3"/>
<path d="M461.86 102.295H305.914V107.865H461.86V102.295Z" fill="white" fill-opacity="0.3"/>
<path d="M461.86 108.562H305.914V114.132H461.86V108.562Z" fill="white" fill-opacity="0.3"/>
<path d="M461.86 114.827H305.914V120.397H461.86V114.827Z" fill="white" fill-opacity="0.3"/>
<path d="M461.86 121.095H305.914V126.665H461.86V121.095Z" fill="white" fill-opacity="0.3"/>
<path d="M461.86 127.36H305.914V132.93H461.86V127.36Z" fill="white" fill-opacity="0.3"/>
<path d="M461.86 133.626H305.914V139.196H461.86V133.626Z" fill="white" fill-opacity="0.3"/>
<path d="M461.86 139.894H305.914V145.464H461.86V139.894Z" fill="white" fill-opacity="0.3"/>
<path d="M461.86 146.159H305.914V151.729H461.86V146.159Z" fill="white" fill-opacity="0.3"/>
<path d="M449.984 94.8994H448.984V223.286H449.984V94.8994Z" fill="#263238"/>
<path d="M451.262 227.945H447.711L448.601 222.845H450.371L451.262 227.945Z" fill="#263238"/>
<path d="M453.586 94.8994H452.586V270.631H453.586V94.8994Z" fill="#263238"/>
<path d="M454.863 274.38H451.312L452.203 269.28H453.973L454.863 274.38Z" fill="#263238"/>
<path d="M468.072 87.1611H299.711V98.8141H468.072V87.1611Z" fill="#DBDBDB"/>
<path d="M65.9866 201.547C65.9866 200.711 66.0976 198.482 66.0976 197.534C66.0976 193.465 64.6486 191.625 60.8586 191.514C59.0746 191.403 58.0156 190.344 58.0156 188.839C58.0156 187.333 59.0746 186.275 60.8586 186.163C64.6486 185.996 66.0976 184.212 66.0976 180.087C66.0976 179.14 65.9866 176.91 65.9866 176.074C65.9866 170.667 68.2716 167.211 76.9116 165.316C78.6396 164.925 79.9766 165.985 79.9766 167.601C79.9766 168.939 79.0846 169.664 78.4156 169.886C73.0096 171.558 72.2276 173.286 72.2276 177.076C72.2276 178.191 72.3396 180.03 72.3396 181.201C72.3396 185.549 70.2216 187.667 66.5416 188.838C70.2766 190.064 72.3396 192.126 72.3396 196.474C72.3396 197.645 72.2276 199.484 72.2276 200.599C72.2276 204.389 73.0086 206.118 78.4156 207.79C79.0846 208.013 79.9766 208.737 79.9766 210.075C79.9766 211.692 78.6386 212.751 76.9116 212.361C68.2716 210.466 65.9866 207.01 65.9866 201.547Z" fill="white" fill-opacity="0.3"/>
<path d="M98.6462 176.074C98.6462 176.91 98.5352 179.139 98.5352 180.087C98.5352 184.212 100.04 185.996 103.831 186.163C105.559 186.274 106.618 187.333 106.618 188.839C106.618 190.344 105.558 191.403 103.831 191.514C100.04 191.625 98.5352 193.465 98.5352 197.534C98.5352 198.481 98.6462 200.711 98.6462 201.547C98.6462 207.01 96.3612 210.466 87.7212 212.361C85.9932 212.751 84.6562 211.692 84.6562 210.075C84.6562 208.737 85.5482 208.012 86.2722 207.79C91.6242 206.118 92.4043 204.39 92.4043 200.599C92.4043 199.484 92.2933 197.645 92.2933 196.474C92.2933 192.126 94.4112 190.008 98.0902 188.838C94.3552 187.611 92.2933 185.549 92.2933 181.201C92.2933 180.03 92.4043 178.191 92.4043 177.076C92.4043 173.286 91.6242 171.557 86.2722 169.886C85.5472 169.663 84.6562 168.939 84.6562 167.601C84.6562 165.985 85.9942 164.925 87.7212 165.316C96.3612 167.211 98.6462 170.667 98.6462 176.074Z" fill="white" fill-opacity="0.3"/>
<path d="M213.587 123.747C214.883 125.096 214.883 127.119 213.587 128.417C212.912 129.039 212.134 129.351 211.304 129.351C210.422 129.351 209.591 129.04 208.917 128.417L194.338 113.63C194.182 113.578 194.131 113.474 194.078 113.319C194.027 113.267 193.922 113.215 193.922 113.215C193.819 113.059 193.819 112.956 193.766 112.8C193.663 112.748 193.61 112.644 193.61 112.592C193.559 112.488 193.559 112.332 193.507 112.281C193.507 112.125 193.403 112.073 193.403 112.021C193.403 111.865 193.403 111.762 193.403 111.658C193.403 111.554 193.352 111.502 193.352 111.346C193.352 111.295 193.403 111.139 193.403 111.087C193.403 110.983 193.403 110.828 193.403 110.724C193.403 110.62 193.507 110.568 193.507 110.516C193.558 110.36 193.558 110.257 193.61 110.101C193.61 110.049 193.663 110.049 193.663 109.997C193.766 109.841 193.819 109.634 193.921 109.53C193.921 109.53 193.921 109.426 194.025 109.426C194.076 109.322 194.181 109.167 194.336 109.063L208.915 94.2765C210.211 93.0315 212.338 93.0315 213.584 94.2765C214.88 95.5735 214.88 97.6495 213.584 98.9455L201.287 111.346L213.587 123.747Z" fill="white" fill-opacity="0.3"/>
<path d="M226.817 125.407L239.528 95.1593C240.152 93.7073 241.812 93.0323 243.317 93.6543C244.717 94.2253 245.391 95.9373 244.769 97.3383L232.058 127.638C231.591 128.727 230.502 129.35 229.411 129.35C229.1 129.35 228.686 129.299 228.375 129.143C226.869 128.571 226.194 126.86 226.817 125.407Z" fill="white" fill-opacity="0.3"/>
<path d="M269.876 113.214C269.876 113.214 269.876 113.266 269.825 113.266C269.721 113.369 269.618 113.525 269.462 113.629L254.883 128.416C254.261 129.038 253.378 129.35 252.549 129.35C251.667 129.35 250.889 129.039 250.214 128.416C248.918 127.118 248.918 125.096 250.214 123.746L262.511 111.345L250.214 98.9445C248.918 97.6475 248.918 95.5715 250.214 94.2755C251.459 93.0305 253.587 93.0305 254.883 94.2755L269.462 109.062C269.618 109.166 269.72 109.322 269.825 109.425C269.876 109.425 269.876 109.529 269.876 109.529C269.98 109.737 270.084 109.841 270.136 109.996C270.136 110.047 270.189 110.047 270.189 110.1C270.241 110.256 270.241 110.359 270.345 110.567C270.345 110.619 270.396 110.619 270.396 110.723C270.396 110.827 270.396 110.983 270.396 111.086C270.396 111.138 270.447 111.294 270.447 111.345C270.447 111.397 270.396 111.553 270.396 111.605C270.396 111.761 270.396 111.864 270.396 112.02C270.396 112.072 270.345 112.072 270.345 112.124C270.241 112.331 270.241 112.487 270.189 112.591C270.189 112.643 270.136 112.643 270.136 112.747C270.085 112.851 269.981 113.007 269.876 113.214Z" fill="white" fill-opacity="0.3"/>
<path d="M440.042 437.23H318.922L343.072 296.75H433.642L440.042 437.23Z" fill="#DBDBDB"/>
<path d="M440.041 437.23H429.421L423.461 296.75H433.641L440.041 437.23Z" fill="#A6A6A6"/>
<path d="M40.7422 437.231L93.0572 436.987L145.371 436.899L250.001 436.732L354.631 436.898L406.945 436.986L459.26 437.231L406.945 437.475L354.631 437.563L250.001 437.729L145.371 437.562L93.0572 437.474L40.7422 437.231Z" fill="#263238"/>
<path d="M154.436 87.1611H55.0547V150.556H154.436V87.1611Z" fill="white" fill-opacity="0.2"/>
<path d="M155.067 151.184H54.4297V86.5322H155.067V151.184ZM55.6857 149.928H153.811V87.7892H55.6857V149.928Z" fill="white"/>
<path d="M154.436 87.1611H55.0547V99.1501H154.436V87.1611Z" fill="#C76323"/>
<path d="M155.067 99.7782H54.4297V86.5322H155.067V99.7782ZM55.6857 98.5212H153.811V87.7892H55.6857V98.5212Z" fill="white"/>
<path d="M66.3152 93.2426C66.3152 94.9086 64.9642 96.2596 63.2982 96.2596C61.6312 96.2596 60.2812 94.9086 60.2812 93.2426C60.2812 91.5766 61.6322 90.2256 63.2982 90.2256C64.9652 90.2256 66.3152 91.5766 66.3152 93.2426Z" fill="#A6A6A6"/>
<path d="M78.6356 93.2426C78.6356 94.9086 77.2846 96.2596 75.6186 96.2596C73.9526 96.2596 72.6016 94.9086 72.6016 93.2426C72.6016 91.5766 73.9526 90.2256 75.6186 90.2256C77.2846 90.2256 78.6356 91.5766 78.6356 93.2426Z" fill="white" fill-opacity="0.3"/>
<path d="M90.9559 93.2426C90.9559 94.9086 89.6049 96.2596 87.9389 96.2596C86.2729 96.2596 84.9219 94.9086 84.9219 93.2426C84.9219 91.5766 86.2729 90.2256 87.9389 90.2256C89.6049 90.2256 90.9559 91.5766 90.9559 93.2426Z" fill="white"/>
<path d="M72.2109 122.854C72.2439 116.243 77.7879 110.867 84.4649 110.834C87.4039 110.834 90.0749 111.802 92.1789 113.438C92.9799 114.106 93.1139 115.274 92.5129 116.109C91.8459 116.944 90.6099 117.078 89.8419 116.476C88.3719 115.274 86.5359 114.64 84.4649 114.64C82.1609 114.64 80.0239 115.575 78.4549 117.044C76.9519 118.58 76.0169 120.584 76.0169 122.854C76.0169 125.125 76.9519 127.195 78.4549 128.665C80.0239 130.134 82.1609 131.069 84.4649 131.069C86.5359 131.069 88.3389 130.435 89.8419 129.233C90.6099 128.666 91.8449 128.799 92.5129 129.6C93.1139 130.435 92.9799 131.637 92.1789 132.271C90.0749 133.907 87.4039 134.875 84.4649 134.875C77.7879 134.875 72.2449 129.5 72.2109 122.854Z" fill="white"/>
<path d="M98.2554 129.065C98.8564 128.33 99.9584 128.23 100.693 128.831C102.162 130.033 104.7 131.435 107.07 131.402C108.74 131.402 110.242 130.902 111.245 130.167C112.246 129.433 112.68 128.598 112.68 127.763C112.68 127.329 112.581 127.028 112.38 126.695C112.18 126.361 111.879 126.027 111.379 125.693C110.41 125.058 108.775 124.491 106.804 124.123H106.737C105.168 123.822 103.698 123.422 102.43 122.821C101.162 122.22 100.059 121.385 99.3254 120.217C98.8234 119.415 98.5574 118.481 98.5574 117.479C98.5574 115.476 99.6924 113.739 101.228 112.604C102.797 111.469 104.835 110.834 107.005 110.834C110.211 110.834 112.582 112.404 114.285 113.505C115.053 114.039 115.286 115.108 114.752 115.876C114.25 116.678 113.182 116.911 112.381 116.377C110.678 115.242 109.042 114.24 107.005 114.24C105.502 114.24 104.166 114.707 103.265 115.375C102.365 116.043 101.997 116.778 101.997 117.479C101.997 117.88 102.064 118.147 102.231 118.414C102.398 118.682 102.698 118.982 103.133 119.283C104 119.884 105.503 120.418 107.306 120.752H107.372C109.076 121.086 110.645 121.52 111.981 122.154C113.35 122.822 114.551 123.69 115.319 124.926C115.821 125.727 116.121 126.729 116.121 127.764C116.121 129.901 114.919 131.738 113.249 132.94C111.612 134.142 109.442 134.843 107.071 134.843C103.466 134.809 100.427 133.007 98.5233 131.504C97.7873 130.902 97.6874 129.8 98.2554 129.065Z" fill="white"/>
<path d="M120.193 129.065C120.794 128.33 121.896 128.23 122.631 128.831C124.099 130.033 126.638 131.435 129.008 131.402C130.678 131.402 132.18 130.902 133.183 130.167C134.184 129.433 134.618 128.598 134.618 127.763C134.618 127.329 134.519 127.028 134.318 126.695C134.118 126.361 133.817 126.027 133.317 125.693C132.348 125.058 130.713 124.491 128.742 124.123H128.674C127.105 123.822 125.635 123.422 124.367 122.821C123.098 122.22 121.996 121.385 121.262 120.217C120.76 119.415 120.494 118.481 120.494 117.479C120.494 115.476 121.629 113.739 123.165 112.604C124.734 111.469 126.772 110.834 128.942 110.834C132.147 110.834 134.519 112.404 136.222 113.505C136.99 114.039 137.223 115.108 136.689 115.876C136.187 116.678 135.119 116.911 134.318 116.377C132.615 115.242 130.979 114.24 128.942 114.24C127.439 114.24 126.103 114.707 125.202 115.375C124.302 116.043 123.934 116.778 123.934 117.479C123.934 117.88 124.002 118.147 124.168 118.414C124.335 118.682 124.635 118.982 125.07 119.283C125.937 119.884 127.44 120.418 129.243 120.752H129.309C131.013 121.086 132.582 121.52 133.918 122.154C135.287 122.822 136.488 123.69 137.256 124.926C137.758 125.727 138.058 126.729 138.058 127.764C138.058 129.901 136.856 131.738 135.186 132.94C133.549 134.142 131.379 134.843 129.008 134.843C125.403 134.809 122.364 133.007 120.46 131.504C119.725 130.902 119.624 129.8 120.193 129.065Z" fill="white"/>
<path d="M318.584 268.543H219.203V331.938H318.584V268.543Z" fill="white" fill-opacity="0.2"/>
<path d="M319.214 332.566H218.578V267.915H319.214V332.566ZM219.834 331.309H317.958V269.171H219.834V331.309Z" fill="white"/>
<path d="M318.584 268.543H219.203V280.532H318.584V268.543Z" fill="#C76323"/>
<path d="M319.214 281.159H218.578V267.914H319.214V281.159ZM219.834 279.903H317.958V269.171H219.834V279.903Z" fill="white"/>
<path d="M230.457 274.624C230.457 276.29 229.106 277.641 227.439 277.641C225.772 277.641 224.422 276.29 224.422 274.624C224.422 272.957 225.773 271.607 227.439 271.607C229.106 271.607 230.457 272.958 230.457 274.624Z" fill="#A6A6A6"/>
<path d="M242.776 274.624C242.776 276.29 241.425 277.641 239.759 277.641C238.093 277.641 236.742 276.29 236.742 274.624C236.742 272.957 238.093 271.607 239.759 271.607C241.425 271.607 242.776 272.958 242.776 274.624Z" fill="white"/>
<path d="M255.098 274.624C255.098 276.29 253.747 277.641 252.08 277.641C250.414 277.641 249.062 276.29 249.062 274.624C249.062 272.957 250.413 271.607 252.08 271.607C253.747 271.607 255.098 272.958 255.098 274.624Z" fill="white" fill-opacity="0.2"/>
<path d="M237.758 304.237C237.791 297.626 243.334 292.25 250.012 292.217C252.95 292.217 255.622 293.186 257.726 294.821C258.527 295.489 258.661 296.658 258.06 297.492C257.391 298.327 256.156 298.461 255.388 297.859C253.92 296.657 252.083 296.022 250.012 296.022C247.708 296.022 245.571 296.957 244.002 298.426C242.499 299.962 241.564 301.966 241.564 304.236C241.564 306.507 242.499 308.577 244.002 310.047C245.571 311.516 247.708 312.451 250.012 312.451C252.083 312.451 253.885 311.817 255.388 310.614C256.156 310.047 257.391 310.18 258.06 310.981C258.661 311.816 258.527 313.018 257.726 313.652C255.622 315.288 252.95 316.256 250.012 316.256C243.333 316.258 237.791 310.882 237.758 304.237Z" fill="white"/>
<path d="M269.78 306.341H265.039C264.038 306.341 263.203 305.54 263.203 304.505C263.203 303.503 264.038 302.669 265.039 302.669H269.78V298.028C269.78 296.959 270.615 296.125 271.684 296.125C272.719 296.125 273.587 296.96 273.587 298.028V302.669H278.328C279.33 302.669 280.164 303.504 280.164 304.505C280.164 305.54 279.33 306.341 278.328 306.341H273.587V310.983C273.587 312.051 272.72 312.886 271.684 312.886C270.615 312.886 269.78 312.051 269.78 310.983V306.341Z" fill="white"/>
<path d="M290.475 306.341H285.734C284.732 306.341 283.898 305.54 283.898 304.505C283.898 303.503 284.732 302.669 285.734 302.669H290.475V298.028C290.475 296.959 291.309 296.125 292.378 296.125C293.413 296.125 294.282 296.96 294.282 298.028V302.669H299.023C300.024 302.669 300.859 303.504 300.859 304.505C300.859 305.54 300.024 306.341 299.023 306.341H294.282V310.983C294.282 312.051 293.413 312.886 292.378 312.886C291.31 312.886 290.475 312.051 290.475 310.983V306.341Z" fill="white"/>
<path d="M272.231 146.734H106.492V282.847H272.231V146.734Z" fill="white"/>
<path d="M272.862 283.476H105.867V146.106H272.862V283.476ZM107.123 282.219H271.606V147.363H107.123V282.219Z" fill="white" fill-opacity="0.3"/>
<path d="M272.231 146.734H106.492V158.723H272.231V146.734Z" fill="#C76323"/>
<path d="M272.862 159.351H105.867V146.106H272.862V159.351ZM107.123 158.095H271.606V147.363H107.123V158.095Z" fill="white" fill-opacity="0.3"/>
<path d="M117.746 152.817C117.746 154.484 116.395 155.834 114.728 155.834C113.062 155.834 111.711 154.483 111.711 152.817C111.711 151.151 113.062 149.8 114.728 149.8C116.395 149.799 117.746 151.15 117.746 152.817Z" fill="#A6A6A6"/>
<path d="M130.065 152.817C130.065 154.484 128.714 155.834 127.048 155.834C125.382 155.834 124.031 154.483 124.031 152.817C124.031 151.151 125.382 149.8 127.048 149.8C128.714 149.799 130.065 151.15 130.065 152.817Z" fill="white" fill-opacity="0.3"/>
<path d="M142.387 152.817C142.387 154.484 141.036 155.834 139.369 155.834C137.703 155.834 136.352 154.483 136.352 152.817C136.352 151.151 137.703 149.8 139.369 149.8C141.036 149.799 142.387 151.15 142.387 152.817Z" fill="white"/>
<path d="M125.769 182.573H119.359V184.914H125.769V182.573Z" fill="white" fill-opacity="0.3"/>
<path d="M203.962 182.573H130.438V184.914H203.962V182.573Z" fill="white" fill-opacity="0.3"/>
<path d="M220.081 182.573H207.906V184.914H220.081V182.573Z" fill="#C76323"/>
<path d="M247.925 213.903H235.75V216.244H247.925V213.903Z" fill="white" fill-opacity="0.3"/>
<path d="M243.774 182.573H222.727V184.914H243.774V182.573Z" fill="#A6A6A6"/>
<path d="M132.176 188.839H125.766V191.18H132.176V188.839Z" fill="white" fill-opacity="0.3"/>
<path d="M184.939 188.839H136.688V191.18H184.939V188.839Z" fill="#A6A6A6"/>
<path d="M232.861 213.903H204.609V216.244H232.861V213.903Z" fill="#A6A6A6"/>
<path d="M176.525 207.637H130.438V209.978H176.525V207.637Z" fill="#A6A6A6"/>
<path d="M169.02 195.105H136.688V197.446H169.02V195.105Z" fill="#C76323"/>
<path d="M228.379 201.371H216.047V203.712H228.379V201.371Z" fill="#A6A6A6"/>
<path d="M224.241 195.105H172.609V197.446H224.241V195.105Z" fill="#A6A6A6"/>
<path d="M192.069 213.903H130.438V216.244H192.069V213.903Z" fill="#C76323"/>
<path d="M254.768 188.839H221.367V191.18H254.768V188.839Z" fill="#C76323"/>
<path d="M218.72 188.839H187.969V191.18H218.72V188.839Z" fill="white" fill-opacity="0.3"/>
<path d="M247.423 195.105H226.672V197.446H247.423V195.105Z" fill="white" fill-opacity="0.3"/>
<path d="M132.176 195.105H125.766V197.446H132.176V195.105Z" fill="white" fill-opacity="0.3"/>
<path d="M125.769 201.371H119.359V203.712H125.769V201.371Z" fill="#A6A6A6"/>
<path d="M168.319 201.371H130.438V203.712H168.319V201.371Z" fill="white" fill-opacity="0.3"/>
<path d="M174.57 220.169H136.688V222.51H174.57V220.169Z" fill="white" fill-opacity="0.3"/>
<path d="M236.127 226.435H207.328V228.776H236.127V226.435Z" fill="#C76323"/>
<path d="M215.636 220.169H177.648V222.51H215.636V220.169Z" fill="#C76323"/>
<path d="M204.012 226.435H170.945V228.776H204.012V226.435Z" fill="white" fill-opacity="0.3"/>
<path d="M147.656 226.435H136.688V228.776H147.656V226.435Z" fill="#A6A6A6"/>
<path d="M220.076 207.637H179.133V209.978H220.076V207.637Z" fill="white" fill-opacity="0.3"/>
<path d="M248.778 207.637H222.727V209.978H248.778V207.637Z" fill="#C76323"/>
<path d="M213.065 201.371H172.172V203.712H213.065V201.371Z" fill="#C76323"/>
<path d="M125.769 207.637H119.359V209.978H125.769V207.637Z" fill="white" fill-opacity="0.3"/>
<path d="M125.769 213.903H119.359V216.244H125.769V213.903Z" fill="white" fill-opacity="0.3"/>
<path d="M132.176 220.169H125.766V222.51H132.176V220.169Z" fill="#A6A6A6"/>
<path d="M132.176 226.435H125.766V228.776H132.176V226.435Z" fill="white" fill-opacity="0.3"/>
<path d="M125.769 231.683H119.359V234.024H125.769V231.683Z" fill="white" fill-opacity="0.3"/>
<path d="M203.962 231.683H130.438V234.024H203.962V231.683Z" fill="white" fill-opacity="0.3"/>
<path d="M132.176 237.949H125.766V240.29H132.176V237.949Z" fill="white" fill-opacity="0.3"/>
<path d="M184.939 237.949H136.688V240.29H184.939V237.949Z" fill="#A6A6A6"/>
<path d="M176.525 256.748H130.438V259.089H176.525V256.748Z" fill="#A6A6A6"/>
<path d="M169.02 244.215H136.688V246.556H169.02V244.215Z" fill="#C76323"/>
<path d="M224.241 244.215H172.609V246.556H224.241V244.215Z" fill="#A6A6A6"/>
<path d="M192.069 263.014H130.438V265.355H192.069V263.014Z" fill="#C76323"/>
<path d="M254.768 237.949H221.367V240.29H254.768V237.949Z" fill="#C76323"/>
<path d="M218.72 237.949H187.969V240.29H218.72V237.949Z" fill="white" fill-opacity="0.3"/>
<path d="M247.423 244.215H226.672V246.556H247.423V244.215Z" fill="white" fill-opacity="0.3"/>
<path d="M132.176 244.215H125.766V246.556H132.176V244.215Z" fill="white" fill-opacity="0.3"/>
<path d="M125.769 250.482H119.359V252.823H125.769V250.482Z" fill="#A6A6A6"/>
<path d="M168.319 250.482H130.438V252.823H168.319V250.482Z" fill="white" fill-opacity="0.3"/>
<path d="M220.076 256.748H179.133V259.089H220.076V256.748Z" fill="white" fill-opacity="0.3"/>
<path d="M213.065 250.482H172.172V252.823H213.065V250.482Z" fill="#C76323"/>
<path d="M125.769 256.748H119.359V259.089H125.769V256.748Z" fill="white" fill-opacity="0.3"/>
<path d="M123.322 176.407C123.543 176.636 123.543 176.979 123.322 177.199C123.208 177.304 123.077 177.357 122.936 177.357C122.786 177.357 122.645 177.304 122.531 177.199L120.059 174.692C120.032 174.683 120.023 174.666 120.015 174.639C120.006 174.63 119.988 174.621 119.988 174.621C119.971 174.595 119.971 174.577 119.962 174.551C119.944 174.542 119.935 174.525 119.935 174.516C119.926 174.498 119.926 174.472 119.918 174.463C119.918 174.437 119.899 174.428 119.899 174.419C119.899 174.393 119.899 174.375 119.899 174.358C119.899 174.34 119.891 174.332 119.891 174.305C119.891 174.296 119.899 174.269 119.899 174.261C119.899 174.243 119.899 174.217 119.899 174.2C119.899 174.182 119.918 174.174 119.918 174.164C119.926 174.138 119.926 174.12 119.935 174.093C119.935 174.084 119.944 174.084 119.944 174.076C119.962 174.05 119.971 174.014 119.988 173.997C119.988 173.997 119.988 173.979 120.006 173.979C120.015 173.961 120.032 173.935 120.059 173.918L122.531 171.411C122.751 171.199 123.111 171.199 123.322 171.411C123.543 171.631 123.543 171.983 123.322 172.203L121.238 174.306L123.322 176.407Z" fill="#C76323"/>
<path d="M125.563 176.688L127.719 171.558C127.824 171.312 128.105 171.197 128.361 171.303C128.599 171.399 128.713 171.69 128.608 171.927L126.453 177.065C126.373 177.25 126.189 177.355 126.004 177.355C125.951 177.355 125.881 177.346 125.829 177.32C125.571 177.225 125.457 176.935 125.563 176.688Z" fill="#C76323"/>
<path d="M132.86 174.62C132.86 174.62 132.86 174.629 132.851 174.629C132.833 174.647 132.815 174.673 132.788 174.691L130.316 177.198C130.211 177.303 130.061 177.356 129.92 177.356C129.77 177.356 129.639 177.303 129.525 177.198C129.304 176.978 129.304 176.635 129.525 176.406L131.609 174.303L129.525 172.2C129.304 171.98 129.304 171.628 129.525 171.408C129.736 171.196 130.097 171.196 130.316 171.408L132.788 173.915C132.815 173.932 132.832 173.959 132.851 173.976C132.86 173.976 132.86 173.994 132.86 173.994C132.877 174.029 132.894 174.047 132.904 174.073C132.904 174.082 132.912 174.082 132.912 174.09C132.921 174.117 132.921 174.134 132.938 174.17C132.938 174.178 132.946 174.178 132.946 174.196C132.946 174.213 132.946 174.239 132.946 174.257C132.946 174.265 132.956 174.292 132.956 174.301C132.956 174.31 132.946 174.336 132.946 174.345C132.946 174.371 132.946 174.389 132.946 174.416C132.946 174.425 132.938 174.425 132.938 174.434C132.921 174.469 132.921 174.495 132.912 174.513C132.912 174.522 132.904 174.522 132.904 174.539C132.894 174.559 132.877 174.586 132.86 174.62Z" fill="#C76323"/>
<path d="M291.133 127.646H223.43V152.711H291.133V127.646Z" fill="#455A64"/>
<path d="M233.203 145.38V134.263C233.203 133.679 233.656 133.227 234.24 133.227C234.824 133.227 235.295 133.679 235.295 134.263V138.785H240.175V134.263C240.175 133.679 240.628 133.227 241.212 133.227C241.796 133.227 242.267 133.679 242.267 134.263V145.38C242.267 145.965 241.796 146.417 241.212 146.417C240.628 146.417 240.175 145.965 240.175 145.38V140.858H235.295V145.38C235.295 145.965 234.824 146.417 234.24 146.417C233.655 146.417 233.203 145.965 233.203 145.38Z" fill="white"/>
<path d="M254.629 135.319H251.633V145.38C251.633 145.965 251.18 146.417 250.596 146.417C250.03 146.417 249.561 145.965 249.561 145.38V135.319H246.584C246 135.319 245.547 134.829 245.547 134.263C245.547 133.679 246 133.227 246.584 133.227H254.629C255.195 133.227 255.666 133.679 255.666 134.263C255.665 134.829 255.194 135.319 254.629 135.319Z" fill="white"/>
<path d="M270.118 134.263V145.38C270.118 145.946 269.627 146.417 269.063 146.417C268.478 146.417 268.026 145.946 268.026 145.38V137.448L265.312 141.217C265.105 141.499 264.803 141.65 264.464 141.65H264.446H264.426C264.087 141.65 263.767 141.499 263.56 141.217L260.865 137.448V145.38C260.865 145.946 260.394 146.417 259.81 146.417C259.244 146.417 258.773 145.946 258.773 145.38V134.263C258.773 133.698 259.244 133.227 259.81 133.227C259.83 133.227 259.83 133.227 259.866 133.227C260.168 133.227 260.506 133.378 260.695 133.66L264.445 138.861L268.194 133.66C268.401 133.378 268.703 133.227 269.042 133.227C269.042 133.227 269.042 133.227 269.062 133.227C269.627 133.246 270.118 133.698 270.118 134.263Z" fill="white"/>
<path d="M274.68 145.38V134.263C274.68 133.698 275.133 133.227 275.716 133.227C276.3 133.227 276.771 133.698 276.771 134.263V144.325H281.878C282.424 144.325 282.913 144.796 282.913 145.38C282.913 145.946 282.424 146.417 281.878 146.417H275.773C275.736 146.417 275.736 146.417 275.736 146.417C275.716 146.417 275.716 146.417 275.716 146.417C275.132 146.417 274.68 145.946 274.68 145.38Z" fill="white"/>
<path d="M110.223 223.415H54.4297V248.48H110.223V223.415Z" fill="#455A64"/>
<path d="M71.0262 237.06H68.7102V241.148C68.7102 241.714 68.2392 242.185 67.6552 242.185C67.0882 242.185 66.6172 241.714 66.6172 241.148V230.031C66.6172 229.447 67.0882 228.995 67.6552 228.995H67.6752H71.0262C73.2692 228.995 75.0792 230.804 75.0792 233.046C75.0802 235.251 73.2692 237.06 71.0262 237.06ZM68.7102 234.968H71.0262C72.1202 234.968 72.9672 234.101 72.9862 233.046C72.9662 231.954 72.1202 231.087 71.0262 231.087H68.7102V234.968Z" fill="white"/>
<path d="M77.6016 241.148V230.031C77.6016 229.447 78.0526 228.995 78.6366 228.995C79.2206 228.995 79.6916 229.447 79.6916 230.031V234.553H84.5716V230.031C84.5716 229.447 85.0256 228.995 85.6096 228.995C86.1936 228.995 86.6646 229.447 86.6646 230.031V241.148C86.6646 241.733 86.1936 242.185 85.6096 242.185C85.0256 242.185 84.5716 241.733 84.5716 241.148V236.626H79.6916V241.148C79.6916 241.733 79.2206 242.185 78.6366 242.185C78.0536 242.185 77.6016 241.733 77.6016 241.148Z" fill="white"/>
<path d="M95.3699 237.06H93.0509V241.148C93.0509 241.714 92.5799 242.185 91.9959 242.185C91.4319 242.185 90.9609 241.714 90.9609 241.148V230.031C90.9609 229.447 91.4319 228.995 91.9959 228.995H92.0159H95.3699C97.6119 228.995 99.4209 230.804 99.4209 233.046C99.4199 235.251 97.6119 237.06 95.3699 237.06ZM93.0509 234.968H95.3699C96.4619 234.968 97.3109 234.101 97.3299 233.046C97.3099 231.954 96.4609 231.087 95.3699 231.087H93.0509V234.968Z" fill="white"/>
<path d="M274.667 221.783L278.901 232.005L274.673 233.755L270.417 223.463L263.43 228.884V200.087L283.588 220.452L274.667 221.783Z" fill="#263238"/>
<path d="M263.428 196.947C263.226 196.464 263.181 195.982 263.172 195.499C263.18 195.016 263.225 194.534 263.428 194.051C263.631 194.534 263.676 195.016 263.684 195.499C263.675 195.982 263.63 196.465 263.428 196.947Z" fill="#263238"/>
<path d="M260.939 197.98C260.455 197.781 260.082 197.472 259.734 197.137C259.398 196.79 259.089 196.417 258.891 195.932C259.376 196.13 259.749 196.439 260.096 196.775C260.431 197.123 260.74 197.496 260.939 197.98Z" fill="#263238"/>
<path d="M259.904 200.474C259.422 200.676 258.939 200.721 258.456 200.73C257.973 200.723 257.491 200.677 257.008 200.474C257.49 200.271 257.973 200.226 258.456 200.218C258.939 200.227 259.421 200.272 259.904 200.474Z" fill="#263238"/>
<path d="M260.939 202.968C260.74 203.452 260.431 203.825 260.096 204.173C259.749 204.509 259.376 204.818 258.891 205.016C259.089 204.531 259.398 204.158 259.734 203.811C260.082 203.475 260.455 203.166 260.939 202.968Z" fill="#263238"/>
<path d="M266.953 200.474C267.436 200.272 267.918 200.227 268.401 200.218C268.884 200.226 269.366 200.271 269.849 200.474C269.366 200.677 268.884 200.723 268.401 200.73C267.919 200.721 267.436 200.676 266.953 200.474Z" fill="#263238"/>
<path d="M265.922 197.98C266.121 197.496 266.43 197.123 266.765 196.775C267.112 196.439 267.485 196.13 267.97 195.932C267.772 196.417 267.463 196.79 267.127 197.137C266.78 197.473 266.406 197.782 265.922 197.98Z" fill="#263238"/>
<path d="M338.487 320.707C330.777 354.283 315.171 396.794 303.112 405.368C293.386 412.287 242.363 424.474 239.518 424.781C232.474 425.492 218.563 375.733 225.865 373.711C235.065 371.164 278.792 369.803 281.28 367.249C283.861 364.578 299.774 343.029 317.79 318.066C330.225 300.816 343.271 299.874 338.487 320.707Z" fill="#DD6A57"/>
<path d="M245.174 422.048C244.335 422.473 232.421 428.465 225.054 430.601C219.558 432.194 203.613 436.356 201.259 430.479C199.648 426.473 208.736 422.922 215.106 420.267C218.462 418.869 222.598 415.356 221.609 413.198C219.88 409.426 211.24 413.215 205.559 416.516C194.572 422.9 179.937 434.39 173.226 428.817C170.692 426.71 173.637 422.873 177.947 419.111C170.954 423.495 163.496 427.092 160.588 424.863C158.918 423.594 158.841 421.851 159.77 419.861C157.611 420.563 155.703 420.426 154.373 419.019C152.099 416.64 153.208 413.129 155.694 409.53C154.897 409.447 154.18 409.041 153.63 408.174C148.817 400.836 172.907 379.765 181.239 377.794C205.751 371.967 231.828 374.091 231.828 374.091C241.455 381.783 245.193 422.031 245.174 422.048Z" fill="#DD6A57"/>
<path d="M209.127 399.484C203.354 400.388 197.672 402.547 192.777 405.778C186.563 409.879 182.441 414.68 177.227 419.515C177.09 419.642 177.283 419.859 177.421 419.732C179.906 417.434 190.2 408.794 192.86 406.831C197.734 403.233 203.179 400.706 209.15 399.585C209.213 399.571 209.191 399.474 209.127 399.484Z" fill="#263238"/>
<path d="M204.559 389.082C198.117 390.843 191.515 392.624 185.536 395.672C178.992 399.007 173.871 404.443 168.836 409.675C165.812 412.817 162.854 416.022 159.977 419.299C159.856 419.436 160.04 419.653 160.17 419.516C165.279 414.111 170.549 408.854 175.979 403.771C181.087 398.99 186.784 395.33 193.328 392.837C197.015 391.432 200.802 390.312 204.583 389.196C204.655 389.174 204.632 389.062 204.559 389.082Z" fill="#263238"/>
<path d="M197.68 379.987C191.421 381.272 185.96 382.372 180.417 385.726C173.079 390.166 165.996 397.648 163.51 400.301C160.765 403.231 158.12 406.25 155.521 409.31C155.415 409.434 155.629 409.622 155.739 409.499C161.679 402.809 168.079 396.455 174.834 390.589C178.062 387.786 181.571 385.344 185.51 383.646C189.405 381.968 193.578 381.018 197.688 380.031C197.716 380.023 197.708 379.981 197.68 379.987Z" fill="#263238"/>
<path d="M281.656 362.355L328.686 360.36C328.686 360.36 337.226 337.057 340.367 316.369C343.508 295.681 325.884 303.107 308.425 325.388C290.967 347.667 281.656 362.355 281.656 362.355Z" fill="#C76323"/>
<path d="M297.047 348.296C297.367 348.207 297.686 348.168 298.006 348.103C298.303 348.045 298.727 348.031 299.07 348.174C299.792 348.425 300.325 349.174 300.332 349.968C300.32 350.49 300.577 350.959 301.018 351.256C301.246 351.403 301.484 351.485 301.808 351.522C302.127 351.588 302.447 351.626 302.767 351.716C302.447 351.806 302.128 351.844 301.808 351.91C301.494 351.969 301.081 351.961 300.739 351.807C300.024 351.536 299.528 350.745 299.541 349.982C299.546 349.488 299.262 349.007 298.813 348.733C298.577 348.593 298.344 348.527 298.006 348.489C297.687 348.424 297.367 348.385 297.047 348.296ZM330.135 319.727C330.473 319.765 330.706 319.831 330.942 319.971C331.391 320.244 331.675 320.726 331.67 321.22C331.657 321.983 332.154 322.774 332.868 323.045C333.21 323.199 333.624 323.207 333.937 323.148C334.257 323.082 334.576 323.044 334.896 322.954C334.576 322.864 334.257 322.826 333.937 322.76C333.613 322.723 333.375 322.641 333.147 322.494C332.706 322.197 332.449 321.728 332.461 321.206C332.454 320.413 331.921 319.663 331.199 319.412C330.856 319.269 330.431 319.283 330.135 319.341C329.815 319.406 329.496 319.445 329.176 319.534C329.496 319.623 329.815 319.662 330.135 319.727ZM331.328 338.049C331.062 338.262 330.851 338.379 330.585 338.447C330.074 338.571 329.533 338.432 329.187 338.079C328.656 337.53 327.746 337.322 327.049 337.636C326.699 337.769 326.4 338.056 326.221 338.319C326.041 338.591 325.843 338.845 325.68 339.134C325.969 338.971 326.223 338.773 326.495 338.593C326.75 338.39 326.977 338.28 327.242 338.222C327.763 338.12 328.277 338.271 328.638 338.648C329.204 339.204 330.111 339.357 330.798 339.024C331.142 338.882 331.432 338.572 331.601 338.321C331.781 338.049 331.98 337.796 332.143 337.507C331.854 337.671 331.601 337.869 331.328 338.049ZM318.551 316.673C318.281 316.883 318.071 317.003 317.801 317.073C317.291 317.193 316.751 317.053 316.401 316.703C316.321 316.623 316.241 316.553 316.151 316.483C315.961 316.673 315.781 316.863 315.601 317.063C315.691 317.113 315.781 317.193 315.861 317.273C316.421 317.833 317.331 317.983 318.021 317.653C318.361 317.513 318.651 317.203 318.821 316.943C319.001 316.673 319.201 316.423 319.361 316.133C319.071 316.293 318.821 316.493 318.551 316.673ZM313.232 334.285C313.194 334.624 313.128 334.856 312.988 335.092C312.714 335.541 312.233 335.825 311.739 335.82C310.976 335.807 310.185 336.304 309.914 337.018C309.76 337.36 309.752 337.774 309.811 338.087C309.877 338.407 309.915 338.726 310.005 339.046C310.095 338.726 310.133 338.407 310.199 338.087C310.236 337.763 310.318 337.525 310.465 337.297C310.762 336.856 311.231 336.6 311.753 336.611C312.547 336.604 313.296 336.071 313.547 335.349C313.69 335.006 313.675 334.581 313.618 334.284C313.553 333.964 313.514 333.645 313.425 333.325C313.336 333.646 313.297 333.965 313.232 334.285ZM326.696 352.195C326.658 352.534 326.592 352.766 326.452 353.002C326.179 353.451 325.697 353.735 325.203 353.73C324.44 353.717 323.649 354.213 323.378 354.928C323.224 355.27 323.216 355.683 323.275 355.997C323.341 356.316 323.379 356.636 323.469 356.956C323.559 356.636 323.597 356.317 323.663 355.997C323.7 355.673 323.782 355.435 323.929 355.207C324.225 354.766 324.695 354.51 325.217 354.521C326.01 354.514 326.76 353.981 327.011 353.259C327.154 352.916 327.14 352.491 327.082 352.194C327.017 351.874 326.978 351.555 326.889 351.235C326.799 351.555 326.761 351.875 326.696 352.195Z" fill="white"/>
<path d="M330.293 350.151C320.122 349.892 309.918 350.343 299.75 350.994C296.873 351.178 294 351.43 291.135 351.75C291.054 351.759 291.045 351.878 291.131 351.879C296.213 351.901 301.294 351.716 306.377 351.56C311.473 351.404 316.575 351.206 321.666 350.907C324.542 350.738 327.415 350.572 330.287 350.344C330.41 350.334 330.42 350.154 330.293 350.151Z" fill="#263238"/>
<path d="M294.852 437.515H414.888C416.21 435.089 396.537 329.943 356.055 300.338C347.073 293.769 331.14 297.993 326.708 304.38C304.433 336.481 294.852 437.515 294.852 437.515Z" fill="#C76323"/>
<path d="M345.762 348.295C346.082 348.206 346.401 348.167 346.721 348.102C347.018 348.044 347.442 348.03 347.785 348.173C348.507 348.424 349.04 349.173 349.047 349.967C349.035 350.489 349.292 350.958 349.733 351.255C349.961 351.402 350.199 351.484 350.523 351.521C350.843 351.587 351.162 351.625 351.482 351.715C351.162 351.805 350.843 351.843 350.523 351.909C350.21 351.968 349.796 351.96 349.454 351.806C348.739 351.535 348.243 350.744 348.256 349.981C348.261 349.487 347.977 349.006 347.528 348.732C347.292 348.592 347.059 348.526 346.721 348.488C346.401 348.423 346.081 348.384 345.762 348.295ZM364.41 411.764C364.749 411.802 364.981 411.868 365.217 412.008C365.666 412.281 365.95 412.763 365.945 413.257C365.932 414.02 366.428 414.811 367.143 415.082C367.485 415.236 367.898 415.244 368.212 415.185C368.532 415.119 368.851 415.081 369.171 414.991C368.851 414.901 368.532 414.863 368.212 414.797C367.888 414.76 367.65 414.678 367.422 414.531C366.981 414.235 366.725 413.765 366.736 413.243C366.729 412.45 366.196 411.7 365.474 411.449C365.131 411.306 364.706 411.32 364.41 411.378C364.09 411.443 363.771 411.482 363.451 411.571C363.771 411.66 364.091 411.699 364.41 411.764ZM386.429 351.908C386.768 351.946 387 352.012 387.236 352.152C387.685 352.425 387.969 352.907 387.964 353.401C387.951 354.164 388.447 354.955 389.162 355.226C389.504 355.38 389.917 355.388 390.231 355.329C390.551 355.263 390.87 355.225 391.19 355.135C390.871 355.045 390.551 355.007 390.231 354.941C389.907 354.904 389.669 354.822 389.441 354.675C389 354.378 388.744 353.909 388.755 353.387C388.748 352.594 388.215 351.844 387.493 351.593C387.15 351.45 386.726 351.464 386.429 351.522C386.109 351.587 385.79 351.626 385.47 351.715C385.79 351.804 386.109 351.842 386.429 351.908ZM330.137 319.726C330.475 319.764 330.708 319.83 330.944 319.97C331.393 320.243 331.677 320.725 331.672 321.219C331.659 321.982 332.156 322.773 332.87 323.044C333.212 323.198 333.626 323.206 333.939 323.147C334.259 323.081 334.578 323.043 334.898 322.953C334.578 322.863 334.259 322.825 333.939 322.759C333.615 322.722 333.377 322.64 333.149 322.493C332.708 322.196 332.451 321.727 332.463 321.205C332.456 320.412 331.923 319.662 331.201 319.411C330.858 319.268 330.433 319.282 330.137 319.34C329.817 319.405 329.498 319.444 329.178 319.533C329.498 319.622 329.817 319.661 330.137 319.726ZM364.786 319.001C365.125 319.039 365.357 319.105 365.593 319.245C366.042 319.518 366.326 320 366.321 320.494C366.308 321.257 366.804 322.048 367.519 322.319C367.861 322.473 368.274 322.481 368.588 322.422C368.908 322.356 369.227 322.318 369.547 322.228C369.227 322.138 368.908 322.1 368.588 322.034C368.264 321.997 368.026 321.915 367.798 321.768C367.357 321.471 367.101 321.002 367.112 320.48C367.105 319.687 366.572 318.937 365.85 318.686C365.507 318.543 365.082 318.557 364.786 318.615C364.466 318.68 364.147 318.719 363.827 318.808C364.147 318.897 364.466 318.935 364.786 319.001ZM321.632 374.963C321.971 375.001 322.203 375.067 322.439 375.207C322.888 375.48 323.172 375.962 323.167 376.456C323.154 377.22 323.651 378.01 324.365 378.281C324.707 378.435 325.12 378.443 325.434 378.384C325.753 378.318 326.073 378.28 326.393 378.19C326.073 378.1 325.754 378.062 325.434 377.996C325.11 377.959 324.872 377.877 324.644 377.73C324.203 377.433 323.947 376.964 323.958 376.442C323.951 375.649 323.418 374.899 322.696 374.648C322.352 374.505 321.928 374.519 321.631 374.577C321.311 374.642 320.992 374.681 320.672 374.77C320.993 374.859 321.312 374.898 321.632 374.963ZM359.417 432.94C359.756 432.978 359.988 433.044 360.224 433.184C360.673 433.458 360.957 433.939 360.952 434.433C360.939 435.196 361.435 435.987 362.15 436.258C362.492 436.412 362.906 436.42 363.219 436.361C363.539 436.295 363.858 436.257 364.178 436.167C363.858 436.077 363.539 436.039 363.219 435.973C362.895 435.936 362.657 435.854 362.429 435.707C361.988 435.41 361.732 434.941 361.743 434.419C361.736 433.625 361.203 432.876 360.481 432.625C360.138 432.482 359.714 432.496 359.417 432.554C359.097 432.619 358.778 432.658 358.458 432.747C358.778 432.836 359.098 432.875 359.417 432.94ZM340.813 401.787C341.152 401.825 341.384 401.891 341.62 402.031C342.069 402.305 342.353 402.786 342.348 403.28C342.335 404.043 342.831 404.834 343.546 405.105C343.888 405.259 344.301 405.267 344.615 405.208C344.935 405.142 345.254 405.104 345.574 405.014C345.254 404.924 344.935 404.886 344.615 404.82C344.291 404.783 344.053 404.701 343.825 404.554C343.384 404.258 343.128 403.788 343.139 403.266C343.132 402.473 342.599 401.723 341.877 401.472C341.534 401.329 341.11 401.344 340.813 401.401C340.493 401.466 340.174 401.505 339.854 401.594C340.173 401.684 340.493 401.722 340.813 401.787ZM298.213 433.722C297.893 433.682 297.653 433.602 297.423 433.452C296.983 433.162 296.723 432.692 296.743 432.162C296.733 431.422 296.263 430.712 295.603 430.432C295.573 430.692 295.543 430.932 295.523 431.172C295.793 431.442 295.953 431.802 295.943 432.182C295.933 432.942 296.433 433.732 297.143 434.002C297.483 434.162 297.903 434.172 298.213 434.112C298.533 434.042 298.853 434.002 299.173 433.912C298.853 433.822 298.533 433.782 298.213 433.722ZM306.396 407.448C306.735 407.486 306.967 407.552 307.203 407.692C307.652 407.965 307.936 408.447 307.931 408.941C307.918 409.704 308.414 410.495 309.129 410.766C309.471 410.92 309.885 410.928 310.198 410.869C310.518 410.803 310.837 410.765 311.157 410.675C310.837 410.585 310.518 410.547 310.198 410.481C309.874 410.444 309.636 410.362 309.408 410.215C308.967 409.918 308.711 409.449 308.722 408.927C308.715 408.134 308.182 407.384 307.46 407.133C307.117 406.99 306.692 407.004 306.395 407.062C306.075 407.127 305.756 407.166 305.436 407.255C305.757 407.344 306.077 407.383 306.396 407.448ZM356.656 375.726C356.995 375.764 357.227 375.83 357.463 375.97C357.912 376.243 358.196 376.725 358.191 377.219C358.178 377.982 358.674 378.773 359.389 379.044C359.731 379.198 360.144 379.206 360.458 379.147C360.778 379.081 361.097 379.043 361.417 378.953C361.097 378.863 360.778 378.825 360.458 378.759C360.134 378.722 359.896 378.64 359.668 378.493C359.227 378.196 358.971 377.727 358.982 377.205C358.975 376.412 358.442 375.662 357.72 375.411C357.377 375.268 356.953 375.282 356.656 375.34C356.336 375.405 356.017 375.444 355.697 375.533C356.016 375.622 356.336 375.661 356.656 375.726ZM400.669 418.38C401.008 418.418 401.24 418.484 401.476 418.624C401.925 418.898 402.209 419.379 402.204 419.873C402.191 420.636 402.687 421.427 403.402 421.698C403.744 421.852 404.157 421.86 404.471 421.801C404.791 421.735 405.11 421.697 405.43 421.607C405.11 421.517 404.791 421.479 404.471 421.413C404.147 421.376 403.909 421.294 403.681 421.147C403.24 420.851 402.984 420.381 402.995 419.859C402.988 419.066 402.455 418.316 401.733 418.065C401.389 417.922 400.966 417.936 400.669 417.994C400.349 418.059 400.03 418.098 399.71 418.187C400.03 418.276 400.35 418.315 400.669 418.38ZM383.197 392.342C383.536 392.38 383.768 392.446 384.004 392.586C384.453 392.859 384.737 393.341 384.732 393.835C384.719 394.598 385.216 395.389 385.93 395.66C386.272 395.814 386.685 395.822 386.999 395.763C387.319 395.697 387.638 395.659 387.958 395.569C387.638 395.479 387.319 395.441 386.999 395.375C386.675 395.338 386.437 395.256 386.209 395.109C385.768 394.812 385.512 394.343 385.523 393.821C385.516 393.028 384.983 392.278 384.261 392.027C383.918 391.884 383.494 391.898 383.197 391.956C382.877 392.021 382.558 392.06 382.238 392.149C382.558 392.238 382.878 392.277 383.197 392.342ZM331.33 338.048C331.064 338.261 330.853 338.378 330.587 338.446C330.076 338.57 329.535 338.431 329.189 338.078C328.658 337.529 327.748 337.321 327.051 337.635C326.701 337.768 326.402 338.055 326.223 338.318C326.043 338.59 325.845 338.844 325.682 339.133C325.971 338.97 326.225 338.772 326.497 338.592C326.752 338.389 326.979 338.279 327.244 338.221C327.765 338.119 328.279 338.27 328.64 338.647C329.206 339.203 330.113 339.356 330.8 339.023C331.144 338.881 331.434 338.571 331.603 338.32C331.783 338.048 331.982 337.795 332.145 337.506C331.856 337.67 331.603 337.868 331.33 338.048ZM383.048 375.261C382.782 375.474 382.571 375.591 382.305 375.659C381.794 375.783 381.253 375.643 380.907 375.291C380.376 374.742 379.466 374.534 378.769 374.848C378.419 374.981 378.12 375.268 377.94 375.531C377.761 375.803 377.562 376.057 377.399 376.346C377.688 376.183 377.942 375.985 378.214 375.805C378.469 375.602 378.696 375.492 378.961 375.434C379.482 375.332 379.996 375.483 380.357 375.86C380.923 376.416 381.83 376.569 382.517 376.236C382.861 376.094 383.151 375.784 383.32 375.533C383.5 375.261 383.699 375.008 383.862 374.719C383.573 374.883 383.32 375.081 383.048 375.261ZM350.773 305.976C350.507 306.189 350.296 306.307 350.03 306.374C349.519 306.498 348.978 306.359 348.632 306.006C348.101 305.457 347.191 305.249 346.494 305.563C346.144 305.696 345.845 305.983 345.666 306.246C345.486 306.518 345.288 306.772 345.125 307.061C345.414 306.899 345.668 306.7 345.94 306.52C346.195 306.317 346.422 306.207 346.687 306.149C347.208 306.047 347.722 306.198 348.083 306.575C348.649 307.131 349.556 307.284 350.244 306.951C350.588 306.809 350.877 306.499 351.047 306.248C351.227 305.976 351.426 305.723 351.589 305.434C351.299 305.597 351.046 305.796 350.773 305.976ZM350.138 326.498C350.1 326.837 350.034 327.069 349.894 327.305C349.621 327.754 349.139 328.038 348.645 328.033C347.881 328.02 347.091 328.517 346.82 329.231C346.666 329.573 346.658 329.987 346.717 330.3C346.783 330.62 346.821 330.939 346.911 331.259C347.001 330.939 347.039 330.62 347.105 330.3C347.142 329.976 347.224 329.738 347.371 329.51C347.667 329.069 348.137 328.812 348.659 328.824C349.452 328.817 350.202 328.284 350.453 327.562C350.596 327.219 350.582 326.795 350.524 326.498C350.459 326.178 350.42 325.859 350.331 325.539C350.242 325.859 350.204 326.178 350.138 326.498ZM342.521 382.727C342.483 383.066 342.417 383.298 342.277 383.534C342.003 383.983 341.522 384.267 341.028 384.262C340.265 384.249 339.474 384.746 339.203 385.46C339.049 385.802 339.041 386.215 339.1 386.529C339.166 386.849 339.204 387.168 339.294 387.488C339.384 387.168 339.422 386.849 339.488 386.529C339.525 386.205 339.607 385.967 339.754 385.739C340.051 385.298 340.52 385.041 341.042 385.053C341.835 385.046 342.585 384.513 342.836 383.791C342.979 383.448 342.965 383.024 342.907 382.727C342.842 382.408 342.803 382.088 342.714 381.768C342.624 382.088 342.586 382.407 342.521 382.727ZM382.423 333.742C382.373 333.752 382.323 333.752 382.263 333.752C381.493 333.742 380.703 334.232 380.433 334.952C380.283 335.292 380.273 335.702 380.333 336.022C380.393 336.342 380.433 336.662 380.523 336.982C380.613 336.662 380.653 336.342 380.723 336.022C380.753 335.692 380.843 335.462 380.983 335.232C381.283 334.792 381.753 334.532 382.273 334.542C382.453 334.542 382.623 334.512 382.793 334.452C382.673 334.212 382.543 333.982 382.423 333.742ZM382.148 424.565C382.11 424.904 382.044 425.136 381.904 425.372C381.631 425.821 381.149 426.105 380.655 426.1C379.892 426.087 379.101 426.583 378.83 427.298C378.676 427.64 378.668 428.053 378.727 428.367C378.793 428.687 378.831 429.006 378.921 429.326C379.011 429.007 379.049 428.687 379.115 428.367C379.152 428.043 379.234 427.805 379.381 427.577C379.677 427.136 380.147 426.879 380.669 426.891C381.462 426.884 382.212 426.351 382.463 425.629C382.606 425.286 382.592 424.862 382.534 424.564C382.469 424.244 382.43 423.925 382.341 423.605C382.251 423.926 382.213 424.246 382.148 424.565ZM399.313 373.592C399.303 373.622 399.293 373.642 399.273 373.672C399.003 374.122 398.523 374.412 398.023 374.402C397.263 374.392 396.473 374.892 396.203 375.602C396.043 375.942 396.033 376.362 396.093 376.672C396.163 376.992 396.203 377.312 396.293 377.632C396.383 377.312 396.423 376.992 396.483 376.672C396.523 376.352 396.603 376.112 396.753 375.882C397.043 375.442 397.513 375.182 398.043 375.192C398.643 375.192 399.233 374.872 399.583 374.402C399.583 374.402 399.583 374.402 399.583 374.392C399.493 374.132 399.403 373.862 399.313 373.592ZM311.524 384.739C311.486 385.078 311.42 385.31 311.28 385.546C311.006 385.995 310.525 386.279 310.031 386.274C309.267 386.261 308.477 386.757 308.206 387.472C308.052 387.814 308.044 388.227 308.103 388.541C308.169 388.861 308.207 389.18 308.297 389.5C308.387 389.181 308.425 388.861 308.491 388.541C308.528 388.217 308.61 387.979 308.757 387.751C309.054 387.31 309.523 387.053 310.045 387.065C310.838 387.058 311.588 386.525 311.839 385.803C311.982 385.46 311.968 385.036 311.91 384.739C311.845 384.419 311.806 384.1 311.717 383.78C311.628 384.099 311.589 384.419 311.524 384.739ZM313.633 334.352C313.463 334.912 313.293 335.462 313.123 336.022C313.313 335.832 313.463 335.602 313.553 335.352C313.683 335.032 313.673 334.642 313.633 334.352ZM331.639 301.487C331.601 301.826 331.535 302.058 331.395 302.294C331.122 302.743 330.64 303.027 330.146 303.022C329.382 303.009 328.592 303.505 328.321 304.22C328.167 304.562 328.159 304.976 328.218 305.289C328.284 305.609 328.322 305.928 328.412 306.248C328.502 305.928 328.54 305.609 328.606 305.289C328.643 304.965 328.725 304.727 328.872 304.499C329.169 304.058 329.638 303.801 330.16 303.813C330.953 303.806 331.703 303.273 331.954 302.551C332.097 302.208 332.083 301.784 332.025 301.487C331.96 301.167 331.921 300.848 331.832 300.528C331.742 300.847 331.704 301.167 331.639 301.487ZM326.698 352.194C326.66 352.533 326.594 352.765 326.454 353.001C326.181 353.45 325.699 353.734 325.205 353.729C324.442 353.716 323.651 354.212 323.38 354.927C323.226 355.269 323.218 355.682 323.277 355.996C323.343 356.315 323.381 356.635 323.471 356.955C323.561 356.635 323.599 356.316 323.665 355.996C323.702 355.672 323.784 355.434 323.931 355.206C324.227 354.765 324.697 354.509 325.219 354.52C326.012 354.513 326.762 353.98 327.013 353.258C327.156 352.915 327.142 352.49 327.084 352.193C327.019 351.873 326.98 351.554 326.891 351.234C326.801 351.554 326.763 351.874 326.698 352.194ZM371.064 359.01C371.026 359.349 370.96 359.581 370.82 359.817C370.547 360.266 370.065 360.55 369.571 360.545C368.808 360.532 368.017 361.028 367.746 361.743C367.592 362.085 367.584 362.499 367.643 362.812C367.709 363.132 367.747 363.451 367.837 363.771C367.927 363.451 367.965 363.132 368.031 362.812C368.068 362.488 368.15 362.25 368.297 362.022C368.594 361.581 369.063 361.325 369.585 361.336C370.378 361.329 371.128 360.796 371.379 360.074C371.522 359.73 371.508 359.307 371.45 359.01C371.385 358.69 371.346 358.371 371.257 358.051C371.167 358.37 371.129 358.69 371.064 359.01ZM330.059 415.949C330.021 416.288 329.955 416.52 329.815 416.756C329.541 417.205 329.06 417.489 328.566 417.484C327.803 417.471 327.012 417.968 326.741 418.682C326.587 419.024 326.579 419.438 326.638 419.751C326.704 420.071 326.742 420.39 326.832 420.71C326.922 420.39 326.96 420.071 327.026 419.751C327.063 419.427 327.145 419.189 327.292 418.961C327.589 418.52 328.058 418.264 328.58 418.275C329.373 418.268 330.123 417.735 330.374 417.013C330.517 416.67 330.503 416.246 330.445 415.949C330.38 415.629 330.341 415.31 330.252 414.99C330.163 415.31 330.124 415.63 330.059 415.949ZM364.468 341.414C364.734 341.201 364.945 341.084 365.211 341.016C365.722 340.892 366.263 341.032 366.609 341.384C367.14 341.933 368.05 342.141 368.747 341.827C369.097 341.694 369.396 341.407 369.576 341.144C369.755 340.872 369.954 340.618 370.117 340.329C369.828 340.491 369.574 340.69 369.302 340.87C369.047 341.073 368.82 341.183 368.555 341.241C368.034 341.343 367.52 341.192 367.16 340.815C366.594 340.259 365.687 340.106 364.999 340.439C364.655 340.581 364.365 340.891 364.196 341.142C364.016 341.414 363.817 341.667 363.654 341.956C363.943 341.792 364.196 341.594 364.468 341.414ZM338.587 364.856C338.853 364.643 339.064 364.526 339.33 364.458C339.841 364.334 340.382 364.473 340.728 364.826C341.259 365.375 342.169 365.583 342.866 365.269C343.216 365.136 343.515 364.849 343.694 364.586C343.873 364.314 344.072 364.06 344.235 363.771C343.946 363.934 343.692 364.132 343.42 364.312C343.165 364.515 342.938 364.625 342.673 364.683C342.152 364.785 341.638 364.634 341.277 364.257C340.711 363.701 339.804 363.548 339.117 363.881C338.773 364.023 338.483 364.333 338.314 364.584C338.134 364.856 337.935 365.109 337.772 365.398C338.062 365.234 338.315 365.036 338.587 364.856ZM321.054 399.39C321.32 399.177 321.531 399.06 321.797 398.992C322.308 398.868 322.849 399.007 323.195 399.36C323.726 399.909 324.636 400.117 325.333 399.803C325.683 399.67 325.982 399.383 326.161 399.12C326.34 398.848 326.539 398.594 326.702 398.305C326.413 398.468 326.159 398.666 325.887 398.846C325.632 399.049 325.405 399.159 325.14 399.217C324.619 399.319 324.105 399.168 323.745 398.791C323.179 398.235 322.272 398.082 321.584 398.415C321.24 398.557 320.95 398.867 320.781 399.118C320.601 399.39 320.402 399.643 320.239 399.932C320.529 399.769 320.782 399.57 321.054 399.39ZM328.633 435.275C328.899 435.062 329.11 434.945 329.376 434.877C329.886 434.753 330.428 434.892 330.774 435.245C331.305 435.794 332.215 436.002 332.912 435.688C333.262 435.555 333.561 435.268 333.741 435.005C333.921 434.732 334.119 434.479 334.282 434.19C333.992 434.353 333.739 434.551 333.467 434.731C333.212 434.934 332.985 435.044 332.72 435.102C332.199 435.204 331.685 435.053 331.325 434.676C330.759 434.12 329.852 433.967 329.164 434.3C328.82 434.442 328.531 434.752 328.361 435.003C328.181 435.275 327.982 435.528 327.819 435.817C328.108 435.654 328.361 435.455 328.633 435.275ZM362.56 395.84C362.826 395.627 363.037 395.509 363.303 395.442C363.814 395.318 364.355 395.457 364.701 395.81C365.232 396.359 366.142 396.567 366.839 396.253C367.189 396.12 367.488 395.833 367.667 395.57C367.846 395.298 368.045 395.044 368.208 394.755C367.919 394.918 367.665 395.116 367.393 395.296C367.138 395.499 366.911 395.609 366.646 395.667C366.125 395.769 365.611 395.618 365.25 395.241C364.684 394.685 363.777 394.532 363.089 394.865C362.745 395.007 362.455 395.317 362.286 395.568C362.106 395.84 361.907 396.093 361.744 396.382C362.035 396.219 362.288 396.02 362.56 395.84ZM385.913 410.133C386.179 409.92 386.39 409.802 386.656 409.735C387.167 409.611 387.708 409.751 388.054 410.103C388.585 410.652 389.495 410.86 390.192 410.546C390.542 410.413 390.841 410.126 391.021 409.863C391.2 409.591 391.399 409.337 391.562 409.048C391.273 409.211 391.019 409.409 390.747 409.589C390.492 409.792 390.265 409.902 390 409.96C389.479 410.062 388.965 409.911 388.604 409.534C388.038 408.978 387.131 408.825 386.444 409.158C386.1 409.3 385.81 409.61 385.641 409.861C385.461 410.133 385.262 410.386 385.099 410.675C385.388 410.511 385.641 410.313 385.913 410.133ZM346.632 420.982C346.898 420.769 347.109 420.652 347.375 420.584C347.886 420.46 348.427 420.599 348.773 420.952C349.304 421.501 350.214 421.709 350.911 421.395C351.261 421.262 351.56 420.975 351.739 420.712C351.918 420.439 352.117 420.186 352.28 419.897C351.99 420.06 351.737 420.258 351.465 420.438C351.21 420.641 350.983 420.751 350.718 420.809C350.197 420.911 349.683 420.76 349.322 420.383C348.756 419.827 347.849 419.674 347.161 420.007C346.817 420.149 346.527 420.459 346.358 420.71C346.178 420.982 345.979 421.235 345.816 421.524C346.106 421.361 346.359 421.162 346.632 420.982ZM397.294 435.275C397.56 435.062 397.771 434.945 398.037 434.877C398.548 434.753 399.089 434.892 399.435 435.245C399.966 435.794 400.876 436.002 401.573 435.688C401.923 435.555 402.222 435.268 402.402 435.005C402.581 434.732 402.78 434.479 402.943 434.19C402.654 434.353 402.4 434.551 402.128 434.731C401.873 434.934 401.646 435.044 401.381 435.102C400.86 435.204 400.346 435.053 399.985 434.676C399.419 434.12 398.512 433.967 397.824 434.3C397.48 434.442 397.19 434.752 397.021 435.003C396.841 435.275 396.642 435.528 396.479 435.817C396.768 435.654 397.021 435.455 397.294 435.275ZM406.333 396.432C406.093 396.362 405.883 396.232 405.703 396.052C405.143 395.502 404.233 395.342 403.543 395.682C403.203 395.822 402.913 396.132 402.743 396.382C402.563 396.652 402.363 396.902 402.203 397.192C402.493 397.032 402.743 396.832 403.013 396.652C403.283 396.442 403.493 396.322 403.753 396.252C404.263 396.132 404.813 396.272 405.153 396.622C405.503 396.992 406.023 397.202 406.543 397.212C406.473 396.952 406.403 396.692 406.333 396.432ZM310.484 425.925C310.75 425.712 310.961 425.594 311.227 425.527C311.738 425.403 312.279 425.542 312.625 425.895C313.156 426.444 314.066 426.652 314.763 426.338C315.113 426.205 315.412 425.918 315.591 425.655C315.77 425.383 315.969 425.129 316.132 424.84C315.842 425.003 315.589 425.201 315.317 425.381C315.062 425.584 314.835 425.694 314.57 425.752C314.049 425.854 313.535 425.703 313.174 425.326C312.608 424.77 311.701 424.617 311.013 424.95C310.669 425.092 310.379 425.402 310.21 425.653C310.03 425.925 309.831 426.178 309.668 426.467C309.958 426.304 310.211 426.105 310.484 425.925ZM307.59 365.669C307.856 365.456 308.067 365.339 308.333 365.271C308.844 365.147 309.385 365.286 309.731 365.639C310.262 366.188 311.172 366.396 311.869 366.082C312.219 365.949 312.518 365.662 312.698 365.399C312.878 365.127 313.076 364.873 313.239 364.584C312.95 364.746 312.696 364.945 312.424 365.125C312.169 365.328 311.942 365.438 311.677 365.496C311.156 365.598 310.642 365.447 310.281 365.07C309.715 364.514 308.808 364.361 308.12 364.694C307.776 364.836 307.486 365.146 307.317 365.397C307.137 365.669 306.938 365.922 306.775 366.211C307.065 366.048 307.318 365.849 307.59 365.669Z" fill="white"/>
<path d="M313.919 332.349C312.815 336.34 311.749 340.336 310.718 344.34C310.852 342.593 311.042 340.849 311.267 339.112C311.28 339.009 311.124 338.965 311.102 339.072C310.659 341.236 310.444 343.424 310.385 345.622C309.154 350.452 307.986 355.296 306.913 360.169C304.856 369.508 303.028 378.913 301.514 388.349C300.66 393.67 299.998 399.027 299.087 404.337C299.07 404.436 299.227 404.475 299.245 404.375C300.08 399.665 301.189 394.98 302.215 390.304C303.235 385.658 304.223 381.006 305.188 376.35C307.128 366.987 309.18 357.647 311.11 348.282C312.197 343.006 313.209 337.716 314.299 332.441C314.346 332.203 313.984 332.113 313.919 332.349Z" fill="#263238"/>
<path d="M309.229 270.061C310.56 277.343 306.46 284.193 300.071 285.36C293.682 286.527 287.426 281.571 286.095 274.289C284.764 267.007 288.863 260.157 295.252 258.99C301.64 257.823 307.898 262.779 309.229 270.061Z" fill="#455A64"/>
<path d="M313.063 269.836C314.544 277.937 309.982 285.557 302.875 286.856C295.768 288.155 288.806 282.641 287.326 274.54C285.846 266.439 290.407 258.819 297.514 257.52C304.621 256.221 311.583 261.735 313.063 269.836Z" fill="#C7C7C7"/>
<path d="M333.327 326.988C340.566 326.946 349.781 313.633 352.366 304.028C352.539 303.369 344.485 280.701 343.356 276.044C343.129 275.087 315.867 290.226 315.867 290.226C315.867 290.226 321.107 299.292 323.026 307.424C323.179 308.106 326.33 327.024 333.327 326.988Z" fill="#DD6A57"/>
<path d="M326.367 309.142C325.337 309.412 324.387 309.602 323.477 309.672C323.357 309.102 323.257 308.622 323.187 308.252C323.187 308.242 323.187 308.222 323.177 308.202C323.177 308.162 323.167 308.112 323.157 308.072C323.127 307.932 323.107 307.782 323.067 307.632C323.067 307.602 323.057 307.572 323.047 307.542C323.037 307.502 323.027 307.462 323.017 307.422C322.597 305.642 322.017 303.822 321.377 302.062C319.897 298.022 318.047 294.302 316.917 292.152C316.777 291.882 316.647 291.642 316.527 291.432C316.167 290.762 315.937 290.352 315.887 290.252C315.867 290.242 315.867 290.232 315.867 290.232C315.867 290.232 315.867 290.232 315.877 290.232C315.937 290.192 316.187 290.052 316.597 289.822C316.857 289.682 317.177 289.502 317.557 289.292C317.577 289.292 317.587 289.282 317.597 289.272C317.797 289.162 318.017 289.042 318.237 288.922C318.487 288.782 318.747 288.642 319.027 288.482C319.257 288.362 319.507 288.222 319.757 288.082C319.797 288.062 319.847 288.032 319.897 288.002C320.197 287.842 320.517 287.672 320.847 287.482C320.917 287.442 320.997 287.402 321.067 287.362C321.377 287.192 321.697 287.022 322.017 286.842C322.177 286.752 322.347 286.662 322.517 286.572C323.017 286.302 323.527 286.022 324.057 285.732C324.447 285.522 324.837 285.312 325.237 285.092C325.567 284.912 325.907 284.732 326.237 284.552C327.357 283.942 328.507 283.322 329.657 282.712C330.027 282.512 330.397 282.312 330.757 282.112C332.107 281.392 333.437 280.692 334.707 280.032C334.997 279.882 335.277 279.732 335.557 279.592C335.747 279.492 335.937 279.392 336.117 279.302C336.347 279.182 336.567 279.072 336.787 278.952C337.287 278.692 337.767 278.452 338.227 278.222C338.527 278.072 338.827 277.922 339.107 277.782C339.537 277.562 339.937 277.372 340.317 277.192C340.507 277.092 340.697 277.012 340.867 276.932C341.387 276.682 341.837 276.482 342.207 276.332C342.297 276.292 342.377 276.262 342.447 276.232V276.242C342.787 284.132 342.157 304.922 326.367 309.142Z" fill="#263238"/>
<path d="M335.181 240.955C341.636 250.038 346.032 281.026 341.011 289.935C333.732 302.851 316.964 309.442 304.766 299.584C292.942 290.028 287.928 249.542 293.988 240.947C302.915 228.287 325.645 227.539 335.181 240.955Z" fill="#DD6A57"/>
<path d="M312.064 268.307C312.069 268.225 312.242 268.382 312.251 268.468C312.491 270.563 313.119 272.923 315.108 273.338C315.17 273.351 315.179 273.457 315.108 273.457C312.757 273.472 311.955 270.331 312.064 268.307Z" fill="#263238"/>
<path d="M313.611 265.856C316.928 265.109 318.179 271.798 315.106 272.491C312.08 273.172 310.83 266.482 313.611 265.856Z" fill="#263238"/>
<path d="M300.682 270.759C300.651 270.683 300.538 270.887 300.557 270.971C301.01 273.031 301.182 275.466 299.436 276.505C299.382 276.537 299.407 276.64 299.475 276.618C301.703 275.868 301.442 272.637 300.682 270.759Z" fill="#263238"/>
<path d="M298.427 268.94C295.047 269.31 296.036 276.043 299.167 275.7C302.249 275.364 301.26 268.63 298.427 268.94Z" fill="#263238"/>
<path d="M315.676 262.304C314.722 262.245 313.852 262.031 312.915 261.876C311.857 261.7 310.997 261.669 310.182 260.902C309.745 260.491 309.73 259.609 310.09 259.147C310.928 258.071 312.276 257.964 313.558 258.124C314.949 258.297 315.977 258.787 316.944 259.798C317.881 260.778 316.934 262.381 315.676 262.304Z" fill="#263238"/>
<path d="M295.21 266.056C296.109 265.731 296.884 265.282 297.74 264.869C298.706 264.403 299.523 264.131 300.089 263.167C300.393 262.649 300.16 261.8 299.685 261.457C298.579 260.66 297.255 260.937 296.07 261.45C294.784 262.007 293.935 262.766 293.291 264.008C292.665 265.211 294.024 266.484 295.21 266.056Z" fill="#263238"/>
<path d="M318.128 287.052C317.722 287.63 317.352 288.391 316.612 288.594C315.902 288.789 314.996 288.622 314.287 288.489C314.217 288.476 314.163 288.558 314.217 288.612C314.904 289.307 316.129 289.593 317.058 289.245C317.966 288.906 318.278 288.008 318.345 287.107C318.353 286.982 318.187 286.968 318.128 287.052Z" fill="#263238"/>
<path d="M314.787 281.255C313.963 283.271 312.442 284.573 310.664 285.275C309.872 285.594 309.011 285.785 308.148 285.866C307.981 285.894 307.81 285.906 307.653 285.901C307.498 285.911 307.359 285.919 307.186 285.916C306.937 285.926 306.767 285.751 306.684 285.53L306.681 285.515C306.668 285.439 306.658 285.378 306.661 285.299C306.661 285.299 306.661 285.299 306.658 285.284L306.628 285.102C306.286 283.515 305.987 281.059 305.987 281.059C305.458 281.46 302.736 283.353 302.627 282.51C301.749 275.533 300.773 267.773 301.372 260.645C301.38 260.409 301.737 260.396 301.76 260.627C302.869 267.3 302.798 274.122 303.805 280.842C304.686 280.304 306.109 279.348 306.946 279.209C307.185 279.232 307.439 283.965 307.649 284.665C307.649 284.665 307.654 284.696 307.677 284.739C310.422 284.581 312.291 283.393 314.557 281.106C314.69 280.958 314.88 281.067 314.787 281.255Z" fill="#263238"/>
<path d="M308.938 284.881C308.938 284.881 310.709 286.525 312.775 286.852C313.536 286.975 314.324 286.932 315.089 286.567C316.663 285.823 316.419 284.296 315.872 283.054C315.426 282.031 314.759 281.204 314.759 281.204C314.759 281.204 312.766 283.917 308.938 284.881Z" fill="#263238"/>
<path d="M312.771 286.852C313.532 286.975 314.32 286.932 315.085 286.567C316.659 285.823 316.416 284.296 315.869 283.054C314.13 283.567 312.599 285.1 312.771 286.852Z" fill="#FF99BA"/>
<path opacity="0.2" d="M334.014 253.962C336.074 256.575 340.581 262.827 342.109 262.907C340.53 252.82 337.952 244.008 333.934 239.324C332.195 237.297 330.283 235.799 328.031 234.555C328.606 237.212 331.83 251.228 334.014 253.962Z" fill="#263238"/>
<path d="M303.955 247.827C306.499 250.173 310.082 251.119 313.437 250.181C316.705 249.267 319.75 246.594 320.581 243.233C320.606 243.133 320.761 243.171 320.737 243.272C319.848 246.866 317.372 250.022 313.667 250.963C310.189 251.846 306.21 250.649 303.785 248.008C303.678 247.891 303.837 247.718 303.955 247.827Z" fill="#263238"/>
<path d="M311.497 222.067C317.286 221.543 322.948 224.142 325.502 227.839C327.054 230.085 327.52 232.49 327.411 235.002C327.407 235.104 327.198 235.106 327.195 235.004C327.086 231.057 324.653 226.82 320.156 224.563C315.836 222.395 310.403 222.184 305.974 224.458C303.662 225.645 301.878 227.398 301.085 229.379C300.996 229.601 300.548 229.513 300.617 229.289C301.777 225.507 306.258 222.541 311.497 222.067Z" fill="#263238"/>
<path d="M279.37 238.364C279.961 235.418 281.673 232.756 284.025 230.906C287.321 228.314 291.364 228.186 295.384 228.142C295.493 228.141 295.496 228.31 295.387 228.311C291.965 228.36 288.497 228.61 285.564 230.552C283.173 232.135 281.294 234.54 280.46 237.297C278.73 243.018 281.707 249.536 287.222 251.882C290.344 253.211 294.019 253.173 297.11 251.776C297.232 251.721 297.345 251.896 297.222 251.956C291.593 254.681 284.392 252.787 281.089 247.398C279.458 244.739 278.753 241.44 279.37 238.364Z" fill="#263238"/>
<path d="M338.41 247.576C338.41 247.576 342.683 236.612 337.402 231.17C334.409 228.087 325.846 229.542 325.846 229.542C325.846 229.542 322.489 224.914 315.161 224.118C307.756 223.314 299.677 228.53 299.677 228.53C299.677 228.53 292.37 225.413 286.385 229.832C278.041 235.993 280.758 249.485 290.274 252.808C296.956 255.141 304.883 248.539 304.883 248.539C305.722 248.554 314.772 252.657 320.276 244.366C320.276 244.366 326.012 248.372 330.293 244.59C330.293 244.59 333.204 248.996 338.41 247.576Z" fill="#263238"/>
<path d="M316.457 277.394C311.491 277.697 307.204 273.903 306.9 268.939C306.597 263.972 310.389 259.685 315.356 259.382C320.321 259.078 324.608 262.871 324.913 267.838C325.17 272.038 322.496 275.752 318.662 276.981C317.962 277.206 317.224 277.347 316.457 277.394ZM308.104 268.865C308.368 273.167 312.082 276.453 316.384 276.19C320.684 275.932 323.97 272.213 323.709 267.911C323.444 263.609 319.73 260.322 315.428 260.586C314.765 260.626 314.124 260.749 313.519 260.944C310.197 262.009 307.882 265.227 308.104 268.865Z" fill="#E59B6C"/>
<path d="M297.75 281.003C294.116 281.714 290.382 278.321 289.424 273.439C288.967 271.109 289.2 268.78 290.081 266.883C290.992 264.92 292.477 263.643 294.281 263.294C296.078 262.942 297.941 263.559 299.524 265.034C301.056 266.457 302.152 268.526 302.608 270.858C303.512 275.478 301.61 279.802 298.322 280.857C298.136 280.915 297.946 280.964 297.75 281.003ZM291.176 267.39C290.401 269.059 290.199 271.125 290.607 273.208C291.437 277.436 294.536 280.403 297.518 279.819C300.511 279.236 302.252 275.319 301.425 271.088C301.016 269.005 300.049 267.168 298.703 265.916C297.408 264.713 295.919 264.202 294.512 264.478C294.361 264.507 294.214 264.546 294.069 264.592C292.857 264.981 291.841 265.958 291.176 267.39Z" fill="#E59B6C"/>
<path d="M307.405 269.905L307.987 268.848C306.423 267.984 303.02 267.076 301.312 269.813L302.336 270.451C303.863 267.998 307.261 269.828 307.405 269.905Z" fill="#E59B6C"/>
<path d="M347.297 264.456L348.242 263.707C347.891 263.267 344.747 259.404 342.02 259.492C339.472 259.582 323.895 264.177 323.234 264.374L323.577 265.53C328.041 264.208 340.091 260.762 342.059 260.698C343.86 260.639 346.45 263.391 347.297 264.456Z" fill="#E59B6C"/>
<path d="M336.867 266.841C336.867 266.841 340.557 255.266 345.608 256.294C350.659 257.322 349.948 272.658 345.47 276.119C340.992 279.58 337.707 275.498 337.707 275.498L336.867 266.841Z" fill="#DD6A57"/>
<path d="M345.296 260.685C345.375 260.653 345.426 260.762 345.365 260.813C342.262 263.356 341.417 267.231 341.17 271.052C341.817 269.409 343.031 268.242 345.183 268.951C345.296 268.988 345.252 269.161 345.146 269.171C343.594 269.312 342.623 269.89 342.003 271.361C341.564 272.402 341.413 273.593 341.211 274.701C341.144 275.07 340.517 275.079 340.525 274.675C340.526 274.646 340.528 274.614 340.528 274.584C339.029 270.084 340.577 262.653 345.296 260.685Z" fill="#263238"/>
<path d="M342.455 258.079C342.455 258.079 341.736 241.898 336.043 233.563C329.705 224.285 312.205 218.07 299.68 228.531C299.68 228.531 317.868 223.807 329.772 234.98C335.247 240.119 337.141 259.106 337.141 259.106L342.455 258.079Z" fill="#C7C7C7"/>
<path d="M328.314 267.875C329.145 276.068 335.646 282.119 342.834 281.39C350.022 280.661 355.175 273.428 354.344 265.235C353.513 257.042 347.012 250.991 339.824 251.72C332.636 252.449 327.483 259.682 328.314 267.875Z" fill="#C7C7C7"/>
<path d="M332.063 267.025C332.81 274.39 338.654 279.829 345.115 279.173C351.576 278.518 356.208 272.016 355.461 264.651C354.714 257.286 348.871 251.847 342.409 252.503C335.949 253.159 331.316 259.66 332.063 267.025Z" fill="#455A64"/>
<path d="M371.409 310.723C390.79 331.481 436.894 409.379 421.947 423.743C406.893 438.209 324.045 418.772 300.743 407.671C293.812 404.369 320.151 361.154 328.298 360.145C335.08 359.305 369.757 375.167 370.76 373.172C371.893 370.918 364.018 356.448 355.675 326.323C346.056 291.586 362.848 301.554 371.409 310.723Z" fill="#DD6A57"/>
<path d="M293.864 346.197C277.018 343.851 272.332 345.834 259.166 336.304C250.526 330.05 242.825 332.883 247.755 342.82C255.817 359.073 276.916 366.665 284.989 367.191L293.864 346.197Z" fill="#DD6A57"/>
<path d="M338.611 362.414C338.611 362.414 319.682 351.903 301.977 347.626C289.733 344.669 262.378 341.205 236.206 368.195C229.998 374.597 225.692 388.121 239.629 381.348C249.529 376.536 254.353 370.494 260.62 368.744C260.62 368.744 257.185 386.597 263.841 392.566C266.815 395.234 275.105 402.324 282.346 406.924C282.346 406.924 283.772 405.616 285.343 403.702C285.343 403.702 292.087 408.691 304.783 407.482L338.611 362.414Z" fill="#DD6A57"/>
<path d="M289.839 346.67C283.985 349.723 271.687 356.4 263.527 365.361C254.463 375.315 239.685 396.932 247.101 403.547C252.539 408.398 258.907 400.64 258.907 400.64C258.907 400.64 254.682 410.862 260.553 414.17C265.903 417.184 270.47 410.887 270.47 410.887C270.47 410.887 268.973 417.529 274.686 419.439C281.557 421.737 283.566 407.441 292.537 403.755C294.551 402.928 289.839 346.67 289.839 346.67Z" fill="#DD6A57"/>
<path d="M275.641 373.184C270.606 376.957 261.371 388.46 258.816 400.376C258.758 400.646 258.931 400.835 259.036 400.599C264.635 388.078 272.239 377.546 275.734 373.269C275.782 373.212 275.698 373.142 275.641 373.184Z" fill="#263238"/>
<path d="M285.423 382.626C281.414 386.328 272.424 398.61 270.25 410.773C270.201 411.045 270.388 411.222 270.483 410.983C275.794 397.659 282.288 387.183 285.522 382.706C285.565 382.646 285.475 382.578 285.423 382.626Z" fill="#263238"/>
<path d="M260.616 368.634C255.126 370.25 251.555 372.944 246.922 376.161C244.63 377.752 242.307 379.312 239.85 380.64C237.613 381.849 234.315 383.678 231.933 381.784C230.607 380.73 230.627 378.811 230.921 377.299C231.252 375.6 231.902 373.967 232.91 372.557C232.961 372.486 232.838 372.394 232.785 372.465C231.855 373.719 231.054 375.054 230.514 376.523C230.025 377.853 229.643 379.4 230.018 380.808C230.825 383.836 234.394 384.233 236.923 383.4C238.435 382.902 239.867 382.098 241.244 381.309C242.575 380.546 243.869 379.718 245.14 378.86C247.75 377.097 250.255 375.185 252.844 373.392C255.689 371.422 257.653 370.458 260.698 368.818C260.802 368.762 260.725 368.602 260.616 368.634Z" fill="#263238"/>
<path d="M249.124 387.949C250.544 384.819 258.238 371.781 260.733 368.764C260.797 368.687 260.693 368.587 260.62 368.656C256.341 372.713 249.464 383.486 247.861 386.938C246.277 390.349 244.453 394.709 244.453 398.512C244.452 404.248 248.257 405.335 249.664 405.616C251.343 405.951 253.038 405.598 254.546 404.817C256.224 403.948 257.848 402.145 258.971 400.659C259.03 400.581 258.926 400.474 258.858 400.551C256.871 402.81 253.568 405.041 250.451 404.631C249.099 404.453 247.729 403.838 246.903 402.717C245.932 401.4 245.855 399.667 245.986 398.097C246.283 394.543 247.665 391.165 249.124 387.949Z" fill="#263238"/>
<path d="M270.254 410.773C269.456 411.457 267.81 413.835 265.196 414.343C263.285 414.715 261.285 414.534 259.817 413.142C258.379 411.778 257.84 409.852 257.752 407.925C257.702 406.835 258.572 402.126 258.953 400.706C258.983 400.594 258.843 400.544 258.809 400.649C257.98 403.18 257.087 405.935 257.086 408.415C257.085 410.479 257.737 412.693 259.283 414.133C260.882 415.624 263.226 416.151 265.287 415.379C266.309 414.997 269.537 412.929 270.475 410.887C270.494 410.843 270.289 410.743 270.254 410.773Z" fill="#263238"/>
<path d="M291.997 402.726C291.095 403.258 290.316 404.055 289.565 404.777C288.76 405.552 287.983 406.358 287.225 407.179C285.709 408.82 284.398 410.698 283.256 412.615C282.098 414.561 281.031 416.73 279.14 418.083C277.29 419.408 274.747 419.618 272.861 418.239C271.878 417.52 271.216 416.5 270.899 415.33C270.573 414.126 270.354 412.659 270.533 411.417C270.549 411.305 270.388 411.286 270.379 411.4C270.284 412.608 269.957 413.73 270.097 414.955C270.221 416.033 270.572 417.099 271.221 417.976C272.552 419.773 274.91 420.562 277.078 420.164C279.474 419.724 281.232 417.922 282.533 415.974C283.982 413.805 285.175 411.491 286.723 409.382C287.537 408.273 288.337 407.153 289.229 406.104C290.157 405.013 291.271 404.035 292.127 402.89C292.197 402.797 292.108 402.661 291.997 402.726Z" fill="#263238"/>
<path d="M298.707 407.62C296.905 407.465 292.748 406.771 289.468 405.704C289.372 405.673 289.237 405.943 289.325 405.991C290.549 406.666 293.109 407.338 293.881 407.495C295.422 407.809 297.11 407.949 298.683 407.788C298.772 407.779 298.812 407.629 298.707 407.62Z" fill="#263238"/>
<path d="M402.134 388.321C397.299 385.016 392.141 382.176 386.884 379.606C381.676 377.06 376.218 375.087 370.699 373.336C367.546 372.336 364.356 371.491 361.165 370.624C361.067 370.598 361.031 370.747 361.127 370.776C366.694 372.447 372.14 374.614 377.473 376.914C382.786 379.205 388.048 381.587 393.272 384.072C396.227 385.478 399.115 387.023 402.021 388.526C402.157 388.597 402.257 388.405 402.134 388.321Z" fill="#263238"/>
<path d="M411.107 359.682L364.061 358.125C364.061 358.125 355.304 334.902 351.97 314.245C348.636 293.587 365.557 299.893 383.223 322.009C400.888 344.126 411.107 359.682 411.107 359.682Z" fill="#C76323"/>
<path d="M369.298 340.873C369.038 341.073 368.818 341.183 368.548 341.243C368.028 341.343 367.518 341.193 367.158 340.813C366.588 340.263 365.678 340.103 364.998 340.443C364.648 340.583 364.358 340.893 364.188 341.143C364.008 341.413 363.808 341.663 363.648 341.953C363.938 341.793 364.188 341.593 364.468 341.413C364.728 341.203 364.938 341.083 365.208 341.013C365.718 340.893 366.258 341.033 366.608 341.383C367.138 341.933 368.048 342.143 368.738 341.833C369.088 341.693 369.388 341.413 369.568 341.143C369.748 340.873 369.948 340.623 370.108 340.333C369.818 340.493 369.568 340.693 369.298 340.873ZM384.138 332.223C384.068 331.903 384.028 331.583 383.938 331.263C383.848 331.583 383.808 331.903 383.748 332.223C383.708 332.553 383.648 332.793 383.508 333.023C383.228 333.473 382.748 333.763 382.258 333.753C381.488 333.743 380.698 334.233 380.428 334.953C380.278 335.293 380.268 335.703 380.328 336.023C380.388 336.343 380.428 336.663 380.518 336.983C380.608 336.663 380.648 336.343 380.718 336.023C380.748 335.693 380.838 335.463 380.978 335.233C381.278 334.793 381.748 334.533 382.268 334.543C383.058 334.533 383.808 334.003 384.058 333.283C384.208 332.943 384.188 332.513 384.138 332.223ZM367.608 306.353C367.608 306.473 367.618 306.583 367.638 306.693C367.708 307.003 367.738 307.323 367.828 307.643C367.918 307.323 367.958 307.003 368.028 306.693C368.028 306.683 368.028 306.683 368.028 306.673C367.888 306.553 367.748 306.453 367.608 306.353ZM401.148 345.483C400.788 345.473 400.458 345.323 400.218 345.073C399.688 344.523 398.778 344.323 398.078 344.633C397.728 344.763 397.428 345.053 397.248 345.313C397.068 345.593 396.868 345.843 396.708 346.133C396.998 345.973 397.248 345.773 397.528 345.593C397.778 345.383 398.008 345.273 398.268 345.223C398.788 345.113 399.308 345.273 399.668 345.643C400.168 346.143 400.948 346.313 401.598 346.113C401.458 345.913 401.308 345.703 401.148 345.483ZM368.588 322.033C368.258 321.993 368.018 321.913 367.788 321.773C367.348 321.473 367.098 321.003 367.108 320.483C367.098 319.683 366.568 318.933 365.848 318.683C365.498 318.543 365.078 318.553 364.778 318.613C364.458 318.683 364.138 318.723 363.818 318.813C364.138 318.893 364.458 318.933 364.778 319.003C365.118 319.043 365.348 319.103 365.588 319.243C366.038 319.523 366.318 320.003 366.318 320.493C366.308 321.253 366.798 322.053 367.518 322.323C367.858 322.473 368.268 322.483 368.588 322.423C368.898 322.353 369.218 322.323 369.538 322.233C369.218 322.143 368.898 322.103 368.588 322.033ZM390.228 354.943C389.898 354.903 389.668 354.823 389.438 354.673C388.998 354.383 388.738 353.913 388.748 353.383C388.738 352.593 388.208 351.843 387.488 351.593C387.148 351.453 386.718 351.463 386.428 351.523C386.108 351.593 385.788 351.623 385.468 351.713C385.788 351.803 386.108 351.843 386.428 351.913C386.758 351.943 386.998 352.013 387.228 352.153C387.678 352.423 387.968 352.903 387.958 353.403C387.948 354.163 388.438 354.953 389.158 355.223C389.498 355.383 389.908 355.393 390.228 355.333C390.548 355.263 390.868 355.223 391.188 355.133C390.868 355.043 390.548 355.003 390.228 354.943Z" fill="white"/>
<path d="M365.995 357.966C365.742 357.964 364.087 357.675 364.08 357.675C363.962 357.057 361.278 347.352 360.573 345.239C359.136 340.936 357.446 336.705 355.816 332.472C355.764 332.338 355.558 332.396 355.599 332.538C356.661 336.179 357.657 339.846 358.747 343.48C358.418 342.965 358.094 342.446 357.782 341.92C357.145 340.842 356.589 339.722 355.994 338.621C355.941 338.523 355.786 338.596 355.817 338.701C356.283 340.23 357.048 341.678 357.891 343.029C358.254 343.611 358.676 344.161 359.114 344.691C359.207 344.993 359.295 345.297 359.389 345.598C360.057 347.722 363.502 358.23 363.678 358.241C363.721 358.244 365.421 358.281 365.947 358.285C366.078 358.285 366.125 357.967 365.995 357.966Z" fill="#263238"/>
<path d="M403.493 350.574C393.347 349.816 383.133 349.767 372.945 349.919C370.063 349.962 367.18 350.072 364.303 350.251C364.222 350.256 364.206 350.375 364.292 350.379C369.367 350.65 374.45 350.714 379.535 350.808C384.632 350.902 389.738 350.954 394.838 350.906C397.718 350.878 400.596 350.853 403.476 350.766C403.601 350.762 403.62 350.583 403.493 350.574Z" fill="#263238"/>
<path d="M241.473 440.665H248.656V435.975H241.473V440.665Z" fill="#455A64"/>
<path d="M232.161 440.355H239.344V435.665H232.161V440.355Z" fill="#455A64"/>
<path d="M222.848 440.046H230.031V435.356H222.848V440.046Z" fill="#455A64"/>
<path d="M213.528 439.735H220.711V435.045H213.528V439.735Z" fill="#455A64"/>
<path d="M204.215 439.425H211.398V434.735H204.215V439.425Z" fill="#455A64"/>
<path d="M194.903 439.115H202.086V434.425H194.903V439.115Z" fill="#455A64"/>
<path d="M185.59 438.806H192.773V434.116H185.59V438.806Z" fill="#455A64"/>
<path d="M176.27 438.495H183.453V433.805H176.27V438.495Z" fill="#455A64"/>
<path d="M166.958 438.186H174.141V433.496H166.958V438.186Z" fill="#455A64"/>
<path d="M165.203 443.361H250.422V437.655L165.203 435.279V443.361Z" fill="#37474F"/>
<path d="M82.0214 420.859H222.706L200.332 316.123H59.6484L82.0214 420.859Z" fill="#455A64"/>
<path d="M76.8183 420.859H217.503L195.129 316.123H54.4453L76.8183 420.859Z" fill="#37474F"/>
<path d="M123.813 362.422C124.574 367.226 129.085 371.12 133.889 371.12C138.693 371.12 141.971 367.226 141.21 362.422C140.449 357.618 135.938 353.724 131.134 353.724C126.33 353.724 123.052 357.618 123.813 362.422Z" fill="#263238"/>
<path d="M116.609 448.213H185.802V442.84L116.609 440.602V448.213Z" fill="#455A64"/>
<path d="M97.7969 448.205H134.947L157.32 389.517H120.17L97.7969 448.205Z" fill="#455A64"/>
<path d="M91.6797 448.205H128.83L151.203 389.517H114.054L91.6797 448.205Z" fill="#263238"/>
<path d="M253.051 449.64C253.051 449.64 318.297 449.64 324.387 449.64C330.477 449.64 321.667 432.305 299.448 425.655C277.23 419.004 246.043 443.137 253.051 449.64Z" fill="#37474F"/>
<path d="M281.043 449.64C280.609 447.729 280.003 445.884 279.318 444.083C278.612 442.289 277.783 440.552 276.792 438.917C275.836 437.257 274.636 435.757 273.328 434.364L272.314 433.341L271.209 432.413C270.509 431.731 269.638 431.293 268.867 430.671C270.647 431.46 272.433 432.416 273.869 433.803C275.343 435.135 276.638 436.685 277.647 438.402C278.662 440.113 279.481 441.936 280.053 443.83C280.63 445.719 280.993 447.677 281.043 449.64Z" fill="#263238"/>
<path d="M272.588 433.146C271.612 433.671 270.632 434.173 269.677 434.724C268.709 435.247 267.75 435.785 266.807 436.348C264.926 437.478 263.054 438.617 261.287 439.896C259.504 441.151 257.817 442.534 256.313 444.091C255.567 444.874 254.885 445.719 254.322 446.642C253.731 447.55 253.298 448.56 253.047 449.64C253.073 448.526 253.425 447.431 253.892 446.408C254.39 445.395 255.032 444.46 255.737 443.583C257.166 441.838 258.899 440.384 260.708 439.083C262.531 437.794 264.451 436.658 266.443 435.676C268.433 434.693 270.47 433.806 272.588 433.146Z" fill="#263238"/>
<path d="M386.989 408.133L382.756 461.367H353.468L349.234 408.133H386.989Z" fill="#C76323"/>
<path opacity="0.1" d="M386.989 408.133L382.756 461.367H353.468L349.234 408.133H386.989Z" fill="black"/>
<path d="M389.508 403.326H346.461V411.087H389.508V403.326Z" fill="#455A64"/>
<path d="M386.561 403.326H349.414L351.585 394.607H384.39L386.561 403.326Z" fill="#37474F"/>
<path d="M378.273 435.217C378.273 442.128 373.721 447.731 368.105 447.731C362.489 447.731 357.938 442.128 357.938 435.217C357.938 428.306 362.489 422.703 368.105 422.703C373.72 422.703 378.273 428.306 378.273 435.217Z" fill="white"/>
</svg>
