<svg width="500" height="500" viewBox="0 0 500 500" fill="none" xmlns="http://www.w3.org/2000/svg">
<path d="M285.611 120.504C268.324 130.28 236.874 160.031 239.183 168.302C243.838 184.98 270.395 206.273 275.954 210.793C279.186 213.421 292.438 183.917 289.395 180.665C285.841 176.867 270.714 166.532 270.658 164.504C270.615 162.959 283.21 146.42 292.496 132.347C303.267 116.023 293.85 115.843 285.611 120.504Z" fill="#EB9481"/>
<path d="M271.641 205.939C274.03 208.824 286.145 221.079 290.279 223.736C294.413 226.392 306.864 233.174 309.22 230.215C311.576 227.255 308.089 224.979 308.089 224.979C308.089 224.979 313.8 227.01 315.9 223.815C318 220.62 312.46 217.256 312.46 217.256C312.46 217.256 318.477 218.914 320.344 215.578C322.21 212.241 316.073 209.792 316.073 209.792C316.073 209.792 321.504 211.565 321.885 208.168C322.343 204.083 311.962 201.946 307.617 198.671C306.63 197.928 288.695 182.173 288.695 182.173L271.641 205.939Z" fill="#EB9481"/>
<path d="M316.59 210.01C308.959 208.42 305.896 206.405 300.379 201.072C300.271 200.968 300.092 201.105 300.195 201.224C305.122 206.938 308.6 210.021 316.533 210.384C316.92 210.402 316.953 210.086 316.59 210.01Z" fill="#263238"/>
<path d="M313.071 217.37C305.29 215.027 301.947 212.87 295.758 207.709C295.67 207.636 295.538 207.777 295.62 207.858C301.268 213.429 304.809 216.424 312.891 217.744C313.256 217.804 313.427 217.477 313.071 217.37Z" fill="#263238"/>
<path d="M307.782 224.705C300.412 221.892 296.645 219.686 291.28 213.904C291.153 213.768 290.943 213.939 291.056 214.088C295.954 220.515 300.633 223.304 307.672 224.919C308.153 225.03 308.246 224.882 307.782 224.705Z" fill="#263238"/>
<path d="M285.236 178.701C285.236 178.701 295.001 178.891 299.272 179.92C303.543 180.95 318.049 190.646 316.133 193.897C313.659 198.096 304.182 194.148 299.793 191.608C299.793 191.608 294.079 201.326 286.664 199.964C279.251 198.603 285.236 178.701 285.236 178.701Z" fill="#EB9481"/>
<path d="M315.073 194.83C310.055 197.031 304.509 193.325 300.067 191.179C299.729 191.016 299.479 191.23 299.405 191.513C296.738 195.426 291.837 200.17 286.838 200.22C286.692 200.222 286.674 200.429 286.821 200.448C292.189 201.122 297.385 196.855 300.032 192.382C304.553 194.654 310.278 198.126 315.097 194.878C315.124 194.858 315.105 194.816 315.073 194.83Z" fill="#263238"/>
<path d="M288.615 176.823L268.36 207.065C268.36 207.065 236.176 177.263 237.962 166.229C239.748 155.195 268.174 129.185 283.695 120.578C299.216 111.971 300.548 120.783 293.635 132.412C286.722 144.041 271.591 164.551 271.887 165.123C272.183 165.695 288.615 176.823 288.615 176.823Z" fill="#455A64"/>
<path d="M273.555 193.183C275.401 191.452 277.207 189.679 279.012 187.906C279.879 187.055 280.754 186.21 281.593 185.332C282.496 184.386 283.498 183.487 284.331 182.48C284.389 182.41 284.31 182.321 284.235 182.376C283.181 183.146 282.226 184.093 281.226 184.935C280.297 185.716 279.403 186.542 278.502 187.355C276.624 189.05 274.746 190.745 272.907 192.483C269.224 195.965 265.653 199.54 262.115 203.168C262.03 203.255 262.151 203.388 262.244 203.307C266.077 199.996 269.859 196.648 273.555 193.183Z" fill="#263238"/>
<path d="M293.64 132.409C286.72 144.039 271.59 164.549 271.89 165.119C272.19 165.699 288.62 176.819 288.62 176.819L268.36 207.069C268.36 207.069 243.07 183.639 238.57 170.639L294.57 117.209C299.21 118.029 298.29 124.579 293.64 132.409Z" fill="#37474F"/>
<path d="M298.018 218.181L400.133 207.991L390.475 111.208L288.36 121.398L298.018 218.181Z" fill="#C76323"/>
<path opacity="0.2" d="M303.392 139.777C302.898 145.375 308.098 149.632 313.488 148.042C316.5 147.154 318.728 144.431 319.004 141.303C319.497 135.705 314.298 131.449 308.908 133.039C305.896 133.927 303.668 136.649 303.392 139.777Z" fill="black"/>
<path opacity="0.2" d="M336.781 185.164L397.27 179.13L363.642 148.232L336.781 185.164Z" fill="black"/>
<path d="M313.578 187.51L363.518 182.529L336.346 162.934L313.578 187.51Z" fill="#C76323"/>
<path opacity="0.3" d="M313.578 187.51L363.518 182.529L336.346 162.934L313.578 187.51Z" fill="black"/>
<path d="M398.521 191.406L296.406 201.596L298.059 218.161L400.174 207.971L398.521 191.406Z" fill="#C76323"/>
<path opacity="0.3" d="M397.295 179.15L295.18 189.34L298.056 218.161L400.171 207.971L397.295 179.15Z" fill="black"/>
<path d="M243.931 385.917C243.931 385.917 242.86 433.813 242.859 433.846C243.123 442.693 243.512 450.444 244.088 454.435C244.088 454.457 244.088 454.478 244.098 454.5C244.314 456.006 244.555 456.964 244.832 457.213C244.853 457.235 244.864 457.256 244.886 457.267C247.572 458.972 318.33 458.924 320.797 458.092C323.274 457.27 321.086 450.163 318.339 447.974C315.57 445.785 288.482 433.687 288.482 433.687L287.981 385.826L243.931 385.917Z" fill="#EB9481"/>
<path d="M243.079 424.351C243.079 424.351 242.867 433.814 242.867 433.846C243.131 442.693 243.52 450.444 244.096 454.435C244.096 454.457 244.096 454.478 244.106 454.5C244.408 455.985 244.67 456.965 244.84 457.213C244.861 457.235 244.872 457.256 244.894 457.267C247.58 458.972 318.338 458.924 320.805 458.092C323.282 457.27 321.094 450.163 318.347 447.974C315.578 445.785 288.49 433.687 288.49 433.687L288.284 424.046L243.079 424.351Z" fill="white"/>
<path d="M292.817 433.596C288.087 432.946 282.388 433.941 278.966 437.452C278.833 437.588 279.029 437.774 279.178 437.72C283.733 436.04 288.007 434.897 292.826 434.189C293.167 434.14 293.156 433.643 292.817 433.596Z" fill="#263238"/>
<path d="M296.301 435.473C291.571 434.823 285.872 435.817 282.45 439.329C282.317 439.465 282.513 439.651 282.662 439.596C287.218 437.916 291.491 436.774 296.311 436.066C296.65 436.017 296.64 435.52 296.301 435.473Z" fill="#263238"/>
<path d="M299.778 437.35C295.048 436.7 289.349 437.694 285.927 441.206C285.794 441.342 285.989 441.529 286.139 441.473C290.694 439.793 294.968 438.65 299.787 437.943C300.127 437.894 300.116 437.397 299.778 437.35Z" fill="#263238"/>
<path d="M320.802 458.093C318.331 458.928 247.579 458.976 244.887 457.265C243.852 456.633 243.244 446.324 242.867 433.846C242.864 433.716 242.861 433.585 242.859 433.455L288.504 432.914L288.487 433.688C288.487 433.688 315.577 445.783 318.342 447.976C321.084 450.161 323.273 457.269 320.802 458.093Z" fill="#37474F"/>
<path d="M242.852 433.449L242.863 433.853C243.249 446.324 243.847 456.635 244.887 457.267C246.106 458.042 261.452 458.455 278.031 458.606C297.868 458.778 319.458 458.553 320.806 458.1C323.274 457.267 321.079 450.162 318.341 447.973C315.576 445.785 288.488 433.689 288.488 433.689L288.508 432.921L273.285 433.098L242.852 433.449Z" fill="#C76323"/>
<path d="M319.997 455.35C308.07 455.065 259.938 455.043 248.127 455.667C248.031 455.672 248.031 455.738 248.127 455.742C259.942 456.282 308.073 455.915 319.998 455.545C320.249 455.537 320.249 455.356 319.997 455.35Z" fill="#263238"/>
<path opacity="0.1" d="M273.281 433.096C274.601 440.708 276.596 451.925 278.027 458.605C297.864 458.777 319.454 458.552 320.802 458.099C323.27 457.266 321.075 450.161 318.337 447.972C315.572 445.784 288.484 433.688 288.484 433.688L288.504 432.92L273.281 433.096Z" fill="black"/>
<path d="M239.453 433.273L290.637 433.758C290.637 433.758 291.928 344.491 292.149 316.698C292.402 284.955 290.602 189.732 290.602 189.732H252.334C252.334 189.732 242.064 210.716 247.933 234.332L249.556 319.286L239.453 433.273Z" fill="#263238"/>
<path d="M243.251 424.311C244.571 424.069 245.987 424.081 247.327 423.986C248.839 423.879 250.347 423.766 251.862 423.702C254.774 423.579 257.686 423.529 260.601 423.517C266.478 423.494 272.356 423.541 278.23 423.724C281.573 423.828 284.914 423.961 288.252 424.152C288.383 424.16 288.377 424.358 288.247 424.363C282.421 424.575 276.591 424.666 270.762 424.779C264.945 424.891 259.106 425.006 253.289 424.893C251.618 424.861 249.948 424.846 248.279 424.751C246.631 424.657 244.902 424.749 243.272 424.509C243.174 424.493 243.134 424.332 243.251 424.311Z" fill="#37474F"/>
<path d="M285.955 377.31C286.551 363.531 286.379 344.81 286.757 331.023C287.513 303.446 287.702 275.857 287.354 248.272C287.159 232.795 286.745 217.322 286.284 201.852C286.279 201.675 286.548 201.685 286.557 201.859C288.022 229.554 288.58 257.303 288.612 285.034C288.644 312.623 288.679 345.145 287.317 372.701C286.552 388.167 286.611 404.641 285.155 420.059C285.142 420.192 284.939 420.19 284.945 420.053C285.567 406.137 285.353 391.228 285.955 377.31Z" fill="#37474F"/>
<path d="M297.922 386.775C297.922 386.775 298.313 433.053 298.312 433.085C298.341 441.936 298.523 449.694 298.992 453.699C298.991 453.721 298.99 453.742 299.001 453.764C299.176 455.275 299.392 456.239 299.663 456.496C299.684 456.518 299.694 456.54 299.715 456.551C302.354 458.327 373.089 460.164 375.577 459.397C378.075 458.642 376.077 451.478 373.389 449.217C370.679 446.955 343.923 434.14 343.923 434.14L343.093 387.886L297.922 386.775Z" fill="#EB9481"/>
<path d="M298.234 423.583C298.234 423.583 298.315 433.052 298.313 433.084C298.342 441.935 298.524 449.693 298.993 453.698C298.992 453.72 298.991 453.741 299.002 453.763C299.264 455.255 299.5 456.242 299.664 456.495C299.685 456.517 299.695 456.539 299.716 456.55C302.355 458.326 373.09 460.163 375.578 459.396C378.076 458.641 376.078 451.477 373.39 449.216C370.68 446.954 343.924 434.139 343.924 434.139L343.975 424.496L298.234 423.583Z" fill="white"/>
<path d="M348.252 434.165C343.541 433.389 337.818 434.232 334.304 437.651C334.168 437.783 334.358 437.975 334.509 437.924C339.107 436.366 343.41 435.337 348.247 434.758C348.587 434.717 348.59 434.22 348.252 434.165Z" fill="#263238"/>
<path d="M351.683 436.134C346.972 435.358 341.249 436.2 337.735 439.62C337.598 439.752 337.789 439.944 337.94 439.893C342.539 438.335 346.841 437.307 351.678 436.727C352.018 436.686 352.02 436.189 351.683 436.134Z" fill="#263238"/>
<path d="M355.113 438.104C350.402 437.328 344.678 438.171 341.164 441.591C341.028 441.723 341.218 441.915 341.369 441.863C345.967 440.305 350.27 439.276 355.106 438.697C355.448 438.656 355.451 438.159 355.113 438.104Z" fill="#263238"/>
<path d="M375.574 459.398C373.082 460.167 302.354 458.331 299.708 456.55C298.69 455.89 298.358 445.569 298.312 433.086C298.314 432.956 298.313 432.825 298.314 432.695L343.958 433.369L343.922 434.143C343.922 434.143 370.679 446.955 373.385 449.221C376.068 451.477 378.067 458.64 375.574 459.398Z" fill="#C76323"/>
<path d="M374.848 456.634C362.933 456.032 314.819 454.728 302.995 455.038C302.899 455.041 302.897 455.106 302.993 455.113C314.79 455.968 362.913 456.882 374.844 456.83C375.095 456.828 375.1 456.647 374.848 456.634Z" fill="#263238"/>
<path d="M274.537 238.719C274.548 238.751 295.534 304.902 295.913 317.066C296.237 327.434 294.91 433.848 294.91 433.848L348.066 434.164C348.066 434.164 343.576 325.646 342.746 314.837C341.194 294.629 323.491 239.153 310.83 189.732H253.523C253.523 189.732 254.021 215.614 265.792 234.332C265.792 234.332 271.123 236.8 274.537 238.719Z" fill="#263238"/>
<path d="M297.738 424.049C303.878 423.872 310.246 423.691 316.389 423.844C322.479 423.996 328.587 424.089 334.67 424.451C338.121 424.657 341.564 424.772 345.007 425.112C345.121 425.123 345.117 425.29 345.003 425.297C338.866 425.654 332.705 425.583 326.56 425.527C320.461 425.471 314.368 425.406 308.274 425.127C304.823 424.968 301.381 424.795 297.935 424.556C297.564 424.529 297.367 424.06 297.738 424.049Z" fill="#37474F"/>
<path d="M309.365 220.914C311.259 227.238 312.858 233.656 314.553 240.036C316.263 246.467 317.966 252.899 319.66 259.335C322.937 271.784 326.174 284.256 328.631 296.898C331.103 309.62 332.601 322.434 332.88 335.395C333.164 348.571 332.889 361.766 332.799 374.943C332.709 388.193 332.597 401.442 332.369 414.69C332.34 416.338 332.305 417.984 332.244 419.632C332.238 419.791 332.002 419.784 331.998 419.626C331.646 406.449 331.833 393.244 331.876 380.063C331.919 366.881 332.093 353.692 331.981 340.51C331.869 327.393 330.865 314.393 328.601 301.467C326.379 288.782 323.254 276.28 320.014 263.824C318.166 256.718 316.299 249.617 314.455 242.51C312.599 235.356 310.614 228.219 308.982 221.009C308.927 220.761 309.293 220.672 309.365 220.914Z" fill="#37474F"/>
<path d="M287.685 239.997C285.038 239.95 282.398 239.77 279.792 239.282C277.16 238.789 274.702 237.915 272.144 237.161C269.717 236.446 267.135 236.335 264.646 235.935C262.121 235.529 259.6 234.868 257.296 233.746C257.187 233.693 257.096 233.856 257.205 233.912C259.492 235.083 261.794 236.191 264.249 236.966C266.769 237.761 269.404 237.87 271.962 238.496C274.593 239.14 277.127 239.995 279.832 240.308C282.454 240.611 285.106 240.602 287.715 240.175C287.817 240.155 287.782 239.998 287.685 239.997Z" fill="#37474F"/>
<path d="M291.037 292.645C290.534 290.685 290.06 288.718 289.528 286.765C288.452 282.815 287.36 278.861 286.166 274.944C283.793 267.16 281.553 259.327 279.042 251.585C277.619 247.195 276.343 242.748 274.672 238.443C274.631 238.337 274.479 238.383 274.502 238.494C275.341 242.508 276.53 246.436 277.594 250.395C278.657 254.351 279.796 258.287 280.937 262.221C283.204 270.038 285.423 277.873 287.899 285.628C288.593 287.802 289.306 289.97 290.057 292.126C290.824 294.328 291.427 296.601 292.347 298.747C292.397 298.864 292.557 298.814 292.536 298.691C292.183 296.646 291.553 294.654 291.037 292.645Z" fill="#37474F"/>
<path d="M307.569 131.543C303.71 131.913 297.323 124.734 295.426 119.758C295.298 119.416 296.244 116.139 297.205 112.101C297.779 109.649 298.36 106.905 298.709 104.362L314.122 110.426C314.122 110.426 311.822 115.539 311.241 119.976C311.196 120.347 311.186 120.697 311.207 121.034C311.206 121.083 311.212 121.143 311.206 121.21C311.256 123.237 311.299 131.183 307.569 131.543Z" fill="#EB9481"/>
<path d="M311.21 121.033C311.207 121.079 311.213 121.147 311.209 121.215C310.696 121.213 310.152 121.174 309.554 121.075C300.219 119.409 299.21 108.562 299.164 104.545L314.129 110.43C314.129 110.43 311.828 115.546 311.24 119.975C311.201 120.348 311.188 120.701 311.21 121.033Z" fill="#263238"/>
<path d="M293.277 88.3825C292.489 94.2965 298.149 110.072 302.753 113.037C309.427 117.336 319.015 116.268 322.329 108.552C325.542 101.072 317.802 80.6445 312.784 78.0875C305.393 74.3215 294.441 79.6465 293.277 88.3825Z" fill="#EB9481"/>
<path d="M311.379 95.4801C311.357 95.4421 311.313 95.5591 311.329 95.6021C311.725 96.6601 312 97.9381 311.152 98.6201C311.126 98.6411 311.147 98.6941 311.181 98.6771C312.306 98.1121 311.924 96.4191 311.379 95.4801Z" fill="#263238"/>
<path d="M310.046 94.6869C308.282 95.1379 309.314 98.6329 310.949 98.2149C312.558 97.8029 311.525 94.3079 310.046 94.6869Z" fill="#263238"/>
<path d="M317.453 93.6673C317.449 93.6233 317.553 93.6933 317.564 93.7383C317.85 94.8303 318.361 96.0343 319.446 96.1043C319.48 96.1063 319.493 96.1623 319.455 96.1673C318.21 96.3523 317.548 94.7483 317.453 93.6673Z" fill="#263238"/>
<path d="M318.082 92.2511C319.784 91.6051 320.952 95.0561 319.375 95.6551C317.824 96.2451 316.656 92.7931 318.082 92.2511Z" fill="#263238"/>
<path d="M308.192 93.4958C308.633 93.2358 308.996 92.9218 309.405 92.6188C309.866 92.2768 310.269 92.0527 310.471 91.4887C310.579 91.1867 310.372 90.7617 310.088 90.6297C309.427 90.3207 308.757 90.5978 308.185 90.9868C307.564 91.4088 307.193 91.8918 306.978 92.6098C306.769 93.3058 307.611 93.8388 308.192 93.4958Z" fill="#263238"/>
<path d="M318.915 90.0918C318.407 90.1558 317.928 90.1308 317.419 90.1418C316.845 90.1548 316.389 90.2238 315.884 89.9018C315.613 89.7288 315.517 89.2668 315.66 88.9878C315.993 88.3388 316.692 88.1478 317.383 88.1038C318.132 88.0568 318.722 88.2108 319.331 88.6468C319.923 89.0698 319.585 90.0068 318.915 90.0918Z" fill="#263238"/>
<path d="M313.137 105.656C313.471 105.833 313.833 106.105 314.236 106.022C314.622 105.942 315.013 105.642 315.319 105.406C315.349 105.383 315.395 105.409 315.382 105.448C315.224 105.947 314.71 106.381 314.182 106.442C313.667 106.501 313.299 106.149 313.048 105.736C313.012 105.678 313.088 105.63 313.137 105.656Z" fill="#263238"/>
<path d="M313.317 102.079C314.2 102.84 315.243 103.089 316.262 102.991C316.718 102.95 317.175 102.832 317.606 102.661C317.693 102.633 317.777 102.598 317.851 102.557C317.927 102.524 317.996 102.493 318.077 102.449C318.198 102.394 318.237 102.269 318.223 102.143L318.22 102.136C318.207 102.097 318.198 102.065 318.177 102.028C318.177 102.028 318.177 102.027 318.174 102.019L318.144 101.926C317.92 101.086 317.465 99.8415 317.465 99.8415C317.814 99.9045 319.574 100.144 319.42 99.7155C318.14 96.1745 316.716 92.2365 314.694 88.9825C314.632 88.8715 314.459 88.9525 314.504 89.0685C315.6 92.5205 317.295 95.7565 318.451 99.2065C317.9 99.1645 316.989 99.0555 316.555 99.1925C316.447 99.2615 317.478 101.581 317.548 101.966C317.548 101.966 317.553 101.982 317.553 102.008C316.205 102.601 315.025 102.489 313.388 101.95C313.291 101.912 313.226 102.012 313.317 102.079Z" fill="#263238"/>
<path d="M316.994 102.383C316.994 102.383 316.55 103.599 315.644 104.257C315.311 104.501 314.925 104.672 314.471 104.684C313.539 104.712 313.283 103.925 313.242 103.2C313.205 102.604 313.322 102.046 313.322 102.046C313.322 102.046 314.933 102.856 316.994 102.383Z" fill="#263238"/>
<path d="M315.644 104.258C315.311 104.502 314.925 104.673 314.471 104.685C313.539 104.713 313.283 103.926 313.242 103.201C314.196 103.022 315.299 103.38 315.644 104.258Z" fill="#FF97B8"/>
<path d="M297.785 102.49C300.468 101.199 298.23 94.0671 298.23 94.0671C298.23 94.0671 301.304 91.6221 300.326 84.7971C300.326 84.7971 304.775 90.3931 315.982 85.2081C315.982 85.2081 315.772 82.2321 313.167 79.4061C313.167 79.4061 315.301 81.2311 318.144 84.7401C318.144 84.7401 317.794 74.1371 308.409 73.3971C304.677 73.1031 299.759 75.0001 293.366 81.2231C293.366 81.2231 290.432 77.1371 289.75 78.0191C289.068 78.9011 292.132 82.6121 292.132 82.6121C292.132 82.6121 288.456 82.6591 288.119 83.5411C287.829 84.2991 291.322 84.1021 291.322 84.1021C291.322 84.1021 286.735 87.3871 289.495 93.0091C292.027 98.1651 296.458 103.128 297.785 102.49Z" fill="#263238"/>
<path d="M292.219 83.721C289.167 84.592 287.161 87.672 287.695 90.822C287.991 92.57 288.991 94.232 290.033 95.636C291.173 97.173 292.563 98.397 294.043 99.594C294.125 99.66 294.215 99.521 294.131 99.456C292.782 98.401 291.652 97.028 290.693 95.613C289.79 94.282 288.883 92.778 288.452 91.217C287.598 88.119 289.312 85.01 292.278 83.89C292.373 83.854 292.317 83.693 292.219 83.721Z" fill="#263238"/>
<path d="M301.218 73.9387C299.379 74.9927 297.684 76.3967 296.185 77.8897C294.75 79.3197 293.4 80.8797 292.518 82.7177C292.473 82.8107 292.594 82.8947 292.656 82.8067C294.88 79.6547 297.986 77.0747 301.175 74.9367C304.159 72.9357 308.049 71.6797 311.418 73.5427C311.473 73.5727 311.525 73.4947 311.471 73.4597C308.329 71.3787 304.303 72.1717 301.218 73.9387Z" fill="#263238"/>
<path d="M298.939 101.065C298.939 101.065 294.3 96.505 292.164 98.254C290.029 100.003 294.197 107.089 297.182 107.609C300.167 108.129 300.703 105.375 300.703 105.375L298.939 101.065Z" fill="#EB9481"/>
<path d="M293.408 100.255C293.363 100.259 293.365 100.324 293.407 100.333C295.512 100.762 296.881 102.386 297.952 104.134C297.235 103.518 296.368 103.268 295.526 104.142C295.482 104.188 295.546 104.259 295.599 104.237C296.369 103.916 296.973 103.948 297.635 104.489C298.103 104.872 298.472 105.399 298.844 105.873C298.968 106.031 299.267 105.879 299.163 105.689C299.155 105.675 299.146 105.661 299.138 105.647C298.724 103.141 296.134 100.008 293.408 100.255Z" fill="#263238"/>
<path d="M293.969 117.997L294.79 111.76L312.015 121.676L312.519 127.799L293.969 117.997Z" fill="#EBEBEB"/>
<path d="M244.295 201.568C244.425 201.79 318.098 215.273 318.908 214.662C320.041 213.801 322.613 141.496 311.241 125.086C308.441 121.046 297.594 115.347 293.596 117.224C283.229 122.091 275.738 134.925 271.017 142.342C267.522 147.837 262.743 157.432 258.206 167.337C250.709 183.651 243.836 200.767 244.295 201.568Z" fill="#455A64"/>
<path d="M301.724 137.959C307.188 156.561 317.403 185.28 329.184 190.751C334.955 193.431 365.879 186.633 375.221 184.396C379.185 183.447 366.99 156.311 362.632 156.281C358.347 156.251 339.766 161.696 337.604 160.305C334.863 158.542 325.425 143.321 314.814 130.099C302.344 114.558 297.286 122.847 301.724 137.959Z" fill="#EB9481"/>
<path d="M398.799 147.038C399.895 149.069 396.894 151.204 396.894 151.204C396.894 151.204 399.371 151.953 400.574 154.128C401.952 156.619 398.65 159.872 398.65 159.872C398.65 159.872 401 161.149 402.04 163.574C403.119 166.091 400.256 169.848 400.256 169.848C400.256 169.848 401.791 172.24 401.186 174.981C400.152 179.667 393.245 182.121 388.871 183.725C384.497 185.33 370.586 185.783 367.944 186.137L357.406 158.15C357.406 158.15 374.975 145.375 380.386 144.219C384.943 143.245 396.459 142.704 398.799 147.038Z" fill="#EB9481"/>
<path d="M396.794 151.12C391.699 150.993 386.583 152.085 381.659 153.193C381.549 153.218 381.589 153.389 381.699 153.363C386.584 152.204 391.897 152.324 396.818 151.362C396.953 151.335 396.931 151.124 396.794 151.12Z" fill="#263238"/>
<path d="M398.427 159.538C397.274 159.544 396.125 159.93 395.023 160.237C393.837 160.567 392.657 160.918 391.482 161.286C389.13 162.024 386.795 162.816 384.484 163.676C384.382 163.714 384.414 163.88 384.524 163.846C386.869 163.114 389.226 162.418 391.6 161.785C392.788 161.468 393.979 161.162 395.172 160.864C396.281 160.586 397.475 160.386 398.503 159.866C398.655 159.79 398.601 159.538 398.427 159.538Z" fill="#263238"/>
<path d="M400.158 169.877C399.155 169.842 398.066 170.353 397.127 170.669C396.063 171.028 394.996 171.381 393.927 171.727C391.79 172.421 389.653 173.113 387.494 173.732C387.386 173.763 387.425 173.933 387.534 173.902C389.732 173.285 391.937 172.697 394.129 172.06C395.206 171.747 396.28 171.429 397.353 171.104C398.265 170.828 399.437 170.587 400.197 169.982C400.24 169.948 400.208 169.878 400.158 169.877Z" fill="#263238"/>
<path d="M355.683 156.231L365.954 191.066C365.954 191.066 330.345 195.785 323.803 189.809C312.69 179.658 303.048 150.448 300.177 135.104C297.306 119.76 304.757 116.435 314.606 128.923C324.455 141.411 336.999 158.939 337.77 159.538C338.542 160.138 355.683 156.231 355.683 156.231Z" fill="#455A64"/>
<path d="M353.587 174.624C352.883 172.193 352.123 169.78 351.363 167.366C350.998 166.208 350.643 165.044 350.241 163.898C349.808 162.664 349.462 161.362 348.943 160.164C348.907 160.08 348.791 160.111 348.806 160.202C349.013 161.491 349.424 162.772 349.72 164.045C349.994 165.227 350.324 166.399 350.64 167.571C351.297 170.014 351.955 172.456 352.669 174.884C354.099 179.747 355.663 184.551 357.29 189.351C357.329 189.466 357.502 189.419 357.473 189.3C356.262 184.38 354.996 179.491 353.587 174.624Z" fill="#263238"/>
<path d="M320.059 185.165C317.646 182.172 309.914 167.253 305.054 151.221C303.747 146.91 302.469 142.59 301.156 138.281C301.144 138.241 301.075 138.253 301.083 138.295C301.537 140.969 302.114 143.612 302.775 146.235C302.698 146.063 302.628 145.888 302.548 145.717C302.057 144.669 301.528 143.638 301.004 142.606C300.973 142.544 300.869 142.595 300.895 142.659C301.33 143.755 301.756 144.861 302.237 145.938C302.542 146.622 302.882 147.286 303.214 147.955C303.521 149.094 303.815 150.239 304.184 151.362C314.166 181.811 319.615 184.684 319.881 185.223C319.934 185.335 320.135 185.259 320.059 185.165Z" fill="#263238"/>
</svg>
