<svg width="500" height="500" viewBox="0 0 500 500" fill="none" xmlns="http://www.w3.org/2000/svg">
<path d="M60.3872 246.007C54.8082 230.999 62.4522 214.31 77.4602 208.732C92.4682 203.153 109.157 210.797 114.735 225.805C120.314 240.813 112.67 257.502 97.6622 263.08C82.6542 268.659 65.9662 261.015 60.3872 246.007Z" fill="white" fill-opacity="0.3"/>
<path d="M102.678 237.785C99.3515 247.067 89.6115 253.483 89.6115 253.483C89.6115 253.483 78.6535 249.486 73.2855 241.22C68.8075 234.325 70.1775 226.147 75.6945 223.751C83.6025 220.314 87.3745 234.344 87.3745 234.344C87.3745 234.344 87.8095 219.822 96.3045 221.342C102.225 222.402 105.445 230.043 102.678 237.785Z" fill="white"/>
<path d="M418.358 326.109C415.714 327.453 412.822 328.405 409.729 328.88C401.729 330.121 393.995 327.975 387.982 323.487C382.1 319.112 377.853 312.502 376.634 304.683C374.188 288.853 385.014 274.036 400.844 271.59C416.662 269.13 431.479 279.969 433.938 295.8C435.909 308.536 429.265 320.609 418.358 326.109Z" fill="white" fill-opacity="0.3"/>
<path d="M414.353 297.688C413.936 302.542 409.663 306.139 404.809 305.722C399.955 305.305 396.358 301.032 396.775 296.177C397.192 291.323 401.465 287.726 406.319 288.143C411.173 288.561 414.77 292.834 414.353 297.688Z" fill="white"/>
<path d="M418.671 322.483L418.36 326.109C415.716 327.453 412.824 328.405 409.731 328.88C401.731 330.121 393.997 327.975 387.984 323.487L388.294 319.874C389.013 311.506 396.394 305.269 404.787 305.99C413.18 306.711 419.39 314.116 418.671 322.483Z" fill="white"/>
<path d="M404.331 125.712C420.513 118.819 428.043 100.114 421.15 83.9323C414.257 67.7508 395.551 60.2209 379.37 67.1139C363.188 74.0069 355.658 92.7124 362.551 108.894C369.444 125.075 388.15 132.605 404.331 125.712Z" fill="white" fill-opacity="0.3"/>
<path fill-rule="evenodd" clip-rule="evenodd" d="M387.514 109.08C386.672 108.551 385.939 107.782 384.81 107.89C384.377 107.933 384.473 107.575 384.47 107.34C384.464 103.096 384.465 98.8561 384.461 94.6151C384.461 94.3061 384.48 94.0531 384.816 93.8831C388.055 92.2491 389.461 89.0351 391.445 86.2881C393.568 83.3561 394.296 80.1791 393.795 76.6631C393.66 75.7091 394.105 75.2811 394.965 75.0851C396.001 74.8491 397.031 75.1351 397.386 75.8461C398.259 77.6101 399.008 79.4441 399.236 81.4051C399.423 83.0141 398.846 84.5801 398.645 86.1721C398.497 87.3371 398.226 88.4881 398.005 89.6681C398.289 89.8751 398.619 89.7671 398.924 89.7721C402.507 89.7781 406.091 89.7761 409.675 89.7761C411.185 89.7761 411.925 90.2091 412.134 91.2121C412.392 92.4611 411.732 93.7301 410.573 94.3191C410.305 94.4541 409.821 94.3321 409.788 94.7521C409.756 95.1801 410.255 95.1361 410.502 95.3081C411.799 96.1981 411.559 98.0331 410.057 99.0941C409.696 99.3471 408.996 99.2301 408.978 99.7601C408.97 100.182 409.625 100.177 409.921 100.475C410.968 101.51 410.448 103.442 408.883 104.222C408.682 104.321 408.434 104.34 408.253 104.465C408.075 104.585 407.901 104.719 408.245 104.963C409.797 106.072 409.764 107.616 408.201 108.741C408.047 108.851 407.891 108.965 407.734 109.076C407.166 109.492 406.495 109.487 405.847 109.489C400.227 109.5 394.608 109.496 388.989 109.493C388.467 109.491 387.934 109.475 387.514 109.08Z" fill="white"/>
<path fill-rule="evenodd" clip-rule="evenodd" d="M371.532 101.599C371.532 98.9053 371.544 96.2073 371.523 93.5143C371.519 92.9653 371.575 92.6963 372.247 92.7043C375.536 92.7443 378.82 92.7433 382.107 92.7073C382.752 92.7003 382.852 92.9223 382.848 93.4953C382.83 98.9193 382.825 104.342 382.852 109.766C382.856 110.456 382.668 110.651 381.975 110.64C378.786 110.604 375.598 110.596 372.411 110.647C371.617 110.66 371.508 110.381 371.516 109.687C371.557 106.991 371.532 104.296 371.532 101.599Z" fill="white"/>
<path d="M113.332 395.589C114.979 406.264 108.951 417.53 108.951 417.53C108.951 417.53 96.3121 419.405 86.8251 414.25C78.9111 409.951 75.9591 401.36 80.0201 396.171C85.8391 388.731 96.7991 400.269 96.7991 400.269C96.7991 400.269 89.6321 386.059 98.6061 383.085C104.861 381.013 111.953 386.689 113.332 395.589Z" fill="white" fill-opacity="0.3"/>
<path d="M135.394 369.318C130.616 375.671 121.584 378.286 121.584 378.286C121.584 378.286 114.101 372.59 111.942 364.943C110.141 358.565 113.149 352.595 117.969 352.068C124.879 351.31 124.432 363.015 124.432 363.015C124.432 363.015 128.235 351.937 134.413 355.136C138.72 357.365 139.374 364.018 135.394 369.318Z" fill="white" fill-opacity="0.3"/>
<path d="M46.9844 433.16L97.7384 432.917L148.492 432.829L249.999 432.661L351.506 432.828L402.26 432.915L453.014 433.16L402.26 433.405L351.506 433.492L249.999 433.659L148.492 433.491L97.7384 433.403L46.9844 433.16Z" fill="#263238"/>
<path d="M334.517 79.9199H165.467C156.027 79.9199 148.367 87.7099 148.367 97.3399V445.35C148.367 454.96 156.027 462.77 165.467 462.77H334.517C343.967 462.77 351.637 454.96 351.637 445.35V97.3399C351.637 87.7099 343.967 79.9199 334.517 79.9199ZM340.947 434.59C340.947 443.75 334.087 451.16 325.627 451.16H174.387C165.907 451.16 159.047 443.75 159.047 434.59V110.53C159.047 91.8699 165.907 90.9599 174.387 90.9599H204.677C206.437 90.9599 207.877 92.9599 207.877 95.4399V96.5099C207.877 102.32 211.057 102.34 214.967 102.34H285.027C288.967 102.34 292.117 102.32 292.117 96.5099V95.4399C292.117 92.9599 293.537 90.9599 295.327 90.9599H325.627C334.087 90.9599 340.947 93.4399 340.947 110.53V434.59Z" fill="#263238"/>
<path d="M259.556 95.0827H240.446C239.794 95.0827 239.266 94.5547 239.266 93.9027C239.266 93.2507 239.794 92.7227 240.446 92.7227H259.556C260.208 92.7227 260.736 93.2507 260.736 93.9027C260.737 94.5547 260.208 95.0827 259.556 95.0827Z" fill="white"/>
<path d="M340.947 110.53V434.59C340.947 443.75 334.087 451.16 325.627 451.16H174.387C165.907 451.16 159.047 443.75 159.047 434.59V110.53C159.047 91.87 165.907 90.96 174.387 90.96H204.677C206.437 90.96 207.877 92.96 207.877 95.44V96.51C207.877 102.32 211.057 102.34 214.967 102.34H285.027C288.967 102.34 292.117 102.32 292.117 96.51V95.44C292.117 92.96 293.537 90.96 295.327 90.96H325.627C334.087 90.96 340.947 93.44 340.947 110.53Z" fill="white"/>
<path d="M340.939 110.53V134.71H159.039V110.53C159.039 91.87 165.899 90.96 174.379 90.96H204.679C206.439 90.96 207.879 92.96 207.879 95.44V96.51C207.879 102.32 211.059 102.34 214.959 102.34H285.019C288.959 102.34 292.119 102.32 292.119 96.51V95.44C292.119 92.96 293.539 90.96 295.329 90.96H325.619C334.079 90.96 340.939 93.44 340.939 110.53Z" fill="#C76323"/>
<path d="M176.28 122.905L170.906 117.87L176.28 112.835L177.114 113.723L172.688 117.87L177.114 122.017L176.28 122.905Z" fill="white"/>
<path d="M324.44 123.256H320.843V122.01C320.843 121.898 320.779 121.796 320.674 121.743C320.536 121.673 320.402 121.595 320.273 121.511C320.173 121.447 320.052 121.443 319.957 121.497L318.875 122.12L317.078 119.006L318.16 118.383C318.254 118.329 318.309 118.22 318.303 118.1C318.299 118.026 318.298 117.948 318.298 117.871C318.298 117.794 318.299 117.717 318.304 117.641C318.31 117.523 318.254 117.413 318.16 117.359L317.079 116.736L318.876 113.622L319.956 114.245C320.054 114.301 320.175 114.296 320.272 114.232C320.402 114.147 320.537 114.069 320.675 113.999C320.779 113.946 320.844 113.844 320.844 113.732V112.486H324.441V113.732C324.441 113.843 324.506 113.946 324.61 113.999C324.749 114.07 324.883 114.148 325.013 114.232C325.112 114.296 325.234 114.301 325.329 114.245L326.409 113.622L328.206 116.736L327.123 117.36C327.027 117.415 326.973 117.523 326.978 117.643C326.982 117.722 326.984 117.797 326.984 117.872C326.984 117.947 326.982 118.022 326.979 118.097C326.972 118.22 327.027 118.327 327.121 118.382L328.205 119.008L326.409 122.122L325.327 121.499C325.233 121.445 325.111 121.449 325.011 121.513C324.882 121.598 324.747 121.675 324.61 121.746C324.506 121.799 324.441 121.901 324.441 122.013V123.256H324.44ZM321.594 122.506H323.691V122.01C323.691 121.615 323.913 121.257 324.268 121.075C324.382 121.017 324.494 120.952 324.601 120.883C324.935 120.663 325.36 120.649 325.703 120.847L326.135 121.095L327.183 119.28L326.748 119.029C326.408 118.833 326.21 118.461 326.232 118.059L326.236 117.87L326.231 117.676C326.21 117.277 326.409 116.904 326.751 116.707L327.183 116.459L326.136 114.645L325.706 114.893C325.364 115.091 324.942 115.078 324.604 114.858C324.498 114.788 324.386 114.724 324.271 114.666C323.914 114.484 323.692 114.126 323.692 113.731V113.235H321.595V113.731C321.595 114.127 321.373 114.485 321.016 114.666C320.901 114.724 320.789 114.789 320.683 114.858C320.346 115.077 319.922 115.09 319.581 114.893L319.151 114.645L318.104 116.46L318.535 116.708C318.875 116.904 319.073 117.276 319.053 117.679C319.049 117.744 319.048 117.807 319.048 117.87C319.048 117.934 319.049 117.997 319.052 118.06C319.073 118.465 318.874 118.836 318.535 119.032L318.103 119.281L319.15 121.095L319.582 120.847C319.926 120.648 320.349 120.662 320.684 120.883C320.79 120.952 320.901 121.016 321.016 121.074C321.373 121.257 321.594 121.614 321.594 122.01V122.506ZM322.641 120.574C321.15 120.574 319.937 119.361 319.937 117.87C319.937 116.377 321.15 115.163 322.641 115.163C324.133 115.163 325.348 116.377 325.348 117.87C325.348 119.361 324.133 120.574 322.641 120.574ZM322.641 115.913C321.564 115.913 320.687 116.791 320.687 117.87C320.687 118.948 321.564 119.824 322.641 119.824C323.72 119.824 324.598 118.948 324.598 117.87C324.598 116.791 323.72 115.913 322.641 115.913Z" fill="white"/>
<path d="M199.45 98.2383C199.352 98.3353 199.255 98.4323 199.157 98.5293C199.102 98.5843 199.047 98.6403 198.991 98.6963C198.205 97.9333 197.268 97.5263 196.172 97.5263C195.076 97.5263 194.14 97.9323 193.347 98.7003C193.295 98.6463 193.243 98.5903 193.189 98.5353C193.093 98.4383 192.997 98.3413 192.9 98.2453C192.898 98.2433 192.894 98.2423 192.891 98.2403C192.891 98.2383 192.891 98.2353 192.891 98.2333C192.898 98.2273 192.906 98.2223 192.912 98.2153C193.035 98.1063 193.155 97.9923 193.282 97.8873C193.545 97.6703 193.833 97.4913 194.138 97.3413C194.499 97.1643 194.877 97.0323 195.273 96.9603C195.46 96.9263 195.651 96.9083 195.84 96.8853C195.904 96.8773 196.323 96.8763 196.336 96.8773C196.465 96.8873 196.594 96.8923 196.723 96.9063C197.08 96.9453 197.427 97.0313 197.764 97.1543C198.008 97.2433 198.243 97.3543 198.468 97.4833C198.706 97.6203 198.931 97.7753 199.14 97.9543C199.245 98.0443 199.346 98.1393 199.449 98.2323C199.45 98.2343 199.45 98.2363 199.45 98.2383Z" fill="white"/>
<path d="M194.275 99.6162C194.12 99.4622 193.97 99.3122 193.812 99.1572C194.34 98.6402 194.963 98.3112 195.695 98.2122C196.789 98.0642 197.728 98.3962 198.525 99.1502C198.368 99.3072 198.216 99.4592 198.062 99.6122C197.539 99.1042 196.908 98.8292 196.17 98.8302C195.432 98.8312 194.802 99.1052 194.275 99.6162Z" fill="white"/>
<path d="M197.601 100.077C197.448 100.229 197.296 100.382 197.141 100.537C196.874 100.278 196.551 100.135 196.171 100.135C195.792 100.136 195.47 100.278 195.201 100.539C195.047 100.385 194.894 100.232 194.742 100.08C195.474 99.3132 196.791 99.2522 197.601 100.077Z" fill="white"/>
<path d="M196.582 100.955C196.582 101.185 196.396 101.371 196.166 101.371C195.936 101.371 195.75 101.185 195.75 100.955C195.75 100.726 195.936 100.539 196.166 100.539C196.396 100.539 196.582 100.726 196.582 100.955Z" fill="white"/>
<path d="M170.906 99.123C170.906 98.457 171.446 97.918 172.112 97.918C172.778 97.918 173.317 98.458 173.317 99.123C173.317 99.789 172.777 100.328 172.112 100.328C171.447 100.328 170.906 99.789 170.906 99.123Z" fill="white"/>
<path d="M174.703 99.123C174.703 98.457 175.243 97.918 175.908 97.918C176.574 97.918 177.113 98.458 177.113 99.123C177.113 99.789 176.573 100.328 175.908 100.328C175.242 100.328 174.703 99.789 174.703 99.123Z" fill="white"/>
<path d="M178.5 99.123C178.5 98.457 179.04 97.918 179.706 97.918C180.372 97.918 180.911 98.458 180.911 99.123C180.911 99.789 180.371 100.328 179.706 100.328C179.039 100.328 178.5 99.789 178.5 99.123Z" fill="white"/>
<path d="M182.297 99.123C182.297 98.457 182.837 97.918 183.502 97.918C184.168 97.918 184.707 98.458 184.707 99.123C184.707 99.789 184.167 100.328 183.502 100.328C182.837 100.328 182.297 99.789 182.297 99.123Z" fill="white"/>
<path d="M186.094 99.123C186.094 98.457 186.634 97.918 187.299 97.918C187.965 97.918 188.504 98.458 188.504 99.123C188.504 99.789 187.964 100.328 187.299 100.328C186.634 100.328 186.094 99.789 186.094 99.123Z" fill="white"/>
<path d="M327.298 101.754H317.484V97.208H327.298V101.754ZM317.984 101.254H326.798V97.708H317.984V101.254Z" fill="white"/>
<path d="M324.623 97.9814H318.297V100.983H324.623V97.9814Z" fill="white"/>
<path d="M328.178 98.2656H327.305V100.698H328.178V98.2656Z" fill="white"/>
<path d="M186.682 431.349H185.299V437.701H182.715V434.464H178.139V437.701H175.555V431.349H174.172L180.427 424.885L186.682 431.349Z" fill="white" fill-opacity="0.3"/>
<path d="M325.827 424.885H310.75V427.039H325.827V424.885Z" fill="white" fill-opacity="0.3"/>
<path d="M325.827 430.216H310.75V432.37H325.827V430.216Z" fill="white" fill-opacity="0.3"/>
<path d="M325.827 435.546H310.75V437.7H325.827V435.546Z" fill="white" fill-opacity="0.3"/>
<path d="M186.391 166.523C185.509 167.071 184.529 167.49 183.465 167.748C180.712 168.421 177.951 167.904 175.719 166.519C173.536 165.169 171.857 162.991 171.198 160.301C169.871 154.853 173.202 149.361 178.65 148.034C184.093 146.702 189.585 150.038 190.917 155.486C191.985 159.868 190.03 164.278 186.391 166.523Z" fill="#DBDBDB"/>
<path d="M184.145 156.732C184.145 158.437 182.762 159.82 181.057 159.82C179.351 159.82 177.969 158.437 177.969 156.732C177.969 155.026 179.351 153.644 181.057 153.644C182.763 153.644 184.145 155.026 184.145 156.732Z" fill="white"/>
<path d="M186.391 165.249V166.523C185.509 167.071 184.529 167.49 183.465 167.748C180.712 168.421 177.951 167.904 175.719 166.519V165.25C175.719 162.31 178.107 159.914 181.055 159.914C184.003 159.913 186.391 162.309 186.391 165.249Z" fill="white"/>
<path d="M268.443 148.323H203.93V153.643H268.443V148.323Z" fill="white" fill-opacity="0.3"/>
<path d="M260.24 157.193H203.93V160.717H260.24V157.193Z" fill="white" fill-opacity="0.3"/>
<path d="M297.041 163.978H203.93V167.502H297.041V163.978Z" fill="white" fill-opacity="0.3"/>
<path d="M159.044 303.809H340.914V176.448L159.044 176.448L159.044 303.809Z" fill="white" fill-opacity="0.3"/>
<path d="M180.305 212.651C180.305 220.972 187.051 227.718 195.372 227.718C203.693 227.718 210.439 220.972 210.439 212.651C210.439 204.329 203.693 197.584 195.372 197.584C187.05 197.583 180.305 204.329 180.305 212.651Z" fill="#DBDBDB"/>
<path d="M239.805 276.101H340.944L290.375 207.556L239.805 276.101Z" fill="#C7C7C7"/>
<path d="M200.156 276.429H283.657L241.907 231.793L200.156 276.429Z" fill="#DBDBDB"/>
<path d="M340.917 276.367H159.047V303.807H340.917V276.367Z" fill="#DBDBDB"/>
<path d="M186.391 370.965C185.509 371.513 184.529 371.932 183.465 372.19C180.712 372.863 177.951 372.346 175.719 370.961C173.536 369.611 171.857 367.433 171.198 364.743C169.871 359.295 173.202 353.803 178.65 352.476C184.093 351.144 189.585 354.48 190.917 359.928C191.985 364.31 190.03 368.72 186.391 370.965Z" fill="#DBDBDB"/>
<path d="M184.145 361.173C184.145 362.879 182.762 364.261 181.057 364.261C179.351 364.261 177.969 362.878 177.969 361.173C177.969 359.468 179.351 358.085 181.057 358.085C182.763 358.085 184.145 359.467 184.145 361.173Z" fill="white"/>
<path d="M186.391 369.69V370.964C185.509 371.512 184.529 371.931 183.465 372.189C180.712 372.862 177.951 372.345 175.719 370.96V369.691C175.719 366.751 178.107 364.355 181.055 364.355C184.003 364.354 186.391 366.75 186.391 369.69Z" fill="white"/>
<path d="M286.899 352.765H203.93V358.085H286.899V352.765Z" fill="white" fill-opacity="0.3"/>
<path d="M309.844 361.634H203.93V365.158H309.844V361.634Z" fill="white" fill-opacity="0.3"/>
<path d="M240.011 368.419H203.93V371.943H240.011V368.419Z" fill="white" fill-opacity="0.3"/>
<path d="M340.917 380.89H159.047V412H340.917V380.89Z" fill="white" fill-opacity="0.3"/>
<path d="M209.548 411.999H181.188C183.277 406.189 188.838 402.029 195.368 402.029C201.898 402.029 207.468 406.189 209.548 411.999Z" fill="#DBDBDB"/>
<path d="M171.259 318.733C170.47 315.503 172.449 312.245 175.679 311.456C178.909 310.667 182.167 312.646 182.956 315.876C183.745 319.106 181.766 322.364 178.536 323.153C175.306 323.942 172.048 321.963 171.259 318.733Z" fill="white" fill-opacity="0.3"/>
<path fill-rule="evenodd" clip-rule="evenodd" d="M176.288 319.699C176.129 319.599 175.99 319.454 175.777 319.474C175.695 319.482 175.713 319.414 175.713 319.37C175.712 318.568 175.712 317.766 175.711 316.964C175.711 316.906 175.715 316.858 175.778 316.826C176.39 316.517 176.656 315.909 177.031 315.39C177.432 314.836 177.57 314.235 177.475 313.571C177.449 313.39 177.533 313.31 177.696 313.273C177.892 313.228 178.087 313.283 178.154 313.417C178.319 313.75 178.461 314.097 178.504 314.468C178.539 314.772 178.43 315.068 178.392 315.369C178.364 315.589 178.313 315.807 178.271 316.03C178.325 316.069 178.387 316.049 178.445 316.05C179.122 316.051 179.8 316.051 180.477 316.051C180.762 316.051 180.902 316.133 180.942 316.322C180.991 316.558 180.866 316.798 180.647 316.909C180.596 316.935 180.505 316.912 180.499 316.991C180.493 317.072 180.587 317.063 180.634 317.096C180.879 317.264 180.834 317.611 180.55 317.812C180.482 317.86 180.349 317.838 180.346 317.938C180.344 318.018 180.468 318.017 180.524 318.073C180.722 318.269 180.624 318.634 180.328 318.781C180.29 318.8 180.243 318.803 180.209 318.827C180.175 318.85 180.142 318.875 180.208 318.921C180.501 319.131 180.495 319.422 180.2 319.635C180.171 319.656 180.141 319.677 180.112 319.698C180.005 319.777 179.878 319.776 179.755 319.776C178.693 319.778 177.631 319.777 176.568 319.777C176.468 319.776 176.367 319.773 176.288 319.699Z" fill="white"/>
<path fill-rule="evenodd" clip-rule="evenodd" d="M173.269 318.285C173.269 317.776 173.271 317.266 173.267 316.757C173.266 316.653 173.277 316.602 173.404 316.604C174.026 316.612 174.647 316.612 175.268 316.605C175.39 316.604 175.409 316.646 175.408 316.754C175.405 317.779 175.404 318.805 175.409 319.83C175.41 319.96 175.374 319.997 175.243 319.995C174.64 319.988 174.037 319.987 173.435 319.996C173.285 319.998 173.264 319.946 173.266 319.814C173.274 319.305 173.269 318.795 173.269 318.285Z" fill="white"/>
<path d="M183.908 318.733C183.119 315.503 185.098 312.245 188.328 311.456C191.558 310.667 194.816 312.646 195.605 315.876C196.394 319.106 194.415 322.364 191.185 323.153C187.955 323.942 184.697 321.963 183.908 318.733Z" fill="#C76323"/>
<path d="M192.83 318.056C191.92 319.89 189.757 320.979 189.757 320.979C189.757 320.979 187.593 319.89 186.685 318.056C185.927 316.526 186.408 314.872 187.603 314.511C189.317 313.993 189.757 316.977 189.757 316.977C189.757 316.977 190.197 313.992 191.912 314.511C193.107 314.873 193.587 316.526 192.83 318.056Z" fill="white"/>
<path d="M290.367 316.518H204.922V319.996H290.367V316.518Z" fill="white" fill-opacity="0.3"/>
<path d="M159.047 337.272L181.781 337.089L204.514 337.023L249.982 336.898L295.449 337.022L318.183 337.088L340.917 337.272L318.183 337.455L295.449 337.521L249.982 337.646L204.514 337.52L181.781 337.454L159.047 337.272Z" fill="white" fill-opacity="0.3"/>
<path d="M123.616 274.393L62.2656 290.75L78.6225 352.101L139.973 335.744L123.616 274.393Z" fill="#455A64"/>
<path d="M97.1669 321.271C94.2989 322.035 91.6779 322.734 88.9409 323.464C88.0839 320.249 87.2759 317.218 86.4219 314.018C89.0919 313.306 91.7079 312.609 94.4899 311.867C94.3349 311.14 94.2269 310.57 94.0909 310.007C93.4869 307.512 92.7209 305.044 92.2959 302.519C91.3589 296.963 93.6659 292.249 98.8299 290.078C102.051 288.724 105.611 288.178 109.106 287.246C109.887 290.176 110.6 292.851 111.398 295.842C110.151 296.175 108.904 296.48 107.675 296.843C106.576 297.167 105.427 297.422 104.424 297.946C102.995 298.692 102.232 300.004 102.598 301.632C103.146 304.07 103.861 306.47 104.559 309.086C107.664 308.258 110.694 307.45 113.94 306.585C114.368 309.779 114.796 312.741 115.111 315.714C115.142 316.002 114.521 316.543 114.113 316.664C111.867 317.329 109.593 317.901 107.139 318.555C109.305 326.679 111.435 334.668 113.601 342.791C110.231 343.689 107.05 344.538 103.614 345.454C101.478 337.441 99.3469 329.447 97.1669 321.271Z" fill="white"/>
<path d="M426.664 347.008L363.305 340.73L357.027 404.089L420.386 410.367L426.664 347.008Z" fill="#C76323"/>
<path d="M416.444 364.98C417.045 358.634 413.491 354.14 407.209 353.457C398.519 352.508 389.816 351.641 381.108 350.872C374.949 350.328 370.558 354.008 369.857 360.14C369.367 364.475 368.986 368.827 368.556 373.168C368.135 377.417 367.686 381.668 367.298 385.92C366.71 392.41 370.254 396.947 376.667 397.648C385.264 398.593 393.875 399.451 402.491 400.206C408.792 400.759 413.233 397.018 413.887 390.754C414.785 382.169 415.631 373.574 416.444 364.98ZM409.722 390.419C409.281 394.424 406.902 396.43 402.884 396.059C394.272 395.261 385.667 394.408 377.066 393.502C373.037 393.081 371.075 390.651 371.449 386.656C372.271 377.97 373.131 369.288 374.029 360.609C374.439 356.634 376.891 354.57 380.864 354.936C389.476 355.729 398.082 356.581 406.682 357.493C410.661 357.915 412.65 360.408 412.301 364.378C411.92 368.724 411.452 373.061 411.022 377.403C410.593 381.737 410.201 386.082 409.722 390.419Z" fill="white"/>
<path d="M393.104 363.316C386.469 362.642 380.489 367.494 379.763 374.157C379.029 380.896 383.713 386.854 390.375 387.645C397.2 388.453 403.244 383.674 403.983 376.875C404.729 370.071 399.864 364.002 393.104 363.316ZM390.941 383.592C386.614 383.076 383.367 379.09 383.749 374.783C384.145 370.339 388.168 367.052 392.667 367.497C397.155 367.942 400.465 371.955 399.989 376.385C399.515 380.783 395.334 384.115 390.941 383.592Z" fill="white"/>
<path d="M408.936 364.594C408.636 366.289 407.454 367.073 405.782 366.825C403.946 366.555 403.117 365.33 403.433 363.527C403.727 361.837 404.915 361.158 406.627 361.229C408.328 361.694 409.253 362.78 408.936 364.594Z" fill="white"/>
<path d="M418.227 208.582L373.617 192.71L357.745 237.319L402.355 253.192L418.227 208.582Z" fill="#455A64"/>
<path d="M367.062 227.969C370.697 229.341 374.301 229.621 378.064 228.441C374.406 225.737 373.216 223.903 373.449 221.359C374.384 221.641 375.317 221.922 376.249 222.202C373.455 219.808 372.326 216.957 373.341 213.317C374.239 213.933 375.072 214.503 375.905 215.074C374.264 210.281 374.696 207.17 377.431 205.097C379.71 210.844 383.598 215.031 389.384 217.545C389.522 217.072 389.621 216.714 389.732 216.361C390.704 213.257 392.812 211.4 396.021 211.021C399.22 210.644 401.737 211.946 403.414 214.703C403.787 215.316 404.186 215.589 404.861 215.577C406.113 215.555 407.364 215.551 408.741 215.538C407.709 216.831 406.366 217.589 404.81 218.039C404.812 218.115 404.816 218.19 404.818 218.266C406.054 218.378 407.291 218.49 408.527 218.603C408.556 218.664 408.587 218.726 408.616 218.786C407.423 219.358 406.25 219.985 405.027 220.48C404.384 220.741 403.994 221.038 403.749 221.733C400.086 232.123 389.18 237.972 378.546 235.232C374.254 234.125 370.555 231.965 367.595 228.62C367.409 228.412 367.24 228.187 367.062 227.969Z" fill="white"/>
<path d="M396.228 117.643L357.195 130.658L370.21 169.691L409.243 156.676L396.228 117.643Z" fill="#C76323"/>
<path d="M373.511 162.957C373.386 160.506 373.244 158.237 373.17 155.965C373.146 155.227 372.914 154.71 372.381 154.174C365.118 146.867 367.352 134.363 376.689 129.928C385.272 125.851 395.093 130.075 397.869 139.038C400.144 146.383 396.051 154.736 388.84 157.504C386.379 158.449 383.857 158.804 381.23 158.538C380.773 158.492 380.218 158.646 379.823 158.892C377.757 160.176 375.73 161.518 373.511 162.957ZM375.878 158.393C377.182 157.549 378.269 156.796 379.41 156.134C379.783 155.918 380.314 155.806 380.737 155.874C382.886 156.222 384.982 156.102 387.063 155.448C394.539 153.1 398.225 144.199 394.395 137.431C391.746 132.751 387.573 130.492 382.224 131.012C376.735 131.544 372.946 134.633 371.266 139.874C369.624 144.998 371.024 149.462 374.984 153.131C375.33 153.451 375.579 154.007 375.636 154.482C375.783 155.721 375.799 156.974 375.878 158.393Z" fill="white"/>
<path d="M374.994 139.83C375.535 138.181 376.938 138.004 378.111 139.234C378.57 139.715 378.698 139.886 379.179 140.449C379.903 141.298 380.034 141.988 379.537 142.859C379.175 143.492 379.359 143.883 379.894 144.294C381.558 145.573 383.411 146.332 385.505 146.532C386.142 146.593 386.489 146.416 386.733 145.795C387.495 143.858 387.519 143.867 389.59 144.113C389.829 144.141 390.067 144.172 390.305 144.202C391.9 144.403 392.52 145.57 391.764 147.032C390.993 148.525 389.694 149.24 388.052 149.361C383.864 149.669 380.288 148.161 377.067 145.623C376.086 144.85 375.248 143.962 374.879 142.724C374.629 141.547 374.7 140.728 374.994 139.83Z" fill="white"/>
<mask id="mask0_29_3045" style="mask-type:luminance" maskUnits="userSpaceOnUse" x="58" y="90" width="309" height="362">
<path d="M366.946 355.93C367.006 362.23 365.276 373.42 361.766 375.68C358.576 377.74 354.826 376.96 354.826 376.96C354.826 376.96 351.446 382.37 347.746 382.21C344.186 382.05 341.446 379.69 341.446 379.69C341.446 379.69 341.266 380.09 340.936 380.67V434.59C340.936 441.59 336.926 447.57 331.256 450C329.516 450.75 327.606 451.16 325.616 451.16H174.376C165.896 451.16 159.036 443.75 159.036 434.59V192.45L110.726 201.14L110.166 201.24C109.696 201.3 109.236 201.29 108.776 201.21C104.476 200.45 101.756 193.53 100.996 183.35C99.0063 183.75 97.0162 184.11 95.0162 184.46C92.5662 184.88 90.1163 185.29 87.6463 185.63L83.9462 186.13C82.7162 186.26 81.4762 186.42 80.2362 186.52C81.4362 186.2 82.6563 185.94 83.8663 185.64L87.5162 184.87C89.9462 184.35 92.3962 183.92 94.8462 183.48C96.8762 183.14 98.8963 182.79 100.936 182.5C100.746 179.34 100.736 175.88 100.926 172.2L96.7163 172.41C93.0663 172.58 89.4162 172.67 85.7662 172.77C82.1062 172.83 78.4563 172.9 74.7963 172.89C71.1463 172.89 67.4863 172.88 63.8263 172.75C67.4763 172.47 71.1263 172.29 74.7863 172.13C78.4363 171.95 82.0862 171.86 85.7362 171.77C89.3962 171.7 93.0462 171.63 96.7062 171.64L100.956 171.65C101.206 167 101.776 162.02 102.686 156.88C102.696 156.83 102.706 156.78 102.716 156.73C100.626 156.4 98.5362 156.05 96.4462 155.7C92.2262 154.99 88.0162 154.2 83.8062 153.46C79.6062 152.63 75.3962 151.85 71.2062 150.98L64.9162 149.67C62.8362 149.19 60.7362 148.75 58.6562 148.24C60.7762 148.53 62.8963 148.87 65.0063 149.18L71.3462 150.23C75.5662 150.93 79.7762 151.73 83.9862 152.47C88.1862 153.3 92.3962 154.08 96.5862 154.95C98.6562 155.38 100.726 155.81 102.796 156.26C103.876 150.29 105.306 144.7 106.956 139.72L103.716 137.49C100.656 135.39 97.6462 133.23 94.6362 131.07C91.6462 128.89 88.6462 126.7 85.6962 124.46C82.7462 122.22 79.7962 119.97 76.9162 117.63C80.0362 119.63 83.0963 121.73 86.1463 123.84C89.2063 125.94 92.2163 128.1 95.2263 130.26C98.2163 132.44 101.216 134.62 104.166 136.87L107.146 139.14C108.246 135.88 109.446 132.89 110.706 130.24C109.296 128.99 107.916 127.69 106.546 126.39C104.956 124.86 103.376 123.33 101.846 121.74C100.306 120.16 98.7763 118.57 97.3263 116.9C99.0563 118.27 100.726 119.73 102.376 121.19C104.026 122.64 105.636 124.16 107.236 125.67C108.526 126.91 109.816 128.16 111.086 129.44C115.056 121.34 119.586 116.6 123.566 117.3C124.026 117.38 124.466 117.53 124.886 117.75V117.74L124.946 117.78L159.036 137.62V110.53C159.036 91.87 165.896 90.96 174.376 90.96H204.676C206.436 90.96 207.876 92.96 207.876 95.44V96.51C207.876 102.32 211.056 102.34 214.956 102.34H285.016C288.956 102.34 292.116 102.32 292.116 96.51V95.44C292.116 92.96 293.536 90.96 295.326 90.96H325.616C334.076 90.96 340.936 93.44 340.936 110.53V254.11C343.756 258.23 345.816 261.8 346.936 264.53C352.236 277.44 362.006 325.21 362.006 325.21L359.856 325.38C360.076 326.94 360.246 328.37 360.366 329.66C360.366 329.66 360.366 329.66 360.366 329.67C361.906 335.09 366.896 350.22 366.946 355.93Z" fill="white"/>
</mask>
<g mask="url(#mask0_29_3045)">
<path d="M195.095 649.632H266.659C266.659 649.632 252.249 482.487 252.811 479.568C253.526 475.829 257.751 458.91 263.375 436.809C265.138 429.893 267.039 422.475 269.015 414.783C274.35 393.989 280.233 371.264 285.356 351.488C293.047 321.862 299.052 298.849 299.052 298.849H238.401C238.401 298.849 231.333 321.255 222.425 350.409C207.908 397.789 188.512 463 186.597 478.854C183.497 504.451 195.095 649.632 195.095 649.632Z" fill="#455A64"/>
<path d="M239.344 469.351C241.691 459.005 245.196 448.868 248.249 438.714C254.452 418.082 260.705 397.464 266.969 376.85C270.101 366.543 273.239 356.238 276.409 345.942C278.01 340.743 279.607 335.543 281.235 330.353C282.828 325.275 284.64 320.238 286.077 315.114C286.662 313.029 286.981 314.175 286.233 316.822C284.724 322.159 283.234 327.503 281.677 332.827C278.595 343.372 275.488 353.909 272.371 364.444C266.168 385.41 259.879 406.352 253.597 427.295C250.447 437.795 247.277 448.289 244.124 458.788C242.618 463.805 241.142 468.851 240.256 474.022C239.332 479.415 239.283 484.871 239.624 490.32C240.31 501.269 241.579 512.202 242.59 523.125C243.603 534.072 244.616 545.018 245.629 555.964C247.645 577.749 249.663 599.533 251.624 621.322C251.873 624.084 252.114 626.845 252.327 629.61C252.398 630.535 251 630.465 250.902 629.575C248.545 608.034 246.738 586.423 244.715 564.848C242.702 543.38 240.689 521.912 238.683 500.443C238.179 495.054 237.606 489.653 237.602 484.235C237.598 479.209 238.232 474.25 239.344 469.351Z" fill="#263238"/>
<path d="M245.289 298.849C249.499 331.424 257.525 392.5 263.377 436.809C277.058 383.121 299.053 298.849 299.053 298.849H245.289Z" fill="#263238"/>
<path d="M240.359 298.849C240.359 298.849 241.758 327.867 248.4 350.85C248.932 352.75 249.509 354.62 250.133 356.413C250.133 356.413 257.049 358.921 267.614 365.397C267.614 365.397 268.313 388.745 269.012 414.784C269.787 443.893 270.593 476.362 270.426 483.247C269.818 509.012 273.648 650.681 273.648 650.681L345.197 650.97C345.197 650.97 332.261 492.763 332.352 483.323C332.489 468.153 328.886 401.103 326.105 352.203C324.402 322.076 323.004 298.849 323.004 298.849H240.359Z" fill="#455A64"/>
<path d="M316.99 309.217C318.306 349.135 319.702 389.057 321.488 428.958C323.279 468.996 325.693 509.019 329.043 548.957C330.915 571.271 332.679 602.658 335.087 624.921C335.103 625.071 334.875 625.124 334.855 624.972C329.645 585.375 326.741 536.412 324.179 496.564C321.618 456.722 319.881 416.812 318.523 376.912C317.754 354.342 317.167 331.764 316.492 309.191C316.483 308.869 316.98 308.898 316.99 309.217Z" fill="#263238"/>
<path d="M247.158 354.683C254.282 357.512 261.105 361.376 267.613 365.396C267.868 365.554 267.677 365.952 267.398 365.817C260.495 362.463 253.448 359.234 246.739 355.505C246.212 355.213 246.611 354.466 247.158 354.683Z" fill="#263238"/>
<path d="M242.882 322.584C243.452 325.652 244.196 328.688 244.859 331.737C245.48 334.597 245.938 337.517 246.694 340.344C247.428 343.087 248.595 345.601 250.703 347.559C251.825 348.602 253.062 349.525 254.259 350.481C254.904 350.996 255.601 351.491 256.271 352.012C256.184 351.607 256.113 351.195 256.04 350.778C255.836 349.615 255.639 348.451 255.444 347.287C255.01 344.704 254.597 342.115 254.201 339.526C253.423 334.436 252.706 329.293 251.644 324.254C251.601 324.048 251.909 323.97 251.962 324.175C253.23 329.168 254.63 334.108 255.734 339.144C256.275 341.614 258.208 353.808 258.294 354.671C258.383 355.562 258.457 356.456 258.488 357.351C258.519 358.234 258.695 359.222 258.491 360.088C258.439 360.311 258.17 360.275 258.076 360.124C258.072 360.127 258.068 360.13 258.063 360.133C257.619 359.357 257.508 358.342 257.287 357.483C257.064 356.613 256.867 355.73 256.71 354.845C256.653 354.526 256.609 354.199 256.564 353.872C255.363 353.142 254.245 352.177 253.122 351.364C251.912 350.488 250.679 349.634 249.535 348.67C247.343 346.824 245.972 344.562 245.156 341.827C244.308 338.989 244.047 335.994 243.719 333.064C243.332 329.599 243.048 326.115 242.565 322.663C242.535 322.459 242.843 322.375 242.882 322.584Z" fill="#263238"/>
<path d="M253.822 218.24C249.722 250.919 242.558 305.729 230.972 310.163C228.965 310.931 220.431 312.623 214.598 306.057C204.763 294.986 187.765 257.677 183.014 245.675C180.907 240.353 215.604 222.988 218.575 228.338C222.735 235.83 227.104 247.107 227.932 246.732C229.314 246.105 231.674 232.19 240.943 212.653C252.461 188.376 255.347 206.092 253.822 218.24Z" fill="#AD6359"/>
<path d="M172.945 232.772C176.361 240.109 189.217 252.383 193.457 254.151C197.697 255.919 219.289 234.757 218.74 230.075C218.191 225.393 204.775 201.58 197.375 197.914C189.973 194.249 169.406 225.17 172.945 232.772Z" fill="#AD6359"/>
<path d="M217.163 225.617C217.163 225.617 216.451 215.113 218.948 206.181C221.048 198.671 225.015 187.755 221.019 186.475C212.814 183.846 202.931 211.07 202.931 211.07C202.931 211.07 200.499 223.781 208.397 227.106C213.35 229.191 217.163 225.617 217.163 225.617Z" fill="#AD6359"/>
<path d="M195.188 234.301L183.016 232.156L189.229 196.905L204.633 199.62L195.188 234.301Z" fill="#C76323"/>
<path d="M204.627 199.62L201.029 212.851L195.181 234.306L183.008 232.16L189.222 196.905L204.627 199.62Z" fill="#C76323"/>
<path opacity="0.1" d="M204.627 199.62L201.029 212.851L186.852 210.352L189.222 196.905L204.627 199.62Z" fill="black"/>
<path d="M207.704 190.52L188.539 187.142L185.973 201.7L205.138 205.078L207.704 190.52Z" fill="#C76323"/>
<path d="M221.486 187.462L206.336 186.325L210.488 162.766L225.114 166.877L221.486 187.462Z" fill="#C76323"/>
<path d="M203.648 156.751L197.52 191.518L172.012 190.107L110.164 201.237L124.881 117.743L179.194 149.356L203.648 156.751Z" fill="#C76323"/>
<path d="M129.656 161.637C133.741 138.466 131.014 118.618 123.566 117.305C116.118 115.992 106.769 133.712 102.685 156.882C98.6002 180.053 101.327 199.901 108.775 201.214C116.223 202.527 125.572 184.808 129.656 161.637Z" fill="#C76323"/>
<path opacity="0.2" d="M126.639 160.361C130.265 139.791 128.261 122.245 122.164 121.17C116.066 120.095 108.184 135.899 104.558 156.469C100.932 177.039 102.935 194.585 109.033 195.66C115.13 196.735 123.013 180.931 126.639 160.361Z" fill="black"/>
<path d="M124.839 160.041C124.356 162.781 123.796 165.432 123.172 167.97C121.533 168.889 119.581 169.26 117.589 168.909C112.993 168.099 109.92 163.71 110.731 159.105L111.425 155.167C112.237 150.562 116.625 147.489 121.221 148.299C123.177 148.644 124.867 149.648 126.091 151.034C125.803 153.939 125.383 156.959 124.839 160.041Z" fill="#C76323"/>
<path d="M210.657 195.82L181.359 193.622L189.39 148.062L217.673 156.013L210.657 195.82Z" fill="#C76323"/>
<path opacity="0.2" d="M210.657 195.82L181.359 193.622L189.39 148.062L217.673 156.013L210.657 195.82Z" fill="black"/>
<path opacity="0.2" d="M127.781 124.151C129.439 126.894 130.167 130.084 130.737 133.213C131.237 136.371 131.496 139.572 131.489 142.769C131.534 144.369 131.432 145.966 131.389 147.564C131.257 149.156 131.172 150.754 131.001 152.342C130.804 153.927 130.665 155.521 130.42 157.099C130.169 158.676 129.955 160.26 129.673 161.831C128.512 168.106 126.995 174.345 124.705 180.325C123.54 183.302 122.218 186.23 120.545 188.964C118.835 191.645 116.883 194.301 114.195 196.057C116.753 194.137 118.591 191.469 120.159 188.736C121.734 185.987 122.971 183.057 124.045 180.079C126.176 174.109 127.688 167.924 128.773 161.67C129.907 155.428 130.707 149.108 130.788 142.767C130.88 139.597 130.699 136.423 130.295 133.281C129.877 130.151 129.252 126.983 127.781 124.151Z" fill="black"/>
<path d="M97.3203 116.901C99.0573 118.273 100.719 119.725 102.369 121.189C104.027 122.645 105.631 124.157 107.234 125.669C108.821 127.199 110.407 128.73 111.939 130.317L114.235 132.7C114.975 133.521 115.739 134.317 116.458 135.16C115.582 134.481 114.751 133.756 113.896 133.055L111.407 130.873C109.75 129.417 108.146 127.905 106.543 126.391C104.957 124.86 103.371 123.329 101.839 121.742C100.3 120.163 98.7723 118.572 97.3203 116.901Z" fill="#263238"/>
<path d="M109.625 181.421C107.211 182.049 104.778 182.569 102.343 183.073C99.9094 183.588 97.4624 184.026 95.0154 184.463C92.5644 184.877 90.1124 185.289 87.6484 185.625L83.9504 186.125C82.7114 186.256 81.4784 186.42 80.2344 186.521C81.4394 186.197 82.6564 185.936 83.8664 185.642L87.5164 184.867C89.9504 184.353 92.3974 183.915 94.8444 183.478C97.2954 183.065 99.7474 182.653 102.212 182.318C104.675 181.973 107.14 181.643 109.625 181.421Z" fill="#263238"/>
<path d="M63.8281 172.755C67.4771 172.467 71.1281 172.29 74.7801 172.128C78.4321 171.955 82.0851 171.861 85.7381 171.767C89.3921 171.697 93.0461 171.629 96.7011 171.638L102.184 171.656C104.013 171.698 105.84 171.706 107.67 171.779C105.846 171.933 104.02 172.022 102.195 172.146L96.7181 172.408C93.0671 172.58 89.4131 172.675 85.7601 172.767C82.1061 172.836 78.4521 172.904 74.7971 172.894C71.1421 172.895 67.4871 172.879 63.8281 172.755Z" fill="#263238"/>
<path d="M76.9141 117.629C80.0381 119.635 83.0971 121.729 86.1461 123.837C89.2021 125.936 92.2121 128.098 95.2221 130.26C98.2181 132.442 101.213 134.625 104.162 136.871L108.584 140.243C110.037 141.397 111.509 142.522 112.944 143.701C111.376 142.707 109.846 141.66 108.296 140.641L103.71 137.495C100.654 135.396 97.6441 133.234 94.6351 131.07C91.6401 128.887 88.6451 126.704 85.6961 124.458C82.7411 122.22 79.7951 119.969 76.9141 117.629Z" fill="#263238"/>
<path d="M109.138 157.684C104.893 157.1 100.669 156.409 96.4472 155.701C92.2252 154.995 88.0202 154.201 83.8052 153.456C79.6052 152.631 75.3982 151.848 71.2062 150.984L64.9213 149.667C62.8333 149.192 60.7383 148.751 58.6562 148.246C60.7803 148.528 62.8932 148.873 65.0112 149.185L71.3472 150.228C75.5692 150.936 79.7752 151.727 83.9892 152.475C88.1882 153.303 92.3973 154.082 96.5883 154.949C100.78 155.813 104.969 156.694 109.138 157.684Z" fill="#263238"/>
<path d="M207.618 205.838C207.155 210.101 202.396 207.115 202.396 207.115C202.396 207.115 208.21 213.064 206.034 217.275C203.925 221.327 198.303 217.518 197.897 217.25C198.202 217.568 203.402 223.173 200.779 227.179C198.049 231.34 193.062 226.547 192.741 226.236C192.935 226.626 195.41 231.827 192.725 234.417C188.109 238.866 181.414 225.742 176.414 224.349C176.414 224.349 173.086 232.554 172.939 232.772C172.939 232.772 166.314 220.416 168.57 213.777C169.759 210.277 173.256 210.694 173.256 210.694C173.256 210.694 170.68 206.946 172.646 203.727C173.66 202.077 177.2 202.231 177.2 202.231C177.2 202.231 175.262 199.144 177.19 196.39C178.721 194.187 182.034 194.684 182.034 194.684C182.034 194.684 181.549 190.857 183.844 189.115C188.464 185.589 208.601 196.709 207.618 205.838Z" fill="#AD6359"/>
<path d="M182.563 194.681C182.493 194.649 182.523 194.546 182.6 194.566C190.115 196.607 197.746 201.152 202.664 207.249C202.825 207.449 202.571 207.798 202.351 207.612C196.08 202.297 190.091 198.08 182.563 194.681Z" fill="#263238"/>
<path d="M177.117 202.135C177.035 202.099 177.095 201.962 177.188 201.988C184.92 204.133 193.374 209.488 198.216 217.184C198.382 217.448 198.267 217.851 198.052 217.562C194.444 212.689 183.909 205.16 177.117 202.135Z" fill="#263238"/>
<path d="M192.889 226.89C187.961 219.691 181.222 214.795 173.576 210.762C173.476 210.709 173.561 210.574 173.656 210.595C177.934 211.549 182.539 214.627 185.919 217.326C189.157 219.911 191.559 222.894 193.14 226.717C193.202 226.866 192.994 227.044 192.889 226.89Z" fill="#263238"/>
<path d="M202.545 207.107C202.738 207.348 202.174 207.365 202.36 207.612C203.141 208.648 207.309 215.287 205.488 217.409C204.024 219.106 200.729 218.317 199.582 217.518L196.698 215.508L198.708 218.4C199.585 219.662 200.334 221.118 200.75 222.589C201.169 224.055 201.196 225.628 200.438 226.784C199.669 228.008 198.37 228.592 197.009 228.171C195.647 227.811 194.308 226.826 193.257 225.768L190.322 222.811L192.12 226.548C192.607 227.56 193 228.705 193.212 229.82C193.416 230.936 193.439 232.098 193.022 233.028C192.618 233.942 191.707 234.644 190.751 234.65C189.745 234.671 188.663 234.109 187.692 233.477C185.724 232.162 184.013 230.407 182.23 228.752C181.343 227.915 180.453 227.074 179.522 226.275C178.588 225.501 177.609 224.675 176.414 224.349C177.56 224.793 178.418 225.699 179.293 226.523C180.151 227.381 180.968 228.281 181.789 229.184C183.43 230.988 185.103 232.786 187.117 234.302C188.139 235.017 189.273 235.756 190.74 235.825C192.255 235.884 193.601 234.852 194.183 233.562C194.782 232.247 194.73 230.852 194.526 229.588C194.298 228.306 193.914 227.118 193.364 225.926L192.228 226.706C193.459 227.966 194.822 229.05 196.632 229.589C197.523 229.849 198.589 229.845 199.511 229.432C200.439 229.022 201.129 228.331 201.632 227.531C202.669 225.862 202.523 223.848 202.029 222.219C201.518 220.544 200.721 219.057 199.711 217.646L198.837 218.527C200.329 219.494 203.917 220.778 206.518 218.43C209.452 214.866 203.685 208.243 202.545 207.107Z" fill="#263238"/>
<path d="M202.398 207.116C203.28 207.429 204.166 207.651 204.97 207.672C205.775 207.698 206.441 207.367 206.79 206.802C207.154 206.242 207.204 205.384 207.168 204.53C207.106 203.668 206.997 202.766 206.847 201.838C207.427 202.585 207.86 203.444 208.094 204.386C208.318 205.314 208.407 206.411 207.805 207.442C207.47 207.929 207.016 208.307 206.476 208.513C205.93 208.701 205.363 208.714 204.861 208.6C203.848 208.387 203.03 207.814 202.398 207.116Z" fill="#263238"/>
<path d="M180.297 257.453L218.225 226.949C218.225 226.949 227.422 245.947 227.962 245.871C228.501 245.795 234.52 220.584 244.496 204.878C254.472 189.172 256.883 206.215 254.763 219.184C252.643 232.153 242.659 303.967 233.688 310.55C224.717 317.133 216.287 308.894 212.658 305.396C207.658 300.573 180.297 257.453 180.297 257.453Z" fill="#C76323"/>
<path d="M187.597 260.876C188.785 259.657 200.707 250.364 203.341 248.401C205.976 246.437 208.614 244.478 211.255 242.521C213.983 240.5 216.665 238.308 219.547 236.509C219.675 236.429 219.809 236.59 219.694 236.695C217.2 238.996 214.377 241 211.708 243.093C209.074 245.159 206.44 247.226 203.797 249.281C201.155 251.336 189.161 260.267 187.712 261.066C187.589 261.135 187.516 260.959 187.597 260.876Z" fill="#263238"/>
<path d="M227.961 245.87C229.012 248.11 229.924 250.405 230.801 252.713C231.685 255.019 232.477 257.358 233.228 259.711C233.953 262.072 234.658 264.441 235.223 266.849C235.794 269.254 236.308 271.678 236.597 274.136C236.228 272.953 235.926 271.761 235.544 270.588C235.213 269.403 234.845 268.228 234.481 267.053L232.274 260.011L230.076 252.961L228.991 249.427C228.657 248.24 228.284 247.065 227.961 245.87Z" fill="#263238"/>
<path d="M228.141 324.11C229.783 325.736 330.626 320.402 331.112 319.748C332.434 317.97 296.37 210.642 272.728 193.661C267.644 190.009 253.99 194.901 250.483 198.419C248.283 200.626 243.492 214.576 240.359 226.113C234.088 249.209 226.712 322.681 228.141 324.11Z" fill="white"/>
<path d="M252.559 193.889C248.565 196.855 245.493 212.197 254.637 214.275C263.782 216.353 272.262 201.909 273.509 197.243C274.756 192.577 261.205 187.47 252.559 193.889Z" fill="#C76323"/>
<path d="M255.297 212.175C260.968 212.903 269.579 203.45 272.612 196.203C272.817 195.705 271.577 190.828 270.351 184.831C269.621 181.189 268.894 177.116 268.499 173.352L245.492 181.564C245.492 181.564 248.641 189.211 249.289 195.778C249.337 196.328 249.336 196.843 249.289 197.34C249.288 197.412 249.277 197.5 249.282 197.599C249.111 200.585 249.816 211.468 255.297 212.175Z" fill="#AD6359"/>
<path d="M267.409 173.742C267.167 178.519 265.355 195.735 251.716 197.477C250.839 197.581 250.031 197.627 249.281 197.604C249.269 197.5 249.281 197.408 249.292 197.339C249.338 196.843 249.338 196.324 249.292 195.781C248.634 189.215 245.484 181.565 245.484 181.565L267.409 173.742Z" fill="#263238"/>
<path d="M268.887 145.141C272.242 153.277 270.123 177.905 264.678 183.869C256.783 192.516 242.709 194.612 235.072 184.859C227.669 175.406 230.999 143.359 237.189 137.82C246.306 129.662 263.931 133.123 268.887 145.141Z" fill="#AD6359"/>
<path d="M247.136 162.153C247.154 162.091 247.26 162.242 247.252 162.31C247.065 163.965 247.129 165.892 248.586 166.565C248.631 166.586 248.62 166.669 248.565 166.657C246.753 166.25 246.694 163.691 247.136 162.153Z" fill="#263238"/>
<path d="M248.762 160.54C251.447 160.554 251.222 165.924 248.734 165.911C246.286 165.898 246.511 160.528 248.762 160.54Z" fill="#263238"/>
<path d="M237.826 161.812C237.816 161.748 237.693 161.886 237.692 161.954C237.675 163.62 237.375 165.523 235.847 166.012C235.799 166.027 235.801 166.112 235.857 166.107C237.704 165.926 238.077 163.392 237.826 161.812Z" fill="#263238"/>
<path d="M236.411 160.012C233.744 159.697 233.31 165.054 235.78 165.346C238.211 165.634 238.646 160.276 236.411 160.012Z" fill="#263238"/>
<path d="M250.981 158.174C250.257 157.959 249.626 157.64 248.932 157.354C248.149 157.031 247.493 156.854 247.002 156.119C246.739 155.725 246.884 155.044 247.242 154.752C248.078 154.073 249.135 154.23 250.093 154.581C251.133 154.962 251.836 155.521 252.401 156.471C252.949 157.391 251.936 158.456 250.981 158.174Z" fill="#263238"/>
<path d="M234.45 157.221C235.2 157.131 235.876 156.923 236.607 156.757C237.433 156.57 238.11 156.506 238.717 155.864C239.043 155.52 239.014 154.824 238.71 154.476C238.001 153.666 236.932 153.644 235.929 153.829C234.84 154.03 234.052 154.462 233.336 155.304C232.642 156.12 233.462 157.34 234.45 157.221Z" fill="#263238"/>
<path d="M249.265 177.726C248.85 178.099 248.43 178.618 247.825 178.644C247.244 178.668 246.576 178.379 246.054 178.151C246.003 178.129 245.947 178.182 245.978 178.233C246.383 178.89 247.275 179.327 248.052 179.225C248.811 179.125 249.21 178.49 249.422 177.809C249.452 177.713 249.326 177.672 249.265 177.726Z" fill="#263238"/>
<path d="M247.728 172.674C246.736 174.079 245.334 174.811 243.842 175.036C243.176 175.141 242.479 175.135 241.801 175.044C241.667 175.036 241.534 175.015 241.414 174.983C241.293 174.963 241.184 174.944 241.052 174.912C240.859 174.876 240.759 174.711 240.734 174.526L240.735 174.514C240.739 174.453 240.742 174.404 240.758 174.344C240.758 174.344 240.758 174.344 240.759 174.332L240.768 174.186C240.787 172.904 240.993 170.961 240.993 170.961C240.515 171.176 238.084 172.149 238.15 171.481C238.713 165.956 239.339 159.811 241.067 154.432C241.115 154.252 241.392 154.305 241.369 154.487C241.038 159.819 239.771 165.056 239.353 170.407C240.127 170.15 241.391 169.666 242.06 169.708C242.24 169.768 241.595 173.455 241.633 174.032C241.633 174.032 241.631 174.057 241.641 174.094C243.781 174.459 245.431 173.877 247.58 172.52C247.706 172.428 247.833 172.545 247.728 172.674Z" fill="#263238"/>
<path d="M242.758 174.724C242.758 174.724 243.953 176.191 245.519 176.669C246.096 176.847 246.711 176.899 247.344 176.699C248.645 176.293 248.622 175.084 248.334 174.061C248.099 173.22 247.672 172.506 247.672 172.506C247.672 172.506 245.831 174.392 242.758 174.724Z" fill="#263238"/>
<path d="M245.516 176.669C246.093 176.847 246.708 176.899 247.341 176.699C248.642 176.293 248.619 175.084 248.331 174.061C246.926 174.27 245.572 175.291 245.516 176.669Z" fill="#F392B9"/>
<path d="M269.416 165.559C270.018 163.408 275.571 140.229 274.958 137.702C274.401 135.401 271.884 136.342 271.847 136.211C271.805 136.064 271.732 133.982 270.434 133.199C269.286 132.507 267.622 133.25 267.622 133.25C267.622 133.25 267.227 131.039 265.835 130.44C264.443 129.841 263.118 131.026 263.118 131.026C263.118 131.026 262.656 128.898 260.896 128.39C259.137 127.882 258.212 129.411 258.212 129.411C258.212 129.411 257.622 127.302 256.17 126.895C254.718 126.488 253.467 128.047 253.467 128.047C253.467 128.047 252.664 126.127 250.908 126.102C249.11 126.076 248.462 128.003 248.462 128.003C248.462 128.003 247.417 126.144 245.763 126.097C244.108 126.05 243.536 128.112 243.536 128.112C243.536 128.112 242.86 126.272 241.304 126.393C239.748 126.514 239.378 128.692 239.378 128.692C239.378 128.692 238.504 126.669 236.673 127.263C233.861 128.175 233.509 141.615 232.867 147.456C232.867 147.456 233.653 144.663 234.846 144.56C236.039 144.456 236.934 146.358 239.157 146.849C242.327 147.55 247.604 143.83 251.974 144.764C256.221 145.672 259.369 150.133 260.9 156.804C262.627 164.318 267.987 170.665 269.416 165.559Z" fill="#263238"/>
<path d="M248.175 170.377C244.456 169.704 241.978 166.132 242.649 162.414C243.321 158.695 246.892 156.215 250.612 156.888C254.331 157.56 256.809 161.131 256.138 164.851C255.57 167.996 252.927 170.254 249.877 170.47C249.319 170.509 248.749 170.48 248.175 170.377ZM243.55 162.576C242.969 165.798 245.116 168.892 248.338 169.475C251.557 170.06 254.653 167.909 255.236 164.688C255.817 161.466 253.669 158.371 250.448 157.789C249.951 157.699 249.457 157.674 248.975 157.709C246.332 157.896 244.043 159.852 243.55 162.576Z" fill="#E59B6C"/>
<path d="M233.718 169.663C230.909 169.532 228.765 166.355 228.94 162.58C229.023 160.778 229.615 159.102 230.607 157.861C231.633 156.577 232.959 155.903 234.354 155.97C235.743 156.034 237.007 156.826 237.909 158.199C238.783 159.526 239.218 161.25 239.134 163.053C238.968 166.625 236.784 169.472 234.168 169.657C234.019 169.668 233.87 169.67 233.718 169.663ZM231.324 158.433C230.452 159.525 229.93 161.012 229.855 162.623C229.705 165.893 231.456 168.64 233.762 168.747C236.076 168.857 238.067 166.28 238.22 163.01C238.294 161.399 237.911 159.87 237.145 158.703C236.407 157.582 235.4 156.936 234.312 156.886C234.195 156.88 234.08 156.882 233.964 156.89C232.998 156.959 232.072 157.497 231.324 158.433Z" fill="#E59B6C"/>
<path d="M242.837 163.216L243.458 162.542C242.46 161.622 240.113 160.338 238.359 162.05L238.999 162.706C240.568 161.169 242.745 163.133 242.837 163.216Z" fill="#E59B6C"/>
<path d="M273.263 166.392L274.096 166.009C273.917 165.621 272.294 162.204 270.265 161.777C268.369 161.384 256.046 161.965 255.523 161.99L255.567 162.905C259.1 162.735 268.612 162.366 270.076 162.674C271.416 162.956 272.831 165.454 273.263 166.392Z" fill="#E59B6C"/>
<path d="M263.96 164.712C263.96 164.712 268.854 156.459 272.559 158.148C276.264 159.836 272.994 171.512 268.933 173.38C264.873 175.248 263.07 171.523 263.07 171.523L263.96 164.712Z" fill="#AD6359"/>
<path d="M271.538 161.471C271.605 161.46 271.625 161.553 271.568 161.581C268.728 162.987 267.39 165.819 266.521 168.716C267.311 167.567 268.452 166.884 269.982 167.812C270.062 167.861 269.998 167.986 269.914 167.975C268.695 167.808 267.845 168.081 267.107 169.103C266.584 169.826 266.257 170.716 265.905 171.532C265.788 171.805 265.304 171.7 265.381 171.391C265.387 171.368 265.394 171.345 265.4 171.321C265.046 167.592 267.557 162.148 271.538 161.471Z" fill="#263238"/>
<path d="M286.971 200.679C319.605 223.119 343.159 258.301 345.426 265.734C350.911 283.72 359.106 315.433 360.369 329.675C360.836 334.941 320.256 333.958 319.58 328.346C317.464 310.772 309.905 272.534 309.712 271.876C308.36 267.253 296.849 247.222 285.001 225.429C273.147 203.623 273.236 191.235 286.971 200.679Z" fill="#AD6359"/>
<path d="M322.815 383.843C326.961 385.258 329.647 381.604 329.647 381.604C329.647 381.604 331.776 384.379 335.101 384.862C338.909 385.416 341.447 379.687 341.447 379.687C341.447 379.687 344.184 382.05 347.747 382.207C351.445 382.37 354.83 376.955 354.83 376.955C354.83 376.955 358.578 377.739 361.765 375.681C365.274 373.416 367.004 362.23 366.945 355.932C366.886 349.634 360.819 331.825 360.006 328.314L319.58 328.346C319.58 328.346 311.81 356.664 312.931 364.059C313.877 370.289 318.162 382.255 322.815 383.843Z" fill="#AD6359"/>
<path d="M329 381.327C326.406 374.944 325.842 368.142 324.892 361.385C324.871 361.234 325.107 361.203 325.126 361.355C325.993 368.086 328.184 374.559 329.316 381.242C329.348 381.426 329.07 381.499 329 381.327Z" fill="#263238"/>
<path d="M340.922 379.559C340.379 378.098 340.319 376.461 340.181 374.921C340.032 373.263 339.912 371.604 339.818 369.941C339.629 366.614 339.516 363.282 339.5 359.95C339.499 359.802 339.725 359.765 339.734 359.92C339.928 363.236 340.172 366.548 340.506 369.852C340.673 371.505 340.854 373.158 341.046 374.809C341.225 376.345 341.541 377.95 341.374 379.498C341.349 379.727 341.004 379.779 340.922 379.559Z" fill="#263238"/>
<path d="M354.818 376.815C354.295 375.564 354.422 373.941 354.374 372.604C354.319 371.087 354.257 369.569 354.185 368.052C354.042 365.019 353.898 361.985 353.649 358.959C353.637 358.808 353.87 358.776 353.883 358.928C354.151 362.002 354.461 365.072 354.702 368.148C354.82 369.658 354.931 371.17 355.032 372.681C355.118 373.966 355.373 375.563 354.971 376.813C354.948 376.884 354.844 376.878 354.818 376.815Z" fill="#263238"/>
<path d="M317.649 328.79L362.001 325.212C362.001 325.212 352.231 277.44 346.933 264.528C341.635 251.616 315.242 219.767 287.724 200.895C269.005 188.057 270.153 199.037 278.804 216.043C287.456 233.049 307.815 271.949 308.774 275.025C309.732 278.101 317.649 328.79 317.649 328.79Z" fill="#C76323"/>
<path d="M318.426 319.641C320.084 319.256 335.137 317.87 338.413 317.64C341.691 317.409 344.97 317.184 348.249 316.963C351.636 316.734 355.078 316.337 358.474 316.379C358.625 316.381 358.651 316.588 358.498 316.615C355.156 317.206 351.699 317.368 348.322 317.69C344.989 318.007 341.656 318.325 338.322 318.628C334.988 318.931 320.071 319.974 318.42 319.864C318.28 319.855 318.314 319.667 318.426 319.641Z" fill="#263238"/>
</g>
</svg>
