<svg width="500" height="500" viewBox="0 0 500 500" fill="none" xmlns="http://www.w3.org/2000/svg">
<path d="M426.623 72.3102V323.195C426.623 330.287 421.312 336.023 414.762 336.023H297.673C291.108 336.023 285.797 330.286 285.797 323.195V72.3102C285.797 57.8632 291.108 57.1592 297.673 57.1592H321.131C322.494 57.1592 323.608 58.7072 323.608 60.6272V61.4552C323.608 65.9532 326.07 65.9682 329.089 65.9682H383.329C386.379 65.9682 388.826 65.9532 388.826 61.4552V60.6272C388.826 58.7072 389.925 57.1592 391.311 57.1592H414.761C421.312 57.1592 426.623 59.0792 426.623 72.3102Z" fill="white"/>
<path d="M426.617 72.3092V96.8612H285.797V72.3092C285.797 57.8592 291.107 57.1592 297.667 57.1592H321.127C322.487 57.1592 323.607 58.7092 323.607 60.6292V61.4592C323.607 65.9592 326.067 65.9692 329.087 65.9692H383.327C386.377 65.9692 388.827 65.9592 388.827 61.4592V60.6292C388.827 58.7092 389.927 57.1592 391.307 57.1592H414.757C421.307 57.1592 426.617 59.0792 426.617 72.3092Z" fill="#C76323"/>
<path d="M317.086 62.7946C317.01 62.8696 316.935 62.9446 316.859 63.0196C316.816 63.0626 316.773 63.1056 316.73 63.1486C316.121 62.5576 315.396 62.2426 314.548 62.2426C313.699 62.2426 312.974 62.5566 312.361 63.1516C312.321 63.1096 312.28 63.0656 312.239 63.0236C312.165 62.9486 312.09 62.8736 312.015 62.7986C312.013 62.7966 312.011 62.7956 312.008 62.7946C312.008 62.7926 312.008 62.7906 312.008 62.7886C312.013 62.7836 312.019 62.7796 312.025 62.7746C312.12 62.6896 312.213 62.6016 312.312 62.5206C312.515 62.3526 312.738 62.2146 312.975 62.0986C313.255 61.9616 313.547 61.8596 313.853 61.8036C313.998 61.7766 314.145 61.7636 314.292 61.7456C314.342 61.7396 314.666 61.7386 314.676 61.7396C314.776 61.7466 314.876 61.7516 314.975 61.7626C315.252 61.7926 315.52 61.8596 315.781 61.9546C315.97 62.0236 316.151 62.1096 316.326 62.2096C316.51 62.3156 316.684 62.4356 316.846 62.5736C316.928 62.6436 317.006 62.7166 317.085 62.7886C317.086 62.7916 317.086 62.7926 317.086 62.7946Z" fill="white"/>
<path d="M313.085 63.8608C312.965 63.7418 312.848 63.6258 312.727 63.5058C313.135 63.1058 313.617 62.8508 314.184 62.7748C315.031 62.6598 315.759 62.9178 316.375 63.5008C316.253 63.6218 316.135 63.7398 316.015 63.8588C315.61 63.4658 315.122 63.2528 314.55 63.2528C313.979 63.2538 313.492 63.4658 313.085 63.8608Z" fill="white"/>
<path d="M315.652 64.2184C315.534 64.3364 315.416 64.4544 315.296 64.5744C315.09 64.3744 314.838 64.2634 314.544 64.2634C314.251 64.2634 314.002 64.3734 313.794 64.5764C313.675 64.4574 313.557 64.3394 313.438 64.2204C314.006 63.6264 315.025 63.5794 315.652 64.2184Z" fill="white"/>
<path d="M314.871 64.8972C314.871 65.0752 314.727 65.2192 314.549 65.2192C314.371 65.2192 314.227 65.0752 314.227 64.8972C314.227 64.7192 314.371 64.5752 314.549 64.5752C314.727 64.5762 314.871 64.7202 314.871 64.8972Z" fill="white"/>
<path d="M294.984 63.4799C294.984 62.9649 295.402 62.5469 295.917 62.5469C296.433 62.5469 296.85 62.9649 296.85 63.4799C296.85 63.9949 296.432 64.4129 295.917 64.4129C295.402 64.4129 294.984 63.9949 294.984 63.4799Z" fill="white"/>
<path d="M298.855 64.4129C299.37 64.4129 299.788 63.9952 299.788 63.4799C299.788 62.9646 299.37 62.5469 298.855 62.5469C298.34 62.5469 297.922 62.9646 297.922 63.4799C297.922 63.9952 298.34 64.4129 298.855 64.4129Z" fill="white"/>
<path d="M300.867 63.4799C300.867 62.9649 301.285 62.5469 301.8 62.5469C302.315 62.5469 302.733 62.9649 302.733 63.4799C302.733 63.9949 302.315 64.4129 301.8 64.4129C301.285 64.4129 300.867 63.9949 300.867 63.4799Z" fill="white"/>
<path d="M303.805 63.4799C303.805 62.9649 304.223 62.5469 304.738 62.5469C305.254 62.5469 305.671 62.9649 305.671 63.4799C305.671 63.9949 305.253 64.4129 304.738 64.4129C304.223 64.4129 303.805 63.9949 303.805 63.4799Z" fill="white"/>
<path d="M306.742 63.4799C306.742 62.9649 307.16 62.5469 307.675 62.5469C308.19 62.5469 308.608 62.9649 308.608 63.4799C308.608 63.9949 308.19 64.4129 307.675 64.4129C307.16 64.4129 306.742 63.9949 306.742 63.4799Z" fill="white"/>
<path d="M416.067 65.5171H408.469V61.9971H416.067V65.5171ZM408.857 65.1301H415.68V62.3851H408.857V65.1301Z" fill="white"/>
<path d="M414 62.5957H409.102V64.9197H414V62.5957Z" fill="white"/>
<path d="M416.746 62.8164H416.07V64.6994H416.746V62.8164Z" fill="white"/>
<path d="M299.642 90.1908L295.32 86.1408L299.642 82.0908L300.313 82.8048L296.753 86.1408L300.313 89.4768L299.642 90.1908Z" fill="white"/>
<path d="M416.402 83.4473H408.578V84.2943H416.402V83.4473Z" fill="white"/>
<path d="M416.402 86.6064H408.578V87.4534H416.402V86.6064Z" fill="white"/>
<path d="M416.402 89.7666H408.578V90.6136H416.402V89.7666Z" fill="white"/>
<path d="M362.026 259.314H407.547V226.372H362.026V259.314Z" fill="#C76323"/>
<path opacity="0.2" d="M367.831 234.865C367.414 237.064 369.306 238.957 371.506 238.54C372.735 238.307 373.726 237.316 373.958 236.087C374.375 233.888 372.483 231.995 370.283 232.412C369.055 232.646 368.064 233.637 367.831 234.865Z" fill="black"/>
<path opacity="0.2" d="M382.875 251.934H407.541L395.208 238.104L382.875 251.934Z" fill="black"/>
<path d="M373.414 251.946H393.778L383.596 242.94L373.414 251.946Z" fill="#C76323"/>
<path opacity="0.3" d="M373.414 251.946H393.778L383.596 242.94L373.414 251.946Z" fill="black"/>
<path d="M407.544 251.93H362.023V259.314H407.544V251.93Z" fill="#C76323"/>
<path opacity="0.3" d="M407.544 251.93H362.023V259.314H407.544V251.93Z" fill="black"/>
<path d="M303.362 259.314H348.883V226.372H303.362V259.314Z" fill="#C76323"/>
<path opacity="0.2" d="M309.167 234.865C308.75 237.064 310.643 238.957 312.842 238.54C314.071 238.307 315.062 237.316 315.294 236.087C315.711 233.888 313.819 231.995 311.619 232.412C310.39 232.646 309.4 233.637 309.167 234.865Z" fill="black"/>
<path opacity="0.2" d="M324.219 251.934H348.884L336.551 238.104L324.219 251.934Z" fill="black"/>
<path d="M314.75 251.946H335.114L324.932 242.94L314.75 251.946Z" fill="#C76323"/>
<path opacity="0.3" d="M314.75 251.946H335.114L324.932 242.94L314.75 251.946Z" fill="black"/>
<path d="M348.88 251.93H303.359V259.314H348.88V251.93Z" fill="#C76323"/>
<path opacity="0.3" d="M348.88 251.93H303.359V259.314H348.88V251.93Z" fill="black"/>
<path d="M407.547 268.111H362.008V280.151H407.547V268.111Z" fill="#C76323"/>
<path d="M348.906 268.111H303.367V280.151H348.906V268.111Z" fill="#DBDBDB"/>
<path d="M304.038 321.022H303.369V324.096H302.118V322.53H299.904V324.096H298.653V321.022H297.984L301.011 317.894L304.038 321.022Z" fill="#C7C7C7"/>
<path d="M412.438 317.894H405.141V318.937H412.438V317.894Z" fill="#C7C7C7"/>
<path d="M412.438 320.474H405.141V321.517H412.438V320.474Z" fill="#C7C7C7"/>
<path d="M412.438 323.053H405.141V324.096H412.438V323.053Z" fill="#C7C7C7"/>
<path d="M357.36 321.102L355.286 323.317L353.211 321.102L353.577 320.759L355.286 322.582L356.995 320.759L357.36 321.102Z" fill="#C7C7C7"/>
<path d="M355.285 325.603C353.207 325.603 351.516 323.912 351.516 321.834C351.516 319.756 353.207 318.065 355.285 318.065C357.363 318.065 359.054 319.756 359.054 321.834C359.054 323.912 357.363 325.603 355.285 325.603ZM355.285 318.563C353.481 318.563 352.014 320.03 352.014 321.834C352.014 323.638 353.482 325.105 355.285 325.105C357.089 325.105 358.556 323.638 358.556 321.834C358.556 320.03 357.089 318.563 355.285 318.563Z" fill="#C7C7C7"/>
<path d="M322.172 295.812C327.67 295.606 333.168 295.509 338.665 295.429C344.163 295.347 349.661 295.354 355.158 295.312C360.656 295.351 366.154 295.347 371.651 295.427L379.898 295.566C382.647 295.649 385.396 295.698 388.145 295.811C385.396 295.924 382.647 295.973 379.898 296.056L371.651 296.195C366.153 296.275 360.655 296.271 355.158 296.31C349.66 296.268 344.162 296.276 338.665 296.193C333.167 296.115 327.67 296.018 322.172 295.812Z" fill="#263238"/>
<path d="M331.562 301.362C335.496 301.156 339.427 301.059 343.36 300.979C347.293 300.897 351.225 300.904 355.158 300.862C359.091 300.901 363.023 300.897 366.956 300.977L372.855 301.116C374.821 301.199 376.788 301.248 378.754 301.361C376.788 301.474 374.821 301.523 372.855 301.606L366.956 301.745C363.023 301.825 359.091 301.821 355.158 301.86C351.225 301.818 347.293 301.826 343.36 301.743C339.427 301.665 335.496 301.568 331.562 301.362Z" fill="#263238"/>
<path d="M406.657 116.793H304.039V214.457H406.657V116.793Z" stroke="#C7C7C7" stroke-miterlimit="10"/>
<path d="M304.039 116.793L406.656 214.457" stroke="#C7C7C7" stroke-miterlimit="10"/>
<path d="M406.656 116.793L304.039 214.457" stroke="#C7C7C7" stroke-miterlimit="10"/>
<path d="M421.544 48.6816H290.866C283.569 48.6816 277.648 54.7036 277.648 62.1466V331.148C277.648 338.576 283.569 344.613 290.866 344.613H421.544C428.841 344.613 434.777 338.576 434.777 331.148V62.1466C434.777 54.7036 428.841 48.6816 421.544 48.6816ZM426.507 322.832C426.507 329.912 421.205 335.64 414.665 335.64H297.761C291.206 335.64 285.904 329.912 285.904 322.832V72.3426C285.904 57.9186 291.207 57.2156 297.761 57.2156H321.182C322.542 57.2156 323.655 58.7616 323.655 60.6786V61.5056C323.655 65.9966 326.113 66.0116 329.128 66.0116H383.282C386.327 66.0116 388.77 65.9966 388.77 61.5056V60.6786C388.77 58.7616 389.868 57.2156 391.251 57.2156H414.664C421.203 57.2156 426.506 59.1326 426.506 72.3426V322.832H426.507Z" fill="#263238"/>
</svg>
