<svg width="500" height="500" viewBox="0 0 500 500" fill="none" xmlns="http://www.w3.org/2000/svg">
<path d="M247.049 470.354C244.704 469.643 246.578 462.88 249.106 460.735C249.91 460.055 252.915 458.417 256.686 456.466C264.989 452.182 276.938 446.433 276.938 446.433L265.397 403.047L307.419 402.095C307.419 402.095 320.045 442.794 320.047 445.347C320.048 445.504 320.049 445.662 320.05 445.82C320.015 457.407 319.709 466.9 318.773 467.522C316.272 469.205 249.409 471.071 247.049 470.354Z" fill="#AD6359"/>
<path d="M247.047 470.351C249.409 471.072 316.273 469.208 318.773 467.52C319.707 466.898 320.015 457.409 320.051 445.82C320.047 445.664 320.049 445.501 320.045 445.345C320.044 444.799 319.469 442.509 318.561 439.249L275.351 440.463L276.938 446.436C276.938 446.436 264.986 452.186 256.683 456.464C252.913 458.415 249.908 460.053 249.104 460.736C246.574 462.878 244.706 469.643 247.047 470.351Z" fill="#616161"/>
<path d="M246.306 470.749C248.708 471.481 316.787 469.49 319.329 467.767C320.307 467.129 320.595 457.192 320.598 445.175C320.597 445.049 320.596 444.924 320.595 444.799L276.659 445.593L276.698 446.338C276.698 446.338 250.98 458.756 248.383 460.945C245.806 463.126 243.904 470.027 246.306 470.749Z" fill="#C76323"/>
<path d="M246.999 468.087C258.467 467.47 304.779 466.062 316.162 466.323C316.255 466.325 316.257 466.388 316.164 466.396C304.81 467.256 258.488 468.288 247.003 468.276C246.762 468.274 246.757 468.1 246.999 468.087Z" fill="#263238"/>
<path d="M271.774 445.861C276.265 444.886 281.809 445.418 285.354 448.535C285.491 448.656 285.318 448.849 285.17 448.807C280.674 447.533 276.487 446.753 271.809 446.431C271.479 446.408 271.452 445.93 271.774 445.861Z" fill="#263238"/>
<path d="M268.571 447.919C273.062 446.944 278.606 447.476 282.151 450.592C282.289 450.713 282.115 450.906 281.967 450.864C277.47 449.59 273.283 448.81 268.606 448.488C268.277 448.467 268.25 447.989 268.571 447.919Z" fill="#263238"/>
<path d="M265.368 449.98C269.86 449.005 275.403 449.537 278.948 452.654C279.085 452.775 278.912 452.968 278.764 452.926C274.267 451.652 270.081 450.872 265.403 450.55C265.073 450.528 265.047 450.05 265.368 449.98Z" fill="#263238"/>
<path d="M267.823 442.555C271.09 444.946 275.277 445.838 279.047 447.11C279.438 447.242 279.736 446.869 279.739 446.525C279.813 446.509 279.873 446.451 279.841 446.359C278.501 442.623 275.711 438.694 272.583 436.218C270.651 434.689 267.315 433.686 265.612 436.182C264 438.543 265.916 441.159 267.823 442.555ZM266.567 438.955C265.626 434.024 271.022 436.47 272.401 437.653C273.287 438.413 274.097 439.296 274.87 440.169C276.489 441.999 277.818 444.024 279.239 445.999C277.425 445.26 275.565 444.684 273.727 444.014C271.535 443.214 267.086 441.674 266.567 438.955Z" fill="#263238"/>
<path d="M294.711 439.037C293.537 436.253 290.068 436.574 287.871 437.69C284.314 439.496 280.801 442.795 278.747 446.191C278.697 446.275 278.744 446.344 278.814 446.374C278.749 446.711 278.967 447.136 279.376 447.084C283.323 446.585 287.604 446.54 291.28 444.845C293.426 443.855 295.822 441.671 294.711 439.037ZM285.205 445.103C283.27 445.396 281.332 445.592 279.408 445.956C281.192 444.302 282.896 442.581 284.846 441.108C285.777 440.406 286.746 439.702 287.765 439.132C289.351 438.245 295.125 436.918 293.225 441.565C292.177 444.127 287.511 444.754 285.205 445.103Z" fill="#263238"/>
<path d="M366.611 373.017C366.611 373.017 374.909 400.069 361.988 408.508C353.361 414.142 314.361 407.781 312.575 403.033C309.202 394.063 309.103 390.743 309.103 390.743L320.413 438.488L271.56 440.434C271.56 440.434 261.273 400.961 262.444 358.726C262.877 343.11 283.703 337.804 298.5 345.15C312.847 352.272 338.748 372.435 338.748 372.435L366.611 373.017Z" fill="#263238"/>
<path d="M315.496 410.461C312.682 404.09 312.817 401.553 305.677 381.735C304.723 379.086 303.911 376.388 303.049 373.707C302.155 370.927 301.113 368.163 300.416 365.327C300.382 365.189 300.158 365.253 300.204 365.388C301.033 367.84 301.597 370.379 302.321 372.862C303.03 375.294 303.749 377.722 304.502 380.141C304.827 381.185 305.166 382.226 305.496 383.269C305.357 383.054 305.219 382.841 305.089 382.631C304.487 381.66 303.883 380.694 303.257 379.738C301.969 377.77 300.423 375.929 299.285 373.869C299.216 373.744 299.017 373.864 299.096 373.982C300.394 375.945 301.34 378.14 302.561 380.154C303.153 381.132 303.772 382.087 304.405 383.039C304.964 383.879 305.529 384.836 306.233 385.584C307.217 388.647 309.353 396.032 310.399 399.074C313.694 408.661 312.614 405.541 315.014 410.67C315.139 410.938 315.617 410.736 315.496 410.461Z" fill="#37474F"/>
<path d="M293.807 431.293C301.162 431.009 308.494 430.386 315.844 430.039C315.984 430.032 315.999 429.815 315.855 429.819C308.523 429.982 301.192 429.902 293.862 430.195C286.505 430.489 279.177 431.058 271.831 431.511C271.643 431.523 271.621 431.814 271.816 431.809C279.148 431.618 286.477 431.576 293.807 431.293Z" fill="#37474F"/>
<path d="M311.767 428.329C311.004 425.101 309.974 421.933 309.026 418.755C308.077 415.573 307.126 412.392 306.151 409.218C304.2 402.868 302.174 396.541 300.153 390.213C299.006 386.621 297.775 383.049 296.564 379.477C296.529 379.375 296.371 379.417 296.402 379.522C300.041 392.297 303.938 404.999 308.047 417.63C309.213 421.213 310.284 424.849 311.653 428.361C311.681 428.43 311.785 428.404 311.767 428.329Z" fill="#37474F"/>
<path opacity="0.1" d="M361.991 408.504C374.91 400.067 366.615 373.016 366.615 373.016L343.134 372.529L312 401.478C312.182 401.976 312.371 402.495 312.575 403.035C314.357 407.78 353.362 414.143 361.991 408.504Z" fill="#000102"/>
<path opacity="0.1" d="M271.289 439.336C271.463 440.058 271.564 440.433 271.564 440.433L320.416 438.487L311.715 401.744L271.289 439.336Z" fill="#000102"/>
<path d="M469.538 471.095C470.045 473.492 463.214 475.107 460.118 473.925C459.135 473.548 456.252 471.703 452.726 469.338C444.972 464.124 434.18 456.422 434.18 456.422L398.332 459.602L377.258 423.234C377.258 423.234 410.229 420.398 412.464 419.167C412.602 419.09 412.739 419.014 412.877 418.937C423.048 413.386 431.515 409.083 432.511 409.604C435.192 410.983 469.031 468.681 469.538 471.095Z" fill="#AD6359"/>
<path d="M406.188 420.294L426.13 457.14L434.182 456.423C434.182 456.423 444.976 464.121 452.73 469.338C456.255 471.699 459.13 473.545 460.117 473.926C463.213 475.113 470.044 473.49 469.538 471.094C469.029 468.679 435.191 410.985 432.51 409.602C431.52 409.086 423.043 413.385 412.878 418.938C412.734 419.011 412.601 419.091 412.467 419.162C411.915 419.468 409.511 419.868 406.188 420.294Z" fill="#616161"/>
<path d="M470.241 471.555C469.726 469.098 435.192 410.394 432.457 408.996C431.427 408.447 422.58 412.98 412.047 418.765C411.938 418.826 411.828 418.888 411.719 418.949L433.576 457.071L434.21 456.679C434.21 456.679 457.479 473.237 460.649 474.458C463.8 475.665 470.765 474.007 470.241 471.555Z" fill="#C76323"/>
<path d="M467.569 472.23C461.505 462.477 437.965 422.568 432.711 412.467C432.668 412.385 432.722 412.353 432.774 412.43C438.996 421.966 462.211 462.064 467.732 472.135C467.848 472.348 467.698 472.436 467.569 472.23Z" fill="#263238"/>
<path d="M436.162 461.225C433.144 457.759 430.941 452.644 431.965 448.036C432.005 447.858 432.257 447.916 432.292 448.066C433.341 452.62 434.674 456.665 436.645 460.92C436.784 461.219 436.378 461.473 436.162 461.225Z" fill="#263238"/>
<path d="M439.507 463.038C436.489 459.571 434.285 454.457 435.309 449.849C435.348 449.671 435.602 449.729 435.636 449.879C436.685 454.433 438.018 458.478 439.989 462.733C440.128 463.033 439.723 463.286 439.507 463.038Z" fill="#263238"/>
<path d="M442.858 464.853C439.84 461.386 437.636 456.272 438.66 451.664C438.7 451.485 438.953 451.545 438.987 451.694C440.036 456.248 441.37 460.293 443.341 464.547C443.481 464.848 443.074 465.101 442.858 464.853Z" fill="#263238"/>
<path d="M435.17 466.276C435.692 462.262 434.457 458.162 433.756 454.246C433.683 453.84 433.213 453.758 432.91 453.921C432.861 453.864 432.78 453.839 432.716 453.912C430.087 456.886 427.987 461.223 427.324 465.157C426.914 467.586 427.643 470.994 430.65 471.284C433.496 471.559 434.866 468.62 435.17 466.276ZM432.62 469.111C428.751 472.311 428.296 466.404 428.669 464.626C428.909 463.483 429.292 462.349 429.685 461.251C430.509 458.95 431.644 456.811 432.69 454.614C432.916 456.559 433.307 458.467 433.605 460.401C433.96 462.706 434.753 467.347 432.62 469.111Z" fill="#263238"/>
<path d="M419.132 444.404C417.258 446.774 419.21 449.66 421.246 451.047C424.542 453.294 429.125 454.784 433.091 454.949C433.189 454.953 433.226 454.878 433.219 454.802C433.546 454.697 433.813 454.301 433.571 453.967C431.232 450.749 429.131 447.018 425.875 444.613C423.973 443.21 420.905 442.162 419.132 444.404ZM429.027 449.814C430.216 451.369 431.321 452.973 432.566 454.483C430.257 453.716 427.928 453.052 425.699 452.052C424.635 451.575 423.551 451.064 422.561 450.446C421.02 449.483 417.076 445.063 422.064 444.49C424.813 444.173 427.61 447.96 429.027 449.814Z" fill="#263238"/>
<path d="M335.513 367.213C335.513 367.213 334.587 378.586 334.944 387.259C334.944 387.259 289.207 412.891 287.738 436.075C287.218 444.287 288.742 459.601 304.998 466.144C323.163 473.455 422.184 465.288 422.184 465.288L408.512 419.976L364.772 421.223C364.772 421.223 395.775 425.265 398.55 404.604C401.129 385.4 388.825 365.715 388.825 365.715L335.513 367.213Z" fill="#263238"/>
<path d="M411.879 463.342C410.638 458.113 409.432 452.856 408.065 447.658C406.694 442.446 405.247 437.259 403.72 432.097C403.289 430.639 402.846 429.186 402.408 427.731C402.199 427.037 401.99 426.345 401.766 425.656C401.541 424.962 401.361 424.239 401.068 423.575C401.035 423.5 400.953 423.546 400.962 423.618C401.125 424.953 401.54 426.326 401.862 427.633C402.174 428.895 402.473 430.159 402.787 431.421C403.433 434.015 404.088 436.605 404.759 439.191C406.105 444.376 407.579 449.511 409.081 454.647C409.934 457.564 410.79 460.481 411.655 463.393C411.705 463.557 411.92 463.515 411.879 463.342Z" fill="#37474F"/>
<path d="M379.874 420.794C376.323 420.64 372.769 420.625 369.216 420.654C365.662 420.681 362.111 420.819 358.56 420.981C355.012 421.196 351.463 421.436 347.929 421.853C344.4 422.275 340.865 422.768 337.422 423.672L340.052 423.256L342.692 422.929C344.453 422.729 346.215 422.533 347.984 422.405C351.516 422.103 355.054 421.858 358.598 421.7C362.138 421.478 365.684 421.351 369.23 421.205L379.874 420.794Z" fill="#37474F"/>
<path d="M379.214 369.733C380.917 373.757 382.406 377.868 383.688 382.038C384.957 386.21 385.997 390.459 386.574 394.766C386.852 396.918 387.002 399.091 386.893 401.245C386.78 403.39 386.415 405.549 385.49 407.451C385.038 408.403 384.413 409.258 383.667 409.977C382.895 410.698 382.028 411.324 381.116 411.878C379.278 412.969 377.27 413.781 375.216 414.445C371.093 415.754 366.788 416.494 362.482 417.128C358.169 417.751 353.827 418.226 349.487 418.792C345.15 419.36 340.798 420.004 336.535 421.18C334.419 421.772 332.28 422.516 330.349 423.66C328.419 424.792 326.656 426.125 325.021 427.665L324.062 428.567L325.388 428.512L360.743 427.041L378.424 426.402C384.319 426.214 390.213 426.037 396.112 426.03C390.215 425.852 384.313 425.927 378.415 425.987C372.516 426.054 366.618 426.202 360.721 426.35L343.033 426.86L325.348 427.523L325.716 428.37C327.266 426.921 329.013 425.606 330.858 424.538C332.698 423.456 334.728 422.759 336.815 422.184C340.989 421.057 345.312 420.439 349.628 419.837C353.951 419.252 358.295 418.755 362.628 418.108C366.956 417.449 371.296 416.685 375.504 415.328C377.602 414.643 379.667 413.794 381.57 412.618C382.516 412.024 383.422 411.352 384.236 410.57C385.052 409.764 385.72 408.815 386.191 407.786C387.155 405.728 387.493 403.479 387.581 401.275C387.662 399.062 387.479 396.859 387.168 394.684C386.541 390.331 385.372 386.091 384.012 381.935C382.634 377.783 381.049 373.7 379.214 369.733Z" fill="#37474F"/>
<path d="M340.556 366.592C340.553 366.494 340.391 366.489 340.383 366.587C340.245 368.174 339.945 377.222 339.767 380.632C339.703 381.848 339.83 384.007 338.063 384.055C336.664 384.093 335.925 382.587 335.736 381.406C335.507 379.966 335.986 369.46 336.067 365.965C336.07 365.865 335.908 365.865 335.894 365.961C335.349 369.475 334.415 380.631 334.829 382.179C335.154 383.394 335.815 384.536 337.07 384.913C337.096 384.921 336.915 386.553 337.245 389.032C337.26 389.146 337.615 389.166 337.639 389.074L337.647 389.077C337.563 388.262 337.907 385.082 337.896 385.064C338.813 385.036 339.525 384.811 340.117 383.975C341.299 382.304 340.702 370.614 340.556 366.592Z" fill="#37474F"/>
<path d="M346.324 393.238C345.035 392.401 343.703 391.644 342.364 390.901C341.028 390.152 339.663 389.457 338.294 388.773C336.917 388.105 335.536 387.442 334.122 386.848C332.712 386.247 331.292 385.666 329.828 385.197C330.497 385.578 331.181 385.918 331.85 386.292L333.885 387.35C335.238 388.061 336.607 388.739 337.975 389.421C339.35 390.088 340.721 390.764 342.115 391.395L344.205 392.345C344.912 392.639 345.608 392.958 346.324 393.238Z" fill="#37474F"/>
<path d="M379.066 385.053C376.602 385.112 368.938 385.778 365.19 382.788C362.159 380.37 360.617 371.867 360.04 369.537C360.012 369.422 359.844 369.466 359.844 369.574C359.839 372.204 360.29 374.87 361.058 377.384C361.713 379.53 362.582 381.922 364.373 383.389C366.257 384.932 368.769 385.423 371.131 385.647C373.797 385.901 376.444 385.748 379.08 385.314C379.242 385.288 379.238 385.049 379.066 385.053Z" fill="#37474F"/>
<path d="M363.429 312.796C350.175 329.5 330.532 347.733 324.985 349.567C317.97 351.887 284.844 344.222 283.165 343.658C280.409 342.732 285.396 315.428 288.023 316.074C295.926 318.019 316.996 324.321 319.067 323.557C321.221 322.752 336.895 315.077 353.613 305.93C365.154 299.606 371.653 302.432 363.429 312.796Z" fill="#AD6359"/>
<path d="M285.012 344.204C282.005 344.063 268.281 342.201 264.578 340.829C260.875 339.456 250.504 334.735 251.267 331.792C252.03 328.849 255.177 329.989 255.177 329.989C255.177 329.989 251.114 327.301 252.151 324.409C253.189 321.517 258.026 323.451 258.026 323.451C258.026 323.451 254.054 320.387 255.296 317.576C256.538 314.765 261.076 317.524 261.076 317.524C261.076 317.524 257.314 314.892 259.311 313.006C261.714 310.738 268.101 316.374 272.303 317.583C273.257 317.858 292.04 321.768 292.04 321.768L285.012 344.204Z" fill="#AD6359"/>
<path d="M260.679 317.296C265.386 321.429 268.161 322.424 274.251 323.391C274.37 323.41 274.369 323.591 274.243 323.583C268.192 323.178 264.532 322.433 260.467 317.514C260.268 317.273 260.455 317.099 260.679 317.296Z" fill="#263238"/>
<path d="M257.654 323.116C262.918 326.982 265.918 328.087 272.222 329.57C272.311 329.591 272.285 329.744 272.193 329.73C265.886 328.793 262.252 327.966 257.5 323.412C257.286 323.206 257.413 322.939 257.654 323.116Z" fill="#263238"/>
<path d="M255.496 330.054C260.863 333.429 264.1 334.783 270.405 335.436C270.554 335.451 270.546 335.67 270.395 335.669C263.901 335.628 259.849 333.969 255.411 330.228C255.108 329.973 255.158 329.842 255.496 330.054Z" fill="#263238"/>
<path d="M295.93 321.107L307.698 300.935L301.483 297.315C299.671 296.259 298.682 294.258 298.803 292.164C298.868 291.032 298.875 289.894 298.821 288.755C298.721 286.639 299.738 284.627 301.578 283.576L307.784 280.028L296.189 259.746L289.983 263.294C288.199 264.314 285.984 264.274 284.269 263.14C283.231 262.454 282.158 261.828 281.055 261.268C279.218 260.335 278.085 258.425 278.094 256.364L278.127 249.214L254.773 249.121L254.751 256.297C254.745 258.367 253.564 260.244 251.714 261.172C251.175 261.442 250.642 261.729 250.114 262.03C249.587 262.332 249.069 262.646 248.564 262.973C246.834 264.092 244.629 264.159 242.849 263.122L236.627 259.497L224.859 279.669L231.091 283.307C232.9 284.363 233.884 286.362 233.76 288.452C233.693 289.582 233.686 290.718 233.738 291.854C233.835 293.969 232.818 295.977 230.981 297.028L224.773 300.577L236.367 320.858L242.575 317.309C244.413 316.258 246.659 316.401 248.432 317.558C249.384 318.179 250.366 318.749 251.374 319.264C253.239 320.218 254.462 322.08 254.455 324.174L254.428 331.391L277.782 331.484L277.811 324.314C277.819 322.219 279.052 320.362 280.922 319.415C281.435 319.155 281.945 318.881 282.451 318.591C282.951 318.305 283.443 318.007 283.925 317.698C285.695 316.562 287.93 316.441 289.747 317.501L295.93 321.107ZM277.861 305.534C267.778 313.119 253.426 309.209 248.585 297.557C245.289 289.625 247.836 280.236 254.697 275.069C264.777 267.479 279.165 271.4 284.002 283.054C287.293 290.988 284.725 300.371 277.861 305.534ZM266.276 275.38C258.034 275.38 251.355 282.059 251.355 290.301C251.355 298.543 258.034 305.23 266.276 305.23C274.526 305.23 281.205 298.543 281.205 290.301C281.205 282.059 274.526 275.38 266.276 275.38ZM266.276 295.548C263.381 295.548 261.028 293.196 261.028 290.3C261.028 287.404 263.381 285.052 266.276 285.052C269.179 285.052 271.524 287.404 271.524 290.3C271.524 293.196 269.18 295.548 266.276 295.548Z" fill="#455A64"/>
<path d="M296.473 319.506C296.473 319.506 290.875 314.004 287.882 312.129C284.889 310.255 271.165 307.373 270.375 310.302C269.354 314.083 276.949 317.307 280.875 318.4C280.875 318.4 278.505 327.145 283.455 330.638C288.405 334.132 296.473 319.506 296.473 319.506Z" fill="#AD6359"/>
<path d="M270.431 311.433C271.988 315.553 277.234 316.655 280.964 318C281.248 318.103 281.265 318.367 281.144 318.568C280.396 322.3 280.427 327.782 283.207 330.681C283.288 330.766 283.179 330.893 283.086 330.819C279.681 328.115 279.211 322.731 280.293 318.697C276.447 317.377 271.234 316.041 270.391 311.447C270.385 311.42 270.421 311.406 270.431 311.433Z" fill="#263238"/>
<path d="M294.719 315.042L287.859 347.486C287.859 347.486 317.642 354.236 324.983 351.319C332.323 348.402 354.143 325.676 363.014 313.848C371.885 302.02 365.115 299.188 355.101 304.538C345.087 309.887 320.415 322.661 319.362 322.692C318.309 322.722 294.719 315.042 294.719 315.042Z" fill="#C76323"/>
<path d="M298.502 336.23C299.282 332.573 300.034 328.908 300.95 325.279C301.47 323.218 301.98 321.152 302.52 319.096C302.54 319.018 302.676 319.043 302.662 319.123C302.023 322.825 301.375 326.537 300.567 330.209C299.764 333.863 298.991 337.523 298.141 341.167C297.657 343.239 297.113 345.288 296.505 347.329C296.493 347.369 296.424 347.357 296.43 347.315C296.945 343.587 297.716 339.913 298.502 336.23Z" fill="#263238"/>
<path opacity="0.1" d="M321.094 351.995C322.691 351.911 324.028 351.701 324.978 351.323C332.325 348.406 354.137 325.673 363.016 313.846C369.379 305.358 367.689 301.504 362.525 301.985C349.92 316.937 335.188 334.861 321.094 351.995Z" fill="black"/>
<path d="M398.43 384.82C398.268 384.992 333.348 373.235 332.753 372.519C331.922 371.512 343.632 318.808 355.113 304.522C357.984 300.95 367.372 300.987 371.65 304.436C392.847 321.527 399.009 384.2 398.43 384.82Z" fill="#C76323"/>
<path d="M377.645 310.684C394.721 328.733 413.044 364.34 408.795 371.796C404.063 380.1 380.287 354.803 380.41 353.357C380.504 352.264 375.277 331.539 369.138 314.97C363.003 298.417 373.422 306.221 377.645 310.684Z" fill="#F7A9A0"/>
<path d="M380.251 353.38C379.559 350.949 371.401 322.959 368.273 313.468C365.465 304.948 367.107 301.51 374.027 306.899C386.768 316.821 406.508 345.836 410.938 361.236C415.205 376.071 405.382 376.073 395.511 369.07C387.428 363.337 380.251 353.38 380.251 353.38Z" fill="#C76323"/>
<path d="M381.719 357.587C378.729 346.003 375.244 334.549 371.266 323.266C374.251 334.851 377.744 346.304 381.719 357.587Z" fill="#263238"/>
<path d="M373.167 329.942C372.609 328.45 371.805 327.111 370.883 325.818C371.335 327.336 372.169 328.714 373.167 329.942Z" fill="#263238"/>
<path d="M371.411 306.334C370.815 307.029 370.197 307.7 369.573 308.363C368.942 309.019 368.298 309.659 367.649 310.294C366.346 311.555 365.01 312.776 363.622 313.928C362.238 315.084 360.822 316.196 359.357 317.23C357.9 318.278 356.391 319.24 354.858 320.157L355.343 320.305C355.322 320.259 355.271 320.135 355.241 320.037C355.204 319.935 355.175 319.823 355.143 319.715C355.083 319.495 355.027 319.27 354.979 319.042C354.878 318.587 354.8 318.122 354.724 317.657C354.574 316.725 354.463 315.781 354.36 314.836C354.257 313.89 354.176 312.94 354.088 311.99L353.855 309.132C353.813 310.088 353.801 311.045 353.798 312.003C353.789 312.961 353.822 313.919 353.86 314.878C353.915 315.836 353.981 316.795 354.094 317.754C354.158 318.233 354.224 318.712 354.316 319.191C354.36 319.431 354.412 319.67 354.47 319.911C354.502 320.032 354.53 320.152 354.57 320.275C354.588 320.336 354.607 320.397 354.63 320.461C354.654 320.528 354.67 320.577 354.717 320.674L354.881 321.012L355.202 320.822C356.758 319.898 358.312 318.961 359.772 317.874C360.516 317.353 361.229 316.786 361.948 316.228C362.306 315.947 362.648 315.644 362.999 315.353C363.349 315.061 363.697 314.766 364.034 314.458C365.402 313.251 366.706 311.964 367.944 310.612C369.178 309.259 370.362 307.85 371.411 306.334Z" fill="#263238"/>
<path d="M358.67 314.998C361.533 315.019 367.272 309.455 369.421 304.866C369.566 304.551 368.898 301.374 368.269 297.476C367.896 295.109 367.537 292.465 367.384 290.028L352.336 294.703C352.336 294.703 354.16 299.716 354.402 303.966C354.418 304.321 354.404 304.654 354.36 304.973C354.358 305.019 354.348 305.076 354.349 305.14C354.158 307.059 354.187 314.965 358.67 314.998Z" fill="#AD6359"/>
<path d="M354.361 304.974C354.358 305.021 354.344 305.071 354.345 305.141C354.833 305.178 355.348 305.175 355.925 305.124C364.6 304.378 366.06 293.657 366.294 290.366L352.328 294.701C352.328 294.701 354.153 299.714 354.405 303.969C354.413 304.319 354.405 304.649 354.361 304.974Z" fill="#263238"/>
<path d="M373.452 276.568C373.784 282.235 367.305 296.804 362.728 299.294C356.093 302.903 347.071 301.217 344.469 293.662C341.947 286.339 350.727 267.502 355.667 265.429C362.944 262.375 372.961 268.197 373.452 276.568Z" fill="#AD6359"/>
<path d="M359.556 280.944C359.142 280.687 358.804 280.381 358.421 280.085C357.989 279.75 357.611 279.529 357.43 278.988C357.334 278.698 357.54 278.299 357.813 278.179C358.448 277.899 359.079 278.176 359.616 278.558C360.198 278.972 360.541 279.439 360.73 280.127C360.914 280.793 360.102 281.283 359.556 280.944Z" fill="#263238"/>
<path d="M349.349 276.964C349.824 277.073 350.279 277.094 350.76 277.153C351.302 277.219 351.727 277.328 352.236 277.071C352.509 276.933 352.643 276.505 352.534 276.227C352.28 275.581 351.636 275.334 350.987 275.227C350.282 275.111 349.709 275.202 349.091 275.556C348.491 275.901 348.723 276.82 349.349 276.964Z" fill="#263238"/>
<path d="M354.414 292.19C354.088 292.342 353.733 292.585 353.354 292.487C352.991 292.393 352.632 292.089 352.352 291.851C352.325 291.827 352.28 291.85 352.29 291.887C352.417 292.368 352.886 292.805 353.384 292.887C353.871 292.967 354.238 292.65 354.496 292.269C354.533 292.217 354.462 292.168 354.414 292.19Z" fill="#263238"/>
<path d="M354.412 288.781C353.537 289.463 352.534 289.652 351.571 289.511C351.14 289.451 350.711 289.317 350.31 289.133C350.229 289.103 350.15 289.065 350.082 289.023C350.011 288.988 349.947 288.956 349.871 288.911C349.759 288.852 349.728 288.732 349.747 288.613L349.75 288.606C349.764 288.569 349.775 288.539 349.796 288.506C349.796 288.506 349.796 288.506 349.799 288.498L349.832 288.41C350.084 287.622 350.574 286.461 350.574 286.461C350.239 286.504 348.556 286.65 348.722 286.25C350.104 282.945 351.641 279.269 353.715 276.272C353.778 276.17 353.94 276.255 353.891 276.363C352.688 279.592 350.926 282.588 349.666 285.812C350.192 285.798 351.063 285.736 351.468 285.887C351.568 285.958 350.479 288.113 350.395 288.476C350.395 288.476 350.389 288.491 350.388 288.516C351.641 289.142 352.768 289.092 354.349 288.657C354.445 288.626 354.501 288.722 354.412 288.781Z" fill="#263238"/>
<path d="M356.193 282.473C356.215 282.438 356.254 282.549 356.237 282.59C355.833 283.578 355.538 284.778 356.319 285.446C356.343 285.467 356.322 285.516 356.29 285.499C355.243 284.933 355.652 283.345 356.193 282.473Z" fill="#263238"/>
<path d="M357.473 281.76C359.127 282.236 358.053 285.508 356.521 285.067C355.013 284.633 356.087 281.361 357.473 281.76Z" fill="#263238"/>
<path d="M350.419 280.145C350.424 280.104 350.324 280.168 350.312 280.21C350.019 281.236 349.512 282.363 348.484 282.406C348.452 282.407 348.439 282.459 348.475 282.466C349.647 282.667 350.307 281.165 350.419 280.145Z" fill="#263238"/>
<path d="M349.852 278.794C348.257 278.147 347.082 281.384 348.559 281.983C350.013 282.573 351.188 279.336 349.852 278.794Z" fill="#263238"/>
<path d="M350.766 288.913C350.766 288.913 351.126 290.104 351.959 290.786C352.265 291.039 352.627 291.224 353.062 291.261C353.955 291.339 354.244 290.598 354.324 289.904C354.392 289.334 354.311 288.792 354.311 288.792C354.311 288.792 352.718 289.479 350.766 288.913Z" fill="#263238"/>
<path d="M351.961 290.786C352.267 291.039 352.629 291.224 353.064 291.261C353.957 291.339 354.246 290.598 354.326 289.904C353.419 289.68 352.34 289.963 351.961 290.786Z" fill="#FF9BBC"/>
<path d="M369.813 287.561C367.421 287 368.379 281.452 368.379 281.452C368.379 281.452 362.022 281.654 363.895 273.662C363.895 273.662 356.339 274.243 352.597 270.83C349.398 267.912 348.989 261.142 352.632 258.088C354.686 256.366 359.448 255.504 364.339 263.3C364.339 263.3 374.111 259.627 374.724 270.464C374.724 270.464 378.912 272.062 378.385 276.388C377.555 283.216 371.88 288.045 369.813 287.561Z" fill="#263238"/>
<path d="M364.041 273.103C364.089 273.032 364.195 273.088 364.158 273.167C363.304 275.016 362.4 277.031 363.545 278.978C364.658 280.87 366.726 281.872 368.883 281.339C369.008 281.308 369.067 281.5 368.942 281.53C366.899 282.022 364.75 281.247 363.496 279.534C361.996 277.485 362.737 275.033 364.041 273.103Z" fill="#263238"/>
<path d="M369.938 286.286C373.64 285.413 376.829 283.256 378.06 279.486C378.646 277.692 378.798 275.715 378.012 273.977C377.294 272.389 375.848 271.513 374.644 270.35C374.61 270.317 374.65 270.261 374.692 270.283C382.85 274.653 378.161 285.884 370.013 286.734C369.758 286.761 369.685 286.346 369.938 286.286Z" fill="#263238"/>
<path d="M351.519 257.885C356.442 253.63 362.765 258.901 364.493 263.76C364.499 263.777 364.471 263.791 364.463 263.774C362.737 260.015 358.279 255.636 353.824 257.16C348.444 259 348.268 267.88 353.415 270.021C353.57 270.085 353.469 270.352 353.308 270.299C348.473 268.692 347.859 261.047 351.519 257.885Z" fill="#263238"/>
<path d="M355.742 288.454C353.338 287.166 352.431 284.163 353.718 281.76C355.006 279.356 358.008 278.448 360.412 279.736C362.816 281.024 363.724 284.026 362.436 286.431C361.347 288.464 359.031 289.427 356.889 288.897C356.498 288.799 356.113 288.653 355.742 288.454ZM354.3 282.071C353.185 284.154 353.972 286.755 356.054 287.871C358.134 288.988 360.737 288.199 361.853 286.118C362.968 284.035 362.181 281.433 360.099 280.318C359.778 280.146 359.444 280.019 359.105 279.935C357.25 279.476 355.244 280.311 354.3 282.071Z" fill="#37474F"/>
<path d="M345.979 284.753C344.08 284.039 343.314 281.381 344.272 278.829C344.729 277.61 345.508 276.591 346.465 275.96C347.455 275.307 348.515 275.138 349.457 275.495C350.397 275.848 351.088 276.672 351.402 277.815C351.707 278.92 351.623 280.2 351.164 281.419C350.256 283.834 348.125 285.304 346.288 284.849C346.184 284.823 346.082 284.791 345.979 284.753ZM346.831 276.511C345.99 277.067 345.301 277.972 344.891 279.061C344.061 281.272 344.653 283.548 346.212 284.133C347.776 284.723 349.716 283.396 350.547 281.185C350.956 280.096 351.033 278.961 350.766 277.989C350.508 277.055 349.961 276.389 349.225 276.112C349.146 276.082 349.066 276.058 348.985 276.038C348.308 275.871 347.552 276.034 346.831 276.511Z" fill="#37474F"/>
<path d="M353.674 282.353L354.25 282.028C353.769 281.175 352.444 279.772 350.859 280.557L351.153 281.149C352.571 280.444 353.629 282.276 353.674 282.353Z" fill="#37474F"/>
<path d="M373.858 291.294L374.514 291.216C374.477 290.91 374.123 288.203 372.825 287.46C371.61 286.768 363.022 284.429 362.657 284.33L362.484 284.968C364.947 285.636 371.559 287.496 372.496 288.033C373.353 288.524 373.769 290.553 373.858 291.294Z" fill="#37474F"/>
<path d="M367.181 288.203C367.181 288.203 371.903 284.202 373.806 286.012C375.71 287.822 371.256 294.251 368.387 294.535C365.518 294.819 365.203 292.168 365.203 292.168L367.181 288.203Z" fill="#AD6359"/>
<path d="M372.487 287.823C372.53 287.83 372.523 287.891 372.482 287.897C370.454 288.156 369.042 289.601 367.903 291.184C368.626 290.65 369.466 290.474 370.203 291.361C370.242 291.408 370.176 291.47 370.127 291.446C369.419 291.088 368.843 291.075 368.178 291.542C367.707 291.873 367.32 292.346 366.933 292.77C366.804 292.911 366.532 292.746 366.644 292.573C366.652 292.56 366.661 292.547 366.67 292.535C367.24 290.187 369.918 287.397 372.487 287.823Z" fill="#263238"/>
<path d="M354.242 303.829L357.574 312.534L369.225 302.152L372.291 305.754C372.291 305.754 360.657 322.522 360.615 321.742L357.146 314.214L351.57 319.132L352.471 306.262L354.242 303.829Z" fill="#616161"/>
<path d="M351.636 312.746C351.86 310.626 352.023 308.485 352.351 306.378C352.363 306.303 352.488 306.274 352.505 306.364C352.882 308.435 351.979 316.536 351.919 318.484C351.927 318.477 351.936 318.47 351.944 318.463C352.177 318.25 357.103 314.145 357.148 314.216C357.916 315.42 360.463 320.902 360.633 321.399C362.473 318.735 370.255 308.255 372.409 305.752C372.471 305.68 372.591 305.746 372.541 305.831C370.899 308.656 360.835 322.494 360.7 322.452C360.605 322.516 357.437 315.762 357.075 314.495C356.234 315.399 351.243 320.053 351.238 319.736C351.204 317.599 351.412 314.868 351.636 312.746Z" fill="#263238"/>
<path d="M407.963 372.494C402.135 376.102 384.47 372.296 357.91 366.553C354.235 365.759 353.741 337.757 357.71 338.403C362.709 339.218 388.474 344.581 389.84 345.069C401.365 349.185 411.917 370.047 407.963 372.494Z" fill="#AD6359"/>
<path d="M325.913 341.57C326.16 344.815 334.11 343.528 334.11 343.528C334.11 343.528 332.297 344.857 331.939 346.988C331.53 349.428 335.176 351.14 335.176 351.14C335.176 351.14 333.619 352.866 333.468 355.154C333.311 357.529 336.744 359.78 336.744 359.78C336.744 359.78 336.217 362.159 337.465 364.256C341.01 370.212 358.93 368.824 363.953 367.351L368.689 341.22C368.689 341.22 352.918 332.739 345.623 333.033C341.574 333.196 325.535 336.61 325.913 341.57Z" fill="#AD6359"/>
<path d="M334.166 343.43C338.305 341.853 342.814 341.271 347.17 340.755C347.267 340.744 347.283 340.889 347.186 340.906C342.888 341.67 338.528 343.002 334.216 343.635C334.098 343.653 334.055 343.472 334.166 343.43Z" fill="#263238"/>
<path d="M335.226 350.995C336.173 350.667 337.226 350.651 338.217 350.584C339.285 350.511 340.353 350.458 341.423 350.421C343.564 350.346 345.707 350.32 347.849 350.357C347.944 350.358 347.965 350.504 347.865 350.508C345.731 350.586 343.599 350.696 341.47 350.864C340.405 350.948 339.34 351.041 338.277 351.141C337.287 351.234 336.251 351.415 335.258 351.286C335.112 351.267 335.084 351.045 335.226 350.995Z" fill="#263238"/>
<path d="M336.83 359.774C337.642 359.455 338.683 359.559 339.543 359.547C340.519 359.533 341.495 359.514 342.471 359.49C344.423 359.441 346.374 359.391 348.323 359.274C348.42 359.268 348.437 359.419 348.339 359.425C346.36 359.554 344.382 359.71 342.402 359.822C341.429 359.877 340.457 359.926 339.483 359.97C338.656 360.008 337.626 360.148 336.828 359.872C336.783 359.857 336.789 359.79 336.83 359.774Z" fill="#263238"/>
<path d="M362.641 336.557L373.532 374.885C373.532 374.885 405.4 376.886 409.849 372.238C413.03 368.915 402.797 348.856 390.016 344.323L362.641 336.557Z" fill="#C76323"/>
<path d="M403.185 355.012C401.988 352.619 397.359 347.023 390.012 344.296C389.947 344.272 389.895 344.37 389.958 344.4C395.234 346.961 401.747 352.869 403.095 355.073C403.13 355.132 403.215 355.072 403.185 355.012Z" fill="#263238"/>
<path d="M379.028 369.513C378.27 365.738 377.312 362.006 376.342 358.278C375.372 354.547 374.41 350.813 373.347 347.106C372.746 345.012 372.158 342.913 371.485 340.84C371.467 340.786 371.372 340.801 371.384 340.86C372.139 344.629 373.083 348.369 374.026 352.097C374.971 355.834 375.956 359.565 376.975 363.284C377.551 365.385 378.164 367.477 378.837 369.55C378.871 369.654 379.05 369.624 379.028 369.513Z" fill="#263238"/>
<path d="M362.759 336.238C364.242 336.478 365.667 336.94 367.104 337.377C368.539 337.813 369.967 338.273 371.39 338.746C374.221 339.687 386.871 342.478 391.688 345.004C391.741 345.032 391.333 345.149 391.282 345.118C389.05 343.798 364.339 337.382 362.937 336.774C362.944 336.89 363.575 339.343 363.565 339.462C363.558 339.543 363.447 339.595 363.4 339.509C363.29 339.307 362.618 336.764 362.523 336.556C362.447 336.386 362.567 336.207 362.759 336.238Z" fill="#263238"/>
<path d="M371.789 368.766C372.267 370.896 372.793 373.013 373.329 375.128C376.69 375.302 394.478 376.838 404.682 374.591C405.548 374.4 406.253 374.083 406.253 374.083C391.047 376.037 377.913 374.623 373.536 374.633L373.771 374.816C373.133 372.792 372.483 370.773 371.789 368.766Z" fill="#263238"/>
</svg>
