<svg width="500" height="500" viewBox="0 0 500 500" fill="none" xmlns="http://www.w3.org/2000/svg">
<path d="M60.3872 246.007C54.8082 230.999 62.4522 214.31 77.4602 208.732C92.4682 203.153 109.157 210.797 114.735 225.805C120.314 240.813 112.67 257.502 97.6622 263.08C82.6542 268.659 65.9662 261.015 60.3872 246.007Z" fill="white" fill-opacity="0.3"/>
<path d="M102.678 237.785C99.3515 247.067 89.6115 253.483 89.6115 253.483C89.6115 253.483 78.6535 249.486 73.2855 241.22C68.8075 234.325 70.1775 226.147 75.6945 223.751C83.6025 220.314 87.3745 234.344 87.3745 234.344C87.3745 234.344 87.8095 219.822 96.3045 221.342C102.225 222.402 105.445 230.043 102.678 237.785Z" fill="white"/>
<path d="M418.358 326.109C415.714 327.453 412.822 328.405 409.729 328.88C401.729 330.121 393.995 327.975 387.982 323.487C382.1 319.112 377.853 312.502 376.634 304.683C374.188 288.853 385.014 274.036 400.844 271.59C416.662 269.13 431.479 279.969 433.938 295.8C435.909 308.536 429.265 320.609 418.358 326.109Z" fill="white" fill-opacity="0.3"/>
<path d="M414.353 297.688C413.936 302.542 409.663 306.139 404.809 305.722C399.955 305.305 396.358 301.032 396.775 296.177C397.192 291.323 401.465 287.726 406.319 288.143C411.173 288.561 414.77 292.834 414.353 297.688Z" fill="white"/>
<path d="M418.671 322.483L418.36 326.109C415.716 327.453 412.824 328.405 409.731 328.88C401.731 330.121 393.997 327.975 387.984 323.487L388.294 319.874C389.013 311.506 396.394 305.269 404.787 305.99C413.18 306.711 419.39 314.116 418.671 322.483Z" fill="white"/>
<path d="M404.331 125.712C420.513 118.819 428.043 100.114 421.15 83.9323C414.257 67.7508 395.551 60.2209 379.37 67.1139C363.188 74.0069 355.658 92.7124 362.551 108.894C369.444 125.075 388.15 132.605 404.331 125.712Z" fill="white" fill-opacity="0.3"/>
<path fill-rule="evenodd" clip-rule="evenodd" d="M387.514 109.08C386.672 108.551 385.939 107.782 384.81 107.89C384.377 107.933 384.473 107.575 384.47 107.34C384.464 103.096 384.465 98.8561 384.461 94.6151C384.461 94.3061 384.48 94.0531 384.816 93.8831C388.055 92.2491 389.461 89.0351 391.445 86.2881C393.568 83.3561 394.296 80.1791 393.795 76.6631C393.66 75.7091 394.105 75.2811 394.965 75.0851C396.001 74.8491 397.031 75.1351 397.386 75.8461C398.259 77.6101 399.008 79.4441 399.236 81.4051C399.423 83.0141 398.846 84.5801 398.645 86.1721C398.497 87.3371 398.226 88.4881 398.005 89.6681C398.289 89.8751 398.619 89.7671 398.924 89.7721C402.507 89.7781 406.091 89.7761 409.675 89.7761C411.185 89.7761 411.925 90.2091 412.134 91.2121C412.392 92.4611 411.732 93.7301 410.573 94.3191C410.305 94.4541 409.821 94.3321 409.788 94.7521C409.756 95.1801 410.255 95.1361 410.502 95.3081C411.799 96.1981 411.559 98.0331 410.057 99.0941C409.696 99.3471 408.996 99.2301 408.978 99.7601C408.97 100.182 409.625 100.177 409.921 100.475C410.968 101.51 410.448 103.442 408.883 104.222C408.682 104.321 408.434 104.34 408.253 104.465C408.075 104.585 407.901 104.719 408.245 104.963C409.797 106.072 409.764 107.616 408.201 108.741C408.047 108.851 407.891 108.965 407.734 109.076C407.166 109.492 406.495 109.487 405.847 109.489C400.227 109.5 394.608 109.496 388.989 109.493C388.467 109.491 387.934 109.475 387.514 109.08Z" fill="white"/>
<path fill-rule="evenodd" clip-rule="evenodd" d="M371.532 101.599C371.532 98.9053 371.544 96.2073 371.523 93.5143C371.519 92.9653 371.575 92.6963 372.247 92.7043C375.536 92.7443 378.82 92.7433 382.107 92.7073C382.752 92.7003 382.852 92.9223 382.848 93.4953C382.83 98.9193 382.825 104.342 382.852 109.766C382.856 110.456 382.668 110.651 381.975 110.64C378.786 110.604 375.598 110.596 372.411 110.647C371.617 110.66 371.508 110.381 371.516 109.687C371.557 106.991 371.532 104.296 371.532 101.599Z" fill="white"/>
<path d="M113.332 395.589C114.979 406.264 108.951 417.53 108.951 417.53C108.951 417.53 96.3121 419.405 86.8251 414.25C78.9111 409.951 75.9591 401.36 80.0201 396.171C85.8391 388.731 96.7991 400.269 96.7991 400.269C96.7991 400.269 89.6321 386.059 98.6061 383.085C104.861 381.013 111.953 386.689 113.332 395.589Z" fill="white" fill-opacity="0.3"/>
<path d="M135.394 369.318C130.616 375.671 121.584 378.286 121.584 378.286C121.584 378.286 114.101 372.59 111.942 364.943C110.141 358.565 113.149 352.595 117.969 352.068C124.879 351.31 124.432 363.015 124.432 363.015C124.432 363.015 128.235 351.937 134.413 355.136C138.72 357.365 139.374 364.018 135.394 369.318Z" fill="white" fill-opacity="0.3"/>
<path d="M123.616 274.393L62.2656 290.75L78.6225 352.101L139.973 335.744L123.616 274.393Z" fill="#455A64"/>
<path d="M97.1669 321.271C94.2989 322.035 91.6779 322.734 88.9409 323.464C88.0839 320.249 87.2759 317.218 86.4219 314.018C89.0919 313.306 91.7079 312.609 94.4899 311.867C94.3349 311.14 94.2269 310.57 94.0909 310.007C93.4869 307.512 92.7209 305.044 92.2959 302.519C91.3589 296.963 93.6659 292.249 98.8299 290.078C102.051 288.724 105.611 288.178 109.106 287.246C109.887 290.176 110.6 292.851 111.398 295.842C110.151 296.175 108.904 296.48 107.675 296.843C106.576 297.167 105.427 297.422 104.424 297.946C102.995 298.692 102.232 300.004 102.598 301.632C103.146 304.07 103.861 306.47 104.559 309.086C107.664 308.258 110.694 307.45 113.94 306.585C114.368 309.779 114.796 312.741 115.111 315.714C115.142 316.002 114.521 316.543 114.113 316.664C111.867 317.329 109.593 317.901 107.139 318.555C109.305 326.679 111.435 334.668 113.601 342.791C110.231 343.689 107.05 344.538 103.614 345.454C101.478 337.441 99.3469 329.447 97.1669 321.271Z" fill="white"/>
<path d="M426.664 347.008L363.305 340.73L357.027 404.089L420.386 410.367L426.664 347.008Z" fill="#C76323"/>
<path d="M416.444 364.98C417.045 358.634 413.491 354.14 407.209 353.457C398.519 352.508 389.816 351.641 381.108 350.872C374.949 350.328 370.558 354.008 369.857 360.14C369.367 364.475 368.986 368.827 368.556 373.168C368.135 377.417 367.686 381.668 367.298 385.92C366.71 392.41 370.254 396.947 376.667 397.648C385.264 398.593 393.875 399.451 402.491 400.206C408.792 400.759 413.233 397.018 413.887 390.754C414.785 382.169 415.631 373.574 416.444 364.98ZM409.722 390.419C409.281 394.424 406.902 396.43 402.884 396.059C394.272 395.261 385.667 394.408 377.066 393.502C373.037 393.081 371.075 390.651 371.449 386.656C372.271 377.97 373.131 369.288 374.029 360.609C374.439 356.634 376.891 354.57 380.864 354.936C389.476 355.729 398.082 356.581 406.682 357.493C410.661 357.915 412.65 360.408 412.301 364.378C411.92 368.724 411.452 373.061 411.022 377.403C410.593 381.737 410.201 386.082 409.722 390.419Z" fill="white"/>
<path d="M393.104 363.316C386.469 362.642 380.489 367.494 379.763 374.157C379.029 380.896 383.713 386.854 390.375 387.645C397.2 388.453 403.244 383.674 403.983 376.875C404.729 370.071 399.864 364.002 393.104 363.316ZM390.941 383.592C386.614 383.076 383.367 379.09 383.749 374.783C384.145 370.339 388.168 367.052 392.667 367.497C397.155 367.942 400.465 371.955 399.989 376.385C399.515 380.783 395.334 384.115 390.941 383.592Z" fill="white"/>
<path d="M408.936 364.594C408.636 366.289 407.454 367.073 405.782 366.825C403.946 366.555 403.117 365.33 403.433 363.527C403.727 361.837 404.915 361.158 406.627 361.229C408.328 361.694 409.253 362.78 408.936 364.594Z" fill="white"/>
<path d="M418.227 208.582L373.617 192.71L357.745 237.319L402.355 253.192L418.227 208.582Z" fill="#455A64"/>
<path d="M367.062 227.969C370.697 229.341 374.301 229.621 378.064 228.441C374.406 225.737 373.216 223.903 373.449 221.359C374.384 221.641 375.317 221.922 376.249 222.202C373.455 219.808 372.326 216.957 373.341 213.317C374.239 213.933 375.072 214.503 375.905 215.074C374.264 210.281 374.696 207.17 377.431 205.097C379.71 210.844 383.598 215.031 389.384 217.545C389.522 217.072 389.621 216.714 389.732 216.361C390.704 213.257 392.812 211.4 396.021 211.021C399.22 210.644 401.737 211.946 403.414 214.703C403.787 215.316 404.186 215.589 404.861 215.577C406.113 215.555 407.364 215.551 408.741 215.538C407.709 216.831 406.366 217.589 404.81 218.039C404.812 218.115 404.816 218.19 404.818 218.266C406.054 218.378 407.291 218.49 408.527 218.603C408.556 218.664 408.587 218.726 408.616 218.786C407.423 219.358 406.25 219.985 405.027 220.48C404.384 220.741 403.994 221.038 403.749 221.733C400.086 232.123 389.18 237.972 378.546 235.232C374.254 234.125 370.555 231.965 367.595 228.62C367.409 228.412 367.24 228.187 367.062 227.969Z" fill="white"/>
<path d="M396.228 117.643L357.195 130.658L370.21 169.691L409.243 156.676L396.228 117.643Z" fill="#C76323"/>
<path d="M373.511 162.957C373.386 160.506 373.244 158.237 373.17 155.965C373.146 155.227 372.914 154.71 372.381 154.174C365.118 146.867 367.352 134.363 376.689 129.928C385.272 125.851 395.093 130.075 397.869 139.038C400.144 146.383 396.051 154.736 388.84 157.504C386.379 158.449 383.857 158.804 381.23 158.538C380.773 158.492 380.218 158.646 379.823 158.892C377.757 160.176 375.73 161.518 373.511 162.957ZM375.878 158.393C377.182 157.549 378.269 156.796 379.41 156.134C379.783 155.918 380.314 155.806 380.737 155.874C382.886 156.222 384.982 156.102 387.063 155.448C394.539 153.1 398.225 144.199 394.395 137.431C391.746 132.751 387.573 130.492 382.224 131.012C376.735 131.544 372.946 134.633 371.266 139.874C369.624 144.998 371.024 149.462 374.984 153.131C375.33 153.451 375.579 154.007 375.636 154.482C375.783 155.721 375.799 156.974 375.878 158.393Z" fill="white"/>
<path d="M374.994 139.83C375.535 138.181 376.938 138.004 378.111 139.234C378.57 139.715 378.698 139.886 379.179 140.449C379.903 141.298 380.034 141.988 379.537 142.859C379.175 143.492 379.359 143.883 379.894 144.294C381.558 145.573 383.411 146.332 385.505 146.532C386.142 146.593 386.489 146.416 386.733 145.795C387.495 143.858 387.519 143.867 389.59 144.113C389.829 144.141 390.067 144.172 390.305 144.202C391.9 144.403 392.52 145.57 391.764 147.032C390.993 148.525 389.694 149.24 388.052 149.361C383.864 149.669 380.288 148.161 377.067 145.623C376.086 144.85 375.248 143.962 374.879 142.724C374.629 141.547 374.7 140.728 374.994 139.83Z" fill="white"/>
</svg>
