<svg width="500" height="500" viewBox="0 0 500 500" fill="none" xmlns="http://www.w3.org/2000/svg">
<path d="M458.24 306.199H309.547V87.9424H458.24V306.199ZM313.547 302.199H454.24V91.9424H313.547V302.199Z" fill="white" fill-opacity="0.3"/>
<path d="M385.836 92.9873H381.836V304.199H385.836V92.9873Z" fill="white" fill-opacity="0.3"/>
<path d="M461.86 96.0283H305.914V101.598H461.86V96.0283Z" fill="white" fill-opacity="0.3"/>
<path d="M461.86 102.295H305.914V107.865H461.86V102.295Z" fill="white" fill-opacity="0.3"/>
<path d="M461.86 108.562H305.914V114.132H461.86V108.562Z" fill="white" fill-opacity="0.3"/>
<path d="M461.86 114.827H305.914V120.397H461.86V114.827Z" fill="white" fill-opacity="0.3"/>
<path d="M461.86 121.095H305.914V126.665H461.86V121.095Z" fill="white" fill-opacity="0.3"/>
<path d="M461.86 127.36H305.914V132.93H461.86V127.36Z" fill="white" fill-opacity="0.3"/>
<path d="M461.86 133.626H305.914V139.196H461.86V133.626Z" fill="white" fill-opacity="0.3"/>
<path d="M461.86 139.894H305.914V145.464H461.86V139.894Z" fill="white" fill-opacity="0.3"/>
<path d="M461.86 146.159H305.914V151.729H461.86V146.159Z" fill="white" fill-opacity="0.3"/>
<path d="M449.984 94.8994H448.984V223.286H449.984V94.8994Z" fill="#263238"/>
<path d="M451.262 227.945H447.711L448.601 222.845H450.371L451.262 227.945Z" fill="#263238"/>
<path d="M453.586 94.8994H452.586V270.631H453.586V94.8994Z" fill="#263238"/>
<path d="M454.863 274.38H451.312L452.203 269.28H453.973L454.863 274.38Z" fill="#263238"/>
<path d="M468.072 87.1611H299.711V98.8141H468.072V87.1611Z" fill="#DBDBDB"/>
<path d="M65.9866 201.547C65.9866 200.711 66.0976 198.482 66.0976 197.534C66.0976 193.465 64.6486 191.625 60.8586 191.514C59.0746 191.403 58.0156 190.344 58.0156 188.839C58.0156 187.333 59.0746 186.275 60.8586 186.163C64.6486 185.996 66.0976 184.212 66.0976 180.087C66.0976 179.14 65.9866 176.91 65.9866 176.074C65.9866 170.667 68.2716 167.211 76.9116 165.316C78.6396 164.925 79.9766 165.985 79.9766 167.601C79.9766 168.939 79.0846 169.664 78.4156 169.886C73.0096 171.558 72.2276 173.286 72.2276 177.076C72.2276 178.191 72.3396 180.03 72.3396 181.201C72.3396 185.549 70.2216 187.667 66.5416 188.838C70.2766 190.064 72.3396 192.126 72.3396 196.474C72.3396 197.645 72.2276 199.484 72.2276 200.599C72.2276 204.389 73.0086 206.118 78.4156 207.79C79.0846 208.013 79.9766 208.737 79.9766 210.075C79.9766 211.692 78.6386 212.751 76.9116 212.361C68.2716 210.466 65.9866 207.01 65.9866 201.547Z" fill="white" fill-opacity="0.3"/>
<path d="M98.6462 176.074C98.6462 176.91 98.5352 179.139 98.5352 180.087C98.5352 184.212 100.04 185.996 103.831 186.163C105.559 186.274 106.618 187.333 106.618 188.839C106.618 190.344 105.558 191.403 103.831 191.514C100.04 191.625 98.5352 193.465 98.5352 197.534C98.5352 198.481 98.6462 200.711 98.6462 201.547C98.6462 207.01 96.3612 210.466 87.7212 212.361C85.9932 212.751 84.6562 211.692 84.6562 210.075C84.6562 208.737 85.5482 208.012 86.2722 207.79C91.6242 206.118 92.4043 204.39 92.4043 200.599C92.4043 199.484 92.2933 197.645 92.2933 196.474C92.2933 192.126 94.4112 190.008 98.0902 188.838C94.3552 187.611 92.2933 185.549 92.2933 181.201C92.2933 180.03 92.4043 178.191 92.4043 177.076C92.4043 173.286 91.6242 171.557 86.2722 169.886C85.5472 169.663 84.6562 168.939 84.6562 167.601C84.6562 165.985 85.9942 164.925 87.7212 165.316C96.3612 167.211 98.6462 170.667 98.6462 176.074Z" fill="white" fill-opacity="0.3"/>
<path d="M213.587 123.747C214.883 125.096 214.883 127.119 213.587 128.417C212.912 129.039 212.134 129.351 211.304 129.351C210.422 129.351 209.591 129.04 208.917 128.417L194.338 113.63C194.182 113.578 194.131 113.474 194.078 113.319C194.027 113.267 193.922 113.215 193.922 113.215C193.819 113.059 193.819 112.956 193.766 112.8C193.663 112.748 193.61 112.644 193.61 112.592C193.559 112.488 193.559 112.332 193.507 112.281C193.507 112.125 193.403 112.073 193.403 112.021C193.403 111.865 193.403 111.762 193.403 111.658C193.403 111.554 193.352 111.502 193.352 111.346C193.352 111.295 193.403 111.139 193.403 111.087C193.403 110.983 193.403 110.828 193.403 110.724C193.403 110.62 193.507 110.568 193.507 110.516C193.558 110.36 193.558 110.257 193.61 110.101C193.61 110.049 193.663 110.049 193.663 109.997C193.766 109.841 193.819 109.634 193.921 109.53C193.921 109.53 193.921 109.426 194.025 109.426C194.076 109.322 194.181 109.167 194.336 109.063L208.915 94.2765C210.211 93.0315 212.338 93.0315 213.584 94.2765C214.88 95.5735 214.88 97.6495 213.584 98.9455L201.287 111.346L213.587 123.747Z" fill="white" fill-opacity="0.3"/>
<path d="M226.817 125.407L239.528 95.1593C240.152 93.7073 241.812 93.0323 243.317 93.6543C244.717 94.2253 245.391 95.9373 244.769 97.3383L232.058 127.638C231.591 128.727 230.502 129.35 229.411 129.35C229.1 129.35 228.686 129.299 228.375 129.143C226.869 128.571 226.194 126.86 226.817 125.407Z" fill="white" fill-opacity="0.3"/>
<path d="M269.876 113.214C269.876 113.214 269.876 113.266 269.825 113.266C269.721 113.369 269.618 113.525 269.462 113.629L254.883 128.416C254.261 129.038 253.378 129.35 252.549 129.35C251.667 129.35 250.889 129.039 250.214 128.416C248.918 127.118 248.918 125.096 250.214 123.746L262.511 111.345L250.214 98.9445C248.918 97.6475 248.918 95.5715 250.214 94.2755C251.459 93.0305 253.587 93.0305 254.883 94.2755L269.462 109.062C269.618 109.166 269.72 109.322 269.825 109.425C269.876 109.425 269.876 109.529 269.876 109.529C269.98 109.737 270.084 109.841 270.136 109.996C270.136 110.047 270.189 110.047 270.189 110.1C270.241 110.256 270.241 110.359 270.345 110.567C270.345 110.619 270.396 110.619 270.396 110.723C270.396 110.827 270.396 110.983 270.396 111.086C270.396 111.138 270.447 111.294 270.447 111.345C270.447 111.397 270.396 111.553 270.396 111.605C270.396 111.761 270.396 111.864 270.396 112.02C270.396 112.072 270.345 112.072 270.345 112.124C270.241 112.331 270.241 112.487 270.189 112.591C270.189 112.643 270.136 112.643 270.136 112.747C270.085 112.851 269.981 113.007 269.876 113.214Z" fill="white" fill-opacity="0.3"/>
<path d="M40.7422 437.231L93.0572 436.987L145.371 436.899L250.001 436.732L354.631 436.898L406.945 436.986L459.26 437.231L406.945 437.475L354.631 437.563L250.001 437.729L145.371 437.562L93.0572 437.474L40.7422 437.231Z" fill="#263238"/>
<path d="M154.436 87.1611H55.0547V150.556H154.436V87.1611Z" fill="white" fill-opacity="0.2"/>
<path d="M155.067 151.184H54.4297V86.5322H155.067V151.184ZM55.6857 149.928H153.811V87.7892H55.6857V149.928Z" fill="white"/>
<path d="M154.436 87.1611H55.0547V99.1501H154.436V87.1611Z" fill="#C76323"/>
<path d="M155.067 99.7782H54.4297V86.5322H155.067V99.7782ZM55.6857 98.5212H153.811V87.7892H55.6857V98.5212Z" fill="white"/>
<path d="M66.3152 93.2426C66.3152 94.9086 64.9642 96.2596 63.2982 96.2596C61.6312 96.2596 60.2812 94.9086 60.2812 93.2426C60.2812 91.5766 61.6322 90.2256 63.2982 90.2256C64.9652 90.2256 66.3152 91.5766 66.3152 93.2426Z" fill="#A6A6A6"/>
<path d="M78.6356 93.2426C78.6356 94.9086 77.2846 96.2596 75.6186 96.2596C73.9526 96.2596 72.6016 94.9086 72.6016 93.2426C72.6016 91.5766 73.9526 90.2256 75.6186 90.2256C77.2846 90.2256 78.6356 91.5766 78.6356 93.2426Z" fill="white" fill-opacity="0.3"/>
<path d="M90.9559 93.2426C90.9559 94.9086 89.6049 96.2596 87.9389 96.2596C86.2729 96.2596 84.9219 94.9086 84.9219 93.2426C84.9219 91.5766 86.2729 90.2256 87.9389 90.2256C89.6049 90.2256 90.9559 91.5766 90.9559 93.2426Z" fill="white"/>
<path d="M72.2109 122.854C72.2439 116.243 77.7879 110.867 84.4649 110.834C87.4039 110.834 90.0749 111.802 92.1789 113.438C92.9799 114.106 93.1139 115.274 92.5129 116.109C91.8459 116.944 90.6099 117.078 89.8419 116.476C88.3719 115.274 86.5359 114.64 84.4649 114.64C82.1609 114.64 80.0239 115.575 78.4549 117.044C76.9519 118.58 76.0169 120.584 76.0169 122.854C76.0169 125.125 76.9519 127.195 78.4549 128.665C80.0239 130.134 82.1609 131.069 84.4649 131.069C86.5359 131.069 88.3389 130.435 89.8419 129.233C90.6099 128.666 91.8449 128.799 92.5129 129.6C93.1139 130.435 92.9799 131.637 92.1789 132.271C90.0749 133.907 87.4039 134.875 84.4649 134.875C77.7879 134.875 72.2449 129.5 72.2109 122.854Z" fill="white"/>
<path d="M98.2554 129.065C98.8564 128.33 99.9584 128.23 100.693 128.831C102.162 130.033 104.7 131.435 107.07 131.402C108.74 131.402 110.242 130.902 111.245 130.167C112.246 129.433 112.68 128.598 112.68 127.763C112.68 127.329 112.581 127.028 112.38 126.695C112.18 126.361 111.879 126.027 111.379 125.693C110.41 125.058 108.775 124.491 106.804 124.123H106.737C105.168 123.822 103.698 123.422 102.43 122.821C101.162 122.22 100.059 121.385 99.3254 120.217C98.8234 119.415 98.5574 118.481 98.5574 117.479C98.5574 115.476 99.6924 113.739 101.228 112.604C102.797 111.469 104.835 110.834 107.005 110.834C110.211 110.834 112.582 112.404 114.285 113.505C115.053 114.039 115.286 115.108 114.752 115.876C114.25 116.678 113.182 116.911 112.381 116.377C110.678 115.242 109.042 114.24 107.005 114.24C105.502 114.24 104.166 114.707 103.265 115.375C102.365 116.043 101.997 116.778 101.997 117.479C101.997 117.88 102.064 118.147 102.231 118.414C102.398 118.682 102.698 118.982 103.133 119.283C104 119.884 105.503 120.418 107.306 120.752H107.372C109.076 121.086 110.645 121.52 111.981 122.154C113.35 122.822 114.551 123.69 115.319 124.926C115.821 125.727 116.121 126.729 116.121 127.764C116.121 129.901 114.919 131.738 113.249 132.94C111.612 134.142 109.442 134.843 107.071 134.843C103.466 134.809 100.427 133.007 98.5233 131.504C97.7873 130.902 97.6874 129.8 98.2554 129.065Z" fill="white"/>
<path d="M120.193 129.065C120.794 128.33 121.896 128.23 122.631 128.831C124.099 130.033 126.638 131.435 129.008 131.402C130.678 131.402 132.18 130.902 133.183 130.167C134.184 129.433 134.618 128.598 134.618 127.763C134.618 127.329 134.519 127.028 134.318 126.695C134.118 126.361 133.817 126.027 133.317 125.693C132.348 125.058 130.713 124.491 128.742 124.123H128.674C127.105 123.822 125.635 123.422 124.367 122.821C123.098 122.22 121.996 121.385 121.262 120.217C120.76 119.415 120.494 118.481 120.494 117.479C120.494 115.476 121.629 113.739 123.165 112.604C124.734 111.469 126.772 110.834 128.942 110.834C132.147 110.834 134.519 112.404 136.222 113.505C136.99 114.039 137.223 115.108 136.689 115.876C136.187 116.678 135.119 116.911 134.318 116.377C132.615 115.242 130.979 114.24 128.942 114.24C127.439 114.24 126.103 114.707 125.202 115.375C124.302 116.043 123.934 116.778 123.934 117.479C123.934 117.88 124.002 118.147 124.168 118.414C124.335 118.682 124.635 118.982 125.07 119.283C125.937 119.884 127.44 120.418 129.243 120.752H129.309C131.013 121.086 132.582 121.52 133.918 122.154C135.287 122.822 136.488 123.69 137.256 124.926C137.758 125.727 138.058 126.729 138.058 127.764C138.058 129.901 136.856 131.738 135.186 132.94C133.549 134.142 131.379 134.843 129.008 134.843C125.403 134.809 122.364 133.007 120.46 131.504C119.725 130.902 119.624 129.8 120.193 129.065Z" fill="white"/>
<path d="M318.584 268.543H219.203V331.938H318.584V268.543Z" fill="white" fill-opacity="0.2"/>
<path d="M319.214 332.566H218.578V267.915H319.214V332.566ZM219.834 331.309H317.958V269.171H219.834V331.309Z" fill="white"/>
<path d="M318.584 268.543H219.203V280.532H318.584V268.543Z" fill="#C76323"/>
<path d="M319.214 281.159H218.578V267.914H319.214V281.159ZM219.834 279.903H317.958V269.171H219.834V279.903Z" fill="white"/>
<path d="M230.457 274.624C230.457 276.29 229.106 277.641 227.439 277.641C225.772 277.641 224.422 276.29 224.422 274.624C224.422 272.957 225.773 271.607 227.439 271.607C229.106 271.607 230.457 272.958 230.457 274.624Z" fill="#A6A6A6"/>
<path d="M242.776 274.624C242.776 276.29 241.425 277.641 239.759 277.641C238.093 277.641 236.742 276.29 236.742 274.624C236.742 272.957 238.093 271.607 239.759 271.607C241.425 271.607 242.776 272.958 242.776 274.624Z" fill="white"/>
<path d="M255.098 274.624C255.098 276.29 253.747 277.641 252.08 277.641C250.414 277.641 249.062 276.29 249.062 274.624C249.062 272.957 250.413 271.607 252.08 271.607C253.747 271.607 255.098 272.958 255.098 274.624Z" fill="white" fill-opacity="0.2"/>
<path d="M237.758 304.237C237.791 297.626 243.334 292.25 250.012 292.217C252.95 292.217 255.622 293.186 257.726 294.821C258.527 295.489 258.661 296.658 258.06 297.492C257.391 298.327 256.156 298.461 255.388 297.859C253.92 296.657 252.083 296.022 250.012 296.022C247.708 296.022 245.571 296.957 244.002 298.426C242.499 299.962 241.564 301.966 241.564 304.236C241.564 306.507 242.499 308.577 244.002 310.047C245.571 311.516 247.708 312.451 250.012 312.451C252.083 312.451 253.885 311.817 255.388 310.614C256.156 310.047 257.391 310.18 258.06 310.981C258.661 311.816 258.527 313.018 257.726 313.652C255.622 315.288 252.95 316.256 250.012 316.256C243.333 316.258 237.791 310.882 237.758 304.237Z" fill="white"/>
<path d="M269.78 306.341H265.039C264.038 306.341 263.203 305.54 263.203 304.505C263.203 303.503 264.038 302.669 265.039 302.669H269.78V298.028C269.78 296.959 270.615 296.125 271.684 296.125C272.719 296.125 273.587 296.96 273.587 298.028V302.669H278.328C279.33 302.669 280.164 303.504 280.164 304.505C280.164 305.54 279.33 306.341 278.328 306.341H273.587V310.983C273.587 312.051 272.72 312.886 271.684 312.886C270.615 312.886 269.78 312.051 269.78 310.983V306.341Z" fill="white"/>
<path d="M290.475 306.341H285.734C284.732 306.341 283.898 305.54 283.898 304.505C283.898 303.503 284.732 302.669 285.734 302.669H290.475V298.028C290.475 296.959 291.309 296.125 292.378 296.125C293.413 296.125 294.282 296.96 294.282 298.028V302.669H299.023C300.024 302.669 300.859 303.504 300.859 304.505C300.859 305.54 300.024 306.341 299.023 306.341H294.282V310.983C294.282 312.051 293.413 312.886 292.378 312.886C291.31 312.886 290.475 312.051 290.475 310.983V306.341Z" fill="white"/>
<path d="M272.231 146.734H106.492V282.847H272.231V146.734Z" fill="white"/>
<path d="M272.862 283.476H105.867V146.106H272.862V283.476ZM107.123 282.219H271.606V147.363H107.123V282.219Z" fill="white" fill-opacity="0.3"/>
<path d="M272.231 146.734H106.492V158.723H272.231V146.734Z" fill="#C76323"/>
<path d="M272.862 159.351H105.867V146.106H272.862V159.351ZM107.123 158.095H271.606V147.363H107.123V158.095Z" fill="white" fill-opacity="0.3"/>
<path d="M117.746 152.817C117.746 154.484 116.395 155.834 114.728 155.834C113.062 155.834 111.711 154.483 111.711 152.817C111.711 151.151 113.062 149.8 114.728 149.8C116.395 149.799 117.746 151.15 117.746 152.817Z" fill="#A6A6A6"/>
<path d="M130.065 152.817C130.065 154.484 128.714 155.834 127.048 155.834C125.382 155.834 124.031 154.483 124.031 152.817C124.031 151.151 125.382 149.8 127.048 149.8C128.714 149.799 130.065 151.15 130.065 152.817Z" fill="white" fill-opacity="0.3"/>
<path d="M142.387 152.817C142.387 154.484 141.036 155.834 139.369 155.834C137.703 155.834 136.352 154.483 136.352 152.817C136.352 151.151 137.703 149.8 139.369 149.8C141.036 149.799 142.387 151.15 142.387 152.817Z" fill="white"/>
<path d="M125.769 182.573H119.359V184.914H125.769V182.573Z" fill="white" fill-opacity="0.3"/>
<path d="M203.962 182.573H130.438V184.914H203.962V182.573Z" fill="white" fill-opacity="0.3"/>
<path d="M220.081 182.573H207.906V184.914H220.081V182.573Z" fill="#C76323"/>
<path d="M247.925 213.903H235.75V216.244H247.925V213.903Z" fill="white" fill-opacity="0.3"/>
<path d="M243.774 182.573H222.727V184.914H243.774V182.573Z" fill="#A6A6A6"/>
<path d="M132.176 188.839H125.766V191.18H132.176V188.839Z" fill="white" fill-opacity="0.3"/>
<path d="M184.939 188.839H136.688V191.18H184.939V188.839Z" fill="#A6A6A6"/>
<path d="M232.861 213.903H204.609V216.244H232.861V213.903Z" fill="#A6A6A6"/>
<path d="M176.525 207.637H130.438V209.978H176.525V207.637Z" fill="#A6A6A6"/>
<path d="M169.02 195.105H136.688V197.446H169.02V195.105Z" fill="#C76323"/>
<path d="M228.379 201.371H216.047V203.712H228.379V201.371Z" fill="#A6A6A6"/>
<path d="M224.241 195.105H172.609V197.446H224.241V195.105Z" fill="#A6A6A6"/>
<path d="M192.069 213.903H130.438V216.244H192.069V213.903Z" fill="#C76323"/>
<path d="M254.768 188.839H221.367V191.18H254.768V188.839Z" fill="#C76323"/>
<path d="M218.72 188.839H187.969V191.18H218.72V188.839Z" fill="white" fill-opacity="0.3"/>
<path d="M247.423 195.105H226.672V197.446H247.423V195.105Z" fill="white" fill-opacity="0.3"/>
<path d="M132.176 195.105H125.766V197.446H132.176V195.105Z" fill="white" fill-opacity="0.3"/>
<path d="M125.769 201.371H119.359V203.712H125.769V201.371Z" fill="#A6A6A6"/>
<path d="M168.319 201.371H130.438V203.712H168.319V201.371Z" fill="white" fill-opacity="0.3"/>
<path d="M174.57 220.169H136.688V222.51H174.57V220.169Z" fill="white" fill-opacity="0.3"/>
<path d="M236.127 226.435H207.328V228.776H236.127V226.435Z" fill="#C76323"/>
<path d="M215.636 220.169H177.648V222.51H215.636V220.169Z" fill="#C76323"/>
<path d="M204.012 226.435H170.945V228.776H204.012V226.435Z" fill="white" fill-opacity="0.3"/>
<path d="M147.656 226.435H136.688V228.776H147.656V226.435Z" fill="#A6A6A6"/>
<path d="M220.076 207.637H179.133V209.978H220.076V207.637Z" fill="white" fill-opacity="0.3"/>
<path d="M248.778 207.637H222.727V209.978H248.778V207.637Z" fill="#C76323"/>
<path d="M213.065 201.371H172.172V203.712H213.065V201.371Z" fill="#C76323"/>
<path d="M125.769 207.637H119.359V209.978H125.769V207.637Z" fill="white" fill-opacity="0.3"/>
<path d="M125.769 213.903H119.359V216.244H125.769V213.903Z" fill="white" fill-opacity="0.3"/>
<path d="M132.176 220.169H125.766V222.51H132.176V220.169Z" fill="#A6A6A6"/>
<path d="M132.176 226.435H125.766V228.776H132.176V226.435Z" fill="white" fill-opacity="0.3"/>
<path d="M125.769 231.683H119.359V234.024H125.769V231.683Z" fill="white" fill-opacity="0.3"/>
<path d="M203.962 231.683H130.438V234.024H203.962V231.683Z" fill="white" fill-opacity="0.3"/>
<path d="M132.176 237.949H125.766V240.29H132.176V237.949Z" fill="white" fill-opacity="0.3"/>
<path d="M184.939 237.949H136.688V240.29H184.939V237.949Z" fill="#A6A6A6"/>
<path d="M176.525 256.748H130.438V259.089H176.525V256.748Z" fill="#A6A6A6"/>
<path d="M169.02 244.215H136.688V246.556H169.02V244.215Z" fill="#C76323"/>
<path d="M224.241 244.215H172.609V246.556H224.241V244.215Z" fill="#A6A6A6"/>
<path d="M192.069 263.014H130.438V265.355H192.069V263.014Z" fill="#C76323"/>
<path d="M254.768 237.949H221.367V240.29H254.768V237.949Z" fill="#C76323"/>
<path d="M218.72 237.949H187.969V240.29H218.72V237.949Z" fill="white" fill-opacity="0.3"/>
<path d="M247.423 244.215H226.672V246.556H247.423V244.215Z" fill="white" fill-opacity="0.3"/>
<path d="M132.176 244.215H125.766V246.556H132.176V244.215Z" fill="white" fill-opacity="0.3"/>
<path d="M125.769 250.482H119.359V252.823H125.769V250.482Z" fill="#A6A6A6"/>
<path d="M168.319 250.482H130.438V252.823H168.319V250.482Z" fill="white" fill-opacity="0.3"/>
<path d="M220.076 256.748H179.133V259.089H220.076V256.748Z" fill="white" fill-opacity="0.3"/>
<path d="M213.065 250.482H172.172V252.823H213.065V250.482Z" fill="#C76323"/>
<path d="M125.769 256.748H119.359V259.089H125.769V256.748Z" fill="white" fill-opacity="0.3"/>
<path d="M123.322 176.407C123.543 176.636 123.543 176.979 123.322 177.199C123.208 177.304 123.077 177.357 122.936 177.357C122.786 177.357 122.645 177.304 122.531 177.199L120.059 174.692C120.032 174.683 120.023 174.666 120.015 174.639C120.006 174.63 119.988 174.621 119.988 174.621C119.971 174.595 119.971 174.577 119.962 174.551C119.944 174.542 119.935 174.525 119.935 174.516C119.926 174.498 119.926 174.472 119.918 174.463C119.918 174.437 119.899 174.428 119.899 174.419C119.899 174.393 119.899 174.375 119.899 174.358C119.899 174.34 119.891 174.332 119.891 174.305C119.891 174.296 119.899 174.269 119.899 174.261C119.899 174.243 119.899 174.217 119.899 174.2C119.899 174.182 119.918 174.174 119.918 174.164C119.926 174.138 119.926 174.12 119.935 174.093C119.935 174.084 119.944 174.084 119.944 174.076C119.962 174.05 119.971 174.014 119.988 173.997C119.988 173.997 119.988 173.979 120.006 173.979C120.015 173.961 120.032 173.935 120.059 173.918L122.531 171.411C122.751 171.199 123.111 171.199 123.322 171.411C123.543 171.631 123.543 171.983 123.322 172.203L121.238 174.306L123.322 176.407Z" fill="#C76323"/>
<path d="M125.563 176.688L127.719 171.558C127.824 171.312 128.105 171.197 128.361 171.303C128.599 171.399 128.713 171.69 128.608 171.927L126.453 177.065C126.373 177.25 126.189 177.355 126.004 177.355C125.951 177.355 125.881 177.346 125.829 177.32C125.571 177.225 125.457 176.935 125.563 176.688Z" fill="#C76323"/>
<path d="M132.86 174.62C132.86 174.62 132.86 174.629 132.851 174.629C132.833 174.647 132.815 174.673 132.788 174.691L130.316 177.198C130.211 177.303 130.061 177.356 129.92 177.356C129.77 177.356 129.639 177.303 129.525 177.198C129.304 176.978 129.304 176.635 129.525 176.406L131.609 174.303L129.525 172.2C129.304 171.98 129.304 171.628 129.525 171.408C129.736 171.196 130.097 171.196 130.316 171.408L132.788 173.915C132.815 173.932 132.832 173.959 132.851 173.976C132.86 173.976 132.86 173.994 132.86 173.994C132.877 174.029 132.894 174.047 132.904 174.073C132.904 174.082 132.912 174.082 132.912 174.09C132.921 174.117 132.921 174.134 132.938 174.17C132.938 174.178 132.946 174.178 132.946 174.196C132.946 174.213 132.946 174.239 132.946 174.257C132.946 174.265 132.956 174.292 132.956 174.301C132.956 174.31 132.946 174.336 132.946 174.345C132.946 174.371 132.946 174.389 132.946 174.416C132.946 174.425 132.938 174.425 132.938 174.434C132.921 174.469 132.921 174.495 132.912 174.513C132.912 174.522 132.904 174.522 132.904 174.539C132.894 174.559 132.877 174.586 132.86 174.62Z" fill="#C76323"/>
<path d="M291.133 127.646H223.43V152.711H291.133V127.646Z" fill="#455A64"/>
<path d="M233.203 145.38V134.263C233.203 133.679 233.656 133.227 234.24 133.227C234.824 133.227 235.295 133.679 235.295 134.263V138.785H240.175V134.263C240.175 133.679 240.628 133.227 241.212 133.227C241.796 133.227 242.267 133.679 242.267 134.263V145.38C242.267 145.965 241.796 146.417 241.212 146.417C240.628 146.417 240.175 145.965 240.175 145.38V140.858H235.295V145.38C235.295 145.965 234.824 146.417 234.24 146.417C233.655 146.417 233.203 145.965 233.203 145.38Z" fill="white"/>
<path d="M254.629 135.319H251.633V145.38C251.633 145.965 251.18 146.417 250.596 146.417C250.03 146.417 249.561 145.965 249.561 145.38V135.319H246.584C246 135.319 245.547 134.829 245.547 134.263C245.547 133.679 246 133.227 246.584 133.227H254.629C255.195 133.227 255.666 133.679 255.666 134.263C255.665 134.829 255.194 135.319 254.629 135.319Z" fill="white"/>
<path d="M270.118 134.263V145.38C270.118 145.946 269.627 146.417 269.063 146.417C268.478 146.417 268.026 145.946 268.026 145.38V137.448L265.312 141.217C265.105 141.499 264.803 141.65 264.464 141.65H264.446H264.426C264.087 141.65 263.767 141.499 263.56 141.217L260.865 137.448V145.38C260.865 145.946 260.394 146.417 259.81 146.417C259.244 146.417 258.773 145.946 258.773 145.38V134.263C258.773 133.698 259.244 133.227 259.81 133.227C259.83 133.227 259.83 133.227 259.866 133.227C260.168 133.227 260.506 133.378 260.695 133.66L264.445 138.861L268.194 133.66C268.401 133.378 268.703 133.227 269.042 133.227C269.042 133.227 269.042 133.227 269.062 133.227C269.627 133.246 270.118 133.698 270.118 134.263Z" fill="white"/>
<path d="M274.68 145.38V134.263C274.68 133.698 275.133 133.227 275.716 133.227C276.3 133.227 276.771 133.698 276.771 134.263V144.325H281.878C282.424 144.325 282.913 144.796 282.913 145.38C282.913 145.946 282.424 146.417 281.878 146.417H275.773C275.736 146.417 275.736 146.417 275.736 146.417C275.716 146.417 275.716 146.417 275.716 146.417C275.132 146.417 274.68 145.946 274.68 145.38Z" fill="white"/>
<path d="M110.223 223.415H54.4297V248.48H110.223V223.415Z" fill="#455A64"/>
<path d="M71.0262 237.06H68.7102V241.148C68.7102 241.714 68.2392 242.185 67.6552 242.185C67.0882 242.185 66.6172 241.714 66.6172 241.148V230.031C66.6172 229.447 67.0882 228.995 67.6552 228.995H67.6752H71.0262C73.2692 228.995 75.0792 230.804 75.0792 233.046C75.0802 235.251 73.2692 237.06 71.0262 237.06ZM68.7102 234.968H71.0262C72.1202 234.968 72.9672 234.101 72.9862 233.046C72.9662 231.954 72.1202 231.087 71.0262 231.087H68.7102V234.968Z" fill="white"/>
<path d="M77.6016 241.148V230.031C77.6016 229.447 78.0526 228.995 78.6366 228.995C79.2206 228.995 79.6916 229.447 79.6916 230.031V234.553H84.5716V230.031C84.5716 229.447 85.0256 228.995 85.6096 228.995C86.1936 228.995 86.6646 229.447 86.6646 230.031V241.148C86.6646 241.733 86.1936 242.185 85.6096 242.185C85.0256 242.185 84.5716 241.733 84.5716 241.148V236.626H79.6916V241.148C79.6916 241.733 79.2206 242.185 78.6366 242.185C78.0536 242.185 77.6016 241.733 77.6016 241.148Z" fill="white"/>
<path d="M95.3699 237.06H93.0509V241.148C93.0509 241.714 92.5799 242.185 91.9959 242.185C91.4319 242.185 90.9609 241.714 90.9609 241.148V230.031C90.9609 229.447 91.4319 228.995 91.9959 228.995H92.0159H95.3699C97.6119 228.995 99.4209 230.804 99.4209 233.046C99.4199 235.251 97.6119 237.06 95.3699 237.06ZM93.0509 234.968H95.3699C96.4619 234.968 97.3109 234.101 97.3299 233.046C97.3099 231.954 96.4609 231.087 95.3699 231.087H93.0509V234.968Z" fill="white"/>
<path d="M274.667 221.783L278.901 232.005L274.673 233.755L270.417 223.463L263.43 228.884V200.087L283.588 220.452L274.667 221.783Z" fill="#263238"/>
<path d="M263.428 196.947C263.226 196.464 263.181 195.982 263.172 195.499C263.18 195.016 263.225 194.534 263.428 194.051C263.631 194.534 263.676 195.016 263.684 195.499C263.675 195.982 263.63 196.465 263.428 196.947Z" fill="#263238"/>
<path d="M260.939 197.98C260.455 197.781 260.082 197.472 259.734 197.137C259.398 196.79 259.089 196.417 258.891 195.932C259.376 196.13 259.749 196.439 260.096 196.775C260.431 197.123 260.74 197.496 260.939 197.98Z" fill="#263238"/>
<path d="M259.904 200.474C259.422 200.676 258.939 200.721 258.456 200.73C257.973 200.723 257.491 200.677 257.008 200.474C257.49 200.271 257.973 200.226 258.456 200.218C258.939 200.227 259.421 200.272 259.904 200.474Z" fill="#263238"/>
<path d="M260.939 202.968C260.74 203.452 260.431 203.825 260.096 204.173C259.749 204.509 259.376 204.818 258.891 205.016C259.089 204.531 259.398 204.158 259.734 203.811C260.082 203.475 260.455 203.166 260.939 202.968Z" fill="#263238"/>
<path d="M266.953 200.474C267.436 200.272 267.918 200.227 268.401 200.218C268.884 200.226 269.366 200.271 269.849 200.474C269.366 200.677 268.884 200.723 268.401 200.73C267.919 200.721 267.436 200.676 266.953 200.474Z" fill="#263238"/>
<path d="M265.922 197.98C266.121 197.496 266.43 197.123 266.765 196.775C267.112 196.439 267.485 196.13 267.97 195.932C267.772 196.417 267.463 196.79 267.127 197.137C266.78 197.473 266.406 197.782 265.922 197.98Z" fill="#263238"/>
</svg>
