<svg width="500" height="500" viewBox="0 0 500 500" fill="none" xmlns="http://www.w3.org/2000/svg">
<path d="M241.473 440.665H248.656V435.975H241.473V440.665Z" fill="#455A64"/>
<path d="M232.161 440.355H239.344V435.665H232.161V440.355Z" fill="#455A64"/>
<path d="M222.848 440.046H230.031V435.356H222.848V440.046Z" fill="#455A64"/>
<path d="M213.528 439.735H220.711V435.045H213.528V439.735Z" fill="#455A64"/>
<path d="M204.215 439.425H211.398V434.735H204.215V439.425Z" fill="#455A64"/>
<path d="M194.903 439.115H202.086V434.425H194.903V439.115Z" fill="#455A64"/>
<path d="M185.59 438.806H192.773V434.116H185.59V438.806Z" fill="#455A64"/>
<path d="M176.27 438.495H183.453V433.805H176.27V438.495Z" fill="#455A64"/>
<path d="M166.958 438.186H174.141V433.496H166.958V438.186Z" fill="#455A64"/>
<path d="M165.203 443.361H250.422V437.655L165.203 435.279V443.361Z" fill="#37474F"/>
<path d="M82.0214 420.859H222.706L200.332 316.123H59.6484L82.0214 420.859Z" fill="#455A64"/>
<path d="M76.8183 420.859H217.503L195.129 316.123H54.4453L76.8183 420.859Z" fill="#37474F"/>
<path d="M123.813 362.422C124.574 367.226 129.085 371.12 133.889 371.12C138.693 371.12 141.971 367.226 141.21 362.422C140.449 357.618 135.938 353.724 131.134 353.724C126.33 353.724 123.052 357.618 123.813 362.422Z" fill="#263238"/>
<path d="M116.609 448.213H185.802V442.84L116.609 440.602V448.213Z" fill="#455A64"/>
<path d="M97.7969 448.205H134.947L157.32 389.517H120.17L97.7969 448.205Z" fill="#455A64"/>
<path d="M91.6797 448.205H128.83L151.203 389.517H114.054L91.6797 448.205Z" fill="#263238"/>
<path d="M253.051 449.64C253.051 449.64 318.297 449.64 324.387 449.64C330.477 449.64 321.667 432.305 299.448 425.655C277.23 419.004 246.043 443.137 253.051 449.64Z" fill="#37474F"/>
<path d="M281.043 449.64C280.609 447.729 280.003 445.884 279.318 444.083C278.612 442.289 277.783 440.552 276.792 438.917C275.836 437.257 274.636 435.757 273.328 434.364L272.314 433.341L271.209 432.413C270.509 431.731 269.638 431.293 268.867 430.671C270.647 431.46 272.433 432.416 273.869 433.803C275.343 435.135 276.638 436.685 277.647 438.402C278.662 440.113 279.481 441.936 280.053 443.83C280.63 445.719 280.993 447.677 281.043 449.64Z" fill="#263238"/>
<path d="M272.588 433.146C271.612 433.671 270.632 434.173 269.677 434.724C268.709 435.247 267.75 435.785 266.807 436.348C264.926 437.478 263.054 438.617 261.287 439.896C259.504 441.151 257.817 442.534 256.313 444.091C255.567 444.874 254.885 445.719 254.322 446.642C253.731 447.55 253.298 448.56 253.047 449.64C253.073 448.526 253.425 447.431 253.892 446.408C254.39 445.395 255.032 444.46 255.737 443.583C257.166 441.838 258.899 440.384 260.708 439.083C262.531 437.794 264.451 436.658 266.443 435.676C268.433 434.693 270.47 433.806 272.588 433.146Z" fill="#263238"/>
<path d="M386.989 408.133L382.756 461.367H353.468L349.234 408.133H386.989Z" fill="#C76323"/>
<path opacity="0.1" d="M386.989 408.133L382.756 461.367H353.468L349.234 408.133H386.989Z" fill="black"/>
<path d="M389.508 403.326H346.461V411.087H389.508V403.326Z" fill="#455A64"/>
<path d="M386.561 403.326H349.414L351.585 394.607H384.39L386.561 403.326Z" fill="#37474F"/>
<path d="M378.273 435.217C378.273 442.128 373.721 447.731 368.105 447.731C362.489 447.731 357.938 442.128 357.938 435.217C357.938 428.306 362.489 422.703 368.105 422.703C373.72 422.703 378.273 428.306 378.273 435.217Z" fill="white"/>
</svg>
