<svg width="500" height="500" viewBox="0 0 500 500" fill="none" xmlns="http://www.w3.org/2000/svg">
<path d="M174.29 467.409C171.959 468.139 103.895 466.667 101.41 465.009C100.455 464.395 106.285 399.924 106.285 399.924L149.453 400.749L144.544 443.874C144.544 443.874 169.657 455.772 172.2 457.884C174.722 459.987 176.622 466.69 174.29 467.409Z" fill="#F7A9A0"/>
<path d="M174.29 467.41C171.962 468.136 103.893 466.665 101.41 465.005C101.109 464.817 101.019 458.272 102.101 449.747C114.443 451.816 158.498 458.58 161.928 456.562C164.32 455.157 162.203 452.958 160.243 451.48C165.867 454.283 171.116 456.981 172.199 457.887C174.723 459.989 176.618 466.694 174.29 467.41Z" fill="#263238"/>
<path d="M145.764 433.536L103.388 432.938C103.388 432.938 111.785 331.44 111.435 329.489C110.99 326.99 80.9219 209.097 80.9219 209.097H121.366C121.366 209.097 153.261 318.978 154.405 329.566C156.259 346.662 145.764 433.536 145.764 433.536Z" fill="#C76323"/>
<path opacity="0.6" d="M145.764 433.536L103.388 432.938C103.388 432.938 111.785 331.44 111.435 329.489C110.99 326.99 80.9219 209.097 80.9219 209.097H121.366C121.366 209.097 153.261 318.978 154.405 329.566C156.259 346.662 145.764 433.536 145.764 433.536Z" fill="black"/>
<path d="M107.19 423.37C109.694 423.19 112.225 423.22 114.734 423.187C117.247 423.154 119.761 423.146 122.274 423.171C127.3 423.221 132.323 423.296 137.347 423.438C138.721 423.477 140.096 423.519 141.469 423.582C142.94 423.65 144.404 423.901 145.87 423.956C145.985 423.96 145.98 424.133 145.866 424.134C144.633 424.145 143.397 424.329 142.161 424.365C140.881 424.402 139.6 424.411 138.319 424.411C135.806 424.411 133.293 424.403 130.78 424.382C125.757 424.34 120.728 424.272 115.708 424.065C112.872 423.948 110.007 423.913 107.183 423.628C107.017 423.611 107.025 423.382 107.19 423.37Z" fill="#263238"/>
<path d="M89.8094 218.617C93.4274 231.432 96.7364 244.36 99.9804 257.275C103.226 270.197 106.451 283.125 109.669 296.054C111.278 302.519 112.885 308.984 114.494 315.449C116.059 321.742 117.878 328.07 118.266 334.574C118.661 341.187 117.819 347.853 117.262 354.435C116.701 361.052 116.148 367.67 115.568 374.285C114.409 387.521 113.296 400.769 111.857 413.978C111.677 415.631 111.5 417.284 111.332 418.938C111.318 419.079 111.1 419.077 111.11 418.933C111.986 405.688 112.9 392.451 113.957 379.219C114.486 372.6 115.026 365.983 115.574 359.367C116.12 352.764 116.888 346.135 117.097 339.511C117.308 332.823 116.086 326.422 114.472 319.964C112.891 313.637 111.302 307.312 109.718 300.986C106.482 288.062 103.243 275.137 100.035 262.206C96.4434 247.729 92.8584 233.224 89.6894 218.648C89.6714 218.569 89.7884 218.54 89.8094 218.617Z" fill="#263238"/>
<path d="M80.9141 209.098C80.9141 209.098 93.8151 259.675 102.841 295.278L120.05 209.098H80.9141Z" fill="#263238"/>
<path d="M123.463 467.566C121.132 468.296 53.0675 466.825 50.5825 465.166C49.6265 464.552 53.9795 400.044 53.9795 400.044L95.7785 400.869L93.7165 444.031C93.7165 444.031 118.831 455.929 121.373 458.041C123.895 460.145 125.795 466.847 123.463 467.566Z" fill="#F7A9A0"/>
<path d="M123.461 467.568C121.133 468.293 53.0645 466.823 50.5825 465.163C50.2815 464.975 50.3515 458.599 50.5895 449.896C62.9315 451.965 107.67 458.738 111.1 456.719C113.492 455.313 111.375 453.115 109.415 451.637C115.039 454.44 120.287 457.138 121.371 458.045C123.894 460.147 125.789 466.852 123.461 467.568Z" fill="#263238"/>
<path d="M120.048 209.081C120.048 209.081 117.763 237.676 113.049 244.858C113.049 244.858 108.416 246.473 101.317 250.702C101.317 250.702 101.155 327.201 101.208 331.794C101.398 348.98 94.2534 432.684 94.2534 432.684L51.5234 432.278C51.5234 432.278 62.5824 286.828 65.1614 253.527C65.1614 253.527 63.2134 242.889 63.6334 237.516C64.6534 224.492 69.5674 209.096 69.5674 209.096L120.048 209.081Z" fill="#C76323"/>
<path opacity="0.6" d="M120.048 209.081C120.048 209.081 117.763 237.676 113.049 244.858C113.049 244.858 108.416 246.473 101.317 250.702C101.317 250.702 101.155 327.201 101.208 331.794C101.398 348.98 94.2534 432.684 94.2534 432.684L51.5234 432.278C51.5234 432.278 62.5824 286.828 65.1614 253.527C65.1614 253.527 63.2134 242.889 63.6334 237.516C64.6534 224.492 69.5674 209.096 69.5674 209.096L120.048 209.081Z" fill="black"/>
<path d="M105.008 236.276C105.169 235.206 105.33 234.136 105.494 233.066C105.795 231.106 106.194 229.159 106.538 227.205C107.318 222.773 108.127 218.327 109.114 213.935C109.138 213.828 109.317 213.856 109.306 213.966C109.131 215.739 108.927 217.511 108.676 219.274C108.425 221.04 108.251 222.816 108.002 224.581C107.508 228.082 107.02 231.589 106.424 235.074C106.195 236.416 105.356 238.824 107.29 239.24C108.821 239.57 109.943 238.066 110.393 236.806C110.942 235.27 111.137 233.571 111.422 231.971C111.737 230.204 112.015 228.431 112.265 226.653C112.811 222.781 113.411 218.926 114.04 215.067C114.058 214.956 114.235 214.99 114.232 215.098C114.108 219.074 113.899 223.009 113.376 226.956C113.126 228.84 112.846 230.719 112.526 232.592C112.228 234.342 112.004 236.225 111.231 237.842C110.624 239.11 109.49 240.254 108.033 240.41C108.004 240.413 107.974 240.41 107.944 240.413C107.977 240.439 108.002 240.474 108 240.524C107.979 241.151 107.991 241.787 107.925 242.411C107.859 243.03 107.736 243.649 107.619 244.26C107.5 244.877 107.351 245.51 107.14 246.102C107.038 246.388 106.932 246.674 106.8 246.948C106.661 247.235 106.468 247.458 106.301 247.726C106.233 247.835 106.102 247.767 106.095 247.661L106.085 247.662C106.094 247.558 106.095 247.457 106.097 247.356C106.096 247.338 106.1 247.32 106.099 247.302L106.1 247.3C106.104 247.118 106.108 246.936 106.136 246.751C106.181 246.449 106.249 246.151 106.314 245.853C106.445 245.258 106.608 244.663 106.768 244.074C106.928 243.484 107.055 242.888 107.207 242.297C107.364 241.687 107.564 241.093 107.705 240.478C107.711 240.45 107.731 240.437 107.747 240.42C106.611 240.434 105.461 239.83 105.049 238.729C104.748 237.93 104.885 237.095 105.008 236.276Z" fill="#263238"/>
<path d="M97.8584 251.637C99.0824 250.633 100.522 249.802 101.878 248.988C103.354 248.102 104.881 247.3 106.461 246.614C109.552 245.272 112.738 244.355 115.929 243.301C116.024 243.27 116.088 243.428 115.994 243.466C112.905 244.695 109.942 246.326 106.958 247.787C105.489 248.506 104.002 249.189 102.506 249.851C101.007 250.514 99.5144 251.287 97.9764 251.85C97.8574 251.891 97.7654 251.714 97.8584 251.637Z" fill="#263238"/>
<path d="M77.4343 227.76C79.6083 227.751 87.1293 227.212 89.3553 224.717C90.6433 223.274 91.5023 221.465 92.1373 219.7C92.8553 217.706 93.3753 215.676 93.8263 213.607C93.8483 213.505 93.9973 213.539 94.0003 213.635C94.0703 215.954 93.7383 218.316 93.1233 220.552C92.5983 222.461 91.8913 224.592 90.3493 225.929C88.7263 227.337 86.5233 227.831 84.4463 228.088C82.1013 228.378 79.7633 228.309 77.4283 227.991C77.2843 227.972 77.2823 227.761 77.4343 227.76Z" fill="#263238"/>
<path d="M125.154 228.346C124.483 228.337 122.514 226.965 122.277 226.607C120.636 224.13 120.235 216.262 120.096 214.193C120.089 214.091 120.043 214.125 120.042 214.221C120.021 216.54 120.123 218.902 120.313 221.138C120.475 223.047 120.693 225.178 121.169 226.515C121.67 227.923 124.436 228.894 125.156 228.577C125.2 228.558 125.201 228.347 125.154 228.346Z" fill="#263238"/>
<path d="M53.4089 423.998C55.9129 423.818 58.4439 423.848 60.9539 423.815C63.4679 423.782 65.9809 423.774 68.4939 423.799C73.5199 423.849 78.5429 423.924 83.5679 424.066C84.9419 424.105 86.3169 424.147 87.6899 424.21C89.1609 424.278 90.6239 424.529 92.0909 424.584C92.2059 424.588 92.2009 424.761 92.0869 424.762C90.8539 424.773 89.6179 424.957 88.3829 424.993C87.1029 425.03 85.8209 425.039 84.5409 425.039C82.0279 425.039 79.5149 425.031 77.0019 425.01C71.9789 424.968 66.9499 424.9 61.9299 424.693C59.0939 424.576 56.2289 424.541 53.4049 424.256C53.2359 424.24 53.2429 424.01 53.4089 423.998Z" fill="#263238"/>
<path d="M58.6231 418.434C58.6151 418.434 58.6061 418.434 58.5971 418.433C58.3101 418.42 58.0891 418.174 58.1021 417.888L71.4541 252.249C71.3321 251.523 68.6121 242.271 68.3701 237.545C68.1141 232.548 73.2801 213.077 73.5001 212.25C73.5751 211.971 73.8661 211.811 74.1371 211.88C74.4151 211.954 74.5811 212.239 74.5071 212.517C74.4531 212.718 69.1631 232.656 69.4111 237.491C69.6611 242.377 72.4771 252.05 72.4911 252.13C72.4981 252.168 59.1441 417.939 59.1441 417.939C59.1291 418.217 58.8991 418.434 58.6231 418.434Z" fill="#263238"/>
<path d="M101.124 164.324C109.381 186.501 120.251 208.056 124.806 210.805C131.863 215.065 165.913 215.669 176.454 213.84C179.905 213.242 177.678 189.494 174.389 187.704C171.1 185.914 135.087 187.719 132.913 186.99C131.754 186.602 119.358 170.895 110.215 160.569C101.717 150.974 98.6179 157.591 101.124 164.324Z" fill="#F7A9A0"/>
<path d="M164.554 215.851L162.138 185.786C162.138 185.786 136.338 185.767 133.169 185.503C131.829 185.391 116.39 166.024 109.218 157.848C104.501 152.471 97.2035 152.028 100.556 165.433C102.519 173.281 117.212 208.927 124.511 212.659C130.319 215.628 164.554 215.851 164.554 215.851Z" fill="#263238"/>
<path d="M156.594 214.209C156.084 212.09 155.452 203.106 155.318 200.865C155.188 198.671 154.957 189.625 154.828 187.324C154.821 187.199 154.998 187.151 155.007 187.279C155.173 189.554 156.108 198.549 156.262 200.786C156.417 203.03 156.939 211.996 156.711 214.196C156.703 214.272 156.61 214.277 156.594 214.209Z" fill="#37474F"/>
<path opacity="0.1" d="M147.854 215.481C138.784 215.101 127.765 214.321 124.512 212.654C117.212 208.928 102.515 173.278 100.556 165.436C98.4026 156.824 100.643 153.924 103.77 154.393L147.854 215.481Z" fill="#020100"/>
<path d="M120.43 197.295L122.93 213.416L67.7578 214.084C67.7578 214.084 71.4858 174.461 84.7758 158.629C91.4238 150.71 99.6648 150.901 105.145 155.971C106.532 157.254 120.822 174.454 122.854 182.358C124.631 189.335 120.43 197.295 120.43 197.295Z" fill="#616161"/>
<path d="M99.2664 196.422C102.473 196.173 105.71 196.031 108.923 196.26C110.521 196.374 112.103 196.561 113.69 196.782C114.481 196.892 115.271 196.976 116.065 197.056C116.88 197.137 117.749 197.194 118.563 197.072C118.636 197.061 118.654 197.17 118.582 197.185C117.798 197.35 117.048 197.505 116.247 197.565C115.486 197.622 114.715 197.597 113.953 197.55C112.331 197.45 110.714 197.275 109.093 197.158C105.822 196.923 102.553 196.688 99.2734 196.689C99.1224 196.69 99.1144 196.434 99.2664 196.422Z" fill="#263238"/>
<path d="M91.9688 200.639C94.5098 199.905 97.1248 199.28 99.7338 198.839C101.047 198.617 102.361 198.472 103.688 198.362C104.321 198.309 104.955 198.268 105.59 198.234C106.288 198.197 106.992 198.253 107.689 198.206C107.762 198.201 107.782 198.312 107.708 198.319C107.052 198.383 106.404 198.557 105.752 198.659C105.098 198.762 104.443 198.86 103.788 198.962C102.477 199.167 101.17 199.387 99.8578 199.58C97.2298 199.966 94.6178 200.377 92.0058 200.854C91.8628 200.88 91.8368 200.676 91.9688 200.639Z" fill="#263238"/>
<path d="M92.8549 152.928C92.8549 152.928 98.8239 183.791 99.0479 190.24C99.2719 196.689 99.1539 232.884 99.1539 232.884L60.8359 225.745C60.8359 225.745 70.1719 186.926 76.8229 170.734C83.4739 154.542 92.8549 152.928 92.8549 152.928Z" fill="#263238"/>
<path d="M93.9138 174.251L91.5568 181.727L99.1788 211.596C99.1788 202.459 99.1448 193.198 99.0438 190.235C98.8198 183.893 93.0268 153.878 92.8588 152.946L92.8478 152.923L89.1328 170.86L93.9138 174.251Z" fill="#37474F"/>
<path d="M103.078 154.271C103.078 154.271 115.93 179.381 116.24 185.105C116.551 190.828 120.968 232.884 120.968 232.884L128.993 230.769L120.434 197.295C120.434 197.295 124.466 190.315 123.296 183.682C121.901 175.773 106.9 155.508 103.078 154.271Z" fill="#263238"/>
<path d="M103.086 154.293C103.479 155.045 115.927 179.47 116.242 185.105C116.388 187.799 117.443 198.53 118.521 209.149L118.622 179.257L113.167 172.668L115.648 170.053L103.086 154.293Z" fill="#37474F"/>
<path d="M93.8406 155.703C94.1786 156.714 99.7406 162.96 104.444 162.297C105.975 162.078 105.154 153.666 105.154 153.666L105.236 153.031L106.367 144.144L95.5276 138.541L93.9686 137.811C93.9686 137.811 93.8196 140.263 93.6646 143.318C93.6566 143.46 93.6486 143.601 93.6426 143.753C93.6286 143.926 93.6146 144.089 93.6096 144.25C93.5806 144.706 93.5526 145.172 93.5346 145.636C93.5196 145.99 93.5026 146.333 93.5006 146.705C93.4886 147.078 93.4846 147.44 93.4726 147.813C93.4336 151.492 93.7026 155.273 93.8406 155.703Z" fill="#F7A9A0"/>
<path d="M93.6641 143.318C96.8061 150.012 102.605 152.318 105.236 153.032L106.367 144.145L95.5281 138.542L93.9691 137.812C93.9691 137.812 93.8191 140.263 93.6641 143.318Z" fill="#263238"/>
<path d="M115.131 127.43C119.933 142.402 111.508 146.969 108.278 148C105.346 148.937 95.2449 151.753 88.9219 137.358C82.5989 122.962 88.0419 115.997 94.6339 113.5C101.226 111.003 110.33 112.458 115.131 127.43Z" fill="#F7A9A0"/>
<path d="M112.047 126.567C111.67 126.598 111.317 126.564 110.94 126.557C110.516 126.549 110.176 126.585 109.813 126.331C109.618 126.195 109.562 125.85 109.676 125.649C109.943 125.179 110.465 125.061 110.977 125.05C111.532 125.038 111.963 125.172 112.4 125.513C112.825 125.843 112.545 126.525 112.047 126.567Z" fill="#263238"/>
<path d="M101.172 128.783C101.532 128.666 101.844 128.498 102.188 128.345C102.576 128.173 102.903 128.076 103.14 127.701C103.267 127.5 103.185 127.161 103.001 127.019C102.574 126.689 102.046 126.782 101.57 126.97C101.054 127.174 100.708 127.464 100.437 127.947C100.175 128.417 100.697 128.938 101.172 128.783Z" fill="#263238"/>
<path d="M104.094 131.339C104.077 131.3 104.022 131.408 104.034 131.452C104.308 132.508 104.444 133.765 103.561 134.336C103.534 134.354 103.549 134.406 103.583 134.393C104.721 133.961 104.524 132.296 104.094 131.339Z" fill="#263238"/>
<path d="M102.889 130.442C101.148 130.699 101.789 134.162 103.403 133.924C104.99 133.69 104.348 130.226 102.889 130.442Z" fill="#263238"/>
<path d="M102.246 130.752C101.98 131.004 101.748 131.405 101.39 131.508C100.976 131.628 100.59 131.324 100.249 131.026C100.214 130.995 100.189 131.031 100.197 131.077C100.31 131.742 100.692 132.376 101.421 132.343C102.087 132.313 102.444 131.639 102.486 130.941C102.494 130.813 102.353 130.65 102.246 130.752Z" fill="#263238"/>
<path d="M110.267 129.238C110.268 129.196 110.36 129.274 110.367 129.318C110.523 130.398 110.884 131.609 111.919 131.794C111.951 131.8 111.958 131.854 111.921 131.856C110.705 131.899 110.242 130.287 110.267 129.238Z" fill="#263238"/>
<path d="M111.027 127.946C112.732 127.508 113.481 130.95 111.902 131.355C110.348 131.754 109.598 128.313 111.027 127.946Z" fill="#263238"/>
<path d="M111.793 128.016C112.105 128.139 112.446 128.412 112.775 128.363C113.157 128.306 113.354 127.873 113.517 127.463C113.534 127.421 113.567 127.444 113.578 127.489C113.739 128.143 113.671 128.875 113.067 129.139C112.516 129.38 111.969 128.907 111.67 128.286C111.615 128.172 111.668 127.967 111.793 128.016Z" fill="#263238"/>
<path d="M106.274 139.694C106.568 139.911 106.875 140.224 107.271 140.202C107.652 140.181 108.069 139.951 108.395 139.769C108.428 139.751 108.467 139.782 108.45 139.818C108.227 140.272 107.673 140.613 107.159 140.595C106.658 140.577 106.357 140.188 106.177 139.757C106.151 139.697 106.231 139.662 106.274 139.694Z" fill="#263238"/>
<path d="M109.982 134.941C109.982 134.941 110.518 136.496 110.668 137.25C110.681 137.321 110.506 137.39 110.253 137.456C110.241 137.462 110.236 137.468 110.224 137.463C108.933 137.934 107.502 137.739 106.478 136.811C106.411 136.748 106.492 136.651 106.57 136.684C107.708 137.218 108.844 137.189 110.029 136.976C110.041 136.757 109.021 134.343 109.139 134.311C109.544 134.194 110.412 134.315 110.928 134.361C109.904 131.089 108.365 128.008 107.394 124.735C107.361 124.617 107.526 124.548 107.581 124.647C109.423 127.762 110.684 131.502 111.828 134.853C111.974 135.269 110.309 135.01 109.982 134.941Z" fill="#263238"/>
<path d="M110.119 137.192C110.119 137.192 109.65 138.356 108.751 138.967C108.42 139.193 108.041 139.347 107.6 139.345C106.696 139.343 106.473 138.572 106.455 137.867C106.438 137.288 106.569 136.751 106.569 136.751C106.569 136.751 108.106 137.585 110.119 137.192Z" fill="#263238"/>
<path d="M108.749 138.967C108.418 139.193 108.039 139.347 107.598 139.345C106.694 139.343 106.471 138.572 106.453 137.867C107.384 137.723 108.443 138.105 108.749 138.967Z" fill="#FF9ABB"/>
<path d="M89.3337 139.343C92.4167 136.927 91.7447 133.275 91.7447 133.275C95.6167 130.462 97.1767 126.593 97.3397 126.199C97.3077 126.545 97.0817 129.043 96.9267 130.313C106.422 126.201 107.762 117.914 107.762 117.914C111.709 120.391 112.819 122.298 113.518 123.216C113.518 123.216 112.205 117.115 108.149 113.754C103.185 109.638 98.1767 111.774 98.1767 111.774C98.1767 111.774 89.9497 111.235 85.4487 119.104C80.6037 127.59 89.3337 139.343 89.3337 139.343Z" fill="#263238"/>
<path d="M104.091 126.955C102.714 128.204 101.094 129.204 99.4301 129.982C99.4161 129.989 99.4071 129.967 99.4211 129.96C102.035 128.533 104.21 126.497 105.698 123.901C106.327 122.804 106.818 121.642 107.157 120.423C107.511 119.149 107.8 117.662 107.614 116.342C107.6 116.242 107.756 116.22 107.77 116.32C107.967 117.715 108.135 119.005 107.873 120.407C107.625 121.738 107.128 123.038 106.418 124.192C105.782 125.223 104.988 126.142 104.091 126.955Z" fill="#263238"/>
<path d="M90.0617 114.758C92.4717 113.405 98.9737 102.173 89.5027 95.2314C80.1747 88.3954 66.4157 99.8774 72.6137 110.318C76.7777 117.332 84.9447 117.633 90.0617 114.758Z" fill="#263238"/>
<path d="M91.6723 137.744C91.6723 137.744 87.2373 133.72 85.3373 135.407C83.4383 137.095 87.5323 143.458 90.2983 143.827C93.0633 144.196 93.4553 141.643 93.4553 141.643L91.6723 137.744Z" fill="#F7A9A0"/>
<path d="M86.5529 137.203C86.5109 137.209 86.5159 137.268 86.5549 137.274C88.5069 137.591 89.8249 139.034 90.8759 140.603C90.1939 140.063 89.3879 139.865 88.6459 140.699C88.6069 140.743 88.6679 140.806 88.7159 140.784C89.4129 140.46 89.9699 140.467 90.5979 140.941C91.0429 141.276 91.4019 141.747 91.7619 142.169C91.8819 142.31 92.1509 142.159 92.0479 141.988C92.0409 141.976 92.0319 141.963 92.0239 141.95C91.5489 139.661 89.0519 136.875 86.5529 137.203Z" fill="#263238"/>
<path d="M77.229 255.172L95.7344 277.779L205.78 187.701L187.274 165.094L77.229 255.172Z" fill="#C76323"/>
<g opacity="0.1">
<path d="M187.723 172.21C155.072 199.326 118.228 229.481 85.1875 256.122C117.838 229.004 154.684 198.853 187.723 172.21Z" fill="black"/>
<path d="M191.395 176.693C158.744 203.809 121.899 233.964 88.8594 260.605C121.509 233.487 158.356 203.335 191.395 176.693Z" fill="black"/>
<path d="M195.059 181.176C162.408 208.292 125.563 238.447 92.5234 265.088C125.173 237.97 162.02 207.818 195.059 181.176Z" fill="black"/>
<path d="M198.731 185.659C166.08 212.775 129.235 242.93 96.1953 269.571C128.845 242.453 165.693 212.301 198.731 185.659Z" fill="black"/>
</g>
<path d="M86.8195 285.527C86.8195 285.527 74.0365 298.522 63.5424 285.702C53.0484 272.881 68.3144 262.919 68.3144 262.919L86.8195 285.527Z" fill="#FF9ABB"/>
<path d="M66.665 260.641L88.2734 287.039L94.6805 281.795L73.0721 255.396L66.665 260.641Z" fill="#A6A6A6"/>
<path d="M73.7503 254.845L95.3594 281.244L101.767 275.999L80.1581 249.6L73.7503 254.845Z" fill="#A6A6A6"/>
<path d="M187.26 165.082L210.491 160.274L218.144 158.662L215.092 165.895L205.788 187.717L200.632 188.115C200.632 188.115 202.073 183.28 202.083 183.189L196.927 183.589C196.927 183.589 198.368 178.753 198.378 178.662L193.263 179.111C193.263 179.111 194.664 174.226 194.673 174.136L189.557 174.585C189.557 174.585 190.958 169.7 190.967 169.609L185.852 170.058C185.85 170.059 187.251 165.173 187.26 165.082Z" fill="#C76323"/>
<path opacity="0.8" d="M187.26 165.082L210.491 160.274L218.144 158.662L215.092 165.895L205.788 187.717L200.632 188.115C200.632 188.115 202.073 183.28 202.083 183.189L196.927 183.589C196.927 183.589 198.368 178.753 198.378 178.662L193.263 179.111C193.263 179.111 194.664 174.226 194.673 174.136L189.557 174.585C189.557 174.585 190.958 169.7 190.967 169.609L185.852 170.058C185.85 170.059 187.251 165.173 187.26 165.082Z" fill="white"/>
<path d="M210.492 160.275L218.145 158.663L215.092 165.896L210.492 160.275Z" fill="#263238"/>
<path d="M81.9644 163.719C72.6724 179.828 61.9514 207.383 64.5954 212.658C71.2174 225.872 87.3244 239.924 94.8594 244.595C99.2574 247.321 114.785 224.82 110.999 222.205C105.027 218.08 89.4084 203.992 87.5344 202.101C86.5344 201.092 90.1834 181.512 91.3944 168.516C92.7124 154.389 86.4934 155.867 81.9644 163.719Z" fill="#F7A9A0"/>
<path d="M121.842 235.567C120.936 234.033 121.735 233.547 124.686 234.695C127.675 235.85 138.347 242.892 140.489 238.949C142.647 234.996 127.381 225.278 122.319 223.743C117.26 222.196 108.531 221.498 108.531 221.498C111.122 223.986 116.826 230.62 121.842 235.567Z" fill="#F7A9A0"/>
<path d="M92.4141 242.454C99.9621 249.196 108.949 258.048 120.147 260.284C122.343 260.722 123.827 259.874 123.827 259.874C128.828 260.965 130.845 258.931 130.845 258.931C135.815 258.521 137.591 256.157 137.591 256.157C137.591 256.157 143.476 257.374 144.803 253.939C146.302 250.091 137.743 249.135 133.358 245.731C123.311 237.931 111.211 224.035 108.537 221.497L92.4141 242.454Z" fill="#F7A9A0"/>
<path d="M117.083 244.958C120.086 247.194 122.977 249.47 126.266 251.288C129.876 253.283 133.683 254.597 137.527 256.032C137.647 256.077 137.597 256.248 137.472 256.222C130.103 254.727 122.331 250.353 116.979 245.093C116.849 244.966 116.932 244.846 117.083 244.958Z" fill="#263238"/>
<path d="M111.495 250.338C114.537 252.352 119.907 255.857 130.877 258.815C130.913 258.825 130.908 258.889 130.867 258.883C123.489 257.91 117.189 255.057 111.399 250.483C111.219 250.341 111.292 250.204 111.495 250.338Z" fill="#263238"/>
<path d="M108.546 253.285C113.849 256.513 117.602 257.876 123.81 259.842C123.845 259.853 123.835 259.918 123.795 259.909C116.504 258.416 114.029 257.048 108.409 253.452C108.217 253.329 108.339 253.159 108.546 253.285Z" fill="#263238"/>
<path d="M88.9843 245.686L109.394 218.818L88.8323 201.752C90.4203 191.135 93.5873 169.903 93.5823 162.397C93.5753 153.591 87.4613 153.02 82.4853 160.486C71.1043 177.562 59.6623 208.773 60.3413 213.858C61.3153 221.142 88.9843 245.686 88.9843 245.686Z" fill="#263238"/>
<path d="M85.1868 237.541C86.1358 235.652 91.2948 228.604 92.5988 226.861C93.8758 225.155 99.3708 218.311 100.717 216.526C100.79 216.429 100.951 216.504 100.878 216.605C99.5758 218.394 94.6348 225.64 93.3478 227.393C92.0568 229.151 86.8288 236.118 85.2818 237.604C85.2278 237.656 85.1568 237.601 85.1868 237.541Z" fill="#37474F"/>
<path d="M92.1811 176.376C91.5751 184.304 89.7311 192.889 89.0731 200.67C92.4541 203.961 96.1501 206.952 99.6641 210.12C102.938 212.985 106.206 215.859 109.453 218.757L109.432 218.783L108.867 219.495L109.373 218.739L109.379 218.788C102.619 213.327 95.9261 207.819 89.4371 202.027C89.1351 201.697 88.5321 201.307 88.3781 200.858C88.2961 199.083 88.6971 197.371 88.9101 195.629C89.7741 189.648 91.2231 182.309 92.1811 176.376Z" fill="#37474F"/>
<path d="M92.7927 177.585C92.5527 178.758 92.1988 179.946 91.4688 180.911C91.8947 179.81 92.2367 178.634 92.7927 177.585Z" fill="#37474F"/>
<path d="M152.761 224.286C152.506 220.666 156.919 222.438 156.919 222.438C156.919 222.438 151.182 218.356 152.363 214.522C153.511 210.83 158.766 213.159 159.145 213.32C158.843 213.101 153.67 209.213 155.253 205.483C156.902 201.607 161.775 204.851 162.09 205.062C161.87 204.766 159.027 200.806 160.875 198.246C164.052 193.847 173.126 204.478 177.5 204.887L183.06 198.884C182.751 200.435 182.267 201.933 183.124 205.066C183.925 207.997 184.482 209.947 184.096 211.81C183.455 214.872 180.656 215.081 180.656 215.081C180.656 215.081 183.365 217.816 182.211 220.792C181.615 222.318 178.642 222.722 178.642 222.722C178.642 222.722 180.719 225.002 179.528 227.586C178.584 229.651 175.749 229.735 175.749 229.735C175.749 229.735 176.728 232.85 175.078 234.646C171.756 238.275 153.313 232.038 152.761 224.286Z" fill="#F7A9A0"/>
<path d="M178.984 203.702L182.961 199.015C183.146 198.877 183.338 198.732 183.523 198.609C190.026 194.197 199.653 197.142 196.098 201.516C193.398 204.848 186.16 204.043 183.889 207.857L183.882 207.849L178.984 203.702Z" fill="#F7A9A0"/>
<path d="M175.3 229.817C175.363 229.833 175.353 229.924 175.286 229.918C168.72 229.347 161.681 226.708 156.669 222.368C156.505 222.226 156.664 221.897 156.875 222.019C162.898 225.504 168.52 228.116 175.3 229.817Z" fill="#263238"/>
<path d="M178.721 222.79C178.795 222.808 178.765 222.931 178.684 222.923C171.922 222.298 164.075 219.107 158.887 213.425C158.709 213.23 158.745 212.877 158.967 213.085C162.703 216.602 172.609 221.291 178.721 222.79Z" fill="#263238"/>
<path d="M161.868 204.541C167.054 209.797 173.402 212.862 180.376 215.073C180.467 215.102 180.417 215.227 180.334 215.224C176.628 215.072 172.33 213.2 169.109 211.46C166.024 209.793 163.575 207.67 161.684 204.723C161.61 204.608 161.757 204.428 161.868 204.541Z" fill="#263238"/>
</svg>
