<svg width="500" height="500" viewBox="0 0 500 500" fill="none" xmlns="http://www.w3.org/2000/svg">
<mask id="mask0_36_14676" style="mask-type:luminance" maskUnits="userSpaceOnUse" x="58" y="90" width="309" height="362">
<path d="M366.946 355.93C367.006 362.23 365.276 373.42 361.766 375.68C358.576 377.74 354.826 376.96 354.826 376.96C354.826 376.96 351.446 382.37 347.746 382.21C344.186 382.05 341.446 379.69 341.446 379.69C341.446 379.69 341.266 380.09 340.936 380.67V434.59C340.936 441.59 336.926 447.57 331.256 450C329.516 450.75 327.606 451.16 325.616 451.16H174.376C165.896 451.16 159.036 443.75 159.036 434.59V192.45L110.726 201.14L110.166 201.24C109.696 201.3 109.236 201.29 108.776 201.21C104.476 200.45 101.756 193.53 100.996 183.35C99.0062 183.75 97.0162 184.11 95.0162 184.46C92.5662 184.88 90.1163 185.29 87.6463 185.63L83.9462 186.13C82.7162 186.26 81.4762 186.42 80.2362 186.52C81.4362 186.2 82.6563 185.94 83.8663 185.64L87.5162 184.87C89.9462 184.35 92.3962 183.92 94.8462 183.48C96.8762 183.14 98.8963 182.79 100.936 182.5C100.746 179.34 100.736 175.88 100.926 172.2L96.7163 172.41C93.0662 172.58 89.4162 172.67 85.7662 172.77C82.1062 172.83 78.4563 172.9 74.7963 172.89C71.1463 172.89 67.4863 172.88 63.8263 172.75C67.4763 172.47 71.1263 172.29 74.7863 172.13C78.4363 171.95 82.0862 171.86 85.7362 171.77C89.3962 171.7 93.0462 171.63 96.7062 171.64L100.956 171.65C101.206 167 101.776 162.02 102.686 156.88C102.696 156.83 102.706 156.78 102.716 156.73C100.626 156.4 98.5362 156.05 96.4462 155.7C92.2262 154.99 88.0162 154.2 83.8062 153.46C79.6062 152.63 75.3962 151.85 71.2062 150.98L64.9162 149.67C62.8362 149.19 60.7362 148.75 58.6562 148.24C60.7762 148.53 62.8963 148.87 65.0063 149.18L71.3462 150.23C75.5662 150.93 79.7762 151.73 83.9862 152.47C88.1862 153.3 92.3962 154.08 96.5862 154.95C98.6562 155.38 100.726 155.81 102.796 156.26C103.876 150.29 105.306 144.7 106.956 139.72L103.716 137.49C100.656 135.39 97.6462 133.23 94.6362 131.07C91.6462 128.89 88.6462 126.7 85.6962 124.46C82.7462 122.22 79.7962 119.97 76.9162 117.63C80.0362 119.63 83.0963 121.73 86.1463 123.84C89.2063 125.94 92.2163 128.1 95.2263 130.26C98.2163 132.44 101.216 134.62 104.166 136.87L107.146 139.14C108.246 135.88 109.446 132.89 110.706 130.24C109.296 128.99 107.916 127.69 106.546 126.39C104.956 124.86 103.376 123.33 101.846 121.74C100.306 120.16 98.7763 118.57 97.3263 116.9C99.0563 118.27 100.726 119.73 102.376 121.19C104.026 122.64 105.636 124.16 107.236 125.67C108.526 126.91 109.816 128.16 111.086 129.44C115.056 121.34 119.586 116.6 123.566 117.3C124.026 117.38 124.466 117.53 124.886 117.75V117.74L124.946 117.78L159.036 137.62V110.53C159.036 91.87 165.896 90.96 174.376 90.96H204.676C206.436 90.96 207.876 92.96 207.876 95.44V96.51C207.876 102.32 211.056 102.34 214.956 102.34H285.016C288.956 102.34 292.116 102.32 292.116 96.51V95.44C292.116 92.96 293.536 90.96 295.326 90.96H325.616C334.076 90.96 340.936 93.44 340.936 110.53V254.11C343.756 258.23 345.816 261.8 346.936 264.53C352.236 277.44 362.006 325.21 362.006 325.21L359.856 325.38C360.076 326.94 360.246 328.37 360.366 329.66C360.366 329.66 360.366 329.66 360.366 329.67C361.906 335.09 366.896 350.22 366.946 355.93Z" fill="white"/>
</mask>
<g mask="url(#mask0_36_14676)">
<path d="M195.095 649.632H266.659C266.659 649.632 252.249 482.487 252.811 479.568C253.526 475.829 257.751 458.91 263.375 436.809C265.138 429.893 267.039 422.475 269.015 414.783C274.35 393.989 280.233 371.264 285.356 351.488C293.047 321.862 299.052 298.849 299.052 298.849H238.401C238.401 298.849 231.333 321.255 222.425 350.409C207.908 397.789 188.512 463 186.597 478.854C183.497 504.451 195.095 649.632 195.095 649.632Z" fill="#455A64"/>
<path d="M239.344 469.351C241.691 459.005 245.196 448.868 248.249 438.714C254.452 418.082 260.705 397.464 266.969 376.85C270.101 366.543 273.239 356.238 276.409 345.942C278.01 340.743 279.607 335.543 281.235 330.353C282.828 325.275 284.64 320.238 286.077 315.114C286.662 313.029 286.981 314.175 286.233 316.822C284.724 322.159 283.234 327.503 281.677 332.827C278.595 343.372 275.488 353.909 272.371 364.444C266.168 385.41 259.879 406.352 253.597 427.295C250.447 437.795 247.277 448.289 244.124 458.788C242.618 463.805 241.142 468.851 240.256 474.022C239.332 479.415 239.283 484.871 239.624 490.32C240.31 501.269 241.579 512.202 242.59 523.125C243.603 534.072 244.616 545.018 245.629 555.964C247.645 577.749 249.663 599.533 251.624 621.322C251.873 624.084 252.114 626.845 252.327 629.61C252.398 630.535 251 630.465 250.902 629.575C248.545 608.034 246.738 586.423 244.715 564.848C242.702 543.38 240.689 521.912 238.683 500.443C238.179 495.054 237.606 489.653 237.602 484.235C237.598 479.209 238.232 474.25 239.344 469.351Z" fill="#263238"/>
<path d="M245.289 298.849C249.499 331.424 257.525 392.5 263.377 436.809C277.058 383.121 299.053 298.849 299.053 298.849H245.289Z" fill="#263238"/>
<path d="M240.359 298.849C240.359 298.849 241.758 327.867 248.4 350.85C248.932 352.75 249.509 354.62 250.133 356.413C250.133 356.413 257.049 358.921 267.614 365.397C267.614 365.397 268.313 388.745 269.012 414.784C269.787 443.893 270.593 476.362 270.426 483.247C269.818 509.012 273.648 650.681 273.648 650.681L345.197 650.97C345.197 650.97 332.261 492.763 332.352 483.323C332.489 468.153 328.886 401.103 326.105 352.203C324.402 322.076 323.004 298.849 323.004 298.849H240.359Z" fill="#455A64"/>
<path d="M316.99 309.217C318.306 349.135 319.702 389.057 321.488 428.958C323.279 468.996 325.693 509.019 329.043 548.957C330.915 571.271 332.679 602.658 335.087 624.921C335.103 625.071 334.875 625.124 334.855 624.972C329.645 585.375 326.741 536.412 324.179 496.564C321.618 456.722 319.881 416.812 318.523 376.912C317.754 354.342 317.167 331.764 316.492 309.191C316.483 308.869 316.98 308.898 316.99 309.217Z" fill="#263238"/>
<path d="M247.158 354.683C254.282 357.512 261.105 361.376 267.613 365.396C267.868 365.554 267.677 365.952 267.398 365.817C260.495 362.463 253.448 359.234 246.739 355.505C246.212 355.213 246.611 354.466 247.158 354.683Z" fill="#263238"/>
<path d="M242.882 322.584C243.452 325.652 244.196 328.688 244.859 331.737C245.48 334.597 245.938 337.517 246.694 340.344C247.428 343.087 248.595 345.601 250.703 347.559C251.825 348.602 253.062 349.525 254.259 350.481C254.904 350.996 255.601 351.491 256.271 352.012C256.184 351.607 256.113 351.195 256.04 350.778C255.836 349.615 255.639 348.451 255.444 347.287C255.01 344.704 254.597 342.115 254.201 339.526C253.423 334.436 252.706 329.293 251.644 324.254C251.601 324.048 251.909 323.97 251.962 324.175C253.23 329.168 254.63 334.108 255.734 339.144C256.275 341.614 258.208 353.808 258.294 354.671C258.383 355.562 258.457 356.456 258.488 357.351C258.519 358.234 258.695 359.222 258.491 360.088C258.439 360.311 258.17 360.275 258.076 360.124C258.072 360.127 258.068 360.13 258.063 360.133C257.619 359.357 257.508 358.342 257.287 357.483C257.064 356.613 256.867 355.73 256.71 354.845C256.653 354.526 256.609 354.199 256.564 353.872C255.363 353.142 254.245 352.177 253.122 351.364C251.912 350.488 250.679 349.634 249.535 348.67C247.343 346.824 245.972 344.562 245.156 341.827C244.308 338.989 244.047 335.994 243.719 333.064C243.332 329.599 243.048 326.115 242.565 322.663C242.535 322.459 242.843 322.375 242.882 322.584Z" fill="#263238"/>
<path d="M253.822 218.24C249.722 250.919 242.558 305.729 230.972 310.163C228.965 310.931 220.431 312.623 214.598 306.057C204.763 294.986 187.765 257.677 183.014 245.675C180.907 240.353 215.604 222.988 218.575 228.338C222.735 235.83 227.104 247.107 227.932 246.732C229.314 246.105 231.674 232.19 240.943 212.653C252.461 188.376 255.347 206.092 253.822 218.24Z" fill="#AD6359"/>
<path d="M172.945 232.772C176.361 240.109 189.217 252.383 193.457 254.151C197.697 255.919 219.289 234.757 218.74 230.075C218.191 225.393 204.775 201.58 197.375 197.914C189.973 194.249 169.406 225.17 172.945 232.772Z" fill="#AD6359"/>
<path d="M217.163 225.617C217.163 225.617 216.451 215.113 218.948 206.181C221.048 198.671 225.015 187.755 221.019 186.475C212.814 183.846 202.931 211.07 202.931 211.07C202.931 211.07 200.499 223.781 208.397 227.106C213.35 229.191 217.163 225.617 217.163 225.617Z" fill="#AD6359"/>
<path d="M195.188 234.301L183.016 232.156L189.229 196.905L204.633 199.62L195.188 234.301Z" fill="#C76323"/>
<path d="M204.627 199.62L201.029 212.851L195.181 234.306L183.008 232.16L189.222 196.905L204.627 199.62Z" fill="#C76323"/>
<path opacity="0.1" d="M204.627 199.62L201.029 212.851L186.852 210.352L189.222 196.905L204.627 199.62Z" fill="black"/>
<path d="M207.704 190.52L188.539 187.142L185.973 201.7L205.138 205.078L207.704 190.52Z" fill="#C76323"/>
<path d="M221.486 187.462L206.336 186.325L210.488 162.766L225.114 166.877L221.486 187.462Z" fill="#C76323"/>
<path d="M203.648 156.751L197.52 191.518L172.012 190.107L110.164 201.237L124.881 117.743L179.194 149.356L203.648 156.751Z" fill="#C76323"/>
<path d="M129.656 161.637C133.741 138.466 131.014 118.618 123.566 117.305C116.118 115.992 106.769 133.712 102.685 156.882C98.6002 180.053 101.327 199.901 108.775 201.214C116.223 202.527 125.572 184.808 129.656 161.637Z" fill="#C76323"/>
<path opacity="0.2" d="M126.639 160.361C130.265 139.791 128.261 122.245 122.164 121.17C116.066 120.095 108.184 135.899 104.558 156.469C100.932 177.039 102.935 194.585 109.033 195.66C115.13 196.735 123.013 180.931 126.639 160.361Z" fill="black"/>
<path d="M124.839 160.041C124.356 162.781 123.796 165.432 123.172 167.97C121.533 168.889 119.581 169.26 117.589 168.909C112.993 168.099 109.92 163.71 110.731 159.105L111.425 155.167C112.237 150.562 116.625 147.489 121.221 148.299C123.177 148.644 124.867 149.648 126.091 151.034C125.803 153.939 125.383 156.959 124.839 160.041Z" fill="#C76323"/>
<path d="M210.657 195.82L181.359 193.622L189.39 148.062L217.673 156.013L210.657 195.82Z" fill="#C76323"/>
<path opacity="0.2" d="M210.657 195.82L181.359 193.622L189.39 148.062L217.673 156.013L210.657 195.82Z" fill="black"/>
<path opacity="0.2" d="M127.781 124.151C129.439 126.894 130.167 130.084 130.737 133.213C131.237 136.371 131.496 139.572 131.489 142.769C131.534 144.369 131.432 145.966 131.389 147.564C131.257 149.156 131.172 150.754 131.001 152.342C130.804 153.927 130.665 155.521 130.42 157.099C130.169 158.676 129.955 160.26 129.673 161.831C128.512 168.106 126.995 174.345 124.705 180.325C123.54 183.302 122.218 186.23 120.545 188.964C118.835 191.645 116.883 194.301 114.195 196.057C116.753 194.137 118.591 191.469 120.159 188.736C121.734 185.987 122.971 183.057 124.045 180.079C126.176 174.109 127.688 167.924 128.773 161.67C129.907 155.428 130.707 149.108 130.788 142.767C130.88 139.597 130.699 136.423 130.295 133.281C129.877 130.151 129.252 126.983 127.781 124.151Z" fill="black"/>
<path d="M97.3203 116.901C99.0573 118.273 100.719 119.725 102.369 121.189C104.027 122.645 105.631 124.157 107.234 125.669C108.821 127.199 110.407 128.73 111.939 130.317L114.235 132.7C114.975 133.521 115.739 134.317 116.458 135.16C115.582 134.481 114.751 133.756 113.896 133.055L111.407 130.873C109.75 129.417 108.146 127.905 106.543 126.391C104.957 124.86 103.371 123.329 101.839 121.742C100.3 120.163 98.7723 118.572 97.3203 116.901Z" fill="#263238"/>
<path d="M109.625 181.421C107.211 182.049 104.778 182.569 102.343 183.073C99.9094 183.588 97.4624 184.026 95.0154 184.463C92.5644 184.877 90.1124 185.289 87.6484 185.625L83.9504 186.125C82.7114 186.256 81.4784 186.42 80.2344 186.521C81.4394 186.197 82.6564 185.936 83.8664 185.642L87.5164 184.867C89.9504 184.353 92.3974 183.915 94.8444 183.478C97.2954 183.065 99.7474 182.653 102.212 182.318C104.675 181.973 107.14 181.643 109.625 181.421Z" fill="#263238"/>
<path d="M63.8281 172.755C67.4771 172.467 71.1281 172.29 74.7801 172.128C78.4321 171.955 82.0851 171.861 85.7381 171.767C89.3921 171.697 93.0461 171.629 96.7011 171.638L102.184 171.656C104.013 171.698 105.84 171.706 107.67 171.779C105.846 171.933 104.02 172.022 102.195 172.146L96.7181 172.408C93.0671 172.58 89.4131 172.675 85.7601 172.767C82.1061 172.836 78.4521 172.904 74.7971 172.894C71.1421 172.895 67.4871 172.879 63.8281 172.755Z" fill="#263238"/>
<path d="M76.9141 117.629C80.0381 119.635 83.0971 121.729 86.1461 123.837C89.2021 125.936 92.2121 128.098 95.2221 130.26C98.2181 132.442 101.213 134.625 104.162 136.871L108.584 140.243C110.037 141.397 111.509 142.522 112.944 143.701C111.376 142.707 109.846 141.66 108.296 140.641L103.71 137.495C100.654 135.396 97.6441 133.234 94.6351 131.07C91.6401 128.887 88.6451 126.704 85.6961 124.458C82.7411 122.22 79.7951 119.969 76.9141 117.629Z" fill="#263238"/>
<path d="M109.138 157.684C104.893 157.1 100.669 156.409 96.4472 155.701C92.2252 154.995 88.0202 154.201 83.8052 153.456C79.6052 152.631 75.3982 151.848 71.2062 150.984L64.9213 149.667C62.8333 149.192 60.7383 148.751 58.6562 148.246C60.7803 148.528 62.8932 148.873 65.0112 149.185L71.3472 150.228C75.5692 150.936 79.7752 151.727 83.9892 152.475C88.1882 153.303 92.3973 154.082 96.5883 154.949C100.78 155.813 104.969 156.694 109.138 157.684Z" fill="#263238"/>
<path d="M207.618 205.838C207.155 210.101 202.396 207.115 202.396 207.115C202.396 207.115 208.21 213.064 206.034 217.275C203.925 221.327 198.303 217.518 197.897 217.25C198.202 217.568 203.402 223.173 200.779 227.179C198.049 231.34 193.062 226.547 192.741 226.236C192.935 226.626 195.41 231.827 192.725 234.417C188.109 238.866 181.414 225.742 176.414 224.349C176.414 224.349 173.086 232.554 172.939 232.772C172.939 232.772 166.314 220.416 168.57 213.777C169.759 210.277 173.256 210.694 173.256 210.694C173.256 210.694 170.68 206.946 172.646 203.727C173.66 202.077 177.2 202.231 177.2 202.231C177.2 202.231 175.262 199.144 177.19 196.39C178.721 194.187 182.034 194.684 182.034 194.684C182.034 194.684 181.549 190.857 183.844 189.115C188.464 185.589 208.601 196.709 207.618 205.838Z" fill="#AD6359"/>
<path d="M182.563 194.681C182.493 194.649 182.523 194.546 182.6 194.566C190.115 196.607 197.746 201.152 202.664 207.249C202.825 207.449 202.571 207.798 202.351 207.612C196.08 202.297 190.091 198.08 182.563 194.681Z" fill="#263238"/>
<path d="M177.117 202.135C177.035 202.099 177.095 201.962 177.188 201.988C184.92 204.133 193.374 209.488 198.216 217.184C198.382 217.448 198.267 217.851 198.052 217.562C194.444 212.689 183.909 205.16 177.117 202.135Z" fill="#263238"/>
<path d="M192.889 226.89C187.961 219.691 181.222 214.795 173.576 210.762C173.476 210.709 173.561 210.574 173.656 210.595C177.934 211.549 182.539 214.627 185.919 217.326C189.157 219.911 191.559 222.894 193.14 226.717C193.202 226.866 192.994 227.044 192.889 226.89Z" fill="#263238"/>
<path d="M202.545 207.107C202.738 207.348 202.174 207.365 202.36 207.612C203.141 208.648 207.309 215.287 205.488 217.409C204.024 219.106 200.729 218.317 199.582 217.518L196.698 215.508L198.708 218.4C199.585 219.662 200.334 221.118 200.75 222.589C201.169 224.055 201.196 225.628 200.438 226.784C199.669 228.008 198.37 228.592 197.009 228.171C195.647 227.811 194.308 226.826 193.257 225.768L190.322 222.811L192.12 226.548C192.607 227.56 193 228.705 193.212 229.82C193.416 230.936 193.439 232.098 193.022 233.028C192.618 233.942 191.707 234.644 190.751 234.65C189.745 234.671 188.663 234.109 187.692 233.477C185.724 232.162 184.013 230.407 182.23 228.752C181.343 227.915 180.453 227.074 179.522 226.275C178.588 225.501 177.609 224.675 176.414 224.349C177.56 224.793 178.418 225.699 179.293 226.523C180.151 227.381 180.968 228.281 181.789 229.184C183.43 230.988 185.103 232.786 187.117 234.302C188.139 235.017 189.273 235.756 190.74 235.825C192.255 235.884 193.601 234.852 194.183 233.562C194.782 232.247 194.73 230.852 194.526 229.588C194.298 228.306 193.914 227.118 193.364 225.926L192.228 226.706C193.459 227.966 194.822 229.05 196.632 229.589C197.523 229.849 198.589 229.845 199.511 229.432C200.439 229.022 201.129 228.331 201.632 227.531C202.669 225.862 202.523 223.848 202.029 222.219C201.518 220.544 200.721 219.057 199.711 217.646L198.837 218.527C200.329 219.494 203.917 220.778 206.518 218.43C209.452 214.866 203.685 208.243 202.545 207.107Z" fill="#263238"/>
<path d="M202.398 207.116C203.28 207.429 204.166 207.651 204.97 207.672C205.775 207.698 206.441 207.367 206.79 206.802C207.154 206.242 207.204 205.384 207.168 204.53C207.106 203.668 206.997 202.766 206.847 201.838C207.427 202.585 207.86 203.444 208.094 204.386C208.318 205.314 208.407 206.411 207.805 207.442C207.47 207.929 207.016 208.307 206.476 208.513C205.93 208.701 205.363 208.714 204.861 208.6C203.848 208.387 203.03 207.814 202.398 207.116Z" fill="#263238"/>
<path d="M180.297 257.453L218.225 226.949C218.225 226.949 227.422 245.947 227.962 245.871C228.501 245.795 234.52 220.584 244.496 204.878C254.472 189.172 256.883 206.215 254.763 219.184C252.643 232.153 242.659 303.967 233.688 310.55C224.717 317.133 216.287 308.894 212.658 305.396C207.658 300.573 180.297 257.453 180.297 257.453Z" fill="#C76323"/>
<path d="M187.597 260.876C188.785 259.657 200.707 250.364 203.341 248.401C205.976 246.437 208.614 244.478 211.255 242.521C213.983 240.5 216.665 238.308 219.547 236.509C219.675 236.429 219.809 236.59 219.694 236.695C217.2 238.996 214.377 241 211.708 243.093C209.074 245.159 206.44 247.226 203.797 249.281C201.155 251.336 189.161 260.267 187.712 261.066C187.589 261.135 187.516 260.959 187.597 260.876Z" fill="#263238"/>
<path d="M227.961 245.87C229.012 248.11 229.924 250.405 230.801 252.713C231.685 255.019 232.477 257.358 233.228 259.711C233.953 262.072 234.658 264.441 235.223 266.849C235.794 269.254 236.308 271.678 236.597 274.136C236.228 272.953 235.926 271.761 235.544 270.588C235.213 269.403 234.845 268.228 234.481 267.053L232.274 260.011L230.076 252.961L228.991 249.427C228.657 248.24 228.284 247.065 227.961 245.87Z" fill="#263238"/>
<path d="M228.141 324.11C229.783 325.736 330.626 320.402 331.112 319.748C332.434 317.97 296.37 210.642 272.728 193.661C267.644 190.009 253.99 194.901 250.483 198.419C248.283 200.626 243.492 214.576 240.359 226.113C234.088 249.209 226.712 322.681 228.141 324.11Z" fill="white"/>
<path d="M252.559 193.889C248.565 196.855 245.493 212.197 254.637 214.275C263.782 216.353 272.262 201.909 273.509 197.243C274.756 192.577 261.205 187.47 252.559 193.889Z" fill="#C76323"/>
<path d="M255.297 212.175C260.968 212.903 269.579 203.45 272.612 196.203C272.817 195.705 271.577 190.828 270.351 184.831C269.621 181.189 268.894 177.116 268.499 173.352L245.492 181.564C245.492 181.564 248.641 189.211 249.289 195.778C249.337 196.328 249.336 196.843 249.289 197.34C249.288 197.412 249.277 197.5 249.282 197.599C249.111 200.585 249.816 211.468 255.297 212.175Z" fill="#AD6359"/>
<path d="M267.409 173.742C267.167 178.519 265.355 195.735 251.716 197.477C250.839 197.581 250.031 197.627 249.281 197.604C249.269 197.5 249.281 197.408 249.292 197.339C249.338 196.843 249.338 196.324 249.292 195.781C248.634 189.215 245.484 181.565 245.484 181.565L267.409 173.742Z" fill="#263238"/>
<path d="M268.887 145.141C272.242 153.277 270.123 177.905 264.678 183.869C256.783 192.516 242.709 194.612 235.072 184.859C227.669 175.406 230.999 143.359 237.189 137.82C246.306 129.662 263.931 133.123 268.887 145.141Z" fill="#AD6359"/>
<path d="M247.136 162.153C247.154 162.091 247.26 162.242 247.252 162.31C247.065 163.965 247.129 165.892 248.586 166.565C248.631 166.586 248.62 166.669 248.565 166.657C246.753 166.25 246.694 163.691 247.136 162.153Z" fill="#263238"/>
<path d="M248.762 160.54C251.447 160.554 251.222 165.924 248.734 165.911C246.286 165.898 246.511 160.528 248.762 160.54Z" fill="#263238"/>
<path d="M237.826 161.812C237.816 161.748 237.693 161.886 237.692 161.954C237.675 163.62 237.375 165.523 235.847 166.012C235.799 166.027 235.801 166.112 235.857 166.107C237.704 165.926 238.077 163.392 237.826 161.812Z" fill="#263238"/>
<path d="M236.411 160.012C233.744 159.697 233.31 165.054 235.78 165.346C238.211 165.634 238.646 160.276 236.411 160.012Z" fill="#263238"/>
<path d="M250.981 158.174C250.257 157.959 249.626 157.64 248.932 157.354C248.149 157.031 247.493 156.854 247.002 156.119C246.739 155.725 246.884 155.044 247.242 154.752C248.078 154.073 249.135 154.23 250.093 154.581C251.133 154.962 251.836 155.521 252.401 156.471C252.949 157.391 251.936 158.456 250.981 158.174Z" fill="#263238"/>
<path d="M234.45 157.221C235.2 157.131 235.876 156.923 236.607 156.757C237.433 156.57 238.11 156.506 238.717 155.864C239.043 155.52 239.014 154.824 238.71 154.476C238.001 153.666 236.932 153.644 235.929 153.829C234.84 154.03 234.052 154.462 233.336 155.304C232.642 156.12 233.462 157.34 234.45 157.221Z" fill="#263238"/>
<path d="M249.265 177.726C248.85 178.099 248.43 178.618 247.825 178.644C247.244 178.668 246.576 178.379 246.054 178.151C246.003 178.129 245.947 178.182 245.978 178.233C246.383 178.89 247.275 179.327 248.052 179.225C248.811 179.125 249.21 178.49 249.422 177.809C249.452 177.713 249.326 177.672 249.265 177.726Z" fill="#263238"/>
<path d="M247.728 172.674C246.736 174.079 245.334 174.811 243.842 175.036C243.176 175.141 242.479 175.135 241.801 175.044C241.667 175.036 241.534 175.015 241.414 174.983C241.293 174.963 241.184 174.944 241.052 174.912C240.859 174.876 240.759 174.711 240.734 174.526L240.735 174.514C240.739 174.453 240.742 174.404 240.758 174.344C240.758 174.344 240.758 174.344 240.759 174.332L240.768 174.186C240.787 172.904 240.993 170.961 240.993 170.961C240.515 171.176 238.084 172.149 238.15 171.481C238.713 165.956 239.339 159.811 241.067 154.432C241.115 154.252 241.392 154.305 241.369 154.487C241.038 159.819 239.771 165.056 239.353 170.407C240.127 170.15 241.391 169.666 242.06 169.708C242.24 169.768 241.595 173.455 241.633 174.032C241.633 174.032 241.631 174.057 241.641 174.094C243.781 174.459 245.431 173.877 247.58 172.52C247.706 172.428 247.833 172.545 247.728 172.674Z" fill="#263238"/>
<path d="M242.758 174.724C242.758 174.724 243.953 176.191 245.519 176.669C246.096 176.847 246.711 176.899 247.344 176.699C248.645 176.293 248.622 175.084 248.334 174.061C248.099 173.22 247.672 172.506 247.672 172.506C247.672 172.506 245.831 174.392 242.758 174.724Z" fill="#263238"/>
<path d="M245.516 176.669C246.093 176.847 246.708 176.899 247.341 176.699C248.642 176.293 248.619 175.084 248.331 174.061C246.926 174.27 245.572 175.291 245.516 176.669Z" fill="#F392B9"/>
<path d="M269.416 165.559C270.018 163.408 275.571 140.229 274.958 137.702C274.401 135.401 271.884 136.342 271.847 136.211C271.805 136.064 271.732 133.982 270.434 133.199C269.286 132.507 267.622 133.25 267.622 133.25C267.622 133.25 267.227 131.039 265.835 130.44C264.443 129.841 263.118 131.026 263.118 131.026C263.118 131.026 262.656 128.898 260.896 128.39C259.137 127.882 258.212 129.411 258.212 129.411C258.212 129.411 257.622 127.302 256.17 126.895C254.718 126.488 253.467 128.047 253.467 128.047C253.467 128.047 252.664 126.127 250.908 126.102C249.11 126.076 248.462 128.003 248.462 128.003C248.462 128.003 247.417 126.144 245.763 126.097C244.108 126.05 243.536 128.112 243.536 128.112C243.536 128.112 242.86 126.272 241.304 126.393C239.748 126.514 239.378 128.692 239.378 128.692C239.378 128.692 238.504 126.669 236.673 127.263C233.861 128.175 233.509 141.615 232.867 147.456C232.867 147.456 233.653 144.663 234.846 144.56C236.039 144.456 236.934 146.358 239.157 146.849C242.327 147.55 247.604 143.83 251.974 144.764C256.221 145.672 259.369 150.133 260.9 156.804C262.627 164.318 267.987 170.665 269.416 165.559Z" fill="#263238"/>
<path d="M248.175 170.377C244.456 169.704 241.978 166.132 242.649 162.414C243.321 158.695 246.892 156.215 250.612 156.888C254.331 157.56 256.809 161.131 256.138 164.851C255.57 167.996 252.927 170.254 249.877 170.47C249.319 170.509 248.749 170.48 248.175 170.377ZM243.55 162.576C242.969 165.798 245.116 168.892 248.338 169.475C251.557 170.06 254.653 167.909 255.236 164.688C255.817 161.466 253.669 158.371 250.448 157.789C249.951 157.699 249.457 157.674 248.975 157.709C246.332 157.896 244.043 159.852 243.55 162.576Z" fill="#E59B6C"/>
<path d="M233.718 169.663C230.909 169.532 228.765 166.355 228.94 162.58C229.023 160.778 229.615 159.102 230.607 157.861C231.633 156.577 232.959 155.903 234.354 155.97C235.743 156.034 237.007 156.826 237.909 158.199C238.783 159.526 239.218 161.25 239.134 163.053C238.968 166.625 236.784 169.472 234.168 169.657C234.019 169.668 233.87 169.67 233.718 169.663ZM231.324 158.433C230.452 159.525 229.93 161.012 229.855 162.623C229.705 165.893 231.456 168.64 233.762 168.747C236.076 168.857 238.067 166.28 238.22 163.01C238.294 161.399 237.911 159.87 237.145 158.703C236.407 157.582 235.4 156.936 234.312 156.886C234.195 156.88 234.08 156.882 233.964 156.89C232.998 156.959 232.072 157.497 231.324 158.433Z" fill="#E59B6C"/>
<path d="M242.837 163.216L243.458 162.542C242.46 161.622 240.113 160.338 238.359 162.05L238.999 162.706C240.568 161.169 242.745 163.133 242.837 163.216Z" fill="#E59B6C"/>
<path d="M273.263 166.392L274.096 166.009C273.917 165.621 272.294 162.204 270.265 161.777C268.369 161.384 256.046 161.965 255.523 161.99L255.567 162.905C259.1 162.735 268.612 162.366 270.076 162.674C271.416 162.956 272.831 165.454 273.263 166.392Z" fill="#E59B6C"/>
<path d="M263.96 164.712C263.96 164.712 268.854 156.459 272.559 158.148C276.264 159.836 272.994 171.512 268.933 173.38C264.873 175.248 263.07 171.523 263.07 171.523L263.96 164.712Z" fill="#AD6359"/>
<path d="M271.538 161.471C271.605 161.46 271.625 161.553 271.568 161.581C268.728 162.987 267.39 165.819 266.521 168.716C267.311 167.567 268.452 166.884 269.982 167.812C270.062 167.861 269.998 167.986 269.914 167.975C268.695 167.808 267.845 168.081 267.107 169.103C266.584 169.826 266.257 170.716 265.905 171.532C265.788 171.805 265.304 171.7 265.381 171.391C265.387 171.368 265.394 171.345 265.4 171.321C265.046 167.592 267.557 162.148 271.538 161.471Z" fill="#263238"/>
<path d="M286.971 200.679C319.605 223.119 343.159 258.301 345.426 265.734C350.911 283.72 359.106 315.433 360.369 329.675C360.836 334.941 320.256 333.958 319.58 328.346C317.464 310.772 309.905 272.534 309.712 271.876C308.36 267.253 296.849 247.222 285.001 225.429C273.147 203.623 273.236 191.235 286.971 200.679Z" fill="#AD6359"/>
<path d="M322.815 383.843C326.961 385.258 329.647 381.604 329.647 381.604C329.647 381.604 331.776 384.379 335.101 384.862C338.909 385.416 341.447 379.687 341.447 379.687C341.447 379.687 344.184 382.05 347.747 382.207C351.445 382.37 354.83 376.955 354.83 376.955C354.83 376.955 358.578 377.739 361.765 375.681C365.274 373.416 367.004 362.23 366.945 355.932C366.886 349.634 360.819 331.825 360.006 328.314L319.58 328.346C319.58 328.346 311.81 356.664 312.931 364.059C313.877 370.289 318.162 382.255 322.815 383.843Z" fill="#AD6359"/>
<path d="M329 381.327C326.406 374.944 325.842 368.142 324.892 361.385C324.871 361.234 325.107 361.203 325.126 361.355C325.993 368.086 328.184 374.559 329.316 381.242C329.348 381.426 329.07 381.499 329 381.327Z" fill="#263238"/>
<path d="M340.922 379.559C340.379 378.098 340.319 376.461 340.181 374.921C340.032 373.263 339.912 371.604 339.818 369.941C339.629 366.614 339.516 363.282 339.5 359.95C339.499 359.802 339.725 359.765 339.734 359.92C339.928 363.236 340.172 366.548 340.506 369.852C340.673 371.505 340.854 373.158 341.046 374.809C341.225 376.345 341.541 377.95 341.374 379.498C341.349 379.727 341.004 379.779 340.922 379.559Z" fill="#263238"/>
<path d="M354.818 376.815C354.295 375.564 354.422 373.941 354.374 372.604C354.319 371.087 354.257 369.569 354.185 368.052C354.042 365.019 353.898 361.985 353.649 358.959C353.637 358.808 353.87 358.776 353.883 358.928C354.151 362.002 354.461 365.072 354.702 368.148C354.82 369.658 354.931 371.17 355.032 372.681C355.118 373.966 355.373 375.563 354.971 376.813C354.948 376.884 354.844 376.878 354.818 376.815Z" fill="#263238"/>
<path d="M317.649 328.79L362.001 325.212C362.001 325.212 352.231 277.44 346.933 264.528C341.635 251.616 315.242 219.767 287.724 200.895C269.005 188.057 270.153 199.037 278.804 216.043C287.456 233.049 307.815 271.949 308.774 275.025C309.732 278.101 317.649 328.79 317.649 328.79Z" fill="#C76323"/>
<path d="M318.426 319.641C320.084 319.256 335.137 317.87 338.413 317.64C341.691 317.409 344.97 317.184 348.249 316.963C351.636 316.734 355.078 316.337 358.474 316.379C358.625 316.381 358.651 316.588 358.498 316.615C355.156 317.206 351.699 317.368 348.322 317.69C344.989 318.007 341.656 318.325 338.322 318.628C334.988 318.931 320.071 319.974 318.42 319.864C318.28 319.855 318.314 319.667 318.426 319.641Z" fill="#263238"/>
</g>
</svg>
