<svg width="500" height="500" viewBox="0 0 500 500" fill="none" xmlns="http://www.w3.org/2000/svg">
<path d="M334.517 79.9199H165.467C156.027 79.9199 148.367 87.7099 148.367 97.3399V445.35C148.367 454.96 156.027 462.77 165.467 462.77H334.517C343.967 462.77 351.637 454.96 351.637 445.35V97.3399C351.637 87.7099 343.967 79.9199 334.517 79.9199ZM340.947 434.59C340.947 443.75 334.087 451.16 325.627 451.16H174.387C165.907 451.16 159.047 443.75 159.047 434.59V110.53C159.047 91.8699 165.907 90.9599 174.387 90.9599H204.677C206.437 90.9599 207.877 92.9599 207.877 95.4399V96.5099C207.877 102.32 211.057 102.34 214.967 102.34H285.027C288.967 102.34 292.117 102.32 292.117 96.5099V95.4399C292.117 92.9599 293.537 90.9599 295.327 90.9599H325.627C334.087 90.9599 340.947 93.4399 340.947 110.53V434.59Z" fill="#263238"/>
<path d="M259.556 95.0827H240.446C239.794 95.0827 239.266 94.5547 239.266 93.9027C239.266 93.2507 239.794 92.7227 240.446 92.7227H259.556C260.208 92.7227 260.736 93.2507 260.736 93.9027C260.737 94.5547 260.208 95.0827 259.556 95.0827Z" fill="white"/>
<path d="M340.947 110.53V434.59C340.947 443.75 334.087 451.16 325.627 451.16H174.387C165.907 451.16 159.047 443.75 159.047 434.59V110.53C159.047 91.87 165.907 90.96 174.387 90.96H204.677C206.437 90.96 207.877 92.96 207.877 95.44V96.51C207.877 102.32 211.057 102.34 214.967 102.34H285.027C288.967 102.34 292.117 102.32 292.117 96.51V95.44C292.117 92.96 293.537 90.96 295.327 90.96H325.627C334.087 90.96 340.947 93.44 340.947 110.53Z" fill="white"/>
<path d="M340.939 110.53V134.71H159.039V110.53C159.039 91.87 165.899 90.96 174.379 90.96H204.679C206.439 90.96 207.879 92.96 207.879 95.44V96.51C207.879 102.32 211.059 102.34 214.959 102.34H285.019C288.959 102.34 292.119 102.32 292.119 96.51V95.44C292.119 92.96 293.539 90.96 295.329 90.96H325.619C334.079 90.96 340.939 93.44 340.939 110.53Z" fill="#C76323"/>
<path d="M176.28 122.905L170.906 117.87L176.28 112.835L177.114 113.723L172.688 117.87L177.114 122.017L176.28 122.905Z" fill="white"/>
<path d="M324.44 123.256H320.843V122.01C320.843 121.898 320.779 121.796 320.674 121.743C320.536 121.673 320.402 121.595 320.273 121.511C320.173 121.447 320.052 121.443 319.957 121.497L318.875 122.12L317.078 119.006L318.16 118.383C318.254 118.329 318.309 118.22 318.303 118.1C318.299 118.026 318.298 117.948 318.298 117.871C318.298 117.794 318.299 117.717 318.304 117.641C318.31 117.523 318.254 117.413 318.16 117.359L317.079 116.736L318.876 113.622L319.956 114.245C320.054 114.301 320.175 114.296 320.272 114.232C320.402 114.147 320.537 114.069 320.675 113.999C320.779 113.946 320.844 113.844 320.844 113.732V112.486H324.441V113.732C324.441 113.843 324.506 113.946 324.61 113.999C324.749 114.07 324.883 114.148 325.013 114.232C325.112 114.296 325.234 114.301 325.329 114.245L326.409 113.622L328.206 116.736L327.123 117.36C327.027 117.415 326.973 117.523 326.978 117.643C326.982 117.722 326.984 117.797 326.984 117.872C326.984 117.947 326.982 118.022 326.979 118.097C326.972 118.22 327.027 118.327 327.121 118.382L328.205 119.008L326.409 122.122L325.327 121.499C325.233 121.445 325.111 121.449 325.011 121.513C324.882 121.598 324.747 121.675 324.61 121.746C324.506 121.799 324.441 121.901 324.441 122.013V123.256H324.44ZM321.594 122.506H323.691V122.01C323.691 121.615 323.913 121.257 324.268 121.075C324.382 121.017 324.494 120.952 324.601 120.883C324.935 120.663 325.36 120.649 325.703 120.847L326.135 121.095L327.183 119.28L326.748 119.029C326.408 118.833 326.21 118.461 326.232 118.059L326.236 117.87L326.231 117.676C326.21 117.277 326.409 116.904 326.751 116.707L327.183 116.459L326.136 114.645L325.706 114.893C325.364 115.091 324.942 115.078 324.604 114.858C324.498 114.788 324.386 114.724 324.271 114.666C323.914 114.484 323.692 114.126 323.692 113.731V113.235H321.595V113.731C321.595 114.127 321.373 114.485 321.016 114.666C320.901 114.724 320.789 114.789 320.683 114.858C320.346 115.077 319.922 115.09 319.581 114.893L319.151 114.645L318.104 116.46L318.535 116.708C318.875 116.904 319.073 117.276 319.053 117.679C319.049 117.744 319.048 117.807 319.048 117.87C319.048 117.934 319.049 117.997 319.052 118.06C319.073 118.465 318.874 118.836 318.535 119.032L318.103 119.281L319.15 121.095L319.582 120.847C319.926 120.648 320.349 120.662 320.684 120.883C320.79 120.952 320.901 121.016 321.016 121.074C321.373 121.257 321.594 121.614 321.594 122.01V122.506ZM322.641 120.574C321.15 120.574 319.937 119.361 319.937 117.87C319.937 116.377 321.15 115.163 322.641 115.163C324.133 115.163 325.348 116.377 325.348 117.87C325.348 119.361 324.133 120.574 322.641 120.574ZM322.641 115.913C321.564 115.913 320.687 116.791 320.687 117.87C320.687 118.948 321.564 119.824 322.641 119.824C323.72 119.824 324.598 118.948 324.598 117.87C324.598 116.791 323.72 115.913 322.641 115.913Z" fill="white"/>
<path d="M199.45 98.2383C199.352 98.3353 199.255 98.4323 199.157 98.5293C199.102 98.5843 199.047 98.6403 198.991 98.6963C198.205 97.9333 197.268 97.5263 196.172 97.5263C195.076 97.5263 194.14 97.9323 193.347 98.7003C193.295 98.6463 193.243 98.5903 193.189 98.5353C193.093 98.4383 192.997 98.3413 192.9 98.2453C192.898 98.2433 192.894 98.2423 192.891 98.2403C192.891 98.2383 192.891 98.2353 192.891 98.2333C192.898 98.2273 192.906 98.2223 192.912 98.2153C193.035 98.1063 193.155 97.9923 193.282 97.8873C193.545 97.6703 193.833 97.4913 194.138 97.3413C194.499 97.1643 194.877 97.0323 195.273 96.9603C195.46 96.9263 195.651 96.9083 195.84 96.8853C195.904 96.8773 196.323 96.8763 196.336 96.8773C196.465 96.8873 196.594 96.8923 196.723 96.9063C197.08 96.9453 197.427 97.0313 197.764 97.1543C198.008 97.2433 198.243 97.3543 198.468 97.4833C198.706 97.6203 198.931 97.7753 199.14 97.9543C199.245 98.0443 199.346 98.1393 199.449 98.2323C199.45 98.2343 199.45 98.2363 199.45 98.2383Z" fill="white"/>
<path d="M194.275 99.6162C194.12 99.4622 193.97 99.3122 193.812 99.1572C194.34 98.6402 194.963 98.3112 195.695 98.2122C196.789 98.0642 197.728 98.3962 198.525 99.1502C198.368 99.3072 198.216 99.4592 198.062 99.6122C197.539 99.1042 196.908 98.8292 196.17 98.8302C195.432 98.8312 194.802 99.1052 194.275 99.6162Z" fill="white"/>
<path d="M197.601 100.077C197.448 100.229 197.296 100.382 197.141 100.537C196.874 100.278 196.551 100.135 196.171 100.135C195.792 100.136 195.47 100.278 195.201 100.539C195.047 100.385 194.894 100.232 194.742 100.08C195.474 99.3132 196.791 99.2522 197.601 100.077Z" fill="white"/>
<path d="M196.582 100.955C196.582 101.185 196.396 101.371 196.166 101.371C195.936 101.371 195.75 101.185 195.75 100.955C195.75 100.726 195.936 100.539 196.166 100.539C196.396 100.539 196.582 100.726 196.582 100.955Z" fill="white"/>
<path d="M170.906 99.123C170.906 98.457 171.446 97.918 172.112 97.918C172.778 97.918 173.317 98.458 173.317 99.123C173.317 99.789 172.777 100.328 172.112 100.328C171.447 100.328 170.906 99.789 170.906 99.123Z" fill="white"/>
<path d="M174.703 99.123C174.703 98.457 175.243 97.918 175.908 97.918C176.574 97.918 177.113 98.458 177.113 99.123C177.113 99.789 176.573 100.328 175.908 100.328C175.242 100.328 174.703 99.789 174.703 99.123Z" fill="white"/>
<path d="M178.5 99.123C178.5 98.457 179.04 97.918 179.706 97.918C180.372 97.918 180.911 98.458 180.911 99.123C180.911 99.789 180.371 100.328 179.706 100.328C179.039 100.328 178.5 99.789 178.5 99.123Z" fill="white"/>
<path d="M182.297 99.123C182.297 98.457 182.837 97.918 183.502 97.918C184.168 97.918 184.707 98.458 184.707 99.123C184.707 99.789 184.167 100.328 183.502 100.328C182.837 100.328 182.297 99.789 182.297 99.123Z" fill="white"/>
<path d="M186.094 99.123C186.094 98.457 186.634 97.918 187.299 97.918C187.965 97.918 188.504 98.458 188.504 99.123C188.504 99.789 187.964 100.328 187.299 100.328C186.634 100.328 186.094 99.789 186.094 99.123Z" fill="white"/>
<path d="M327.298 101.754H317.484V97.208H327.298V101.754ZM317.984 101.254H326.798V97.708H317.984V101.254Z" fill="white"/>
<path d="M324.623 97.9814H318.297V100.983H324.623V97.9814Z" fill="white"/>
<path d="M328.178 98.2656H327.305V100.698H328.178V98.2656Z" fill="white"/>
<path d="M186.682 431.349H185.299V437.701H182.715V434.464H178.139V437.701H175.555V431.349H174.172L180.427 424.885L186.682 431.349Z" fill="white" fill-opacity="0.3"/>
<path d="M325.827 424.885H310.75V427.039H325.827V424.885Z" fill="white" fill-opacity="0.3"/>
<path d="M325.827 430.216H310.75V432.37H325.827V430.216Z" fill="white" fill-opacity="0.3"/>
<path d="M325.827 435.546H310.75V437.7H325.827V435.546Z" fill="white" fill-opacity="0.3"/>
<path d="M186.391 166.523C185.509 167.071 184.529 167.49 183.465 167.748C180.712 168.421 177.951 167.904 175.719 166.519C173.536 165.169 171.857 162.991 171.198 160.301C169.871 154.853 173.202 149.361 178.65 148.034C184.093 146.702 189.585 150.038 190.917 155.486C191.985 159.868 190.03 164.278 186.391 166.523Z" fill="#DBDBDB"/>
<path d="M184.145 156.732C184.145 158.437 182.762 159.82 181.057 159.82C179.351 159.82 177.969 158.437 177.969 156.732C177.969 155.026 179.351 153.644 181.057 153.644C182.763 153.644 184.145 155.026 184.145 156.732Z" fill="white"/>
<path d="M186.391 165.249V166.523C185.509 167.071 184.529 167.49 183.465 167.748C180.712 168.421 177.951 167.904 175.719 166.519V165.25C175.719 162.31 178.107 159.914 181.055 159.914C184.003 159.913 186.391 162.309 186.391 165.249Z" fill="white"/>
<path d="M268.443 148.323H203.93V153.643H268.443V148.323Z" fill="white" fill-opacity="0.3"/>
<path d="M260.24 157.193H203.93V160.717H260.24V157.193Z" fill="white" fill-opacity="0.3"/>
<path d="M297.041 163.978H203.93V167.502H297.041V163.978Z" fill="white" fill-opacity="0.3"/>
<path d="M159.044 303.809H340.914V176.448L159.044 176.448L159.044 303.809Z" fill="white" fill-opacity="0.3"/>
<path d="M180.305 212.651C180.305 220.972 187.051 227.718 195.372 227.718C203.693 227.718 210.439 220.972 210.439 212.651C210.439 204.329 203.693 197.584 195.372 197.584C187.05 197.583 180.305 204.329 180.305 212.651Z" fill="#DBDBDB"/>
<path d="M239.805 276.101H340.944L290.375 207.556L239.805 276.101Z" fill="#C7C7C7"/>
<path d="M200.156 276.429H283.657L241.907 231.793L200.156 276.429Z" fill="#DBDBDB"/>
<path d="M340.917 276.367H159.047V303.807H340.917V276.367Z" fill="#DBDBDB"/>
<path d="M186.391 370.965C185.509 371.513 184.529 371.932 183.465 372.19C180.712 372.863 177.951 372.346 175.719 370.961C173.536 369.611 171.857 367.433 171.198 364.743C169.871 359.295 173.202 353.803 178.65 352.476C184.093 351.144 189.585 354.48 190.917 359.928C191.985 364.31 190.03 368.72 186.391 370.965Z" fill="#DBDBDB"/>
<path d="M184.145 361.173C184.145 362.879 182.762 364.261 181.057 364.261C179.351 364.261 177.969 362.878 177.969 361.173C177.969 359.468 179.351 358.085 181.057 358.085C182.763 358.085 184.145 359.467 184.145 361.173Z" fill="white"/>
<path d="M186.391 369.69V370.964C185.509 371.512 184.529 371.931 183.465 372.189C180.712 372.862 177.951 372.345 175.719 370.96V369.691C175.719 366.751 178.107 364.355 181.055 364.355C184.003 364.354 186.391 366.75 186.391 369.69Z" fill="white"/>
<path d="M286.899 352.765H203.93V358.085H286.899V352.765Z" fill="white" fill-opacity="0.3"/>
<path d="M309.844 361.634H203.93V365.158H309.844V361.634Z" fill="white" fill-opacity="0.3"/>
<path d="M240.011 368.419H203.93V371.943H240.011V368.419Z" fill="white" fill-opacity="0.3"/>
<path d="M340.917 380.89H159.047V412H340.917V380.89Z" fill="white" fill-opacity="0.3"/>
<path d="M209.548 411.999H181.188C183.277 406.189 188.838 402.029 195.368 402.029C201.898 402.029 207.468 406.189 209.548 411.999Z" fill="#DBDBDB"/>
<path d="M171.259 318.733C170.47 315.503 172.449 312.245 175.679 311.456C178.909 310.667 182.167 312.646 182.956 315.876C183.745 319.106 181.766 322.364 178.536 323.153C175.306 323.942 172.048 321.963 171.259 318.733Z" fill="white" fill-opacity="0.3"/>
<path fill-rule="evenodd" clip-rule="evenodd" d="M176.288 319.699C176.129 319.599 175.99 319.454 175.777 319.474C175.695 319.482 175.713 319.414 175.713 319.37C175.712 318.568 175.712 317.766 175.711 316.964C175.711 316.906 175.715 316.858 175.778 316.826C176.39 316.517 176.656 315.909 177.031 315.39C177.432 314.836 177.57 314.235 177.475 313.571C177.449 313.39 177.533 313.31 177.696 313.273C177.892 313.228 178.087 313.283 178.154 313.417C178.319 313.75 178.461 314.097 178.504 314.468C178.539 314.772 178.43 315.068 178.392 315.369C178.364 315.589 178.313 315.807 178.271 316.03C178.325 316.069 178.387 316.049 178.445 316.05C179.122 316.051 179.8 316.051 180.477 316.051C180.762 316.051 180.902 316.133 180.942 316.322C180.991 316.558 180.866 316.798 180.647 316.909C180.596 316.935 180.505 316.912 180.499 316.991C180.493 317.072 180.587 317.063 180.634 317.096C180.879 317.264 180.834 317.611 180.55 317.812C180.482 317.86 180.349 317.838 180.346 317.938C180.344 318.018 180.468 318.017 180.524 318.073C180.722 318.269 180.624 318.634 180.328 318.781C180.29 318.8 180.243 318.803 180.209 318.827C180.175 318.85 180.142 318.875 180.208 318.921C180.501 319.131 180.495 319.422 180.2 319.635C180.171 319.656 180.141 319.677 180.112 319.698C180.005 319.777 179.878 319.776 179.755 319.776C178.693 319.778 177.631 319.777 176.568 319.777C176.468 319.776 176.367 319.773 176.288 319.699Z" fill="white"/>
<path fill-rule="evenodd" clip-rule="evenodd" d="M173.269 318.285C173.269 317.776 173.271 317.266 173.267 316.757C173.266 316.653 173.277 316.602 173.404 316.604C174.026 316.612 174.647 316.612 175.268 316.605C175.39 316.604 175.409 316.646 175.408 316.754C175.405 317.779 175.404 318.805 175.409 319.83C175.41 319.96 175.374 319.997 175.243 319.995C174.64 319.988 174.037 319.987 173.435 319.996C173.285 319.998 173.264 319.946 173.266 319.814C173.274 319.305 173.269 318.795 173.269 318.285Z" fill="white"/>
<path d="M183.908 318.733C183.119 315.503 185.098 312.245 188.328 311.456C191.558 310.667 194.816 312.646 195.605 315.876C196.394 319.106 194.415 322.364 191.185 323.153C187.955 323.942 184.697 321.963 183.908 318.733Z" fill="#C76323"/>
<path d="M192.83 318.056C191.92 319.89 189.757 320.979 189.757 320.979C189.757 320.979 187.593 319.89 186.685 318.056C185.927 316.526 186.408 314.872 187.603 314.511C189.317 313.993 189.757 316.977 189.757 316.977C189.757 316.977 190.197 313.992 191.912 314.511C193.107 314.873 193.587 316.526 192.83 318.056Z" fill="white"/>
<path d="M290.367 316.518H204.922V319.996H290.367V316.518Z" fill="white" fill-opacity="0.3"/>
<path d="M159.047 337.272L181.781 337.089L204.514 337.023L249.982 336.898L295.449 337.022L318.183 337.088L340.917 337.272L318.183 337.455L295.449 337.521L249.982 337.646L204.514 337.52L181.781 337.454L159.047 337.272Z" fill="white" fill-opacity="0.3"/>
</svg>
