<svg width="750" height="500" viewBox="0 0 750 500" fill="none" xmlns="http://www.w3.org/2000/svg">
<path d="M159.613 182.972C160.581 182.371 161.792 182.405 162.766 182.994C163.031 183.154 163.301 183.307 163.575 183.455C163.852 183.604 164.132 183.744 164.412 183.877C165.438 184.362 166.134 185.348 166.169 186.482L166.289 190.36L178.921 189.967L178.802 186.091C178.767 184.954 179.389 183.912 180.388 183.366C180.938 183.066 181.473 182.736 181.99 182.377C182.921 181.73 184.128 181.64 185.126 182.176L188.536 184.005L194.511 172.864L191.101 171.035C190.102 170.499 189.51 169.445 189.533 168.311C189.546 167.681 189.525 167.053 189.471 166.429C189.372 165.295 189.896 164.2 190.863 163.6L194.158 161.555L187.496 150.816L184.183 152.868C183.22 153.465 182.015 153.431 181.045 152.845C180.781 152.685 180.511 152.532 180.237 152.384C179.962 152.237 179.685 152.097 179.406 151.965C178.376 151.479 177.679 150.488 177.645 149.35L177.528 145.469L164.896 145.861L165.018 149.728C165.054 150.865 164.433 151.907 163.435 152.453C162.884 152.755 162.347 153.087 161.828 153.448C160.897 154.096 159.689 154.187 158.689 153.65L155.28 151.822L149.305 162.963L152.714 164.791C153.714 165.327 154.307 166.383 154.282 167.518C154.268 168.15 154.288 168.781 154.342 169.407C154.439 170.541 153.915 171.634 152.947 172.234L149.658 174.271L156.32 185.01L159.613 182.972ZM162.779 163.025C165.481 157.987 171.763 156.091 176.802 158.793C181.84 161.495 183.727 167.773 181.026 172.811C178.324 177.849 172.055 179.741 167.017 177.039C161.978 174.336 160.077 168.063 162.779 163.025Z" fill="#DBDBDB"/>
<path d="M572.409 205.074C573.1 205.473 573.48 206.231 573.439 207.028C573.428 207.244 573.423 207.462 573.423 207.68C573.423 207.901 573.428 208.119 573.439 208.336C573.48 209.13 573.101 209.886 572.412 210.284L570.058 211.642L574.483 219.31L576.837 217.953C577.528 217.555 578.377 217.594 579.044 218.03C579.411 218.27 579.792 218.491 580.185 218.691C580.892 219.052 581.347 219.767 581.347 220.561V223.272H590.203V220.561C590.203 219.767 590.658 219.052 591.365 218.691C591.758 218.491 592.139 218.27 592.506 218.03C593.173 217.594 594.023 217.554 594.713 217.953L597.066 219.31L601.491 211.642L599.127 210.276C598.44 209.879 598.062 209.124 598.102 208.331C598.113 208.115 598.119 207.898 598.119 207.68C598.119 207.462 598.113 207.244 598.102 207.028C598.061 206.231 598.442 205.473 599.133 205.075L601.491 203.718L597.066 196.049L594.719 197.405C594.029 197.804 593.18 197.765 592.512 197.33C592.143 197.089 591.76 196.868 591.365 196.667C590.657 196.307 590.201 195.591 590.201 194.796V192.086H581.345V194.796C581.345 195.591 580.889 196.306 580.181 196.667C579.786 196.868 579.403 197.089 579.034 197.33C578.366 197.765 577.517 197.804 576.827 197.405L574.48 196.049L570.055 203.718L572.409 205.074ZM585.772 200.424C589.777 200.424 593.028 203.675 593.028 207.68C593.028 211.685 589.777 214.929 585.772 214.929C581.767 214.929 578.523 211.685 578.523 207.68C578.523 203.675 581.767 200.424 585.772 200.424Z" fill="#DBDBDB"/>
<path d="M616.672 280.703C616.672 299.742 632.114 315.184 651.153 315.184C670.2 315.184 685.634 299.742 685.634 280.703C685.634 261.656 670.201 246.222 651.153 246.222C632.113 246.222 616.672 261.655 616.672 280.703ZM635.045 280.703C635.045 271.808 642.257 264.596 651.152 264.596C660.047 264.596 667.259 271.808 667.259 280.703C667.259 289.599 660.047 296.802 651.152 296.802C642.257 296.801 635.045 289.598 635.045 280.703Z" fill="#EBEBEB"/>
<path d="M644.523 247.651H657.782L657.049 238.265H645.256L644.523 247.651Z" fill="#EBEBEB"/>
<path d="M669.758 252.119L679.134 261.495L685.253 254.34L676.914 246L669.758 252.119Z" fill="#EBEBEB"/>
<path d="M684.445 273.124V286.384L693.832 285.651V273.857L684.445 273.124Z" fill="#EBEBEB"/>
<path d="M679.978 298.362L670.602 307.738L677.757 313.856L686.096 305.517L679.978 298.362Z" fill="#EBEBEB"/>
<path d="M658.978 313.05H645.719L646.452 322.436H658.245L658.978 313.05Z" fill="#EBEBEB"/>
<path d="M633.737 308.582L624.361 299.206L618.242 306.362L626.582 314.701L633.737 308.582Z" fill="#EBEBEB"/>
<path d="M619.05 287.576V274.316L609.664 275.049V286.843L619.05 287.576Z" fill="#EBEBEB"/>
<path d="M623.516 262.339L632.892 252.962L625.737 246.844L617.398 255.183L623.516 262.339Z" fill="#EBEBEB"/>
<path d="M63.1719 114.563C63.1719 133.602 78.6139 149.044 97.6529 149.044C116.7 149.044 132.134 133.603 132.134 114.563C132.134 95.516 116.701 80.083 97.6529 80.083C78.6139 80.082 63.1719 95.515 63.1719 114.563ZM81.5459 114.563C81.5459 105.668 88.7579 98.456 97.6529 98.456C106.548 98.456 113.76 105.667 113.76 114.563C113.76 123.459 106.548 130.662 97.6529 130.662C88.7579 130.661 81.5459 123.458 81.5459 114.563Z" fill="#EBEBEB"/>
<path d="M91.0234 81.511H104.283L103.55 72.125H91.7564L91.0234 81.511Z" fill="#EBEBEB"/>
<path d="M116.266 85.9793L125.642 95.3554L131.761 88.2003L123.421 79.8604L116.266 85.9793Z" fill="#EBEBEB"/>
<path d="M130.945 106.984V120.244L140.331 119.511V107.717L130.945 106.984Z" fill="#EBEBEB"/>
<path d="M126.478 132.223L117.102 141.598L124.258 147.717L132.597 139.378L126.478 132.223Z" fill="#EBEBEB"/>
<path d="M105.479 146.91H92.2188L92.9517 156.296H104.746L105.479 146.91Z" fill="#EBEBEB"/>
<path d="M80.2372 142.442L70.8612 133.066L64.7422 140.221L73.0812 148.561L80.2372 142.442Z" fill="#EBEBEB"/>
<path d="M65.5501 121.437V108.177L56.1641 108.91V120.704L65.5501 121.437Z" fill="#EBEBEB"/>
<path d="M70.0174 96.1991L79.3934 86.8221L72.2384 80.7041L63.8984 89.0431L70.0174 96.1991Z" fill="#EBEBEB"/>
<path d="M426.329 154.869C420.295 154.97 405.077 155.221 399.245 155.284L390.111 155.326L389.656 155.328L389.654 154.869L389.611 143.68L389.609 143.179L390.11 143.181L408.219 143.249C412.728 143.289 421.819 143.384 426.328 143.448L426.565 143.451L426.56 143.681L426.329 154.869ZM426.329 154.869L426.096 143.68L426.328 143.912C421.81 143.976 412.735 144.072 408.219 144.111L390.11 144.179L390.609 143.68L390.566 154.869L390.109 154.412L399.084 154.454C404.827 154.519 420.391 154.771 426.329 154.869Z" fill="#EBEBEB"/>
<path d="M406.126 168.978C400.092 169.079 384.874 169.33 379.042 169.393L369.908 169.435L369.453 169.437L369.451 168.978L369.408 157.789L369.406 157.288L369.907 157.29L388.016 157.358C392.525 157.398 401.616 157.493 406.125 157.557L406.362 157.56L406.357 157.79L406.126 168.978ZM406.126 168.978L405.893 157.789L406.125 158.021C401.607 158.085 392.532 158.181 388.016 158.22L369.907 158.288L370.406 157.789L370.363 168.978L369.906 168.521L378.881 168.563C384.625 168.628 400.188 168.88 406.126 168.978Z" fill="#EBEBEB"/>
<path d="M446.538 157.789H410.32V168.978H446.538V157.789Z" fill="#EBEBEB"/>
<path d="M293.947 250C287.913 250.101 272.695 250.352 266.863 250.415L257.729 250.457L257.274 250.459L257.272 250L257.229 238.811L257.227 238.31L257.728 238.312L275.837 238.38C280.346 238.42 289.437 238.515 293.946 238.579L294.183 238.582L294.178 238.812L293.947 250ZM293.947 250L293.715 238.811L293.947 239.043C289.429 239.107 280.354 239.203 275.838 239.241L257.729 239.309L258.228 238.81L258.186 250L257.729 249.543L266.704 249.585C272.445 249.65 288.009 249.902 293.947 250Z" fill="#EBEBEB"/>
<path d="M670.4 63.6119C664.366 63.7129 649.148 63.9639 643.316 64.0269L634.182 64.0689L633.727 64.0709L633.725 63.6119L633.682 52.4229L633.68 51.9219L634.182 51.9239L652.291 51.9919C656.8 52.0319 665.891 52.1269 670.4 52.1899L670.637 52.1929L670.632 52.4229L670.4 63.6119ZM670.4 63.6119L670.168 52.4229L670.4 52.6549C665.882 52.7189 656.807 52.8149 652.291 52.8539L634.182 52.9219L634.681 52.4229L634.638 63.6119L634.181 63.1549L643.156 63.1969C648.898 63.2619 664.462 63.5139 670.4 63.6119Z" fill="#EBEBEB"/>
<path d="M690.601 66.5322H654.383V77.7212H690.601V66.5322Z" fill="#EBEBEB"/>
<path d="M95.6184 63.6236C89.5844 63.7246 74.3664 63.9756 68.5344 64.0386L59.4004 64.0806L58.9454 64.0826L58.9434 63.6236L58.9004 52.4346L58.8984 51.9336L59.3994 51.9356L77.5084 52.0036C82.0164 52.0436 91.1084 52.1386 95.6174 52.2016L95.8544 52.2046L95.8494 52.4346L95.6184 63.6236ZM95.6184 63.6236L95.3864 52.4346L95.6184 52.6666C91.1004 52.7306 82.0254 52.8266 77.5094 52.8656L59.4004 52.9336L59.8994 52.4346L59.8564 63.6236L59.3994 63.1666L68.3744 63.2086C74.1164 63.2736 89.6794 63.5256 95.6184 63.6236Z" fill="#EBEBEB"/>
<path d="M79.6042 399.127C85.6202 399.028 101.041 398.777 106.847 398.712L115.822 398.67L115.365 399.127L115.322 387.938L115.821 388.437L97.7122 388.368C93.2032 388.333 84.1122 388.231 79.6032 388.171L79.8352 387.939L79.6042 399.127ZM79.6042 399.127L79.3722 387.938L79.3672 387.708L79.6042 387.704C84.1232 387.645 93.1972 387.542 97.7132 387.507L115.822 387.439L116.323 387.437L116.321 387.938L116.278 399.127L116.276 399.586L115.821 399.584L106.687 399.542C100.919 399.48 85.5622 399.226 79.6042 399.127Z" fill="#EBEBEB"/>
<path d="M59.3992 413.236H95.6172V402.047H59.3992V413.236Z" fill="#EBEBEB"/>
<path d="M654.386 399.139C660.402 399.04 675.822 398.789 681.629 398.724L690.604 398.682L690.147 399.139L690.104 387.95L690.603 388.449L672.494 388.381C667.985 388.346 658.894 388.243 654.385 388.183L654.617 387.951L654.386 399.139ZM654.386 399.139L654.153 387.95L654.148 387.72L654.385 387.717C658.904 387.658 667.978 387.554 672.494 387.518L690.603 387.45L691.104 387.448L691.102 387.949L691.059 399.138L691.057 399.597L690.602 399.595L681.468 399.553C675.701 399.492 660.345 399.238 654.386 399.139Z" fill="#EBEBEB"/>
<path d="M669.703 413.572H557.57V466.137H669.703V413.572Z" fill="#EBEBEB"/>
<path opacity="0.1" d="M669.704 413.572H632.578V466.137H669.704V413.572Z" fill="#020100"/>
<path opacity="0.1" d="M669.704 413.572H557.57V425.123L669.704 419.348V413.572Z" fill="#020100"/>
<path d="M674.565 403.6H552.703V416.783H674.565V403.6Z" fill="#EBEBEB"/>
<path opacity="0.1" d="M674.566 403.6H634.219V416.783H674.566V403.6Z" fill="#020100"/>
<path d="M608.063 423.889H582.078V431.953H608.063V423.889Z" fill="#A6A6A6"/>
<path d="M619.742 343.575H547.633V395.846H619.742V343.575Z" fill="#EBEBEB"/>
<path d="M573.111 338.162H547.633V343.575H574.575L573.111 338.162Z" fill="#EBEBEB"/>
<g opacity="0.3">
<path d="M619.742 343.575H547.633V395.846H619.742V343.575Z" fill="black"/>
<path d="M573.111 338.162H547.633V343.575H574.575L573.111 338.162Z" fill="black"/>
</g>
<path d="M570.97 340.277H550.133V343.427H570.97V340.277Z" fill="white"/>
<path d="M619.742 395.846H547.632L547.109 346.816H619.218L619.742 395.846Z" fill="#EBEBEB"/>
<path d="M572.533 341.853H547.055L547.109 346.817H574.051L572.533 341.853Z" fill="#EBEBEB"/>
<g opacity="0.1">
<path d="M619.742 395.846H547.632L547.109 346.816H619.218L619.742 395.846Z" fill="black"/>
<path d="M572.533 341.853H547.055L547.109 346.817H574.051L572.533 341.853Z" fill="black"/>
</g>
<path d="M610.445 347.516H538.336V399.787H610.445V347.516Z" fill="#EBEBEB"/>
<path d="M563.814 342.102H538.336V347.516H565.278L563.814 342.102Z" fill="#EBEBEB"/>
<g opacity="0.2">
<path d="M610.445 347.516H538.336V399.787H610.445V347.516Z" fill="white"/>
<path d="M563.814 342.102H538.336V347.516H565.278L563.814 342.102Z" fill="white"/>
</g>
<path d="M561.673 344.217H540.836V347.367H561.673V344.217Z" fill="white"/>
<path d="M610.445 399.786H538.336L537.812 350.757H609.922L610.445 399.786Z" fill="#EBEBEB"/>
<path d="M563.236 345.792H537.758L537.812 350.757H564.754L563.236 345.792Z" fill="#EBEBEB"/>
<g opacity="0.4">
<path d="M610.445 399.786H538.336L537.812 350.757H609.922L610.445 399.786Z" fill="white"/>
<path d="M563.236 345.792H537.758L537.812 350.757H564.754L563.236 345.792Z" fill="white"/>
</g>
<path d="M647.445 351.034H535.312V403.599H647.445V351.034Z" fill="#DBDBDB"/>
<path d="M647.445 351.034H610.32V403.599H647.445V351.034Z" fill="#C7C7C7"/>
<path opacity="0.1" d="M647.447 351.034H535.312V362.585L647.447 356.81V351.034Z" fill="#020100"/>
<path d="M585.813 361.351H559.828V369.415H585.813V361.351Z" fill="#A6A6A6"/>
<path d="M671.389 345.722L551.672 322.995L549.213 335.946L668.93 358.673L671.389 345.722Z" fill="#DBDBDB"/>
<path d="M671.387 345.723L631.75 338.198L629.291 351.149L668.928 358.674L671.387 345.723Z" fill="#C7C7C7"/>
<path d="M392.981 82.7031L361.249 144.687L352.323 130.871L246.517 199.278L226.555 168.409L332.35 100.012L323.424 86.1971L392.981 82.7031Z" fill="#EBEBEB"/>
<path d="M186.64 194.218L206.591 225.088L203.907 226.824L183.945 195.954L186.64 194.218Z" fill="#EBEBEB"/>
<path d="M200.613 185.175L220.575 216.044L211.436 221.956L191.484 191.087L200.613 185.175Z" fill="#EBEBEB"/>
<path d="M220.309 172.446L240.27 203.315L226.157 212.444L206.195 181.564L220.309 172.446Z" fill="#EBEBEB"/>
<path d="M219.869 261.85L201.547 297.63L196.392 289.663L135.345 329.128L123.82 311.318L184.877 271.842L179.732 263.874L219.869 261.85Z" fill="#DBDBDB"/>
<path d="M120.218 313.65L131.733 331.46L123.595 336.733L112.07 318.912L120.218 313.65Z" fill="#DBDBDB"/>
<path d="M108.852 320.985L103.578 324.393L115.093 342.213L120.366 338.805L108.852 320.985Z" fill="#DBDBDB"/>
<path d="M100.779 326.21L112.304 344.031L110.749 345.032L99.2344 327.211L100.779 326.21Z" fill="#DBDBDB"/>
<path d="M188.773 384.723C181.62 374.059 171.817 359.406 164.938 348.753C165.525 348.371 168.297 346.561 168.883 346.18C175.655 356.738 185.505 372.091 191.977 382.652L192.026 382.732L191.949 382.779L188.773 384.723ZM188.773 384.723L191.848 382.625L191.822 382.752C185.005 372.741 175.012 357.432 168.315 347.144L169.007 347.292L165.873 349.3L166.018 348.63C172.681 358.933 182.18 374.136 188.773 384.723Z" fill="#EBEBEB"/>
<path d="M408.214 217.447C407.696 218.1 371.83 289.353 371.407 289.921L371.157 289.535L360.773 273.517C362.753 273.268 237.984 353.099 238.477 353.146C238.476 353.146 238.08 353.403 238.08 353.403L237.823 353.006L214.664 317.174L214.406 316.775L214.805 316.518C214.9 316.847 338.42 236.134 337.605 237.694C337.605 237.695 327.261 221.651 327.261 221.651L327.011 221.263C327.401 221.209 407.775 217.493 408.214 217.447ZM408.214 217.447C408.215 217.192 326.324 222.481 327.705 221.363C327.706 221.362 338.09 237.38 338.09 237.38C338.782 237.895 215.426 316.93 215.319 317.315C215.319 317.314 215.46 316.659 215.46 316.659L238.616 352.493L237.963 352.353C238.37 352.431 361.056 272.334 361.257 273.203C361.258 273.203 371.602 289.247 371.602 289.247C369.976 290.219 408.577 217.362 408.214 217.447Z" fill="#EBEBEB"/>
<path d="M184.961 336.377C188.906 342.291 198.862 357.225 202.643 362.96L208.514 371.962L208.764 372.345L208.378 372.596L197.791 379.48L197.371 379.753L197.1 379.332C193.271 373.376 183.501 358.171 179.857 352.379L174.162 343.361L174.039 343.167L174.229 343.049L184.961 336.377ZM184.961 336.377L174.474 343.426L174.541 343.114L180.43 352.007C184.176 357.644 194.123 372.921 197.939 378.788L197.249 378.64L207.881 371.826L207.745 372.46L202.032 363.545C198.411 357.828 188.678 342.307 184.961 336.377Z" fill="#EBEBEB"/>
<path d="M207.809 321.604C214.781 332.144 224.577 346.717 231.349 357.197L231.589 357.568L231.218 357.809L214.866 368.445L214.446 368.718L214.175 368.296L202.648 350.346C198.737 344.294 194.917 338.182 191.047 332.104C195.287 329.446 203.563 324.246 207.809 321.604ZM207.809 321.604C203.774 324.318 195.631 329.731 191.59 332.429L191.674 332.039C195.576 337.984 199.524 343.899 203.384 349.871L215.014 367.754L214.323 367.606L230.736 357.066L230.605 357.678C223.968 347.354 214.445 332.166 207.809 321.604Z" fill="#EBEBEB"/>
<path d="M59.2891 466.138C261.553 465.526 488.444 465.521 690.707 466.138C488.443 466.755 261.552 466.751 59.2891 466.138Z" fill="#263238"/>
<path d="M109.1 254.462C109.1 254.462 82.195 250.695 88.484 218.216C88.484 218.216 118.545 224.964 109.1 254.462Z" fill="#C76323"/>
<path opacity="0.1" d="M109.1 254.462C109.1 254.462 82.195 250.695 88.484 218.216C88.484 218.216 118.545 224.964 109.1 254.462Z" fill="black"/>
<path d="M107.737 247.682C107.211 246.039 106.592 244.426 105.905 242.841C105.884 242.634 105.853 242.426 105.836 242.227C105.796 241.78 105.759 241.332 105.724 240.885C105.648 239.916 105.587 238.947 105.53 237.977C105.416 236.038 105.291 234.094 105.262 232.151C105.26 232.045 105.099 232.051 105.098 232.156C105.081 234.101 105.052 236.041 105.127 237.986C105.165 238.957 105.22 239.928 105.285 240.897C105.299 241.113 105.316 241.327 105.331 241.542C103.827 238.305 102.007 235.212 99.9374 232.317C99.0134 231.025 98.0404 229.783 96.9954 228.587C95.9224 227.36 94.7894 226.192 93.7044 224.977C93.6344 224.899 93.5174 225.018 93.5914 225.095C95.5704 227.158 97.2064 229.608 98.7764 231.988C99.5934 233.226 100.365 234.496 101.1 235.787C101.016 235.754 100.932 235.723 100.85 235.688C100.531 235.556 100.213 235.425 99.8914 235.302C99.1604 235.021 98.4284 234.742 97.6954 234.47C96.2524 233.934 94.8064 233.407 93.3674 232.86C93.2814 232.827 93.2214 232.977 93.3074 233.012C94.7374 233.583 96.1534 234.185 97.5674 234.796C98.2614 235.096 98.9574 235.393 99.6514 235.692C99.9994 235.842 100.35 235.983 100.701 236.126C100.936 236.222 101.167 236.339 101.415 236.378C101.958 237.352 102.495 238.331 102.99 239.328C104.235 241.84 105.343 244.435 106.278 247.078C106.344 247.264 106.407 247.45 106.472 247.636C105.808 247.188 104.96 246.895 104.267 246.574C103.341 246.145 102.41 245.73 101.483 245.304C99.5974 244.437 97.7214 243.558 95.9134 242.537C95.8214 242.485 95.7414 242.631 95.8344 242.682C97.6834 243.692 99.4944 244.767 101.346 245.772C102.272 246.274 103.202 246.762 104.15 247.221C104.928 247.598 105.804 248.123 106.677 248.233C107.519 250.717 108.225 253.233 108.44 255.865C108.74 259.538 108.706 263.24 108.792 266.921C108.793 266.986 108.885 266.982 108.89 266.919C109.158 263.579 109.309 260.209 109.324 256.858C109.339 253.669 108.704 250.704 107.737 247.682Z" fill="#263238"/>
<path d="M103.6 228.582C103.389 230.472 103.201 232.408 103.332 234.31C103.336 234.363 103.411 234.36 103.414 234.308C103.522 232.408 103.539 230.515 103.759 228.622C103.771 228.518 103.612 228.477 103.6 228.582Z" fill="#263238"/>
<path d="M95.9064 230.207C94.7144 229.702 93.5304 229.227 92.4464 228.508C92.3584 228.45 92.2774 228.596 92.3674 228.652C93.4534 229.329 94.6164 229.99 95.8624 230.321C95.9274 230.339 95.9724 230.235 95.9064 230.207Z" fill="#263238"/>
<path d="M109.96 306.024C109.938 303.051 109.882 300.078 109.847 297.105C109.791 287.231 109.71 277.358 109.532 267.484C109.391 259.645 109.207 251.81 108.984 243.972C108.983 243.927 108.954 243.895 108.916 243.872C108.905 241.731 108.896 239.591 108.882 237.451C108.882 237.396 108.818 237.37 108.754 237.372C108.69 237.373 108.625 237.401 108.625 237.455C108.612 239.599 108.598 241.743 108.585 243.887C108.553 243.911 108.525 243.939 108.523 243.98C108.128 257.93 107.774 271.882 107.692 285.835C107.675 288.672 107.677 291.509 107.664 294.346C107.569 303.443 107.527 312.54 107.56 321.637C107.55 323.085 107.533 324.533 107.528 325.982C107.499 334.305 107.614 342.628 107.617 350.951C107.617 351.399 108.115 351.622 108.643 351.642C109.246 351.666 109.89 351.426 109.889 350.914C109.892 341.735 109.952 332.557 109.951 323.379C109.981 317.595 110.003 311.809 109.96 306.024Z" fill="#263238"/>
<path d="M98.7211 296.993C98.7211 296.993 85.7801 287.405 73.4981 293.883C61.2151 300.361 59.2891 325.336 59.2891 325.336C59.2891 325.336 77.3241 327.915 88.6821 317.105C99.6271 306.688 98.7211 296.993 98.7211 296.993Z" fill="#C76323"/>
<path d="M102.246 297.584C99.9036 296.6 97.2956 296.357 94.7486 296.606C94.2326 296.491 93.6856 296.489 93.1626 296.451C92.5546 296.408 91.9466 296.362 91.3386 296.314C90.0816 296.216 88.8226 296.141 87.5646 296.047C85.0116 295.856 82.4506 295.7 79.9036 295.444C79.8126 295.435 79.7936 295.594 79.8856 295.606C82.4066 295.928 84.9176 296.287 87.4466 296.543C88.7466 296.674 90.0486 296.809 91.3526 296.902C91.6586 296.924 91.9766 296.958 92.2996 296.994C91.9126 297.08 91.5276 297.172 91.1506 297.279C89.1216 297.854 87.1656 298.677 85.2866 299.662C84.2666 299.845 83.2546 300.13 82.2536 300.366C80.6526 300.743 79.0586 301.156 77.4666 301.573C74.3246 302.396 71.2146 303.322 68.0966 304.23C67.9946 304.26 68.0416 304.412 68.1446 304.387C71.2606 303.623 74.3936 302.922 77.5146 302.179C79.0316 301.818 80.5516 301.462 82.0656 301.089C82.4576 300.992 82.8556 300.903 83.2556 300.814C79.7706 302.959 76.6366 305.712 74.0576 308.811C71.4826 311.905 69.4326 315.291 67.6656 318.893C67.6206 318.986 67.7506 319.075 67.8036 318.981C69.8956 315.316 72.5266 311.865 75.5396 308.828C75.4826 309 75.4256 309.172 75.3706 309.345C75.1296 310.107 74.8916 310.869 74.6516 311.631C74.1726 313.155 73.6876 314.677 73.2326 316.208C73.2016 316.311 73.3566 316.345 73.3916 316.248C73.9366 314.771 74.4546 313.285 74.9756 311.8C75.2316 311.071 75.4876 310.343 75.7436 309.614C75.8766 309.236 76.0036 308.857 76.1316 308.478C76.1706 308.361 76.2166 308.246 76.2566 308.131C77.7106 306.726 79.2386 305.406 80.8466 304.22C82.9686 302.653 85.2886 301.33 87.7156 300.282C87.6706 300.507 87.6306 300.731 87.5846 300.945C87.4576 301.535 87.3256 302.124 87.2036 302.715C86.9506 303.94 86.7126 305.168 86.4736 306.396C85.9866 308.9 85.6846 311.436 85.2146 313.942C85.1956 314.045 85.3496 314.085 85.3736 313.982C85.9536 311.463 86.7016 308.985 87.2636 306.46C87.5446 305.198 87.8296 303.936 88.0916 302.67C88.2136 302.079 88.3316 301.486 88.4516 300.895C88.5186 300.565 88.5956 300.235 88.6336 299.905C88.8686 299.811 89.0986 299.703 89.3366 299.615C92.7316 298.358 96.4846 297.445 100.104 298.14C103.566 298.804 106.534 301.127 107.893 304.381C108.011 304.662 108.455 304.487 108.39 304.199C107.686 301.089 105.089 298.78 102.246 297.584Z" fill="#263238"/>
<path d="M82.4347 308.249C82.0687 309.888 81.7057 311.528 81.3427 313.168C80.9967 314.734 80.5697 316.352 80.4377 317.953C80.4327 318.017 80.5247 318.018 80.5427 317.965C81.0717 316.423 81.3277 314.742 81.6417 313.146C81.9607 311.527 82.2777 309.909 82.5927 308.289C82.6137 308.185 82.4577 308.145 82.4347 308.249Z" fill="#263238"/>
<path d="M69.9195 312.417C68.2715 313.253 66.6745 314.203 64.9535 314.888C64.8445 314.931 64.9135 315.09 65.0205 315.036C66.6775 314.21 68.3935 313.479 69.9585 312.48C69.9985 312.454 69.9615 312.396 69.9195 312.417Z" fill="#263238"/>
<path d="M101.632 279.385C101.632 279.385 85.8162 280.394 78.4582 269.964C71.1012 259.534 72.7522 244.641 72.7522 244.641C72.7522 244.641 89.3662 246.66 95.9632 254.149C102.561 261.638 101.632 279.385 101.632 279.385Z" fill="#C76323"/>
<path d="M109.055 294.991C108.508 293.296 107.829 291.627 107.189 289.965C106.575 288.368 105.918 286.789 105.221 285.227C103.8 282.039 102.232 278.927 100.48 275.908C99.3638 273.986 98.1678 272.121 96.9368 270.282C96.9118 270.002 96.8558 269.721 96.8128 269.44C96.7388 268.95 96.6688 268.46 96.5918 267.972C96.4348 266.971 96.2598 265.972 96.0928 264.972C95.7288 262.788 95.2778 260.619 94.9308 258.432C94.9148 258.33 94.7508 258.331 94.7668 258.436C95.0858 260.593 95.3028 262.765 95.6048 264.925C95.7528 265.986 95.8918 267.048 96.0538 268.107C96.1118 268.49 96.1728 268.873 96.2338 269.255C93.8168 265.735 91.2178 262.345 88.4098 259.106C88.0318 258.67 87.6408 258.243 87.2548 257.814C87.2158 257.693 87.1558 257.575 87.1078 257.452C86.9908 257.151 86.8758 256.849 86.7638 256.547C86.5318 255.92 86.3038 255.29 86.0788 254.661C85.6348 253.422 85.2368 252.173 84.9008 250.9C84.8738 250.798 84.7188 250.845 84.7438 250.948C85.0628 252.246 85.4008 253.542 85.7798 254.824C85.9628 255.443 86.1668 256.054 86.3848 256.662C86.4218 256.764 86.4598 256.865 86.4978 256.967C84.4758 254.764 82.3678 252.64 80.2378 250.541C80.1618 250.466 80.0508 250.584 80.1248 250.66C84.2578 254.892 87.9108 259.565 91.3328 264.388C90.9468 264.264 90.5498 264.167 90.1618 264.091C88.9438 263.855 87.7158 263.682 86.4858 263.526C83.9088 263.198 81.3388 262.873 78.7728 262.468C78.6698 262.452 78.6278 262.607 78.7328 262.627C81.1838 263.11 83.6118 263.662 86.0468 264.221C87.1958 264.485 88.3478 264.71 89.5038 264.937C90.4668 265.127 91.3608 265.421 92.2808 265.729C92.5358 266.095 92.8018 266.455 93.0538 266.823C94.2148 268.513 95.3278 270.236 96.4188 271.974C95.8808 271.866 95.3428 271.763 94.8048 271.659C93.5838 271.422 92.3568 271.201 91.1298 270.999C88.7178 270.602 86.3028 270.183 83.9188 269.64C83.8158 269.617 83.7758 269.775 83.8788 269.799C86.2978 270.367 88.6938 271.03 91.0948 271.669C92.2528 271.977 93.4208 272.26 94.5898 272.518C95.1758 272.647 95.7608 272.777 96.3478 272.897C96.6008 272.949 96.8368 273.015 97.0598 273.019C99.3698 276.766 101.54 280.601 103.546 284.513C104.429 286.234 105.276 287.972 106.101 289.722C106.947 291.518 107.67 293.351 108.45 295.174C108.606 295.538 109.184 295.388 109.055 294.991Z" fill="#263238"/>
<path d="M92.8708 258.639C92.5688 257.13 92.2508 255.625 91.9168 254.124C91.8938 254.02 91.7388 254.069 91.7598 254.172C92.0598 255.654 92.3448 257.139 92.6138 258.627C92.8808 260.103 93.0948 261.615 93.5108 263.058C93.5188 263.084 93.5608 263.078 93.5588 263.05C93.4788 261.571 93.1608 260.089 92.8708 258.639Z" fill="#263238"/>
<path d="M83.6368 258.199C82.9028 257.834 82.1278 257.538 81.3638 257.242C80.9638 257.087 80.5638 256.931 80.1648 256.773C79.9608 256.692 79.7568 256.61 79.5538 256.528C79.3378 256.441 79.0728 256.376 78.8858 256.235C78.7668 256.145 78.6908 256.354 78.8098 256.374C79.0428 256.413 79.2708 256.555 79.4858 256.651C79.6858 256.74 79.8848 256.829 80.0848 256.919C80.4698 257.09 80.8538 257.263 81.2388 257.434C82.0018 257.771 82.7778 258.11 83.5748 258.359C83.6678 258.387 83.7248 258.243 83.6368 258.199Z" fill="#263238"/>
<path d="M117.82 266.947C117.82 266.947 127.393 249.067 141.955 246.298C156.517 243.529 165.429 258.512 165.429 258.512C165.429 258.512 154.808 272.077 141.444 274.444C128.081 276.813 117.82 266.947 117.82 266.947Z" fill="#C76323"/>
<path d="M151.715 254.312C147.942 253.794 144.078 253.855 140.294 254.448C140.512 254.328 140.729 254.208 140.944 254.1C142.025 253.552 143.099 252.995 144.175 252.436C146.411 251.273 148.671 250.035 151.012 249.097C151.121 249.053 151.054 248.898 150.945 248.948C148.667 250.009 146.306 250.898 144.021 251.949C142.878 252.474 141.754 253.022 140.643 253.612C139.925 253.993 139.129 254.353 138.423 254.808C135.224 255.464 132.1 256.481 129.167 257.883C129.774 257.222 130.383 256.563 130.988 255.9C132.345 254.414 133.68 252.854 135.171 251.5C135.249 251.429 135.13 251.316 135.052 251.387C133.527 252.771 131.919 254.052 130.441 255.491C129.724 256.189 129.038 256.913 128.369 257.658C128.036 258.029 127.702 258.413 127.385 258.81C121.052 262.252 115.665 267.448 112.111 273.728C110.091 277.297 108.681 281.158 107.861 285.173C107.84 285.273 107.986 285.33 108.017 285.226C110.016 278.476 113.791 272.133 118.722 267.11C124.072 261.661 130.829 257.725 138.232 255.822C142.627 254.693 147.171 254.3 151.696 254.599C151.882 254.611 151.897 254.336 151.715 254.312Z" fill="#263238"/>
<path opacity="0.1" d="M165.437 258.515C165.437 258.515 154.813 272.082 141.446 274.446C131.253 276.254 122.867 270.936 119.462 268.32L118.727 267.112C118.727 267.112 125.621 261.301 138.662 257.948C151.702 254.595 165.437 258.515 165.437 258.515Z" fill="black"/>
<path d="M143.256 247.937C142.15 248.611 141.051 249.282 140.021 250.071C139.008 250.848 138.066 251.691 137.212 252.641C137.136 252.725 137.254 252.832 137.337 252.76C138.304 251.921 139.275 251.08 140.279 250.285C141.264 249.504 142.268 248.731 143.342 248.076C143.432 248.021 143.346 247.882 143.256 247.937Z" fill="#263238"/>
<path d="M151.253 250.964C150.713 251.189 150.162 251.383 149.623 251.607C149.083 251.832 148.542 252.056 148.002 252.28C147.886 252.328 147.941 252.516 148.059 252.468C148.601 252.249 149.142 252.029 149.684 251.809C150.227 251.589 150.757 251.34 151.3 251.12C151.398 251.082 151.35 250.923 151.253 250.964Z" fill="#263238"/>
<path d="M115.906 289.449C115.906 289.449 118.464 307.186 131.801 313.39C145.138 319.594 161.398 313.39 161.398 313.39C161.398 313.39 155.004 275.016 115.906 289.449Z" fill="#C76323"/>
<path d="M152.209 301.853C150.979 301.713 149.756 301.503 148.538 301.28C147.94 301.171 147.342 301.058 146.746 300.941C146.443 300.882 146.127 300.809 145.81 300.753C145.451 300.418 145.098 300.078 144.73 299.753C142.205 297.528 139.467 295.556 136.573 293.84C134.997 292.906 133.362 292.068 131.684 291.328C131.768 291.332 131.851 291.336 131.935 291.34C133.398 291.403 134.862 291.463 136.325 291.531C139.253 291.667 142.179 291.732 145.105 291.92C145.21 291.927 145.205 291.763 145.101 291.756C142.164 291.557 139.244 291.234 136.311 290.982C134.889 290.859 133.467 290.731 132.045 290.602C131.313 290.536 130.58 290.474 129.848 290.411C129.66 290.395 129.472 290.372 129.285 290.351C128.524 290.067 127.758 289.799 126.983 289.559C123.336 288.427 119.424 287.978 115.686 288.936C112.33 289.795 108.982 291.994 108.113 295.531C108.083 295.653 108.273 295.738 108.325 295.614C109.576 292.658 112.857 291.17 115.819 290.555C117.81 290.141 119.849 290.164 121.859 290.437C121.941 291.345 122.284 292.28 122.532 293.118C122.901 294.366 123.265 295.616 123.643 296.861C124.399 299.352 125.232 301.82 125.97 304.316C126 304.418 126.153 304.371 126.127 304.269C125.508 301.78 124.985 299.267 124.385 296.774C124.09 295.549 123.782 294.328 123.479 293.105C123.284 292.321 123.121 291.396 122.807 290.584C123.98 290.79 125.139 291.068 126.268 291.4C128.317 292.002 130.337 292.75 132.312 293.615C132.508 294.88 132.79 296.133 133.08 297.379C133.445 298.945 133.851 300.496 134.347 302.026C134.378 302.123 134.516 302.078 134.497 301.981C134.477 301.885 134.457 301.788 134.438 301.692C134.438 301.69 134.435 301.69 134.435 301.688C134.136 300.237 133.816 298.792 133.51 297.343C133.264 296.175 133.037 295.002 132.783 293.835C134.44 294.579 136.068 295.393 137.644 296.297C137.676 296.658 137.765 297.028 137.817 297.358C137.913 297.966 138.024 298.572 138.135 299.178C138.386 300.546 138.659 301.91 138.987 303.263C139.618 305.866 140.327 308.471 141.28 310.976C141.26 311.006 141.253 311.045 141.282 311.079C141.307 311.108 141.332 311.138 141.358 311.168C141.415 311.235 141.51 311.157 141.493 311.085C140.876 308.457 140.171 305.851 139.594 303.212C139.306 301.895 139.015 300.578 138.751 299.256C138.619 298.595 138.498 297.933 138.373 297.27C138.338 297.084 138.311 296.881 138.281 296.677C140.081 297.742 141.824 298.895 143.474 300.141C146.32 302.289 149.046 304.742 151.424 307.398C151.519 307.504 151.708 307.354 151.62 307.239C150.603 305.902 149.591 304.595 148.441 303.361C147.77 302.642 147.074 301.948 146.364 301.268C146.437 301.28 146.514 301.295 146.585 301.307C147.209 301.412 147.836 301.505 148.464 301.589C149.697 301.754 150.935 301.875 152.171 302.016C152.273 302.024 152.314 301.865 152.209 301.853Z" fill="#263238"/>
<path d="M142.835 307.867C142.835 307.866 142.835 307.866 142.835 307.867C142.814 307.712 142.789 307.559 142.759 307.407C142.72 307.21 142.625 307.023 142.597 306.827C142.597 306.823 142.594 306.824 142.593 306.821C142.318 305.636 142.086 304.442 141.872 303.243C141.857 303.16 141.724 303.185 141.727 303.266C141.784 304.85 142.176 306.422 142.741 307.896C142.759 307.943 142.843 307.939 142.836 307.881C142.837 307.875 142.836 307.871 142.835 307.867Z" fill="#263238"/>
<path d="M131.676 307.582C131.673 307.532 131.635 307.509 131.597 307.507C131.223 305.937 130.863 304.365 130.539 302.783C130.369 301.952 130.195 301.122 130.036 300.288C129.951 299.839 129.868 299.39 129.788 298.94C129.719 298.552 129.684 298.138 129.501 297.787C129.47 297.727 129.362 297.741 129.352 297.81C129.241 298.555 129.548 299.458 129.686 300.19C129.849 301.055 130.018 301.921 130.208 302.781C130.595 304.53 131.034 306.274 131.527 307.996C131.555 308.092 131.711 308.071 131.704 307.968C131.694 307.84 131.685 307.711 131.676 307.582Z" fill="#263238"/>
<path d="M150.99 296.744C148.554 296.41 146.12 296.058 143.679 295.762C143.576 295.749 143.534 295.906 143.639 295.921C146.071 296.28 148.512 296.582 150.95 296.903C151.054 296.917 151.095 296.759 150.99 296.744Z" fill="#263238"/>
<path d="M109.076 247.852C109.076 247.852 100.916 212.046 139.386 197.558C139.386 197.558 150.045 244.688 109.076 247.852Z" fill="#C76323"/>
<path d="M117.381 227.546C117.526 227.454 117.665 227.366 117.794 227.295C118.522 226.895 119.244 226.485 119.968 226.08L124.43 223.584C127.367 221.941 130.265 220.234 133.221 218.626C133.314 218.575 133.227 218.436 133.135 218.486C130.174 220.097 127.16 221.604 124.18 223.179L119.77 225.51C119.17 225.827 118.569 226.144 117.969 226.462C119.252 224.029 120.623 221.642 122.13 219.344C124.141 216.278 126.343 213.356 128.637 210.497C128.742 210.366 128.57 210.197 128.447 210.316C125.054 213.562 122.116 217.276 119.552 221.221C119.555 221.095 119.558 220.968 119.564 220.849C119.608 219.958 119.631 219.067 119.644 218.176C119.67 216.429 119.586 214.678 119.638 212.933C119.641 212.827 119.478 212.832 119.474 212.937C119.402 214.657 119.195 216.371 119.097 218.091C119.048 218.949 119.011 219.807 118.986 220.666C118.972 221.13 118.928 221.659 118.945 222.167C118.152 223.428 117.392 224.707 116.672 226.004C115.39 228.314 114.243 230.733 113.234 233.214C113.196 232.322 113.142 231.431 113.089 230.54C112.974 228.579 112.735 226.628 112.652 224.666C112.648 224.56 112.486 224.564 112.488 224.67C112.529 226.631 112.438 228.592 112.498 230.554C112.528 231.534 112.559 232.514 112.623 233.493C112.647 233.852 112.666 234.22 112.69 234.586C111.464 237.799 110.479 241.106 109.785 244.425C109.035 248.011 108.73 251.604 108.352 255.237C108.349 255.263 108.39 255.262 108.393 255.236C108.73 251.997 109.552 248.725 110.435 245.595C110.912 243.905 111.413 242.224 111.954 240.556C113.555 239.802 115.087 238.862 116.633 238.004C118.237 237.114 119.852 236.245 121.461 235.363C124.669 233.603 127.873 231.811 131.186 230.256C131.282 230.211 131.194 230.073 131.1 230.116C127.745 231.635 124.365 233.08 121.073 234.734C119.433 235.558 117.82 236.437 116.222 237.338C114.887 238.09 113.513 238.844 112.237 239.71C112.611 238.596 112.999 237.487 113.425 236.389C114.594 233.381 115.912 230.425 117.381 227.546Z" fill="#263238"/>
<path d="M114.141 219.359C114.133 219.254 113.97 219.257 113.977 219.363C114.115 221.406 114.184 223.447 114.401 225.484C114.413 225.598 114.586 225.597 114.582 225.48C114.51 223.432 114.291 221.401 114.141 219.359Z" fill="#263238"/>
<path d="M132.583 226.197C130.174 227.166 127.746 228.087 125.35 229.09C125.283 229.118 125.313 229.226 125.383 229.2C127.814 228.29 130.212 227.298 132.63 226.354C132.729 226.316 132.681 226.158 132.583 226.197Z" fill="#263238"/>
<path d="M136.24 209.683C133.886 210.774 131.603 211.982 129.399 213.353C129.287 213.423 129.393 213.594 129.507 213.528C131.738 212.223 134.01 210.972 136.327 209.823C136.422 209.775 136.334 209.639 136.24 209.683Z" fill="#263238"/>
<path d="M135.66 325.278H80.1797V383.757H135.66V325.278Z" fill="#455A64"/>
<path d="M79.1984 345.971H76.3594V466.139H79.1984V345.971Z" fill="#263238"/>
<path d="M139.175 345.971H136.336V466.139H139.175V345.971Z" fill="#263238"/>
<path d="M110.698 345.971H107.859V466.139H110.698V345.971Z" fill="#263238"/>
<path d="M137.76 380.009H77.7812V388.106H137.76V380.009Z" fill="#263238"/>
<path d="M129.523 465.717C162.863 460.161 249.685 442.019 274.33 429.928C411.028 364.051 476.32 135.88 477.139 133.701H587.197C586.377 135.88 573.412 173.221 518.512 277.46C484.567 339.401 435.447 380.689 377.475 414.607C277.982 472.816 129.523 465.717 129.523 465.717Z" fill="#C76323"/>
<g opacity="0.1">
<path d="M129.523 465.717C162.863 460.161 249.685 442.019 274.33 429.928C411.028 364.051 476.32 135.88 477.139 133.701H587.197C586.377 135.88 573.412 173.221 518.512 277.46C484.567 339.401 435.447 380.689 377.475 414.607C277.982 472.816 129.523 465.717 129.523 465.717Z" fill="black"/>
</g>
<path d="M451.565 122.266L477.136 133.702C476.439 135.556 442.37 311.102 338.114 395.366C264.979 454.477 218.192 468.359 59.2891 465.959V435.122C148.962 435.122 212.927 432.218 271.29 401.769C402.991 333.059 451.37 122.781 451.565 122.266Z" fill="#C76323"/>
<path d="M451.562 122.266H570.186L587.191 133.702H477.134L451.562 122.266Z" fill="#C76323"/>
<path d="M541.913 48.7725L619.046 146.301L437.266 145.814L541.913 48.7725Z" fill="#C76323"/>
<g opacity="0.1">
<path d="M541.913 48.7725L619.046 146.301L437.266 145.814L541.913 48.7725Z" fill="black"/>
</g>
<path d="M437.265 145.814L410.828 133.701L515.475 36.6602L541.912 48.7722L437.265 145.814Z" fill="#C76323"/>
<path d="M632.336 122.166C630.952 135.396 619.099 145.004 605.87 143.62C600.523 143.061 595.77 140.791 592.09 137.402L580.039 139.171L586.069 128.753C584.606 125.194 583.99 121.232 584.416 117.154C585.8 103.924 597.653 94.316 610.883 95.7C624.112 97.084 633.72 108.937 632.336 122.166Z" fill="white"/>
<path d="M632.336 122.166C631.833 126.564 630.225 130.874 627.474 134.377C626.842 135.295 626.028 136.061 625.291 136.89C624.454 137.619 623.673 138.419 622.749 139.042C620.987 140.399 619.007 141.463 616.938 142.277C614.879 143.144 612.663 143.558 610.453 143.823C609.339 143.883 608.223 143.984 607.106 143.887C605.988 143.862 604.874 143.742 603.772 143.54C599.364 142.742 595.189 140.678 591.855 137.656L592.14 137.744L580.101 139.592L579.227 139.726L579.669 138.956L585.663 128.517L585.635 128.929C582.715 122.053 583.373 113.866 587.119 107.459C588.986 104.251 591.59 101.487 594.663 99.4246C597.735 97.3576 601.297 96.0606 604.943 95.5676C608.593 95.0836 612.35 95.4156 615.836 96.5746C619.318 97.7466 622.51 99.7186 625.126 102.271C630.445 107.329 633.119 114.913 632.336 122.166ZM632.336 122.166C633.068 114.906 630.342 107.368 625.022 102.381C622.38 99.8866 619.183 97.9966 615.732 96.8996C612.276 95.8176 608.579 95.5606 605.018 96.0966C601.461 96.6426 598.015 97.9676 595.07 100.027C592.132 102.09 589.653 104.789 587.862 107.888C586.036 110.98 585.091 114.524 584.805 118.081C584.58 121.65 585.162 125.261 586.501 128.575L586.588 128.79L586.473 128.987L580.408 139.384L579.977 138.748L592.04 137.059L592.207 137.036L592.326 137.147C595.515 140.14 599.55 142.23 603.861 143.088C604.938 143.305 606.03 143.442 607.129 143.485C608.226 143.601 609.325 143.52 610.426 143.48C612.607 143.256 614.806 142.886 616.86 142.063C618.921 141.291 620.915 140.278 622.67 138.931C623.594 138.317 624.375 137.527 625.214 136.807C625.953 135.987 626.77 135.229 627.405 134.319C630.167 130.851 631.803 126.561 632.336 122.166Z" fill="#263238"/>
<path d="M604.961 133.424L594.672 123.009L598.129 119.594L604.139 125.677L616.625 106.102L620.723 108.715L604.961 133.424Z" fill="#C76323"/>
<path d="M468.727 466.441C470.986 467.17 535.374 466.335 537.803 464.745C538.737 464.157 539.162 454.768 539.35 443.408C539.351 443.289 539.352 443.171 539.352 443.052C539.396 440.711 533.405 401.446 533.405 401.446L490.332 401.877L497.806 443.127L497.831 443.832C497.831 443.832 473.328 455.175 470.839 457.205C468.371 459.227 466.467 465.722 468.727 466.441Z" fill="#B97B6E"/>
<path d="M539.354 443.049V443.405C539.165 454.764 538.736 464.152 537.803 464.75C535.372 466.332 470.982 467.171 468.729 466.437C466.466 465.725 468.373 459.228 470.835 457.206C473.329 455.173 497.827 443.835 497.827 443.835L497.806 443.122L496.674 436.898H538.619C539.082 440.199 539.365 442.535 539.354 443.049Z" fill="#EBEBEB"/>
<path d="M468.725 466.437C469.887 466.811 487.381 466.772 504.48 466.427C507.918 466.358 511.335 466.279 514.596 466.191C526.79 465.856 536.866 465.354 537.802 464.743C538.728 464.162 539.151 455.031 539.338 443.881C539.338 443.723 539.348 443.566 539.348 443.408C539.348 443.29 539.348 443.162 539.358 443.044H539.309L497.812 443.123L497.832 443.832C497.832 443.832 473.326 455.169 470.844 457.198C468.37 459.227 466.469 465.718 468.725 466.437Z" fill="#C76323"/>
<path d="M469.429 463.935C480.279 463.528 524.082 462.909 534.838 463.331C534.925 463.335 534.926 463.394 534.839 463.399C524.093 464.037 480.287 464.301 469.431 464.112C469.202 464.109 469.2 463.944 469.429 463.935Z" fill="#263238"/>
<path d="M493.188 443.305C497.449 442.452 502.681 443.04 505.984 446.041C506.112 446.157 505.945 446.337 505.806 446.296C501.575 445.022 497.629 444.221 493.212 443.844C492.901 443.818 492.883 443.366 493.188 443.305Z" fill="#263238"/>
<path d="M490.133 445.203C494.394 444.35 499.626 444.938 502.929 447.939C503.057 448.055 502.89 448.235 502.751 448.193C498.52 446.92 494.574 446.118 490.157 445.742C489.846 445.716 489.828 445.264 490.133 445.203Z" fill="#263238"/>
<path d="M487.071 447.101C491.332 446.248 496.564 446.836 499.867 449.837C499.995 449.953 499.828 450.133 499.689 450.091C495.458 448.818 491.512 448.016 487.095 447.64C486.784 447.614 486.766 447.162 487.071 447.101Z" fill="#263238"/>
<path d="M493.185 443.045H540.717C540.717 443.045 526.065 347.048 526.43 345.157C526.617 344.182 593.008 244.431 593.008 244.431H543.532C543.532 244.431 487.738 315.782 481.456 333.747C476.889 346.808 493.185 443.045 493.185 443.045Z" fill="#263238"/>
<path d="M520.486 341.454C521.179 338.67 522.763 336.211 524.229 333.784C527.532 328.315 584.577 249.262 585.376 247.96C585.435 247.863 585.594 247.908 585.545 248.011C583.286 252.761 526.923 329.797 523.426 337.13C522.09 339.931 520.94 342.522 521.005 345.656C521.07 348.799 521.623 351.96 522.027 355.073C522.435 358.221 522.852 361.368 523.277 364.514C524.127 370.806 525.011 377.093 525.929 383.376C527.774 396.004 529.693 408.623 531.68 421.23C531.927 422.799 532.187 424.366 532.445 425.932C532.47 426.082 532.241 426.141 532.214 425.99C529.957 413.381 527.759 400.767 525.85 388.099C523.94 375.429 522.201 362.735 520.521 350.033C520.144 347.19 519.783 344.278 520.486 341.454Z" fill="#455A64"/>
<path d="M535.099 431.736C528.159 431.721 530.15 431.611 523.21 431.686C519.814 431.723 497.498 431.988 494.34 432.669C494.27 432.684 494.273 432.822 494.343 432.833C497.529 433.374 519.834 432.657 523.228 432.544C530.164 432.314 528.17 432.292 535.103 431.971C535.234 431.965 535.23 431.736 535.099 431.736Z" fill="#37474F"/>
<path d="M689.826 465.819C687.581 466.589 623.188 466.931 620.73 465.385C619.786 464.814 619.189 455.434 618.793 444.08C618.79 443.961 618.787 443.843 618.784 443.724C618.698 441.385 602.641 402.542 602.641 402.542L644.729 402.201L660.324 443.04L660.312 443.745C660.312 443.745 685.018 454.639 687.544 456.623C690.05 458.6 692.072 465.059 689.826 465.819Z" fill="#B97B6E"/>
<path d="M689.824 465.82C687.579 466.59 623.186 466.932 620.728 465.386C619.784 464.815 619.187 455.435 618.791 444.081C618.788 443.962 618.785 443.844 618.782 443.725C618.782 443.725 615.68 435.929 615.664 435.594L657.215 435.144L660.323 443.04L660.311 443.745C660.311 443.745 685.017 454.639 687.543 456.623C690.048 458.601 692.07 465.06 689.824 465.82Z" fill="#EBEBEB"/>
<path d="M689.823 465.819C687.578 466.589 623.185 466.931 620.727 465.385C619.783 464.814 619.186 455.434 618.79 444.08C618.787 443.961 618.784 443.843 618.781 443.724L660.322 443.039L660.31 443.744C660.31 443.744 685.016 454.638 687.542 456.622C690.047 458.6 692.069 465.059 689.823 465.819Z" fill="#C76323"/>
<path d="M689.084 463.326C678.228 463.117 634.422 463.299 623.675 463.917C623.588 463.922 623.588 463.982 623.675 463.986C634.43 464.428 678.234 463.891 689.085 463.504C689.314 463.496 689.313 463.331 689.084 463.326Z" fill="#263238"/>
<path d="M664.952 443.134C660.676 442.359 655.456 443.043 652.208 446.104C652.082 446.223 652.252 446.4 652.391 446.355C656.598 445.004 660.529 444.131 664.938 443.674C665.248 443.642 665.258 443.189 664.952 443.134Z" fill="#263238"/>
<path d="M668.046 444.976C663.77 444.201 658.549 444.885 655.302 447.945C655.176 448.064 655.347 448.241 655.485 448.196C659.692 446.845 663.623 445.972 668.032 445.515C668.342 445.483 668.352 445.031 668.046 444.976Z" fill="#263238"/>
<path d="M671.132 446.818C666.856 446.043 661.635 446.727 658.388 449.788C658.262 449.907 658.432 450.084 658.571 450.039C662.778 448.688 666.709 447.815 671.118 447.358C671.429 447.325 671.438 446.873 671.132 446.818Z" fill="#263238"/>
<path d="M548.734 244.431C548.734 244.431 554.664 280.57 555.067 281.732C555.067 281.732 557.271 282.776 561.248 284.613L609.264 442.882L662.425 443.069L599.332 244.43H548.734V244.431Z" fill="#263238"/>
<path d="M553.143 280.611C557.759 282.444 562.18 284.948 566.397 287.553C566.562 287.655 566.438 287.914 566.258 287.826C561.785 285.653 557.219 283.56 552.871 281.144C552.53 280.954 552.789 280.47 553.143 280.611Z" fill="#455A64"/>
<path d="M554.846 259.907C555.576 264.232 555.981 268.625 556.468 272.982C556.585 274.027 556.71 275.072 556.823 276.118C556.926 277.076 557.039 278.041 557.574 278.869C558.516 280.325 560.2 281.01 561.724 281.676C561.9 281.753 561.829 282.031 561.635 281.971C560.085 281.486 558.37 280.848 557.228 279.639C555.838 278.168 555.882 275.942 555.667 274.049C555.136 269.374 554.629 264.639 554.649 259.928C554.649 259.819 554.827 259.794 554.846 259.907Z" fill="#455A64"/>
<path d="M560.107 261.235C560.26 264.35 560.609 267.465 560.869 270.573C560.997 272.107 561.105 273.644 561.2 275.18C561.296 276.741 561.478 278.342 561.427 279.906C561.424 280.011 561.256 280.037 561.237 279.927C560.981 278.448 560.946 276.909 560.823 275.413C560.694 273.84 560.588 272.261 560.499 270.685C560.323 267.538 560.236 264.371 559.953 261.231C559.944 261.134 560.102 261.135 560.107 261.235Z" fill="#455A64"/>
<path d="M566.891 291.247C570.573 300.218 609.908 428.849 610.328 429.967C610.361 430.055 610.22 430.112 610.177 430.028C604.918 419.744 571.352 303.702 568.002 294.66C567.587 293.54 567.17 292.422 566.747 291.305C566.715 291.221 566.857 291.164 566.891 291.247Z" fill="#455A64"/>
<path d="M608.869 433.971C610.405 433.757 611.994 433.762 613.542 433.654C615.098 433.546 616.659 433.514 618.218 433.479C621.337 433.409 624.455 433.372 627.574 433.334C633.766 433.26 639.96 433.233 646.153 433.234C649.69 433.235 653.222 433.422 656.756 433.495C656.867 433.497 656.871 433.667 656.76 433.671C653.643 433.798 650.529 433.99 647.41 434.107C644.294 434.224 641.172 434.238 638.054 434.284C631.771 434.375 625.486 434.478 619.202 434.462C617.457 434.458 615.715 434.452 613.971 434.394C612.279 434.338 610.53 434.352 608.849 434.152C608.738 434.14 608.777 433.983 608.869 433.971Z" fill="#455A64"/>
<path d="M568.731 193.369C558.816 185.022 544.438 165.523 541.893 158.091C538.619 148.53 534.148 116.101 537.652 112.648C539.586 110.742 562.308 115.687 563.416 118.361C564.523 121.035 562.822 149.127 563.01 151.289C563.198 153.452 572.026 174.437 577.117 184.51C583.081 196.309 575.184 198.802 568.731 193.369Z" fill="#B97B6E"/>
<path d="M536.754 122.253C536.796 122.061 535.345 119.506 536.216 116.369C537.089 113.226 539.549 110.017 539.1 108.034C538.388 104.889 535.838 99.7299 537.086 98.7129C539.66 96.6139 542.514 98.4409 545.479 104.359C546.251 105.9 547.264 109.71 548.354 109.991C550.26 110.481 551.347 107.172 551.829 104.093C552.761 98.1389 552.903 89.3159 556.961 88.5099C558.494 88.2069 559.027 90.4379 559.125 93.1489C559.6 89.2639 560.504 85.4419 562.194 85.0369C563.16 84.8019 563.826 85.2939 564.281 86.2309C564.668 85.2259 565.289 84.5649 566.204 84.4949C567.76 84.3689 568.721 85.8259 569.304 87.8169C569.573 87.5479 569.937 87.4059 570.421 87.4619C574.562 87.8819 575.122 103.051 573.359 106.708C568.18 117.477 559.605 126.445 559.605 126.445C553.892 127.692 536.754 122.265 536.754 122.253Z" fill="#B97B6E"/>
<path d="M557.031 110.498C558.423 108.102 559.377 105.369 559.599 102.596C559.862 99.3145 559.244 96.0375 559.187 92.7645C559.185 92.6755 559.044 92.6825 559.049 92.7715C559.153 94.3735 559.092 95.9945 559.131 97.6005C559.169 99.1675 559.258 100.747 559.187 102.313C559.056 105.183 558.359 107.943 556.988 110.477C556.973 110.504 557.016 110.525 557.031 110.498Z" fill="#263238"/>
<path d="M562.225 111.924C563.502 109.025 564.818 106.062 565.483 102.949C566.21 99.5428 565.739 96.0318 565.316 92.6138C565.063 90.5618 564.766 88.5138 564.419 86.4758C564.405 86.3898 564.27 86.3928 564.281 86.4818C564.745 89.9788 565.106 93.4898 565.355 97.0088C565.589 100.319 565.234 103.511 564.197 106.666C563.613 108.444 562.893 110.173 562.174 111.899C562.162 111.931 562.21 111.957 562.225 111.924Z" fill="#263238"/>
<path d="M567.629 112.108C569.026 109.419 570.253 107.079 570.674 104.036C571.231 100.007 570.593 95.1621 570.359 93.4541C570.1 91.5671 569.779 89.6921 569.429 87.8201C569.415 87.7441 569.282 87.7671 569.295 87.8441C569.984 92.0311 570.411 96.2861 570.553 100.527C570.621 102.554 570.472 104.575 569.919 106.533C569.373 108.469 568.476 110.29 567.611 112.098C567.605 112.11 567.623 112.119 567.629 112.108Z" fill="#263238"/>
<path d="M564.743 127.827L535.125 131.583C535.125 131.583 539.407 154.898 541.488 160.398C543.569 165.897 561.798 190.585 569.314 195.363C576.83 200.14 582.36 196.336 578.325 185.404C574.289 174.472 565.202 153.491 564.72 151.187C564.238 148.883 564.743 127.827 564.743 127.827Z" fill="#455A64"/>
<path d="M562.831 135.573C558.777 136.259 542.076 138.467 538.432 138.703C538.179 138.72 538.106 138.566 538.366 138.515C550.463 136.172 558.784 135.887 562.797 135.416C562.897 135.404 562.935 135.555 562.831 135.573Z" fill="#263238"/>
<path d="M569.313 195.365C563.931 191.946 553.066 178.322 546.555 168.838L574.509 175.656C575.965 179.244 577.302 182.642 578.325 185.408C582.359 196.337 576.828 200.145 569.313 195.365Z" fill="#263238"/>
<path d="M603.359 258.247C603.359 258.247 534.47 257.242 534.341 257.104C533.472 256.159 542.22 195.818 551.619 178.798C555.154 172.397 567.442 172.874 572.048 176.46C583.578 185.435 603.546 254.158 603.359 258.247Z" fill="#455A64"/>
<path d="M554.259 184.109C557.338 185.118 566.429 180.124 568.632 175.298C568.781 174.966 568.049 171.648 567.351 167.573C566.937 165.099 566.534 162.334 566.348 159.784L550.641 164.832C550.641 164.832 552.602 170.062 552.898 174.509C552.919 174.881 552.907 175.229 552.864 175.563C552.862 175.612 552.852 175.671 552.853 175.738C552.674 177.749 550.712 182.947 554.259 184.109Z" fill="#B97B6E"/>
<path d="M565.543 160.041C565.24 163.533 563.584 174.844 554.507 175.707C553.901 175.766 553.356 175.775 552.851 175.743C552.851 175.672 552.861 175.612 552.862 175.561C552.903 175.228 552.914 174.885 552.895 174.511C552.605 170.059 550.641 164.835 550.641 164.835L565.543 160.041Z" fill="#263238"/>
<path d="M572.553 146.534C572.734 152.475 565.524 167.532 560.661 170.003C553.611 173.585 544.218 171.554 541.717 163.571C539.293 155.833 549.036 136.377 554.267 134.352C561.974 131.371 572.286 137.759 572.553 146.534Z" fill="#B97B6E"/>
<path opacity="0.3" d="M567.778 160.96C565.525 165.204 562.853 168.892 560.663 170.003C553.611 173.587 544.212 171.554 541.718 163.569C540.848 160.792 541.54 156.496 543.038 152.043C543.887 155.165 548.193 154.118 548.193 154.118L550.016 154.83C550.875 158.539 556.555 159.786 560.012 158.917C562.527 158.288 565.66 153.971 565.66 153.971L567.778 160.96Z" fill="#263238"/>
<path d="M568.43 159.57C565.927 159.431 565.42 157.035 565.209 155.42C564.768 152.044 568.646 146.658 568.164 142.751C567.853 140.225 565.798 138.242 563.727 138.161C561.656 138.08 558.384 139.731 557.037 139.132C555.691 138.534 556.377 135.413 555.409 135.085C553.28 134.363 549.253 139.014 548.078 141.218C548.078 141.218 551.907 130.633 562.414 133.175C572.663 135.654 573.388 143.338 573.239 146.63C572.955 152.935 568.43 159.57 568.43 159.57Z" fill="#263238"/>
<path d="M554.1 151.779C554.126 151.744 554.155 151.866 554.133 151.906C553.602 152.898 553.161 154.123 553.906 154.909C553.929 154.933 553.901 154.983 553.87 154.961C552.835 154.253 553.437 152.633 554.1 151.779Z" fill="#263238"/>
<path d="M555.525 151.172C557.206 151.852 555.722 155.165 554.165 154.535C552.631 153.915 554.115 150.602 555.525 151.172Z" fill="#263238"/>
<path d="M548.445 149.012C548.455 148.969 548.343 149.025 548.326 149.067C547.899 150.107 547.235 151.227 546.154 151.153C546.12 151.151 546.1 151.204 546.137 151.214C547.341 151.562 548.208 150.066 548.445 149.012Z" fill="#263238"/>
<path d="M548.007 147.53C546.412 146.665 544.801 149.918 546.278 150.719C547.732 151.507 549.344 148.255 548.007 147.53Z" fill="#263238"/>
<path d="M558.469 148.949C557.963 148.891 557.505 148.753 557.01 148.644C556.452 148.52 555.994 148.48 555.582 148.049C555.361 147.818 555.377 147.348 555.582 147.112C556.058 146.562 556.779 146.543 557.458 146.664C558.194 146.795 558.728 147.085 559.215 147.651C559.687 148.198 559.137 149.025 558.469 148.949Z" fill="#263238"/>
<path d="M547.374 145.339C547.828 145.571 548.285 145.71 548.758 145.893C549.291 146.1 549.694 146.32 550.276 146.189C550.589 146.119 550.835 145.719 550.796 145.409C550.705 144.687 550.114 144.272 549.483 143.997C548.797 143.698 548.193 143.643 547.474 143.844C546.777 144.04 546.776 145.033 547.374 145.339Z" fill="#263238"/>
<path d="M551.72 160.923C551.367 161.053 550.973 161.274 550.587 161.139C550.216 161.009 549.87 160.66 549.6 160.387C549.573 160.36 549.525 160.38 549.532 160.42C549.622 160.933 550.072 161.431 550.585 161.561C551.086 161.688 551.495 161.389 551.799 161.015C551.84 160.961 551.772 160.904 551.72 160.923Z" fill="#263238"/>
<path d="M552.018 157.369C551.045 158.002 549.982 158.111 548.99 157.879C548.545 157.778 548.11 157.6 547.707 157.373C547.625 157.334 547.546 157.288 547.479 157.238C547.408 157.195 547.345 157.156 547.27 157.103C547.158 157.032 547.136 156.904 547.167 156.781L547.17 156.774C547.188 156.737 547.202 156.707 547.227 156.673C547.227 156.673 547.227 156.673 547.23 156.665L547.272 156.576C547.604 155.776 548.219 154.609 548.219 154.609C547.866 154.624 546.097 154.627 546.306 154.224C548.04 150.898 549.97 147.2 552.398 144.256C552.473 144.155 552.634 144.258 552.574 144.366C551.033 147.628 548.929 150.598 547.329 153.85C547.879 153.882 548.793 153.895 549.202 154.088C549.3 154.171 547.973 156.323 547.853 156.694C547.853 156.694 547.846 156.709 547.843 156.735C549.094 157.499 550.275 157.546 551.963 157.232C552.066 157.209 552.116 157.315 552.018 157.369Z" fill="#263238"/>
<path d="M548.352 157.182C548.352 157.182 548.629 158.441 549.435 159.212C549.732 159.497 550.09 159.718 550.536 159.79C551.452 159.942 551.809 159.199 551.947 158.488C552.062 157.904 552.021 157.338 552.021 157.338C552.021 157.338 550.324 157.922 548.352 157.182Z" fill="#263238"/>
<path d="M549.438 159.211C549.734 159.496 550.093 159.717 550.539 159.789C551.455 159.941 551.812 159.198 551.95 158.487C551.031 158.184 549.894 158.391 549.438 159.211Z" fill="#FF9CBD"/>
<path d="M552.641 157.334C550.518 155.874 549.978 152.959 551.437 150.837C552.897 148.714 555.811 148.173 557.935 149.633C560.058 151.092 560.598 154.007 559.139 156.131C557.905 157.927 555.629 158.59 553.673 157.87C553.316 157.737 552.969 157.56 552.641 157.334ZM551.952 151.19C550.689 153.03 551.156 155.555 552.996 156.819C554.833 158.085 557.36 157.615 558.625 155.776C559.888 153.936 559.421 151.411 557.581 150.147C557.297 149.952 556.997 149.798 556.688 149.684C554.992 149.06 553.021 149.635 551.952 151.19Z" fill="#263238"/>
<path d="M543.855 152.841C542.146 151.973 541.704 149.397 542.869 147.1C543.425 146.003 544.263 145.128 545.227 144.634C546.225 144.124 547.237 144.076 548.086 144.509C548.932 144.938 549.495 145.784 549.671 146.89C549.842 147.96 549.63 149.153 549.072 150.25C547.968 152.424 545.813 153.582 544.135 152.964C544.041 152.929 543.948 152.888 543.855 152.841ZM545.513 145.19C544.665 145.624 543.924 146.403 543.426 147.383C542.417 149.373 542.736 151.571 544.139 152.284C545.546 153 547.506 151.957 548.517 149.967C549.014 148.986 549.205 147.929 549.056 146.989C548.911 146.085 548.466 145.402 547.804 145.066C547.733 145.03 547.661 144.998 547.587 144.971C546.967 144.743 546.24 144.818 545.513 145.19Z" fill="#263238"/>
<path d="M551.332 151.39L551.907 151.145C551.544 150.294 550.445 148.838 548.875 149.411L549.089 149.998C550.495 149.482 551.298 151.312 551.332 151.39Z" fill="#263238"/>
<path d="M569.351 161.886L569.976 161.881C569.973 161.59 569.922 159.011 568.78 158.177C567.711 157.401 559.889 154.31 559.557 154.18L559.328 154.761C561.572 155.645 567.587 158.08 568.411 158.682C569.166 159.233 569.345 161.181 569.351 161.886Z" fill="#263238"/>
<path d="M564.607 156.473C564.607 156.473 569.667 152.425 571.606 154.375C573.545 156.325 568.695 162.923 565.684 163.136C562.673 163.349 562.422 160.565 562.422 160.565L564.607 156.473Z" fill="#B97B6E"/>
<path d="M570.168 156.232C570.213 156.241 570.203 156.304 570.161 156.309C568.031 156.521 566.511 157.991 565.271 159.614C566.044 159.076 566.928 158.917 567.674 159.868C567.713 159.918 567.643 159.982 567.592 159.955C566.862 159.559 566.259 159.529 565.549 159.998C565.046 160.33 564.627 160.815 564.21 161.247C564.071 161.391 563.79 161.21 563.913 161.033C563.922 161.02 563.932 161.007 563.941 160.994C564.607 158.551 567.491 155.71 570.168 156.232Z" fill="#263238"/>
<path d="M556.796 195.745C543.12 193.141 516.454 181.5 512.295 178.464C503.577 172.1 485.756 140.815 487.253 135.79C488.079 133.017 511.831 132.008 514.266 133.916C516.701 135.824 527.313 159.279 528.616 161.19C529.92 163.1 556.822 181.064 562.73 186.196C573.406 195.471 565.698 197.44 556.796 195.745Z" fill="#B97B6E"/>
<path d="M512.652 142.565C512.652 142.565 517.625 133.575 520.601 127.542C522.261 124.177 524.593 118.153 524.682 115.122C524.815 110.589 522.476 91.5473 517.847 92.0153C513.656 92.4383 517.743 108.543 517.743 108.543C517.743 108.543 515.056 91.9283 510.104 93.3663C505.152 94.8043 512.189 112.385 512.189 112.385C512.189 112.385 509.045 95.3763 504.173 97.6663C500.491 99.3973 505.968 115.68 505.968 115.68C505.968 115.68 503.164 101.079 499.301 102.696C495.033 104.482 499.145 119.83 499.145 119.83C490.018 125.592 486.359 129.62 487.162 136.846C487.293 138.013 512.652 142.565 512.652 142.565Z" fill="#B97B6E"/>
<path d="M519.503 115.624C519.258 113.661 519.023 111.672 518.604 109.738C518.185 107.803 517.699 105.882 517.102 103.995C515.638 99.3674 513.997 96.6984 514.081 96.8744C516.053 101.034 517.659 107.936 518.078 109.872C518.496 111.802 519.011 113.712 519.43 115.643C519.44 115.691 519.509 115.671 519.503 115.624Z" fill="#263238"/>
<path d="M512.543 117.263C512.122 114.77 511.795 112.279 511.263 109.804C510.734 107.341 509.876 103.913 509.178 101.493C509.124 101.307 508.834 101.306 508.88 101.495C509.48 103.941 510.195 107.477 510.766 109.93C511.335 112.374 512.004 114.815 512.484 117.278C512.492 117.316 512.549 117.301 512.543 117.263Z" fill="#263238"/>
<path d="M506.823 119.743C506.374 115.9 505.217 112.144 503.993 108.488C503.932 108.306 503.838 108.434 503.89 108.624C504.901 112.348 505.721 115.262 506.689 119.76C506.704 119.829 506.832 119.824 506.823 119.743Z" fill="#263238"/>
<path d="M490.039 147.001L521.044 143.659C521.044 143.659 527.569 158.576 528.863 160.35C530.158 162.124 559.329 181.157 565.144 185.94C570.958 190.722 570.007 199.672 557.509 197.28C546.731 195.216 517.56 183.286 512.044 179.63C506.528 175.974 490.039 147.001 490.039 147.001Z" fill="#455A64"/>
<path d="M496.529 154.274C500.783 153.933 518.14 151.903 521.86 151.211C522.118 151.163 522.15 150.988 521.875 151.003C509.102 151.717 500.675 153.558 496.52 154.105C496.417 154.12 496.42 154.283 496.529 154.274Z" fill="#263238"/>
<path d="M541.594 192.394C546.511 193.493 551.312 195.086 555.905 197.157C550.988 196.062 546.188 194.461 541.594 192.394Z" fill="#263238"/>
<path d="M550.789 195.511C551.88 196.114 553.38 196.847 554.411 197.552C553.006 197.421 551.573 196.71 550.789 195.511Z" fill="#263238"/>
<path d="M565.142 185.939C562.324 184.523 559.797 182.689 557.586 180.44C560.406 181.852 562.929 183.693 565.142 185.939Z" fill="#263238"/>
</svg>
