<svg width="161" height="183" viewBox="0 0 161 183" fill="none" xmlns="http://www.w3.org/2000/svg">
<path d="M42.1599 94.6224C43.8973 83.849 36.5721 73.7069 25.7987 71.9696C15.0252 70.2322 4.88316 77.5574 3.14579 88.3308C1.40842 99.1043 8.73362 109.246 19.5071 110.984C30.2805 112.721 40.4225 105.396 42.1599 94.6224Z" fill="#C76323"/>
<path fill-rule="evenodd" clip-rule="evenodd" d="M111.598 0.76001C111.598 11.6732 102.751 20.52 91.8381 20.52C80.925 20.52 72.0781 11.6732 72.0781 0.76001C72.0781 0.732246 72.0782 0.704495 72.0783 0.676758H22.6719V182.237H161.002V110.412C159.851 110.431 158.683 110.35 157.507 110.16C146.734 108.423 139.408 98.2805 141.146 87.5071C142.732 77.6724 151.322 70.7112 161.002 70.8943V0.676758H111.598C111.598 0.704495 111.598 0.732246 111.598 0.76001Z" fill="#C76323"/>
</svg>
