<svg width="161" height="202" viewBox="0 0 161 202" fill="none" xmlns="http://www.w3.org/2000/svg">
<path d="M161.002 19.6768H22.6719V201.237H161.002V19.6768Z" fill="#C76323"/>
<path d="M42.1599 113.622C43.8973 102.849 36.5721 92.7069 25.7987 90.9696C15.0252 89.2322 4.88316 96.5574 3.14579 107.331C1.40842 118.104 8.73362 128.246 19.5071 129.984C30.2805 131.721 40.4225 124.396 42.1599 113.622Z" fill="#C76323"/>
<path d="M91.8381 39.52C102.751 39.52 111.598 30.6732 111.598 19.76C111.598 8.84686 102.751 0 91.8381 0C80.925 0 72.0781 8.84686 72.0781 19.76C72.0781 30.6732 80.925 39.52 91.8381 39.52Z" fill="#C76323"/>
</svg>
