<svg width="45" height="28" viewBox="0 0 45 28" fill="none" xmlns="http://www.w3.org/2000/svg">
<path d="M8.64844 7.71304C12.4064 5.91004 17.0644 1.39004 20.1384 1.00804C22.9144 0.663037 23.9005 2.96504 23.9005 2.96504C23.9005 2.96504 25.4184 -0.10996 28.2654 0.00303981C29.7304 0.0610398 30.9244 2.45304 30.9244 2.45304C30.9244 2.45304 32.2484 0.0420374 34.7744 0.299037C36.7864 0.504037 37.6814 2.87004 37.6814 2.87004C37.6814 2.87004 40.0295 1.14904 42.0125 2.01504C46.0345 3.77104 46.1065 21.133 39.7215 23.842C36.7455 25.105 36.9585 20.863 36.9585 20.863C36.9585 20.863 35.1794 26.889 31.6004 26.995C28.0214 27.101 28.6304 21.607 28.6304 21.607C28.6304 21.607 26.8554 27.431 23.1334 27.167C19.2594 26.892 20.8094 21.5 20.8094 21.5C20.8094 21.5 18.2084 25.371 15.4054 24.517C10.7764 23.106 16.5594 15.772 15.6384 11.96L9.33745 9.88004L8.64844 7.71304Z" fill="#D3766A"/>
<path d="M14.1017 4.21042C10.3947 5.60642 5.79071 1.02741 2.05371 1.85341C-3.00129 2.97141 1.9817 8.64541 9.3347 9.88141L15.2117 9.83742L14.1017 4.21042Z" fill="#D3766A"/>
<path d="M37.8701 3.22345C37.8651 3.16545 37.9451 3.14745 37.9591 3.20545C39.3741 8.91045 39.1811 15.6125 36.9671 21.0955C36.8951 21.2755 36.5711 21.2355 36.6131 21.0225C37.8141 14.9345 38.3951 9.43545 37.8701 3.22345Z" fill="#263238"/>
<path d="M30.9583 2.36992C30.9523 2.30292 31.0643 2.29192 31.0813 2.36292C32.5073 8.24992 32.0823 15.7919 28.7863 21.8119C28.6733 22.0179 28.3653 22.0909 28.4773 21.8429C30.3653 17.6729 31.4593 7.95992 30.9583 2.36992Z" fill="#263238"/>
<path d="M20.4261 21.8641C23.3631 15.9701 24.1151 9.7271 23.9661 3.2041C23.9641 3.1191 24.0841 3.12511 24.1051 3.19611C25.0471 6.36711 24.7091 10.5351 24.1721 13.7551C23.6571 16.8401 22.5731 19.5201 20.6321 21.9671C20.5571 22.0621 20.3641 21.9901 20.4261 21.8641Z" fill="#263238"/>
</svg>
