<svg width="204" height="368" viewBox="0 0 204 368" fill="none" xmlns="http://www.w3.org/2000/svg">
<path d="M103.447 301.265C103.447 301.265 100.486 342.338 100.485 342.368C100.444 350.412 100.552 357.465 100.948 361.109C100.947 361.129 100.946 361.148 100.955 361.168C101.103 362.543 101.292 363.421 101.536 363.656C101.555 363.676 101.564 363.696 101.583 363.707C103.969 365.341 168.243 367.541 170.51 366.863C172.786 366.195 171.024 359.67 168.598 357.594C166.152 355.518 141.931 343.67 141.931 343.67L144.493 302.615L103.447 301.265Z" fill="#774442"/>
<path d="M170.514 366.862C168.244 367.542 103.974 365.342 101.584 363.702C101.564 363.692 101.554 363.672 101.534 363.652C101.294 363.422 101.104 362.542 100.954 361.172C100.944 361.152 100.944 361.132 100.944 361.112C100.554 357.462 100.444 350.412 100.484 342.372C100.484 342.352 100.994 335.242 101.594 326.932L142.854 328.862L141.934 343.672C141.934 343.672 166.154 355.522 168.594 357.592C171.023 359.672 172.783 366.192 170.514 366.862Z" fill="#EBEBEB"/>
<path d="M170.795 366.967C168.487 367.643 103.211 365.833 100.782 364.167C99.8576 363.54 99.6455 341.653 100.96 330.565L143.014 332.206C143.014 332.206 142.953 343.484 143.458 343.742C147.588 345.855 166.682 355.664 168.881 357.547C171.334 359.661 173.102 366.291 170.795 366.967Z" fill="#C76323"/>
<path d="M169.955 364.324C159.03 363.642 114.903 361.922 104.052 362.078C103.964 362.079 103.962 362.139 104.049 362.147C114.863 363.059 159.002 364.422 169.948 364.504C170.179 364.505 170.186 364.338 169.955 364.324Z" fill="#263238"/>
<path d="M164.777 355.044C162.188 354.84 159.607 355.976 158.134 357.467C156.72 358.9 155.478 360.942 155.469 363.213C155.469 363.278 155.589 363.284 155.601 363.218C156.387 358.962 160.422 355.351 164.771 355.182C164.86 355.177 164.866 355.051 164.777 355.044Z" fill="#263238"/>
<path d="M146.059 344.568C141.685 344.342 136.552 345.694 133.697 349.171C133.586 349.306 133.779 349.461 133.912 349.399C137.946 347.509 141.764 346.132 146.114 345.109C146.421 345.038 146.373 344.584 146.059 344.568Z" fill="#263238"/>
<path d="M149.387 346.013C145.013 345.786 139.88 347.139 137.025 350.616C136.915 350.751 137.108 350.906 137.24 350.844C141.274 348.954 145.092 347.577 149.442 346.555C149.749 346.483 149.701 346.029 149.387 346.013Z" fill="#263238"/>
<path d="M152.715 347.458C148.341 347.231 143.208 348.584 140.353 352.061C140.242 352.196 140.436 352.351 140.568 352.289C144.602 350.399 148.42 349.022 152.77 348C153.077 347.928 153.029 347.474 152.715 347.458Z" fill="#263238"/>
<path d="M156.044 348.903C151.67 348.677 146.537 350.03 143.682 353.506C143.571 353.641 143.764 353.796 143.897 353.734C147.931 351.844 151.749 350.466 156.099 349.444C156.406 349.372 156.357 348.92 156.044 348.903Z" fill="#263238"/>
<path d="M107.752 334.874C102.841 334.703 102.566 342.334 107.485 342.507C112.397 342.678 112.672 335.046 107.752 334.874Z" fill="#263238"/>
<path d="M151.223 333.074C149.086 331.149 146.224 332.833 144.791 334.692C144.151 335.521 143.551 336.455 143.023 337.448C141.828 339.666 140.945 342.186 140.55 344.574C140.515 344.763 140.48 344.952 140.474 345.142C140.443 345.2 140.442 345.244 140.455 345.288C140.421 345.448 140.402 345.594 140.383 345.74C140.38 345.828 140.452 345.874 140.526 345.861C140.578 346.068 140.733 346.263 140.952 346.299C141.053 346.331 141.171 346.32 141.29 346.251C142.171 345.692 143.095 345.135 144.02 344.578L144.512 344.286C146.75 342.92 148.961 341.466 150.632 339.467C152.09 337.741 153.261 334.878 151.223 333.074ZM145.513 342.165C144.796 342.641 144.079 343.102 143.362 343.563C142.675 344.01 141.988 344.458 141.329 344.935C141.254 344.977 141.18 345.033 141.105 345.089C141.03 345.145 140.94 345.201 140.866 345.257C140.898 345.17 140.929 345.098 140.961 345.011C140.961 344.996 140.976 344.982 140.977 344.968C141.659 343.261 142.283 341.524 143.095 339.865C143.237 339.533 143.408 339.201 143.579 338.87C144.092 337.89 144.635 336.882 145.278 335.98C146.287 334.576 150.728 331.068 150.977 335.847C151.116 338.487 147.352 340.933 145.513 342.165Z" fill="#263238"/>
<path d="M141.346 345.521C141.406 345.464 141.423 345.392 141.367 345.331C141.282 345.24 141.196 345.165 141.111 345.089L141.026 344.999C141.012 344.984 140.998 344.969 140.983 344.968C140.841 344.832 140.699 344.696 140.556 344.574C137.919 342.239 134.318 340.328 130.975 339.552C128.693 339.014 125.414 339.513 124.96 342.354C124.526 345.049 127.247 346.523 129.46 346.942C131.686 347.376 133.96 347.227 136.238 346.945C137.825 346.745 139.414 346.486 140.957 346.299C140.972 346.299 140.972 346.299 140.986 346.3C141.367 346.253 141.483 345.818 141.346 345.521ZM135.13 345.798C132.928 346.009 128.463 346.486 126.903 344.36C124.094 340.482 129.733 340.392 131.402 340.853C132.476 341.15 133.532 341.577 134.558 342.018C136.61 342.901 138.522 344.043 140.464 345.142H140.479C140.551 345.188 140.623 345.22 140.695 345.266C140.622 345.264 140.534 345.276 140.46 345.288C140.24 345.296 140.02 345.304 139.8 345.326C138.244 345.455 136.701 345.656 135.13 345.798Z" fill="#263238"/>
<path d="M100.404 324.55L146.354 326.44C146.354 326.44 148.48 262.283 147.458 235.292C146.348 205.974 133.754 118.74 133.754 118.74H95.7578C95.7578 118.74 105.471 206.314 105.677 235.645C105.867 262.836 100.404 324.55 100.404 324.55Z" fill="#37474F"/>
<path d="M126.289 118.741L103.465 197.706C100.763 160.336 95.7578 118.741 95.7578 118.741H126.289Z" fill="#263238"/>
<path d="M102.969 123.04L105.383 149.08L107.617 175.136C109.048 192.512 110.406 209.892 111.44 227.306C111.693 231.658 111.847 236.031 111.786 240.406C111.692 244.772 111.517 249.132 111.296 253.487C110.848 262.198 110.286 270.899 109.616 279.591C108.956 288.285 106.528 313.884 106.528 313.884C106.528 313.884 108.29 288.235 108.857 279.538C109.406 270.841 109.996 262.145 110.397 253.443C110.603 249.092 110.762 244.741 110.841 240.392C110.888 236.05 110.718 231.708 110.454 227.359C109.504 209.963 108.131 192.58 106.862 175.195L102.969 123.04Z" fill="#263238"/>
<path d="M144.919 317.82C137.911 317.344 139.929 317.382 132.916 316.984C129.484 316.789 106.93 315.531 103.697 315.912C103.625 315.92 103.62 316.04 103.69 316.055C106.873 316.737 129.445 317.602 132.881 317.731C139.901 317.993 137.888 317.842 144.91 318.025C145.041 318.028 145.051 317.829 144.919 317.82Z" fill="#263238"/>
<path d="M30.4404 277.974C30.4404 277.974 9.48641 313.425 9.47241 313.45C5.85141 320.633 2.80541 326.995 1.53641 330.433C1.52741 330.45 1.51741 330.467 1.51641 330.489C1.03641 331.786 0.814405 332.656 0.927405 332.975C0.935405 333.001 0.934406 333.023 0.946406 333.041C2.35441 335.567 58.9134 366.178 61.2454 366.581C63.5814 366.997 64.9104 360.37 63.6634 357.431C62.3994 354.482 45.9944 333.082 45.9944 333.082L66.5824 297.47L30.4404 277.974Z" fill="#774442"/>
<path d="M61.249 366.583C58.914 366.18 2.35799 335.571 0.948994 333.038C0.935994 333.02 0.934994 332.998 0.926994 332.971C0.814994 332.658 1.03699 331.786 1.51299 330.492C1.51299 330.47 1.52199 330.452 1.53099 330.434C2.80799 326.993 5.85099 320.632 9.46999 313.452C9.47899 313.434 13.104 307.296 17.344 300.124L53.421 320.238L45.998 333.086C45.998 333.086 62.4 354.487 63.662 357.427C64.91 360.374 63.58 366.995 61.249 366.583Z" fill="#EBEBEB"/>
<path d="M61.4526 366.805C59.0856 366.382 1.45455 335.673 0.0225507 333.1C-0.525449 332.127 9.03855 312.439 15.1556 303.098L52.0716 323.307C52.0716 323.307 46.9916 333.376 47.3286 333.832C50.0846 337.564 62.8066 354.854 63.9356 357.52C65.1906 360.504 63.8196 367.228 61.4526 366.805Z" fill="#C76323"/>
<path d="M61.8782 364.065C52.4022 358.586 13.6642 337.383 3.88122 332.687C3.80222 332.649 3.77323 332.701 3.84823 332.747C13.1222 338.382 52.0302 359.272 61.7932 364.222C61.9992 364.327 62.0792 364.18 61.8782 364.065Z" fill="#263238"/>
<path d="M61.3755 353.446C59.1485 352.11 56.3315 351.976 54.3495 352.655C52.4445 353.307 50.4235 354.583 49.4035 356.611C49.3745 356.669 49.4785 356.728 49.5195 356.674C52.1195 353.215 57.3405 351.779 61.3105 353.566C61.3905 353.602 61.4525 353.491 61.3755 353.446Z" fill="#263238"/>
<path d="M49.2915 335.73C45.4765 333.578 40.2785 332.502 36.1735 334.342C36.0145 334.414 36.1185 334.639 36.2645 334.642C40.7175 334.748 44.7505 335.216 49.0995 336.239C49.4065 336.312 49.5645 335.884 49.2915 335.73Z" fill="#263238"/>
<path d="M51.6275 338.507C47.8125 336.355 42.6145 335.279 38.5095 337.119C38.3505 337.19 38.4545 337.415 38.6005 337.419C43.0535 337.525 47.0865 337.993 51.4355 339.017C51.7425 339.089 51.9015 338.661 51.6275 338.507Z" fill="#263238"/>
<path d="M53.9634 341.284C50.1484 339.132 44.9504 338.056 40.8454 339.896C40.6864 339.967 40.7904 340.193 40.9364 340.196C45.3894 340.302 49.4214 340.77 53.7714 341.794C54.0774 341.866 54.2364 341.438 53.9634 341.284Z" fill="#263238"/>
<path d="M56.2994 344.061C52.4844 341.909 47.2864 340.833 43.1814 342.673C43.0224 342.744 43.1264 342.969 43.2724 342.973C47.7254 343.078 51.7584 343.547 56.1074 344.57C56.4134 344.642 56.5724 344.215 56.2994 344.061Z" fill="#263238"/>
<path d="M19.318 309.981C14.998 307.639 11.351 314.349 15.678 316.695C19.998 319.036 23.645 312.327 19.318 309.981Z" fill="#263238"/>
<path d="M59.0372 327.741C57.9822 325.066 54.6692 325.297 52.5582 326.323C51.6152 326.78 50.6632 327.348 49.7472 328.003C47.6892 329.456 45.7762 331.318 44.3572 333.281C44.2412 333.435 44.1262 333.589 44.0362 333.756C43.9822 333.794 43.9622 333.832 43.9542 333.878C43.8522 334.006 43.7702 334.128 43.6882 334.25C43.6462 334.327 43.6902 334.401 43.7622 334.422C43.7172 334.63 43.7692 334.874 43.9482 335.003C44.0242 335.077 44.1352 335.12 44.2722 335.111C45.3092 335.004 46.3852 334.917 47.4612 334.83L48.0322 334.788C50.6442 334.562 53.2722 334.245 55.6582 333.202C57.7332 332.306 60.0572 330.265 59.0372 327.741ZM49.8742 333.336C49.0202 333.442 48.1732 333.536 47.3262 333.629C46.5112 333.723 45.6972 333.818 44.8942 333.951C44.8092 333.955 44.7172 333.972 44.6252 333.989C44.5332 334.006 44.4282 334.016 44.3362 334.033C44.4032 333.969 44.4642 333.919 44.5312 333.855C44.5382 333.842 44.5582 333.836 44.5652 333.823C45.9362 332.599 47.2692 331.322 48.7352 330.199C49.0102 329.965 49.3112 329.744 49.6122 329.524C50.5082 328.876 51.4432 328.215 52.4212 327.694C53.9502 326.887 59.4892 325.725 57.5812 330.115C56.5282 332.539 52.0692 333.052 49.8742 333.336Z" fill="#263238"/>
<path d="M44.6402 334.48C44.7192 334.456 44.7672 334.399 44.7432 334.319C44.7072 334.2 44.6642 334.094 44.6222 333.988L44.5862 333.869C44.5802 333.849 44.5742 333.829 44.5612 333.822C44.4942 333.637 44.4282 333.451 44.3542 333.279C43.0342 330.014 40.6622 326.698 38.0152 324.514C36.2122 323.015 33.0542 322.001 31.3822 324.342C29.7932 326.561 31.5722 329.094 33.3662 330.455C35.1662 331.836 37.2682 332.715 39.4322 333.478C40.9422 334.006 42.4802 334.483 43.9442 335.003C43.9572 335.01 43.9572 335.01 43.9702 335.017C44.3332 335.146 44.6312 334.807 44.6402 334.48ZM38.9522 331.959C36.8872 331.166 32.6772 329.604 32.2282 327.006C31.4412 322.283 36.5302 324.715 37.8182 325.871C38.6472 326.615 39.4022 327.468 40.1232 328.32C41.5662 330.024 42.7692 331.899 44.0182 333.748L44.0312 333.755C44.0752 333.828 44.1252 333.889 44.1692 333.962C44.1052 333.927 44.0202 333.899 43.9492 333.877C43.7492 333.786 43.5482 333.695 43.3412 333.617C41.8932 333.04 40.4222 332.532 38.9522 331.959Z" fill="#263238"/>
<path d="M129.87 118.704C129.87 118.704 129.87 118.714 129.86 118.743C129.694 119.524 127.037 131.851 124.283 142.439C122.281 150.175 120.22 156.973 119.038 157.677C117.7 158.468 111.175 161.359 108.987 162.268C108.987 162.268 94.313 235.521 86.566 258.236C79.418 279.197 59.223 319.234 59.223 319.234L17.5 296.179C17.5 296.179 40.435 256.68 43.96 246.475C49.422 230.66 69.891 153.436 69.891 153.436C69.891 153.436 69.735 129.259 77.877 118.704H129.87Z" fill="#37474F"/>
<path d="M61.0113 309.703C54.8793 306.277 56.6873 307.174 50.5163 303.816C47.4973 302.173 27.6453 291.395 24.5593 290.357C24.4913 290.334 24.4353 290.44 24.4923 290.483C27.0783 292.46 47.1153 302.89 50.1653 304.475C56.3993 307.713 54.6443 306.715 60.9143 309.883C61.0323 309.943 61.1263 309.767 61.0113 309.703Z" fill="#263238"/>
<path d="M80.9069 146.712C82.0819 146.411 83.3389 146.315 84.5369 146.125C85.5049 145.971 86.4699 145.801 87.4269 145.59C89.2289 145.193 91.0529 144.591 92.5269 143.443C94.1869 142.15 95.0309 140.19 95.8339 138.306C96.3109 137.187 96.8019 136.076 97.3009 134.966C97.5429 134.428 97.7859 133.892 98.0359 133.357C98.3279 132.732 98.7279 132.08 98.9419 131.426C98.9729 131.331 99.1259 131.381 99.0879 131.47C98.8989 131.906 98.8189 132.403 98.6799 132.86C98.5169 133.399 98.3629 133.941 98.1959 134.479C97.8979 135.439 97.6069 136.403 97.2899 137.358C96.7209 139.073 96.2139 140.87 95.2459 142.412C93.4739 145.233 90.3059 146.369 87.1389 146.769C86.2309 146.884 85.3159 146.948 84.4019 147C83.2719 147.064 82.0689 147.165 80.9419 147.026C80.7709 147.006 80.7219 146.76 80.9069 146.712Z" fill="#263238"/>
<path d="M122.511 155.948C117.854 157.551 113.359 159.827 109.06 162.212C108.891 162.305 109.003 162.567 109.185 162.489C113.716 160.543 118.336 158.681 122.755 156.489C123.102 156.317 122.868 155.825 122.511 155.948Z" fill="#263238"/>
<path d="M123.875 124.913C123.863 124.756 123.588 124.722 123.589 124.891C123.626 130.27 123.283 135.003 122.829 140.03C122.619 142.364 120.741 155.262 116.694 154.322C116.016 154.164 115.67 153.497 115.564 152.476C115.436 151.248 115.898 149.742 116.101 148.52C116.55 145.82 116.911 143.111 117.143 140.384C117.576 135.293 117.597 130.201 116.978 125.126C116.958 124.959 116.717 124.972 116.717 125.141C116.723 132.189 116.539 139.224 115.485 146.205C114.979 149.56 113.289 154.611 116.798 155.127C120.373 155.653 122.684 147.193 123.12 144.878C124.337 138.419 124.386 131.447 123.875 124.913Z" fill="#263238"/>
<path d="M116.803 154.67C116.437 155.536 116.143 156.438 115.893 157.344C115.699 158.048 115.435 158.808 115.515 159.541C115.53 159.684 115.719 159.697 115.795 159.601C116.27 158.999 116.47 158.176 116.735 157.462C117.043 156.635 117.368 155.814 117.653 154.979C117.841 154.425 117.028 154.136 116.803 154.67Z" fill="#263238"/>
<path d="M27.8931 290.431C34.0021 278.93 43.6021 260.978 46.5761 255.289C49.5141 249.669 51.5071 243.765 53.3671 237.72C57.1461 225.437 60.7261 213.093 64.1041 200.694C67.4821 188.295 70.6381 175.836 73.6221 163.336C74.3681 160.21 75.1851 157.084 75.7871 153.927C76.4131 150.647 76.2251 147.581 75.7721 144.294C75.3591 141.29 75.2421 138.332 75.7021 135.324C76.1571 132.351 76.9011 129.428 77.7991 126.56C78.2721 125.049 78.7861 123.551 79.3051 122.055C79.3631 121.888 79.6221 121.964 79.5691 122.135C77.7191 128.189 75.8271 134.311 76.2251 140.722C76.4161 143.805 77.2321 146.831 77.1791 149.933C77.1261 153.019 76.3141 156.045 75.6211 159.034C72.7051 171.613 69.5561 184.135 66.2191 196.609C62.8821 209.082 59.3411 221.5 55.5951 233.856C53.7741 239.864 52.0711 245.968 49.4861 251.704C46.8971 257.45 37.1151 275.029 30.5431 286.257C29.7101 287.68 28.8691 289.098 28.0311 290.517C27.9781 290.607 27.8451 290.523 27.8931 290.431Z" fill="#263238"/>
<path d="M109.255 54.5072C122.351 61.6902 144.674 74.9692 153.739 76.0272C160.729 76.8432 193.628 55.0222 203.54 46.4872C206.578 43.8712 189.497 25.1192 186.029 27.6172C176.458 34.5112 150.555 50.7542 149.398 50.9592C145.115 51.7162 127.961 46.9942 112.718 44.0632C95.7069 40.7922 102.906 51.0242 109.255 54.5072Z" fill="#774442"/>
<path d="M133.07 69.4202L143.432 50.1653C143.432 50.1653 117.798 42.2293 106.236 43.2123C94.6749 44.1953 101.83 50.3482 107.688 54.3862C113.546 58.4242 133.07 69.4202 133.07 69.4202Z" fill="#C7C7C7"/>
<path d="M133.07 69.4202L143.432 50.1653C143.432 50.1653 117.798 42.2293 106.236 43.2123C94.6749 44.1953 101.83 50.3482 107.688 54.3862C113.546 58.4242 133.07 69.4202 133.07 69.4202Z" fill="#C76323"/>
<path d="M143.407 50.2022L143.317 50.3622C143.077 50.2522 142.837 50.1522 142.587 50.0622C142.217 49.9222 141.857 49.7422 141.477 49.6422L140.347 49.2822C139.967 49.1722 139.577 49.1022 139.187 49.0122L138.607 48.8722C138.417 48.8422 138.217 48.8222 138.017 48.7922C134.887 48.2822 131.657 48.5822 128.627 49.4922C125.587 50.4022 122.737 51.8522 120.027 53.4922C117.897 54.7722 115.857 56.1722 113.817 57.5822C113.717 57.6522 113.607 57.7322 113.507 57.7922C113.437 57.8422 113.367 57.8922 113.297 57.9322C113.167 57.8522 113.037 57.7722 112.907 57.6922C112.987 57.6522 113.057 57.5922 113.137 57.5422C113.237 57.4722 113.347 57.4022 113.447 57.3322C115.537 55.9022 117.637 54.4622 119.827 53.1622C122.567 51.5222 125.457 50.0822 128.537 49.1922C131.527 48.3322 134.707 48.0522 137.777 48.5322C140.427 49.2622 142.347 49.8322 143.087 50.0622C143.197 50.1022 143.307 50.1522 143.407 50.2022ZM136.557 61.9822C133.737 62.8922 131.007 64.0222 128.267 65.1122C127.717 65.3222 127.177 65.5422 126.627 65.7522C126.787 65.8422 126.947 65.9322 127.107 66.0222C127.547 65.8522 127.987 65.6822 128.427 65.5022C131.167 64.4022 133.887 63.2622 136.677 62.3422C136.757 62.3122 136.837 62.2922 136.917 62.2622L137.167 61.7922C136.957 61.8522 136.757 61.9122 136.557 61.9822ZM113.817 57.5822C113.697 57.4922 113.577 57.4122 113.447 57.3322C112.467 56.6622 111.397 56.1222 110.257 55.7822C110.027 55.7222 109.787 55.6622 109.547 55.6122C109.857 55.8122 110.197 56.0222 110.537 56.2422C111.457 56.5622 112.317 57.0122 113.137 57.5422C113.267 57.6222 113.387 57.7122 113.507 57.7922C113.767 57.9722 114.027 58.1622 114.277 58.3622C114.517 58.5522 114.757 58.7422 114.987 58.9522C115.437 59.2222 115.887 59.4922 116.347 59.7622C115.757 59.1722 115.147 58.6122 114.487 58.0922C114.267 57.9122 114.047 57.7422 113.817 57.5822Z" fill="white"/>
<path d="M129.269 66.342C130.472 63.532 132.038 60.839 133.489 58.151C134.979 55.392 136.652 52.743 138.197 50.016C138.241 49.939 138.378 50.008 138.337 50.088C136.936 52.826 135.654 55.616 134.15 58.304C132.631 61.02 131.143 63.837 129.339 66.377C129.313 66.414 129.251 66.385 129.269 66.342Z" fill="#263238"/>
<path opacity="0.1" d="M138.39 59.542L133.07 69.422C133.07 69.422 113.55 58.422 107.69 54.382C104.12 51.922 100.07 48.672 100.07 46.292L138.39 59.542Z" fill="black"/>
<path d="M71.6189 126.277C71.7739 126.447 134.112 125.341 134.704 124.656C135.531 123.692 126.814 65.5764 118.021 50.0694C113.817 42.6554 102.303 38.7174 95.6009 50.1974C79.5739 77.6534 71.0679 125.664 71.6189 126.277Z" fill="#C76323"/>
<path d="M134.65 122.543C134.36 122.563 134.06 122.583 133.77 122.583C133.57 122.593 133.37 122.603 133.17 122.603L132.57 122.573C132.17 122.553 131.77 122.553 131.37 122.513L130.18 122.363C129.78 122.323 129.39 122.213 129 122.133C128.21 122.003 127.45 121.743 126.68 121.523C125.93 121.243 125.18 120.993 124.45 120.643C123.71 120.343 123.02 119.943 122.3 119.583C121.62 119.173 120.92 118.793 120.26 118.343C119.58 117.913 118.94 117.443 118.29 116.983C117.65 116.503 117.01 116.033 116.39 115.523C115.67 114.943 114.96 114.343 114.26 113.723C114.18 113.653 114.09 113.583 114.01 113.493C112.4 112.083 110.85 110.593 109.3 109.103C107 106.903 104.72 104.663 102.22 102.703C100.97 101.733 99.6697 100.823 98.2697 100.093C97.9897 99.9427 97.6997 99.8027 97.4097 99.6827C97.2797 99.6127 97.1397 99.5527 96.9997 99.5027C95.9797 99.0727 94.9097 98.7727 93.8097 98.6427C93.4197 98.6227 93.0297 98.5827 92.6397 98.5727L91.4497 98.6127C91.0497 98.6227 90.6497 98.6127 90.2597 98.6627L89.0797 98.7827L88.4897 98.8527L87.9097 98.9527L86.7397 99.1727C85.9797 99.3927 85.1997 99.5527 84.4597 99.8427C84.1297 99.9527 83.7897 100.083 83.4697 100.213C83.3197 100.263 83.1697 100.323 83.0297 100.393C82.0397 100.803 81.0697 101.283 80.1097 101.773C78.7797 102.443 77.4397 103.113 76.0397 103.663C76.0597 103.583 76.0797 103.493 76.0997 103.413C77.4297 102.873 78.7097 102.213 79.9997 101.553C80.8897 101.093 81.7797 100.643 82.6997 100.253C82.8397 100.183 82.9797 100.123 83.1197 100.063C83.5297 99.8827 83.9497 99.7227 84.3697 99.5827C85.1197 99.2827 85.8997 99.1127 86.6697 98.8827L87.8497 98.6527L88.4397 98.5427L89.0397 98.4727L90.2297 98.3327C90.6297 98.2927 91.0297 98.2927 91.4297 98.2727L92.6297 98.2327C93.0397 98.2427 93.4397 98.2727 93.8497 98.2927C95.0397 98.4227 96.1897 98.7627 97.2797 99.2227C97.4097 99.2927 97.5397 99.3427 97.6697 99.4127C97.9297 99.5227 98.1797 99.6527 98.4297 99.7827C99.8497 100.543 101.16 101.473 102.41 102.463C104.92 104.463 107.18 106.723 109.46 108.943C111.05 110.493 112.64 112.033 114.29 113.503C114.37 113.583 114.46 113.663 114.54 113.733C115.18 114.303 115.83 114.863 116.49 115.403C117.72 116.413 118.98 117.383 120.33 118.233C120.99 118.673 121.69 119.053 122.37 119.463C123.08 119.813 123.78 120.203 124.52 120.503C125.24 120.833 125.99 121.083 126.74 121.353C127.5 121.563 128.26 121.823 129.04 121.953C129.43 122.013 129.81 122.123 130.21 122.163L131.39 122.303C131.78 122.343 132.18 122.343 132.58 122.363L133.17 122.383C133.37 122.383 133.57 122.373 133.77 122.363C134.06 122.353 134.34 122.343 134.63 122.313C134.64 122.393 134.65 122.473 134.65 122.543ZM132.76 108.703C132.71 108.733 132.65 108.763 132.6 108.793C130.02 110.203 127.34 111.433 124.51 112.263C121.7 113.103 118.76 113.513 115.82 113.543C115.31 113.543 114.8 113.533 114.29 113.503C114.19 113.503 114.1 113.503 114.01 113.493C111.67 113.373 109.36 113.013 107.1 112.383C105.68 112.003 104.29 111.513 102.92 110.963C101.55 110.413 100.22 109.773 98.9197 109.093C96.5097 107.853 94.2097 106.423 91.8997 104.993C91.7797 104.913 91.6497 104.843 91.5297 104.763C91.4497 104.713 91.3697 104.663 91.2897 104.613C88.7797 103.063 86.2697 101.483 83.5697 100.253C83.5397 100.243 83.4997 100.223 83.4697 100.213C83.3597 100.153 83.2397 100.103 83.1197 100.063C81.2997 99.2627 79.3697 98.6427 77.3797 98.3727C77.3397 98.4927 77.3097 98.6127 77.2897 98.7227C77.9597 98.8127 78.6297 98.9427 79.2897 99.1027C80.4497 99.3927 81.5897 99.7827 82.6997 100.253C82.8097 100.293 82.9197 100.343 83.0297 100.393C83.1597 100.443 83.2997 100.503 83.4297 100.563C86.1197 101.753 88.6497 103.283 91.1697 104.803C91.2297 104.843 91.2897 104.873 91.3497 104.913C91.4797 104.983 91.5997 105.063 91.7297 105.133C94.0697 106.553 96.4097 107.973 98.8497 109.213C100.16 109.893 101.51 110.523 102.87 111.083C104.24 111.643 105.63 112.143 107.06 112.533C109.4 113.213 111.82 113.593 114.26 113.723C114.35 113.733 114.45 113.733 114.54 113.733C114.97 113.753 115.39 113.773 115.82 113.773C118.78 113.763 121.75 113.383 124.6 112.563C127.46 111.763 130.19 110.543 132.78 109.133C132.79 109.123 132.81 109.123 132.82 109.113C132.8 108.973 132.78 108.843 132.76 108.703ZM129.01 87.9727C128.33 87.6627 127.64 87.4227 126.94 87.1727C126.17 86.9527 125.41 86.6927 124.62 86.5527C124.22 86.4827 123.84 86.3727 123.44 86.3327L122.25 86.1827C121.85 86.1327 121.45 86.1427 121.05 86.1127L120.45 86.0927C120.25 86.0827 120.05 86.1027 119.85 86.1027C116.64 86.1527 113.47 87.0227 110.61 88.4727C107.74 89.9027 105.16 91.8527 102.77 93.9627C100.86 95.6427 99.0597 97.4427 97.2797 99.2227C97.1797 99.3227 97.0897 99.4127 96.9997 99.5027L95.8897 100.613C94.4697 102.023 93.0397 103.443 91.5297 104.763C91.4697 104.803 91.4097 104.853 91.3497 104.913C90.5197 105.623 89.6697 106.303 88.7797 106.933C87.4897 107.843 86.1097 108.633 84.6397 109.183C83.1697 109.743 81.6097 109.993 80.0297 109.953C78.4497 109.923 76.8797 109.723 75.3597 109.303C75.1597 109.243 74.9497 109.183 74.7497 109.113C74.7297 109.223 74.6997 109.333 74.6797 109.443C74.8697 109.513 75.0597 109.573 75.2597 109.633C76.8097 110.073 78.4197 110.293 80.0197 110.343L80.6297 110.353L81.2297 110.323L81.8397 110.293L82.4397 110.193L83.0397 110.093C83.2397 110.053 83.4297 109.993 83.6297 109.943L84.2097 109.783C84.4097 109.723 84.5897 109.643 84.7797 109.573C86.2997 109.013 87.7097 108.193 89.0197 107.273C89.9697 106.613 90.8597 105.883 91.7297 105.133C91.7897 105.083 91.8497 105.033 91.8997 104.993C92.1797 104.743 92.4597 104.493 92.7397 104.243C93.9197 103.163 95.0597 102.043 96.1897 100.913C96.5997 100.503 96.9997 100.093 97.4097 99.6827C97.4997 99.5927 97.5897 99.5027 97.6697 99.4127C99.4197 97.6527 101.17 95.8927 103.02 94.2527C105.4 92.1427 107.93 90.1927 110.75 88.7427C113.56 87.2927 116.68 86.4027 119.85 86.3227C120.05 86.3227 120.25 86.3027 120.45 86.3027L121.04 86.3327C121.44 86.3527 121.83 86.3427 122.23 86.3927L123.41 86.5327C123.8 86.5627 124.19 86.6727 124.58 86.7427C125.36 86.8727 126.12 87.1227 126.88 87.3327C127.62 87.6027 128.35 87.8427 129.06 88.1727C129.04 88.1027 129.03 88.0427 129.01 87.9727ZM119.6 53.3027C117.49 54.5727 115.47 55.9527 113.45 57.3327C113.35 57.4027 113.24 57.4727 113.14 57.5427C112.71 57.8427 112.27 58.1327 111.84 58.4327C109.21 60.2227 106.57 62.0127 103.7 63.3427C103.19 63.5827 102.66 63.7927 102.14 63.9927C102.03 64.0327 101.92 64.0727 101.82 64.1127C100.97 64.4127 100.1 64.6527 99.2097 64.8027C97.6697 65.0727 96.0897 65.0327 94.5397 64.7027C92.9997 64.3927 91.4797 63.9027 90.0697 63.2127C89.8097 63.0827 89.5497 62.9427 89.2997 62.7927C89.2497 62.8927 89.2097 62.9927 89.1697 63.0927C89.4097 63.2427 89.6597 63.3827 89.9097 63.5127C91.3497 64.2427 92.8897 64.7427 94.4597 65.0827L95.0497 65.2127L95.6597 65.2927L96.2597 65.3727L96.8697 65.3927L97.4697 65.4027C97.6797 65.3927 97.8797 65.3727 98.0797 65.3527L98.6897 65.3027C98.8897 65.2827 99.0797 65.2327 99.2797 65.2027C100.29 65.0327 101.27 64.7527 102.23 64.4027C102.34 64.3627 102.45 64.3227 102.56 64.2727C103 64.1027 103.44 63.9227 103.87 63.7227C105.33 63.0627 106.72 62.2627 108.08 61.4227C109.44 60.5827 110.77 59.6927 112.08 58.7827C112.56 58.4527 113.03 58.1327 113.51 57.7927C113.61 57.7327 113.72 57.6527 113.82 57.5827C115.77 56.2427 117.72 54.8927 119.75 53.6627C119.7 53.5427 119.65 53.4227 119.6 53.3027ZM124.06 66.6827C123.49 66.8827 122.91 67.0627 122.33 67.2327C122.25 67.2627 122.17 67.2827 122.08 67.3027C121.36 67.5127 120.63 67.7027 119.9 67.8527C117.04 68.4727 114.06 68.5627 111.21 67.8427C108.35 67.2427 105.54 66.2627 103.09 64.6327C102.91 64.5227 102.73 64.4027 102.56 64.2727C102.41 64.1827 102.28 64.0927 102.14 63.9927C100.05 62.5227 98.1297 60.7827 95.8397 59.5627C94.5297 58.8227 93.1497 58.2527 91.7297 57.8027C91.6797 57.7827 91.6397 57.7727 91.5997 57.7627C91.5897 57.7827 91.5797 57.8027 91.5697 57.8327C91.5597 57.8427 91.5497 57.8627 91.5497 57.8827C91.6097 57.9027 91.6597 57.9127 91.7197 57.9327C92.4097 58.1927 93.0997 58.4427 93.7797 58.7427C94.4297 59.0627 95.1197 59.3427 95.7397 59.7327C97.9397 60.9327 99.7897 62.6327 101.82 64.1127C101.96 64.2127 102.09 64.3127 102.23 64.4027C102.46 64.5727 102.69 64.7227 102.93 64.8827C105.39 66.5527 108.24 67.5827 111.13 68.2227C114.02 68.9827 117.09 68.8827 119.99 68.2627C120.78 68.0927 121.57 67.9027 122.34 67.6727C122.42 67.6527 122.51 67.6227 122.59 67.6027C123.12 67.4427 123.65 67.2727 124.17 67.0927C124.14 66.9527 124.1 66.8127 124.06 66.6827ZM125.3 71.4227C124.75 70.6527 124.2 69.8827 123.66 69.1127C123.3 68.6127 122.95 68.1027 122.59 67.6027C122.51 67.4827 122.42 67.3527 122.33 67.2327C120.93 65.2527 119.51 63.2927 117.92 61.4527C116.87 60.2427 115.75 59.0927 114.49 58.0927C114.27 57.9127 114.05 57.7427 113.82 57.5827C113.7 57.4927 113.58 57.4127 113.45 57.3327C112.47 56.6627 111.4 56.1227 110.26 55.7827C109.87 55.6827 109.48 55.5827 109.08 55.4927L107.89 55.3227C107.5 55.2727 107.1 55.1927 106.7 55.1627L105.5 55.0727L104.9 55.0327L104.3 55.0427H103.1C102.3 55.1227 101.5 55.1527 100.71 55.3127C99.1197 55.5527 97.5797 55.9827 96.0497 56.4427C94.6097 56.8827 93.1597 57.2927 91.6797 57.6027C91.6497 57.6527 91.6297 57.7027 91.5997 57.7627C91.5897 57.7827 91.5797 57.8027 91.5697 57.8327C91.6197 57.8227 91.6797 57.8127 91.7297 57.8027C93.2097 57.5127 94.6697 57.1027 96.1197 56.6827C97.6497 56.2327 99.1797 55.8127 100.75 55.5827C101.53 55.4327 102.33 55.4127 103.11 55.3427H104.89L105.49 55.3927L106.67 55.4827C107.06 55.5127 107.45 55.5927 107.85 55.6527L109.02 55.8327C109.4 55.9227 109.78 56.0227 110.16 56.1127C111.22 56.4427 112.21 56.9427 113.14 57.5427C113.27 57.6227 113.39 57.7127 113.51 57.7927C113.77 57.9727 114.03 58.1627 114.28 58.3627C115.52 59.3327 116.64 60.4627 117.69 61.6527C119.26 63.4427 120.68 65.3627 122.08 67.3027C122.16 67.4227 122.25 67.5527 122.34 67.6727C122.72 68.1927 123.09 68.7227 123.47 69.2427C124.12 70.1527 124.78 71.0627 125.44 71.9727C125.4 71.7827 125.35 71.6027 125.3 71.4227Z" fill="white"/>
<path d="M113.83 54.9825C111.064 55.3075 104.923 50.5395 102.356 46.3315C102.182 46.0425 102.489 42.9005 102.683 39.0645C102.791 36.7365 102.857 34.1415 102.746 31.7695L117.793 34.6865C117.793 34.6865 116.564 39.7275 116.783 43.8615C116.805 44.2065 116.854 44.5265 116.931 44.8305C116.938 44.8755 116.954 44.9285 116.96 44.9905C117.347 46.8255 118.16 54.4735 113.83 54.9825Z" fill="#774442"/>
<path d="M102.711 38.3974C105.923 42.7434 110.742 46.9134 117.121 45.9174C117.063 45.5264 117.014 45.2134 116.963 44.9894C116.953 44.9334 116.932 44.8774 116.933 44.8334C116.85 44.5304 116.802 44.2074 116.787 43.8614C116.566 39.7254 117.79 34.6864 117.79 34.6864L102.744 31.7734C102.854 33.9134 102.803 36.2504 102.711 38.3974Z" fill="#263238"/>
<path d="M98.7706 14.8453C97.4186 20.1993 100.949 35.3003 104.867 38.5143C110.547 43.1743 119.474 43.2093 123.339 36.4673C127.086 29.9313 122.137 10.3323 117.796 7.44926C111.401 3.20426 100.768 6.93726 98.7706 14.8453Z" fill="#774442"/>
<path d="M113.71 22.565C113.692 22.529 113.645 22.635 113.657 22.676C113.966 23.674 114.151 24.87 113.332 25.455C113.307 25.473 113.324 25.523 113.356 25.509C114.425 25.046 114.163 23.462 113.71 22.565Z" fill="#263238"/>
<path d="M112.523 21.7609C110.869 22.0829 111.636 25.3669 113.168 25.0689C114.676 24.7749 113.91 21.4909 112.523 21.7609Z" fill="#263238"/>
<path d="M119.672 20.9538C119.67 20.9128 119.763 20.9828 119.771 21.0248C119.976 22.0498 120.384 23.1888 121.382 23.3118C121.413 23.3158 121.422 23.3678 121.387 23.3708C120.228 23.4748 119.702 21.9568 119.672 20.9538Z" fill="#263238"/>
<path d="M120.334 19.6793C121.941 19.1733 122.835 22.4253 121.346 22.8933C119.881 23.3553 118.987 20.1043 120.334 19.6793Z" fill="#263238"/>
<path d="M110.874 20.5622C111.295 20.3452 111.647 20.0752 112.041 19.8172C112.486 19.5262 112.87 19.3412 113.087 18.8312C113.203 18.5572 113.034 18.1542 112.779 18.0172C112.185 17.6962 111.552 17.9162 111.002 18.2442C110.406 18.6002 110.037 19.0272 109.8 19.6782C109.57 20.3092 110.319 20.8482 110.874 20.5622Z" fill="#263238"/>
<path d="M121.182 18.1329C120.709 18.1649 120.268 18.1159 119.798 18.0989C119.267 18.0799 118.842 18.1199 118.393 17.7949C118.152 17.6209 118.088 17.1889 118.235 16.9389C118.577 16.3569 119.234 16.2189 119.874 16.2149C120.569 16.2109 121.105 16.3859 121.645 16.8209C122.168 17.2429 121.805 18.0909 121.182 18.1329Z" fill="#263238"/>
<path d="M114.969 32.2273C115.268 32.4083 115.588 32.6803 115.964 32.6243C116.325 32.5713 116.703 32.3143 116.998 32.1133C117.027 32.0933 117.068 32.1203 117.054 32.1553C116.881 32.6073 116.383 32.9813 115.892 33.0093C115.413 33.0363 115.092 32.6913 114.882 32.2963C114.853 32.2403 114.926 32.2003 114.969 32.2273Z" fill="#263238"/>
<path d="M115.333 28.9311C116.108 29.6811 117.058 29.9681 118.004 29.9331C118.427 29.9201 118.856 29.8351 119.263 29.6991C119.344 29.6781 119.424 29.6501 119.495 29.6161C119.567 29.5901 119.632 29.5651 119.71 29.5301C119.825 29.4851 119.867 29.3721 119.861 29.2551L119.859 29.2481C119.85 29.2111 119.842 29.1811 119.825 29.1461C119.825 29.1461 119.825 29.1461 119.823 29.1391L119.8 29.0501C119.639 28.2621 119.285 27.0881 119.285 27.0881C119.605 27.1641 121.217 27.4801 121.098 27.0771C120.105 23.7371 119.001 20.0221 117.308 16.9081C117.257 16.8021 117.093 16.8681 117.128 16.9771C117.955 20.2251 119.348 23.3061 120.231 26.5551C119.724 26.4871 118.888 26.3371 118.48 26.4401C118.376 26.4981 119.205 28.6961 119.249 29.0551C119.249 29.0551 119.253 29.0701 119.251 29.0941C117.974 29.5691 116.89 29.4031 115.406 28.8171C115.318 28.7781 115.253 28.8651 115.333 28.9311Z" fill="#263238"/>
<path d="M118.706 29.4103C118.706 29.4103 118.23 30.5093 117.358 31.0693C117.037 31.2763 116.671 31.4143 116.251 31.4013C115.389 31.3773 115.195 30.6363 115.195 29.9643C115.193 29.4113 115.331 28.9033 115.331 28.9033C115.331 28.9033 116.777 29.7363 118.706 29.4103Z" fill="#263238"/>
<path d="M117.358 31.0698C117.037 31.2768 116.671 31.4148 116.251 31.4018C115.389 31.3778 115.195 30.6367 115.195 29.9647C116.087 29.8507 117.087 30.2408 117.358 31.0698Z" fill="#FF99BA"/>
<path d="M99.6733 27.665C99.0803 26.355 93.2893 12.147 93.4323 10.48C93.5623 8.96201 95.2553 9.31501 95.2663 9.22801C95.2783 9.13001 95.1223 7.79901 95.8723 7.17301C96.5353 6.62101 97.6663 6.93201 97.6663 6.93201C97.6663 6.93201 97.7023 5.48602 98.5293 4.97002C99.3563 4.45302 100.315 5.07801 100.315 5.07801C100.315 5.07801 100.402 3.67901 101.472 3.18401C102.542 2.69001 103.279 3.57201 103.279 3.57201C103.279 3.57201 103.449 2.17201 104.333 1.77201C105.217 1.37201 106.165 2.24101 106.165 2.24101C106.165 2.24101 106.489 0.941013 107.603 0.754013C108.745 0.562013 109.344 1.72501 109.344 1.72501C109.344 1.72501 109.828 0.441015 110.876 0.249015C111.924 0.0580153 112.489 1.31401 112.489 1.31401C112.489 1.31401 112.74 0.0770131 113.742 0.00301315C114.744 -0.0719869 115.192 1.27801 115.192 1.27801C115.192 1.27801 115.252 0.181012 116.475 0.380012C118.353 0.686012 120.569 9.92001 121.546 13.574C121.546 13.574 120.391 10.883 119.622 10.933C118.853 10.983 118.469 12.28 117.102 12.81C115.153 13.565 111.433 11.712 108.743 12.732C106.129 13.723 104.561 16.869 104.236 21.262C103.872 26.214 101.08 30.774 99.6733 27.665Z" fill="#263238"/>
<path d="M102.636 27.1036C102.636 27.1036 98.8549 22.4196 96.7059 23.8006C94.5569 25.1816 97.6379 32.1376 100.327 32.9326C103.016 33.7276 103.801 31.2526 103.801 31.2526L102.636 27.1036Z" fill="#774442"/>
<path d="M97.6359 25.7725C97.5939 25.7715 97.5899 25.8315 97.6269 25.8435C99.5169 26.4615 100.602 28.0995 101.402 29.8195C100.808 29.1765 100.038 28.8555 99.1719 29.5695C99.1269 29.6065 99.1779 29.6795 99.2289 29.6645C99.9709 29.4515 100.523 29.5445 101.074 30.1125C101.464 30.5145 101.747 31.0375 102.039 31.5125C102.137 31.6715 102.427 31.5625 102.351 31.3775C102.346 31.3635 102.339 31.3495 102.333 31.3355C102.217 28.9895 100.169 25.8345 97.6359 25.7725Z" fill="#263238"/>
<path d="M117.891 47.067C117.881 47.038 117.837 47.0481 117.844 47.0791C118.493 49.9651 119.806 56.687 115.17 57.011C113.302 57.141 111.438 56.2621 109.856 55.3611C108.23 54.4361 106.733 53.3 105.344 52.05C103.803 50.664 102.212 49.2051 100.921 47.5811C100.866 47.5121 100.763 47.6101 100.822 47.6781C102.192 49.2851 103.394 50.9911 104.92 52.4671C106.388 53.8881 108.006 55.1711 109.805 56.1481C111.491 57.0641 113.464 57.924 115.427 57.692C117.294 57.472 118.461 56.1101 118.729 54.3101C119.08 51.9461 118.62 49.317 117.891 47.067Z" fill="#263238"/>
</svg>
