<svg width="84" height="105" viewBox="0 0 84 105" fill="none" xmlns="http://www.w3.org/2000/svg">
<path d="M66.454 84C55.7873 89 36.1996 97.7 48.9996 100.5" stroke="white" stroke-opacity="0.5" stroke-linecap="round"/>
<path d="M13.9128 12.9414C16.6198 20.7874 27.1668 52.5694 28.7288 54.0104C35.0618 59.8504 50.9968 70.0835 52.9448 72.2035C55.6028 75.0965 43.6378 92.9185 39.4628 92.4195C37.7358 92.2135 16.4078 78.1824 9.80184 71.3034C4.47884 65.7614 1.70884 30.2814 1.54884 13.7864C1.40984 -0.369554 8.67083 -2.25255 13.9128 12.9414Z" fill="#774442"/>
<path d="M1.88176 40.5413L23.6998 39.0903C23.6998 39.0903 16.8048 13.1563 9.82976 3.88431C2.85476 -5.38769 1.44377 3.9433 1.13477 11.0513C0.825766 18.1593 1.88176 40.5413 1.88176 40.5413Z" fill="#C76323"/>
<path d="M23.2981 37.6256C21.3881 37.9756 19.5281 38.6156 17.7881 39.4856L17.0081 39.5356C17.0781 39.4856 17.1581 39.4556 17.2281 39.4156C19.1181 38.4556 21.1481 37.7556 23.2281 37.3756C23.2481 37.4656 23.2781 37.5456 23.2981 37.6256ZM14.3881 12.0656C13.0681 12.8756 11.7181 13.6356 10.3181 14.2856C9.80813 14.5256 9.27812 14.7356 8.75812 14.9356C8.64812 14.9756 8.53813 15.0156 8.43813 15.0556C7.58813 15.3556 6.71812 15.5956 5.82812 15.7456C4.28813 16.0156 2.70813 15.9756 1.15813 15.6456C1.12813 15.6356 1.10812 15.6356 1.07812 15.6256V16.0256L1.66812 16.1556L2.27812 16.2356L2.87813 16.3156L3.48813 16.3356L4.08812 16.3456C4.29812 16.3356 4.49812 16.3156 4.69812 16.2956L5.30812 16.2456C5.50812 16.2256 5.69813 16.1756 5.89813 16.1456C6.90813 15.9756 7.88813 15.6956 8.84813 15.3456C8.95813 15.3056 9.06813 15.2656 9.17813 15.2156C9.61813 15.0456 10.0581 14.8656 10.4881 14.6656C11.8981 14.0256 13.2481 13.2556 14.5581 12.4456C14.4981 12.3156 14.4381 12.1856 14.3881 12.0656ZM17.0981 18.6256C14.4881 18.0156 11.9481 17.0656 9.70813 15.5756C9.52813 15.4656 9.34813 15.3456 9.17813 15.2156C9.02813 15.1256 8.89812 15.0356 8.75812 14.9356C6.66812 13.4656 4.74813 11.7256 2.45813 10.5056C2.04813 10.2756 1.62813 10.0556 1.19813 9.85558C1.18813 9.91558 1.18812 9.98557 1.17812 10.0556C1.57812 10.2456 1.97812 10.4356 2.35812 10.6756C4.55812 11.8756 6.40813 13.5756 8.43813 15.0556C8.57813 15.1556 8.70813 15.2556 8.84813 15.3456C9.07813 15.5156 9.30813 15.6656 9.54813 15.8256C11.8681 17.4056 14.5381 18.4056 17.2581 19.0456C17.2081 18.9056 17.1581 18.7656 17.0981 18.6256ZM11.2281 5.97559L10.9181 5.98558H9.71812C8.91812 6.06558 8.11813 6.09558 7.32812 6.25558C5.73812 6.49558 4.19812 6.92557 2.66812 7.38557C2.22812 7.51557 1.79812 7.64557 1.35812 7.77557C1.34812 7.85557 1.33813 7.94557 1.33813 8.02557C1.80813 7.89557 2.27813 7.75558 2.73813 7.62558C4.26813 7.17558 5.79812 6.75557 7.36812 6.52557C8.14812 6.37557 8.94812 6.35558 9.72812 6.28558H11.4081C11.3481 6.17558 11.2881 6.07559 11.2281 5.97559Z" fill="white"/>
<path d="M2.46801 35.6862C5.48701 35.2122 8.60101 35.1082 11.649 34.9102C14.779 34.7072 17.911 34.7172 21.042 34.5772C21.13 34.5732 21.145 34.7262 21.055 34.7342C17.99 35.0012 14.946 35.3982 11.87 35.5522C8.76202 35.7082 5.58502 35.9442 2.47502 35.7652C2.43102 35.7612 2.42201 35.6932 2.46801 35.6862Z" fill="#263238"/>
<path d="M0.202821 22.1197C0.421821 23.4347 0.648823 24.7467 0.894823 26.0567C0.860823 23.3227 0.852816 20.5857 0.948816 17.8587C0.950816 17.7887 1.06682 17.7877 1.07182 17.8577C1.36482 21.6527 1.52982 25.4727 1.66582 29.2767C1.79682 32.9347 2.03282 36.6487 1.90582 40.3097C2.17882 40.3327 2.45182 40.3567 2.72582 40.3707C2.85182 40.3767 2.85282 40.5777 2.72782 40.5907C2.39082 40.6257 2.05582 40.6737 1.71982 40.7187C1.60782 40.7337 1.49182 40.6527 1.47882 40.5377C1.03482 36.7707 1.01282 32.8907 0.932817 29.0997C0.919817 28.4787 0.919822 27.8557 0.909822 27.2347C0.525822 25.5547 0.194818 23.8627 0.000817989 22.1487C-0.014182 22.0177 0.181821 21.9907 0.202821 22.1197Z" fill="#263238"/>
<path d="M22.8943 39.144L23.6903 39.026L23.6323 39.11C23.0123 37.5 22.4603 35.869 21.8983 34.241C21.3543 32.608 20.8373 30.966 20.3383 29.319C19.8483 27.67 19.3593 26.02 18.9263 24.353C18.4823 22.69 18.0523 21.022 17.6953 19.332C18.3373 20.935 18.9083 22.561 19.4633 24.19C20.0303 25.816 20.5413 27.459 21.0513 29.103C21.5523 30.749 22.0353 32.401 22.4913 34.061C22.9283 35.726 23.3763 37.389 23.7563 39.072L23.7753 39.157L23.6983 39.156L22.8943 39.144Z" fill="#263238"/>
<path d="M19.5971 21.1758C19.8351 21.9908 19.9241 22.8128 19.9781 23.6378C20.0131 24.4638 20.0121 25.2908 19.8601 26.1258C19.6201 25.3108 19.5321 24.4888 19.4791 23.6638C19.4451 22.8378 19.4461 22.0108 19.5971 21.1758Z" fill="#263238"/>
<path d="M63.4306 82.1185C62.4636 80.7945 63.1516 80.2775 65.9576 81.0655C68.7986 81.8555 79.2056 87.3495 80.8146 83.5455C82.4366 79.7315 67.5826 72.1975 62.8076 71.2445C58.0346 70.2805 49.9766 70.4235 49.9766 70.4235C52.5726 72.4705 58.3916 78.0365 63.4306 82.1185Z" fill="#774442"/>
<path d="M37.0859 91.0648C44.6109 97.7468 53.6299 103.868 64.0879 104.913C66.1389 105.118 67.4219 104.207 67.4219 104.207C72.1009 104.758 73.7659 102.715 73.7659 102.715C78.2819 101.894 79.6969 99.5698 79.6969 99.5698C79.6969 99.5698 83.5039 99.5498 83.6849 96.8868C83.8599 94.3028 77.8049 92.2158 73.4829 89.4898C63.5809 83.2458 52.6529 72.5088 49.9759 70.4238L37.0859 91.0648Z" fill="#774442"/>
<path d="M59.911 91.1473C62.862 92.9263 65.714 94.7513 68.89 96.1223C72.375 97.6263 75.9809 98.4883 79.6299 99.4583C79.7439 99.4883 79.7129 99.6503 79.5959 99.6383C72.7119 98.9283 65.2 95.6183 59.827 91.2803C59.698 91.1743 59.763 91.0573 59.911 91.1473Z" fill="#263238"/>
<path d="M55.2682 96.5758C58.2352 98.1478 63.4682 100.878 73.7822 102.604C73.8162 102.61 73.8172 102.669 73.7792 102.667C66.9332 102.437 60.9072 100.388 55.1932 96.7168C55.0162 96.6038 55.0702 96.4718 55.2682 96.5758Z" fill="#263238"/>
<path d="M52.8358 99.5403C57.9828 102.021 61.5418 102.934 67.4058 104.178C67.4388 104.185 67.4358 104.245 67.3988 104.241C60.5868 103.527 58.1968 102.496 52.7258 99.7053C52.5378 99.6083 52.6348 99.4433 52.8358 99.5403Z" fill="#263238"/>
<path d="M66.5 84C66.1667 91.1667 63.4 104.1 49 100.5" stroke="white" stroke-opacity="0.5" stroke-linecap="round"/>
</svg>
