<svg width="500" height="500" viewBox="0 0 500 500" fill="none" xmlns="http://www.w3.org/2000/svg">
<path d="M97.9236 59.0439H62.7656V70.2339H97.9236V59.0439Z" fill="#EBEBEB" fill-opacity="0.5"/>
<path d="M339.916 191.564H304.758V202.754H339.916V191.564Z" fill="#EBEBEB" fill-opacity="0.5"/>
<path d="M78.3153 44.9336C72.4763 45.0316 57.5042 45.2816 51.8682 45.3466L43.1572 45.3896L43.6133 44.9336L43.6572 56.1236L43.1582 55.6246C48.9962 55.6426 63.8852 55.6966 69.5262 55.7776L78.3153 55.8866L78.0783 56.1236L78.3153 44.9336ZM78.3153 44.9336L78.5522 56.1236L78.5572 56.3586L78.3153 56.3616C73.9293 56.4196 65.1202 56.5206 60.7362 56.5556L43.1572 56.6236L42.6562 56.6256L42.6582 56.1236L42.7022 44.9336L42.7043 44.4756L43.1582 44.4776L52.0262 44.5206C57.6262 44.5826 72.5313 44.8346 78.3153 44.9336Z" fill="#EBEBEB" fill-opacity="0.5"/>
<path d="M177.808 285.979C171.969 286.077 156.997 286.327 151.361 286.392L142.65 286.435L143.106 285.979L143.15 297.169L142.651 296.671C148.489 296.689 163.379 296.742 169.019 296.823L177.808 296.932L177.571 297.169L177.808 285.979ZM177.808 285.979L178.045 297.169L178.05 297.404L177.807 297.406C173.421 297.464 164.612 297.565 160.228 297.6L142.649 297.668L142.148 297.671L142.15 297.169L142.194 285.979L142.196 285.521L142.65 285.523L151.518 285.566C157.12 285.627 172.024 285.88 177.808 285.979Z" fill="#EBEBEB" fill-opacity="0.5"/>
<path d="M158.199 271.869C152.36 271.967 137.388 272.217 131.752 272.282L123.041 272.325L123.497 271.869L123.541 283.059L123.042 282.56C128.88 282.578 143.769 282.632 149.41 282.713L158.199 282.822L157.962 283.059L158.199 271.869ZM158.199 271.869L158.436 283.059L158.441 283.293L158.198 283.296C153.812 283.354 145.004 283.455 140.619 283.49L123.04 283.558L122.539 283.56L122.541 283.059L122.585 271.869L122.587 271.411L123.041 271.413L131.909 271.456C137.511 271.518 152.415 271.77 158.199 271.869Z" fill="#EBEBEB" fill-opacity="0.5"/>
<path d="M138.666 285.979H103.508V297.169H138.666V285.979Z" fill="#EBEBEB" fill-opacity="0.5"/>
<path d="M437.228 390.484H402.07V401.674H437.228V390.484Z" fill="#EBEBEB" fill-opacity="0.5"/>
<path d="M456.84 376.375C451.001 376.474 436.029 376.723 430.393 376.788L421.682 376.831L422.138 376.375L422.182 387.565L421.683 387.066C427.521 387.084 442.41 387.138 448.051 387.219L456.84 387.328L456.603 387.565L456.84 376.375ZM456.84 376.375L457.077 387.565L457.082 387.799L456.84 387.802C452.454 387.86 443.645 387.961 439.261 387.996L421.682 388.064L421.18 388.066L421.182 387.565L421.226 376.375L421.228 375.917L421.682 375.919L430.55 375.962C436.152 376.024 451.056 376.276 456.84 376.375Z" fill="#EBEBEB" fill-opacity="0.5"/>
<path d="M97.9256 390.484C92.0866 390.582 77.1146 390.832 71.4786 390.897L62.7676 390.94L63.2236 390.484L63.2676 401.674L62.7686 401.175L80.3476 401.243C84.7246 401.278 93.5496 401.379 97.9266 401.437L97.6896 401.674L97.9256 390.484ZM97.9256 390.484L98.1626 401.674L98.1676 401.908L97.9246 401.911C93.5386 401.969 84.7296 402.07 80.3456 402.105L62.7666 402.173L62.2656 402.175L62.2676 401.674L62.3116 390.484L62.3136 390.026L62.7676 390.028L71.6356 390.071C77.2366 390.133 92.1416 390.385 97.9256 390.484Z" fill="#EBEBEB" fill-opacity="0.5"/>
<path d="M202.064 120.151L200.244 133.153C199.461 138.746 194.672 142.36 189.071 141.576C183.877 140.849 179.865 136.004 180.648 130.411L183.559 109.609C183.586 109.414 183.79 109.442 183.818 109.239C183.642 109.015 183.642 109.015 183.67 108.812C184.398 103.61 189.642 99.6532 194.836 100.38C207.439 102.144 219.04 93.5742 220.775 81.1742C222.538 68.5792 213.709 57.3492 201.105 55.5852C192.906 54.4372 185.093 57.8352 180.368 63.8972C176.903 68.3102 170.679 69.0662 166.268 65.5922C162.059 62.1562 161.275 56.1272 164.747 51.7242C173.68 40.3322 188.452 33.8332 203.848 35.9882C227.052 39.2362 243.415 60.6932 240.168 83.8882C237.398 103.688 221.274 118.357 202.064 120.151ZM195.934 163.944L195.43 167.542C194.646 173.144 189.857 176.757 184.256 175.973C179.062 175.246 175.05 170.401 175.834 164.799L176.338 161.201C177.093 155.803 182.309 152.051 187.503 152.778C193.104 153.562 196.689 158.547 195.934 163.944Z" fill="#EBEBEB" fill-opacity="0.5"/>
<path d="M105.185 182.394L108.103 192.991C109.358 197.55 106.877 201.917 102.312 203.174C98.0792 204.34 93.3872 201.948 92.1312 197.389L87.4622 180.435C87.4182 180.276 87.5842 180.23 87.5382 180.064C87.3282 179.95 87.3282 179.95 87.2832 179.784C86.1152 175.544 88.8322 170.763 93.0662 169.597C103.338 166.768 109.408 156.33 106.625 146.224C103.798 135.959 93.2842 130.259 83.0122 133.088C76.3302 134.928 71.4532 140.133 69.8342 146.361C68.6362 150.903 64.1042 153.55 59.5602 152.345C55.1842 151.102 52.5812 146.728 53.7872 142.192C56.8702 130.471 66.0662 120.571 78.6142 117.116C97.5262 111.908 117.225 122.967 122.431 141.872C126.875 158.011 119.354 174.638 105.185 182.394ZM115.013 218.087L115.821 221.02C117.078 225.585 114.597 229.952 110.032 231.209C105.799 232.375 101.107 229.983 99.8492 225.418L99.0412 222.485C97.8292 218.086 100.592 213.47 104.825 212.304C109.391 211.048 113.802 213.688 115.013 218.087Z" fill="#EBEBEB" fill-opacity="0.5"/>
<path d="M156.92 230.093L156.49 238.229C156.305 241.729 153.537 244.219 150.032 244.034C146.782 243.862 144.042 241.081 144.227 237.581L144.915 224.564C144.922 224.442 145.049 224.449 145.056 224.321C144.935 224.192 144.935 224.192 144.942 224.065C145.114 220.809 148.145 218.083 151.395 218.255C159.282 218.672 165.996 212.753 166.406 204.994C166.823 197.112 160.764 190.641 152.877 190.224C147.747 189.953 143.097 192.471 140.5 196.472C138.594 199.385 134.786 200.185 131.873 198.274C129.087 196.375 128.28 192.689 130.192 189.781C135.106 182.26 143.892 177.452 153.527 177.962C168.047 178.73 179.311 191.122 178.543 205.637C177.887 218.025 168.702 227.957 156.92 230.093ZM155.471 257.497L155.352 259.749C155.167 263.254 152.399 265.744 148.894 265.559C145.644 265.387 142.904 262.606 143.089 259.101L143.208 256.849C143.387 253.471 146.411 250.872 149.661 251.044C153.166 251.229 155.65 254.12 155.471 257.497Z" fill="#DBDBDB"/>
<path d="M47.4453 437.739L98.0843 437.496L148.723 437.408L250.002 437.24L351.281 437.407L401.92 437.495L452.559 437.739L401.92 437.984L351.281 438.072L250.002 438.238L148.723 438.071L98.0843 437.982L47.4453 437.739Z" fill="#263238"/>
<path d="M287.777 243.221C338.242 295.945 401.066 406.194 388.713 428.167C374.953 452.64 304.687 378.738 305.025 374.489C305.281 371.278 281.177 304.521 262.862 255.956C244.563 207.437 275.298 230.183 287.777 243.221Z" fill="#D3766A"/>
<path d="M304.545 374.562C302.471 367.432 269.632 279.387 260.283 251.561C250.934 223.735 260.116 215.305 287.627 241.077C315.138 266.85 374.981 352.466 388.253 397.625C401.039 441.128 378.747 440.791 349.633 420.388C325.797 403.685 304.545 374.562 304.545 374.562Z" fill="#C76323"/>
<path d="M258.08 229.68C257.89 229.61 257.7 229.54 257.5 229.45C257.58 229.2 257.68 228.97 257.81 228.74C258.19 228.89 258.58 229.03 258.97 229.16C262.12 230.17 265.98 230.49 268.74 228.32C269.06 228.07 269.35 227.79 269.6 227.5C269.85 227.62 270.1 227.75 270.36 227.88C267.54 231.26 262.12 231.16 258.08 229.68ZM279.83 234.28C279.57 234.07 279.31 233.87 279.06 233.67C278.62 233.88 278.18 234.08 277.74 234.27C271.44 237.04 263.66 239.83 258.21 244.51C258.29 244.82 258.37 245.14 258.45 245.46C261.26 242.9 264.71 240.95 268.09 239.36C271.94 237.55 275.97 236.08 279.83 234.28ZM286.84 253.04C288.69 250.77 290.71 248.41 293 246.44C292.8 246.22 292.59 246.01 292.39 245.8C286.64 250.81 282.52 258.44 277.05 263.29C274.21 265.82 270.44 268.35 266.49 269.34C266.58 269.6 266.67 269.86 266.77 270.12C269.51 269.4 272.14 268 274.38 266.45C279.54 262.89 282.95 257.84 286.84 253.04ZM315.25 272.84C306.93 284.13 291.84 286.84 278.6 288.84C277 289.08 275.4 289.34 273.8 289.66C273.91 289.95 274.01 290.25 274.12 290.55C279.71 289.41 285.46 288.93 291.02 287.66C300.29 285.54 310 281.15 315.83 273.59C315.83 273.58 315.83 273.58 315.83 273.58C315.63 273.33 315.44 273.09 315.25 272.84ZM326.58 370.17C320.86 368.74 315.66 370.64 310.63 373.3C308.98 374.18 307.31 375.11 305.61 375.98C305.78 376.2 305.97 376.45 306.18 376.72C312.96 373.23 319.49 368.88 327.3 371.42C329.85 372.25 332.29 373.88 333.29 376.46C334.59 379.77 333.13 383.22 330.82 385.67C327.59 389.08 323.18 390.44 318.91 392.05C319.15 392.32 319.4 392.6 319.65 392.88C320.87 392.4 322.1 391.93 323.34 391.44C328.43 389.43 334.41 385.72 334.78 379.6C335.07 374.63 331.05 371.28 326.58 370.17ZM306.68 309.16C310.72 303.47 314.43 297.56 318.46 291.86C320.2 289.39 322.03 286.86 324.03 284.49C323.84 284.23 323.65 283.98 323.46 283.72C322.39 284.98 321.38 286.27 320.4 287.57C316.34 292.96 312.7 298.65 308.92 304.23C303.22 312.64 296.53 322.11 287.75 327.94C287.86 328.25 287.97 328.55 288.09 328.86C295.6 323.88 301.65 316.23 306.68 309.16ZM308.72 324.19C307.99 328.98 310.33 334.26 314.32 337C318.98 340.2 324.19 338.23 327.5 334.13C329.46 331.71 330.87 328.93 332.62 326.37C334.64 323.4 337.07 320.65 339.95 318.5C341.64 317.24 343.53 316.2 345.51 315.47C345.32 315.18 345.13 314.89 344.94 314.6C343.7 315.07 342.51 315.66 341.38 316.35C335.73 319.79 332.29 325.1 328.83 330.55C327.05 333.33 324.91 336.29 321.62 337.34C318.73 338.26 315.78 337.2 313.63 335.19C308.83 330.71 308.52 323.82 312.14 318.55C315.98 312.97 322.61 309.97 328.86 307.99C332.06 306.98 335.36 306.13 338.59 305.1C338.41 304.83 338.22 304.56 338.04 304.29C331.54 306.38 324.61 307.84 319.04 311.14C314.25 313.97 309.6 318.44 308.72 324.19ZM361.68 341.5C359.05 344.81 355.63 347.58 352.18 349.82C346.34 353.6 339.55 356.19 332.58 356.7C325.54 357.22 318.83 355.36 313.3 350.93C308.55 347.11 304.31 342.37 298 341.33C296.22 341.03 294.4 341 292.6 341.22C292.73 341.57 292.85 341.91 292.98 342.25C295.45 341.99 297.96 342.22 300.32 343.01C303.64 344.12 306.38 346.39 308.98 348.64C311.49 350.82 313.97 353.05 316.9 354.65C319.68 356.16 322.74 357.12 325.86 357.56C332.13 358.42 338.57 357.29 344.41 354.97C350.74 352.47 357.65 348.17 362.25 342.47C362.06 342.15 361.87 341.83 361.68 341.5ZM361.73 427.89C362.66 428.39 363.58 428.86 364.48 429.29C367.61 429.92 370.48 431.21 373.28 432.71C374.5 433.05 375.68 433.3 376.81 433.47C373.69 431.66 370.54 429.92 367.1 428.91C365.39 428.4 363.57 428.04 361.73 427.89ZM366.76 350.36C366.61 350.1 366.47 349.84 366.32 349.58C357.88 351.39 350 357.43 346.86 365.12C344.38 371.19 345.83 377.13 348.48 382.88C349.99 386.16 351.71 389.36 352.81 392.82C353.8 395.94 354.34 399.2 354.44 402.47C354.63 408.89 353.02 415.24 349.8 420.5C350.06 420.69 350.32 420.87 350.58 421.04C353.05 417.03 354.62 412.39 355.16 407.53C355.83 401.5 354.97 395.31 352.65 389.69C349.92 383.05 345.28 376.51 346.68 368.97C348.37 359.9 357.3 352.33 366.76 350.36ZM388.82 399.59C386.08 400.42 383.31 401.16 380.45 401.52C377.05 401.94 372.95 401.79 370.95 398.54C369.51 396.18 369.77 393.15 370.55 390.61C372.26 385.07 376.74 381.89 380.97 378.38C380.86 378.1 380.73 377.82 380.6 377.54C378.47 379.29 376.23 380.94 374.31 382.78C370.87 386.08 368.31 391.32 369.12 396.18C370.12 402.28 376.32 403.13 381.47 402.33C383.7 401.99 386.28 401.23 389.03 400.39C388.97 400.13 388.9 399.86 388.82 399.59Z" fill="white"/>
<path opacity="0.1" d="M349.63 420.394C325.798 403.685 304.544 374.557 304.544 374.557C302.472 367.435 269.626 279.392 260.284 251.557C256.83 241.273 255.902 233.642 257.501 229.411L349.63 420.394Z" fill="black"/>
<path d="M302.928 437.557H108.055C108.055 437.557 147.917 282.664 213.765 218.562C222.604 209.958 256.993 211.407 264.915 224.356C294.63 272.93 303.473 436.87 302.928 437.557Z" fill="#C76323"/>
<path d="M278.15 350.78C270.49 361.66 278.82 376.48 291.03 379.04C293.67 379.6 296.18 379.41 298.6 378.79C298.63 379.13 298.66 379.46 298.69 379.79C296.45 380.37 294.12 380.59 291.68 380.21C280.82 378.52 271.7 366.95 274.59 355.93C276.83 347.34 285.55 341.36 294.27 341.09C294.31 341.45 294.36 341.8 294.41 342.16C293.66 342.17 292.92 342.23 292.18 342.34C286.67 343.12 281.37 346.22 278.15 350.78ZM116.43 409.99C116.33 409.91 116.23 409.82 116.13 409.74C116.02 410.07 115.92 410.4 115.82 410.73C123.43 417.02 125 428.35 127.44 437.56H128.45C125.84 427.93 124.42 416.8 116.43 409.99ZM148.97 354.01C154.92 353.63 160.96 351.64 164.59 346.65C167.39 342.8 168.85 337.38 166.78 332.88C164.38 327.67 158.52 326.29 153.28 326.42C151.01 326.47 148.77 326.69 146.54 326.94C146.4 327.26 146.26 327.59 146.12 327.92C149.81 327.46 153.49 327.05 157.14 327.55C160.36 327.99 163.53 329.4 165.33 332.22C166.87 334.65 167.07 337.65 166.43 340.4C164.91 346.95 159.57 351.08 153.21 352.46C147.58 353.68 141.85 353.02 136.18 352.21C136.06 352.52 135.94 352.82 135.82 353.12C140.32 353.74 144.77 354.28 148.97 354.01ZM157.36 426.9C151.68 425.86 142.56 431.32 139.5 423.9C137.2 418.34 140.49 412.13 144.02 407.95C148.31 402.88 153.85 399.09 159.32 395.4C169.42 388.57 193.89 367.66 182.21 358.8C171.32 350.55 157.33 374.62 149.14 382.17C141.9 388.83 131.3 394.86 120.94 394.71C120.84 395.01 120.74 395.3 120.64 395.6C131.11 395.78 141.46 389.82 149.24 383.37C159.48 374.89 169.57 352.84 181.4 359.6C191.22 365.21 172.91 384.88 162.77 391.87C157.66 395.4 152.35 398.71 147.69 402.85C143.57 406.51 139.53 411.03 138.28 416.55C137.36 420.63 137.83 425.87 141.98 428.01C144.62 429.38 147.61 428.86 150.4 428.33C153.91 427.65 157.2 427.24 160.46 429.01C163.86 430.85 166.12 434.01 167.06 437.56H168.13C168.13 437.54 168.12 437.53 168.12 437.51C166.79 432.45 162.63 427.87 157.36 426.9ZM228.65 303.47C223.52 300.61 217.5 300.88 212.69 304.26C207.66 307.8 204.62 313.52 202.27 319.04C199.65 325.21 197.3 332.01 192.17 336.61C189.41 339.1 185.06 341.28 181.67 338.63C179.46 336.89 178.62 333.82 178.54 331.11C178.35 325.31 181.81 319.83 185.27 315.45C188.85 310.9 193.03 306.87 196.64 302.34C199.99 298.14 202.93 293.35 203.72 287.94C204.11 285.27 203.75 282.38 201.53 280.59C199.74 279.15 197.28 278.8 195.04 279.01C189.36 279.56 184.51 283.69 181.09 287.99C179.15 290.42 177.53 293.08 176.08 295.82C174.53 298.77 173.38 301.92 171.81 304.84C169.99 308.24 166.86 309.89 163.08 308.73C160.49 307.93 158.49 306.25 156.93 304.17C156.79 304.46 156.65 304.75 156.52 305.04C159.3 308.45 163.46 311.11 167.89 309.67C170.7 308.75 172.21 306.21 173.37 303.66C174.71 300.7 176.01 297.73 177.59 294.89C180.76 289.18 185.17 283.33 191.43 280.8C194.06 279.74 197.44 279.31 200.04 280.68C203.67 282.59 203.21 287.05 202.26 290.42C199.08 301.59 188.57 308.65 182.3 317.94C179.42 322.2 177.03 327.34 177.71 332.61C178.33 337.35 181.69 341.76 186.96 340.61C193.13 339.27 197.15 332.76 199.66 327.5C202.52 321.54 204.44 315.09 208.51 309.77C212.59 304.43 218.83 300.89 225.6 303.2C232.85 305.67 237 312.83 237.27 320.22C237.77 333.69 228.3 344.84 218.59 352.97C209.27 360.78 198.74 367.14 190.12 375.79C180.59 385.34 174.34 397.91 172.39 411.26C171.18 419.49 171.19 429.39 174.52 437.56H175.78C174.77 435.13 174.07 432.57 173.6 430.05C171.04 416.31 174.16 401.43 181.04 389.38C187.67 377.77 198.09 369.82 208.64 361.99C217.92 355.1 227.63 347.92 233.51 337.71C239.72 326.92 241.21 310.45 228.65 303.47ZM261.12 367.06C260.74 360.9 257.92 355.06 252.69 351.6C247.95 348.45 241.99 348.28 237.18 351.37C232.37 354.45 229.26 359.9 228.07 365.39C226.34 373.34 227.78 381.5 227.94 389.52C228.09 397.2 227.1 404.89 225.06 412.3C223.05 419.6 220 426.63 216.01 433.08C215.06 434.61 214.04 436.11 212.93 437.56H214.29C217.6 433.16 220.22 428.21 222.37 423.2C225.29 416.42 227.29 409.25 228.28 401.93C229.33 394.21 228.84 386.64 228.43 378.9C228.04 371.48 228.28 363.71 232.61 357.37C236.42 351.79 243.08 348.34 249.69 351.15C256.39 353.98 259.95 360.95 260.14 367.97C260.54 382.44 250.15 394.59 243.01 406.24C239.61 411.78 236.56 417.64 235.13 424.02C234.13 428.47 234 433.08 234.69 437.56H235.71C234.92 432.49 235.18 427.26 236.59 422.25C240.26 409.24 249.83 399.04 255.94 387.21C259.13 381.02 261.56 374.12 261.12 367.06ZM290.17 411.08C286.45 406.64 281.06 403.69 275.15 404.27C269.75 404.8 265.01 408.25 263.85 413.72C262.52 420.02 265.84 426.56 269.3 431.61C270.64 433.57 272.16 435.54 273.61 437.56H274.74C272.02 433.66 268.97 429.96 266.9 425.65C263.9 419.41 262.93 410.85 269.9 406.84C275.81 403.43 283.09 405.41 287.8 409.89C292.9 414.75 295.29 421.69 296.71 428.42C297.34 431.39 297.82 434.46 298.3 437.56H299.25C297.84 428.1 296.42 418.53 290.17 411.08ZM228.7 213.41C228.15 213.46 227.61 213.52 227.08 213.59C224.82 216.28 222.1 218.6 219.26 220.54C215.22 223.29 210.79 225.26 206.14 226.5C205.74 226.96 205.33 227.41 204.92 227.88C206.05 227.65 207.17 227.36 208.27 227.01C215.6 224.69 223.62 219.94 228.7 213.41ZM230.1 241.14C228.84 238.78 228.65 235.99 229.23 233.4C230.35 228.32 234.41 223.42 239.73 222.55C246.62 221.43 252.06 227.49 258.08 229.68C261.14 230.8 264.98 231.13 267.9 229.76C267.79 229.52 267.67 229.29 267.56 229.07C264.95 230.39 261.69 230.03 258.97 229.16C252.85 227.2 247.93 221.53 241.16 221.61C232.11 221.73 225.26 233.18 229.2 241.25C230.57 244.05 233.15 245.95 235.45 247.95C237.79 249.98 239.7 252.28 240.96 255.13C243.22 260.29 243.42 266.51 241.13 271.69C238.85 276.85 234.15 280.45 228.43 280.61C223.28 280.75 217.86 278.4 214.67 274.3C213.11 272.3 212.14 269.88 212.08 267.33C211.99 263.91 213.28 260.59 214.13 257.33C215.4 252.48 215.59 246.12 210.04 243.9C205.59 242.11 200.32 244.34 196.84 247.17C192.19 250.94 190.31 256.89 187.71 262.07C184.93 267.6 180.87 272.85 174.26 273.45C173.84 273.49 173.43 273.51 173.02 273.51C172.84 273.83 172.66 274.16 172.47 274.48C172.56 274.49 172.64 274.49 172.73 274.49C178.07 274.54 182.53 271.76 185.62 267.51C189.26 262.49 190.82 256.31 194.34 251.21C197.33 246.88 203.77 242.88 209.19 244.59C217.08 247.08 213.12 256.84 211.82 262.3C210.64 267.23 211.19 271.88 214.68 275.74C221.11 282.83 233.25 283.77 239.53 276.04C245.97 268.1 244.59 255.34 237.28 248.43C234.83 246.11 231.73 244.21 230.1 241.14ZM258.83 269.93C264.14 271.92 270 269.48 274.38 266.45C276.29 265.13 277.95 263.62 279.5 261.98C279.42 261.69 279.34 261.4 279.26 261.12C278.55 261.88 277.81 262.61 277.05 263.29C272.44 267.38 265.42 271.49 259.1 269.09C252.59 266.62 251.21 259.02 253.27 253.05C255.59 246.32 261.96 242.24 268.09 239.36C269.23 238.83 270.38 238.32 271.54 237.83C271.45 237.57 271.34 237.32 271.23 237.06C261.85 241.13 252.03 246.4 251.46 257.64C251.2 262.88 253.74 268.02 258.83 269.93ZM291.98 324.75C287.9 328.22 283.33 330.97 278.14 332.4C270.99 334.38 263.74 332.66 259.2 326.57C257.19 323.88 255.83 320.76 254.84 317.58C253.61 313.61 252.72 309.27 253.81 305.16C255.63 298.26 262.25 293.94 268.69 291.92C274.21 290.18 280.01 289.6 285.73 288.67C285.66 288.35 285.6 288.03 285.54 287.71C283.2 288.13 280.87 288.5 278.6 288.84C271.85 289.86 264.92 291.24 259.42 295.54C254.3 299.55 251.7 305.28 252.53 311.79C253.32 317.97 255.79 324.75 260.22 329.25C264.64 333.74 270.85 334.98 276.89 333.7C282.62 332.48 287.66 329.58 292.14 325.83C292.08 325.47 292.03 325.11 291.98 324.75Z" fill="white"/>
<path d="M386.898 427.092C372.928 441.59 344.956 442.88 265.189 445.811C254.151 446.217 230.333 369.09 242.098 368.052C256.917 366.744 314.707 364.876 318.951 365.273C354.741 368.622 396.375 417.258 386.898 427.092Z" fill="#D3766A"/>
<path d="M267.765 369.913C267.765 369.913 236.338 362.925 218.691 364.364C195.06 366.291 175.452 377.685 167.523 382.955C150.972 393.957 118.561 432.001 127.889 443.247C136.334 453.428 167.499 412.867 167.499 412.867C167.499 412.867 128.899 448.979 141.32 459.368C153.742 469.756 187.241 420.614 187.241 420.614C187.241 420.614 148.413 458.607 162.917 467.294C173.878 473.859 206.726 431.058 206.726 431.058C206.726 431.058 173.578 463.945 184.56 471.182C196.695 479.179 229.495 441.574 229.495 441.574C260.505 455.271 280.873 449.107 294.841 442.997C298.223 441.519 267.765 369.913 267.765 369.913Z" fill="#D3766A"/>
<path d="M180.049 399.523C175.361 403.601 170.589 407.697 166.28 412.177C161.971 416.658 157.814 421.292 153.942 426.153C144.443 438.077 140.361 447.029 140.673 446.504C148.062 434.077 163.239 417.798 167.55 413.316C171.85 408.845 175.926 404.157 180.225 399.681C180.334 399.568 180.16 399.426 180.049 399.523Z" fill="#263238"/>
<path d="M196.51 414.789C190.75 420.255 184.831 425.47 179.31 431.193C173.817 436.887 169.103 442.771 164.016 448.828C163.624 449.295 164.004 449.352 164.416 448.899C169.741 443.05 175.115 438.053 180.508 432.266C185.883 426.5 191.073 420.481 196.652 414.916C196.739 414.829 196.598 414.707 196.51 414.789Z" fill="#263238"/>
<path d="M212.994 425.351C203.763 433.253 196.001 442.85 188.613 452.445C188.245 452.923 188.743 452.942 189.148 452.476C197.083 443.316 203.243 436.075 213.271 425.671C213.426 425.51 213.188 425.185 212.994 425.351Z" fill="#263238"/>
<path d="M251.297 365.887L307.16 452.089C307.16 452.089 376.145 445.73 389.023 429.745C397.5 419.224 355.269 365.808 315.441 365.116L251.297 365.887Z" fill="#C76323"/>
<path d="M261.123 367.061C261.373 370.991 260.723 374.881 259.553 378.621L258.883 377.581C259.763 374.481 260.233 371.291 260.143 367.971C260.123 367.241 260.063 366.501 259.963 365.781L261.003 365.771C261.053 366.201 261.093 366.631 261.123 367.061ZM276.133 404.211L276.733 405.131C280.793 405.211 284.813 407.041 287.803 409.891C292.903 414.751 295.293 421.691 296.713 428.421C297.423 431.751 297.933 435.201 298.463 438.671L299.703 440.591C298.093 430.181 297.093 419.331 290.173 411.081C286.663 406.891 281.663 404.021 276.133 404.211ZM352.653 389.691C350.693 384.901 347.723 380.171 346.743 375.071C346.433 374.881 346.123 374.701 345.813 374.521C346.223 377.341 347.223 380.131 348.483 382.881C349.993 386.161 351.713 389.361 352.813 392.821C353.803 395.941 354.343 399.201 354.443 402.471C354.843 415.641 347.633 428.551 334.493 432.251C322.673 435.581 309.263 430.471 305.953 417.941C304.563 412.691 305.013 406.821 307.613 402.011C310.963 395.801 317.163 393.891 323.343 391.441C328.433 389.431 334.413 385.721 334.783 379.601C335.073 374.631 331.053 371.281 326.583 370.171C320.863 368.741 315.663 370.641 310.633 373.301C304.523 376.531 298.253 380.561 291.033 379.041C284.023 377.571 278.293 372.071 276.133 365.591L274.923 365.601C277.263 372.941 284.043 379.021 291.683 380.211C304.723 382.241 314.233 367.171 327.303 371.421C329.853 372.251 332.293 373.881 333.293 376.461C334.593 379.771 333.133 383.221 330.823 385.671C325.763 391.011 317.823 391.311 312.023 395.481C303.793 401.401 302.303 413.431 306.483 422.201C311.413 432.551 323.773 436.071 334.313 433.281C346.243 430.121 353.843 419.521 355.163 407.531C355.833 401.501 354.973 395.311 352.653 389.691ZM378.213 402.581C377.973 402.281 377.723 401.981 377.483 401.681C374.913 401.611 372.393 400.881 370.953 398.541C370.013 397.001 369.793 395.171 369.983 393.371C369.693 393.081 369.403 392.791 369.113 392.501C368.933 393.721 368.923 394.961 369.123 396.181C369.913 401.031 373.993 402.551 378.213 402.581ZM367.103 428.911C362.383 427.511 356.843 427.261 352.283 429.371C347.423 431.611 345.363 436.391 346.033 441.591C346.233 443.141 346.603 444.661 346.983 446.171C347.263 446.121 347.543 446.061 347.823 446.011C346.803 441.911 345.993 437.821 348.223 434.091C351.103 429.291 357.523 428.391 362.613 428.981C368.993 429.721 374.283 433.301 379.763 436.351C380.133 436.171 380.493 435.981 380.853 435.801C376.363 433.291 372.033 430.361 367.103 428.911Z" fill="white"/>
<path d="M360.128 384.537C340.083 368.205 333.305 365.38 301.743 364.985C301.487 364.982 301.434 365.315 301.695 365.327C336.303 366.894 352.281 379.683 359.899 384.789C360.099 384.923 360.31 384.685 360.128 384.537Z" fill="#263238"/>
<path d="M327.692 442.378C322.056 432.571 315.904 423.075 309.725 413.596C303.541 404.11 297.376 394.609 290.956 385.278C287.329 380.006 283.731 374.709 279.921 369.564C279.821 369.429 279.571 369.562 279.659 369.714C285.281 379.507 291.401 389.04 297.507 398.544C303.627 408.071 309.853 417.542 316.163 426.948C319.728 432.263 323.39 437.514 327.198 442.662C327.386 442.916 327.857 442.666 327.692 442.378Z" fill="#263238"/>
<path opacity="0.1" d="M321.747 365.643L321.734 365.653L275.763 403.638L251.297 365.889L315.449 365.111C316.206 365.124 316.96 365.16 317.723 365.209L321.315 365.599L321.747 365.643Z" fill="black"/>
<path d="M190.252 271.84C182.06 364.3 194.857 437.955 233.675 443.255C259.458 446.776 253.001 368.596 252.941 366.926C252.737 361.207 249.764 313.496 231.488 261.601C211.382 204.512 193.912 230.534 190.252 271.84Z" fill="#D3766A"/>
<path d="M190.252 271.84C182.06 364.3 194.857 437.955 233.675 443.255C259.458 446.776 263.064 380.848 263.005 379.178C262.801 373.459 249.765 313.496 231.489 261.601C211.382 204.512 193.912 230.534 190.252 271.84Z" fill="#C76323"/>
<path d="M233.734 268.177C239.38 285.594 244.522 303.164 249.511 320.779C254.266 338.447 259.332 356.1 262.316 374.174C255.547 343.131 242.166 299.268 233.734 268.177Z" fill="#263238"/>
<path d="M238.516 272.499C239.799 277.456 240.758 282.828 239.578 287.888C239.729 282.815 238.785 277.562 238.516 272.499Z" fill="#263238"/>
<path d="M194.34 251.21C193.89 251.86 193.48 252.52 193.08 253.2C193.29 252.27 193.51 251.36 193.74 250.47C194.63 249.26 195.64 248.14 196.84 247.17C200.32 244.34 205.59 242.11 210.04 243.9C215.59 246.12 215.4 252.48 214.13 257.33C213.28 260.59 211.99 263.91 212.08 267.33C212.14 269.88 213.11 272.3 214.67 274.3C217.86 278.4 223.28 280.75 228.43 280.61C231.63 280.52 234.52 279.35 236.83 277.43C236.94 277.74 237.04 278.05 237.14 278.37C230.53 283.47 220.37 282.01 214.68 275.74C211.19 271.88 210.64 267.23 211.82 262.3C213.12 256.84 217.08 247.08 209.19 244.59C203.77 242.88 197.33 246.88 194.34 251.21ZM203.72 287.94C204.11 285.27 203.75 282.38 201.53 280.59C199.74 279.15 197.28 278.8 195.04 279.01C193.1 279.19 191.26 279.8 189.53 280.7C189.5 281.05 189.47 281.4 189.45 281.75C190.09 281.39 190.75 281.07 191.43 280.8C194.06 279.74 197.44 279.31 200.04 280.68C203.67 282.59 203.21 287.05 202.26 290.42C199.93 298.6 193.67 304.58 188.03 310.84C188.01 311.29 188 311.74 188 312.18C190.87 308.89 193.92 305.76 196.64 302.34C199.99 298.14 202.93 293.35 203.72 287.94ZM233.51 337.71C239.72 326.92 241.21 310.45 228.65 303.47C223.52 300.61 217.5 300.88 212.69 304.26C207.66 307.8 204.62 313.52 202.27 319.04C199.65 325.21 197.3 332.01 192.17 336.61C191.05 337.62 189.67 338.58 188.2 339.18C188.22 339.54 188.23 339.89 188.25 340.24C193.7 338.34 197.33 332.38 199.66 327.5C202.52 321.54 204.44 315.09 208.51 309.77C212.59 304.43 218.83 300.89 225.6 303.2C232.85 305.67 237 312.83 237.27 320.22C237.77 333.69 228.3 344.84 218.59 352.97C209.72 360.4 199.76 366.52 191.39 374.55C191.46 375.02 191.53 375.49 191.61 375.95C196.81 370.84 202.71 366.39 208.64 361.99C217.92 355.1 227.63 347.92 233.51 337.71ZM255.94 387.21C258.9 381.46 261.21 375.1 261.17 368.57C261.17 368.06 261.15 367.57 261.12 367.06C260.95 364.3 260.29 361.61 259.14 359.17C257.73 356.15 255.58 353.51 252.69 351.6C247.95 348.45 241.99 348.28 237.18 351.37C232.37 354.45 229.26 359.9 228.07 365.39C226.34 373.34 227.78 381.5 227.94 389.52C228.09 397.2 227.1 404.89 225.06 412.3C223.05 419.6 220 426.63 216.01 433.08C215.79 433.44 215.56 433.79 215.33 434.15C215.6 434.41 215.88 434.66 216.16 434.91C218.61 431.22 220.64 427.23 222.37 423.2C225.29 416.42 227.29 409.25 228.28 401.93C229.33 394.21 228.84 386.64 228.43 378.9C228.04 371.48 228.28 363.71 232.61 357.37C236.42 351.79 243.08 348.34 249.69 351.15C256.39 353.98 259.95 360.95 260.14 367.97C260.54 382.44 250.15 394.59 243.01 406.24C239.61 411.78 236.56 417.64 235.13 424.02C233.77 430.06 234.02 436.38 235.74 442.31C235.84 442.67 235.96 443.03 236.07 443.39C236.41 443.38 236.75 443.36 237.08 443.32C234.89 436.56 234.64 429.18 236.59 422.25C240.26 409.24 249.83 399.04 255.94 387.21Z" fill="white"/>
<path d="M188.486 284.52C188.375 307.09 188.955 329.687 190.829 352.176C193.202 380.3 199.81 439.602 235.811 442.4C241.453 442.743 246.647 441.643 251.206 438.113C258.037 433.221 263.75 426.936 269.227 420.574C280.099 407.727 289.959 393.481 299.1 379.633L296.908 377.405L299.177 379.554L299.208 379.584C296.325 384.46 293.276 389.236 290.17 393.974C281.021 407.623 259.91 438.996 244.397 443.461C225.4 447.669 211.118 434.623 203.443 418.518C186.46 382.587 187.478 324.342 188.486 284.52Z" fill="#263238"/>
<path d="M186.629 290.113C187.114 294.391 187.81 298.522 188.274 302.804C186.8 298.778 186.079 294.386 186.629 290.113Z" fill="#263238"/>
<path d="M254.473 267.999C254.473 267.999 221.204 237.562 200.354 238.978L183.166 255.296C183.166 255.296 177.413 257.398 175.491 253.772C170.738 244.806 169.113 222.79 187.596 207.847C204.522 194.164 240.256 195.65 264.186 201.108C287.166 206.349 300.167 219.34 293.674 234.432C287.182 249.524 254.473 267.999 254.473 267.999Z" fill="#C76323"/>
<path opacity="0.1" d="M256.526 260.937C256.526 260.937 282.031 241.413 284.359 230.245C286.687 219.077 264.188 209.262 249.746 205.599C227.394 199.93 212.366 201.855 200.356 214.085C188.347 226.316 256.526 260.937 256.526 260.937Z" fill="black"/>
<path d="M260.209 257.218C248.286 258.719 230.235 238.808 223.898 223.563C223.47 222.516 226.1 212.272 228.707 199.674C230.26 192.023 231.807 183.467 232.656 175.557C232.822 173.932 280.97 192.932 280.97 192.932C280.97 192.932 274.314 208.989 272.919 222.787C272.815 223.942 272.814 225.026 272.912 226.069C272.913 226.22 272.937 226.405 272.926 226.614C273.269 232.889 271.731 255.759 260.209 257.218Z" fill="#D3766A"/>
<path d="M267.804 226.334C269.656 226.577 271.347 226.676 272.922 226.611C272.931 226.4 272.911 226.225 272.909 226.063C272.808 225.025 272.814 223.942 272.926 222.783C274.322 208.996 280.967 192.937 280.967 192.937C280.967 192.937 241.888 177.511 234.023 175.64C234.573 184.943 238.616 222.546 267.804 226.334Z" fill="#263238"/>
<path d="M216.875 135.751C215.624 154.205 236.301 201.865 251.137 210.112C272.646 222.07 302.092 216.842 310.794 192.306C319.23 168.522 291.186 106.888 275.151 99.9859C251.533 89.8209 218.722 108.492 216.875 135.751Z" fill="#D3766A"/>
<path d="M272.471 155.654C272.394 155.543 272.285 155.914 272.346 156.044C273.825 159.217 274.984 163.101 272.531 165.414C272.455 165.485 272.534 165.643 272.635 165.582C275.972 163.563 274.381 158.423 272.471 155.654Z" fill="#263238"/>
<path d="M268.162 153.525C262.82 155.347 266.857 165.897 271.806 164.209C276.677 162.549 272.64 151.998 268.162 153.525Z" fill="#263238"/>
<path d="M292.353 147.547C292.33 147.413 292.668 147.604 292.715 147.739C293.862 151.046 295.731 154.641 299.103 154.596C299.208 154.595 299.262 154.763 299.146 154.789C295.344 155.662 292.909 150.864 292.353 147.547Z" fill="#263238"/>
<path d="M293.964 143.017C299.068 140.607 303.512 150.992 298.784 153.224C294.131 155.422 289.685 145.037 293.964 143.017Z" fill="#263238"/>
<path d="M263.629 153.941C265.144 153.47 266.462 152.782 267.913 152.161C269.549 151.46 270.924 151.071 271.936 149.514C272.478 148.679 272.155 147.251 271.393 146.648C269.619 145.243 267.402 145.604 265.398 146.367C263.224 147.195 261.76 148.389 260.599 150.401C259.473 152.351 261.631 154.561 263.629 153.941Z" fill="#263238"/>
<path d="M294.235 134.27C292.681 134.591 291.195 134.628 289.626 134.786C287.855 134.965 286.464 135.289 284.825 134.416C283.945 133.948 283.538 132.543 283.912 131.645C284.784 129.558 286.898 128.8 289.021 128.497C291.324 128.169 293.184 128.506 295.174 129.704C297.102 130.867 296.284 133.846 294.235 134.27Z" fill="#263238"/>
<path d="M280.894 185.98C281.97 186.446 283.154 187.2 284.378 186.846C285.552 186.506 286.689 185.483 287.577 184.68C287.665 184.601 287.811 184.67 287.783 184.794C287.414 186.373 285.93 187.841 284.313 188.155C282.735 188.463 281.514 187.464 280.637 186.248C280.514 186.078 280.737 185.913 280.894 185.98Z" fill="#263238"/>
<path d="M282.917 180.829C286.424 177.578 291.957 176.042 295.49 175.152C295.845 174.95 295.899 174.074 295.823 173.694L295.813 173.67C295.765 173.552 292.922 166.846 292.922 166.846C294.007 166.948 299.447 167.232 298.87 165.961C294.05 155.458 288.692 143.779 281.678 134.344C281.462 134.021 280.951 134.313 281.12 134.656C285.352 144.934 291.364 154.398 295.779 164.654C294.082 164.666 291.269 164.563 289.979 165.094C289.665 165.333 293.409 172.161 293.723 173.322C293.723 173.322 286.362 173.907 282.312 179.424C281.261 180.857 281.245 182.379 282.917 180.829Z" fill="#263238"/>
<path d="M227.509 180.982C235.565 180.243 237.875 167.036 238.017 161.782C238.159 156.527 230.776 136.945 231.733 128.786C232.69 120.627 240.265 115.255 246.936 114.752C253.607 114.249 264.355 119.193 268.628 117.106C272.901 115.019 270.325 105.034 273.407 103.863C280.19 101.286 289.424 115.255 293.468 122.228C293.468 122.228 284.718 88.2711 248.736 98.1791C215.923 107.214 214.02 133.006 214.882 143.607C216.535 163.916 227.509 180.982 227.509 180.982Z" fill="#263238"/>
<path d="M275.676 177.228C269.297 179.066 262.223 176.437 258.716 170.45C254.57 163.368 256.956 154.237 264.035 150.091C271.116 145.943 280.246 148.329 284.393 155.408C288.537 162.486 286.152 171.619 279.074 175.767C277.981 176.407 276.841 176.892 275.676 177.228ZM267.985 150.542C266.977 150.832 265.987 151.252 265.042 151.806C258.909 155.397 256.844 163.309 260.433 169.444C264.027 175.574 271.943 177.647 278.069 174.051C284.202 170.458 286.268 162.547 282.678 156.413C279.639 151.229 273.513 148.949 267.985 150.542Z" fill="#EBEBEB"/>
<path d="M307.093 163.845C301.622 165.421 295.045 161.248 292.039 154.091C290.522 150.479 290.121 146.64 290.912 143.283C291.725 139.81 293.709 137.253 296.493 136.084C299.286 134.905 302.491 135.29 305.542 137.14C308.491 138.929 310.95 141.903 312.465 145.514C315.639 153.078 313.642 161.156 308.013 163.521C307.709 163.647 307.404 163.755 307.093 163.845ZM297.976 137.667C297.735 137.737 297.497 137.82 297.264 137.918C295.083 138.833 293.514 140.9 292.846 143.737C292.155 146.689 292.518 150.092 293.871 153.32C296.624 159.872 302.607 163.637 307.242 161.685C311.862 159.746 313.381 152.836 310.633 146.284C309.278 143.056 307.103 140.413 304.509 138.839C302.284 137.49 299.995 137.085 297.976 137.667Z" fill="#EBEBEB"/>
<path d="M284.606 157.19L282.836 156.279C284.183 153.659 288.009 149.289 292.863 151.468L292.048 153.282C287.703 151.324 284.731 156.952 284.606 157.19Z" fill="#EBEBEB"/>
<path d="M224.96 186.38L222.977 186.222C223.053 185.297 223.809 177.119 227.625 174.735C231.197 172.517 256.749 164.5 257.834 164.161L258.427 166.06C251.099 168.351 231.434 174.701 228.68 176.423C226.16 177.996 225.141 184.144 224.96 186.38Z" fill="#EBEBEB"/>
<path d="M240.225 174.749C240.225 174.749 224.959 161.574 218.704 167.414C212.449 173.253 226.767 194.335 236.106 195.345C245.445 196.355 246.549 187.728 246.549 187.728L240.225 174.749Z" fill="#D3766A"/>
<path d="M222.955 173.355C222.815 173.378 222.837 173.577 222.968 173.595C229.566 174.499 234.125 179.248 237.791 184.44C235.45 182.678 232.719 182.08 230.29 184.95C230.163 185.1 230.374 185.307 230.533 185.228C232.851 184.081 234.727 184.057 236.881 185.6C238.406 186.692 239.653 188.247 240.9 189.638C241.316 190.102 242.209 189.57 241.849 189.006C241.822 188.964 241.793 188.922 241.765 188.879C239.98 181.214 231.34 172.043 222.955 173.355Z" fill="#263238"/>
<path d="M256.521 260.937C256.521 260.937 229.228 218.079 196.828 214.834L200.351 238.976C200.351 238.976 219.596 238.379 254.47 267.997L256.521 260.937Z" fill="#C76323"/>
<path d="M191.672 239.711C197.553 238.78 203.463 239.892 209.062 241.453C214.698 243.038 220.046 245.496 225.164 248.318C230.326 251.072 235.172 254.392 239.934 257.808L246.866 263.241L253.554 268.995L254.304 269.641L255.103 269.198C261.058 265.893 266.713 262.199 272.138 258.136C274.837 256.095 277.51 254.008 279.951 251.652C282.403 249.32 284.773 246.878 286.722 244.121C282.107 249.042 276.634 252.931 271.105 256.67C268.327 258.527 265.465 260.259 262.576 261.936C259.69 263.607 256.781 265.291 253.842 266.801L255.39 267.003L248.687 261.056C246.375 259.162 244.013 257.321 241.646 255.491C239.175 253.797 236.738 252.051 234.205 250.448C231.613 248.933 229.078 247.328 226.351 246.05C221.03 243.27 215.325 241.193 209.467 239.855C208.011 239.493 206.512 239.29 205.034 239.045C203.536 238.908 202.043 238.732 200.542 238.715C197.557 238.61 194.513 238.808 191.672 239.711Z" fill="#263238"/>
<path d="M183.164 255.295C186.418 252.986 189.373 250.361 192.258 247.662C195.105 244.924 197.88 242.109 200.352 238.976C197.095 241.283 194.141 243.907 191.258 246.608C188.413 249.35 185.639 252.165 183.164 255.295Z" fill="#263238"/>
<path d="M244.171 252.4C244.171 252.4 242.575 265.072 243.756 283.101C244.223 290.237 249.181 315.55 257.019 313.941C264.856 312.331 250.529 296.959 247.096 283.68C243.611 270.199 246.408 260.219 246.188 252.109L244.171 252.4Z" fill="#C76323"/>
<g opacity="0.1">
<path d="M244.171 252.4C244.171 252.4 242.575 265.072 243.756 283.101C244.223 290.237 249.181 315.55 257.019 313.941C264.856 312.331 250.529 296.959 247.096 283.68C243.611 270.199 246.408 260.219 246.188 252.109L244.171 252.4Z" fill="black"/>
</g>
<path d="M270.915 253.668C270.915 253.668 275.558 264.279 279.161 280.263C280.587 286.59 282.777 309.879 275.547 310.491C268.317 311.104 276.83 294.055 276.405 281.624C275.974 269.004 270.978 261.043 269.086 253.933L270.915 253.668Z" fill="#C76323"/>
<g opacity="0.1">
<path d="M270.915 253.668C270.915 253.668 275.558 264.279 279.161 280.263C280.587 286.59 282.777 309.879 275.547 310.491C268.317 311.104 276.83 294.055 276.405 281.624C275.974 269.004 270.978 261.043 269.086 253.933L270.915 253.668Z" fill="black"/>
</g>
<path d="M240.901 437.654C262.173 434.379 297.042 386.441 319.149 331.631C323.357 321.198 242.373 279.033 239.171 290.627C228.893 327.841 208.766 376.509 209.414 406.533C209.918 429.885 226.189 439.919 240.901 437.654Z" fill="#D3766A"/>
<path d="M278.78 251.16C273.615 244.835 272.83 227.164 268.201 216.742C263.572 206.32 250.03 201.429 247.606 205.265C245.181 209.102 248.763 212.953 249.866 230.073C250.576 241.083 242.152 263.081 245.75 283.06C247.557 293.1 283.945 257.484 278.78 251.16Z" fill="#F7A9A0"/>
<path d="M278.78 251.16C273.615 244.835 272.83 227.164 268.201 216.742C263.572 206.32 250.03 201.429 247.606 205.265C245.181 209.102 248.763 212.953 249.866 230.073C250.576 241.083 242.152 263.081 245.75 283.06C247.557 293.1 283.945 257.484 278.78 251.16Z" fill="#D3766A"/>
<path opacity="0.06" d="M278.78 251.16C273.615 244.835 272.83 227.164 268.201 216.742C263.572 206.32 250.03 201.429 247.606 205.265C245.181 209.102 248.763 212.953 249.866 230.073C250.576 241.083 242.152 263.081 245.75 283.06C247.557 293.1 283.945 257.484 278.78 251.16Z" fill="black"/>
<path d="M319.03 197.387C326.255 204.131 308.116 220.536 308.116 220.536C308.116 220.536 314.709 218.76 320.438 221.956C326.999 225.615 324.138 237.508 324.138 237.508C324.138 237.508 331.184 237.092 336.896 241.076C342.824 245.21 341.647 257.622 341.647 257.622C341.647 257.622 348.422 260.84 350.889 267.825C355.106 279.767 341.908 294.102 335.491 304.59C328.616 315.824 319.998 329.766 315.056 336.677L237.609 297.28C237.609 297.28 250.877 238.047 261.388 227.911C270.243 219.37 307.987 187.079 319.03 197.387Z" fill="#D3766A"/>
<path d="M307.769 220.492C296.176 227.312 286.237 236.892 276.748 246.243C276.537 246.451 276.866 246.779 277.075 246.568C286.404 237.159 298.474 230.018 308.158 221C308.426 220.751 308.081 220.308 307.769 220.492Z" fill="#263238"/>
<path d="M323.16 237.078C320.584 238.7 318.551 241.166 316.509 243.389C314.311 245.783 312.157 248.214 310.039 250.679C305.799 255.613 301.67 260.644 297.694 265.793C297.517 266.021 297.823 266.348 298.021 266.118C302.255 261.208 306.564 256.362 311 251.634C313.22 249.268 315.462 246.922 317.718 244.589C319.817 242.42 322.212 240.306 323.789 237.707C324.022 237.324 323.548 236.833 323.16 237.078Z" fill="#263238"/>
<path d="M341.456 257.822C339.16 259.141 337.432 261.807 335.771 263.823C333.886 266.111 331.988 268.389 330.078 270.656C326.258 275.19 322.436 279.721 318.46 284.119C318.262 284.338 318.586 284.664 318.787 284.444C322.85 279.997 326.972 275.605 330.995 271.121C332.971 268.919 334.935 266.707 336.885 264.484C338.544 262.594 340.832 260.42 341.692 258.005C341.739 257.87 341.57 257.755 341.456 257.822Z" fill="#263238"/>
<path d="M310.381 195.378C297.234 200.823 281.471 212.395 272.239 219.56C268.826 222.28 265.424 225.048 262.324 228.104C259.266 231.172 257.27 235.088 255.322 238.953C254 241.563 252.866 244.268 251.75 246.99C253.747 239.987 256.149 232.554 261.126 226.963C264.18 223.717 267.614 220.88 271.061 218.087C280.369 210.94 289.905 203.694 300.728 199.023L310.381 195.378Z" fill="#263238"/>
<path d="M222.485 312.264L299.134 379.591C299.134 379.591 259.055 444.37 240.369 443.097C221.684 441.824 201.403 429.731 202.89 384.803C203.263 373.55 222.485 312.264 222.485 312.264Z" fill="#C76323"/>
<path d="M208.632 361.99C208.312 362.23 207.992 362.46 207.672 362.71C207.812 362.17 207.962 361.63 208.102 361.08C211.652 358.45 215.202 355.81 218.582 352.97C227.112 345.83 235.462 336.35 237.012 325.02L237.772 325.69C237.092 329.95 235.552 334.14 233.502 337.71C227.622 347.92 217.912 355.1 208.632 361.99ZM252.682 351.6C247.942 348.45 241.982 348.28 237.172 351.37C232.362 354.45 229.252 359.9 228.062 365.39C226.332 373.34 227.772 381.5 227.932 389.52C228.082 397.2 227.092 404.89 225.052 412.3C223.082 419.46 220.112 426.36 216.222 432.71C216.492 432.99 216.772 433.26 217.052 433.52C219.102 430.22 220.842 426.73 222.362 423.2C225.282 416.42 227.282 409.25 228.272 401.93C229.322 394.21 228.832 386.64 228.422 378.9C228.032 371.48 228.272 363.71 232.602 357.37C236.412 351.79 243.072 348.34 249.682 351.15C256.382 353.98 259.942 360.95 260.132 367.97C260.532 382.44 250.142 394.59 243.002 406.24C239.602 411.78 236.552 417.64 235.122 424.02C233.762 430.06 234.012 436.38 235.732 442.31C235.752 442.39 235.782 442.48 235.812 442.56C236.162 442.62 236.522 442.68 236.882 442.73C234.872 436.14 234.682 428.98 236.582 422.25C240.252 409.24 249.822 399.04 255.932 387.21C259.122 381.02 261.552 374.12 261.112 367.06C260.732 360.9 257.912 355.06 252.682 351.6ZM275.142 404.27C269.742 404.8 265.002 408.25 263.842 413.72C263.022 417.62 263.982 421.62 265.652 425.29C265.882 425.02 266.132 424.75 266.372 424.48C263.802 418.38 263.352 410.6 269.892 406.84C273.452 404.79 277.512 404.69 281.202 405.92C281.402 405.65 281.592 405.38 281.802 405.11C279.712 404.36 277.462 404.04 275.142 404.27ZM298.302 378.86C295.972 379.42 293.552 379.57 291.022 379.04C281.582 377.06 274.462 367.76 275.252 358.62L274.222 357.71C272.672 368.16 281.392 378.61 291.672 380.21C294.262 380.61 296.712 380.34 299.082 379.68C299.112 379.62 299.132 379.59 299.132 379.59L298.302 378.86Z" fill="white"/>
<path d="M221.636 340.108C225.386 343.237 228.891 346.698 232.45 350.04C236.014 353.388 239.546 356.771 243.033 360.2C250.005 367.057 256.939 373.946 263.784 380.93C265.656 382.84 267.525 384.754 269.363 386.698C271.332 388.78 273.042 391.108 275.023 393.164C275.178 393.325 274.938 393.561 274.776 393.408C273.034 391.758 271.055 390.347 269.276 388.729C267.433 387.052 265.626 385.334 263.833 383.604C260.313 380.21 256.804 376.806 253.312 373.383C246.333 366.54 239.381 359.655 232.63 352.585C228.817 348.591 224.852 344.674 221.279 340.461C221.068 340.213 221.389 339.902 221.636 340.108Z" fill="#263238"/>
<path d="M231.166 319.888L222.31 312.465L222.741 312.347C218.523 328.23 213.876 343.992 209.514 359.822C207.668 366.699 205.681 373.592 204.531 380.618C203.356 389.706 203.386 398.932 204.45 408.122C202.248 399.122 201.539 389.666 202.345 380.37C204.512 365.024 209.44 350.211 214.02 335.462C216.623 327.513 219.388 319.617 222.377 311.8L222.663 312.063L231.166 319.888Z" fill="#263238"/>
<path d="M450.93 342.296C437.817 360.055 424.144 380.666 420.815 402.937C420.775 403.274 421.315 403.384 421.393 403.05C422.915 396.941 424.841 391.01 427.192 385.218C435.813 382.846 444.274 380.897 448.802 372.34C453.42 363.544 452.833 352.076 451.955 342.494C451.893 341.98 451.197 341.955 450.93 342.296Z" fill="#C76323"/>
<path d="M427.321 385.052C433.212 371.833 440.775 358.56 450.387 347.689C450.452 347.616 450.552 347.721 450.493 347.795C444.2 355.537 439.418 363.969 434.747 372.547C439.089 368.139 443.847 364.191 447.959 359.517C448.039 359.426 448.167 359.558 448.091 359.649C444.007 364.549 439.546 369.875 434.227 373.502C432.798 376.134 431.36 378.775 429.902 381.414C430.259 381.215 430.628 381.036 430.995 380.855C431.059 380.823 431.116 380.919 431.052 380.952C430.646 381.157 430.245 381.374 429.826 381.551C429.135 382.8 428.451 384.051 427.741 385.297C427.583 385.574 427.197 385.331 427.321 385.052Z" fill="#263238"/>
<path d="M431.704 380.44C435.218 378.425 438.608 376.259 441.77 373.72C441.856 373.651 441.98 373.77 441.893 373.843C438.787 376.472 435.475 378.826 431.849 380.687C431.685 380.771 431.543 380.532 431.704 380.44Z" fill="#263238"/>
<path d="M419.296 399.626C419.323 399.896 419.781 399.891 419.775 399.604C419.843 392.27 419.782 384.902 419.892 377.534C421.771 373.742 425.804 371.644 428.608 368.605C430.63 366.412 432.36 363.939 433.839 361.322C437.307 355.117 439.185 348.14 439.907 341.09C440.681 333.245 437.704 307.358 434.397 308.257C432.682 308.723 427.133 321.545 425.661 325.784C423.25 332.757 421.554 339.983 420.441 347.276C417.761 364.535 417.985 382.258 419.296 399.626Z" fill="#C76323"/>
<path d="M419.245 367.988C419.256 367.979 419.267 367.969 419.278 367.959C419.68 358.679 421.771 349.308 423.728 340.307C425.836 330.611 428.301 321.481 433.29 312.832C433.383 312.671 433.621 312.813 433.538 312.977C430.142 319.667 427.715 326.771 425.856 334.066C426.19 333.543 426.596 333.047 426.943 332.554C427.08 332.36 427.401 332.541 427.266 332.743C426.777 333.474 426.335 334.326 425.707 334.945C425.686 334.966 425.664 334.968 425.642 334.975C423.924 341.905 422.691 348.995 421.636 356.066C421.715 355.976 421.791 355.88 421.871 355.793C421.925 355.735 422.016 355.809 421.979 355.876C421.849 356.11 421.702 356.343 421.559 356.577C421.028 360.167 420.535 363.749 420.039 367.3C426.43 361.838 431.888 355.399 434.966 347.466C434.981 347.43 435.04 347.445 435.026 347.483C432.01 355.712 427.256 363.027 419.937 368.019C419.803 368.976 419.67 369.933 419.534 370.885C419.506 371.083 419.191 371.031 419.192 370.839C419.195 369.994 419.235 369.146 419.269 368.299C419.177 368.216 419.135 368.08 419.245 367.988Z" fill="#263238"/>
<path d="M422.258 354.542C427.142 347.253 431.704 340.174 435.278 332.117C435.318 332.027 435.472 332.092 435.437 332.184C432.426 340.189 428.208 348.3 422.503 354.73C422.387 354.862 422.16 354.689 422.258 354.542Z" fill="#263238"/>
<path d="M428.746 330.318C430.77 326.738 432.903 323.255 434.807 319.604C434.86 319.502 435.001 319.592 434.958 319.692C433.36 323.423 431.451 327.211 429.059 330.5C428.924 330.684 428.629 330.525 428.746 330.318Z" fill="#263238"/>
<path d="M427.96 331.874C428 331.874 428 331.937 427.96 331.937C427.92 331.936 427.92 331.874 427.96 331.874Z" fill="#263238"/>
<path d="M414.333 378.416C414.208 383.275 413.683 388.136 412.619 392.866C412.694 393.388 412.769 393.91 412.846 394.448C414.378 389.184 415.178 383.788 415.43 378.342C415.514 378.191 415.548 378.028 415.453 377.844C415.453 377.844 415.453 377.844 415.452 377.828C415.729 370.555 415.054 363.202 413.833 356.005C411.562 342.526 406.6 329.591 397.2 319.488C396.902 319.177 396.307 319.338 396.162 319.702C392.369 329.347 393.692 340.856 396.923 350.478C398.681 355.661 401.191 360.638 404.377 365.095C407.602 369.629 411.713 373.465 414.333 378.416Z" fill="#C76323"/>
<path d="M398.312 324.002C407.221 338.46 413.419 355.603 414.177 372.682C414.191 372.984 413.681 373.065 413.638 372.755C413.427 371.221 413.193 369.7 412.947 368.185C412.942 368.181 412.936 368.184 412.931 368.179C409.245 364.649 405.462 360.925 402.823 356.513C402.777 356.436 402.888 356.344 402.95 356.415C406.157 360.08 409.148 363.834 412.769 367.102C412.131 363.326 411.375 359.61 410.48 355.948C410.241 355.675 410.009 355.395 409.775 355.12C409.621 354.939 409.878 354.675 410.039 354.856C410.11 354.935 410.181 355.014 410.253 355.093C408.991 350.065 407.45 345.142 405.595 340.305C403.327 337.6 400.792 335.262 399.139 332.003C399.099 331.924 399.207 331.863 399.257 331.934C400.585 333.797 401.87 335.672 403.377 337.402C403.977 338.091 404.636 338.735 405.259 339.407C403.232 334.244 400.826 329.181 397.965 324.204C397.839 323.98 398.177 323.784 398.312 324.002Z" fill="#263238"/>
<path d="M400.111 341.837C402.991 345.712 406.272 349.41 408.949 353.415C409.026 353.53 408.858 353.648 408.763 353.558C405.323 350.331 402.413 345.925 399.917 341.95C399.839 341.826 400.028 341.724 400.111 341.837Z" fill="#263238"/>
<path d="M409.356 354.313L409.478 354.436C409.563 354.521 409.431 354.653 409.346 354.568L409.223 354.445C409.138 354.36 409.271 354.228 409.356 354.313Z" fill="#263238"/>
<path d="M384.356 351.797C385.072 359.236 388.985 368.121 393.757 373.853C395.872 376.388 398.437 378.328 401.381 379.802C404.683 381.436 408.14 383.317 411.556 384.658C413.153 388.734 414.375 393.004 415.158 397.454C415.268 397.082 415.378 396.693 415.488 396.321C413.296 377.488 401.109 361.39 385.52 351.056C384.958 350.683 384.294 351.161 384.356 351.797Z" fill="#C76323"/>
<path d="M389.742 357.361C389.632 357.264 389.78 357.066 389.9 357.155C398.161 363.275 405.605 372.198 409.763 381.635C409.877 381.893 409.523 382.118 409.376 381.861C408.652 380.591 407.913 379.356 407.161 378.143C407.157 378.142 407.155 378.146 407.15 378.145C403.592 377.475 400.222 374.971 397.581 372.594C397.51 372.53 397.615 372.425 397.687 372.488C399.066 373.703 400.546 374.815 402.189 375.65C403.639 376.387 405.201 376.851 406.711 377.441C405.392 375.348 404.018 373.341 402.583 371.394C398.754 370.09 395.108 367.738 391.889 365.383C391.788 365.309 391.877 365.143 391.989 365.211C395.269 367.185 398.504 368.923 401.928 370.524C399.771 367.666 397.436 364.96 394.911 362.343C393.702 361.705 392.475 361.063 391.303 360.38C391.208 360.324 391.27 360.161 391.38 360.198C392.314 360.509 393.265 360.998 394.148 361.558C392.742 360.135 391.294 358.731 389.742 357.361Z" fill="#263238"/>
<path d="M390.076 363.865C390.291 364.002 390.486 364.125 390.676 364.293C390.733 364.344 390.66 364.417 390.6 364.391C390.372 364.291 390.185 364.171 389.975 364.037C389.868 363.968 389.968 363.796 390.076 363.865Z" fill="#263238"/>
<path d="M439.811 438.239H397.094L400.543 399.339L401.3 390.76H435.605L436.362 399.339L439.811 438.239Z" fill="#455A64"/>
<path d="M436.358 399.339H400.539L401.296 390.76H435.601L436.358 399.339Z" fill="#263238"/>
<path d="M437.651 384.762H399.258V393.252H437.651V384.762Z" fill="#455A64"/>
<path d="M355.929 133.674C356.428 139.442 352.156 144.523 346.388 145.022C340.62 145.521 335.539 141.249 335.04 135.481C334.541 129.713 338.813 124.632 344.581 124.133C350.35 123.634 355.43 127.906 355.929 133.674Z" fill="#0F0F0F"/>
<path d="M355.93 133.675C356.83 143.002 345.736 148.897 338.465 142.929C333.841 139.298 333.199 131.928 337.134 127.557C343.27 120.424 355.218 124.333 355.93 133.675ZM355.93 133.675C355.116 124.552 343.517 121.008 337.789 128.108C334.308 132.193 334.88 138.85 339.014 142.276C345.875 148.292 356.698 142.801 355.93 133.675Z" fill="#C76323"/>
<path d="M328.156 144.561C328.434 147.771 326.056 150.599 322.846 150.877C319.635 151.155 316.808 148.777 316.53 145.567C316.252 142.356 318.63 139.529 321.84 139.251C325.05 138.973 327.878 141.35 328.156 144.561Z" fill="#0F0F0F"/>
<path d="M328.157 144.56C328.692 149.76 322.411 153.186 318.313 149.857C315.618 147.818 315.242 143.502 317.548 141.03C321.013 137.044 327.793 139.345 328.157 144.56ZM328.157 144.56C327.273 137.195 316.612 138.174 317.028 145.523C317.878 152.84 328.552 151.967 328.157 144.56Z" fill="#C76323"/>
<path d="M447.488 88.7269C449.526 105.506 437.58 120.76 420.8 122.811C415.301 123.478 409.956 122.644 405.2 120.632C401.149 125.926 395.048 129.643 387.908 130.515C378.525 131.656 369.693 127.567 364.348 120.542C363.246 120.875 362.092 121.119 360.913 121.26C349.492 122.644 339.109 114.518 337.725 103.097C337.084 97.7769 338.494 92.6889 341.353 88.6249C337.982 84.3559 335.713 79.1519 335.008 73.3709C332.97 56.5789 344.916 41.3249 361.696 39.2869C369.336 38.3639 376.655 40.3249 382.564 44.3369C386.615 39.2739 392.575 35.7359 399.523 34.8899C411.521 33.4289 422.596 40.5039 426.659 51.3359C427.71 50.9769 428.812 50.7329 429.953 50.5929C439.169 49.4779 447.54 56.0409 448.655 65.2439C449.27 70.2939 447.578 75.1009 444.399 78.5879C445.988 81.6769 447.052 85.0859 447.488 88.7269Z" fill="#0F0F0F"/>
<path d="M447.487 88.7268C448.818 99.4298 444.23 110.44 435.568 116.912C427.068 123.484 415.025 125.039 405.13 120.796L405.341 120.74C400.548 127.096 392.724 130.991 384.754 130.939C376.765 130.996 368.941 127.08 364.102 120.729L364.438 120.838C362.875 121.322 361.255 121.598 359.623 121.674C342.014 122.774 330.874 102.834 340.983 88.3638L340.998 88.9048C325.901 69.9708 337.87 41.5418 361.908 38.8988C369.181 38.0568 376.716 39.9448 382.736 44.0848L382.327 44.1468C394.816 28.5588 419.812 32.5658 426.804 51.2828L426.611 51.1908C427.935 50.7518 429.311 50.4628 430.704 50.3978C436.734 49.8698 442.887 52.9608 446.125 58.0658C450.293 64.2868 449.555 73.1628 444.423 78.6068C446.017 81.5948 447.084 85.2528 447.487 88.7268ZM447.487 88.7268C447.056 85.1948 446.001 81.7388 444.362 78.5828C449.44 73.1488 450.144 64.3178 445.969 58.1658C441.981 51.8678 433.576 48.9918 426.569 51.5288C419.696 33.1048 395.052 29.0808 382.802 44.5278L382.626 44.7488L382.392 44.5898C376.467 40.5648 369.088 38.7638 361.989 39.6258C338.628 42.3288 327.22 69.8778 341.708 88.3438L341.918 88.6098L341.723 88.8848C331.924 102.775 342.605 122.005 359.586 121.03C361.242 120.964 362.883 120.68 364.466 120.185C369.158 126.517 376.859 130.468 384.756 130.452C392.593 130.546 400.306 126.755 405.06 120.524L405.145 120.414L405.271 120.468C415.044 124.727 427.008 123.239 435.463 116.77C444.134 110.362 448.756 99.4068 447.487 88.7268Z" fill="#C76323"/>
<path d="M406.523 75.2324L406.387 75.4372L405.977 76.8707L405.363 78.9185L404.749 80.3519L403.861 81.8536L403.042 82.9458L402.496 83.6284L401.745 84.4475L400.721 85.4714L400.244 86.0175L399.151 87.1096L398.674 87.6557L397.991 88.4066L397.377 89.1574L396.694 90.0448L396.08 90.9322L395.397 92.0243L394.51 93.8674L393.895 95.5056L393.486 97.0756L393.213 98.7138L393.145 99.3281V101.376L393.418 103.287L393.827 104.652L394.441 105.949L395.056 106.905L395.67 107.656L396.284 108.338L396.967 109.021L397.581 109.499L397.718 109.431L397.104 108.748L396.284 107.519L395.67 106.222L395.192 104.789L394.851 103.014L394.783 102.332V100.83L394.851 99.6694H394.988L395.124 100.489L395.602 102.127L396.216 103.56L396.899 104.857L397.65 105.949L398.264 106.7L399.151 107.656L399.629 107.997L399.697 107.861L399.015 106.768L398.196 105.267L397.377 103.287L396.899 101.854L396.558 100.42L396.353 98.9868L396.284 97.8947V96.7343L396.353 96.5295L396.626 97.6216L396.967 98.9186L397.513 100.42L398.059 101.581L399.015 103.151L399.629 103.97L400.448 104.925L401.267 105.745L402.291 106.495L402.496 106.564L402.428 106.291L401.745 105.403L400.926 104.106L400.039 102.468L399.151 100.625L398.469 98.5773L398.059 96.8025L397.854 95.2325V92.6387H397.991L398.196 94.3452L398.605 96.1199L399.22 98.0995L399.834 99.4647L400.38 100.557L400.994 101.581L401.95 102.878L402.906 103.902L403.042 104.106L403.179 104.038L402.701 103.287L402.155 102.332L401.404 100.693L400.517 98.0995L400.107 96.393L399.766 93.9356V91.8878L399.97 90.3178L400.107 89.7035H400.175L400.244 91.8878L400.448 93.7991L400.858 95.3008L401.336 96.7343L402.018 98.0995L402.837 99.2599L403.657 100.216L404.271 100.898H404.339V100.557L403.793 99.6012L403.11 97.9629L402.564 96.1882L402.223 94.5499L402.087 93.3895V90.7274L402.291 88.9526L402.633 87.2461L403.11 85.6762L403.179 85.5397L403.11 86.154V89.0209L403.383 90.8639L403.793 92.5704L404.339 94.2086L405.022 95.7104L405.158 95.7786L405.09 95.1643L404.817 93.6626L404.612 92.0926L404.544 91.2735V88.3383L404.68 86.9731L405.09 84.9936L405.841 82.1267L406.182 80.2836L406.319 78.8502L406.523 76.1881V75.2324Z" fill="#C76323"/>
<path d="M404.136 69.1572L404.068 69.2937L404.478 70.3859L404.683 71.5463V73.2528L404.478 74.4815L404.341 72.775L404.068 71.6828L403.522 70.5224L402.908 69.7716L402.703 69.7033L402.84 70.0446L403.249 70.932L403.59 72.2289L403.727 73.3893V74.618L403.59 75.8467L403.454 75.7784L403.113 74.0037L402.703 72.775L402.225 71.8876H402.02L402.362 72.9798L402.498 73.7989V75.9149L402.157 77.3484L401.679 78.5088L401.611 78.5771L401.816 77.1436V75.7102L401.611 74.6863L401.27 73.6624L401.065 73.2528H400.997L401.065 74.345L401.133 74.8911V76.5975L400.86 78.031L400.382 79.3279L399.836 80.4201L399.153 81.3075L398.198 82.2631L397.106 83.014L397.515 82.3996L398.13 81.5805L398.88 80.2836L399.427 79.1232L399.768 78.0993L399.973 77.0071L400.041 76.2562V75.4371H399.904L399.427 77.1436L399.017 78.1675L398.471 79.2597L397.788 80.3518L397.106 81.2392L396.355 82.1266L395.672 83.014L394.921 83.9696L393.829 85.4031L392.942 86.7L392.601 87.1778V86.973L393.01 85.8809L393.624 84.7205L394.307 83.6283L395.058 82.5361L395.809 81.5123L396.491 80.5566L397.037 79.601L397.242 79.1914V79.0549H397.106L396.628 79.8058L395.741 80.7614L395.194 81.444L394.444 82.3314L393.42 83.6966L392.328 85.3348L391.508 86.7L391.031 87.6556L390.553 88.8843L390.484 89.1574L390.553 88.4748L390.962 86.8365L391.372 85.7444L392.191 84.1744L393.01 82.9457L393.488 82.1949L393.283 82.2631L392.805 82.8092L392.054 83.6283L391.372 84.5157L390.894 85.1983L390.143 86.4952L389.392 88.1335L388.846 89.6352L388.573 90.7273V89.6352L388.846 88.1335L389.256 86.973L389.734 86.0857V85.8809L389.461 86.0174L388.71 87.0413L388.164 88.0652L387.686 89.3621L387.345 90.9321L387.276 91.7512L387.14 90.6591V89.5669L387.345 88.0652L387.754 86.7L388.3 85.4713L388.778 84.6522L389.188 84.2426V83.8331L388.915 83.9696L388.3 84.5839L387.345 86.0174L386.662 87.3143L386.321 88.3382L386.116 89.4987L386.048 90.2495V91.3417L386.184 92.9116L386.457 94.2768L387.14 96.3246L387.822 97.8946L388.641 99.3963L389.256 100.488L390.211 101.854L391.031 102.946L391.508 103.492V103.287L390.689 101.785L390.28 100.762L389.87 99.3963L389.665 98.3042L389.597 97.6898V95.9833L389.802 94.7547L390.143 93.5942L390.758 92.229L391.44 91.0686L392.396 89.7717L393.147 88.8843L393.761 88.2017L394.239 87.6556L395.741 86.1539L396.491 85.5396L397.447 84.7205L398.13 84.1744L398.812 83.56L400.314 82.3314L400.997 81.717L401.884 80.8297L402.566 79.9423L403.181 79.0549L403.932 77.8262L404.614 76.5293L405.092 75.0958L405.297 74.0037V72.1607L405.092 71.0685L404.683 69.9763L404.205 69.2255L404.136 69.1572Z" fill="#C76323"/>
<path d="M377.993 89.1572L377.72 89.4303L377.174 90.5224L376.833 91.5463L376.696 92.2972V94.2767L376.833 95.0958L376.491 94.2767L376.082 93.048L375.877 92.1607L375.672 92.0924L375.604 92.502L375.672 94.0037L375.877 95.3006L376.355 97.0071L376.901 98.4406L377.788 100.284L378.607 101.649L379.358 102.741L380.314 103.97L380.928 104.652L381.406 105.198L381.884 105.676L382.225 106.086L382.771 106.563L383.385 107.178L384.136 107.792L385.024 108.543L386.252 109.43L387.891 110.523L389.188 111.273L390.758 112.093L393.01 113.116L394.239 113.594L395.877 114.072L396.969 114.345L397.242 114.277L396.355 113.662L395.467 112.912L394.58 112.093L393.42 110.932L392.942 110.386L392.123 109.43L391.372 108.475L390.553 107.383L389.461 105.744L388.573 104.311L387.822 103.014L387.276 101.922L386.594 100.488L386.321 99.9423H386.184L386.321 101.034L386.798 102.946L387.345 104.447L387.959 105.813L388.914 107.451V107.587L387.891 106.222L387.071 105.062L386.321 103.833L385.501 102.263L384.751 100.42L384.068 98.304L383.932 98.3723V99.0549L384.205 100.898L384.614 102.468L385.228 104.106L385.979 105.676L385.57 105.13L384.751 103.901L383.932 102.331L383.385 100.966L383.044 99.9423L382.635 98.0993L382.498 97.0754L382.43 95.5736H382.293L382.157 95.9832L382.02 97.4167V98.3723L382.157 99.8058L382.43 101.034L382.703 101.717L382.43 101.376L381.611 99.8058L380.996 98.2358L380.519 96.5975L380.245 95.0958L380.109 94.0037H379.972L379.904 94.5498V95.8467L380.109 97.5532L380.45 99.1232L380.655 99.9423L379.768 98.031L379.358 96.6658L379.085 95.0958L379.017 94.2085V92.5702L378.812 92.775L378.539 93.8672L378.471 94.2767V96.5975L378.607 98.0993L378.061 96.461L377.652 94.8228L377.447 93.3893V91.6828L377.652 90.4542L377.993 89.362V89.1572Z" fill="#F6F5F2"/>
<path d="M404.339 60.625H403.588L403.11 60.8298L402.7 60.9663V61.1028L403.042 61.4441L403.656 62.1267L404.748 63.765L405.431 65.2667L406.113 67.3145L406.523 68.9527L406.796 70.4544H406.933L407.137 69.021V67.8605L407.001 66.5636L406.728 65.4032L406.455 64.7206H406.591L407.069 65.5397L407.615 66.8366L408.025 68.1336L408.298 69.7718L408.366 70.5227V73.1848H408.502L408.912 71.6148L409.117 70.2496V68.7479L408.912 67.1097L408.844 66.9732L409.049 67.1779L409.526 68.2701L410.004 69.8401L410.277 71.2735L410.345 72.0244V75.6422L410.141 77.1439L409.936 78.0313L410.004 78.236L410.482 77.1439L410.96 75.7104L411.233 74.3452L411.369 73.0483V71.5466L411.165 69.7718L411.096 69.3623L411.233 69.567L411.711 71.4783L411.984 73.3213L412.189 75.6422V77.8265L412.052 79.2599L411.711 80.8299L411.574 81.376L411.779 81.3077L412.325 80.2156L412.803 78.9186L413.144 77.6217L413.349 76.4613L413.417 75.7787L413.485 73.7309L413.827 75.5056L413.895 76.1882V79.4647L413.69 81.376L413.349 83.1507L412.871 84.8572L412.598 85.4716V85.6081H412.735L413.417 84.4477L414.168 82.8777L414.714 81.2395L414.987 79.9425L415.055 79.3964V76.5295L415.602 78.4408L415.943 80.2156L416.148 81.649L416.216 82.7412V83.5603L416.079 85.1985L416.216 85.1303L416.557 83.9016L416.83 82.2634L416.898 81.5125V78.5773L416.762 77.0074L416.352 75.0278L415.875 73.5261L415.055 71.5466L414.236 69.9766L413.417 68.6797L412.735 67.724L411.984 66.7684L411.233 65.9493L409.731 64.4475L408.98 63.8332L407.956 63.0141L406.933 62.3315L405.704 61.6489L405.636 61.5806L407.137 61.7172L408.776 62.0585L409.39 62.195L409.185 61.9902L407.82 61.4441L405.772 60.898L404.339 60.625Z" fill="#C76323"/>
<path d="M393.619 54.3447L393.346 54.413L392.869 54.9591L392.323 55.5051L391.435 56.1195L390.48 56.6656L388.568 57.5529L387.749 58.0308L387.681 58.1673L391.64 58.0308L393.756 57.8942L395.804 57.6212L398.534 57.1434L399.217 57.0751H401.606L402.835 57.2799L404.131 57.6212L405.633 58.1673L404.063 57.9625L403.312 57.8942H402.152L400.923 58.0308L400.241 58.2355V58.3721H401.606L403.654 58.5086L405.838 58.9181L407.476 59.4642L409.046 60.2151H409.251H408.978L407.34 59.669L405.565 59.3277L404.746 59.2594H402.63L402.357 59.396L402.835 59.5325L405.155 59.942L407.067 60.4198L408.91 61.0342L410.957 61.9216L412.937 62.8772L414.234 63.4915L414.985 63.8328L414.848 64.2424L415.121 64.1059L415.258 63.9694L415.19 63.6963L414.302 62.6724L413.551 61.8533L412.118 60.4198L411.367 59.8055L410.343 58.9864L409.183 58.1673L408.022 57.4164L406.316 56.4608L404.678 55.7099L402.903 55.0273L402.288 54.8908L401.674 55.3004L400.309 55.8464L398.875 56.3243L397.237 56.7338L394.916 57.1434L393.346 57.3482V57.2116L393.824 57.1434L394.507 56.8703L395.189 56.4608L396.077 55.7782L396.828 55.0273L396.896 54.686L396.555 54.7543L395.326 55.6417L394.439 56.1877L393.551 56.529L394.302 56.0512L394.78 55.5734L394.985 55.2321L394.916 54.9591L394.575 55.0273L393.892 55.6417L393.142 56.1195L391.776 56.7338H391.64L392.391 56.256L393.073 55.6417L393.551 54.8908L393.688 54.4812L393.619 54.3447Z" fill="#C76323"/>
<path d="M394.375 67.4502L394.307 67.655L394.375 67.9963V69.4297L394.102 70.5219L393.692 71.614L393.078 72.7062L392.395 73.6618L391.713 74.4127L391.235 74.9588L391.03 75.0953V75.2318L390.757 75.3683L390.279 75.8462L389.46 76.4605L389.597 76.5288L390.689 75.8462L391.713 75.1636L392.6 74.4127L393.351 73.6618L394.034 72.7062L394.443 72.0236L394.238 72.7062L393.965 73.3205L393.419 74.2762L392.873 75.027L392.054 75.9144L391.235 76.6653L390.075 77.4844L388.505 78.3035L388.709 78.3718L389.597 78.0305L391.03 77.3479L391.918 76.7335L392.873 75.9827L393.488 75.3683L394.17 74.481L394.511 73.9349V73.7984H394.648L394.375 74.6857L393.965 75.4366L393.283 76.3922L392.464 77.2796L391.713 77.9622L390.348 78.9178L389.392 79.3957L388.982 79.5322V79.6687L390.075 79.3957L391.372 78.8496L392.122 78.3718L392.873 77.7574L393.692 77.0066L393.829 76.9383L393.351 77.7574L392.737 78.44L391.918 79.1909L390.894 79.9417L389.324 80.8974L387.89 81.58L387.481 81.7848L387.412 81.9213L388.027 81.853L390.484 81.0339L391.372 80.6243L390.894 81.1704L390.211 81.853L389.46 82.4674L389.187 82.7404L389.324 82.8087L390.416 82.1943L391.576 81.3752L392.6 80.4878L393.078 80.01L393.692 79.2591L394.375 78.3035L395.058 76.87L395.399 75.7779L395.604 74.6175L395.672 73.8666V72.1601L395.535 70.8632L395.262 69.5662L394.784 68.2011L394.375 67.4502Z" fill="#C76323"/>
<path d="M392.734 52.0918H391.983L391.232 52.2966L390.413 52.7061L389.662 53.3205L388.979 53.9348L388.16 54.8222L387.682 55.3683L386.795 56.1874L386.112 56.1191H385.361L384.406 56.3239L383.587 56.7335L383.518 56.8017H381.675L380.856 56.9382L379.832 57.3478L378.604 58.0304L377.921 58.44H376.146L375.054 58.6447L373.757 58.713H372.256L370.754 58.9178L369.73 59.1908L369.184 59.5321L369.047 59.8052L369.116 60.1465L369.457 60.4195L370.276 60.7608L371.095 60.9656L371.573 61.0338H372.529L373.075 60.8973L373.006 60.6925L370.549 60.3512L370.413 60.283L370.481 60.0782L371.095 59.8734L371.641 59.8052H372.324L373.348 59.9417L374.099 60.1465H374.303L374.167 59.8734L373.484 59.4639L373.143 59.3273L373.075 59.1908L374.372 59.2591L374.918 59.4639L375.054 59.6004H375.464L376.283 59.9417L376.829 60.283L376.966 60.4195V60.1465L376.419 59.6686L375.737 59.3273H377.034L378.126 59.5321L378.399 59.4639L377.853 59.1908L377.375 59.0543H377.921L378.877 59.2591L379.491 59.6004L379.832 59.8734L379.696 59.5321L379.218 59.0543L378.74 58.7813L379.423 58.44L380.378 58.0987L380.72 58.0304H382.153V57.8939L381.539 57.6891H381.061V57.5526H382.222L383.109 57.7574L384.679 57.8939L385.703 58.2352H385.839L385.771 58.0304L384.815 57.5526L383.928 57.3478L384.201 57.2795H385.02L385.976 57.4843L386.385 57.5526L386.249 57.2795L385.498 56.9382L385.157 56.87H386.522L387.341 57.143L387.682 57.3478H387.819L387.682 57.0748L387.341 56.87L388.501 56.6652L389.321 56.3239L390.276 55.7778L390.959 55.2317L391.437 54.6857L391.641 54.2761V54.0031L391.368 54.0713L390.754 54.6174L389.525 55.5048L388.706 55.9826L388.297 56.1191L388.979 55.3683L389.457 54.8222L389.798 54.4126L390.344 53.9348L391.027 53.457L392.051 52.9109L392.802 52.7061L393.348 52.5696L393.484 52.5014L393.416 52.2966L393.143 52.1601L392.734 52.0918Z" fill="#F6F0E7"/>
<path d="M378.125 62.6719L377.716 62.8767L377.511 62.9449L377.852 63.218L378.398 64.1736L378.671 64.9244V66.0166L378.398 66.5627L377.852 66.9722L377.101 67.2453L376.76 67.3135H375.327L374.303 67.0405L373.484 66.7675L373.415 67.0405L374.985 68.0644L375.941 68.747L376.828 69.4979L377.989 70.59L378.74 71.4091L379.354 72.2282L379.9 73.1156L380.719 74.6856L380.856 75.0952H380.992L380.924 74.4808L380.514 73.1156L380.173 72.2965L379.49 70.9996L378.876 70.1805L378.125 69.3613L378.467 69.5661L379.149 70.1122L379.968 70.9313L380.651 71.8869L381.402 73.1839L381.811 74.2078L381.948 74.1395L381.606 72.9108L381.06 71.6139L380.446 70.59L379.559 69.5661L378.671 68.8835L378.535 68.747L379.832 69.4296L380.719 70.1805L381.197 70.6583L381.675 71.3409L381.948 71.8187L382.016 71.6822L381.606 70.59L380.992 69.6344L380.241 68.8153L379.627 68.2692L378.808 67.7914L379.354 67.9279L380.446 68.474L381.197 68.9518L381.948 69.7026L382.153 70.0439L382.289 69.9757L381.606 68.6787L380.856 67.7914L379.968 67.0405L380.514 67.3135L381.402 67.9961L381.606 68.1327L381.47 67.7231L381.06 67.1088L380.31 66.2896L379.695 65.8118L379.49 64.7197L379.149 63.8323L378.603 63.0814L378.125 62.6719Z" fill="#C76323"/>
<path d="M383.658 58.7822L382.565 58.8505L382.497 58.987L383.453 59.1235L384.886 59.6013L386.183 60.2839L386.934 60.83L387.617 61.4444L387.344 61.2396L386.661 60.7618L385.569 60.2157L384.613 59.8744L384.067 59.8061V59.9426L385.432 60.4887L386.525 61.1031L387.207 61.6491L387.958 62.4L388.368 63.0826L387.139 61.8539L386.456 61.3761L385.501 60.8983L385.296 60.9665L386.388 61.7174L387.412 62.673L387.548 62.9461L386.866 62.4683H386.456L386.593 62.8096L386.798 63.4239V63.5604H386.661L386.593 63.2191L386.251 63.3556L385.774 63.5604L385.364 63.6287H384.272L383.248 63.3556L381.746 62.673L381.269 62.5365H380.927L381.337 63.0143L381.883 63.5604L382.497 64.3113L383.112 64.9256L383.862 65.3352L384.545 65.6082L385.228 65.7447H387.071L388.299 65.4717L389.801 65.0621L389.938 64.9939L389.664 63.6287L389.187 62.4683L388.709 61.5809L388.231 60.9665L387.344 60.0792L386.593 59.6013L385.842 59.26L384.613 58.9187L383.658 58.7822Z" fill="#C76323"/>
<path d="M386.249 83.4912L385.976 83.6277L385.362 84.7199L385.02 85.4707L384.679 86.4946L384.406 87.5185V86.9042L384.679 85.539L384.884 84.8564L384.816 84.5834L384.474 85.1294L383.997 86.3581L383.655 87.5868L383.45 88.679L383.314 89.6346L383.246 89.225V87.8598L383.45 86.6312L383.587 85.9486H383.382L382.973 86.9725L382.7 87.9964L382.631 88.4742V89.8394L382.7 90.7268L382.358 89.7711L382.222 88.952V87.5868L382.29 86.2899L382.085 86.4946L381.812 87.382L381.607 88.679V90.0442L381.881 91.4094L382.29 92.638L382.836 93.7302L383.246 94.481L383.86 95.3684L384.406 96.051L385.225 97.0067L385.362 97.0749L385.294 96.6654L384.816 94.8906L384.611 93.3889V90.9998L384.816 89.6346L385.294 87.9281L385.976 86.0851L386.795 84.3786L387 83.969V83.8325H386.863L386.113 84.8564L385.498 85.8803V86.0168H385.362L385.703 84.8564L386.249 83.6277V83.4912Z" fill="#F6F3ED"/>
<path d="M378.266 72.7744L378.198 72.9792L378.334 74.0714L378.402 75.9144L378.266 77.4161L377.925 78.9861L377.447 80.283L376.901 81.4434L376.355 82.2625L375.74 82.9451L374.921 83.696L374.034 84.2421L373.556 84.4468V84.5151H374.307L375.194 84.1738L376.082 83.5595V83.4229L376.355 83.2864L377.037 82.5356L377.583 81.6482L378.061 80.6926V80.4878H378.198L377.652 82.0577L377.037 83.1499L376.423 83.9008L375.945 84.4468L375.058 85.0612L374.239 85.4025L373.078 85.6073L372.327 85.6755V85.8803L372.942 86.0851H373.897L374.921 85.812L375.945 85.266L376.559 84.7881L377.242 84.1738L377.993 83.3547L378.607 82.4673L379.222 81.3069L379.631 80.0782L379.836 78.9178V77.4843L379.631 76.1874L379.358 75.1635L378.539 73.3205L378.266 72.7744Z" fill="#C76323"/>
<path d="M383.314 77.7578H383.177L382.699 79.8739L382.358 80.8978L382.426 79.4643V78.5087L382.29 78.2356H382.222L381.948 79.9421L381.675 80.966L381.061 82.263L380.856 82.536L381.129 81.3073L381.198 80.8978V79.1913H381.061L380.72 80.8978L380.379 81.9899L379.901 83.2869L379.013 85.3347L378.126 86.9729L377.512 87.792L377.17 88.2698L377.512 88.1333L378.331 87.519L379.286 86.6998L379.969 86.0855L381.812 84.2425L382.29 83.6964L383.109 82.6043L383.723 81.4438L383.996 80.4199L384.133 79.396V77.8943H383.996L383.723 78.85L383.382 80.3517L383.109 81.1708L382.699 81.9899L382.836 81.3073L383.109 80.4199L383.314 79.0547V77.7578Z" fill="#C76323"/>
<path d="M374.304 61.1709H373.485L372.393 61.4439L371.164 61.99L370.209 62.6044L369.526 63.2187L369.048 63.7648L368.707 64.3791L368.639 64.5839V65.3347L368.98 66.0173L370.413 66.5634L371.642 67.1095L372.598 67.4508L372.529 67.246L371.233 66.4952L370.959 66.2904L371.506 66.3586L372.803 66.6999L373.007 66.6317L372.529 66.3586L370.891 65.676L370.345 65.403L372.188 65.7443L373.144 65.9491V65.8126L372.052 65.403L370.891 65.0617L371.506 64.9934L373.485 64.9252L374.304 65.0617L374.236 64.8569L373.895 64.7204L372.666 64.5839L370.14 64.5156L372.325 64.0378L372.871 63.9696H374.509L375.055 64.1061L375.328 64.0378L374.987 63.833L373.963 63.6283H372.529L371.847 63.7648H371.574L372.598 63.3552L373.826 63.0822H375.26L375.192 62.9457L374.714 62.8091L373.485 62.7409L372.461 62.9457L371.301 63.3552L372.393 62.7409L373.28 62.4678L374.099 62.3313L375.328 62.2631L375.26 61.9218H374.168L373.144 62.0583L371.779 62.4678L370.891 63.0139L370.482 63.287L371.164 62.6726L372.12 62.1265L373.212 61.717L374.577 61.4439L374.509 61.2392L374.304 61.1709Z" fill="#F5EDE0"/>
<path d="M369.797 85.4717L369.592 85.5399L369.455 85.813V86.9734L369.797 88.0656L370.274 88.8164L371.025 89.6355L371.844 90.2499L372.595 90.5912L373.414 90.7277L374.37 90.6594L375.326 90.3181L376.145 89.7038L376.281 89.4307L375.94 89.5673L375.053 89.8403L374.029 89.9086L373.073 89.772L372.254 89.4307L371.298 88.7482L372.117 89.1577L373.073 89.3625H373.824L374.643 89.1577L375.257 88.8164V88.6799L374.643 88.7482H373.687L372.595 88.5434L371.913 88.2703L371.571 87.9973L372.049 88.1338L373.141 88.2021L374.233 87.9973L375.189 87.5877L375.257 87.383H373.141L372.117 87.1099L371.162 86.6321L370.343 85.813L369.797 85.4717Z" fill="#F6F2EB"/>
<path d="M398.54 59.6006H397.653L396.22 59.8054L395.878 59.9419L396.015 60.0101H397.79L398.95 60.2832L400.315 60.8293L401.066 61.3071L401.476 61.7849L402.022 62.8771L402.227 63.901V64.5836L402.022 65.6075L401.612 66.6996L401.066 67.587L400.52 68.2696L400.042 68.7474L399.155 69.3617L398.814 69.5665V69.703L399.496 69.4983L400.452 68.9522L401.612 68.0648L402.022 67.7235V67.587L402.295 67.4505L402.909 66.6996L403.319 65.8805L403.523 64.9249V63.9692L403.319 63.0136L402.909 62.0579L402.431 61.4436L401.68 60.6927L400.725 60.0784L399.906 59.8054L399.291 59.6688L398.54 59.6006Z" fill="#C76323"/>
<path d="M379.15 62.3311H378.945L379.014 62.5358L379.628 63.0137L380.242 63.7645L380.72 64.4471L381.471 65.9488L382.154 67.2458L382.768 68.4062L383.041 68.6792L382.904 68.0649L382.427 66.6997L381.881 65.5393L382.358 65.9488L383.109 66.6314L383.928 67.1092L384.816 67.3823H385.43L385.703 67.2458L385.498 67.1092L384.201 66.6314L383.246 66.0171L382.631 65.4027L382.017 64.6519L380.584 63.2184L379.696 62.6041L379.15 62.3311Z" fill="#F6EFE4"/>
<path d="M396.963 60.4199H395.939L394.505 60.6247L393.413 60.966L393.277 61.239L394.983 61.7169L396.007 61.9899L397.031 62.3995L397.645 62.7408L397.85 62.9455H397.987L397.85 62.6725L397.099 62.1264L396.348 61.7851L395.461 61.5121H395.052V61.3756L396.758 61.5803L398.055 61.9216L398.669 62.1947L399.147 62.4677H399.284L399.147 62.1947L398.26 61.5803L397.099 61.1708L396.758 61.1025H396.075V60.966H397.236L398.328 61.1025L399.693 61.5121L400.581 61.9899L400.922 62.1264L400.581 61.7169L399.693 61.1708L398.738 60.7612L397.645 60.4882L396.963 60.4199Z" fill="#F5EBDB"/>
<path d="M401.062 52.502H399.833L398.878 52.775L397.854 53.3211L397.103 53.9354L397.239 54.0037L398.4 53.5941L399.219 53.4576H400.857L402.018 53.7306L402.837 54.0719L404.065 54.8228L404.543 55.2323H404.68L404.543 54.891L403.929 54.2084L403.383 53.6624L402.359 52.9798L401.608 52.6385L401.062 52.502Z" fill="#F6F3EC"/>
<path d="M384.34 68.6113L384.272 68.7478L384.681 69.567L384.954 70.4543L385.159 71.5465V73.526L384.954 74.3452L384.886 72.5021L384.681 71.4782L384.203 70.0448L383.726 69.1574L383.589 69.0891L383.794 69.7717L384.135 71.0004L384.272 71.8195L384.34 72.6387V74.0721L384.203 75.369H384.34L384.818 74.823L385.569 74.2086L385.705 73.8673L385.773 73.4578V72.2291L385.5 70.9322L385.091 69.7717L384.681 69.0209L384.34 68.6113Z" fill="#C76323"/>
<path d="M374.307 72.7744H374.17L374.034 73.7301L373.761 75.3683L373.419 76.4604L373.351 76.597L373.283 75.5048L373.01 74.1396L372.737 73.3888H372.669V74.3444L372.737 75.3V76.1191L372.6 77.3478L372.395 78.2352V78.5765L372.737 78.5082L373.283 78.0304L373.829 77.143L374.17 76.1191L374.375 74.9587V73.184L374.307 72.7744Z" fill="#F6EFE5"/>
<path d="M385.91 68.0654L385.773 68.1337L386.183 68.9528L386.456 69.9767V71.2736L386.183 70.1815L385.91 69.6354L385.432 69.0893L385.227 69.1576L385.5 69.7037L385.91 70.8641L386.115 72.5706V73.1849L386.046 73.5945L386.319 73.5262L386.797 73.0484L387.002 72.2975L387.07 71.7515V70.9323L386.866 69.7719L386.524 68.8845L386.115 68.2702L385.91 68.0654Z" fill="#C76323"/>
<path d="M386.862 67.792H386.726L386.862 68.1333L387.203 69.0207L387.34 69.7033L387.408 70.3859V71.0685L387.272 72.2289L387.203 72.6384L387.477 72.5019L387.886 72.0241L388.364 71.6828L388.705 71.205L388.773 71.0002V69.7033L388.432 68.6794L387.954 67.9968L387.75 67.9285L387.954 68.6111L388.227 69.8398V71.1367L388.023 71.7511L387.954 71.6828L388.023 71.4098V70.3176L387.75 69.2937L387.203 68.2016L386.862 67.792Z" fill="#C76323"/>
<path d="M383.583 61.4443H382.559L382.218 61.6491L382.286 61.9222L382.764 62.4682L383.31 62.8095L384.266 63.0143H385.085L385.562 62.8095L385.494 62.4682L384.88 61.9222L384.129 61.5809L383.583 61.4443Z" fill="#C72323"/>
<path d="M397.374 51L396.486 51.0683L395.667 51.3413L394.78 51.8191L393.824 52.5017L393.073 53.2526L393.21 53.3208L394.439 52.57L395.531 52.1604L396.555 51.8874L397.032 51.8191H397.852L398.807 52.0239L399.148 52.1604L399.08 51.8874L398.602 51.4096L398.056 51.1365L397.374 51Z" fill="#F6F1E8"/>
<path d="M370.687 82.8086L370.141 82.8769L369.458 83.1499L369.254 83.5595L369.39 84.1738L369.8 84.7881L370.414 85.3342L371.233 85.6755L371.711 85.812L371.643 85.6072L370.96 85.1977L370.551 84.8564L370.277 84.3103V83.9008L370.414 83.8325L371.506 83.7642L371.37 83.4229L370.824 82.8769L370.687 82.8086Z" fill="#F6F2EA"/>
<path d="M372.12 68.2695L371.642 68.3378L371.369 68.6791L371.164 69.4982V70.3856L371.369 71.7508L371.437 72.0238L371.642 71.9556L372.051 70.2491L372.461 69.2252V68.6108L372.12 68.2695Z" fill="#F6F2EA"/>
<path d="M368.369 61.9219L368.096 62.0584L367.482 62.9458L367.141 63.6966L367.004 64.3792V65.0618L367.141 65.7444L367.414 66.2222H367.55V65.1301L367.891 64.1744L368.369 63.4236L368.438 63.2871V62.6045L368.369 61.9219Z" fill="#F6F1E8"/>
<path d="M368.571 67.041L368.23 67.1093L367.957 67.6554L367.82 68.2697V69.4984L368.025 70.3175L368.298 70.8636L368.435 70.7953V69.7031L368.639 68.8158L369.117 67.9284L369.049 67.5871L368.776 67.1775L368.571 67.041Z" fill="#F6F2EB"/>
<path d="M372.319 79.1914L372.114 79.2597L371.773 79.9423L371.568 80.6249V81.3075L371.773 81.9901L372.046 82.3996L372.183 82.5361H372.592L372.797 82.2631L372.729 81.717L372.387 80.7614L372.319 80.4201V79.1914Z" fill="#F6F1E9"/>
<path d="M369.046 78.9189L368.842 79.1237L368.637 79.8063V80.4889L368.773 81.1033L369.115 81.6493L369.388 81.9224L369.729 81.9906L370.002 81.8541L370.07 81.5811L369.592 80.8985L369.251 79.8063L369.046 78.9189Z" fill="#F6EEE3"/>
<path d="M373.624 68.7471L373.351 68.8153L373.009 69.2249L372.736 70.044V70.1805H372.873L373.282 69.5662L373.419 69.4979L374.033 69.5662L374.852 70.044L375.808 70.8631L376.422 71.5457L376.559 71.8188H376.695L376.627 71.4775L376.149 70.7266L375.194 69.771L374.17 69.0884L373.624 68.7471Z" fill="#C76323"/>
<path d="M372.601 79.3965L372.464 79.4647V80.0108L372.669 80.6252L373.215 81.1712L374.034 81.5808L374.171 81.7856L374.307 81.5808H375.263L375.877 81.2395L375.945 81.0347L375.263 81.1712H374.58L373.898 80.9665L373.351 80.5569L372.805 79.9426L372.601 79.3965Z" fill="#C76323"/>
<path d="M388.779 67.3828L388.574 67.4511L389.052 68.5432L389.325 69.7036V70.7275L389.666 70.591L389.734 70.5228V69.3623L389.393 68.2702L388.915 67.5193L388.779 67.3828Z" fill="#C76323"/>
<path d="M369.598 78.5088H369.393V79.0549L369.666 79.874L370.076 80.4201L370.69 80.8296L371.305 80.8979V80.5566L370.622 80.2153L370.008 79.6009L369.666 78.9866L369.598 78.5088Z" fill="#C76323"/>
<path d="M389.259 66.9053H389.123L389.259 67.2466L389.737 68.2022L390.079 69.3626L390.147 69.7722H390.283L390.352 69.6357V68.68L390.079 67.9292L389.601 67.1783L389.259 66.9053Z" fill="#C76323"/>
<path d="M370.077 68.2012L369.599 68.3377L368.916 69.7029V70.4537L369.053 70.3172L369.258 69.7711L369.667 69.0203L370.009 68.679H370.35H370.555L370.213 68.2694L370.077 68.2012Z" fill="#C76323"/>
<path d="M394.101 61.7852H393.555L393.76 61.9899L395.534 62.6725L396.285 63.0138L396.422 62.9456L395.944 62.536L395.125 62.1265L394.101 61.7852Z" fill="#F5E5CF"/>
<path d="M397.446 62.3311L397.31 62.3993V62.5358L397.719 62.8089L397.992 62.9454L397.856 62.6724L397.446 62.3311Z" fill="#F2CD9C"/>
</svg>
